%TF.GenerationSoftware,Altium Limited,Altium Designer,23.4.1 (23)*%
G04 Layer_Color=0*
%FSLAX45Y45*%
%MOMM*%
%TF.SameCoordinates,FC7CEE8C-9C91-443A-B6C4-03D5C87B0654*%
%TF.FilePolarity,Positive*%
%TF.FileFunction,Plated,1,2,PTH,Drill*%
%TF.Part,Single*%
G01*
G75*
%TA.AperFunction,ComponentDrill*%
%ADD41C,1.10000*%
%ADD42C,1.10000*%
%TA.AperFunction,OtherDrill,Pad Free-17 (2.794mm,78.359mm)*%
%ADD43C,0.76200*%
%TA.AperFunction,OtherDrill,Pad Free-17 (2.794mm,75.819mm)*%
%ADD44C,0.76200*%
%TA.AperFunction,OtherDrill,Pad Free-17 (5.334mm,75.819mm)*%
%ADD45C,0.76200*%
%TA.AperFunction,OtherDrill,Pad Free-17 (5.334mm,78.359mm)*%
%ADD46C,0.76200*%
%TA.AperFunction,OtherDrill,Pad Free-17 (10.414mm,78.359mm)*%
%ADD47C,0.76200*%
%TA.AperFunction,OtherDrill,Pad Free-17 (10.414mm,75.819mm)*%
%ADD48C,0.76200*%
%TA.AperFunction,OtherDrill,Pad Free-17 (7.874mm,75.819mm)*%
%ADD49C,0.76200*%
%TA.AperFunction,OtherDrill,Pad Free-17 (7.874mm,78.359mm)*%
%ADD50C,0.76200*%
%TA.AperFunction,OtherDrill,Pad Free-17 (18.034mm,78.359mm)*%
%ADD51C,0.76200*%
%TA.AperFunction,OtherDrill,Pad Free-17 (18.034mm,75.819mm)*%
%ADD52C,0.76200*%
%TA.AperFunction,OtherDrill,Pad Free-17 (20.574mm,75.819mm)*%
%ADD53C,0.76200*%
%TA.AperFunction,OtherDrill,Pad Free-17 (20.574mm,78.359mm)*%
%ADD54C,0.76200*%
%TA.AperFunction,OtherDrill,Pad Free-17 (15.494mm,78.359mm)*%
%ADD55C,0.76200*%
%TA.AperFunction,OtherDrill,Pad Free-17 (15.494mm,75.819mm)*%
%ADD56C,0.76200*%
%TA.AperFunction,OtherDrill,Pad Free-17 (12.954mm,75.819mm)*%
%ADD57C,0.76200*%
%TA.AperFunction,OtherDrill,Pad Free-17 (12.954mm,78.359mm)*%
%ADD58C,0.76200*%
%TA.AperFunction,OtherDrill,Pad Free-17 (28.194mm,78.359mm)*%
%ADD59C,0.76200*%
%TA.AperFunction,OtherDrill,Pad Free-17 (28.194mm,75.819mm)*%
%ADD60C,0.76200*%
%TA.AperFunction,OtherDrill,Pad Free-17 (30.734mm,75.819mm)*%
%ADD61C,0.76200*%
%TA.AperFunction,OtherDrill,Pad Free-17 (30.734mm,78.359mm)*%
%ADD62C,0.76200*%
%TA.AperFunction,OtherDrill,Pad Free-17 (25.654mm,78.359mm)*%
%ADD63C,0.76200*%
%TA.AperFunction,OtherDrill,Pad Free-17 (25.654mm,75.819mm)*%
%ADD64C,0.76200*%
%TA.AperFunction,OtherDrill,Pad Free-17 (23.114mm,75.819mm)*%
%ADD65C,0.76200*%
%TA.AperFunction,OtherDrill,Pad Free-17 (23.114mm,78.359mm)*%
%ADD66C,0.76200*%
%TA.AperFunction,OtherDrill,Pad Free-17 (25.654mm,73.279mm)*%
%ADD67C,0.76200*%
%TA.AperFunction,OtherDrill,Pad Free-17 (25.654mm,70.739mm)*%
%ADD68C,0.76200*%
%TA.AperFunction,OtherDrill,Pad Free-17 (23.114mm,70.739mm)*%
%ADD69C,0.76200*%
%TA.AperFunction,OtherDrill,Pad Free-17 (23.114mm,73.279mm)*%
%ADD70C,0.76200*%
%TA.AperFunction,OtherDrill,Pad Free-17 (28.194mm,73.279mm)*%
%ADD71C,0.76200*%
%TA.AperFunction,OtherDrill,Pad Free-17 (28.194mm,70.739mm)*%
%ADD72C,0.76200*%
%TA.AperFunction,OtherDrill,Pad Free-17 (30.734mm,70.739mm)*%
%ADD73C,0.76200*%
%TA.AperFunction,OtherDrill,Pad Free-17 (30.734mm,73.279mm)*%
%ADD74C,0.76200*%
%TA.AperFunction,OtherDrill,Pad Free-17 (2.794mm,70.739mm)*%
%ADD75C,0.76200*%
%TA.AperFunction,OtherDrill,Pad Free-17 (15.494mm,73.279mm)*%
%ADD76C,0.76200*%
%TA.AperFunction,OtherDrill,Pad Free-17 (15.494mm,70.739mm)*%
%ADD77C,0.76200*%
%TA.AperFunction,OtherDrill,Pad Free-17 (18.034mm,73.279mm)*%
%ADD78C,0.76200*%
%TA.AperFunction,OtherDrill,Pad Free-17 (18.034mm,70.739mm)*%
%ADD79C,0.76200*%
%TA.AperFunction,OtherDrill,Pad Free-17 (20.574mm,70.739mm)*%
%ADD80C,0.76200*%
%TA.AperFunction,OtherDrill,Pad Free-17 (20.574mm,73.279mm)*%
%ADD81C,0.76200*%
%TA.AperFunction,OtherDrill,Pad Free-17 (12.954mm,73.279mm)*%
%ADD82C,0.76200*%
%TA.AperFunction,OtherDrill,Pad Free-17 (7.874mm,70.739mm)*%
%ADD83C,0.76200*%
%TA.AperFunction,OtherDrill,Pad Free-17 (5.334mm,70.739mm)*%
%ADD84C,0.76200*%
%TA.AperFunction,OtherDrill,Pad Free-17 (7.874mm,73.279mm)*%
%ADD85C,0.76200*%
%TA.AperFunction,OtherDrill,Pad Free-17 (5.334mm,73.279mm)*%
%ADD86C,0.76200*%
%TA.AperFunction,OtherDrill,Pad Free-17 (10.414mm,73.279mm)*%
%ADD87C,0.76200*%
%TA.AperFunction,OtherDrill,Pad Free-17 (2.794mm,73.279mm)*%
%ADD88C,0.76200*%
%TA.AperFunction,OtherDrill,Pad Free-17 (12.954mm,70.739mm)*%
%ADD89C,0.76200*%
%TA.AperFunction,OtherDrill,Pad Free-17 (10.414mm,70.739mm)*%
%ADD90C,0.76200*%
%TA.AperFunction,ComponentDrill*%
%ADD91C,1.04000*%
D41*
X2539000Y2721000D02*
D03*
Y2467000D02*
D03*
X2285000Y2721000D02*
D03*
Y2467000D02*
D03*
X2031000Y2721000D02*
D03*
Y2467000D02*
D03*
X1777000Y2721000D02*
D03*
Y2467000D02*
D03*
X1523000Y2721000D02*
D03*
Y2467000D02*
D03*
X1269000Y2721000D02*
D03*
Y2467000D02*
D03*
X1015000Y2721000D02*
D03*
Y2467000D02*
D03*
X761000Y2721000D02*
D03*
Y2467000D02*
D03*
Y6278000D02*
D03*
Y6532000D02*
D03*
X1015000Y6278000D02*
D03*
Y6532000D02*
D03*
X1269000Y6278000D02*
D03*
Y6532000D02*
D03*
X1523000Y6278000D02*
D03*
Y6532000D02*
D03*
X1777000Y6278000D02*
D03*
Y6532000D02*
D03*
X2031000Y6278000D02*
D03*
Y6532000D02*
D03*
X2285000Y6278000D02*
D03*
Y6532000D02*
D03*
X2539000Y6278000D02*
D03*
Y6532000D02*
D03*
D42*
X2919000Y5389000D02*
D03*
X3173000D02*
D03*
X2919000Y5135000D02*
D03*
X3173000D02*
D03*
X2919000Y4881000D02*
D03*
X3173000D02*
D03*
X2919000Y4627000D02*
D03*
X3173000D02*
D03*
X2919000Y4373000D02*
D03*
X3173000D02*
D03*
X2919000Y4119000D02*
D03*
X3173000D02*
D03*
X2919000Y3865000D02*
D03*
X3173000D02*
D03*
X2919000Y3611000D02*
D03*
X3173000D02*
D03*
X381000D02*
D03*
X127000D02*
D03*
X381000Y3865000D02*
D03*
X127000D02*
D03*
X381000Y4119000D02*
D03*
X127000D02*
D03*
X381000Y4373000D02*
D03*
X127000D02*
D03*
X381000Y4627000D02*
D03*
X127000D02*
D03*
X381000Y4881000D02*
D03*
X127000D02*
D03*
X381000Y5135000D02*
D03*
X127000D02*
D03*
X381000Y5389000D02*
D03*
X127000D02*
D03*
D43*
X279400Y7835900D02*
D03*
D44*
Y7581900D02*
D03*
D45*
X533400D02*
D03*
D46*
Y7835900D02*
D03*
D47*
X1041400D02*
D03*
D48*
Y7581900D02*
D03*
D49*
X787400D02*
D03*
D50*
Y7835900D02*
D03*
D51*
X1803400D02*
D03*
D52*
Y7581900D02*
D03*
D53*
X2057400D02*
D03*
D54*
Y7835900D02*
D03*
D55*
X1549400D02*
D03*
D56*
Y7581900D02*
D03*
D57*
X1295400D02*
D03*
D58*
Y7835900D02*
D03*
D59*
X2819400D02*
D03*
D60*
Y7581900D02*
D03*
D61*
X3073400D02*
D03*
D62*
Y7835900D02*
D03*
D63*
X2565400D02*
D03*
D64*
Y7581900D02*
D03*
D65*
X2311400D02*
D03*
D66*
Y7835900D02*
D03*
D67*
X2565400Y7327900D02*
D03*
D68*
Y7073900D02*
D03*
D69*
X2311400D02*
D03*
D70*
Y7327900D02*
D03*
D71*
X2819400D02*
D03*
D72*
Y7073900D02*
D03*
D73*
X3073400D02*
D03*
D74*
Y7327900D02*
D03*
D75*
X279400Y7073900D02*
D03*
D76*
X1549400Y7327900D02*
D03*
D77*
Y7073900D02*
D03*
D78*
X1803400Y7327900D02*
D03*
D79*
Y7073900D02*
D03*
D80*
X2057400D02*
D03*
D81*
Y7327900D02*
D03*
D82*
X1295400D02*
D03*
D83*
X787400Y7073900D02*
D03*
D84*
X533400D02*
D03*
D85*
X787400Y7327900D02*
D03*
D86*
X533400D02*
D03*
D87*
X1041400D02*
D03*
D88*
X279400D02*
D03*
D89*
X1295400Y7073900D02*
D03*
D90*
X1041400D02*
D03*
D91*
X508000Y8238000D02*
D03*
Y8492000D02*
D03*
X762000Y8238000D02*
D03*
Y8492000D02*
D03*
X1016000Y8238000D02*
D03*
Y8492000D02*
D03*
X1270000Y8238000D02*
D03*
Y8492000D02*
D03*
X1524000Y8238000D02*
D03*
Y8492000D02*
D03*
X1778000Y8238000D02*
D03*
Y8492000D02*
D03*
X2032000Y8238000D02*
D03*
Y8492000D02*
D03*
X2286000Y8238000D02*
D03*
Y8492000D02*
D03*
X2540000Y8238000D02*
D03*
Y8492000D02*
D03*
X2794000Y8238000D02*
D03*
Y8492000D02*
D03*
X508000Y508000D02*
D03*
Y762000D02*
D03*
X762000Y508000D02*
D03*
Y762000D02*
D03*
X1016000Y508000D02*
D03*
Y762000D02*
D03*
X1270000Y508000D02*
D03*
Y762000D02*
D03*
X1524000Y508000D02*
D03*
Y762000D02*
D03*
X1778000Y508000D02*
D03*
Y762000D02*
D03*
X2032000Y508000D02*
D03*
Y762000D02*
D03*
X2286000Y508000D02*
D03*
Y762000D02*
D03*
X2540000Y508000D02*
D03*
Y762000D02*
D03*
X2794000Y508000D02*
D03*
Y762000D02*
D03*
%TF.MD5,f257f7d67ca7e25c3ac87b878081ada8*%
M02*
