%TF.GenerationSoftware,Altium Limited,Altium Designer,23.4.1 (23)*%
G04 Layer_Color=16711935*
%FSLAX45Y45*%
%MOMM*%
%TF.SameCoordinates,FC7CEE8C-9C91-443A-B6C4-03D5C87B0654*%
%TF.FilePolarity,Positive*%
%TF.FileFunction,Other,Mechanical_13*%
%TF.Part,Single*%
G01*
G75*
%TA.AperFunction,NonConductor*%
%ADD22C,0.20000*%
%ADD24C,0.12700*%
%ADD36C,0.10160*%
%ADD37C,0.10000*%
G36*
X2035000Y4980000D02*
X2015000D01*
Y5100000D01*
X2035000D01*
Y4980000D01*
D02*
G37*
G36*
X1985000D02*
X1965000D01*
Y5100000D01*
X1985000D01*
Y4980000D01*
D02*
G37*
G36*
X1935000D02*
X1915000D01*
Y5100000D01*
X1935000D01*
Y4980000D01*
D02*
G37*
G36*
X1885000D02*
X1865000D01*
Y5100000D01*
X1885000D01*
Y4980000D01*
D02*
G37*
G36*
X1835000D02*
X1815000D01*
Y5100000D01*
X1835000D01*
Y4980000D01*
D02*
G37*
G36*
X1785000D02*
X1765000D01*
Y5100000D01*
X1785000D01*
Y4980000D01*
D02*
G37*
G36*
X1735000D02*
X1715000D01*
Y5100000D01*
X1735000D01*
Y4980000D01*
D02*
G37*
G36*
X1685000D02*
X1665000D01*
Y5100000D01*
X1685000D01*
Y4980000D01*
D02*
G37*
G36*
X1635000D02*
X1615000D01*
Y5100000D01*
X1635000D01*
Y4980000D01*
D02*
G37*
G36*
X1585000D02*
X1565000D01*
Y5100000D01*
X1585000D01*
Y4980000D01*
D02*
G37*
G36*
X1535000D02*
X1515000D01*
Y5100000D01*
X1535000D01*
Y4980000D01*
D02*
G37*
G36*
X1485000D02*
X1465000D01*
Y5100000D01*
X1485000D01*
Y4980000D01*
D02*
G37*
G36*
X1435000D02*
X1415000D01*
Y5100000D01*
X1435000D01*
Y4980000D01*
D02*
G37*
G36*
X1385000D02*
X1365000D01*
Y5100000D01*
X1385000D01*
Y4980000D01*
D02*
G37*
G36*
X1335000D02*
X1315000D01*
Y5100000D01*
X1335000D01*
Y4980000D01*
D02*
G37*
G36*
X1285000D02*
X1265000D01*
Y5100000D01*
X1285000D01*
Y4980000D01*
D02*
G37*
G36*
X2250000Y4865000D02*
X2130000D01*
Y4885000D01*
X2250000D01*
Y4865000D01*
D02*
G37*
G36*
X1170000D02*
X1050000D01*
Y4885000D01*
X1170000D01*
Y4865000D01*
D02*
G37*
G36*
X2250000Y4815000D02*
X2130000D01*
Y4835000D01*
X2250000D01*
Y4815000D01*
D02*
G37*
G36*
X1170000D02*
X1050000D01*
Y4835000D01*
X1170000D01*
Y4815000D01*
D02*
G37*
G36*
X2250000Y4765000D02*
X2130000D01*
Y4785000D01*
X2250000D01*
Y4765000D01*
D02*
G37*
G36*
X1170000D02*
X1050000D01*
Y4785000D01*
X1170000D01*
Y4765000D01*
D02*
G37*
G36*
X2250000Y4715000D02*
X2130000D01*
Y4735000D01*
X2250000D01*
Y4715000D01*
D02*
G37*
G36*
X1170000D02*
X1050000D01*
Y4735000D01*
X1170000D01*
Y4715000D01*
D02*
G37*
G36*
X2250000Y4665000D02*
X2130000D01*
Y4685000D01*
X2250000D01*
Y4665000D01*
D02*
G37*
G36*
X1170000D02*
X1050000D01*
Y4685000D01*
X1170000D01*
Y4665000D01*
D02*
G37*
G36*
X2250000Y4615000D02*
X2130000D01*
Y4635000D01*
X2250000D01*
Y4615000D01*
D02*
G37*
G36*
X1170000D02*
X1050000D01*
Y4635000D01*
X1170000D01*
Y4615000D01*
D02*
G37*
G36*
X2250000Y4565000D02*
X2130000D01*
Y4585000D01*
X2250000D01*
Y4565000D01*
D02*
G37*
G36*
X1170000D02*
X1050000D01*
Y4585000D01*
X1170000D01*
Y4565000D01*
D02*
G37*
G36*
X2250000Y4515000D02*
X2130000D01*
Y4535000D01*
X2250000D01*
Y4515000D01*
D02*
G37*
G36*
X1170000D02*
X1050000D01*
Y4535000D01*
X1170000D01*
Y4515000D01*
D02*
G37*
G36*
X2250000Y4465000D02*
X2130000D01*
Y4485000D01*
X2250000D01*
Y4465000D01*
D02*
G37*
G36*
X1170000D02*
X1050000D01*
Y4485000D01*
X1170000D01*
Y4465000D01*
D02*
G37*
G36*
X2250000Y4415000D02*
X2130000D01*
Y4435000D01*
X2250000D01*
Y4415000D01*
D02*
G37*
G36*
X1170000D02*
X1050000D01*
Y4435000D01*
X1170000D01*
Y4415000D01*
D02*
G37*
G36*
X2250000Y4365000D02*
X2130000D01*
Y4385000D01*
X2250000D01*
Y4365000D01*
D02*
G37*
G36*
X1170000D02*
X1050000D01*
Y4385000D01*
X1170000D01*
Y4365000D01*
D02*
G37*
G36*
X2250000Y4315000D02*
X2130000D01*
Y4335000D01*
X2250000D01*
Y4315000D01*
D02*
G37*
G36*
X1170000D02*
X1050000D01*
Y4335000D01*
X1170000D01*
Y4315000D01*
D02*
G37*
G36*
X2250000Y4265000D02*
X2130000D01*
Y4285000D01*
X2250000D01*
Y4265000D01*
D02*
G37*
G36*
X1170000D02*
X1050000D01*
Y4285000D01*
X1170000D01*
Y4265000D01*
D02*
G37*
G36*
X2250000Y4215000D02*
X2130000D01*
Y4235000D01*
X2250000D01*
Y4215000D01*
D02*
G37*
G36*
X1170000D02*
X1050000D01*
Y4235000D01*
X1170000D01*
Y4215000D01*
D02*
G37*
G36*
X2250000Y4165000D02*
X2130000D01*
Y4185000D01*
X2250000D01*
Y4165000D01*
D02*
G37*
G36*
X1170000D02*
X1050000D01*
Y4185000D01*
X1170000D01*
Y4165000D01*
D02*
G37*
G36*
X2250000Y4115000D02*
X2130000D01*
Y4135000D01*
X2250000D01*
Y4115000D01*
D02*
G37*
G36*
X1170000D02*
X1050000D01*
Y4135000D01*
X1170000D01*
Y4115000D01*
D02*
G37*
G36*
X2035000Y3900000D02*
X2015000D01*
Y4020000D01*
X2035000D01*
Y3900000D01*
D02*
G37*
G36*
X1985000D02*
X1965000D01*
Y4020000D01*
X1985000D01*
Y3900000D01*
D02*
G37*
G36*
X1935000D02*
X1915000D01*
Y4020000D01*
X1935000D01*
Y3900000D01*
D02*
G37*
G36*
X1885000D02*
X1865000D01*
Y4020000D01*
X1885000D01*
Y3900000D01*
D02*
G37*
G36*
X1835000D02*
X1815000D01*
Y4020000D01*
X1835000D01*
Y3900000D01*
D02*
G37*
G36*
X1785000D02*
X1765000D01*
Y4020000D01*
X1785000D01*
Y3900000D01*
D02*
G37*
G36*
X1735000D02*
X1715000D01*
Y4020000D01*
X1735000D01*
Y3900000D01*
D02*
G37*
G36*
X1685000D02*
X1665000D01*
Y4020000D01*
X1685000D01*
Y3900000D01*
D02*
G37*
G36*
X1635000D02*
X1615000D01*
Y4020000D01*
X1635000D01*
Y3900000D01*
D02*
G37*
G36*
X1585000D02*
X1565000D01*
Y4020000D01*
X1585000D01*
Y3900000D01*
D02*
G37*
G36*
X1535000D02*
X1515000D01*
Y4020000D01*
X1535000D01*
Y3900000D01*
D02*
G37*
G36*
X1485000D02*
X1465000D01*
Y4020000D01*
X1485000D01*
Y3900000D01*
D02*
G37*
G36*
X1435000D02*
X1415000D01*
Y4020000D01*
X1435000D01*
Y3900000D01*
D02*
G37*
G36*
X1385000D02*
X1365000D01*
Y4020000D01*
X1385000D01*
Y3900000D01*
D02*
G37*
G36*
X1335000D02*
X1315000D01*
Y4020000D01*
X1335000D01*
Y3900000D01*
D02*
G37*
G36*
X1285000D02*
X1265000D01*
Y4020000D01*
X1285000D01*
Y3900000D01*
D02*
G37*
G36*
X911610Y3831110D02*
X816587D01*
Y3881161D01*
X911610D01*
Y3831110D01*
D02*
G37*
G36*
Y3714270D02*
X816513D01*
Y3764212D01*
X911610D01*
Y3714270D01*
D02*
G37*
G36*
X2180687Y1379288D02*
X2085590D01*
Y1429230D01*
X2180687D01*
Y1379288D01*
D02*
G37*
G36*
X1266287D02*
X1171190D01*
Y1429230D01*
X1266287D01*
Y1379288D01*
D02*
G37*
G36*
X2180613Y1262339D02*
X2085590D01*
Y1312390D01*
X2180613D01*
Y1262339D01*
D02*
G37*
G36*
X1266213D02*
X1171190D01*
Y1312390D01*
X1266213D01*
Y1262339D01*
D02*
G37*
D22*
X579000Y2467000D02*
G03*
X579000Y2467000I-10000J0D01*
G01*
X3183000Y3419000D02*
G03*
X3183000Y3419000I-10000J0D01*
G01*
X137000Y5581000D02*
G03*
X137000Y5581000I-10000J0D01*
G01*
X2741000Y6532000D02*
G03*
X2741000Y6532000I-10000J0D01*
G01*
X300500Y8238000D02*
G03*
X300500Y8238000I-10000J0D01*
G01*
Y508000D02*
G03*
X300500Y508000I-10000J0D01*
G01*
D24*
X2666000Y2352500D02*
Y2835500D01*
X634000D02*
X2666000D01*
X634000Y2352500D02*
Y2835500D01*
Y2352500D02*
X2666000D01*
Y2835500D01*
X634000D02*
X2666000D01*
X634000Y2352500D02*
Y2835500D01*
X2804500Y5516000D02*
X3287500D01*
X2804500Y3484000D02*
Y5516000D01*
Y3484000D02*
X3287500D01*
Y5516000D01*
X2804500D02*
X3287500D01*
X2804500Y3484000D02*
Y5516000D01*
Y3484000D02*
X3287500D01*
X12500D02*
X495500D01*
Y5516000D01*
X12500D02*
X495500D01*
X12500Y3484000D02*
Y5516000D01*
Y3484000D02*
X495500D01*
Y5516000D01*
X12500D02*
X495500D01*
X634000Y6163500D02*
Y6646500D01*
Y6163500D02*
X2666000D01*
Y6646500D01*
X634000D02*
X2666000D01*
X634000Y6163500D02*
Y6646500D01*
Y6163500D02*
X2666000D01*
Y6646500D01*
X2220000Y1695400D02*
Y2165400D01*
X1080000Y1695400D02*
Y2165400D01*
Y1695400D02*
X2220000D01*
X1080000Y2165400D02*
X2220000D01*
D36*
X821700Y3761700D02*
Y3832900D01*
X906800Y3761700D02*
Y3832900D01*
X1261100Y1310600D02*
Y1381800D01*
X1176000Y1310600D02*
Y1381800D01*
X2175500Y1310600D02*
Y1381800D01*
X2090400Y1310600D02*
Y1381800D01*
D37*
X2946500Y8117350D02*
Y8612650D01*
X355500D02*
X2946500D01*
X355500Y8117350D02*
Y8612650D01*
Y8117350D02*
X2946500D01*
Y8612650D01*
X355500D02*
X2946500D01*
X355500Y8117350D02*
Y8612650D01*
X2946500Y387350D02*
Y882650D01*
X355500D02*
X2946500D01*
X355500Y387350D02*
Y882650D01*
Y387350D02*
X2946500D01*
Y882650D01*
X355500D02*
X2946500D01*
X355500Y387350D02*
Y882650D01*
%TF.MD5,a2f2626ed9ddfb2155231b1cc7689aef*%
M02*
