%TF.GenerationSoftware,Altium Limited,Altium Designer,23.4.1 (23)*%
G04 Layer_Physical_Order=1*
G04 Layer_Color=255*
%FSLAX45Y45*%
%MOMM*%
%TF.SameCoordinates,FC7CEE8C-9C91-443A-B6C4-03D5C87B0654*%
%TF.FilePolarity,Positive*%
%TF.FileFunction,Copper,L1,Top,Signal*%
%TF.Part,Single*%
G01*
G75*
%TA.AperFunction,SMDPad,CuDef*%
%ADD10R,1.20000X0.30000*%
%ADD11R,0.30000X1.20000*%
%ADD12R,1.00000X1.10000*%
%ADD13R,5.60000X2.10000*%
%TA.AperFunction,Conductor*%
%ADD14C,0.20000*%
%ADD15C,0.25400*%
%TA.AperFunction,ComponentPad*%
%ADD16C,1.65000*%
%ADD17R,1.65000X1.65000*%
%ADD18R,1.65000X1.65000*%
%TA.AperFunction,ViaPad*%
%ADD19R,2.00000X2.00000*%
%TA.AperFunction,ComponentPad*%
%ADD20R,1.39000X1.39000*%
%ADD21C,1.39000*%
G36*
X298480Y5205073D02*
X294659Y5201252D01*
X280453Y5176648D01*
X273100Y5149205D01*
Y5120795D01*
X280453Y5093352D01*
X294659Y5068748D01*
X314748Y5048658D01*
X317169Y5047261D01*
X313882Y5034993D01*
X244900D01*
X231088Y5032246D01*
X219378Y5024422D01*
X173628Y4978672D01*
X168648Y4981547D01*
X141205Y4988900D01*
X112795D01*
X85352Y4981547D01*
X60748Y4967341D01*
X40659Y4947252D01*
X26453Y4922648D01*
X25400Y4918718D01*
X12700Y4920390D01*
Y5095610D01*
X25400Y5097282D01*
X26453Y5093352D01*
X40659Y5068748D01*
X60748Y5048658D01*
X85352Y5034453D01*
X112795Y5027100D01*
X141205D01*
X168648Y5034453D01*
X193252Y5048658D01*
X213341Y5068748D01*
X227547Y5093352D01*
X234900Y5120795D01*
Y5149205D01*
X227547Y5176648D01*
X224672Y5181628D01*
X259850Y5216806D01*
X293619D01*
X298480Y5205073D01*
D02*
G37*
G36*
X693824Y5191867D02*
Y5180082D01*
X696572Y5166270D01*
X704396Y5154560D01*
X985163Y4873793D01*
X979902Y4861093D01*
X959950D01*
X478672Y5342372D01*
X481547Y5347352D01*
X488900Y5374795D01*
Y5380198D01*
X500633Y5385058D01*
X693824Y5191867D01*
D02*
G37*
G36*
X298480Y4951073D02*
X294659Y4947252D01*
X280453Y4922648D01*
X273100Y4895205D01*
Y4866795D01*
X280453Y4839352D01*
X294659Y4814748D01*
X314748Y4794658D01*
X317169Y4793261D01*
X313882Y4780993D01*
X244900D01*
X231088Y4778246D01*
X219378Y4770422D01*
X173628Y4724672D01*
X168648Y4727547D01*
X141205Y4734900D01*
X112795D01*
X85352Y4727547D01*
X60748Y4713341D01*
X40659Y4693252D01*
X26453Y4668648D01*
X25400Y4664718D01*
X12700Y4666390D01*
Y4841610D01*
X25400Y4843282D01*
X26453Y4839352D01*
X40659Y4814748D01*
X60748Y4794658D01*
X85352Y4780453D01*
X112795Y4773100D01*
X141205D01*
X168648Y4780453D01*
X193252Y4794658D01*
X213341Y4814748D01*
X227547Y4839352D01*
X234900Y4866795D01*
Y4895205D01*
X227547Y4922648D01*
X224672Y4927628D01*
X259850Y4962806D01*
X293619D01*
X298480Y4951073D01*
D02*
G37*
G36*
X871162Y4772827D02*
X866301Y4761093D01*
X805950D01*
X478672Y5088372D01*
X481547Y5093352D01*
X488900Y5120795D01*
Y5137128D01*
X501600Y5142388D01*
X871162Y4772827D01*
D02*
G37*
G36*
X727924Y4672827D02*
X723064Y4661093D01*
X651950D01*
X478672Y4834372D01*
X481547Y4839352D01*
X488900Y4866795D01*
Y4893890D01*
X494493Y4898434D01*
X499453Y4901298D01*
X727924Y4672827D01*
D02*
G37*
G36*
X298480Y4697073D02*
X294659Y4693252D01*
X280453Y4668648D01*
X273100Y4641205D01*
Y4612795D01*
X280453Y4585352D01*
X294659Y4560748D01*
X314748Y4540658D01*
X317169Y4539261D01*
X313882Y4526993D01*
X244900D01*
X231088Y4524246D01*
X219378Y4516422D01*
X173628Y4470672D01*
X168648Y4473547D01*
X141205Y4480900D01*
X112795D01*
X85352Y4473547D01*
X60748Y4459341D01*
X40659Y4439252D01*
X26453Y4414648D01*
X25400Y4410718D01*
X12700Y4412390D01*
Y4587610D01*
X25400Y4589282D01*
X26453Y4585352D01*
X40659Y4560748D01*
X60748Y4540658D01*
X85352Y4526453D01*
X112795Y4519100D01*
X141205D01*
X168648Y4526453D01*
X193252Y4540658D01*
X213341Y4560748D01*
X227547Y4585352D01*
X234900Y4612795D01*
Y4641205D01*
X227547Y4668648D01*
X224672Y4673628D01*
X259850Y4708806D01*
X293619D01*
X298480Y4697073D01*
D02*
G37*
G36*
Y4443073D02*
X294659Y4439252D01*
X280453Y4414648D01*
X273100Y4387205D01*
Y4358795D01*
X280453Y4331352D01*
X294659Y4306748D01*
X298480Y4302927D01*
X293619Y4291193D01*
X263100D01*
X249288Y4288446D01*
X237578Y4280622D01*
X173628Y4216672D01*
X168648Y4219547D01*
X141205Y4226900D01*
X112795D01*
X85352Y4219547D01*
X60748Y4205341D01*
X40659Y4185252D01*
X26453Y4160648D01*
X25400Y4156718D01*
X12700Y4158390D01*
Y4333610D01*
X25400Y4335282D01*
X26453Y4331352D01*
X40659Y4306748D01*
X60748Y4286658D01*
X85352Y4272453D01*
X112795Y4265100D01*
X141205D01*
X168648Y4272453D01*
X193252Y4286658D01*
X213341Y4306748D01*
X227547Y4331352D01*
X234900Y4358795D01*
Y4387205D01*
X227547Y4414648D01*
X224672Y4419628D01*
X259850Y4454806D01*
X293619D01*
X298480Y4443073D01*
D02*
G37*
G36*
X3314700Y0D02*
X12700D01*
Y3571610D01*
X25400Y3573282D01*
X26453Y3569352D01*
X40659Y3544748D01*
X60748Y3524658D01*
X85352Y3510453D01*
X112795Y3503100D01*
X114300D01*
Y3611000D01*
Y3718900D01*
X112795D01*
X85352Y3711547D01*
X60748Y3697341D01*
X40659Y3677252D01*
X26453Y3652648D01*
X25400Y3648718D01*
X12700Y3650390D01*
Y3825610D01*
X25400Y3827282D01*
X26453Y3823352D01*
X40659Y3798748D01*
X60748Y3778658D01*
X85352Y3764453D01*
X112795Y3757100D01*
X141205D01*
X168648Y3764453D01*
X193252Y3778658D01*
X213341Y3798748D01*
X227547Y3823352D01*
X234900Y3850795D01*
Y3879205D01*
X227547Y3906648D01*
X224672Y3911628D01*
X278050Y3965007D01*
X313882D01*
X317169Y3952739D01*
X314748Y3951341D01*
X294659Y3931252D01*
X280453Y3906648D01*
X273100Y3879205D01*
Y3850795D01*
X280453Y3823352D01*
X294659Y3798748D01*
X298480Y3794927D01*
X293619Y3783193D01*
X263100D01*
X249288Y3780446D01*
X237578Y3772622D01*
X173628Y3708672D01*
X168648Y3711547D01*
X141205Y3718900D01*
X139700D01*
Y3623700D01*
X234900D01*
Y3625205D01*
X227547Y3652648D01*
X224672Y3657628D01*
X278050Y3711007D01*
X313882D01*
X317169Y3698739D01*
X314748Y3697341D01*
X294659Y3677252D01*
X280453Y3652648D01*
X273100Y3625205D01*
Y3596795D01*
X280453Y3569352D01*
X294659Y3544748D01*
X314748Y3524658D01*
X339352Y3510453D01*
X366795Y3503100D01*
X395205D01*
X422648Y3510453D01*
X447252Y3524658D01*
X467341Y3544748D01*
X481547Y3569352D01*
X488900Y3596795D01*
Y3625205D01*
X481547Y3652648D01*
X478672Y3657628D01*
X775500Y3954456D01*
X788200Y3949196D01*
Y3805400D01*
X788200Y3801900D01*
Y3792700D01*
X788200Y3789200D01*
Y3725000D01*
X863600D01*
X939000D01*
Y3789200D01*
X939000Y3792700D01*
Y3801900D01*
X939000Y3805400D01*
Y3962700D01*
X899693D01*
Y4076700D01*
X899370Y4078326D01*
X909950Y4088906D01*
X994600D01*
Y4084600D01*
X1165400D01*
Y4134600D01*
Y4165405D01*
X1080000D01*
Y4184595D01*
X1165400D01*
Y4234600D01*
Y4334600D01*
Y4434600D01*
Y4534600D01*
Y4634600D01*
Y4734600D01*
Y4834600D01*
Y4915400D01*
X1045644D01*
X766011Y5195033D01*
Y5206818D01*
X763264Y5220630D01*
X755440Y5232340D01*
X455357Y5532422D01*
X443648Y5540246D01*
X429836Y5542993D01*
X244900D01*
X231088Y5540246D01*
X219378Y5532422D01*
X183856Y5496900D01*
X25400D01*
X19100Y5496900D01*
X12700Y5506949D01*
Y8991600D01*
X3314700D01*
Y0D01*
D02*
G37*
G36*
X317169Y4206739D02*
X314748Y4205341D01*
X294659Y4185252D01*
X280453Y4160648D01*
X273100Y4133205D01*
Y4104795D01*
X280453Y4077352D01*
X294659Y4052748D01*
X298480Y4048927D01*
X293619Y4037193D01*
X263100D01*
X249288Y4034446D01*
X237578Y4026622D01*
X173628Y3962672D01*
X168648Y3965547D01*
X141205Y3972900D01*
X112795D01*
X85352Y3965547D01*
X60748Y3951341D01*
X40659Y3931252D01*
X26453Y3906648D01*
X25400Y3902718D01*
X12700Y3904390D01*
Y4079610D01*
X25400Y4081282D01*
X26453Y4077352D01*
X40659Y4052748D01*
X60748Y4032658D01*
X85352Y4018453D01*
X112795Y4011100D01*
X141205D01*
X168648Y4018453D01*
X193252Y4032658D01*
X213341Y4052748D01*
X227547Y4077352D01*
X234900Y4104795D01*
Y4133205D01*
X227547Y4160648D01*
X224672Y4165628D01*
X278050Y4219007D01*
X313882D01*
X317169Y4206739D01*
D02*
G37*
G36*
X808865Y4177173D02*
X500633Y3868941D01*
X488900Y3873802D01*
Y3879205D01*
X481547Y3906648D01*
X478672Y3911628D01*
X755950Y4188907D01*
X804005D01*
X808865Y4177173D01*
D02*
G37*
%LPC*%
G36*
X2806494Y8586900D02*
X2781506D01*
X2757370Y8580433D01*
X2735730Y8567939D01*
X2718061Y8550270D01*
X2705567Y8528630D01*
X2699100Y8504494D01*
Y8479506D01*
X2705567Y8455370D01*
X2718061Y8433730D01*
X2735730Y8416061D01*
X2757370Y8403567D01*
X2781506Y8397100D01*
X2806494D01*
X2830630Y8403567D01*
X2852270Y8416061D01*
X2869939Y8433730D01*
X2882433Y8455370D01*
X2888900Y8479506D01*
Y8504494D01*
X2882433Y8528630D01*
X2869939Y8550270D01*
X2852270Y8567939D01*
X2830630Y8580433D01*
X2806494Y8586900D01*
D02*
G37*
G36*
X2552494D02*
X2527506D01*
X2503370Y8580433D01*
X2481730Y8567939D01*
X2464061Y8550270D01*
X2451567Y8528630D01*
X2445100Y8504494D01*
Y8479506D01*
X2451567Y8455370D01*
X2464061Y8433730D01*
X2481730Y8416061D01*
X2503370Y8403567D01*
X2527506Y8397100D01*
X2552494D01*
X2576630Y8403567D01*
X2598270Y8416061D01*
X2615939Y8433730D01*
X2628433Y8455370D01*
X2634900Y8479506D01*
Y8504494D01*
X2628433Y8528630D01*
X2615939Y8550270D01*
X2598270Y8567939D01*
X2576630Y8580433D01*
X2552494Y8586900D01*
D02*
G37*
G36*
X2298494D02*
X2273506D01*
X2249370Y8580433D01*
X2227730Y8567939D01*
X2210061Y8550270D01*
X2197567Y8528630D01*
X2191100Y8504494D01*
Y8479506D01*
X2197567Y8455370D01*
X2210061Y8433730D01*
X2227730Y8416061D01*
X2249370Y8403567D01*
X2273506Y8397100D01*
X2298494D01*
X2322630Y8403567D01*
X2344270Y8416061D01*
X2361939Y8433730D01*
X2374433Y8455370D01*
X2380900Y8479506D01*
Y8504494D01*
X2374433Y8528630D01*
X2361939Y8550270D01*
X2344270Y8567939D01*
X2322630Y8580433D01*
X2298494Y8586900D01*
D02*
G37*
G36*
X2044494D02*
X2019506D01*
X1995370Y8580433D01*
X1973730Y8567939D01*
X1956061Y8550270D01*
X1943567Y8528630D01*
X1937100Y8504494D01*
Y8479506D01*
X1943567Y8455370D01*
X1956061Y8433730D01*
X1973730Y8416061D01*
X1995370Y8403567D01*
X2019506Y8397100D01*
X2044494D01*
X2068630Y8403567D01*
X2090270Y8416061D01*
X2107939Y8433730D01*
X2120433Y8455370D01*
X2126900Y8479506D01*
Y8504494D01*
X2120433Y8528630D01*
X2107939Y8550270D01*
X2090270Y8567939D01*
X2068630Y8580433D01*
X2044494Y8586900D01*
D02*
G37*
G36*
X1790494D02*
X1765506D01*
X1741370Y8580433D01*
X1719730Y8567939D01*
X1702061Y8550270D01*
X1689567Y8528630D01*
X1683100Y8504494D01*
Y8479506D01*
X1689567Y8455370D01*
X1702061Y8433730D01*
X1719730Y8416061D01*
X1741370Y8403567D01*
X1765506Y8397100D01*
X1790494D01*
X1814630Y8403567D01*
X1836270Y8416061D01*
X1853939Y8433730D01*
X1866433Y8455370D01*
X1872900Y8479506D01*
Y8504494D01*
X1866433Y8528630D01*
X1853939Y8550270D01*
X1836270Y8567939D01*
X1814630Y8580433D01*
X1790494Y8586900D01*
D02*
G37*
G36*
X1536494D02*
X1511506D01*
X1487370Y8580433D01*
X1465730Y8567939D01*
X1448061Y8550270D01*
X1435567Y8528630D01*
X1429100Y8504494D01*
Y8479506D01*
X1435567Y8455370D01*
X1448061Y8433730D01*
X1465730Y8416061D01*
X1487370Y8403567D01*
X1511506Y8397100D01*
X1536494D01*
X1560630Y8403567D01*
X1582270Y8416061D01*
X1599939Y8433730D01*
X1612433Y8455370D01*
X1618900Y8479506D01*
Y8504494D01*
X1612433Y8528630D01*
X1599939Y8550270D01*
X1582270Y8567939D01*
X1560630Y8580433D01*
X1536494Y8586900D01*
D02*
G37*
G36*
X1282494D02*
X1257506D01*
X1233370Y8580433D01*
X1211730Y8567939D01*
X1194061Y8550270D01*
X1181567Y8528630D01*
X1175100Y8504494D01*
Y8479506D01*
X1181567Y8455370D01*
X1194061Y8433730D01*
X1211730Y8416061D01*
X1233370Y8403567D01*
X1257506Y8397100D01*
X1282494D01*
X1306630Y8403567D01*
X1328270Y8416061D01*
X1345939Y8433730D01*
X1358433Y8455370D01*
X1364900Y8479506D01*
Y8504494D01*
X1358433Y8528630D01*
X1345939Y8550270D01*
X1328270Y8567939D01*
X1306630Y8580433D01*
X1282494Y8586900D01*
D02*
G37*
G36*
X1028494D02*
X1003506D01*
X979370Y8580433D01*
X957730Y8567939D01*
X940061Y8550270D01*
X927567Y8528630D01*
X921100Y8504494D01*
Y8479506D01*
X927567Y8455370D01*
X940061Y8433730D01*
X957730Y8416061D01*
X979370Y8403567D01*
X1003506Y8397100D01*
X1028494D01*
X1052630Y8403567D01*
X1074270Y8416061D01*
X1091939Y8433730D01*
X1104433Y8455370D01*
X1110900Y8479506D01*
Y8504494D01*
X1104433Y8528630D01*
X1091939Y8550270D01*
X1074270Y8567939D01*
X1052630Y8580433D01*
X1028494Y8586900D01*
D02*
G37*
G36*
X774494D02*
X749506D01*
X725370Y8580433D01*
X703730Y8567939D01*
X686061Y8550270D01*
X673567Y8528630D01*
X667100Y8504494D01*
Y8479506D01*
X673567Y8455370D01*
X686061Y8433730D01*
X703730Y8416061D01*
X725370Y8403567D01*
X749506Y8397100D01*
X774494D01*
X798630Y8403567D01*
X820270Y8416061D01*
X837939Y8433730D01*
X850433Y8455370D01*
X856900Y8479506D01*
Y8504494D01*
X850433Y8528630D01*
X837939Y8550270D01*
X820270Y8567939D01*
X798630Y8580433D01*
X774494Y8586900D01*
D02*
G37*
G36*
X520494D02*
X495506D01*
X471370Y8580433D01*
X449730Y8567939D01*
X432061Y8550270D01*
X419567Y8528630D01*
X413100Y8504494D01*
Y8479506D01*
X419567Y8455370D01*
X432061Y8433730D01*
X449730Y8416061D01*
X471370Y8403567D01*
X495506Y8397100D01*
X520494D01*
X544630Y8403567D01*
X566270Y8416061D01*
X583939Y8433730D01*
X596433Y8455370D01*
X602900Y8479506D01*
Y8504494D01*
X596433Y8528630D01*
X583939Y8550270D01*
X566270Y8567939D01*
X544630Y8580433D01*
X520494Y8586900D01*
D02*
G37*
G36*
X2806494Y8332900D02*
X2781506D01*
X2757370Y8326433D01*
X2735730Y8313939D01*
X2718061Y8296270D01*
X2705567Y8274630D01*
X2699100Y8250494D01*
Y8225506D01*
X2705567Y8201370D01*
X2718061Y8179730D01*
X2735730Y8162061D01*
X2757370Y8149567D01*
X2781506Y8143100D01*
X2806494D01*
X2830630Y8149567D01*
X2852270Y8162061D01*
X2869939Y8179730D01*
X2882433Y8201370D01*
X2888900Y8225506D01*
Y8250494D01*
X2882433Y8274630D01*
X2869939Y8296270D01*
X2852270Y8313939D01*
X2830630Y8326433D01*
X2806494Y8332900D01*
D02*
G37*
G36*
X2552494D02*
X2527506D01*
X2503370Y8326433D01*
X2481730Y8313939D01*
X2464061Y8296270D01*
X2451567Y8274630D01*
X2445100Y8250494D01*
Y8225506D01*
X2451567Y8201370D01*
X2464061Y8179730D01*
X2481730Y8162061D01*
X2503370Y8149567D01*
X2527506Y8143100D01*
X2552494D01*
X2576630Y8149567D01*
X2598270Y8162061D01*
X2615939Y8179730D01*
X2628433Y8201370D01*
X2634900Y8225506D01*
Y8250494D01*
X2628433Y8274630D01*
X2615939Y8296270D01*
X2598270Y8313939D01*
X2576630Y8326433D01*
X2552494Y8332900D01*
D02*
G37*
G36*
X2298494D02*
X2273506D01*
X2249370Y8326433D01*
X2227730Y8313939D01*
X2210061Y8296270D01*
X2197567Y8274630D01*
X2191100Y8250494D01*
Y8225506D01*
X2197567Y8201370D01*
X2210061Y8179730D01*
X2227730Y8162061D01*
X2249370Y8149567D01*
X2273506Y8143100D01*
X2298494D01*
X2322630Y8149567D01*
X2344270Y8162061D01*
X2361939Y8179730D01*
X2374433Y8201370D01*
X2380900Y8225506D01*
Y8250494D01*
X2374433Y8274630D01*
X2361939Y8296270D01*
X2344270Y8313939D01*
X2322630Y8326433D01*
X2298494Y8332900D01*
D02*
G37*
G36*
X2044494D02*
X2019506D01*
X1995370Y8326433D01*
X1973730Y8313939D01*
X1956061Y8296270D01*
X1943567Y8274630D01*
X1937100Y8250494D01*
Y8225506D01*
X1943567Y8201370D01*
X1956061Y8179730D01*
X1973730Y8162061D01*
X1995370Y8149567D01*
X2019506Y8143100D01*
X2044494D01*
X2068630Y8149567D01*
X2090270Y8162061D01*
X2107939Y8179730D01*
X2120433Y8201370D01*
X2126900Y8225506D01*
Y8250494D01*
X2120433Y8274630D01*
X2107939Y8296270D01*
X2090270Y8313939D01*
X2068630Y8326433D01*
X2044494Y8332900D01*
D02*
G37*
G36*
X1790494D02*
X1765506D01*
X1741370Y8326433D01*
X1719730Y8313939D01*
X1702061Y8296270D01*
X1689567Y8274630D01*
X1683100Y8250494D01*
Y8225506D01*
X1689567Y8201370D01*
X1702061Y8179730D01*
X1719730Y8162061D01*
X1741370Y8149567D01*
X1765506Y8143100D01*
X1790494D01*
X1814630Y8149567D01*
X1836270Y8162061D01*
X1853939Y8179730D01*
X1866433Y8201370D01*
X1872900Y8225506D01*
Y8250494D01*
X1866433Y8274630D01*
X1853939Y8296270D01*
X1836270Y8313939D01*
X1814630Y8326433D01*
X1790494Y8332900D01*
D02*
G37*
G36*
X1536494D02*
X1511506D01*
X1487370Y8326433D01*
X1465730Y8313939D01*
X1448061Y8296270D01*
X1435567Y8274630D01*
X1429100Y8250494D01*
Y8225506D01*
X1435567Y8201370D01*
X1448061Y8179730D01*
X1465730Y8162061D01*
X1487370Y8149567D01*
X1511506Y8143100D01*
X1536494D01*
X1560630Y8149567D01*
X1582270Y8162061D01*
X1599939Y8179730D01*
X1612433Y8201370D01*
X1618900Y8225506D01*
Y8250494D01*
X1612433Y8274630D01*
X1599939Y8296270D01*
X1582270Y8313939D01*
X1560630Y8326433D01*
X1536494Y8332900D01*
D02*
G37*
G36*
X1282494D02*
X1257506D01*
X1233370Y8326433D01*
X1211730Y8313939D01*
X1194061Y8296270D01*
X1181567Y8274630D01*
X1175100Y8250494D01*
Y8225506D01*
X1181567Y8201370D01*
X1194061Y8179730D01*
X1211730Y8162061D01*
X1233370Y8149567D01*
X1257506Y8143100D01*
X1282494D01*
X1306630Y8149567D01*
X1328270Y8162061D01*
X1345939Y8179730D01*
X1358433Y8201370D01*
X1364900Y8225506D01*
Y8250494D01*
X1358433Y8274630D01*
X1345939Y8296270D01*
X1328270Y8313939D01*
X1306630Y8326433D01*
X1282494Y8332900D01*
D02*
G37*
G36*
X1028494D02*
X1003506D01*
X979370Y8326433D01*
X957730Y8313939D01*
X940061Y8296270D01*
X927567Y8274630D01*
X921100Y8250494D01*
Y8225506D01*
X927567Y8201370D01*
X940061Y8179730D01*
X957730Y8162061D01*
X979370Y8149567D01*
X1003506Y8143100D01*
X1028494D01*
X1052630Y8149567D01*
X1074270Y8162061D01*
X1091939Y8179730D01*
X1104433Y8201370D01*
X1110900Y8225506D01*
Y8250494D01*
X1104433Y8274630D01*
X1091939Y8296270D01*
X1074270Y8313939D01*
X1052630Y8326433D01*
X1028494Y8332900D01*
D02*
G37*
G36*
X774494D02*
X749506D01*
X725370Y8326433D01*
X703730Y8313939D01*
X686061Y8296270D01*
X673567Y8274630D01*
X667100Y8250494D01*
Y8225506D01*
X673567Y8201370D01*
X686061Y8179730D01*
X703730Y8162061D01*
X725370Y8149567D01*
X749506Y8143100D01*
X774494D01*
X798630Y8149567D01*
X820270Y8162061D01*
X837939Y8179730D01*
X850433Y8201370D01*
X856900Y8225506D01*
Y8250494D01*
X850433Y8274630D01*
X837939Y8296270D01*
X820270Y8313939D01*
X798630Y8326433D01*
X774494Y8332900D01*
D02*
G37*
G36*
X602900D02*
X413100D01*
Y8143100D01*
X602900D01*
Y8332900D01*
D02*
G37*
G36*
X2948000Y7961300D02*
X2935300Y7961300D01*
X2703500D01*
X2694000Y7961300D01*
X2681300Y7961300D01*
X2449500D01*
X2440000Y7961300D01*
X2427300Y7961300D01*
X2195500D01*
X2186000Y7961300D01*
X2173300Y7961300D01*
X1941500D01*
X1932000Y7961300D01*
X1919300Y7961300D01*
X1687500D01*
X1678000Y7961300D01*
X1665300Y7961300D01*
X1433500D01*
X1424000Y7961300D01*
X1411300Y7961300D01*
X1179500D01*
X1170000Y7961300D01*
X1157300Y7961300D01*
X925500D01*
X916000Y7961300D01*
X903300Y7961300D01*
X671500D01*
X662000Y7961300D01*
X649300Y7961300D01*
X417500D01*
X408000Y7961300D01*
X395300Y7961300D01*
X154000D01*
Y7720000D01*
X154000Y7710500D01*
X154000Y7697800D01*
Y7466000D01*
X154000Y7456500D01*
X154000Y7443800D01*
Y7212000D01*
X154000Y7202500D01*
X154000Y7189800D01*
Y6948500D01*
X395300D01*
X404800Y6948500D01*
X417500Y6948500D01*
X649300D01*
X658800Y6948500D01*
X671500Y6948500D01*
X903300D01*
X912800Y6948500D01*
X925500Y6948500D01*
X1157300D01*
X1166800Y6948500D01*
X1179500Y6948500D01*
X1411300D01*
X1420800Y6948500D01*
X1433500Y6948500D01*
X1665300D01*
X1674800Y6948500D01*
X1687500Y6948500D01*
X1919300D01*
X1928800Y6948500D01*
X1941500Y6948500D01*
X2173300D01*
X2182800Y6948500D01*
X2195500Y6948500D01*
X2427300D01*
X2436800Y6948500D01*
X2449500Y6948500D01*
X2681300D01*
X2690800Y6948500D01*
X2703500Y6948500D01*
X2935300D01*
X2944800Y6948500D01*
X2957500Y6948500D01*
X3198800D01*
Y7189800D01*
X3198800Y7199300D01*
X3198800Y7212000D01*
Y7443800D01*
X3198800Y7453300D01*
X3198800Y7466000D01*
Y7697800D01*
X3198800Y7707300D01*
X3198800Y7720000D01*
Y7961300D01*
X2957500D01*
X2948000Y7961300D01*
D02*
G37*
G36*
X2646900Y6639900D02*
X2431100D01*
Y6454904D01*
X2418400Y6449644D01*
X2382672Y6485372D01*
X2385547Y6490352D01*
X2392900Y6517795D01*
Y6546205D01*
X2385547Y6573648D01*
X2371341Y6598252D01*
X2351252Y6618341D01*
X2326648Y6632547D01*
X2299205Y6639900D01*
X2270795D01*
X2243352Y6632547D01*
X2218748Y6618341D01*
X2198659Y6598252D01*
X2184453Y6573648D01*
X2177100Y6546205D01*
Y6517795D01*
X2184453Y6490352D01*
X2198659Y6465748D01*
X2218748Y6445658D01*
X2243352Y6431453D01*
X2270795Y6424100D01*
X2299205D01*
X2326648Y6431453D01*
X2331628Y6434328D01*
X2366807Y6399150D01*
Y6365380D01*
X2355073Y6360520D01*
X2351252Y6364341D01*
X2326648Y6378547D01*
X2299205Y6385900D01*
X2270795D01*
X2243352Y6378547D01*
X2218748Y6364341D01*
X2198659Y6344252D01*
X2197261Y6341831D01*
X2184993Y6345118D01*
Y6414100D01*
X2182246Y6427912D01*
X2174422Y6439622D01*
X2128672Y6485372D01*
X2131547Y6490352D01*
X2138900Y6517795D01*
Y6546205D01*
X2131547Y6573648D01*
X2117341Y6598252D01*
X2097252Y6618341D01*
X2072648Y6632547D01*
X2045205Y6639900D01*
X2016795D01*
X1989352Y6632547D01*
X1964748Y6618341D01*
X1944659Y6598252D01*
X1930453Y6573648D01*
X1923100Y6546205D01*
Y6517795D01*
X1930453Y6490352D01*
X1944659Y6465748D01*
X1964748Y6445658D01*
X1989352Y6431453D01*
X2016795Y6424100D01*
X2045205D01*
X2072648Y6431453D01*
X2077628Y6434328D01*
X2112807Y6399150D01*
Y6365380D01*
X2101073Y6360520D01*
X2097252Y6364341D01*
X2072648Y6378547D01*
X2045205Y6385900D01*
X2016795D01*
X1989352Y6378547D01*
X1964748Y6364341D01*
X1944659Y6344252D01*
X1943261Y6341831D01*
X1930993Y6345118D01*
Y6414100D01*
X1928246Y6427912D01*
X1920422Y6439622D01*
X1874672Y6485372D01*
X1877547Y6490352D01*
X1884900Y6517795D01*
Y6546205D01*
X1877547Y6573648D01*
X1863341Y6598252D01*
X1843252Y6618341D01*
X1818648Y6632547D01*
X1791205Y6639900D01*
X1762795D01*
X1735352Y6632547D01*
X1710748Y6618341D01*
X1690659Y6598252D01*
X1676453Y6573648D01*
X1669100Y6546205D01*
Y6517795D01*
X1676453Y6490352D01*
X1690659Y6465748D01*
X1710748Y6445658D01*
X1735352Y6431453D01*
X1762795Y6424100D01*
X1791205D01*
X1818648Y6431453D01*
X1823628Y6434328D01*
X1858807Y6399150D01*
Y6365380D01*
X1847073Y6360520D01*
X1843252Y6364341D01*
X1818648Y6378547D01*
X1791205Y6385900D01*
X1762795D01*
X1735352Y6378547D01*
X1710748Y6364341D01*
X1690659Y6344252D01*
X1689261Y6341831D01*
X1676993Y6345118D01*
Y6414100D01*
X1674246Y6427912D01*
X1666422Y6439622D01*
X1620672Y6485372D01*
X1623547Y6490352D01*
X1630900Y6517795D01*
Y6546205D01*
X1623547Y6573648D01*
X1609341Y6598252D01*
X1589252Y6618341D01*
X1564648Y6632547D01*
X1537205Y6639900D01*
X1508795D01*
X1481352Y6632547D01*
X1456748Y6618341D01*
X1436659Y6598252D01*
X1422453Y6573648D01*
X1415100Y6546205D01*
Y6517795D01*
X1422453Y6490352D01*
X1436659Y6465748D01*
X1456748Y6445658D01*
X1481352Y6431453D01*
X1508795Y6424100D01*
X1537205D01*
X1564648Y6431453D01*
X1569628Y6434328D01*
X1604807Y6399150D01*
Y6365380D01*
X1593073Y6360520D01*
X1589252Y6364341D01*
X1564648Y6378547D01*
X1537205Y6385900D01*
X1508795D01*
X1481352Y6378547D01*
X1456748Y6364341D01*
X1452927Y6360520D01*
X1441193Y6365380D01*
Y6395900D01*
X1438446Y6409712D01*
X1430622Y6421422D01*
X1366672Y6485372D01*
X1369547Y6490352D01*
X1376900Y6517795D01*
Y6546205D01*
X1369547Y6573648D01*
X1355341Y6598252D01*
X1335252Y6618341D01*
X1310648Y6632547D01*
X1283205Y6639900D01*
X1254795D01*
X1227352Y6632547D01*
X1202748Y6618341D01*
X1182659Y6598252D01*
X1168453Y6573648D01*
X1161100Y6546205D01*
Y6517795D01*
X1168453Y6490352D01*
X1182659Y6465748D01*
X1202748Y6445658D01*
X1227352Y6431453D01*
X1254795Y6424100D01*
X1283205D01*
X1310648Y6431453D01*
X1315628Y6434328D01*
X1369007Y6380949D01*
Y6345118D01*
X1356739Y6341831D01*
X1355341Y6344252D01*
X1335252Y6364341D01*
X1310648Y6378547D01*
X1283205Y6385900D01*
X1254795D01*
X1227352Y6378547D01*
X1202748Y6364341D01*
X1198927Y6360520D01*
X1187193Y6365380D01*
Y6395900D01*
X1184446Y6409712D01*
X1176622Y6421422D01*
X1112672Y6485372D01*
X1115547Y6490352D01*
X1122900Y6517795D01*
Y6546205D01*
X1115547Y6573648D01*
X1101341Y6598252D01*
X1081252Y6618341D01*
X1056648Y6632547D01*
X1029205Y6639900D01*
X1000795D01*
X973352Y6632547D01*
X948748Y6618341D01*
X928659Y6598252D01*
X914453Y6573648D01*
X907100Y6546205D01*
Y6517795D01*
X914453Y6490352D01*
X928659Y6465748D01*
X948748Y6445658D01*
X973352Y6431453D01*
X1000795Y6424100D01*
X1029205D01*
X1056648Y6431453D01*
X1061628Y6434328D01*
X1115007Y6380949D01*
Y6345118D01*
X1102739Y6341831D01*
X1101341Y6344252D01*
X1081252Y6364341D01*
X1056648Y6378547D01*
X1029205Y6385900D01*
X1000795D01*
X973352Y6378547D01*
X948748Y6364341D01*
X944927Y6360520D01*
X933193Y6365380D01*
Y6395900D01*
X930446Y6409712D01*
X922622Y6421422D01*
X858672Y6485372D01*
X861547Y6490352D01*
X868900Y6517795D01*
Y6546205D01*
X861547Y6573648D01*
X847341Y6598252D01*
X827252Y6618341D01*
X802648Y6632547D01*
X775205Y6639900D01*
X746795D01*
X719352Y6632547D01*
X694748Y6618341D01*
X674659Y6598252D01*
X660453Y6573648D01*
X653100Y6546205D01*
Y6517795D01*
X660453Y6490352D01*
X674659Y6465748D01*
X694748Y6445658D01*
X719352Y6431453D01*
X746795Y6424100D01*
X775205D01*
X802648Y6431453D01*
X807628Y6434328D01*
X861007Y6380949D01*
Y6345118D01*
X848739Y6341831D01*
X847341Y6344252D01*
X827252Y6364341D01*
X802648Y6378547D01*
X775205Y6385900D01*
X746795D01*
X719352Y6378547D01*
X694748Y6364341D01*
X674659Y6344252D01*
X660453Y6319648D01*
X653100Y6292205D01*
Y6263795D01*
X660453Y6236352D01*
X674659Y6211748D01*
X694748Y6191658D01*
X719352Y6177453D01*
X746795Y6170100D01*
X775205D01*
X802648Y6177453D01*
X807628Y6180328D01*
X1238907Y5749049D01*
Y5155400D01*
X1234600D01*
Y4984600D01*
X2065400D01*
Y5155400D01*
X2061093D01*
Y5392517D01*
X2682422Y6013846D01*
X2690246Y6025555D01*
X2692993Y6039368D01*
Y6414100D01*
X2690246Y6427912D01*
X2682422Y6439622D01*
X2646900Y6475144D01*
Y6639900D01*
D02*
G37*
G36*
X3187205Y5496900D02*
X3158795D01*
X3131352Y5489547D01*
X3106748Y5475341D01*
X3086659Y5455252D01*
X3072453Y5430648D01*
X3065100Y5403205D01*
Y5374795D01*
X3072453Y5347352D01*
X3075328Y5342372D01*
X3021950Y5288993D01*
X2986118D01*
X2982831Y5301261D01*
X2985252Y5302658D01*
X3005341Y5322748D01*
X3019547Y5347352D01*
X3026900Y5374795D01*
Y5403205D01*
X3019547Y5430648D01*
X3005341Y5455252D01*
X2985252Y5475341D01*
X2960648Y5489547D01*
X2933205Y5496900D01*
X2904795D01*
X2877352Y5489547D01*
X2852748Y5475341D01*
X2832659Y5455252D01*
X2818453Y5430648D01*
X2811100Y5403205D01*
Y5374795D01*
X2818453Y5347352D01*
X2821328Y5342372D01*
X2390050Y4911093D01*
X2305400D01*
Y4915400D01*
X2134600D01*
Y4834600D01*
Y4784600D01*
Y4684600D01*
Y4584600D01*
Y4484600D01*
Y4384600D01*
Y4284600D01*
Y4184600D01*
Y4184595D01*
X2220000D01*
Y4165405D01*
X2134600D01*
Y4084600D01*
X2254356D01*
X2533989Y3804967D01*
Y3793182D01*
X2536736Y3779370D01*
X2544560Y3767660D01*
X2844643Y3467578D01*
X2856352Y3459754D01*
X2870164Y3457007D01*
X3055100D01*
X3068912Y3459754D01*
X3080622Y3467578D01*
X3116144Y3503100D01*
X3280900D01*
Y3718900D01*
X3095904D01*
X3090644Y3731600D01*
X3126372Y3767328D01*
X3131352Y3764453D01*
X3158795Y3757100D01*
X3187205D01*
X3214648Y3764453D01*
X3239252Y3778658D01*
X3259341Y3798748D01*
X3273547Y3823352D01*
X3280900Y3850795D01*
Y3879205D01*
X3273547Y3906648D01*
X3259341Y3931252D01*
X3239252Y3951341D01*
X3214648Y3965547D01*
X3187205Y3972900D01*
X3158795D01*
X3131352Y3965547D01*
X3106748Y3951341D01*
X3086659Y3931252D01*
X3072453Y3906648D01*
X3065100Y3879205D01*
Y3850795D01*
X3072453Y3823352D01*
X3075328Y3818372D01*
X3040150Y3783193D01*
X3006381D01*
X3001520Y3794927D01*
X3005341Y3798748D01*
X3019547Y3823352D01*
X3026900Y3850795D01*
Y3879205D01*
X3019547Y3906648D01*
X3005341Y3931252D01*
X2985252Y3951341D01*
X2982831Y3952739D01*
X2986118Y3965007D01*
X3055100D01*
X3068912Y3967754D01*
X3080622Y3975578D01*
X3126372Y4021328D01*
X3131352Y4018453D01*
X3158795Y4011100D01*
X3187205D01*
X3214648Y4018453D01*
X3239252Y4032658D01*
X3259341Y4052748D01*
X3273547Y4077352D01*
X3280900Y4104795D01*
Y4133205D01*
X3273547Y4160648D01*
X3259341Y4185252D01*
X3239252Y4205341D01*
X3214648Y4219547D01*
X3187205Y4226900D01*
X3158795D01*
X3131352Y4219547D01*
X3106748Y4205341D01*
X3086659Y4185252D01*
X3072453Y4160648D01*
X3065100Y4133205D01*
Y4104795D01*
X3072453Y4077352D01*
X3075328Y4072372D01*
X3040150Y4037193D01*
X3006381D01*
X3001520Y4048927D01*
X3005341Y4052748D01*
X3019547Y4077352D01*
X3026900Y4104795D01*
Y4133205D01*
X3019547Y4160648D01*
X3005341Y4185252D01*
X2985252Y4205341D01*
X2982831Y4206739D01*
X2986118Y4219007D01*
X3055100D01*
X3068912Y4221754D01*
X3080622Y4229578D01*
X3126372Y4275328D01*
X3131352Y4272453D01*
X3158795Y4265100D01*
X3187205D01*
X3214648Y4272453D01*
X3239252Y4286658D01*
X3259341Y4306748D01*
X3273547Y4331352D01*
X3280900Y4358795D01*
Y4387205D01*
X3273547Y4414648D01*
X3259341Y4439252D01*
X3239252Y4459341D01*
X3214648Y4473547D01*
X3187205Y4480900D01*
X3158795D01*
X3131352Y4473547D01*
X3106748Y4459341D01*
X3086659Y4439252D01*
X3072453Y4414648D01*
X3065100Y4387205D01*
Y4358795D01*
X3072453Y4331352D01*
X3075328Y4326372D01*
X3040150Y4291193D01*
X3006381D01*
X3001520Y4302927D01*
X3005341Y4306748D01*
X3019547Y4331352D01*
X3026900Y4358795D01*
Y4387205D01*
X3019547Y4414648D01*
X3005341Y4439252D01*
X2985252Y4459341D01*
X2982831Y4460739D01*
X2986118Y4473007D01*
X3055100D01*
X3068912Y4475754D01*
X3080622Y4483578D01*
X3126372Y4529328D01*
X3131352Y4526453D01*
X3158795Y4519100D01*
X3187205D01*
X3214648Y4526453D01*
X3239252Y4540658D01*
X3259341Y4560748D01*
X3273547Y4585352D01*
X3280900Y4612795D01*
Y4641205D01*
X3273547Y4668648D01*
X3259341Y4693252D01*
X3239252Y4713341D01*
X3214648Y4727547D01*
X3187205Y4734900D01*
X3158795D01*
X3131352Y4727547D01*
X3106748Y4713341D01*
X3086659Y4693252D01*
X3072453Y4668648D01*
X3065100Y4641205D01*
Y4612795D01*
X3072453Y4585352D01*
X3075328Y4580372D01*
X3040150Y4545193D01*
X3006381D01*
X3001520Y4556927D01*
X3005341Y4560748D01*
X3019547Y4585352D01*
X3026900Y4612795D01*
Y4641205D01*
X3019547Y4668648D01*
X3005341Y4693252D01*
X3001520Y4697073D01*
X3006381Y4708806D01*
X3036900D01*
X3050712Y4711554D01*
X3062422Y4719378D01*
X3126372Y4783328D01*
X3131352Y4780453D01*
X3158795Y4773100D01*
X3187205D01*
X3214648Y4780453D01*
X3239252Y4794658D01*
X3259341Y4814748D01*
X3273547Y4839352D01*
X3280900Y4866795D01*
Y4895205D01*
X3273547Y4922648D01*
X3259341Y4947252D01*
X3239252Y4967341D01*
X3214648Y4981547D01*
X3187205Y4988900D01*
X3158795D01*
X3131352Y4981547D01*
X3106748Y4967341D01*
X3086659Y4947252D01*
X3072453Y4922648D01*
X3065100Y4895205D01*
Y4866795D01*
X3072453Y4839352D01*
X3075328Y4834372D01*
X3021950Y4780993D01*
X2986118D01*
X2982831Y4793261D01*
X2985252Y4794658D01*
X3005341Y4814748D01*
X3019547Y4839352D01*
X3026900Y4866795D01*
Y4895205D01*
X3019547Y4922648D01*
X3005341Y4947252D01*
X3001520Y4951073D01*
X3006381Y4962806D01*
X3036900D01*
X3050712Y4965554D01*
X3062422Y4973378D01*
X3126372Y5037328D01*
X3131352Y5034453D01*
X3158795Y5027100D01*
X3187205D01*
X3214648Y5034453D01*
X3239252Y5048658D01*
X3259341Y5068748D01*
X3273547Y5093352D01*
X3280900Y5120795D01*
Y5149205D01*
X3273547Y5176648D01*
X3259341Y5201252D01*
X3239252Y5221341D01*
X3214648Y5235547D01*
X3187205Y5242900D01*
X3158795D01*
X3131352Y5235547D01*
X3106748Y5221341D01*
X3086659Y5201252D01*
X3072453Y5176648D01*
X3065100Y5149205D01*
Y5120795D01*
X3072453Y5093352D01*
X3075328Y5088372D01*
X3021950Y5034993D01*
X2986118D01*
X2982831Y5047261D01*
X2985252Y5048658D01*
X3005341Y5068748D01*
X3019547Y5093352D01*
X3026900Y5120795D01*
Y5149205D01*
X3019547Y5176648D01*
X3005341Y5201252D01*
X3001520Y5205073D01*
X3006381Y5216806D01*
X3036900D01*
X3050712Y5219554D01*
X3062422Y5227378D01*
X3126372Y5291328D01*
X3131352Y5288453D01*
X3158795Y5281100D01*
X3187205D01*
X3214648Y5288453D01*
X3239252Y5302658D01*
X3259341Y5322748D01*
X3273547Y5347352D01*
X3280900Y5374795D01*
Y5403205D01*
X3273547Y5430648D01*
X3259341Y5455252D01*
X3239252Y5475341D01*
X3214648Y5489547D01*
X3187205Y5496900D01*
D02*
G37*
G36*
X939000Y3699600D02*
X876300D01*
Y3631900D01*
X939000D01*
Y3699600D01*
D02*
G37*
G36*
X850900D02*
X788200D01*
Y3631900D01*
X850900D01*
Y3699600D01*
D02*
G37*
G36*
X234900Y3598300D02*
X139700D01*
Y3503100D01*
X141205D01*
X168648Y3510453D01*
X193252Y3524658D01*
X213341Y3544748D01*
X227547Y3569352D01*
X234900Y3596795D01*
Y3598300D01*
D02*
G37*
G36*
X2065400Y4015400D02*
X1234600D01*
Y3895644D01*
X617578Y3278622D01*
X609754Y3266912D01*
X607007Y3253100D01*
Y2584900D01*
X609754Y2571088D01*
X617578Y2559378D01*
X653100Y2523856D01*
Y2359100D01*
X868900D01*
Y2544095D01*
X881600Y2549356D01*
X917328Y2513628D01*
X914453Y2508648D01*
X907100Y2481205D01*
Y2452795D01*
X914453Y2425352D01*
X928659Y2400748D01*
X948748Y2380658D01*
X973352Y2366453D01*
X1000795Y2359100D01*
X1029205D01*
X1056648Y2366453D01*
X1081252Y2380658D01*
X1101341Y2400748D01*
X1115547Y2425352D01*
X1122900Y2452795D01*
Y2481205D01*
X1115547Y2508648D01*
X1101341Y2533252D01*
X1081252Y2553341D01*
X1056648Y2567547D01*
X1029205Y2574900D01*
X1000795D01*
X973352Y2567547D01*
X968372Y2564672D01*
X933193Y2599850D01*
Y2633619D01*
X944927Y2638480D01*
X948748Y2634658D01*
X973352Y2620453D01*
X1000795Y2613100D01*
X1029205D01*
X1056648Y2620453D01*
X1081252Y2634658D01*
X1101341Y2654748D01*
X1102739Y2657169D01*
X1115007Y2653882D01*
Y2584900D01*
X1117754Y2571088D01*
X1125578Y2559378D01*
X1171328Y2513628D01*
X1168453Y2508648D01*
X1161100Y2481205D01*
Y2452795D01*
X1168453Y2425352D01*
X1182659Y2400748D01*
X1202748Y2380658D01*
X1227352Y2366453D01*
X1232907Y2364965D01*
Y2060800D01*
X869600D01*
Y1800000D01*
X1138907D01*
Y1657900D01*
X1141654Y1644088D01*
X1143106Y1641914D01*
Y1471200D01*
X1143800Y1467713D01*
Y1354300D01*
X1143800Y1350800D01*
Y1341600D01*
X1143800Y1338100D01*
Y1273900D01*
X1219200D01*
X1294600D01*
Y1338100D01*
X1294600Y1341600D01*
Y1350800D01*
X1294600Y1354300D01*
Y1511600D01*
X1215293D01*
Y1653700D01*
X1212546Y1667513D01*
X1211093Y1669686D01*
Y1800000D01*
X1480400D01*
Y2060800D01*
X1305093D01*
Y2364965D01*
X1310648Y2366453D01*
X1335252Y2380658D01*
X1355341Y2400748D01*
X1370543Y2401677D01*
X1772342Y1999878D01*
X1784052Y1992054D01*
X1797864Y1989307D01*
X1819600D01*
Y1800000D01*
X2089907D01*
Y1511600D01*
X2058200D01*
Y1350801D01*
X2058200D01*
Y1341599D01*
X2058200D01*
Y1273900D01*
X2133600D01*
Y1248500D01*
X2058200D01*
Y1180800D01*
X2125918D01*
X2130778Y1169067D01*
X1988112Y1026401D01*
X990307D01*
X976495Y1023653D01*
X964785Y1015829D01*
X799111Y850155D01*
X798630Y850433D01*
X774494Y856900D01*
X749506D01*
X725370Y850433D01*
X703730Y837939D01*
X686061Y820270D01*
X673567Y798630D01*
X667100Y774494D01*
Y749506D01*
X673567Y725370D01*
X686061Y703730D01*
X703730Y686061D01*
X725370Y673567D01*
X749506Y667100D01*
X774494D01*
X798630Y673567D01*
X820270Y686061D01*
X837939Y703730D01*
X850433Y725370D01*
X856900Y749506D01*
Y774494D01*
X850433Y798630D01*
X850155Y799111D01*
X863439Y812395D01*
X875144Y806139D01*
X875007Y805451D01*
Y672050D01*
X799111Y596155D01*
X798630Y596433D01*
X774494Y602900D01*
X749506D01*
X725370Y596433D01*
X703730Y583939D01*
X686061Y566270D01*
X673567Y544630D01*
X667100Y520494D01*
Y495506D01*
X673567Y471370D01*
X686061Y449730D01*
X703730Y432061D01*
X725370Y419567D01*
X749506Y413100D01*
X774494D01*
X798630Y419567D01*
X820270Y432061D01*
X837939Y449730D01*
X850433Y471370D01*
X856900Y495506D01*
Y520494D01*
X850433Y544630D01*
X850155Y545111D01*
X936622Y631578D01*
X944446Y643288D01*
X947193Y657100D01*
Y680519D01*
X959893Y684812D01*
X979370Y673567D01*
X1003506Y667100D01*
X1028494D01*
X1052630Y673567D01*
X1074270Y686061D01*
X1091939Y703730D01*
X1104433Y725370D01*
X1110900Y749506D01*
Y774494D01*
X1104433Y798630D01*
X1091939Y820270D01*
X1074270Y837939D01*
X1052630Y850433D01*
X1030907Y856253D01*
X1024963Y868270D01*
X1065507Y908814D01*
X2021868D01*
X2035680Y911562D01*
X2047390Y919386D01*
X2500922Y1372917D01*
X2508746Y1384627D01*
X2511493Y1398439D01*
Y2064560D01*
X2508746Y2078373D01*
X2500922Y2090082D01*
X2277577Y2313427D01*
X2265867Y2321251D01*
X2252055Y2323999D01*
X1804309D01*
X1780942Y2347367D01*
X1785802Y2359100D01*
X1791205D01*
X1818648Y2366453D01*
X1843252Y2380658D01*
X1863341Y2400748D01*
X1877547Y2425352D01*
X1884900Y2452795D01*
Y2481205D01*
X1877547Y2508648D01*
X1863341Y2533252D01*
X1843252Y2553341D01*
X1818648Y2567547D01*
X1791205Y2574900D01*
X1762795D01*
X1735352Y2567547D01*
X1730372Y2564672D01*
X1695193Y2599850D01*
Y2633619D01*
X1706927Y2638480D01*
X1710748Y2634658D01*
X1735352Y2620453D01*
X1762795Y2613100D01*
X1791205D01*
X1818648Y2620453D01*
X1843252Y2634658D01*
X1847073Y2638480D01*
X1858807Y2633619D01*
Y2603100D01*
X1861554Y2589288D01*
X1869378Y2577578D01*
X1933328Y2513628D01*
X1930453Y2508648D01*
X1923100Y2481205D01*
Y2452795D01*
X1930453Y2425352D01*
X1944659Y2400748D01*
X1964748Y2380658D01*
X1989352Y2366453D01*
X2016795Y2359100D01*
X2045205D01*
X2072648Y2366453D01*
X2097252Y2380658D01*
X2117341Y2400748D01*
X2131547Y2425352D01*
X2138900Y2452795D01*
Y2481205D01*
X2131547Y2508648D01*
X2117341Y2533252D01*
X2097252Y2553341D01*
X2072648Y2567547D01*
X2045205Y2574900D01*
X2016795D01*
X1989352Y2567547D01*
X1984372Y2564672D01*
X1930993Y2618050D01*
Y2653882D01*
X1943261Y2657169D01*
X1944659Y2654748D01*
X1964748Y2634658D01*
X1989352Y2620453D01*
X2016795Y2613100D01*
X2045205D01*
X2072648Y2620453D01*
X2097252Y2634658D01*
X2101073Y2638480D01*
X2112807Y2633619D01*
Y2603100D01*
X2115554Y2589288D01*
X2123378Y2577578D01*
X2187328Y2513628D01*
X2184453Y2508648D01*
X2177100Y2481205D01*
Y2452795D01*
X2184453Y2425352D01*
X2198659Y2400748D01*
X2218748Y2380658D01*
X2243352Y2366453D01*
X2270795Y2359100D01*
X2299205D01*
X2326648Y2366453D01*
X2351252Y2380658D01*
X2371341Y2400748D01*
X2385547Y2425352D01*
X2392900Y2452795D01*
Y2481205D01*
X2385547Y2508648D01*
X2371341Y2533252D01*
X2351252Y2553341D01*
X2326648Y2567547D01*
X2299205Y2574900D01*
X2270795D01*
X2243352Y2567547D01*
X2238372Y2564672D01*
X2184993Y2618050D01*
Y2653882D01*
X2197261Y2657169D01*
X2198659Y2654748D01*
X2218748Y2634658D01*
X2243352Y2620453D01*
X2270795Y2613100D01*
X2299205D01*
X2326648Y2620453D01*
X2351252Y2634658D01*
X2355073Y2638480D01*
X2366807Y2633619D01*
Y2603100D01*
X2369554Y2589288D01*
X2377378Y2577578D01*
X2441328Y2513628D01*
X2438453Y2508648D01*
X2431100Y2481205D01*
Y2452795D01*
X2438453Y2425352D01*
X2452659Y2400748D01*
X2472748Y2380658D01*
X2497352Y2366453D01*
X2524795Y2359100D01*
X2553205D01*
X2580648Y2366453D01*
X2605252Y2380658D01*
X2625341Y2400748D01*
X2639547Y2425352D01*
X2646900Y2452795D01*
Y2481205D01*
X2639547Y2508648D01*
X2625341Y2533252D01*
X2605252Y2553341D01*
X2580648Y2567547D01*
X2553205Y2574900D01*
X2524795D01*
X2497352Y2567547D01*
X2492372Y2564672D01*
X2438993Y2618050D01*
Y2653882D01*
X2451261Y2657169D01*
X2452659Y2654748D01*
X2472748Y2634658D01*
X2497352Y2620453D01*
X2524795Y2613100D01*
X2553205D01*
X2580648Y2620453D01*
X2605252Y2634658D01*
X2625341Y2654748D01*
X2639547Y2679352D01*
X2646900Y2706795D01*
Y2735205D01*
X2639547Y2762648D01*
X2625341Y2787252D01*
X2605252Y2807341D01*
X2580648Y2821547D01*
X2553205Y2828900D01*
X2524795D01*
X2497352Y2821547D01*
X2492372Y2818672D01*
X2061093Y3249950D01*
Y3844600D01*
X2065400D01*
Y4015400D01*
D02*
G37*
G36*
X1294600Y1248500D02*
X1231900D01*
Y1180800D01*
X1294600D01*
Y1248500D01*
D02*
G37*
G36*
X1206500D02*
X1143800D01*
Y1180800D01*
X1206500D01*
Y1248500D01*
D02*
G37*
G36*
X2806494Y856900D02*
X2781506D01*
X2757370Y850433D01*
X2735730Y837939D01*
X2718061Y820270D01*
X2705567Y798630D01*
X2699100Y774494D01*
Y749506D01*
X2705567Y725370D01*
X2718061Y703730D01*
X2735730Y686061D01*
X2757370Y673567D01*
X2781506Y667100D01*
X2806494D01*
X2830630Y673567D01*
X2852270Y686061D01*
X2869939Y703730D01*
X2882433Y725370D01*
X2888900Y749506D01*
Y774494D01*
X2882433Y798630D01*
X2869939Y820270D01*
X2852270Y837939D01*
X2830630Y850433D01*
X2806494Y856900D01*
D02*
G37*
G36*
X2552494D02*
X2527506D01*
X2503370Y850433D01*
X2481730Y837939D01*
X2464061Y820270D01*
X2451567Y798630D01*
X2445100Y774494D01*
Y749506D01*
X2451567Y725370D01*
X2464061Y703730D01*
X2481730Y686061D01*
X2503370Y673567D01*
X2527506Y667100D01*
X2552494D01*
X2576630Y673567D01*
X2598270Y686061D01*
X2615939Y703730D01*
X2628433Y725370D01*
X2634900Y749506D01*
Y774494D01*
X2628433Y798630D01*
X2615939Y820270D01*
X2598270Y837939D01*
X2576630Y850433D01*
X2552494Y856900D01*
D02*
G37*
G36*
X2298494D02*
X2273506D01*
X2249370Y850433D01*
X2227730Y837939D01*
X2210061Y820270D01*
X2197567Y798630D01*
X2191100Y774494D01*
Y749506D01*
X2197567Y725370D01*
X2210061Y703730D01*
X2227730Y686061D01*
X2249370Y673567D01*
X2273506Y667100D01*
X2298494D01*
X2322630Y673567D01*
X2344270Y686061D01*
X2361939Y703730D01*
X2374433Y725370D01*
X2380900Y749506D01*
Y774494D01*
X2374433Y798630D01*
X2361939Y820270D01*
X2344270Y837939D01*
X2322630Y850433D01*
X2298494Y856900D01*
D02*
G37*
G36*
X2044494D02*
X2019506D01*
X1995370Y850433D01*
X1973730Y837939D01*
X1956061Y820270D01*
X1943567Y798630D01*
X1937100Y774494D01*
Y749506D01*
X1943567Y725370D01*
X1956061Y703730D01*
X1973730Y686061D01*
X1995370Y673567D01*
X2019506Y667100D01*
X2044494D01*
X2068630Y673567D01*
X2090270Y686061D01*
X2107939Y703730D01*
X2120433Y725370D01*
X2126900Y749506D01*
Y774494D01*
X2120433Y798630D01*
X2107939Y820270D01*
X2090270Y837939D01*
X2068630Y850433D01*
X2044494Y856900D01*
D02*
G37*
G36*
X1790494D02*
X1765506D01*
X1741370Y850433D01*
X1719730Y837939D01*
X1702061Y820270D01*
X1689567Y798630D01*
X1683100Y774494D01*
Y749506D01*
X1689567Y725370D01*
X1702061Y703730D01*
X1719730Y686061D01*
X1741370Y673567D01*
X1765506Y667100D01*
X1790494D01*
X1814630Y673567D01*
X1836270Y686061D01*
X1853939Y703730D01*
X1866433Y725370D01*
X1872900Y749506D01*
Y774494D01*
X1866433Y798630D01*
X1853939Y820270D01*
X1836270Y837939D01*
X1814630Y850433D01*
X1790494Y856900D01*
D02*
G37*
G36*
X1536494D02*
X1511506D01*
X1487370Y850433D01*
X1465730Y837939D01*
X1448061Y820270D01*
X1435567Y798630D01*
X1429100Y774494D01*
Y749506D01*
X1435567Y725370D01*
X1448061Y703730D01*
X1465730Y686061D01*
X1487370Y673567D01*
X1511506Y667100D01*
X1536494D01*
X1560630Y673567D01*
X1582270Y686061D01*
X1599939Y703730D01*
X1612433Y725370D01*
X1618900Y749506D01*
Y774494D01*
X1612433Y798630D01*
X1599939Y820270D01*
X1582270Y837939D01*
X1560630Y850433D01*
X1536494Y856900D01*
D02*
G37*
G36*
X1282494D02*
X1257506D01*
X1233370Y850433D01*
X1211730Y837939D01*
X1194061Y820270D01*
X1181567Y798630D01*
X1175100Y774494D01*
Y749506D01*
X1181567Y725370D01*
X1194061Y703730D01*
X1211730Y686061D01*
X1233370Y673567D01*
X1257506Y667100D01*
X1282494D01*
X1306630Y673567D01*
X1328270Y686061D01*
X1345939Y703730D01*
X1358433Y725370D01*
X1364900Y749506D01*
Y774494D01*
X1358433Y798630D01*
X1345939Y820270D01*
X1328270Y837939D01*
X1306630Y850433D01*
X1282494Y856900D01*
D02*
G37*
G36*
X520494D02*
X495506D01*
X471370Y850433D01*
X449730Y837939D01*
X432061Y820270D01*
X419567Y798630D01*
X413100Y774494D01*
Y749506D01*
X419567Y725370D01*
X432061Y703730D01*
X449730Y686061D01*
X471370Y673567D01*
X495506Y667100D01*
X520494D01*
X544630Y673567D01*
X566270Y686061D01*
X583939Y703730D01*
X596433Y725370D01*
X602900Y749506D01*
Y774494D01*
X596433Y798630D01*
X583939Y820270D01*
X566270Y837939D01*
X544630Y850433D01*
X520494Y856900D01*
D02*
G37*
G36*
X2806700Y602845D02*
Y520700D01*
X2888845D01*
X2882433Y544630D01*
X2869939Y566270D01*
X2852270Y583939D01*
X2830630Y596433D01*
X2806700Y602845D01*
D02*
G37*
G36*
X2781300D02*
X2757370Y596433D01*
X2735730Y583939D01*
X2718061Y566270D01*
X2705567Y544630D01*
X2699155Y520700D01*
X2781300D01*
Y602845D01*
D02*
G37*
G36*
X2888845Y495300D02*
X2806700D01*
Y413155D01*
X2830630Y419567D01*
X2852270Y432061D01*
X2869939Y449730D01*
X2882433Y471370D01*
X2888845Y495300D01*
D02*
G37*
G36*
X2781300D02*
X2699155D01*
X2705567Y471370D01*
X2718061Y449730D01*
X2735730Y432061D01*
X2757370Y419567D01*
X2781300Y413155D01*
Y495300D01*
D02*
G37*
G36*
X2552494Y602900D02*
X2527506D01*
X2503370Y596433D01*
X2481730Y583939D01*
X2464061Y566270D01*
X2451567Y544630D01*
X2445100Y520494D01*
Y495506D01*
X2451567Y471370D01*
X2464061Y449730D01*
X2481730Y432061D01*
X2503370Y419567D01*
X2527506Y413100D01*
X2552494D01*
X2576630Y419567D01*
X2598270Y432061D01*
X2615939Y449730D01*
X2628433Y471370D01*
X2634900Y495506D01*
Y520494D01*
X2628433Y544630D01*
X2615939Y566270D01*
X2598270Y583939D01*
X2576630Y596433D01*
X2552494Y602900D01*
D02*
G37*
G36*
X2298494D02*
X2273506D01*
X2249370Y596433D01*
X2227730Y583939D01*
X2210061Y566270D01*
X2197567Y544630D01*
X2191100Y520494D01*
Y495506D01*
X2197567Y471370D01*
X2210061Y449730D01*
X2227730Y432061D01*
X2249370Y419567D01*
X2273506Y413100D01*
X2298494D01*
X2322630Y419567D01*
X2344270Y432061D01*
X2361939Y449730D01*
X2374433Y471370D01*
X2380900Y495506D01*
Y520494D01*
X2374433Y544630D01*
X2361939Y566270D01*
X2344270Y583939D01*
X2322630Y596433D01*
X2298494Y602900D01*
D02*
G37*
G36*
X2044494D02*
X2019506D01*
X1995370Y596433D01*
X1973730Y583939D01*
X1956061Y566270D01*
X1943567Y544630D01*
X1937100Y520494D01*
Y495506D01*
X1943567Y471370D01*
X1956061Y449730D01*
X1973730Y432061D01*
X1995370Y419567D01*
X2019506Y413100D01*
X2044494D01*
X2068630Y419567D01*
X2090270Y432061D01*
X2107939Y449730D01*
X2120433Y471370D01*
X2126900Y495506D01*
Y520494D01*
X2120433Y544630D01*
X2107939Y566270D01*
X2090270Y583939D01*
X2068630Y596433D01*
X2044494Y602900D01*
D02*
G37*
G36*
X1790494D02*
X1765506D01*
X1741370Y596433D01*
X1719730Y583939D01*
X1702061Y566270D01*
X1689567Y544630D01*
X1683100Y520494D01*
Y495506D01*
X1689567Y471370D01*
X1702061Y449730D01*
X1719730Y432061D01*
X1741370Y419567D01*
X1765506Y413100D01*
X1790494D01*
X1814630Y419567D01*
X1836270Y432061D01*
X1853939Y449730D01*
X1866433Y471370D01*
X1872900Y495506D01*
Y520494D01*
X1866433Y544630D01*
X1853939Y566270D01*
X1836270Y583939D01*
X1814630Y596433D01*
X1790494Y602900D01*
D02*
G37*
G36*
X1536494D02*
X1511506D01*
X1487370Y596433D01*
X1465730Y583939D01*
X1448061Y566270D01*
X1435567Y544630D01*
X1429100Y520494D01*
Y495506D01*
X1435567Y471370D01*
X1448061Y449730D01*
X1465730Y432061D01*
X1487370Y419567D01*
X1511506Y413100D01*
X1536494D01*
X1560630Y419567D01*
X1582270Y432061D01*
X1599939Y449730D01*
X1612433Y471370D01*
X1618900Y495506D01*
Y520494D01*
X1612433Y544630D01*
X1599939Y566270D01*
X1582270Y583939D01*
X1560630Y596433D01*
X1536494Y602900D01*
D02*
G37*
G36*
X1282494D02*
X1257506D01*
X1233370Y596433D01*
X1211730Y583939D01*
X1194061Y566270D01*
X1181567Y544630D01*
X1175100Y520494D01*
Y495506D01*
X1181567Y471370D01*
X1194061Y449730D01*
X1211730Y432061D01*
X1233370Y419567D01*
X1257506Y413100D01*
X1282494D01*
X1306630Y419567D01*
X1328270Y432061D01*
X1345939Y449730D01*
X1358433Y471370D01*
X1364900Y495506D01*
Y520494D01*
X1358433Y544630D01*
X1345939Y566270D01*
X1328270Y583939D01*
X1306630Y596433D01*
X1282494Y602900D01*
D02*
G37*
G36*
X1028494D02*
X1003506D01*
X979370Y596433D01*
X957730Y583939D01*
X940061Y566270D01*
X927567Y544630D01*
X921100Y520494D01*
Y495506D01*
X927567Y471370D01*
X940061Y449730D01*
X957730Y432061D01*
X979370Y419567D01*
X1003506Y413100D01*
X1028494D01*
X1052630Y419567D01*
X1074270Y432061D01*
X1091939Y449730D01*
X1104433Y471370D01*
X1110900Y495506D01*
Y520494D01*
X1104433Y544630D01*
X1091939Y566270D01*
X1074270Y583939D01*
X1052630Y596433D01*
X1028494Y602900D01*
D02*
G37*
G36*
X602900D02*
X413100D01*
Y413100D01*
X602900D01*
Y602900D01*
D02*
G37*
%LPD*%
G36*
X2620807Y6190619D02*
Y6054318D01*
X2022827Y5456338D01*
X2011094Y5461199D01*
Y5699050D01*
X2492372Y6180328D01*
X2497352Y6177453D01*
X2524795Y6170100D01*
X2553205D01*
X2580648Y6177453D01*
X2605252Y6191658D01*
X2609073Y6195480D01*
X2620807Y6190619D01*
D02*
G37*
G36*
X1989352Y6177453D02*
X2016795Y6170100D01*
X2043891D01*
X2048434Y6164507D01*
X2051298Y6159547D01*
X1822827Y5931076D01*
X1811093Y5935936D01*
Y6007049D01*
X1984372Y6180328D01*
X1989352Y6177453D01*
D02*
G37*
G36*
X1338907Y5903049D02*
Y5854995D01*
X1327173Y5850135D01*
X1018942Y6158367D01*
X1023802Y6170100D01*
X1029205D01*
X1056648Y6177453D01*
X1061628Y6180328D01*
X1338907Y5903049D01*
D02*
G37*
G36*
X2243352Y6177453D02*
X2270795Y6170100D01*
X2297891D01*
X2302434Y6164507D01*
X2305298Y6159547D01*
X1922827Y5777076D01*
X1911093Y5781936D01*
Y5853050D01*
X2238372Y6180328D01*
X2243352Y6177453D01*
D02*
G37*
G36*
X2811100Y5126198D02*
Y5120795D01*
X2818453Y5093352D01*
X2821328Y5088372D01*
X2544050Y4811093D01*
X2495995D01*
X2491135Y4822827D01*
X2799367Y5131058D01*
X2811100Y5126198D01*
D02*
G37*
G36*
X2821328Y4165628D02*
X2818453Y4160648D01*
X2811100Y4133205D01*
Y4106109D01*
X2805507Y4101566D01*
X2800547Y4098702D01*
X2572076Y4327173D01*
X2576936Y4338906D01*
X2648050D01*
X2821328Y4165628D01*
D02*
G37*
G36*
Y3911628D02*
X2818453Y3906648D01*
X2811100Y3879205D01*
Y3862872D01*
X2798400Y3857612D01*
X2428838Y4227173D01*
X2433699Y4238906D01*
X2494050D01*
X2821328Y3911628D01*
D02*
G37*
G36*
Y3657628D02*
X2818453Y3652648D01*
X2811100Y3625205D01*
Y3619802D01*
X2799367Y3614941D01*
X2606176Y3808133D01*
Y3819918D01*
X2603428Y3833730D01*
X2595604Y3845440D01*
X2314837Y4126206D01*
X2320098Y4138906D01*
X2340050D01*
X2821328Y3657628D01*
D02*
G37*
G36*
X2281058Y2840633D02*
X2276198Y2828900D01*
X2270795D01*
X2243352Y2821547D01*
X2238372Y2818672D01*
X1961093Y3095950D01*
Y3144005D01*
X1972827Y3148865D01*
X2281058Y2840633D01*
D02*
G37*
G36*
X1488907Y3063064D02*
Y2991950D01*
X1315628Y2818672D01*
X1310648Y2821547D01*
X1283205Y2828900D01*
X1256110D01*
X1251566Y2834493D01*
X1248702Y2839453D01*
X1477173Y3067924D01*
X1488907Y3063064D01*
D02*
G37*
G36*
X1388907Y3217064D02*
Y3145950D01*
X1061628Y2818672D01*
X1056648Y2821547D01*
X1029205Y2828900D01*
X1002110D01*
X997566Y2834493D01*
X994702Y2839453D01*
X1377173Y3221924D01*
X1388907Y3217064D01*
D02*
G37*
G36*
X1288906Y3829902D02*
Y3299950D01*
X807628Y2818672D01*
X802648Y2821547D01*
X775205Y2828900D01*
X746795D01*
X719352Y2821547D01*
X694748Y2807341D01*
X690927Y2803520D01*
X679193Y2808380D01*
Y3238149D01*
X1276206Y3835163D01*
X1288906Y3829902D01*
D02*
G37*
G36*
X2380690Y2108227D02*
X2375829Y2096493D01*
X2043245D01*
X1899660Y2240079D01*
X1904520Y2251812D01*
X2237104D01*
X2380690Y2108227D01*
D02*
G37*
G36*
X1721972Y2216984D02*
X1733682Y2209160D01*
X1747494Y2206412D01*
X1831239D01*
X1965118Y2072533D01*
X1960257Y2060800D01*
X1858486D01*
X1855000Y2061493D01*
X1812815D01*
X1526942Y2347367D01*
X1531802Y2359100D01*
X1537205D01*
X1564648Y2366453D01*
X1569628Y2369328D01*
X1721972Y2216984D01*
D02*
G37*
G36*
X2393907Y1432195D02*
X2220733Y1259022D01*
X2209000Y1263882D01*
Y1341599D01*
X2209000D01*
Y1350801D01*
X2209000D01*
Y1511600D01*
X2162093D01*
Y1800000D01*
X2393907D01*
Y1432195D01*
D02*
G37*
D10*
X1080000Y4125000D02*
D03*
Y4175000D02*
D03*
Y4225000D02*
D03*
Y4275000D02*
D03*
Y4325000D02*
D03*
Y4375000D02*
D03*
Y4425000D02*
D03*
Y4475000D02*
D03*
Y4525000D02*
D03*
Y4575000D02*
D03*
Y4625000D02*
D03*
Y4675000D02*
D03*
Y4725000D02*
D03*
Y4775000D02*
D03*
Y4825000D02*
D03*
Y4875000D02*
D03*
X2220000D02*
D03*
Y4825000D02*
D03*
Y4775000D02*
D03*
Y4725000D02*
D03*
Y4675000D02*
D03*
Y4625000D02*
D03*
Y4575000D02*
D03*
Y4525000D02*
D03*
Y4475000D02*
D03*
Y4425000D02*
D03*
Y4375000D02*
D03*
Y4325000D02*
D03*
Y4275000D02*
D03*
Y4225000D02*
D03*
Y4175000D02*
D03*
Y4125000D02*
D03*
D11*
X1275000Y5070000D02*
D03*
X1325000D02*
D03*
X1375000D02*
D03*
X1425000D02*
D03*
X1475000D02*
D03*
X1525000D02*
D03*
X1575000D02*
D03*
X1625000D02*
D03*
X1675000D02*
D03*
X1725000D02*
D03*
X1775000D02*
D03*
X1825000D02*
D03*
X1875000D02*
D03*
X1925000D02*
D03*
X1975000D02*
D03*
X2025000D02*
D03*
Y3930000D02*
D03*
X1975000D02*
D03*
X1925000D02*
D03*
X1875000D02*
D03*
X1825000D02*
D03*
X1775000D02*
D03*
X1725000D02*
D03*
X1675000D02*
D03*
X1625000D02*
D03*
X1575000D02*
D03*
X1525000D02*
D03*
X1475000D02*
D03*
X1425000D02*
D03*
X1375000D02*
D03*
X1325000D02*
D03*
X1275000D02*
D03*
D12*
X863600Y3712300D02*
D03*
Y3882300D02*
D03*
X1219200Y1431200D02*
D03*
Y1261200D02*
D03*
X2133600Y1431200D02*
D03*
Y1261200D02*
D03*
D13*
X2125000Y1930400D02*
D03*
X1175000D02*
D03*
D14*
X1625000Y5070000D02*
Y6190205D01*
X1640900Y6206105D01*
X1523000Y6532000D02*
X1640900Y6414100D01*
Y6206105D02*
Y6414100D01*
X643100Y3253100D02*
X1275000Y3885000D01*
X643100Y2584900D02*
Y3253100D01*
X1275000Y3885000D02*
Y3930000D01*
X855150Y4085150D02*
X895000Y4125000D01*
X381000Y3611000D02*
X855150Y4085150D01*
X863600Y4076700D01*
Y3882300D02*
Y4076700D01*
X859700Y3708400D02*
X863600Y3712300D01*
Y3882300D02*
X884300Y3903000D01*
X1789359Y2287906D02*
X2252055D01*
X1640900Y2436364D02*
X1789359Y2287906D01*
X1640900Y2436364D02*
Y2515835D01*
X911100Y657100D02*
Y805451D01*
X1050557Y944907D01*
X2021868D01*
X1855000Y2025400D02*
X1950000Y1930400D01*
X1797864Y2025400D02*
X1855000D01*
X762000Y508000D02*
X911100Y657100D01*
X1846189Y2242506D02*
X2028295Y2060400D01*
X2415355D01*
X1548235Y2608500D02*
X1640900Y2515835D01*
X1548235Y2608500D02*
Y2695764D01*
X1523000Y2721000D02*
X1548235Y2695764D01*
X2415355Y2060400D02*
X2430000Y2045755D01*
X1950000Y1930400D02*
X2126000D01*
X1747494Y2242506D02*
X1846189D01*
X2021868Y944907D02*
X2475400Y1398439D01*
Y2064560D01*
X2252055Y2287906D02*
X2475400Y2064560D01*
X2430000Y1417245D02*
Y2045755D01*
X990307Y990307D02*
X2003063D01*
X2430000Y1417245D01*
X762000Y762000D02*
X990307Y990307D01*
X1523000Y2467000D02*
X1747494Y2242506D01*
X429836Y3747100D02*
X857735Y4175000D01*
X263100Y3747100D02*
X429836D01*
X127000Y3611000D02*
X263100Y3747100D01*
X127000Y3865000D02*
X263100Y4001100D01*
X429836D01*
X703735Y4275000D01*
X1179200Y1471200D02*
X1219200Y1431200D01*
X1179200Y1471200D02*
Y1653700D01*
X1175000Y1657900D02*
X1179200Y1653700D01*
X1175000Y1657900D02*
Y1930400D01*
X2126000Y1438800D02*
Y1930400D01*
Y1438800D02*
X2133600Y1431200D01*
X1386900Y2436364D02*
Y2515835D01*
X1294235Y2608500D02*
X1386900Y2515835D01*
X1294235Y2608500D02*
Y2695764D01*
X1386900Y2436364D02*
X1797864Y2025400D01*
X1269000Y2721000D02*
X1294235Y2695764D01*
X1176000Y1930400D02*
X1269000Y2023400D01*
Y2467000D01*
X1275000Y5070000D02*
Y5764000D01*
X761000Y6278000D02*
X1275000Y5764000D01*
X897100Y6229164D02*
X1325000Y5801264D01*
X897100Y6229164D02*
Y6395900D01*
X761000Y6532000D02*
X897100Y6395900D01*
X1325000Y5070000D02*
Y5801264D01*
X1375000Y5070000D02*
Y5918000D01*
X1015000Y6278000D02*
X1375000Y5918000D01*
X1015000Y6532000D02*
X1151100Y6395900D01*
Y6229164D02*
Y6395900D01*
Y6229164D02*
X1425000Y5955264D01*
Y5070000D02*
Y5955264D01*
X1475000Y5070000D02*
Y6072000D01*
X1269000Y6278000D02*
X1475000Y6072000D01*
X1405100Y6229164D02*
X1525000Y6109264D01*
X1405100Y6229164D02*
Y6395900D01*
X1525000Y5070000D02*
Y6109264D01*
X1269000Y6532000D02*
X1405100Y6395900D01*
X1575000Y5070000D02*
Y6186763D01*
X1523000Y6238763D02*
X1575000Y6186763D01*
X1523000Y6238763D02*
Y6278000D01*
X1675000Y5070000D02*
Y6176000D01*
X1777000Y6278000D01*
X1894900Y6206105D02*
Y6414100D01*
X1725000Y6036205D02*
X1894900Y6206105D01*
X1725000Y5070000D02*
Y6036205D01*
X1777000Y6532000D02*
X1894900Y6414100D01*
X1775000Y5070000D02*
Y6022000D01*
X2031000Y6278000D01*
X1825000Y5070000D02*
Y5882205D01*
X2148900Y6206105D01*
Y6414100D01*
X2031000Y6532000D02*
X2148900Y6414100D01*
X1875000Y5868000D02*
X2285000Y6278000D01*
X1875000Y5070000D02*
Y5868000D01*
X2402900Y6206105D02*
Y6414100D01*
X1925000Y5728205D02*
X2402900Y6206105D01*
X1925000Y5070000D02*
Y5728205D01*
X2285000Y6532000D02*
X2402900Y6414100D01*
X1975000Y5714000D02*
X2539000Y6278000D01*
X1975000Y5070000D02*
Y5714000D01*
X2025000Y5407468D02*
X2656900Y6039368D01*
X2025000Y5070000D02*
Y5407468D01*
X2656900Y6039368D02*
Y6414100D01*
X2539000Y6532000D02*
X2656900Y6414100D01*
X2220000Y4875000D02*
X2405000D01*
X2919000Y5389000D01*
X2220000Y4825000D02*
X2442265D01*
X2870164Y5252900D01*
X3036900D01*
X3173000Y5389000D01*
X2220000Y4775000D02*
X2559000D01*
X2919000Y5135000D01*
X2870164Y4998900D02*
X3036900D01*
X3173000Y5135000D01*
X2596265Y4725000D02*
X2870164Y4998900D01*
X2220000Y4725000D02*
X2596265D01*
X2220000Y4675000D02*
X2713000D01*
X2919000Y4881000D01*
X3036900Y4744900D02*
X3173000Y4881000D01*
X2870164Y4744900D02*
X3036900D01*
X2750265Y4625000D02*
X2870164Y4744900D01*
X2220000Y4625000D02*
X2750265D01*
X2220000Y4575000D02*
X2827763D01*
X2879763Y4627000D01*
X2919000D01*
X2220000Y4525000D02*
X2831205D01*
X2847105Y4509100D01*
X3055100D01*
X3173000Y4627000D01*
X2220000Y4475000D02*
X2817000D01*
X2919000Y4373000D01*
X3055100Y4255100D02*
X3173000Y4373000D01*
X2847105Y4255100D02*
X3055100D01*
X2220000Y4425000D02*
X2677205D01*
X2847105Y4255100D01*
X2663000Y4375000D02*
X2919000Y4119000D01*
X2220000Y4375000D02*
X2663000D01*
X3055100Y4001100D02*
X3173000Y4119000D01*
X2847105Y4001100D02*
X3055100D01*
X2523205Y4325000D02*
X2847105Y4001100D01*
X2220000Y4325000D02*
X2523205D01*
X2220000Y4275000D02*
X2509000D01*
X2919000Y3865000D01*
X2355000Y4175000D02*
X2919000Y3611000D01*
X2220000Y4175000D02*
X2355000D01*
X2220000Y4225000D02*
X2379968D01*
X2857868Y3747100D01*
X3055100D02*
X3173000Y3865000D01*
X2857868Y3747100D02*
X3055100D01*
X2220000Y4125000D02*
X2265000D01*
X2570082Y3819918D01*
Y3793182D02*
Y3819918D01*
Y3793182D02*
X2870164Y3493100D01*
X3055100D01*
X3173000Y3611000D01*
X2025000Y3235000D02*
Y3930000D01*
Y3235000D02*
X2539000Y2721000D01*
X1875000Y3043735D02*
X2148900Y2769835D01*
X1975000Y3197735D02*
X2402900Y2769835D01*
X1925000Y3081000D02*
X2285000Y2721000D01*
X2402900Y2603100D02*
Y2769835D01*
X2148900Y2603100D02*
Y2769835D01*
X2402900Y2603100D02*
X2539000Y2467000D01*
X1975000Y3197735D02*
Y3930000D01*
X1925000Y3081000D02*
Y3930000D01*
X2148900Y2603100D02*
X2285000Y2467000D01*
X1875000Y3043735D02*
Y3930000D01*
X1825000Y2927000D02*
Y3930000D01*
Y2927000D02*
X2031000Y2721000D01*
X1894900Y2603100D02*
X2031000Y2467000D01*
X1775000Y2889735D02*
X1894900Y2769835D01*
Y2603100D02*
Y2769835D01*
X1775000Y2889735D02*
Y3930000D01*
X1725000Y2812236D02*
Y3930000D01*
Y2812236D02*
X1777000Y2760237D01*
Y2721000D02*
Y2760237D01*
X1675000Y2808795D02*
Y3930000D01*
X1659100Y2792895D02*
X1675000Y2808795D01*
X1659100Y2584900D02*
Y2792895D01*
Y2584900D02*
X1777000Y2467000D01*
X1625000Y2823000D02*
Y3930000D01*
X1523000Y2721000D02*
X1625000Y2823000D01*
X1575000Y2962795D02*
Y3930000D01*
X1405100Y2792895D02*
X1575000Y2962795D01*
X1525000Y2977000D02*
Y3930000D01*
X1269000Y2721000D02*
X1525000Y2977000D01*
X1405100Y2584900D02*
Y2792895D01*
Y2584900D02*
X1523000Y2467000D01*
X1475000Y3116795D02*
Y3930000D01*
X1151100Y2792895D02*
X1475000Y3116795D01*
X1151100Y2584900D02*
Y2792895D01*
Y2584900D02*
X1269000Y2467000D01*
X1015000Y2721000D02*
X1425000Y3131000D01*
Y3930000D01*
X897100Y2584900D02*
X1015000Y2467000D01*
X897100Y2584900D02*
Y2792895D01*
X1375000Y3270795D01*
Y3930000D01*
X761000Y2721000D02*
X1325000Y3285000D01*
Y3930000D01*
X643100Y2584900D02*
X761000Y2467000D01*
X895000Y4125000D02*
X1080000D01*
X857735Y4175000D02*
X1080000D01*
X741000Y4225000D02*
X1080000D01*
X381000Y3865000D02*
X741000Y4225000D01*
X703735Y4275000D02*
X1080000D01*
X549736Y4375000D02*
X1080000D01*
X429836Y4255100D02*
X549736Y4375000D01*
X263100Y4255100D02*
X429836D01*
X127000Y4119000D02*
X263100Y4255100D01*
X472237Y4425000D02*
X1080000D01*
X420237Y4373000D02*
X472237Y4425000D01*
X381000Y4373000D02*
X420237D01*
X468795Y4475000D02*
X1080000D01*
X452895Y4490900D02*
X468795Y4475000D01*
X244900Y4490900D02*
X452895D01*
X127000Y4373000D02*
X244900Y4490900D01*
X483000Y4525000D02*
X1080000D01*
X381000Y4627000D02*
X483000Y4525000D01*
X622795Y4575000D02*
X1080000D01*
X452895Y4744900D02*
X622795Y4575000D01*
X244900Y4744900D02*
X452895D01*
X127000Y4627000D02*
X244900Y4744900D01*
X637000Y4625000D02*
X1080000D01*
X381000Y4881000D02*
X637000Y4625000D01*
X452895Y4998900D02*
X776795Y4675000D01*
X791000Y4725000D02*
X1080000D01*
X381000Y5135000D02*
X791000Y4725000D01*
X776795Y4675000D02*
X1080000D01*
X127000Y4881000D02*
X244900Y4998900D01*
X452895D01*
X381000Y5389000D02*
X945000Y4825000D01*
X920032Y4775000D02*
X1080000D01*
X442132Y5252900D02*
X920032Y4775000D01*
X945000Y4825000D02*
X1080000D01*
X244900Y5252900D02*
X442132D01*
X127000Y5135000D02*
X244900Y5252900D01*
X1035000Y4875000D02*
X1080000D01*
X729918Y5180082D02*
X1035000Y4875000D01*
X729918Y5180082D02*
Y5206818D01*
X429836Y5506900D02*
X729918Y5206818D01*
X244900Y5506900D02*
X429836D01*
X127000Y5389000D02*
X244900Y5506900D01*
D15*
X587000Y4325000D02*
X1080000D01*
X381000Y4119000D02*
X587000Y4325000D01*
D16*
X2539000Y2721000D02*
D03*
Y2467000D02*
D03*
X2285000Y2721000D02*
D03*
Y2467000D02*
D03*
X2031000Y2721000D02*
D03*
Y2467000D02*
D03*
X1777000Y2721000D02*
D03*
Y2467000D02*
D03*
X1523000Y2721000D02*
D03*
Y2467000D02*
D03*
X1269000Y2721000D02*
D03*
Y2467000D02*
D03*
X1015000Y2721000D02*
D03*
Y2467000D02*
D03*
X761000Y2721000D02*
D03*
X2919000Y5389000D02*
D03*
X3173000D02*
D03*
X2919000Y5135000D02*
D03*
X3173000D02*
D03*
X2919000Y4881000D02*
D03*
X3173000D02*
D03*
X2919000Y4627000D02*
D03*
X3173000D02*
D03*
X2919000Y4373000D02*
D03*
X3173000D02*
D03*
X2919000Y4119000D02*
D03*
X3173000D02*
D03*
X2919000Y3865000D02*
D03*
X3173000D02*
D03*
X2919000Y3611000D02*
D03*
X381000D02*
D03*
X127000D02*
D03*
X381000Y3865000D02*
D03*
X127000D02*
D03*
X381000Y4119000D02*
D03*
X127000D02*
D03*
X381000Y4373000D02*
D03*
X127000D02*
D03*
X381000Y4627000D02*
D03*
X127000D02*
D03*
X381000Y4881000D02*
D03*
X127000D02*
D03*
X381000Y5135000D02*
D03*
X127000D02*
D03*
X381000Y5389000D02*
D03*
X761000Y6278000D02*
D03*
Y6532000D02*
D03*
X1015000Y6278000D02*
D03*
Y6532000D02*
D03*
X1269000Y6278000D02*
D03*
Y6532000D02*
D03*
X1523000Y6278000D02*
D03*
Y6532000D02*
D03*
X1777000Y6278000D02*
D03*
Y6532000D02*
D03*
X2031000Y6278000D02*
D03*
Y6532000D02*
D03*
X2285000Y6278000D02*
D03*
Y6532000D02*
D03*
X2539000Y6278000D02*
D03*
D17*
X761000Y2467000D02*
D03*
X2539000Y6532000D02*
D03*
D18*
X3173000Y3611000D02*
D03*
X127000Y5389000D02*
D03*
D19*
X279400Y7835900D02*
D03*
Y7581900D02*
D03*
X533400D02*
D03*
Y7835900D02*
D03*
X1041400D02*
D03*
Y7581900D02*
D03*
X787400D02*
D03*
Y7835900D02*
D03*
X1803400D02*
D03*
Y7581900D02*
D03*
X2057400D02*
D03*
Y7835900D02*
D03*
X1549400D02*
D03*
Y7581900D02*
D03*
X1295400D02*
D03*
Y7835900D02*
D03*
X2819400D02*
D03*
Y7581900D02*
D03*
X3073400D02*
D03*
Y7835900D02*
D03*
X2565400D02*
D03*
Y7581900D02*
D03*
X2311400D02*
D03*
Y7835900D02*
D03*
X2565400Y7327900D02*
D03*
Y7073900D02*
D03*
X2311400D02*
D03*
Y7327900D02*
D03*
X2819400D02*
D03*
Y7073900D02*
D03*
X3073400D02*
D03*
Y7327900D02*
D03*
X279400Y7073900D02*
D03*
X1549400Y7327900D02*
D03*
Y7073900D02*
D03*
X1803400Y7327900D02*
D03*
Y7073900D02*
D03*
X2057400D02*
D03*
Y7327900D02*
D03*
X1295400D02*
D03*
X787400Y7073900D02*
D03*
X533400D02*
D03*
X787400Y7327900D02*
D03*
X533400D02*
D03*
X1041400D02*
D03*
X279400D02*
D03*
X1295400Y7073900D02*
D03*
X1041400D02*
D03*
D20*
X508000Y8238000D02*
D03*
Y508000D02*
D03*
D21*
Y8492000D02*
D03*
X762000Y8238000D02*
D03*
Y8492000D02*
D03*
X1016000Y8238000D02*
D03*
Y8492000D02*
D03*
X1270000Y8238000D02*
D03*
Y8492000D02*
D03*
X1524000Y8238000D02*
D03*
Y8492000D02*
D03*
X1778000Y8238000D02*
D03*
Y8492000D02*
D03*
X2032000Y8238000D02*
D03*
Y8492000D02*
D03*
X2286000Y8238000D02*
D03*
Y8492000D02*
D03*
X2540000Y8238000D02*
D03*
Y8492000D02*
D03*
X2794000Y8238000D02*
D03*
Y8492000D02*
D03*
X508000Y762000D02*
D03*
X762000Y508000D02*
D03*
Y762000D02*
D03*
X1016000Y508000D02*
D03*
Y762000D02*
D03*
X1270000Y508000D02*
D03*
Y762000D02*
D03*
X1524000Y508000D02*
D03*
Y762000D02*
D03*
X1778000Y508000D02*
D03*
Y762000D02*
D03*
X2032000Y508000D02*
D03*
Y762000D02*
D03*
X2286000Y508000D02*
D03*
Y762000D02*
D03*
X2540000Y508000D02*
D03*
Y762000D02*
D03*
X2794000Y508000D02*
D03*
Y762000D02*
D03*
%TF.MD5,fa3671b3fe29a06ce6d24956e3410364*%
M02*
