%TF.GenerationSoftware,Altium Limited,Altium Designer,23.4.1 (23)*%
G04 Layer_Color=255*
%FSLAX45Y45*%
%MOMM*%
%TF.SameCoordinates,FC7CEE8C-9C91-443A-B6C4-03D5C87B0654*%
%TF.FilePolarity,Positive*%
%TF.FileFunction,Pads,Bot*%
%TF.Part,Single*%
G01*
G75*
%TA.AperFunction,ComponentPad*%
%ADD16C,1.65000*%
%ADD17R,1.65000X1.65000*%
%ADD18R,1.65000X1.65000*%
%TA.AperFunction,ViaPad*%
%ADD19R,2.00000X2.00000*%
%TA.AperFunction,ComponentPad*%
%ADD20R,1.39000X1.39000*%
%ADD21C,1.39000*%
D16*
X2539000Y2721000D02*
D03*
Y2467000D02*
D03*
X2285000Y2721000D02*
D03*
Y2467000D02*
D03*
X2031000Y2721000D02*
D03*
Y2467000D02*
D03*
X1777000Y2721000D02*
D03*
Y2467000D02*
D03*
X1523000Y2721000D02*
D03*
Y2467000D02*
D03*
X1269000Y2721000D02*
D03*
Y2467000D02*
D03*
X1015000Y2721000D02*
D03*
Y2467000D02*
D03*
X761000Y2721000D02*
D03*
X2919000Y5389000D02*
D03*
X3173000D02*
D03*
X2919000Y5135000D02*
D03*
X3173000D02*
D03*
X2919000Y4881000D02*
D03*
X3173000D02*
D03*
X2919000Y4627000D02*
D03*
X3173000D02*
D03*
X2919000Y4373000D02*
D03*
X3173000D02*
D03*
X2919000Y4119000D02*
D03*
X3173000D02*
D03*
X2919000Y3865000D02*
D03*
X3173000D02*
D03*
X2919000Y3611000D02*
D03*
X381000D02*
D03*
X127000D02*
D03*
X381000Y3865000D02*
D03*
X127000D02*
D03*
X381000Y4119000D02*
D03*
X127000D02*
D03*
X381000Y4373000D02*
D03*
X127000D02*
D03*
X381000Y4627000D02*
D03*
X127000D02*
D03*
X381000Y4881000D02*
D03*
X127000D02*
D03*
X381000Y5135000D02*
D03*
X127000D02*
D03*
X381000Y5389000D02*
D03*
X761000Y6278000D02*
D03*
Y6532000D02*
D03*
X1015000Y6278000D02*
D03*
Y6532000D02*
D03*
X1269000Y6278000D02*
D03*
Y6532000D02*
D03*
X1523000Y6278000D02*
D03*
Y6532000D02*
D03*
X1777000Y6278000D02*
D03*
Y6532000D02*
D03*
X2031000Y6278000D02*
D03*
Y6532000D02*
D03*
X2285000Y6278000D02*
D03*
Y6532000D02*
D03*
X2539000Y6278000D02*
D03*
D17*
X761000Y2467000D02*
D03*
X2539000Y6532000D02*
D03*
D18*
X3173000Y3611000D02*
D03*
X127000Y5389000D02*
D03*
D19*
X279400Y7835900D02*
D03*
Y7581900D02*
D03*
X533400D02*
D03*
Y7835900D02*
D03*
X1041400D02*
D03*
Y7581900D02*
D03*
X787400D02*
D03*
Y7835900D02*
D03*
X1803400D02*
D03*
Y7581900D02*
D03*
X2057400D02*
D03*
Y7835900D02*
D03*
X1549400D02*
D03*
Y7581900D02*
D03*
X1295400D02*
D03*
Y7835900D02*
D03*
X2819400D02*
D03*
Y7581900D02*
D03*
X3073400D02*
D03*
Y7835900D02*
D03*
X2565400D02*
D03*
Y7581900D02*
D03*
X2311400D02*
D03*
Y7835900D02*
D03*
X2565400Y7327900D02*
D03*
Y7073900D02*
D03*
X2311400D02*
D03*
Y7327900D02*
D03*
X2819400D02*
D03*
Y7073900D02*
D03*
X3073400D02*
D03*
Y7327900D02*
D03*
X279400Y7073900D02*
D03*
X1549400Y7327900D02*
D03*
Y7073900D02*
D03*
X1803400Y7327900D02*
D03*
Y7073900D02*
D03*
X2057400D02*
D03*
Y7327900D02*
D03*
X1295400D02*
D03*
X787400Y7073900D02*
D03*
X533400D02*
D03*
X787400Y7327900D02*
D03*
X533400D02*
D03*
X1041400D02*
D03*
X279400D02*
D03*
X1295400Y7073900D02*
D03*
X1041400D02*
D03*
D20*
X508000Y8238000D02*
D03*
Y508000D02*
D03*
D21*
Y8492000D02*
D03*
X762000Y8238000D02*
D03*
Y8492000D02*
D03*
X1016000Y8238000D02*
D03*
Y8492000D02*
D03*
X1270000Y8238000D02*
D03*
Y8492000D02*
D03*
X1524000Y8238000D02*
D03*
Y8492000D02*
D03*
X1778000Y8238000D02*
D03*
Y8492000D02*
D03*
X2032000Y8238000D02*
D03*
Y8492000D02*
D03*
X2286000Y8238000D02*
D03*
Y8492000D02*
D03*
X2540000Y8238000D02*
D03*
Y8492000D02*
D03*
X2794000Y8238000D02*
D03*
Y8492000D02*
D03*
X508000Y762000D02*
D03*
X762000Y508000D02*
D03*
Y762000D02*
D03*
X1016000Y508000D02*
D03*
Y762000D02*
D03*
X1270000Y508000D02*
D03*
Y762000D02*
D03*
X1524000Y508000D02*
D03*
Y762000D02*
D03*
X1778000Y508000D02*
D03*
Y762000D02*
D03*
X2032000Y508000D02*
D03*
Y762000D02*
D03*
X2286000Y508000D02*
D03*
Y762000D02*
D03*
X2540000Y508000D02*
D03*
Y762000D02*
D03*
X2794000Y508000D02*
D03*
Y762000D02*
D03*
%TF.MD5,5aec4ad23837cd2f2b72983cf3f81661*%
M02*
