%TF.GenerationSoftware,Altium Limited,Altium Designer,23.4.1 (23)*%
G04 Layer_Color=32768*
%FSLAX45Y45*%
%MOMM*%
%TF.SameCoordinates,FC7CEE8C-9C91-443A-B6C4-03D5C87B0654*%
%TF.FilePolarity,Positive*%
%TF.FileFunction,Other,Mechanical_15*%
%TF.Part,Single*%
G01*
G75*
%TA.AperFunction,NonConductor*%
%ADD38C,0.05000*%
%ADD39C,0.05080*%
D38*
X609000Y2327500D02*
X2691000D01*
Y2860500D01*
X609000D02*
X2691000D01*
X609000Y2327500D02*
Y2860500D01*
X3312500Y3459000D02*
Y5541000D01*
X2779500D02*
X3312500D01*
X2779500Y3459000D02*
Y5541000D01*
Y3459000D02*
X3312500D01*
X-12500D02*
Y5541000D01*
Y3459000D02*
X520500D01*
Y5541000D01*
X-12500D02*
X520500D01*
X609000Y6671500D02*
X2691000D01*
X609000Y6138500D02*
Y6671500D01*
Y6138500D02*
X2691000D01*
Y6671500D01*
X2430000Y1670400D02*
Y2190400D01*
X870000D02*
X2430000D01*
X870000Y1670400D02*
Y2190400D01*
Y1670400D02*
X2430000D01*
X2971500Y8092350D02*
Y8637650D01*
X330500D02*
X2971500D01*
X330500Y8092350D02*
Y8637650D01*
Y8092350D02*
X2971500D01*
Y362350D02*
Y907650D01*
X330500D02*
X2971500D01*
X330500Y362350D02*
Y907650D01*
Y362350D02*
X2971500D01*
D39*
X785300Y3964600D02*
X941900D01*
X785300Y3630000D02*
Y3964600D01*
Y3630000D02*
X941900D01*
Y3964600D01*
X1140900Y1178900D02*
X1297500D01*
Y1513500D01*
X1140900D02*
X1297500D01*
X1140900Y1178900D02*
Y1513500D01*
X2055300Y1178900D02*
X2211900D01*
Y1513500D01*
X2055300D02*
X2211900D01*
X2055300Y1178900D02*
Y1513500D01*
%TF.MD5,bc35087a5c0544c7c85380f7cd289ad7*%
M02*
