%TF.GenerationSoftware,Altium Limited,Altium Designer,23.4.1 (23)*%
G04 Layer_Color=128*
%FSLAX45Y45*%
%MOMM*%
%TF.SameCoordinates,B91EE142-B30E-402A-A340-A1283DCE037E*%
%TF.FilePolarity,Positive*%
%TF.FileFunction,Drillmap*%
%TF.Part,Single*%
G01*
G75*
%TA.AperFunction,NonConductor*%
%ADD21C,0.12700*%
D21*
X2742000Y8492000D02*
X2846000D01*
X2794000Y8440000D02*
Y8544000D01*
X2742000Y8238000D02*
X2846000D01*
X2794000Y8186000D02*
Y8290000D01*
X2488000Y8492000D02*
X2592000D01*
X2540000Y8440000D02*
Y8544000D01*
X2488000Y8238000D02*
X2592000D01*
X2540000Y8186000D02*
Y8290000D01*
X2234000Y8492000D02*
X2338000D01*
X2286000Y8440000D02*
Y8544000D01*
X2234000Y8238000D02*
X2338000D01*
X2286000Y8186000D02*
Y8290000D01*
X1980000Y8492000D02*
X2084000D01*
X2032000Y8440000D02*
Y8544000D01*
X1980000Y8238000D02*
X2084000D01*
X2032000Y8186000D02*
Y8290000D01*
X1726000Y8492000D02*
X1830000D01*
X1778000Y8440000D02*
Y8544000D01*
X1726000Y8238000D02*
X1830000D01*
X1778000Y8186000D02*
Y8290000D01*
X1472000Y8492000D02*
X1576000D01*
X1524000Y8440000D02*
Y8544000D01*
X1472000Y8238000D02*
X1576000D01*
X1524000Y8186000D02*
Y8290000D01*
X1218000Y8492000D02*
X1322000D01*
X1270000Y8440000D02*
Y8544000D01*
X1218000Y8238000D02*
X1322000D01*
X1270000Y8186000D02*
Y8290000D01*
X964000Y8492000D02*
X1068000D01*
X1016000Y8440000D02*
Y8544000D01*
X964000Y8238000D02*
X1068000D01*
X1016000Y8186000D02*
Y8290000D01*
X710000Y8492000D02*
X814000D01*
X762000Y8440000D02*
Y8544000D01*
X710000Y8238000D02*
X814000D01*
X762000Y8186000D02*
Y8290000D01*
X456000Y8492000D02*
X560000D01*
X508000Y8440000D02*
Y8544000D01*
X456000Y8238000D02*
X560000D01*
X508000Y8186000D02*
Y8290000D01*
X2742000Y762000D02*
X2846000D01*
X2794000Y710000D02*
Y814000D01*
X2742000Y508000D02*
X2846000D01*
X2794000Y456000D02*
Y560000D01*
X2488000Y762000D02*
X2592000D01*
X2540000Y710000D02*
Y814000D01*
X2488000Y508000D02*
X2592000D01*
X2540000Y456000D02*
Y560000D01*
X2234000Y762000D02*
X2338000D01*
X2286000Y710000D02*
Y814000D01*
X2234000Y508000D02*
X2338000D01*
X2286000Y456000D02*
Y560000D01*
X1980000Y762000D02*
X2084000D01*
X2032000Y710000D02*
Y814000D01*
X1980000Y508000D02*
X2084000D01*
X2032000Y456000D02*
Y560000D01*
X1726000Y762000D02*
X1830000D01*
X1778000Y710000D02*
Y814000D01*
X1726000Y508000D02*
X1830000D01*
X1778000Y456000D02*
Y560000D01*
X1472000Y762000D02*
X1576000D01*
X1524000Y710000D02*
Y814000D01*
X1472000Y508000D02*
X1576000D01*
X1524000Y456000D02*
Y560000D01*
X1218000Y762000D02*
X1322000D01*
X1270000Y710000D02*
Y814000D01*
X1218000Y508000D02*
X1322000D01*
X1270000Y456000D02*
Y560000D01*
X964000Y762000D02*
X1068000D01*
X1016000Y710000D02*
Y814000D01*
X964000Y508000D02*
X1068000D01*
X1016000Y456000D02*
Y560000D01*
X710000Y762000D02*
X814000D01*
X762000Y710000D02*
Y814000D01*
X710000Y508000D02*
X814000D01*
X762000Y456000D02*
Y560000D01*
X456000Y762000D02*
X560000D01*
X508000Y710000D02*
Y814000D01*
X456000Y508000D02*
X560000D01*
X508000Y456000D02*
Y560000D01*
X1572500Y2705900D02*
X1602500D01*
X1587500Y2690900D02*
Y2720900D01*
X1572500Y2805900D02*
X1602500D01*
X1587500Y2790900D02*
Y2820900D01*
X1811500Y2120900D02*
X1871500D01*
X1841500Y2090900D02*
Y2150900D01*
X1773400Y3060700D02*
X1833400D01*
X1803400Y3030700D02*
Y3090700D01*
X1913100Y3797300D02*
X1973100D01*
X1943100Y3767300D02*
Y3827300D01*
X1417800Y2565400D02*
X1477800D01*
X1447800Y2535400D02*
Y2595400D01*
X1125700Y1358900D02*
X1185700D01*
X1155700Y1328900D02*
Y1388900D01*
%TF.MD5,0275640c845f9123194f08ccf6c880df*%
M02*
