%TF.GenerationSoftware,Altium Limited,Altium Designer,23.4.1 (23)*%
G04 Layer_Color=16711935*
%FSLAX45Y45*%
%MOMM*%
%TF.SameCoordinates,B91EE142-B30E-402A-A340-A1283DCE037E*%
%TF.FilePolarity,Positive*%
%TF.FileFunction,Other,Mechanical_13*%
%TF.Part,Single*%
G01*
G75*
%TA.AperFunction,NonConductor*%
%ADD20C,0.20000*%
%ADD21C,0.12700*%
%ADD32C,0.10000*%
D20*
X1118600Y1489400D02*
G03*
X1118600Y1489400I-10000J0D01*
G01*
X300500Y8238000D02*
G03*
X300500Y8238000I-10000J0D01*
G01*
Y508000D02*
G03*
X300500Y508000I-10000J0D01*
G01*
X1403800Y3752600D02*
G03*
X1403800Y3752600I-10000J0D01*
G01*
X1843500Y2680900D02*
G03*
X1843500Y2680900I-10000J0D01*
G01*
X1990700Y1489400D02*
G03*
X1990700Y1489400I-10000J0D01*
G01*
D21*
X516200Y1444100D02*
X906200D01*
X516200Y1934100D02*
X906200D01*
Y1444100D02*
Y1934100D01*
X516200Y1444100D02*
Y1934100D01*
X1483300Y3812600D02*
X1793300D01*
X1483300Y3502600D02*
X1793300D01*
X1483300D02*
Y3812600D01*
X1793300Y3502600D02*
Y3812600D01*
X1437500Y2655900D02*
X1737500D01*
X1437500Y2855900D02*
X1737500D01*
Y2655900D02*
Y2855900D01*
X1437500Y2655900D02*
Y2855900D01*
X1388300Y1444100D02*
X1778300D01*
X1388300Y1934100D02*
X1778300D01*
Y1444100D02*
Y1934100D01*
X1388300Y1444100D02*
Y1934100D01*
D32*
X355500Y8117350D02*
Y8612650D01*
X2946500D01*
Y8117350D02*
Y8612650D01*
X355500Y8117350D02*
X2946500D01*
X355500D02*
Y8612650D01*
X2946500D01*
Y8117350D02*
Y8612650D01*
X355500Y387350D02*
Y882650D01*
X2946500D01*
Y387350D02*
Y882650D01*
X355500Y387350D02*
X2946500D01*
X355500D02*
Y882650D01*
X2946500D01*
Y387350D02*
Y882650D01*
%TF.MD5,239c789d8b6cdad4fcbaa73bcb42a96e*%
M02*
