%TF.GenerationSoftware,Altium Limited,Altium Designer,23.4.1 (23)*%
G04 Layer_Color=16711935*
%FSLAX45Y45*%
%MOMM*%
%TF.SameCoordinates,B91EE142-B30E-402A-A340-A1283DCE037E*%
%TF.FilePolarity,Negative*%
%TF.FileFunction,Soldermask,Bot*%
%TF.Part,Single*%
G01*
G75*
%TA.AperFunction,ComponentPad*%
%ADD28C,1.59320*%
%ADD29R,1.59320X1.59320*%
%ADD30C,0.60320*%
%TA.AperFunction,TestPad*%
%ADD31C,1.12700*%
D28*
X2794000Y8492000D02*
D03*
Y8238000D02*
D03*
X2540000Y8492000D02*
D03*
Y8238000D02*
D03*
X2286000Y8492000D02*
D03*
Y8238000D02*
D03*
X2032000Y8492000D02*
D03*
Y8238000D02*
D03*
X1778000Y8492000D02*
D03*
Y8238000D02*
D03*
X1524000Y8492000D02*
D03*
Y8238000D02*
D03*
X1270000Y8492000D02*
D03*
Y8238000D02*
D03*
X1016000Y8492000D02*
D03*
Y8238000D02*
D03*
X762000Y8492000D02*
D03*
Y8238000D02*
D03*
X508000Y8492000D02*
D03*
X2794000Y762000D02*
D03*
Y508000D02*
D03*
X2540000Y762000D02*
D03*
Y508000D02*
D03*
X2286000Y762000D02*
D03*
Y508000D02*
D03*
X2032000Y762000D02*
D03*
Y508000D02*
D03*
X1778000Y762000D02*
D03*
Y508000D02*
D03*
X1524000Y762000D02*
D03*
Y508000D02*
D03*
X1270000Y762000D02*
D03*
Y508000D02*
D03*
X1016000Y762000D02*
D03*
Y508000D02*
D03*
X762000Y762000D02*
D03*
Y508000D02*
D03*
X508000Y762000D02*
D03*
D29*
Y8238000D02*
D03*
Y508000D02*
D03*
D30*
X1587500Y2705900D02*
D03*
Y2805900D02*
D03*
D31*
X1841500Y2120900D02*
D03*
X1803400Y3060700D02*
D03*
X1943100Y3797300D02*
D03*
X1447800Y2565400D02*
D03*
X1155700Y1358900D02*
D03*
%TF.MD5,8ff9f67163c870196ceca7fe8d3e5544*%
M02*
