%TF.GenerationSoftware,Altium Limited,Altium Designer,23.4.1 (23)*%
G04 Layer_Color=32768*
%FSLAX45Y45*%
%MOMM*%
%TF.SameCoordinates,B91EE142-B30E-402A-A340-A1283DCE037E*%
%TF.FilePolarity,Positive*%
%TF.FileFunction,Other,Mechanical_15*%
%TF.Part,Single*%
G01*
G75*
%TA.AperFunction,NonConductor*%
%ADD33C,0.05000*%
D33*
X345700Y1419100D02*
X1076700D01*
X345700Y1959100D02*
X1076700D01*
Y1419100D02*
Y1959100D01*
X345700Y1419100D02*
Y1959100D01*
X330500Y8092350D02*
X2971500D01*
X330500D02*
Y8637650D01*
X2971500D01*
Y8092350D02*
Y8637650D01*
X330500Y362350D02*
X2971500D01*
X330500D02*
Y907650D01*
X2971500D01*
Y362350D02*
Y907650D01*
X1426800Y3837600D02*
X1849800D01*
X1426800Y3477600D02*
X1849800D01*
X1426800D02*
Y3837600D01*
X1849800Y3477600D02*
Y3837600D01*
X1377000Y2630900D02*
X1798000D01*
X1377000Y2880900D02*
X1798000D01*
Y2630900D02*
Y2880900D01*
X1377000Y2630900D02*
Y2880900D01*
X1217800Y1419100D02*
X1948800D01*
X1217800Y1959100D02*
X1948800D01*
Y1419100D02*
Y1959100D01*
X1217800Y1419100D02*
Y1959100D01*
%TF.MD5,5a23e14ad21aa2306ca84fae990d93e3*%
M02*
