%TF.GenerationSoftware,Altium Limited,Altium Designer,23.4.1 (23)*%
G04 Layer_Color=255*
%FSLAX45Y45*%
%MOMM*%
%TF.SameCoordinates,B91EE142-B30E-402A-A340-A1283DCE037E*%
%TF.FilePolarity,Positive*%
%TF.FileFunction,Pads,Bot*%
%TF.Part,Single*%
G01*
G75*
%TA.AperFunction,ComponentPad*%
%ADD16C,1.39000*%
%ADD17R,1.39000X1.39000*%
%ADD18C,0.40000*%
D16*
X2794000Y8492000D02*
D03*
Y8238000D02*
D03*
X2540000Y8492000D02*
D03*
Y8238000D02*
D03*
X2286000Y8492000D02*
D03*
Y8238000D02*
D03*
X2032000Y8492000D02*
D03*
Y8238000D02*
D03*
X1778000Y8492000D02*
D03*
Y8238000D02*
D03*
X1524000Y8492000D02*
D03*
Y8238000D02*
D03*
X1270000Y8492000D02*
D03*
Y8238000D02*
D03*
X1016000Y8492000D02*
D03*
Y8238000D02*
D03*
X762000Y8492000D02*
D03*
Y8238000D02*
D03*
X508000Y8492000D02*
D03*
X2794000Y762000D02*
D03*
Y508000D02*
D03*
X2540000Y762000D02*
D03*
Y508000D02*
D03*
X2286000Y762000D02*
D03*
Y508000D02*
D03*
X2032000Y762000D02*
D03*
Y508000D02*
D03*
X1778000Y762000D02*
D03*
Y508000D02*
D03*
X1524000Y762000D02*
D03*
Y508000D02*
D03*
X1270000Y762000D02*
D03*
Y508000D02*
D03*
X1016000Y762000D02*
D03*
Y508000D02*
D03*
X762000Y762000D02*
D03*
Y508000D02*
D03*
X508000Y762000D02*
D03*
D17*
Y8238000D02*
D03*
Y508000D02*
D03*
D18*
X1587500Y2705900D02*
D03*
Y2805900D02*
D03*
%TF.MD5,d890dc5f1b6e717f357b5d3c1ab51ea9*%
M02*
