%TF.GenerationSoftware,Altium Limited,Altium Designer,23.4.1 (23)*%
G04 Layer_Color=2752767*
%FSLAX45Y45*%
%MOMM*%
%TF.SameCoordinates,B91EE142-B30E-402A-A340-A1283DCE037E*%
%TF.FilePolarity,Positive*%
%TF.FileFunction,Drawing*%
%TF.Part,Single*%
G01*
G75*
%TA.AperFunction,NonConductor*%
%ADD21C,0.12700*%
%ADD38C,0.16933*%
D21*
X1536700Y2655100D02*
Y2756700D01*
X1638300D01*
Y2655100D01*
X1536700D01*
Y2755100D02*
Y2856700D01*
X1638300D01*
Y2755100D01*
X1536700D01*
X1841500Y2070100D02*
X1790700Y2171700D01*
X1892300D01*
X1841500Y2070100D01*
X1803400Y3009900D02*
X1752600Y3111500D01*
X1854200D01*
X1803400Y3009900D01*
X1943100Y3746500D02*
X1892300Y3848100D01*
X1993900D01*
X1943100Y3746500D01*
X1447800Y2514600D02*
X1397000Y2616200D01*
X1498600D01*
X1447800Y2514600D01*
X1155700Y1308100D02*
X1104900Y1409700D01*
X1206500D01*
X1155700Y1308100D01*
D38*
X2844800Y8492000D02*
G03*
X2844800Y8492000I-50800J0D01*
G01*
Y8238000D02*
G03*
X2844800Y8238000I-50800J0D01*
G01*
X2590800Y8492000D02*
G03*
X2590800Y8492000I-50800J0D01*
G01*
Y8238000D02*
G03*
X2590800Y8238000I-50800J0D01*
G01*
X2336800Y8492000D02*
G03*
X2336800Y8492000I-50800J0D01*
G01*
Y8238000D02*
G03*
X2336800Y8238000I-50800J0D01*
G01*
X2082800Y8492000D02*
G03*
X2082800Y8492000I-50800J0D01*
G01*
Y8238000D02*
G03*
X2082800Y8238000I-50800J0D01*
G01*
X1828800Y8492000D02*
G03*
X1828800Y8492000I-50800J0D01*
G01*
Y8238000D02*
G03*
X1828800Y8238000I-50800J0D01*
G01*
X1574800Y8492000D02*
G03*
X1574800Y8492000I-50800J0D01*
G01*
Y8238000D02*
G03*
X1574800Y8238000I-50800J0D01*
G01*
X1320800Y8492000D02*
G03*
X1320800Y8492000I-50800J0D01*
G01*
Y8238000D02*
G03*
X1320800Y8238000I-50800J0D01*
G01*
X1066800Y8492000D02*
G03*
X1066800Y8492000I-50800J0D01*
G01*
Y8238000D02*
G03*
X1066800Y8238000I-50800J0D01*
G01*
X812800Y8492000D02*
G03*
X812800Y8492000I-50800J0D01*
G01*
Y8238000D02*
G03*
X812800Y8238000I-50800J0D01*
G01*
X558800Y8492000D02*
G03*
X558800Y8492000I-50800J0D01*
G01*
Y8238000D02*
G03*
X558800Y8238000I-50800J0D01*
G01*
X2844800Y762000D02*
G03*
X2844800Y762000I-50800J0D01*
G01*
Y508000D02*
G03*
X2844800Y508000I-50800J0D01*
G01*
X2590800Y762000D02*
G03*
X2590800Y762000I-50800J0D01*
G01*
Y508000D02*
G03*
X2590800Y508000I-50800J0D01*
G01*
X2336800Y762000D02*
G03*
X2336800Y762000I-50800J0D01*
G01*
Y508000D02*
G03*
X2336800Y508000I-50800J0D01*
G01*
X2082800Y762000D02*
G03*
X2082800Y762000I-50800J0D01*
G01*
Y508000D02*
G03*
X2082800Y508000I-50800J0D01*
G01*
X1828800Y762000D02*
G03*
X1828800Y762000I-50800J0D01*
G01*
Y508000D02*
G03*
X1828800Y508000I-50800J0D01*
G01*
X1574800Y762000D02*
G03*
X1574800Y762000I-50800J0D01*
G01*
Y508000D02*
G03*
X1574800Y508000I-50800J0D01*
G01*
X1320800Y762000D02*
G03*
X1320800Y762000I-50800J0D01*
G01*
Y508000D02*
G03*
X1320800Y508000I-50800J0D01*
G01*
X1066800Y762000D02*
G03*
X1066800Y762000I-50800J0D01*
G01*
Y508000D02*
G03*
X1066800Y508000I-50800J0D01*
G01*
X812800Y762000D02*
G03*
X812800Y762000I-50800J0D01*
G01*
Y508000D02*
G03*
X812800Y508000I-50800J0D01*
G01*
X558800Y762000D02*
G03*
X558800Y762000I-50800J0D01*
G01*
Y508000D02*
G03*
X558800Y508000I-50800J0D01*
G01*
%TF.MD5,df0a7c440f5d3bc5c1867595cdde552f*%
M02*
