%TF.GenerationSoftware,Altium Limited,Altium Designer,23.4.1 (23)*%
G04 Layer_Color=65535*
%FSLAX45Y45*%
%MOMM*%
%TF.SameCoordinates,B91EE142-B30E-402A-A340-A1283DCE037E*%
%TF.FilePolarity,Positive*%
%TF.FileFunction,Legend,Top*%
%TF.Part,Single*%
G01*
G75*
%TA.AperFunction,NonConductor*%
%ADD20C,0.20000*%
%ADD21C,0.12700*%
%ADD22C,0.25400*%
G36*
X1762546Y7163352D02*
X1765910D01*
Y7159988D01*
Y7156624D01*
X1769275D01*
Y7153259D01*
Y7149895D01*
X1772639D01*
Y7146531D01*
X1776004D01*
Y7143166D01*
X1779368D01*
Y7139802D01*
Y7136438D01*
X1782732D01*
Y7133073D01*
X1786097D01*
Y7129709D01*
Y7126344D01*
X1789461D01*
Y7122980D01*
X1792825D01*
Y7119616D01*
Y7116251D01*
X1796190D01*
Y7112887D01*
Y7109523D01*
X1799554D01*
Y7106158D01*
X1802918D01*
Y7102794D01*
X1806283D01*
Y7099430D01*
Y7096065D01*
X1809647D01*
Y7092701D01*
X1813012D01*
Y7089336D01*
Y7085972D01*
X1816376D01*
Y7082608D01*
X1819740D01*
Y7079243D01*
Y7075879D01*
X1823105D01*
Y7072515D01*
X1826469D01*
Y7069150D01*
X1829833D01*
Y7065786D01*
Y7062421D01*
X1833198D01*
Y7059057D01*
Y7055693D01*
X1836562D01*
Y7052328D01*
X1839926D01*
Y7048964D01*
Y7045600D01*
X1843291D01*
Y7042235D01*
X1846655D01*
Y7038871D01*
Y7035507D01*
X1850019D01*
Y7032142D01*
X1853384D01*
Y7028778D01*
Y7025413D01*
X1856748D01*
Y7022049D01*
X1860113D01*
Y7018685D01*
Y7015320D01*
X1863477D01*
Y7011956D01*
X1866841D01*
Y7008592D01*
X1870206D01*
Y7005227D01*
Y7001863D01*
X1873570D01*
Y6998499D01*
X1876935D01*
Y6995134D01*
Y6991770D01*
X1880299D01*
Y6988405D01*
X1883663D01*
Y6985041D01*
Y6981677D01*
X1887027D01*
Y6978312D01*
X1890392D01*
Y6974948D01*
Y6971584D01*
X1893756D01*
Y6968219D01*
X1897121D01*
Y6964855D01*
Y6961491D01*
X1900485D01*
Y6958126D01*
X1903849D01*
Y6954762D01*
Y6951397D01*
X1907214D01*
Y6948033D01*
X1910578D01*
Y6944669D01*
Y6941304D01*
X1913943D01*
Y6937940D01*
X1917307D01*
Y6934576D01*
Y6931211D01*
X1920671D01*
Y6927847D01*
X1924036D01*
Y6924482D01*
Y6921118D01*
X1927400D01*
Y6917754D01*
X1930764D01*
Y6914389D01*
Y6911025D01*
X1934129D01*
Y6907661D01*
X1937493D01*
Y6904296D01*
X1940857D01*
Y6900932D01*
Y6897568D01*
X1944222D01*
Y6894203D01*
X1947586D01*
Y6890839D01*
Y6887474D01*
X1950950D01*
Y6884110D01*
X1765910D01*
Y6887474D01*
X1762546D01*
Y6890839D01*
X1759182D01*
Y6894203D01*
Y6897568D01*
X1755817D01*
Y6900932D01*
X1752453D01*
Y6904296D01*
X1749089D01*
Y6907661D01*
Y6911025D01*
X1745724D01*
Y6914389D01*
X1742360D01*
Y6917754D01*
Y6921118D01*
X1738996D01*
Y6924482D01*
X1735631D01*
Y6927847D01*
Y6931211D01*
X1732267D01*
Y6934576D01*
X1728902D01*
Y6937940D01*
Y6941304D01*
X1725538D01*
Y6944669D01*
X1722174D01*
Y6948033D01*
Y6951397D01*
X1718809D01*
Y6954762D01*
X1715445D01*
Y6958126D01*
Y6961491D01*
X1712081D01*
Y6964855D01*
X1708716D01*
Y6968219D01*
Y6971584D01*
X1705352D01*
Y6974948D01*
X1701987D01*
Y6978312D01*
Y6981677D01*
X1698623D01*
Y6985041D01*
X1695259D01*
Y6988405D01*
X1691894D01*
Y6991770D01*
Y6995134D01*
X1688530D01*
Y6998499D01*
X1685166D01*
Y7001863D01*
Y7005227D01*
X1681801D01*
Y7008592D01*
X1678437D01*
Y7011956D01*
Y7015320D01*
X1675073D01*
Y7018685D01*
X1671708D01*
Y7022049D01*
Y7025413D01*
X1668344D01*
Y7028778D01*
X1664979D01*
Y7032142D01*
Y7035507D01*
X1661615D01*
Y7038871D01*
X1658251D01*
Y7042235D01*
Y7045600D01*
X1654886D01*
Y7048964D01*
X1651522D01*
Y7052328D01*
Y7055693D01*
X1648158D01*
Y7059057D01*
X1644793D01*
Y7062421D01*
Y7065786D01*
X1641429D01*
Y7069150D01*
X1638065D01*
Y7072515D01*
Y7075879D01*
X1634700D01*
Y7079243D01*
X1631336D01*
Y7082608D01*
Y7085972D01*
X1627971D01*
Y7089336D01*
X1624607D01*
Y7092701D01*
Y7096065D01*
X1617878D01*
Y7092701D01*
X1614514D01*
Y7089336D01*
Y7085972D01*
X1611150D01*
Y7082608D01*
X1607785D01*
Y7079243D01*
Y7075879D01*
X1604421D01*
Y7072515D01*
X1601056D01*
Y7069150D01*
X1597692D01*
Y7065786D01*
Y7062421D01*
X1594328D01*
Y7059057D01*
X1590963D01*
Y7055693D01*
Y7052328D01*
X1587599D01*
Y7048964D01*
X1584235D01*
Y7045600D01*
X1580870D01*
Y7042235D01*
Y7038871D01*
X1577506D01*
Y7035507D01*
X1574142D01*
Y7032142D01*
Y7028778D01*
X1570777D01*
Y7025413D01*
X1567413D01*
Y7022049D01*
Y7018685D01*
X1564048D01*
Y7015320D01*
X1560684D01*
Y7011956D01*
X1557320D01*
Y7008592D01*
Y7005227D01*
X1553955D01*
Y7001863D01*
Y6998499D01*
X1550591D01*
Y6995134D01*
X1547227D01*
Y6991770D01*
X1543862D01*
Y6988405D01*
Y6985041D01*
X1540498D01*
Y6981677D01*
X1537134D01*
Y6978312D01*
Y6974948D01*
X1533769D01*
Y6971584D01*
X1530405D01*
Y6968219D01*
X1527040D01*
Y6964855D01*
Y6961491D01*
X1523676D01*
Y6958126D01*
X1520312D01*
Y6954762D01*
Y6951397D01*
X1516947D01*
Y6948033D01*
X1513583D01*
Y6944669D01*
Y6941304D01*
X1510219D01*
Y6937940D01*
X1506854D01*
Y6934576D01*
X1503490D01*
Y6931211D01*
Y6927847D01*
X1500126D01*
Y6924482D01*
X1496761D01*
Y6921118D01*
Y6917754D01*
X1493397D01*
Y6914389D01*
X1490032D01*
Y6911025D01*
X1486668D01*
Y6907661D01*
Y6904296D01*
X1483304D01*
Y6900932D01*
Y6897568D01*
X1564048D01*
Y6894203D01*
X1570777D01*
Y6897568D01*
X1574142D01*
Y6900932D01*
X1577506D01*
Y6904296D01*
X1580870D01*
Y6907661D01*
Y6911025D01*
X1584235D01*
Y6914389D01*
Y6917754D01*
X1587599D01*
Y6921118D01*
X1590963D01*
Y6924482D01*
X1594328D01*
Y6927847D01*
Y6931211D01*
X1597692D01*
Y6934576D01*
X1601056D01*
Y6937940D01*
Y6941304D01*
X1604421D01*
Y6944669D01*
X1607785D01*
Y6948033D01*
Y6951397D01*
X1611150D01*
Y6954762D01*
X1614514D01*
Y6958126D01*
X1617878D01*
Y6961491D01*
Y6964855D01*
X1621243D01*
Y6968219D01*
X1624607D01*
Y6971584D01*
Y6974948D01*
X1627971D01*
Y6978312D01*
X1631336D01*
Y6981677D01*
X1634700D01*
Y6985041D01*
Y6988405D01*
X1638065D01*
Y6991770D01*
X1641429D01*
Y6995134D01*
Y6998499D01*
X1644793D01*
Y6995134D01*
Y6991770D01*
X1648158D01*
Y6988405D01*
Y6985041D01*
X1651522D01*
Y6981677D01*
X1654886D01*
Y6978312D01*
X1658251D01*
Y6974948D01*
Y6971584D01*
X1661615D01*
Y6968219D01*
X1664979D01*
Y6964855D01*
Y6961491D01*
Y6958126D01*
X1661615D01*
Y6954762D01*
X1658251D01*
Y6951397D01*
X1654886D01*
Y6948033D01*
Y6944669D01*
X1651522D01*
Y6941304D01*
X1648158D01*
Y6937940D01*
Y6934576D01*
X1644793D01*
Y6931211D01*
X1641429D01*
Y6927847D01*
X1638065D01*
Y6924482D01*
Y6921118D01*
X1634700D01*
Y6917754D01*
X1631336D01*
Y6914389D01*
Y6911025D01*
X1627971D01*
Y6907661D01*
X1624607D01*
Y6904296D01*
Y6900932D01*
X1621243D01*
Y6897568D01*
X1617878D01*
Y6894203D01*
X1614514D01*
Y6890839D01*
Y6887474D01*
X1611150D01*
Y6884110D01*
X1607785D01*
Y6880746D01*
Y6877381D01*
X1604421D01*
Y6874017D01*
X1601056D01*
Y6870653D01*
X1597692D01*
Y6867288D01*
Y6863924D01*
X1594328D01*
Y6860560D01*
X1402559D01*
Y6863924D01*
X1405923D01*
Y6867288D01*
X1409288D01*
Y6870653D01*
X1412652D01*
Y6874017D01*
X1416016D01*
Y6877381D01*
Y6880746D01*
X1419381D01*
Y6884110D01*
X1422745D01*
Y6887474D01*
Y6890839D01*
X1426109D01*
Y6894203D01*
X1429474D01*
Y6897568D01*
Y6900932D01*
X1432838D01*
Y6904296D01*
X1436203D01*
Y6907661D01*
Y6911025D01*
X1439567D01*
Y6914389D01*
X1442931D01*
Y6917754D01*
X1446296D01*
Y6921118D01*
Y6924482D01*
X1449660D01*
Y6927847D01*
X1453024D01*
Y6931211D01*
Y6934576D01*
X1456389D01*
Y6937940D01*
X1459753D01*
Y6941304D01*
X1463117D01*
Y6944669D01*
Y6948033D01*
X1466482D01*
Y6951397D01*
X1469846D01*
Y6954762D01*
Y6958126D01*
X1473211D01*
Y6961491D01*
X1476575D01*
Y6964855D01*
Y6968219D01*
X1479939D01*
Y6971584D01*
X1483304D01*
Y6974948D01*
X1486668D01*
Y6978312D01*
Y6981677D01*
X1490032D01*
Y6985041D01*
X1493397D01*
Y6988405D01*
Y6991770D01*
X1496761D01*
Y6995134D01*
X1500126D01*
Y6998499D01*
X1503490D01*
Y7001863D01*
Y7005227D01*
X1506854D01*
Y7008592D01*
X1510219D01*
Y7011956D01*
Y7015320D01*
X1513583D01*
Y7018685D01*
X1516947D01*
Y7022049D01*
X1520312D01*
Y7025413D01*
Y7028778D01*
X1523676D01*
Y7032142D01*
X1527040D01*
Y7035507D01*
Y7038871D01*
X1530405D01*
Y7042235D01*
X1533769D01*
Y7045600D01*
Y7048964D01*
X1537134D01*
Y7052328D01*
X1540498D01*
Y7055693D01*
Y7059057D01*
X1543862D01*
Y7062421D01*
X1547227D01*
Y7065786D01*
Y7069150D01*
X1550591D01*
Y7072515D01*
X1553955D01*
Y7075879D01*
X1557320D01*
Y7079243D01*
Y7082608D01*
X1560684D01*
Y7085972D01*
X1564048D01*
Y7089336D01*
Y7092701D01*
X1567413D01*
Y7096065D01*
X1570777D01*
Y7099430D01*
Y7102794D01*
X1574142D01*
Y7106158D01*
X1577506D01*
Y7109523D01*
X1580870D01*
Y7112887D01*
Y7116251D01*
X1584235D01*
Y7119616D01*
X1587599D01*
Y7122980D01*
Y7126344D01*
X1590963D01*
Y7129709D01*
X1594328D01*
Y7133073D01*
X1597692D01*
Y7136438D01*
Y7139802D01*
X1601056D01*
Y7143166D01*
X1604421D01*
Y7146531D01*
Y7149895D01*
X1607785D01*
Y7153259D01*
X1611150D01*
Y7156624D01*
X1614514D01*
Y7159988D01*
Y7163352D01*
X1617878D01*
Y7166717D01*
X1621243D01*
Y7163352D01*
X1624607D01*
Y7159988D01*
Y7156624D01*
X1627971D01*
Y7153259D01*
X1631336D01*
Y7149895D01*
Y7146531D01*
X1634700D01*
Y7143166D01*
X1638065D01*
Y7139802D01*
Y7136438D01*
X1641429D01*
Y7133073D01*
X1644793D01*
Y7129709D01*
Y7126344D01*
X1648158D01*
Y7122980D01*
X1651522D01*
Y7119616D01*
X1654886D01*
Y7116251D01*
Y7112887D01*
X1658251D01*
Y7109523D01*
X1661615D01*
Y7106158D01*
Y7102794D01*
X1664979D01*
Y7099430D01*
X1668344D01*
Y7096065D01*
Y7092701D01*
X1671708D01*
Y7089336D01*
X1675073D01*
Y7085972D01*
Y7082608D01*
X1678437D01*
Y7079243D01*
Y7075879D01*
X1681801D01*
Y7072515D01*
X1685166D01*
Y7069150D01*
X1688530D01*
Y7065786D01*
Y7062421D01*
X1691894D01*
Y7059057D01*
X1695259D01*
Y7055693D01*
Y7052328D01*
X1698623D01*
Y7048964D01*
X1701987D01*
Y7045600D01*
Y7042235D01*
X1705352D01*
Y7038871D01*
X1708716D01*
Y7035507D01*
Y7032142D01*
X1712081D01*
Y7028778D01*
X1715445D01*
Y7025413D01*
Y7022049D01*
X1718809D01*
Y7018685D01*
X1722174D01*
Y7015320D01*
Y7011956D01*
X1725538D01*
Y7008592D01*
X1728902D01*
Y7005227D01*
X1732267D01*
Y7001863D01*
Y6998499D01*
X1735631D01*
Y6995134D01*
X1738996D01*
Y6991770D01*
Y6988405D01*
X1742360D01*
Y6985041D01*
Y6981677D01*
X1745724D01*
Y6978312D01*
X1749089D01*
Y6974948D01*
X1752453D01*
Y6971584D01*
Y6968219D01*
X1755817D01*
Y6964855D01*
Y6961491D01*
X1759182D01*
Y6958126D01*
X1762546D01*
Y6954762D01*
X1765910D01*
Y6951397D01*
Y6948033D01*
X1769275D01*
Y6944669D01*
X1772639D01*
Y6941304D01*
Y6937940D01*
X1776004D01*
Y6934576D01*
X1779368D01*
Y6931211D01*
Y6927847D01*
X1782732D01*
Y6924482D01*
X1786097D01*
Y6921118D01*
Y6917754D01*
X1876935D01*
Y6921118D01*
Y6924482D01*
X1873570D01*
Y6927847D01*
Y6931211D01*
X1870206D01*
Y6934576D01*
X1866841D01*
Y6937940D01*
Y6941304D01*
X1863477D01*
Y6944669D01*
X1860113D01*
Y6948033D01*
X1856748D01*
Y6951397D01*
Y6954762D01*
X1853384D01*
Y6958126D01*
Y6961491D01*
X1850019D01*
Y6964855D01*
X1846655D01*
Y6968219D01*
X1843291D01*
Y6971584D01*
Y6974948D01*
X1839926D01*
Y6978312D01*
X1836562D01*
Y6981677D01*
Y6985041D01*
X1833198D01*
Y6988405D01*
X1829833D01*
Y6991770D01*
Y6995134D01*
X1826469D01*
Y6998499D01*
X1823105D01*
Y7001863D01*
Y7005227D01*
X1819740D01*
Y7008592D01*
X1816376D01*
Y7011956D01*
X1813012D01*
Y7015320D01*
Y7018685D01*
X1809647D01*
Y7022049D01*
X1806283D01*
Y7025413D01*
Y7028778D01*
X1802918D01*
Y7032142D01*
X1799554D01*
Y7035507D01*
Y7038871D01*
X1796190D01*
Y7042235D01*
X1792825D01*
Y7045600D01*
Y7048964D01*
X1789461D01*
Y7052328D01*
X1786097D01*
Y7055693D01*
Y7059057D01*
X1782732D01*
Y7062421D01*
X1779368D01*
Y7065786D01*
Y7069150D01*
X1776004D01*
Y7072515D01*
X1772639D01*
Y7075879D01*
Y7079243D01*
X1769275D01*
Y7082608D01*
X1765910D01*
Y7085972D01*
X1762546D01*
Y7089336D01*
Y7092701D01*
X1752453D01*
Y7089336D01*
Y7085972D01*
X1749089D01*
Y7082608D01*
X1745724D01*
Y7079243D01*
Y7075879D01*
X1742360D01*
Y7072515D01*
X1738996D01*
Y7069150D01*
Y7065786D01*
X1735631D01*
Y7062421D01*
X1732267D01*
Y7065786D01*
Y7069150D01*
X1728902D01*
Y7072515D01*
Y7075879D01*
X1725538D01*
Y7079243D01*
X1722174D01*
Y7082608D01*
X1718809D01*
Y7085972D01*
Y7089336D01*
X1715445D01*
Y7092701D01*
X1712081D01*
Y7096065D01*
Y7099430D01*
X1715445D01*
Y7102794D01*
X1718809D01*
Y7106158D01*
Y7109523D01*
X1722174D01*
Y7112887D01*
X1725538D01*
Y7116251D01*
Y7119616D01*
X1728902D01*
Y7122980D01*
X1732267D01*
Y7126344D01*
Y7129709D01*
X1735631D01*
Y7133073D01*
X1738996D01*
Y7136438D01*
Y7139802D01*
X1742360D01*
Y7143166D01*
Y7146531D01*
X1745724D01*
Y7149895D01*
X1749089D01*
Y7153259D01*
Y7156624D01*
X1752453D01*
Y7159988D01*
X1755817D01*
Y7163352D01*
Y7166717D01*
X1762546D01*
Y7163352D01*
D02*
G37*
G36*
X1597692Y6803365D02*
Y6800001D01*
X1601056D01*
Y6796637D01*
Y6793272D01*
X1604421D01*
Y6789908D01*
X1607785D01*
Y6786543D01*
X1611150D01*
Y6783179D01*
X1614514D01*
Y6779815D01*
Y6776451D01*
X1617878D01*
Y6773086D01*
Y6769722D01*
X1621243D01*
Y6766357D01*
X1624607D01*
Y6762993D01*
X1627971D01*
Y6759629D01*
Y6756264D01*
X1631336D01*
Y6752900D01*
X1634700D01*
Y6749535D01*
Y6746171D01*
X1638065D01*
Y6742807D01*
X1641429D01*
Y6739442D01*
X1644793D01*
Y6736078D01*
Y6732714D01*
X1648158D01*
Y6729349D01*
X1651522D01*
Y6725985D01*
Y6722621D01*
X1654886D01*
Y6719256D01*
X1658251D01*
Y6715892D01*
Y6712528D01*
X1661615D01*
Y6709163D01*
X1664979D01*
Y6705799D01*
Y6702434D01*
X1661615D01*
Y6699070D01*
Y6695706D01*
X1658251D01*
Y6692341D01*
X1654886D01*
Y6688977D01*
X1651522D01*
Y6685612D01*
Y6682248D01*
X1648158D01*
Y6678884D01*
X1644793D01*
Y6675520D01*
Y6672155D01*
X1641429D01*
Y6675520D01*
X1638065D01*
Y6678884D01*
Y6682248D01*
X1634700D01*
Y6685612D01*
X1631336D01*
Y6688977D01*
Y6692341D01*
X1627971D01*
Y6695706D01*
X1624607D01*
Y6699070D01*
X1621243D01*
Y6702434D01*
Y6705799D01*
X1617878D01*
Y6709163D01*
X1614514D01*
Y6712528D01*
Y6715892D01*
X1611150D01*
Y6719256D01*
X1607785D01*
Y6722621D01*
Y6725985D01*
X1604421D01*
Y6729349D01*
X1601056D01*
Y6732714D01*
X1597692D01*
Y6736078D01*
Y6739442D01*
X1594328D01*
Y6742807D01*
X1590963D01*
Y6746171D01*
Y6749535D01*
X1587599D01*
Y6752900D01*
X1584235D01*
Y6756264D01*
Y6759629D01*
X1580870D01*
Y6762993D01*
X1577506D01*
Y6766357D01*
X1574142D01*
Y6769722D01*
Y6773086D01*
X1483304D01*
Y6769722D01*
Y6766357D01*
Y6762993D01*
X1486668D01*
Y6759629D01*
X1490032D01*
Y6756264D01*
X1493397D01*
Y6752900D01*
Y6749535D01*
X1496761D01*
Y6746171D01*
X1500126D01*
Y6742807D01*
Y6739442D01*
X1503490D01*
Y6736078D01*
X1506854D01*
Y6732714D01*
X1510219D01*
Y6729349D01*
Y6725985D01*
X1513583D01*
Y6722621D01*
X1516947D01*
Y6719256D01*
Y6715892D01*
X1520312D01*
Y6712528D01*
X1523676D01*
Y6709163D01*
Y6705799D01*
X1527040D01*
Y6702434D01*
X1530405D01*
Y6699070D01*
X1533769D01*
Y6695706D01*
Y6692341D01*
X1537134D01*
Y6688977D01*
X1540498D01*
Y6685612D01*
Y6682248D01*
X1543862D01*
Y6678884D01*
X1547227D01*
Y6675520D01*
Y6672155D01*
X1550591D01*
Y6668791D01*
X1553955D01*
Y6665426D01*
X1557320D01*
Y6662062D01*
Y6658698D01*
X1560684D01*
Y6655333D01*
X1564048D01*
Y6651969D01*
Y6648604D01*
X1567413D01*
Y6645240D01*
X1570777D01*
Y6641876D01*
Y6638511D01*
X1574142D01*
Y6635147D01*
X1577506D01*
Y6631783D01*
X1580870D01*
Y6628419D01*
Y6625054D01*
X1584235D01*
Y6621690D01*
X1587599D01*
Y6618325D01*
Y6614961D01*
X1590963D01*
Y6611597D01*
X1594328D01*
Y6608232D01*
X1597692D01*
Y6604868D01*
Y6601503D01*
X1601056D01*
Y6598139D01*
Y6594775D01*
X1604421D01*
Y6591410D01*
X1607785D01*
Y6588046D01*
X1611150D01*
Y6584682D01*
Y6581317D01*
X1614514D01*
Y6577953D01*
X1617878D01*
Y6574589D01*
X1624607D01*
Y6577953D01*
X1627971D01*
Y6581317D01*
Y6584682D01*
X1631336D01*
Y6588046D01*
Y6591410D01*
X1634700D01*
Y6594775D01*
X1638065D01*
Y6598139D01*
X1641429D01*
Y6601503D01*
Y6604868D01*
X1644793D01*
Y6608232D01*
Y6611597D01*
X1648158D01*
Y6614961D01*
X1651522D01*
Y6618325D01*
X1654886D01*
Y6621690D01*
Y6625054D01*
X1658251D01*
Y6628419D01*
X1661615D01*
Y6631783D01*
Y6635147D01*
X1664979D01*
Y6638511D01*
X1668344D01*
Y6641876D01*
Y6645240D01*
X1671708D01*
Y6648604D01*
X1675073D01*
Y6651969D01*
Y6655333D01*
X1678437D01*
Y6658698D01*
X1681801D01*
Y6662062D01*
Y6665426D01*
X1685166D01*
Y6668791D01*
X1688530D01*
Y6672155D01*
Y6675520D01*
X1691894D01*
Y6678884D01*
X1695259D01*
Y6682248D01*
Y6685612D01*
X1698623D01*
Y6688977D01*
X1701987D01*
Y6692341D01*
X1705352D01*
Y6695706D01*
Y6699070D01*
X1708716D01*
Y6702434D01*
Y6705799D01*
X1712081D01*
Y6709163D01*
X1715445D01*
Y6712528D01*
X1718809D01*
Y6715892D01*
Y6719256D01*
X1722174D01*
Y6722621D01*
X1725538D01*
Y6725985D01*
Y6729349D01*
X1728902D01*
Y6732714D01*
X1732267D01*
Y6736078D01*
Y6739442D01*
X1735631D01*
Y6742807D01*
Y6746171D01*
X1738996D01*
Y6749535D01*
X1742360D01*
Y6752900D01*
X1745724D01*
Y6756264D01*
Y6759629D01*
X1749089D01*
Y6762993D01*
X1752453D01*
Y6766357D01*
Y6769722D01*
X1755817D01*
Y6773086D01*
X1759182D01*
Y6776451D01*
Y6779815D01*
X1762546D01*
Y6783179D01*
X1765910D01*
Y6786543D01*
X1950950D01*
Y6783179D01*
X1947586D01*
Y6779815D01*
Y6776451D01*
X1944222D01*
Y6773086D01*
X1940857D01*
Y6769722D01*
Y6766357D01*
X1937493D01*
Y6762993D01*
X1934129D01*
Y6759629D01*
Y6756264D01*
X1930764D01*
Y6752900D01*
X1927400D01*
Y6749535D01*
Y6746171D01*
X1924036D01*
Y6742807D01*
X1920671D01*
Y6739442D01*
X1917307D01*
Y6736078D01*
Y6732714D01*
X1913943D01*
Y6729349D01*
Y6725985D01*
X1910578D01*
Y6722621D01*
X1907214D01*
Y6719256D01*
Y6715892D01*
X1903849D01*
Y6712528D01*
X1900485D01*
Y6709163D01*
Y6705799D01*
X1897121D01*
Y6702434D01*
X1893756D01*
Y6699070D01*
X1890392D01*
Y6695706D01*
Y6692341D01*
X1887027D01*
Y6688977D01*
Y6685612D01*
X1883663D01*
Y6682248D01*
X1880299D01*
Y6678884D01*
X1876935D01*
Y6675520D01*
Y6672155D01*
X1873570D01*
Y6668791D01*
Y6665426D01*
X1870206D01*
Y6662062D01*
X1866841D01*
Y6658698D01*
X1863477D01*
Y6655333D01*
Y6651969D01*
X1860113D01*
Y6648604D01*
X1856748D01*
Y6645240D01*
Y6641876D01*
X1853384D01*
Y6638511D01*
X1850019D01*
Y6635147D01*
Y6631783D01*
X1846655D01*
Y6628419D01*
X1843291D01*
Y6625054D01*
Y6621690D01*
X1839926D01*
Y6618325D01*
X1836562D01*
Y6614961D01*
Y6611597D01*
X1833198D01*
Y6608232D01*
X1829833D01*
Y6604868D01*
Y6601503D01*
X1826469D01*
Y6598139D01*
X1823105D01*
Y6594775D01*
Y6591410D01*
X1819740D01*
Y6588046D01*
X1816376D01*
Y6584682D01*
X1813012D01*
Y6581317D01*
Y6577953D01*
X1809647D01*
Y6574589D01*
Y6571224D01*
X1806283D01*
Y6567860D01*
X1802918D01*
Y6564495D01*
X1799554D01*
Y6561131D01*
Y6557767D01*
X1796190D01*
Y6554402D01*
Y6551038D01*
X1792825D01*
Y6547673D01*
X1789461D01*
Y6544309D01*
Y6540945D01*
X1786097D01*
Y6537581D01*
X1782732D01*
Y6534216D01*
Y6530852D01*
X1779368D01*
Y6527487D01*
X1776004D01*
Y6524123D01*
X1772639D01*
Y6520759D01*
Y6517394D01*
X1769275D01*
Y6514030D01*
X1765910D01*
Y6510666D01*
Y6507301D01*
X1762546D01*
Y6503937D01*
Y6500572D01*
X1759182D01*
Y6503937D01*
X1755817D01*
Y6507301D01*
Y6510666D01*
X1752453D01*
Y6514030D01*
X1749089D01*
Y6517394D01*
X1745724D01*
Y6520759D01*
Y6524123D01*
X1742360D01*
Y6527487D01*
Y6530852D01*
X1738996D01*
Y6534216D01*
X1735631D01*
Y6537581D01*
Y6540945D01*
X1732267D01*
Y6544309D01*
X1728902D01*
Y6547673D01*
Y6551038D01*
X1725538D01*
Y6554402D01*
X1722174D01*
Y6557767D01*
Y6561131D01*
X1718809D01*
Y6564495D01*
X1715445D01*
Y6567860D01*
Y6571224D01*
X1712081D01*
Y6574589D01*
X1715445D01*
Y6577953D01*
Y6581317D01*
X1718809D01*
Y6584682D01*
X1722174D01*
Y6588046D01*
X1725538D01*
Y6591410D01*
Y6594775D01*
X1728902D01*
Y6598139D01*
Y6601503D01*
X1732267D01*
Y6604868D01*
X1735631D01*
Y6601503D01*
X1738996D01*
Y6598139D01*
X1742360D01*
Y6594775D01*
Y6591410D01*
X1745724D01*
Y6588046D01*
X1749089D01*
Y6584682D01*
Y6581317D01*
X1752453D01*
Y6577953D01*
X1755817D01*
Y6574589D01*
X1762546D01*
Y6577953D01*
Y6581317D01*
X1765910D01*
Y6584682D01*
Y6588046D01*
X1769275D01*
Y6591410D01*
X1772639D01*
Y6594775D01*
X1776004D01*
Y6598139D01*
Y6601503D01*
X1779368D01*
Y6604868D01*
X1782732D01*
Y6608232D01*
Y6611597D01*
X1786097D01*
Y6614961D01*
X1789461D01*
Y6618325D01*
Y6621690D01*
X1792825D01*
Y6625054D01*
X1796190D01*
Y6628419D01*
Y6631783D01*
X1799554D01*
Y6635147D01*
X1802918D01*
Y6638511D01*
Y6641876D01*
X1806283D01*
Y6645240D01*
X1809647D01*
Y6648604D01*
Y6651969D01*
X1813012D01*
Y6655333D01*
X1816376D01*
Y6658698D01*
X1819740D01*
Y6662062D01*
Y6665426D01*
X1823105D01*
Y6668791D01*
Y6672155D01*
X1826469D01*
Y6675520D01*
X1829833D01*
Y6678884D01*
X1833198D01*
Y6682248D01*
Y6685612D01*
X1836562D01*
Y6688977D01*
Y6692341D01*
X1839926D01*
Y6695706D01*
X1843291D01*
Y6699070D01*
X1846655D01*
Y6702434D01*
Y6705799D01*
X1850019D01*
Y6709163D01*
X1853384D01*
Y6712528D01*
Y6715892D01*
X1856748D01*
Y6719256D01*
X1860113D01*
Y6722621D01*
X1863477D01*
Y6725985D01*
Y6729349D01*
X1866841D01*
Y6732714D01*
Y6736078D01*
X1870206D01*
Y6739442D01*
X1873570D01*
Y6742807D01*
X1876935D01*
Y6746171D01*
Y6749535D01*
Y6752900D01*
X1789461D01*
Y6749535D01*
X1786097D01*
Y6746171D01*
X1782732D01*
Y6742807D01*
Y6739442D01*
X1779368D01*
Y6736078D01*
X1776004D01*
Y6732714D01*
Y6729349D01*
X1772639D01*
Y6725985D01*
X1769275D01*
Y6722621D01*
X1765910D01*
Y6719256D01*
Y6715892D01*
X1762546D01*
Y6712528D01*
X1759182D01*
Y6709163D01*
Y6705799D01*
X1755817D01*
Y6702434D01*
X1752453D01*
Y6699070D01*
Y6695706D01*
X1749089D01*
Y6692341D01*
X1745724D01*
Y6688977D01*
Y6685612D01*
X1742360D01*
Y6682248D01*
X1738996D01*
Y6678884D01*
Y6675520D01*
X1735631D01*
Y6672155D01*
X1732267D01*
Y6668791D01*
Y6665426D01*
X1728902D01*
Y6662062D01*
X1725538D01*
Y6658698D01*
Y6655333D01*
X1722174D01*
Y6651969D01*
X1718809D01*
Y6648604D01*
Y6645240D01*
X1715445D01*
Y6641876D01*
X1712081D01*
Y6638511D01*
Y6635147D01*
X1708716D01*
Y6631783D01*
X1705352D01*
Y6628419D01*
X1701987D01*
Y6625054D01*
Y6621690D01*
X1698623D01*
Y6618325D01*
Y6614961D01*
X1695259D01*
Y6611597D01*
X1691894D01*
Y6608232D01*
Y6604868D01*
X1688530D01*
Y6601503D01*
X1685166D01*
Y6598139D01*
Y6594775D01*
X1681801D01*
Y6591410D01*
X1678437D01*
Y6588046D01*
X1675073D01*
Y6584682D01*
Y6581317D01*
X1671708D01*
Y6577953D01*
Y6574589D01*
X1668344D01*
Y6571224D01*
X1664979D01*
Y6567860D01*
X1661615D01*
Y6564495D01*
Y6561131D01*
X1658251D01*
Y6557767D01*
Y6554402D01*
X1654886D01*
Y6551038D01*
X1651522D01*
Y6547673D01*
X1648158D01*
Y6544309D01*
Y6540945D01*
X1644793D01*
Y6537581D01*
Y6534216D01*
X1641429D01*
Y6530852D01*
X1638065D01*
Y6527487D01*
X1634700D01*
Y6524123D01*
Y6520759D01*
X1631336D01*
Y6517394D01*
X1627971D01*
Y6514030D01*
Y6510666D01*
X1624607D01*
Y6507301D01*
X1621243D01*
Y6503937D01*
Y6500572D01*
X1617878D01*
Y6503937D01*
Y6507301D01*
X1614514D01*
Y6510666D01*
X1611150D01*
Y6514030D01*
X1607785D01*
Y6517394D01*
Y6520759D01*
X1604421D01*
Y6524123D01*
X1601056D01*
Y6527487D01*
Y6530852D01*
X1597692D01*
Y6534216D01*
X1594328D01*
Y6537581D01*
X1590963D01*
Y6540945D01*
Y6544309D01*
X1587599D01*
Y6547673D01*
X1584235D01*
Y6551038D01*
Y6554402D01*
X1580870D01*
Y6557767D01*
X1577506D01*
Y6561131D01*
Y6564495D01*
X1574142D01*
Y6567860D01*
X1570777D01*
Y6571224D01*
Y6574589D01*
X1567413D01*
Y6577953D01*
X1564048D01*
Y6581317D01*
X1560684D01*
Y6584682D01*
Y6588046D01*
X1557320D01*
Y6591410D01*
X1553955D01*
Y6594775D01*
Y6598139D01*
X1550591D01*
Y6601503D01*
X1547227D01*
Y6604868D01*
X1543862D01*
Y6608232D01*
Y6611597D01*
X1540498D01*
Y6614961D01*
X1537134D01*
Y6618325D01*
Y6621690D01*
X1533769D01*
Y6625054D01*
X1530405D01*
Y6628419D01*
Y6631783D01*
X1527040D01*
Y6635147D01*
X1523676D01*
Y6638511D01*
X1520312D01*
Y6641876D01*
Y6645240D01*
X1516947D01*
Y6648604D01*
X1513583D01*
Y6651969D01*
Y6655333D01*
X1510219D01*
Y6658698D01*
X1506854D01*
Y6662062D01*
Y6665426D01*
X1503490D01*
Y6668791D01*
X1500126D01*
Y6672155D01*
X1496761D01*
Y6675520D01*
Y6678884D01*
X1493397D01*
Y6682248D01*
Y6685612D01*
X1490032D01*
Y6688977D01*
X1486668D01*
Y6692341D01*
X1483304D01*
Y6695706D01*
X1479939D01*
Y6699070D01*
Y6702434D01*
X1476575D01*
Y6705799D01*
Y6709163D01*
X1473211D01*
Y6712528D01*
X1469846D01*
Y6715892D01*
X1466482D01*
Y6719256D01*
Y6722621D01*
X1463117D01*
Y6725985D01*
X1459753D01*
Y6729349D01*
Y6732714D01*
X1456389D01*
Y6736078D01*
X1453024D01*
Y6739442D01*
Y6742807D01*
X1449660D01*
Y6746171D01*
X1446296D01*
Y6749535D01*
X1442931D01*
Y6752900D01*
Y6756264D01*
X1439567D01*
Y6759629D01*
X1436203D01*
Y6762993D01*
Y6766357D01*
X1432838D01*
Y6769722D01*
X1429474D01*
Y6773086D01*
X1426109D01*
Y6776451D01*
Y6779815D01*
X1422745D01*
Y6783179D01*
X1419381D01*
Y6786543D01*
Y6789908D01*
X1416016D01*
Y6793272D01*
X1412652D01*
Y6796637D01*
X1409288D01*
Y6800001D01*
Y6803365D01*
X1405923D01*
Y6806730D01*
X1597692D01*
Y6803365D01*
D02*
G37*
G36*
X2681018Y6194415D02*
X2674289D01*
Y6191051D01*
X2670925D01*
Y6187686D01*
X2667560D01*
Y6184322D01*
X2660831D01*
Y6180958D01*
X2657467D01*
Y6177593D01*
X2654103D01*
Y6174229D01*
X2647374D01*
Y6170865D01*
X2644010D01*
Y6167500D01*
X2637281D01*
Y6164136D01*
X2633916D01*
Y6160772D01*
X2630552D01*
Y6157407D01*
X2627188D01*
Y6154043D01*
X2620459D01*
Y6150678D01*
X2617095D01*
Y6147314D01*
X2610366D01*
Y6143950D01*
X2607002D01*
Y6140585D01*
X2603637D01*
Y6137221D01*
X2600273D01*
Y6133857D01*
X2593544D01*
Y6130492D01*
X2590180D01*
Y6127128D01*
X2586816D01*
Y6123763D01*
X2580087D01*
Y6120399D01*
X2576722D01*
Y6117035D01*
X2573358D01*
Y6113671D01*
Y6110306D01*
X2576722D01*
Y6106942D01*
X2580087D01*
Y6103577D01*
X2586816D01*
Y6100213D01*
X2590180D01*
Y6096849D01*
X2596908D01*
Y6093484D01*
X2600273D01*
Y6090120D01*
X2603637D01*
Y6086755D01*
X2610366D01*
Y6083391D01*
X2613730D01*
Y6080027D01*
X2617095D01*
Y6076662D01*
X2623824D01*
Y6073298D01*
X2627188D01*
Y6069934D01*
X2633916D01*
Y6066570D01*
X2637281D01*
Y6063205D01*
X2640645D01*
Y6059841D01*
X2644010D01*
Y6056476D01*
X2650738D01*
Y6053112D01*
X2654103D01*
Y6049748D01*
X2660831D01*
Y6046383D01*
X2664196D01*
Y6043019D01*
X2667560D01*
Y6039654D01*
X2674289D01*
Y6036290D01*
X2677653D01*
Y6032926D01*
X2681018D01*
Y6029561D01*
X2610366D01*
Y6032926D01*
X2607002D01*
Y6036290D01*
X2600273D01*
Y6039654D01*
X2596908D01*
Y6043019D01*
X2590180D01*
Y6046383D01*
X2586816D01*
Y6049748D01*
X2580087D01*
Y6053112D01*
X2576722D01*
Y6056476D01*
X2569994D01*
Y6059841D01*
X2566629D01*
Y6063205D01*
X2563265D01*
Y6066570D01*
X2556536D01*
Y6069934D01*
X2553172D01*
Y6073298D01*
X2546443D01*
Y6076662D01*
X2543079D01*
Y6080027D01*
X2539715D01*
Y6083391D01*
X2529621D01*
Y6080027D01*
Y6076662D01*
Y6073298D01*
Y6069934D01*
Y6066570D01*
Y6063205D01*
Y6059841D01*
Y6056476D01*
Y6053112D01*
Y6049748D01*
Y6046383D01*
Y6043019D01*
Y6039654D01*
Y6036290D01*
Y6032926D01*
Y6029561D01*
X2479156D01*
Y6032926D01*
Y6036290D01*
Y6039654D01*
Y6043019D01*
Y6046383D01*
Y6049748D01*
Y6053112D01*
Y6056476D01*
Y6059841D01*
Y6063205D01*
Y6066570D01*
Y6069934D01*
Y6073298D01*
Y6076662D01*
Y6080027D01*
Y6083391D01*
Y6086755D01*
Y6090120D01*
Y6093484D01*
Y6096849D01*
Y6100213D01*
Y6103577D01*
Y6106942D01*
Y6110306D01*
Y6113671D01*
Y6117035D01*
Y6120399D01*
Y6123763D01*
Y6127128D01*
Y6130492D01*
Y6133857D01*
Y6137221D01*
Y6140585D01*
Y6143950D01*
Y6147314D01*
Y6150678D01*
Y6154043D01*
Y6157407D01*
Y6160772D01*
Y6164136D01*
Y6167500D01*
Y6170865D01*
Y6174229D01*
Y6177593D01*
Y6180958D01*
Y6184322D01*
Y6187686D01*
Y6191051D01*
Y6194415D01*
Y6197780D01*
X2529621D01*
Y6194415D01*
Y6191051D01*
Y6187686D01*
Y6184322D01*
Y6180958D01*
Y6177593D01*
Y6174229D01*
Y6170865D01*
Y6167500D01*
Y6164136D01*
Y6160772D01*
Y6157407D01*
Y6154043D01*
Y6150678D01*
Y6147314D01*
Y6143950D01*
Y6140585D01*
X2532986D01*
Y6143950D01*
X2539715D01*
Y6147314D01*
X2543079D01*
Y6150678D01*
X2546443D01*
Y6154043D01*
X2553172D01*
Y6157407D01*
X2556536D01*
Y6160772D01*
X2563265D01*
Y6164136D01*
X2566629D01*
Y6167500D01*
X2569994D01*
Y6170865D01*
X2576722D01*
Y6174229D01*
X2580087D01*
Y6177593D01*
X2583451D01*
Y6180958D01*
X2586816D01*
Y6184322D01*
X2593544D01*
Y6187686D01*
X2596908D01*
Y6191051D01*
X2603637D01*
Y6194415D01*
X2607002D01*
Y6197780D01*
X2681018D01*
Y6194415D01*
D02*
G37*
G36*
X1560684D02*
Y6191051D01*
Y6187686D01*
Y6184322D01*
Y6180958D01*
Y6177593D01*
Y6174229D01*
Y6170865D01*
Y6167500D01*
Y6164136D01*
Y6160772D01*
Y6157407D01*
Y6154043D01*
Y6150678D01*
Y6147314D01*
Y6143950D01*
Y6140585D01*
Y6137221D01*
Y6133857D01*
Y6130492D01*
Y6127128D01*
Y6123763D01*
Y6120399D01*
Y6117035D01*
Y6113671D01*
Y6110306D01*
Y6106942D01*
Y6103577D01*
Y6100213D01*
Y6096849D01*
Y6093484D01*
Y6090120D01*
Y6086755D01*
Y6083391D01*
Y6080027D01*
Y6076662D01*
Y6073298D01*
Y6069934D01*
Y6066570D01*
Y6063205D01*
Y6059841D01*
Y6056476D01*
Y6053112D01*
Y6049748D01*
Y6046383D01*
Y6043019D01*
Y6039654D01*
Y6036290D01*
Y6032926D01*
Y6029561D01*
X1510219D01*
Y6032926D01*
Y6036290D01*
Y6039654D01*
Y6043019D01*
Y6046383D01*
Y6049748D01*
Y6053112D01*
Y6056476D01*
Y6059841D01*
Y6063205D01*
Y6066570D01*
Y6069934D01*
Y6073298D01*
Y6076662D01*
Y6080027D01*
Y6083391D01*
Y6086755D01*
Y6090120D01*
Y6093484D01*
X1416016D01*
Y6090120D01*
X1412652D01*
Y6086755D01*
Y6083391D01*
Y6080027D01*
Y6076662D01*
Y6073298D01*
Y6069934D01*
Y6066570D01*
Y6063205D01*
Y6059841D01*
Y6056476D01*
Y6053112D01*
Y6049748D01*
Y6046383D01*
Y6043019D01*
Y6039654D01*
Y6036290D01*
Y6032926D01*
X1416016D01*
Y6029561D01*
X1362187D01*
Y6032926D01*
Y6036290D01*
Y6039654D01*
Y6043019D01*
Y6046383D01*
Y6049748D01*
Y6053112D01*
Y6056476D01*
Y6059841D01*
Y6063205D01*
Y6066570D01*
Y6069934D01*
Y6073298D01*
Y6076662D01*
Y6080027D01*
Y6083391D01*
Y6086755D01*
Y6090120D01*
Y6093484D01*
Y6096849D01*
Y6100213D01*
Y6103577D01*
Y6106942D01*
Y6110306D01*
Y6113671D01*
Y6117035D01*
Y6120399D01*
Y6123763D01*
Y6127128D01*
Y6130492D01*
Y6133857D01*
Y6137221D01*
Y6140585D01*
Y6143950D01*
Y6147314D01*
Y6150678D01*
Y6154043D01*
Y6157407D01*
Y6160772D01*
Y6164136D01*
Y6167500D01*
Y6170865D01*
Y6174229D01*
Y6177593D01*
Y6180958D01*
Y6184322D01*
Y6187686D01*
Y6191051D01*
Y6194415D01*
Y6197780D01*
X1416016D01*
Y6194415D01*
X1412652D01*
Y6191051D01*
Y6187686D01*
Y6184322D01*
Y6180958D01*
Y6177593D01*
Y6174229D01*
Y6170865D01*
Y6167500D01*
Y6164136D01*
Y6160772D01*
Y6157407D01*
Y6154043D01*
Y6150678D01*
Y6147314D01*
Y6143950D01*
Y6140585D01*
Y6137221D01*
X1510219D01*
Y6140585D01*
Y6143950D01*
Y6147314D01*
Y6150678D01*
Y6154043D01*
Y6157407D01*
Y6160772D01*
Y6164136D01*
Y6167500D01*
Y6170865D01*
Y6174229D01*
Y6177593D01*
Y6180958D01*
Y6184322D01*
Y6187686D01*
Y6191051D01*
Y6194415D01*
Y6197780D01*
X1560684D01*
Y6194415D01*
D02*
G37*
G36*
X1140138D02*
Y6191051D01*
X1136774D01*
Y6187686D01*
X1133410D01*
Y6184322D01*
X1130045D01*
Y6180958D01*
X1126681D01*
Y6177593D01*
X1123317D01*
Y6174229D01*
X1119952D01*
Y6170865D01*
Y6167500D01*
X1116588D01*
Y6164136D01*
X1113224D01*
Y6160772D01*
X1109859D01*
Y6157407D01*
X1106495D01*
Y6154043D01*
X1103130D01*
Y6150678D01*
X1099766D01*
Y6147314D01*
Y6143950D01*
X1096402D01*
Y6140585D01*
X1093037D01*
Y6137221D01*
X1089673D01*
Y6133857D01*
X1086309D01*
Y6130492D01*
X1082944D01*
Y6127128D01*
X1079580D01*
Y6123763D01*
Y6120399D01*
X1076216D01*
Y6117035D01*
X1072851D01*
Y6113671D01*
X1069487D01*
Y6110306D01*
X1066122D01*
Y6106942D01*
X1062758D01*
Y6103577D01*
X1059394D01*
Y6100213D01*
Y6096849D01*
X1056029D01*
Y6093484D01*
X1052665D01*
Y6090120D01*
X1049301D01*
Y6086755D01*
Y6083391D01*
Y6080027D01*
Y6076662D01*
Y6073298D01*
Y6069934D01*
Y6066570D01*
Y6063205D01*
Y6059841D01*
Y6056476D01*
Y6053112D01*
Y6049748D01*
Y6046383D01*
Y6043019D01*
Y6039654D01*
Y6036290D01*
Y6032926D01*
Y6029561D01*
X995471D01*
Y6032926D01*
Y6036290D01*
Y6039654D01*
Y6043019D01*
Y6046383D01*
Y6049748D01*
Y6053112D01*
Y6056476D01*
Y6059841D01*
Y6063205D01*
Y6066570D01*
Y6069934D01*
Y6073298D01*
Y6076662D01*
Y6080027D01*
Y6083391D01*
Y6086755D01*
Y6090120D01*
X992106D01*
Y6093484D01*
X988742D01*
Y6096849D01*
X985378D01*
Y6100213D01*
X982013D01*
Y6103577D01*
X978649D01*
Y6106942D01*
Y6110306D01*
X975285D01*
Y6113671D01*
X971920D01*
Y6117035D01*
X968556D01*
Y6120399D01*
X965191D01*
Y6123763D01*
X961827D01*
Y6127128D01*
Y6130492D01*
X955098D01*
Y6133857D01*
X951734D01*
Y6137221D01*
Y6140585D01*
X948370D01*
Y6143950D01*
X945005D01*
Y6147314D01*
X941641D01*
Y6150678D01*
X938277D01*
Y6154043D01*
X934912D01*
Y6157407D01*
Y6160772D01*
X928183D01*
Y6164136D01*
X924819D01*
Y6167500D01*
Y6170865D01*
X921455D01*
Y6174229D01*
X918090D01*
Y6177593D01*
X914726D01*
Y6180958D01*
X911362D01*
Y6184322D01*
X907997D01*
Y6187686D01*
X904633D01*
Y6191051D01*
X901268D01*
Y6194415D01*
X897904D01*
Y6197780D01*
X965191D01*
Y6194415D01*
X968556D01*
Y6191051D01*
X971920D01*
Y6187686D01*
X975285D01*
Y6184322D01*
X978649D01*
Y6180958D01*
X982013D01*
Y6177593D01*
X985378D01*
Y6174229D01*
Y6170865D01*
X988742D01*
Y6167500D01*
X992106D01*
Y6164136D01*
X995471D01*
Y6160772D01*
X998835D01*
Y6157407D01*
X1002199D01*
Y6154043D01*
Y6150678D01*
X1008928D01*
Y6147314D01*
X1012293D01*
Y6143950D01*
Y6140585D01*
X1015657D01*
Y6137221D01*
X1019021D01*
Y6133857D01*
X1025750D01*
Y6137221D01*
X1029114D01*
Y6140585D01*
X1032479D01*
Y6143950D01*
X1035843D01*
Y6147314D01*
Y6150678D01*
X1039207D01*
Y6154043D01*
X1042572D01*
Y6157407D01*
X1045936D01*
Y6160772D01*
X1049301D01*
Y6164136D01*
X1052665D01*
Y6167500D01*
X1056029D01*
Y6170865D01*
Y6174229D01*
X1062758D01*
Y6177593D01*
Y6180958D01*
X1066122D01*
Y6184322D01*
X1069487D01*
Y6187686D01*
X1072851D01*
Y6191051D01*
X1076216D01*
Y6194415D01*
Y6197780D01*
X1140138D01*
Y6194415D01*
D02*
G37*
G36*
X2162906D02*
X2176363D01*
Y6191051D01*
X2186456D01*
Y6187686D01*
X2193185D01*
Y6184322D01*
X2196549D01*
Y6180958D01*
X2203278D01*
Y6177593D01*
X2206642D01*
Y6174229D01*
X2210007D01*
Y6170865D01*
X2213371D01*
Y6167500D01*
X2216735D01*
Y6164136D01*
Y6160772D01*
X2220100D01*
Y6157407D01*
Y6154043D01*
X2223464D01*
Y6150678D01*
X2226828D01*
Y6147314D01*
Y6143950D01*
Y6140585D01*
Y6137221D01*
X2230193D01*
Y6133857D01*
Y6130492D01*
Y6127128D01*
X2233557D01*
Y6123763D01*
Y6120399D01*
Y6117035D01*
Y6113671D01*
Y6110306D01*
Y6106942D01*
Y6103577D01*
Y6100213D01*
X2230193D01*
Y6096849D01*
Y6093484D01*
Y6090120D01*
Y6086755D01*
X2226828D01*
Y6083391D01*
Y6080027D01*
Y6076662D01*
X2223464D01*
Y6073298D01*
X2220100D01*
Y6069934D01*
Y6066570D01*
X2216735D01*
Y6063205D01*
Y6059841D01*
X2213371D01*
Y6056476D01*
X2210007D01*
Y6053112D01*
X2206642D01*
Y6049748D01*
X2203278D01*
Y6046383D01*
X2196549D01*
Y6043019D01*
X2193185D01*
Y6039654D01*
X2186456D01*
Y6036290D01*
X2176363D01*
Y6032926D01*
X2166270D01*
Y6029561D01*
X2048517D01*
Y6032926D01*
X2038424D01*
Y6036290D01*
X2028331D01*
Y6039654D01*
X2021602D01*
Y6043019D01*
X2014873D01*
Y6046383D01*
X2011509D01*
Y6049748D01*
X2008145D01*
Y6053112D01*
X2004780D01*
Y6056476D01*
X2001416D01*
Y6059841D01*
X1998052D01*
Y6063205D01*
X1994687D01*
Y6066570D01*
Y6069934D01*
X1991323D01*
Y6073298D01*
Y6076662D01*
X1987958D01*
Y6080027D01*
Y6083391D01*
Y6086755D01*
X1984594D01*
Y6090120D01*
Y6093484D01*
Y6096849D01*
Y6100213D01*
X1981230D01*
Y6103577D01*
X1984594D01*
Y6106942D01*
Y6110306D01*
X1981230D01*
Y6113671D01*
Y6117035D01*
X1984594D01*
Y6120399D01*
Y6123763D01*
X1981230D01*
Y6127128D01*
X1984594D01*
Y6130492D01*
Y6133857D01*
Y6137221D01*
Y6140585D01*
X1987958D01*
Y6143950D01*
Y6147314D01*
Y6150678D01*
X1991323D01*
Y6154043D01*
Y6157407D01*
X1994687D01*
Y6160772D01*
X1998052D01*
Y6164136D01*
Y6167500D01*
X2001416D01*
Y6170865D01*
X2004780D01*
Y6174229D01*
X2008145D01*
Y6177593D01*
X2011509D01*
Y6180958D01*
X2018238D01*
Y6184322D01*
X2021602D01*
Y6187686D01*
X2028331D01*
Y6191051D01*
X2038424D01*
Y6194415D01*
X2051881D01*
Y6197780D01*
X2162906D01*
Y6194415D01*
D02*
G37*
G36*
X1920671D02*
X1930764D01*
Y6191051D01*
X1937493D01*
Y6187686D01*
X1944222D01*
Y6184322D01*
X1947586D01*
Y6180958D01*
X1950950D01*
Y6177593D01*
X1954315D01*
Y6174229D01*
X1957679D01*
Y6170865D01*
Y6167500D01*
X1961044D01*
Y6164136D01*
X1964408D01*
Y6160772D01*
Y6157407D01*
Y6154043D01*
Y6150678D01*
X1967772D01*
Y6147314D01*
Y6143950D01*
Y6140585D01*
Y6137221D01*
Y6133857D01*
Y6130492D01*
Y6127128D01*
Y6123763D01*
Y6120399D01*
Y6117035D01*
X1964408D01*
Y6113671D01*
Y6110306D01*
Y6106942D01*
X1961044D01*
Y6103577D01*
Y6100213D01*
X1957679D01*
Y6096849D01*
X1954315D01*
Y6093484D01*
X1950950D01*
Y6090120D01*
X1947586D01*
Y6086755D01*
X1944222D01*
Y6083391D01*
X1940857D01*
Y6080027D01*
X1937493D01*
Y6076662D01*
X1940857D01*
Y6073298D01*
X1944222D01*
Y6069934D01*
X1947586D01*
Y6066570D01*
X1950950D01*
Y6063205D01*
X1954315D01*
Y6059841D01*
X1957679D01*
Y6056476D01*
X1961044D01*
Y6053112D01*
X1964408D01*
Y6049748D01*
X1967772D01*
Y6046383D01*
X1971137D01*
Y6043019D01*
X1974501D01*
Y6039654D01*
X1977865D01*
Y6036290D01*
Y6032926D01*
X1981230D01*
Y6029561D01*
X1907214D01*
Y6032926D01*
X1903849D01*
Y6036290D01*
X1900485D01*
Y6039654D01*
X1897121D01*
Y6043019D01*
Y6046383D01*
X1893756D01*
Y6049748D01*
X1890392D01*
Y6053112D01*
X1887027D01*
Y6056476D01*
X1883663D01*
Y6059841D01*
X1880299D01*
Y6063205D01*
X1876935D01*
Y6066570D01*
Y6069934D01*
X1873570D01*
Y6073298D01*
X1802918D01*
Y6069934D01*
Y6066570D01*
Y6063205D01*
Y6059841D01*
Y6056476D01*
Y6053112D01*
Y6049748D01*
Y6046383D01*
Y6043019D01*
Y6039654D01*
Y6036290D01*
Y6032926D01*
Y6029561D01*
X1752453D01*
Y6032926D01*
Y6036290D01*
Y6039654D01*
Y6043019D01*
Y6046383D01*
Y6049748D01*
Y6053112D01*
Y6056476D01*
Y6059841D01*
Y6063205D01*
Y6066570D01*
Y6069934D01*
Y6073298D01*
Y6076662D01*
Y6080027D01*
Y6083391D01*
Y6086755D01*
Y6090120D01*
Y6093484D01*
Y6096849D01*
Y6100213D01*
Y6103577D01*
Y6106942D01*
Y6110306D01*
Y6113671D01*
X1903849D01*
Y6117035D01*
X1907214D01*
Y6120399D01*
X1913943D01*
Y6123763D01*
Y6127128D01*
X1917307D01*
Y6130492D01*
Y6133857D01*
Y6137221D01*
Y6140585D01*
Y6143950D01*
X1913943D01*
Y6147314D01*
X1910578D01*
Y6150678D01*
X1907214D01*
Y6154043D01*
X1752453D01*
Y6157407D01*
X1755817D01*
Y6160772D01*
X1759182D01*
Y6164136D01*
Y6167500D01*
X1762546D01*
Y6170865D01*
X1765910D01*
Y6174229D01*
X1769275D01*
Y6177593D01*
Y6180958D01*
X1772639D01*
Y6184322D01*
X1776004D01*
Y6187686D01*
Y6191051D01*
X1779368D01*
Y6194415D01*
X1782732D01*
Y6197780D01*
X1920671D01*
Y6194415D01*
D02*
G37*
G36*
X1749089D02*
X1745724D01*
Y6191051D01*
Y6187686D01*
X1742360D01*
Y6184322D01*
X1738996D01*
Y6180958D01*
Y6177593D01*
X1735631D01*
Y6174229D01*
X1732267D01*
Y6170865D01*
Y6167500D01*
X1728902D01*
Y6164136D01*
X1725538D01*
Y6160772D01*
Y6157407D01*
X1634700D01*
Y6154043D01*
Y6150678D01*
Y6147314D01*
Y6143950D01*
Y6140585D01*
Y6137221D01*
Y6133857D01*
X1712081D01*
Y6130492D01*
X1708716D01*
Y6127128D01*
Y6123763D01*
X1705352D01*
Y6120399D01*
X1701987D01*
Y6117035D01*
Y6113671D01*
X1698623D01*
Y6110306D01*
X1695259D01*
Y6106942D01*
Y6103577D01*
X1691894D01*
Y6100213D01*
X1688530D01*
Y6096849D01*
Y6093484D01*
X1638065D01*
Y6090120D01*
X1634700D01*
Y6086755D01*
Y6083391D01*
Y6080027D01*
Y6076662D01*
Y6073298D01*
Y6069934D01*
X1732267D01*
Y6066570D01*
Y6063205D01*
Y6059841D01*
Y6056476D01*
Y6053112D01*
Y6049748D01*
Y6046383D01*
Y6043019D01*
Y6039654D01*
Y6036290D01*
Y6032926D01*
Y6029561D01*
X1584235D01*
Y6032926D01*
Y6036290D01*
Y6039654D01*
Y6043019D01*
Y6046383D01*
Y6049748D01*
Y6053112D01*
Y6056476D01*
Y6059841D01*
Y6063205D01*
Y6066570D01*
Y6069934D01*
Y6073298D01*
Y6076662D01*
Y6080027D01*
Y6083391D01*
Y6086755D01*
Y6090120D01*
Y6093484D01*
Y6096849D01*
Y6100213D01*
Y6103577D01*
Y6106942D01*
Y6110306D01*
Y6113671D01*
Y6117035D01*
Y6120399D01*
Y6123763D01*
Y6127128D01*
Y6130492D01*
Y6133857D01*
Y6137221D01*
Y6140585D01*
Y6143950D01*
Y6147314D01*
Y6150678D01*
Y6154043D01*
Y6157407D01*
Y6160772D01*
Y6164136D01*
Y6167500D01*
Y6170865D01*
Y6174229D01*
Y6177593D01*
Y6180958D01*
Y6184322D01*
Y6187686D01*
Y6191051D01*
Y6194415D01*
Y6197780D01*
X1749089D01*
Y6194415D01*
D02*
G37*
G36*
X1294899D02*
X1304992D01*
Y6191051D01*
X1311721D01*
Y6187686D01*
X1318450D01*
Y6184322D01*
X1321814D01*
Y6180958D01*
X1325178D01*
Y6177593D01*
X1328543D01*
Y6174229D01*
X1331907D01*
Y6170865D01*
X1335272D01*
Y6167500D01*
Y6164136D01*
Y6160772D01*
X1338636D01*
Y6157407D01*
Y6154043D01*
X1342000D01*
Y6150678D01*
Y6147314D01*
Y6143950D01*
Y6140585D01*
Y6137221D01*
Y6133857D01*
Y6130492D01*
Y6127128D01*
Y6123763D01*
Y6120399D01*
Y6117035D01*
X1338636D01*
Y6113671D01*
Y6110306D01*
Y6106942D01*
X1335272D01*
Y6103577D01*
Y6100213D01*
X1331907D01*
Y6096849D01*
X1328543D01*
Y6093484D01*
X1325178D01*
Y6090120D01*
X1321814D01*
Y6086755D01*
X1318450D01*
Y6083391D01*
X1315086D01*
Y6080027D01*
X1308357D01*
Y6076662D01*
X1298264D01*
Y6073298D01*
X1177146D01*
Y6069934D01*
Y6066570D01*
Y6063205D01*
Y6059841D01*
Y6056476D01*
Y6053112D01*
Y6049748D01*
Y6046383D01*
Y6043019D01*
Y6039654D01*
Y6036290D01*
Y6032926D01*
Y6029561D01*
X1126681D01*
Y6032926D01*
Y6036290D01*
Y6039654D01*
Y6043019D01*
Y6046383D01*
Y6049748D01*
Y6053112D01*
Y6056476D01*
Y6059841D01*
Y6063205D01*
Y6066570D01*
Y6069934D01*
Y6073298D01*
Y6076662D01*
Y6080027D01*
Y6083391D01*
Y6086755D01*
Y6090120D01*
Y6093484D01*
Y6096849D01*
Y6100213D01*
Y6103577D01*
Y6106942D01*
Y6110306D01*
Y6113671D01*
X1278077D01*
Y6117035D01*
X1281442D01*
Y6120399D01*
X1288170D01*
Y6123763D01*
Y6127128D01*
X1291535D01*
Y6130492D01*
Y6133857D01*
Y6137221D01*
Y6140585D01*
Y6143950D01*
X1288170D01*
Y6147314D01*
X1284806D01*
Y6150678D01*
X1281442D01*
Y6154043D01*
X1126681D01*
Y6157407D01*
X1130045D01*
Y6160772D01*
X1133410D01*
Y6164136D01*
X1136774D01*
Y6167500D01*
X1140138D01*
Y6170865D01*
Y6174229D01*
X1143503D01*
Y6177593D01*
X1146867D01*
Y6180958D01*
X1150232D01*
Y6184322D01*
X1153596D01*
Y6187686D01*
X1156960D01*
Y6191051D01*
Y6194415D01*
X1160325D01*
Y6197780D01*
X1294899D01*
Y6194415D01*
D02*
G37*
G36*
X2458970D02*
X2455605D01*
Y6191051D01*
X2452241D01*
Y6187686D01*
X2448876D01*
Y6184322D01*
Y6180958D01*
X2445512D01*
Y6177593D01*
Y6174229D01*
X2442148D01*
Y6170865D01*
X2438784D01*
Y6167500D01*
X2435419D01*
Y6164136D01*
Y6160772D01*
X2432055D01*
Y6157407D01*
X2428690D01*
Y6154043D01*
X2327759D01*
Y6150678D01*
X2317666D01*
Y6147314D01*
X2314302D01*
Y6143950D01*
X2307573D01*
Y6140585D01*
Y6137221D01*
X2304209D01*
Y6133857D01*
X2300845D01*
Y6130492D01*
Y6127128D01*
X2297480D01*
Y6123763D01*
Y6120399D01*
Y6117035D01*
Y6113671D01*
Y6110306D01*
Y6106942D01*
Y6103577D01*
Y6100213D01*
Y6096849D01*
X2300845D01*
Y6093484D01*
Y6090120D01*
X2304209D01*
Y6086755D01*
X2307573D01*
Y6083391D01*
X2310938D01*
Y6080027D01*
X2314302D01*
Y6076662D01*
X2321031D01*
Y6073298D01*
X2327759D01*
Y6069934D01*
X2455605D01*
Y6066570D01*
X2452241D01*
Y6063205D01*
Y6059841D01*
X2448876D01*
Y6056476D01*
X2445512D01*
Y6053112D01*
Y6049748D01*
X2442148D01*
Y6046383D01*
X2438784D01*
Y6043019D01*
X2435419D01*
Y6039654D01*
Y6036290D01*
X2432055D01*
Y6032926D01*
Y6029561D01*
X2428690D01*
Y6026197D01*
X2324395D01*
Y6029561D01*
X2310938D01*
Y6032926D01*
X2300845D01*
Y6036290D01*
X2290751D01*
Y6039654D01*
X2287387D01*
Y6043019D01*
X2280658D01*
Y6046383D01*
X2277294D01*
Y6049748D01*
X2273930D01*
Y6053112D01*
X2270565D01*
Y6056476D01*
X2267201D01*
Y6059841D01*
X2263836D01*
Y6063205D01*
Y6066570D01*
X2260472D01*
Y6069934D01*
X2257108D01*
Y6073298D01*
Y6076662D01*
X2253743D01*
Y6080027D01*
Y6083391D01*
Y6086755D01*
Y6090120D01*
X2250379D01*
Y6093484D01*
Y6096849D01*
Y6100213D01*
X2247015D01*
Y6103577D01*
Y6106942D01*
Y6110306D01*
Y6113671D01*
Y6117035D01*
Y6120399D01*
Y6123763D01*
X2250379D01*
Y6127128D01*
Y6130492D01*
Y6133857D01*
Y6137221D01*
X2253743D01*
Y6140585D01*
Y6143950D01*
Y6147314D01*
Y6150678D01*
X2257108D01*
Y6154043D01*
X2260472D01*
Y6157407D01*
Y6160772D01*
X2263836D01*
Y6164136D01*
X2267201D01*
Y6167500D01*
Y6170865D01*
X2270565D01*
Y6174229D01*
X2273930D01*
Y6177593D01*
X2280658D01*
Y6180958D01*
X2284023D01*
Y6184322D01*
X2287387D01*
Y6187686D01*
X2294116D01*
Y6191051D01*
X2304209D01*
Y6194415D01*
X2317666D01*
Y6197780D01*
X2458970D01*
Y6194415D01*
D02*
G37*
G36*
X877718D02*
X874354D01*
Y6191051D01*
X870989D01*
Y6187686D01*
Y6184322D01*
X867625D01*
Y6180958D01*
Y6177593D01*
X864260D01*
Y6174229D01*
X860896D01*
Y6170865D01*
X857532D01*
Y6167500D01*
Y6164136D01*
X854167D01*
Y6160772D01*
Y6157407D01*
X850803D01*
Y6154043D01*
X746508D01*
Y6150678D01*
X739779D01*
Y6147314D01*
X733050D01*
Y6143950D01*
X729686D01*
Y6140585D01*
X726321D01*
Y6137221D01*
X722957D01*
Y6133857D01*
Y6130492D01*
X719593D01*
Y6127128D01*
Y6123763D01*
Y6120399D01*
Y6117035D01*
X716228D01*
Y6113671D01*
Y6110306D01*
Y6106942D01*
X719593D01*
Y6103577D01*
Y6100213D01*
Y6096849D01*
Y6093484D01*
X722957D01*
Y6090120D01*
Y6086755D01*
X726321D01*
Y6083391D01*
X729686D01*
Y6080027D01*
X736415D01*
Y6076662D01*
X739779D01*
Y6073298D01*
X749872D01*
Y6069934D01*
X874354D01*
Y6066570D01*
Y6063205D01*
X870989D01*
Y6059841D01*
X867625D01*
Y6056476D01*
Y6053112D01*
X864260D01*
Y6049748D01*
X860896D01*
Y6046383D01*
Y6043019D01*
X857532D01*
Y6039654D01*
X854167D01*
Y6036290D01*
Y6032926D01*
X850803D01*
Y6029561D01*
X847439D01*
Y6026197D01*
X743143D01*
Y6029561D01*
X729686D01*
Y6032926D01*
X719593D01*
Y6036290D01*
X712864D01*
Y6039654D01*
X706135D01*
Y6043019D01*
X702771D01*
Y6046383D01*
X696042D01*
Y6049748D01*
X692678D01*
Y6053112D01*
X689314D01*
Y6056476D01*
X685949D01*
Y6059841D01*
Y6063205D01*
X682585D01*
Y6066570D01*
X679220D01*
Y6069934D01*
Y6073298D01*
X675856D01*
Y6076662D01*
Y6080027D01*
X672492D01*
Y6083391D01*
Y6086755D01*
Y6090120D01*
X669127D01*
Y6093484D01*
Y6096849D01*
Y6100213D01*
Y6103577D01*
Y6106942D01*
X665763D01*
Y6110306D01*
Y6113671D01*
Y6117035D01*
Y6120399D01*
X669127D01*
Y6123763D01*
Y6127128D01*
Y6130492D01*
Y6133857D01*
X672492D01*
Y6137221D01*
Y6140585D01*
Y6143950D01*
X675856D01*
Y6147314D01*
Y6150678D01*
Y6154043D01*
X679220D01*
Y6157407D01*
X682585D01*
Y6160772D01*
Y6164136D01*
X685949D01*
Y6167500D01*
X689314D01*
Y6170865D01*
X692678D01*
Y6174229D01*
X696042D01*
Y6177593D01*
X699407D01*
Y6180958D01*
X702771D01*
Y6184322D01*
X709500D01*
Y6187686D01*
X712864D01*
Y6191051D01*
X726321D01*
Y6194415D01*
X736415D01*
Y6197780D01*
X877718D01*
Y6194415D01*
D02*
G37*
%LPC*%
G36*
X2149448Y6154043D02*
X2065339D01*
Y6150678D01*
X2058610D01*
Y6147314D01*
X2051881D01*
Y6143950D01*
X2048517D01*
Y6140585D01*
X2045153D01*
Y6137221D01*
X2041788D01*
Y6133857D01*
Y6130492D01*
X2038424D01*
Y6127128D01*
Y6123763D01*
X2035060D01*
Y6120399D01*
Y6117035D01*
Y6113671D01*
Y6110306D01*
Y6106942D01*
Y6103577D01*
Y6100213D01*
X2038424D01*
Y6096849D01*
Y6093484D01*
X2041788D01*
Y6090120D01*
X2045153D01*
Y6086755D01*
X2048517D01*
Y6083391D01*
X2051881D01*
Y6080027D01*
X2055246D01*
Y6076662D01*
X2061975D01*
Y6073298D01*
X2152812D01*
Y6076662D01*
X2159541D01*
Y6080027D01*
X2162906D01*
Y6083391D01*
X2169634D01*
Y6086755D01*
Y6090120D01*
X2172999D01*
Y6093484D01*
X2176363D01*
Y6096849D01*
Y6100213D01*
Y6103577D01*
X2179727D01*
Y6106942D01*
Y6110306D01*
Y6113671D01*
Y6117035D01*
Y6120399D01*
Y6123763D01*
X2176363D01*
Y6127128D01*
Y6130492D01*
Y6133857D01*
X2172999D01*
Y6137221D01*
X2169634D01*
Y6140585D01*
X2166270D01*
Y6143950D01*
X2162906D01*
Y6147314D01*
X2156177D01*
Y6150678D01*
X2149448D01*
Y6154043D01*
D02*
G37*
%LPD*%
D20*
X1118600Y1489400D02*
G03*
X1118600Y1489400I-10000J0D01*
G01*
X1403800Y3752600D02*
G03*
X1403800Y3752600I-10000J0D01*
G01*
X1843500Y2680900D02*
G03*
X1843500Y2680900I-10000J0D01*
G01*
X1990700Y1489400D02*
G03*
X1990700Y1489400I-10000J0D01*
G01*
D21*
X516200Y1436600D02*
X906200D01*
X516200Y1941600D02*
X906200D01*
X1483300Y3812600D02*
X1793300D01*
X1483300Y3502600D02*
X1793300D01*
X1437500Y2635900D02*
X1737500D01*
X1437500Y2875900D02*
X1737500D01*
X1388300Y1436600D02*
X1778300D01*
X1388300Y1941600D02*
X1778300D01*
D22*
X457249Y2514600D02*
X609600D01*
Y2590775D01*
X584208Y2616167D01*
X558817D01*
X533425Y2590775D01*
Y2514600D01*
Y2590775D01*
X508033Y2616167D01*
X482641D01*
X457249Y2590775D01*
Y2514600D01*
X508033Y2692343D02*
Y2743126D01*
X533425Y2768518D01*
X609600D01*
Y2692343D01*
X584208Y2666951D01*
X558817Y2692343D01*
Y2768518D01*
X508033Y2920869D02*
Y2844693D01*
X533425Y2819301D01*
X584208D01*
X609600Y2844693D01*
Y2920869D01*
Y2971652D02*
X457249D01*
X558817D02*
X508033Y3047828D01*
X558817Y2971652D02*
X609600Y3047828D01*
Y3124003D02*
Y3200178D01*
X584208Y3225570D01*
X558817Y3200178D01*
Y3149395D01*
X533425Y3124003D01*
X508033Y3149395D01*
Y3225570D01*
X609600Y3276354D02*
Y3327137D01*
Y3301745D01*
X508033D01*
Y3276354D01*
X457249Y3504880D02*
X609600D01*
Y3428704D01*
X584208Y3403312D01*
X533425D01*
X508033Y3428704D01*
Y3504880D01*
X609600Y3631839D02*
Y3581055D01*
X584208Y3555663D01*
X533425D01*
X508033Y3581055D01*
Y3631839D01*
X533425Y3657230D01*
X558817D01*
Y3555663D01*
X2489249Y1435067D02*
Y1333500D01*
X2565425D01*
Y1384283D01*
Y1333500D01*
X2641600D01*
X2540033Y1485851D02*
X2641600D01*
X2590817D01*
X2565425Y1511243D01*
X2540033Y1536634D01*
Y1562026D01*
X2641600Y1663593D02*
Y1714377D01*
X2616208Y1739769D01*
X2565425D01*
X2540033Y1714377D01*
Y1663593D01*
X2565425Y1638201D01*
X2616208D01*
X2641600Y1663593D01*
Y1790552D02*
X2540033D01*
Y1866728D01*
X2565425Y1892119D01*
X2641600D01*
X2514641Y1968295D02*
X2540033D01*
Y1942903D01*
Y1993686D01*
Y1968295D01*
X2616208D01*
X2641600Y1993686D01*
Y2069862D02*
Y2146037D01*
X2616208Y2171429D01*
X2590817Y2146037D01*
Y2095254D01*
X2565425Y2069862D01*
X2540033Y2095254D01*
Y2171429D01*
X2641600Y2222212D02*
Y2272996D01*
Y2247604D01*
X2540033D01*
Y2222212D01*
X2489249Y2450739D02*
X2641600D01*
Y2374563D01*
X2616208Y2349171D01*
X2565425D01*
X2540033Y2374563D01*
Y2450739D01*
X2641600Y2577697D02*
Y2526914D01*
X2616208Y2501522D01*
X2565425D01*
X2540033Y2526914D01*
Y2577697D01*
X2565425Y2603089D01*
X2590817D01*
Y2501522D01*
X368300Y2189431D02*
Y2062472D01*
X393692Y2037080D01*
X444475D01*
X469867Y2062472D01*
Y2189431D01*
X596826Y2037080D02*
Y2189431D01*
X520651Y2113255D01*
X622218D01*
X1399540Y4069031D02*
Y3942072D01*
X1424932Y3916680D01*
X1475715D01*
X1501107Y3942072D01*
Y4069031D01*
X1551891Y4043639D02*
X1577283Y4069031D01*
X1628066D01*
X1653458Y4043639D01*
Y4018247D01*
X1628066Y3992855D01*
X1602674D01*
X1628066D01*
X1653458Y3967463D01*
Y3942072D01*
X1628066Y3916680D01*
X1577283D01*
X1551891Y3942072D01*
X1399540Y3111451D02*
Y2984492D01*
X1424932Y2959100D01*
X1475715D01*
X1501107Y2984492D01*
Y3111451D01*
X1653458Y2959100D02*
X1551891D01*
X1653458Y3060667D01*
Y3086059D01*
X1628066Y3111451D01*
X1577283D01*
X1551891Y3086059D01*
X1239520Y2189431D02*
Y2062472D01*
X1264912Y2037080D01*
X1315695D01*
X1341087Y2062472D01*
Y2189431D01*
X1391871Y2037080D02*
X1442654D01*
X1417263D01*
Y2189431D01*
X1391871Y2164039D01*
%TF.MD5,fb7ce4c735d9d0161d5de8dabdca5535*%
M02*
