%TF.GenerationSoftware,Altium Limited,Altium Designer,23.4.1 (23)*%
G04 Layer_Color=32896*
%FSLAX45Y45*%
%MOMM*%
%TF.SameCoordinates,B91EE142-B30E-402A-A340-A1283DCE037E*%
%TF.FilePolarity,Positive*%
%TF.FileFunction,Legend,Bot*%
%TF.Part,Single*%
G01*
G75*
%TA.AperFunction,NonConductor*%
%ADD20C,0.20000*%
%ADD22C,0.25400*%
D20*
X300500Y8238000D02*
G03*
X300500Y8238000I-10000J0D01*
G01*
Y508000D02*
G03*
X300500Y508000I-10000J0D01*
G01*
X355500Y8117350D02*
X2946500D01*
X355500Y8612650D02*
X2946500D01*
X355500Y8117350D02*
Y8612650D01*
X2946500Y8117350D02*
Y8612650D01*
X355500Y387350D02*
X2946500D01*
X355500Y882650D02*
X2946500D01*
X355500Y387350D02*
Y882650D01*
X2946500Y387350D02*
Y882650D01*
D22*
X1752592Y8877275D02*
X1803375D01*
X1777983D01*
Y8750317D01*
X1803375Y8724925D01*
X1828767D01*
X1854159Y8750317D01*
X1600241Y8724925D02*
X1701808D01*
X1600241Y8826492D01*
Y8851883D01*
X1625633Y8877275D01*
X1676416D01*
X1701808Y8851883D01*
X1549400Y1168375D02*
X1600183D01*
X1574792D01*
Y1041417D01*
X1600183Y1016025D01*
X1625575D01*
X1650967Y1041417D01*
X1498616Y1016025D02*
X1447833D01*
X1473224D01*
Y1168375D01*
X1498616Y1142983D01*
%TF.MD5,5afdf0ff8566126237fed289504101f6*%
M02*
