%TF.GenerationSoftware,Altium Limited,Altium Designer,23.4.1 (23)*%
G04 Layer_Color=65535*
%FSLAX45Y45*%
%MOMM*%
%TF.SameCoordinates,37F79050-5382-499E-8BED-BD4E09E40BF1*%
%TF.FilePolarity,Positive*%
%TF.FileFunction,Legend,Top*%
%TF.Part,Single*%
G01*
G75*
%TA.AperFunction,NonConductor*%
%ADD25C,0.40000*%
%ADD26C,0.20000*%
%ADD27C,0.12700*%
%ADD28C,0.25400*%
G36*
X1762759Y6152486D02*
X1766124D01*
Y6149121D01*
Y6145757D01*
X1769488D01*
Y6142392D01*
Y6139028D01*
X1772852D01*
Y6135664D01*
X1776217D01*
Y6132299D01*
X1779581D01*
Y6128935D01*
Y6125571D01*
X1782945D01*
Y6122206D01*
X1786310D01*
Y6118842D01*
Y6115477D01*
X1789674D01*
Y6112113D01*
X1793039D01*
Y6108749D01*
Y6105384D01*
X1796403D01*
Y6102020D01*
Y6098656D01*
X1799767D01*
Y6095291D01*
X1803132D01*
Y6091927D01*
X1806496D01*
Y6088563D01*
Y6085198D01*
X1809860D01*
Y6081834D01*
X1813225D01*
Y6078469D01*
Y6075105D01*
X1816589D01*
Y6071741D01*
X1819953D01*
Y6068376D01*
Y6065012D01*
X1823318D01*
Y6061648D01*
X1826682D01*
Y6058283D01*
X1830047D01*
Y6054919D01*
Y6051555D01*
X1833411D01*
Y6048190D01*
Y6044826D01*
X1836775D01*
Y6041461D01*
X1840140D01*
Y6038097D01*
Y6034733D01*
X1843504D01*
Y6031368D01*
X1846869D01*
Y6028004D01*
Y6024640D01*
X1850233D01*
Y6021275D01*
X1853597D01*
Y6017911D01*
Y6014547D01*
X1856961D01*
Y6011182D01*
X1860326D01*
Y6007818D01*
Y6004453D01*
X1863690D01*
Y6001089D01*
X1867055D01*
Y5997725D01*
X1870419D01*
Y5994360D01*
Y5990996D01*
X1873783D01*
Y5987632D01*
X1877148D01*
Y5984267D01*
Y5980903D01*
X1880512D01*
Y5977538D01*
X1883876D01*
Y5974174D01*
Y5970810D01*
X1887241D01*
Y5967445D01*
X1890605D01*
Y5964081D01*
Y5960717D01*
X1893970D01*
Y5957352D01*
X1897334D01*
Y5953988D01*
Y5950624D01*
X1900698D01*
Y5947259D01*
X1904063D01*
Y5943895D01*
Y5940530D01*
X1907427D01*
Y5937166D01*
X1910791D01*
Y5933802D01*
Y5930437D01*
X1914156D01*
Y5927073D01*
X1917520D01*
Y5923709D01*
Y5920344D01*
X1920884D01*
Y5916980D01*
X1924249D01*
Y5913616D01*
Y5910251D01*
X1927613D01*
Y5906887D01*
X1930978D01*
Y5903522D01*
Y5900158D01*
X1934342D01*
Y5896794D01*
X1937706D01*
Y5893429D01*
X1941071D01*
Y5890065D01*
Y5886701D01*
X1944435D01*
Y5883336D01*
X1947800D01*
Y5879972D01*
Y5876608D01*
X1951164D01*
Y5873243D01*
X1766124D01*
Y5876608D01*
X1762759D01*
Y5879972D01*
X1759395D01*
Y5883336D01*
Y5886701D01*
X1756031D01*
Y5890065D01*
X1752666D01*
Y5893429D01*
X1749302D01*
Y5896794D01*
Y5900158D01*
X1745938D01*
Y5903522D01*
X1742573D01*
Y5906887D01*
Y5910251D01*
X1739209D01*
Y5913616D01*
X1735844D01*
Y5916980D01*
Y5920344D01*
X1732480D01*
Y5923709D01*
X1729116D01*
Y5927073D01*
Y5930437D01*
X1725751D01*
Y5933802D01*
X1722387D01*
Y5937166D01*
Y5940530D01*
X1719022D01*
Y5943895D01*
X1715658D01*
Y5947259D01*
Y5950624D01*
X1712294D01*
Y5953988D01*
X1708930D01*
Y5957352D01*
Y5960717D01*
X1705565D01*
Y5964081D01*
X1702201D01*
Y5967445D01*
Y5970810D01*
X1698837D01*
Y5974174D01*
X1695472D01*
Y5977538D01*
X1692108D01*
Y5980903D01*
Y5984267D01*
X1688743D01*
Y5987632D01*
X1685379D01*
Y5990996D01*
Y5994360D01*
X1682015D01*
Y5997725D01*
X1678650D01*
Y6001089D01*
Y6004453D01*
X1675286D01*
Y6007818D01*
X1671921D01*
Y6011182D01*
Y6014547D01*
X1668557D01*
Y6017911D01*
X1665193D01*
Y6021275D01*
Y6024640D01*
X1661829D01*
Y6028004D01*
X1658464D01*
Y6031368D01*
Y6034733D01*
X1655100D01*
Y6038097D01*
X1651735D01*
Y6041461D01*
Y6044826D01*
X1648371D01*
Y6048190D01*
X1645007D01*
Y6051555D01*
Y6054919D01*
X1641642D01*
Y6058283D01*
X1638278D01*
Y6061648D01*
Y6065012D01*
X1634913D01*
Y6068376D01*
X1631549D01*
Y6071741D01*
Y6075105D01*
X1628185D01*
Y6078469D01*
X1624820D01*
Y6081834D01*
Y6085198D01*
X1618092D01*
Y6081834D01*
X1614727D01*
Y6078469D01*
Y6075105D01*
X1611363D01*
Y6071741D01*
X1607999D01*
Y6068376D01*
Y6065012D01*
X1604634D01*
Y6061648D01*
X1601270D01*
Y6058283D01*
X1597906D01*
Y6054919D01*
Y6051555D01*
X1594541D01*
Y6048190D01*
X1591177D01*
Y6044826D01*
Y6041461D01*
X1587812D01*
Y6038097D01*
X1584448D01*
Y6034733D01*
X1581084D01*
Y6031368D01*
Y6028004D01*
X1577719D01*
Y6024640D01*
X1574355D01*
Y6021275D01*
Y6017911D01*
X1570991D01*
Y6014547D01*
X1567626D01*
Y6011182D01*
Y6007818D01*
X1564262D01*
Y6004453D01*
X1560898D01*
Y6001089D01*
X1557533D01*
Y5997725D01*
Y5994360D01*
X1554169D01*
Y5990996D01*
Y5987632D01*
X1550804D01*
Y5984267D01*
X1547440D01*
Y5980903D01*
X1544076D01*
Y5977538D01*
Y5974174D01*
X1540711D01*
Y5970810D01*
X1537347D01*
Y5967445D01*
Y5964081D01*
X1533983D01*
Y5960717D01*
X1530618D01*
Y5957352D01*
X1527254D01*
Y5953988D01*
Y5950624D01*
X1523890D01*
Y5947259D01*
X1520525D01*
Y5943895D01*
Y5940530D01*
X1517161D01*
Y5937166D01*
X1513796D01*
Y5933802D01*
Y5930437D01*
X1510432D01*
Y5927073D01*
X1507068D01*
Y5923709D01*
X1503703D01*
Y5920344D01*
Y5916980D01*
X1500339D01*
Y5913616D01*
X1496975D01*
Y5910251D01*
Y5906887D01*
X1493610D01*
Y5903522D01*
X1490246D01*
Y5900158D01*
X1486881D01*
Y5896794D01*
Y5893429D01*
X1483517D01*
Y5890065D01*
Y5886701D01*
X1564262D01*
Y5883336D01*
X1570991D01*
Y5886701D01*
X1574355D01*
Y5890065D01*
X1577719D01*
Y5893429D01*
X1581084D01*
Y5896794D01*
Y5900158D01*
X1584448D01*
Y5903522D01*
Y5906887D01*
X1587812D01*
Y5910251D01*
X1591177D01*
Y5913616D01*
X1594541D01*
Y5916980D01*
Y5920344D01*
X1597906D01*
Y5923709D01*
X1601270D01*
Y5927073D01*
Y5930437D01*
X1604634D01*
Y5933802D01*
X1607999D01*
Y5937166D01*
Y5940530D01*
X1611363D01*
Y5943895D01*
X1614727D01*
Y5947259D01*
X1618092D01*
Y5950624D01*
Y5953988D01*
X1621456D01*
Y5957352D01*
X1624820D01*
Y5960717D01*
Y5964081D01*
X1628185D01*
Y5967445D01*
X1631549D01*
Y5970810D01*
X1634913D01*
Y5974174D01*
Y5977538D01*
X1638278D01*
Y5980903D01*
X1641642D01*
Y5984267D01*
Y5987632D01*
X1645007D01*
Y5984267D01*
Y5980903D01*
X1648371D01*
Y5977538D01*
Y5974174D01*
X1651735D01*
Y5970810D01*
X1655100D01*
Y5967445D01*
X1658464D01*
Y5964081D01*
Y5960717D01*
X1661829D01*
Y5957352D01*
X1665193D01*
Y5953988D01*
Y5950624D01*
Y5947259D01*
X1661829D01*
Y5943895D01*
X1658464D01*
Y5940530D01*
X1655100D01*
Y5937166D01*
Y5933802D01*
X1651735D01*
Y5930437D01*
X1648371D01*
Y5927073D01*
Y5923709D01*
X1645007D01*
Y5920344D01*
X1641642D01*
Y5916980D01*
X1638278D01*
Y5913616D01*
Y5910251D01*
X1634913D01*
Y5906887D01*
X1631549D01*
Y5903522D01*
Y5900158D01*
X1628185D01*
Y5896794D01*
X1624820D01*
Y5893429D01*
Y5890065D01*
X1621456D01*
Y5886701D01*
X1618092D01*
Y5883336D01*
X1614727D01*
Y5879972D01*
Y5876608D01*
X1611363D01*
Y5873243D01*
X1607999D01*
Y5869879D01*
Y5866515D01*
X1604634D01*
Y5863150D01*
X1601270D01*
Y5859786D01*
X1597906D01*
Y5856421D01*
Y5853057D01*
X1594541D01*
Y5849693D01*
X1402772D01*
Y5853057D01*
X1406137D01*
Y5856421D01*
X1409501D01*
Y5859786D01*
X1412865D01*
Y5863150D01*
X1416230D01*
Y5866515D01*
Y5869879D01*
X1419594D01*
Y5873243D01*
X1422959D01*
Y5876608D01*
Y5879972D01*
X1426323D01*
Y5883336D01*
X1429687D01*
Y5886701D01*
Y5890065D01*
X1433052D01*
Y5893429D01*
X1436416D01*
Y5896794D01*
Y5900158D01*
X1439780D01*
Y5903522D01*
X1443145D01*
Y5906887D01*
X1446509D01*
Y5910251D01*
Y5913616D01*
X1449873D01*
Y5916980D01*
X1453238D01*
Y5920344D01*
Y5923709D01*
X1456602D01*
Y5927073D01*
X1459967D01*
Y5930437D01*
X1463331D01*
Y5933802D01*
Y5937166D01*
X1466695D01*
Y5940530D01*
X1470060D01*
Y5943895D01*
Y5947259D01*
X1473424D01*
Y5950624D01*
X1476788D01*
Y5953988D01*
Y5957352D01*
X1480153D01*
Y5960717D01*
X1483517D01*
Y5964081D01*
X1486881D01*
Y5967445D01*
Y5970810D01*
X1490246D01*
Y5974174D01*
X1493610D01*
Y5977538D01*
Y5980903D01*
X1496975D01*
Y5984267D01*
X1500339D01*
Y5987632D01*
X1503703D01*
Y5990996D01*
Y5994360D01*
X1507068D01*
Y5997725D01*
X1510432D01*
Y6001089D01*
Y6004453D01*
X1513796D01*
Y6007818D01*
X1517161D01*
Y6011182D01*
X1520525D01*
Y6014547D01*
Y6017911D01*
X1523890D01*
Y6021275D01*
X1527254D01*
Y6024640D01*
Y6028004D01*
X1530618D01*
Y6031368D01*
X1533983D01*
Y6034733D01*
Y6038097D01*
X1537347D01*
Y6041461D01*
X1540711D01*
Y6044826D01*
Y6048190D01*
X1544076D01*
Y6051555D01*
X1547440D01*
Y6054919D01*
Y6058283D01*
X1550804D01*
Y6061648D01*
X1554169D01*
Y6065012D01*
X1557533D01*
Y6068376D01*
Y6071741D01*
X1560898D01*
Y6075105D01*
X1564262D01*
Y6078469D01*
Y6081834D01*
X1567626D01*
Y6085198D01*
X1570991D01*
Y6088563D01*
Y6091927D01*
X1574355D01*
Y6095291D01*
X1577719D01*
Y6098656D01*
X1581084D01*
Y6102020D01*
Y6105384D01*
X1584448D01*
Y6108749D01*
X1587812D01*
Y6112113D01*
Y6115477D01*
X1591177D01*
Y6118842D01*
X1594541D01*
Y6122206D01*
X1597906D01*
Y6125571D01*
Y6128935D01*
X1601270D01*
Y6132299D01*
X1604634D01*
Y6135664D01*
Y6139028D01*
X1607999D01*
Y6142392D01*
X1611363D01*
Y6145757D01*
X1614727D01*
Y6149121D01*
Y6152486D01*
X1618092D01*
Y6155850D01*
X1621456D01*
Y6152486D01*
X1624820D01*
Y6149121D01*
Y6145757D01*
X1628185D01*
Y6142392D01*
X1631549D01*
Y6139028D01*
Y6135664D01*
X1634913D01*
Y6132299D01*
X1638278D01*
Y6128935D01*
Y6125571D01*
X1641642D01*
Y6122206D01*
X1645007D01*
Y6118842D01*
Y6115477D01*
X1648371D01*
Y6112113D01*
X1651735D01*
Y6108749D01*
X1655100D01*
Y6105384D01*
Y6102020D01*
X1658464D01*
Y6098656D01*
X1661829D01*
Y6095291D01*
Y6091927D01*
X1665193D01*
Y6088563D01*
X1668557D01*
Y6085198D01*
Y6081834D01*
X1671921D01*
Y6078469D01*
X1675286D01*
Y6075105D01*
Y6071741D01*
X1678650D01*
Y6068376D01*
Y6065012D01*
X1682015D01*
Y6061648D01*
X1685379D01*
Y6058283D01*
X1688743D01*
Y6054919D01*
Y6051555D01*
X1692108D01*
Y6048190D01*
X1695472D01*
Y6044826D01*
Y6041461D01*
X1698837D01*
Y6038097D01*
X1702201D01*
Y6034733D01*
Y6031368D01*
X1705565D01*
Y6028004D01*
X1708930D01*
Y6024640D01*
Y6021275D01*
X1712294D01*
Y6017911D01*
X1715658D01*
Y6014547D01*
Y6011182D01*
X1719022D01*
Y6007818D01*
X1722387D01*
Y6004453D01*
Y6001089D01*
X1725751D01*
Y5997725D01*
X1729116D01*
Y5994360D01*
X1732480D01*
Y5990996D01*
Y5987632D01*
X1735844D01*
Y5984267D01*
X1739209D01*
Y5980903D01*
Y5977538D01*
X1742573D01*
Y5974174D01*
Y5970810D01*
X1745938D01*
Y5967445D01*
X1749302D01*
Y5964081D01*
X1752666D01*
Y5960717D01*
Y5957352D01*
X1756031D01*
Y5953988D01*
Y5950624D01*
X1759395D01*
Y5947259D01*
X1762759D01*
Y5943895D01*
X1766124D01*
Y5940530D01*
Y5937166D01*
X1769488D01*
Y5933802D01*
X1772852D01*
Y5930437D01*
Y5927073D01*
X1776217D01*
Y5923709D01*
X1779581D01*
Y5920344D01*
Y5916980D01*
X1782945D01*
Y5913616D01*
X1786310D01*
Y5910251D01*
Y5906887D01*
X1877148D01*
Y5910251D01*
Y5913616D01*
X1873783D01*
Y5916980D01*
Y5920344D01*
X1870419D01*
Y5923709D01*
X1867055D01*
Y5927073D01*
Y5930437D01*
X1863690D01*
Y5933802D01*
X1860326D01*
Y5937166D01*
X1856961D01*
Y5940530D01*
Y5943895D01*
X1853597D01*
Y5947259D01*
Y5950624D01*
X1850233D01*
Y5953988D01*
X1846869D01*
Y5957352D01*
X1843504D01*
Y5960717D01*
Y5964081D01*
X1840140D01*
Y5967445D01*
X1836775D01*
Y5970810D01*
Y5974174D01*
X1833411D01*
Y5977538D01*
X1830047D01*
Y5980903D01*
Y5984267D01*
X1826682D01*
Y5987632D01*
X1823318D01*
Y5990996D01*
Y5994360D01*
X1819953D01*
Y5997725D01*
X1816589D01*
Y6001089D01*
X1813225D01*
Y6004453D01*
Y6007818D01*
X1809860D01*
Y6011182D01*
X1806496D01*
Y6014547D01*
Y6017911D01*
X1803132D01*
Y6021275D01*
X1799767D01*
Y6024640D01*
Y6028004D01*
X1796403D01*
Y6031368D01*
X1793039D01*
Y6034733D01*
Y6038097D01*
X1789674D01*
Y6041461D01*
X1786310D01*
Y6044826D01*
Y6048190D01*
X1782945D01*
Y6051555D01*
X1779581D01*
Y6054919D01*
Y6058283D01*
X1776217D01*
Y6061648D01*
X1772852D01*
Y6065012D01*
Y6068376D01*
X1769488D01*
Y6071741D01*
X1766124D01*
Y6075105D01*
X1762759D01*
Y6078469D01*
Y6081834D01*
X1752666D01*
Y6078469D01*
Y6075105D01*
X1749302D01*
Y6071741D01*
X1745938D01*
Y6068376D01*
Y6065012D01*
X1742573D01*
Y6061648D01*
X1739209D01*
Y6058283D01*
Y6054919D01*
X1735844D01*
Y6051555D01*
X1732480D01*
Y6054919D01*
Y6058283D01*
X1729116D01*
Y6061648D01*
Y6065012D01*
X1725751D01*
Y6068376D01*
X1722387D01*
Y6071741D01*
X1719022D01*
Y6075105D01*
Y6078469D01*
X1715658D01*
Y6081834D01*
X1712294D01*
Y6085198D01*
Y6088563D01*
X1715658D01*
Y6091927D01*
X1719022D01*
Y6095291D01*
Y6098656D01*
X1722387D01*
Y6102020D01*
X1725751D01*
Y6105384D01*
Y6108749D01*
X1729116D01*
Y6112113D01*
X1732480D01*
Y6115477D01*
Y6118842D01*
X1735844D01*
Y6122206D01*
X1739209D01*
Y6125571D01*
Y6128935D01*
X1742573D01*
Y6132299D01*
Y6135664D01*
X1745938D01*
Y6139028D01*
X1749302D01*
Y6142392D01*
Y6145757D01*
X1752666D01*
Y6149121D01*
X1756031D01*
Y6152486D01*
Y6155850D01*
X1762759D01*
Y6152486D01*
D02*
G37*
G36*
X1597906Y5792498D02*
Y5789134D01*
X1601270D01*
Y5785770D01*
Y5782406D01*
X1604634D01*
Y5779041D01*
X1607999D01*
Y5775677D01*
X1611363D01*
Y5772312D01*
X1614727D01*
Y5768948D01*
Y5765584D01*
X1618092D01*
Y5762219D01*
Y5758855D01*
X1621456D01*
Y5755490D01*
X1624820D01*
Y5752126D01*
X1628185D01*
Y5748762D01*
Y5745397D01*
X1631549D01*
Y5742033D01*
X1634913D01*
Y5738668D01*
Y5735304D01*
X1638278D01*
Y5731940D01*
X1641642D01*
Y5728576D01*
X1645007D01*
Y5725211D01*
Y5721847D01*
X1648371D01*
Y5718482D01*
X1651735D01*
Y5715118D01*
Y5711754D01*
X1655100D01*
Y5708389D01*
X1658464D01*
Y5705025D01*
Y5701661D01*
X1661829D01*
Y5698296D01*
X1665193D01*
Y5694932D01*
Y5691567D01*
X1661829D01*
Y5688203D01*
Y5684839D01*
X1658464D01*
Y5681475D01*
X1655100D01*
Y5678110D01*
X1651735D01*
Y5674746D01*
Y5671381D01*
X1648371D01*
Y5668017D01*
X1645007D01*
Y5664653D01*
Y5661288D01*
X1641642D01*
Y5664653D01*
X1638278D01*
Y5668017D01*
Y5671381D01*
X1634913D01*
Y5674746D01*
X1631549D01*
Y5678110D01*
Y5681475D01*
X1628185D01*
Y5684839D01*
X1624820D01*
Y5688203D01*
X1621456D01*
Y5691567D01*
Y5694932D01*
X1618092D01*
Y5698296D01*
X1614727D01*
Y5701661D01*
Y5705025D01*
X1611363D01*
Y5708389D01*
X1607999D01*
Y5711754D01*
Y5715118D01*
X1604634D01*
Y5718482D01*
X1601270D01*
Y5721847D01*
X1597906D01*
Y5725211D01*
Y5728576D01*
X1594541D01*
Y5731940D01*
X1591177D01*
Y5735304D01*
Y5738668D01*
X1587812D01*
Y5742033D01*
X1584448D01*
Y5745397D01*
Y5748762D01*
X1581084D01*
Y5752126D01*
X1577719D01*
Y5755490D01*
X1574355D01*
Y5758855D01*
Y5762219D01*
X1483517D01*
Y5758855D01*
Y5755490D01*
Y5752126D01*
X1486881D01*
Y5748762D01*
X1490246D01*
Y5745397D01*
X1493610D01*
Y5742033D01*
Y5738668D01*
X1496975D01*
Y5735304D01*
X1500339D01*
Y5731940D01*
Y5728576D01*
X1503703D01*
Y5725211D01*
X1507068D01*
Y5721847D01*
X1510432D01*
Y5718482D01*
Y5715118D01*
X1513796D01*
Y5711754D01*
X1517161D01*
Y5708389D01*
Y5705025D01*
X1520525D01*
Y5701661D01*
X1523890D01*
Y5698296D01*
Y5694932D01*
X1527254D01*
Y5691567D01*
X1530618D01*
Y5688203D01*
X1533983D01*
Y5684839D01*
Y5681475D01*
X1537347D01*
Y5678110D01*
X1540711D01*
Y5674746D01*
Y5671381D01*
X1544076D01*
Y5668017D01*
X1547440D01*
Y5664653D01*
Y5661288D01*
X1550804D01*
Y5657924D01*
X1554169D01*
Y5654559D01*
X1557533D01*
Y5651195D01*
Y5647831D01*
X1560898D01*
Y5644466D01*
X1564262D01*
Y5641102D01*
Y5637738D01*
X1567626D01*
Y5634373D01*
X1570991D01*
Y5631009D01*
Y5627645D01*
X1574355D01*
Y5624280D01*
X1577719D01*
Y5620916D01*
X1581084D01*
Y5617552D01*
Y5614187D01*
X1584448D01*
Y5610823D01*
X1587812D01*
Y5607458D01*
Y5604094D01*
X1591177D01*
Y5600730D01*
X1594541D01*
Y5597365D01*
X1597906D01*
Y5594001D01*
Y5590637D01*
X1601270D01*
Y5587272D01*
Y5583908D01*
X1604634D01*
Y5580544D01*
X1607999D01*
Y5577179D01*
X1611363D01*
Y5573815D01*
Y5570450D01*
X1614727D01*
Y5567086D01*
X1618092D01*
Y5563722D01*
X1624820D01*
Y5567086D01*
X1628185D01*
Y5570450D01*
Y5573815D01*
X1631549D01*
Y5577179D01*
Y5580544D01*
X1634913D01*
Y5583908D01*
X1638278D01*
Y5587272D01*
X1641642D01*
Y5590637D01*
Y5594001D01*
X1645007D01*
Y5597365D01*
Y5600730D01*
X1648371D01*
Y5604094D01*
X1651735D01*
Y5607458D01*
X1655100D01*
Y5610823D01*
Y5614187D01*
X1658464D01*
Y5617552D01*
X1661829D01*
Y5620916D01*
Y5624280D01*
X1665193D01*
Y5627645D01*
X1668557D01*
Y5631009D01*
Y5634373D01*
X1671921D01*
Y5637738D01*
X1675286D01*
Y5641102D01*
Y5644466D01*
X1678650D01*
Y5647831D01*
X1682015D01*
Y5651195D01*
Y5654559D01*
X1685379D01*
Y5657924D01*
X1688743D01*
Y5661288D01*
Y5664653D01*
X1692108D01*
Y5668017D01*
X1695472D01*
Y5671381D01*
Y5674746D01*
X1698837D01*
Y5678110D01*
X1702201D01*
Y5681475D01*
X1705565D01*
Y5684839D01*
Y5688203D01*
X1708930D01*
Y5691567D01*
Y5694932D01*
X1712294D01*
Y5698296D01*
X1715658D01*
Y5701661D01*
X1719022D01*
Y5705025D01*
Y5708389D01*
X1722387D01*
Y5711754D01*
X1725751D01*
Y5715118D01*
Y5718482D01*
X1729116D01*
Y5721847D01*
X1732480D01*
Y5725211D01*
Y5728576D01*
X1735844D01*
Y5731940D01*
Y5735304D01*
X1739209D01*
Y5738668D01*
X1742573D01*
Y5742033D01*
X1745938D01*
Y5745397D01*
Y5748762D01*
X1749302D01*
Y5752126D01*
X1752666D01*
Y5755490D01*
Y5758855D01*
X1756031D01*
Y5762219D01*
X1759395D01*
Y5765584D01*
Y5768948D01*
X1762759D01*
Y5772312D01*
X1766124D01*
Y5775677D01*
X1951164D01*
Y5772312D01*
X1947800D01*
Y5768948D01*
Y5765584D01*
X1944435D01*
Y5762219D01*
X1941071D01*
Y5758855D01*
Y5755490D01*
X1937706D01*
Y5752126D01*
X1934342D01*
Y5748762D01*
Y5745397D01*
X1930978D01*
Y5742033D01*
X1927613D01*
Y5738668D01*
Y5735304D01*
X1924249D01*
Y5731940D01*
X1920884D01*
Y5728576D01*
X1917520D01*
Y5725211D01*
Y5721847D01*
X1914156D01*
Y5718482D01*
Y5715118D01*
X1910791D01*
Y5711754D01*
X1907427D01*
Y5708389D01*
Y5705025D01*
X1904063D01*
Y5701661D01*
X1900698D01*
Y5698296D01*
Y5694932D01*
X1897334D01*
Y5691567D01*
X1893970D01*
Y5688203D01*
X1890605D01*
Y5684839D01*
Y5681475D01*
X1887241D01*
Y5678110D01*
Y5674746D01*
X1883876D01*
Y5671381D01*
X1880512D01*
Y5668017D01*
X1877148D01*
Y5664653D01*
Y5661288D01*
X1873783D01*
Y5657924D01*
Y5654559D01*
X1870419D01*
Y5651195D01*
X1867055D01*
Y5647831D01*
X1863690D01*
Y5644466D01*
Y5641102D01*
X1860326D01*
Y5637738D01*
X1856961D01*
Y5634373D01*
Y5631009D01*
X1853597D01*
Y5627645D01*
X1850233D01*
Y5624280D01*
Y5620916D01*
X1846869D01*
Y5617552D01*
X1843504D01*
Y5614187D01*
Y5610823D01*
X1840140D01*
Y5607458D01*
X1836775D01*
Y5604094D01*
Y5600730D01*
X1833411D01*
Y5597365D01*
X1830047D01*
Y5594001D01*
Y5590637D01*
X1826682D01*
Y5587272D01*
X1823318D01*
Y5583908D01*
Y5580544D01*
X1819953D01*
Y5577179D01*
X1816589D01*
Y5573815D01*
X1813225D01*
Y5570450D01*
Y5567086D01*
X1809860D01*
Y5563722D01*
Y5560357D01*
X1806496D01*
Y5556993D01*
X1803132D01*
Y5553628D01*
X1799767D01*
Y5550264D01*
Y5546900D01*
X1796403D01*
Y5543536D01*
Y5540171D01*
X1793039D01*
Y5536807D01*
X1789674D01*
Y5533442D01*
Y5530078D01*
X1786310D01*
Y5526714D01*
X1782945D01*
Y5523349D01*
Y5519985D01*
X1779581D01*
Y5516620D01*
X1776217D01*
Y5513256D01*
X1772852D01*
Y5509892D01*
Y5506527D01*
X1769488D01*
Y5503163D01*
X1766124D01*
Y5499799D01*
Y5496434D01*
X1762759D01*
Y5493070D01*
Y5489706D01*
X1759395D01*
Y5493070D01*
X1756031D01*
Y5496434D01*
Y5499799D01*
X1752666D01*
Y5503163D01*
X1749302D01*
Y5506527D01*
X1745938D01*
Y5509892D01*
Y5513256D01*
X1742573D01*
Y5516620D01*
Y5519985D01*
X1739209D01*
Y5523349D01*
X1735844D01*
Y5526714D01*
Y5530078D01*
X1732480D01*
Y5533442D01*
X1729116D01*
Y5536807D01*
Y5540171D01*
X1725751D01*
Y5543536D01*
X1722387D01*
Y5546900D01*
Y5550264D01*
X1719022D01*
Y5553628D01*
X1715658D01*
Y5556993D01*
Y5560357D01*
X1712294D01*
Y5563722D01*
X1715658D01*
Y5567086D01*
Y5570450D01*
X1719022D01*
Y5573815D01*
X1722387D01*
Y5577179D01*
X1725751D01*
Y5580544D01*
Y5583908D01*
X1729116D01*
Y5587272D01*
Y5590637D01*
X1732480D01*
Y5594001D01*
X1735844D01*
Y5590637D01*
X1739209D01*
Y5587272D01*
X1742573D01*
Y5583908D01*
Y5580544D01*
X1745938D01*
Y5577179D01*
X1749302D01*
Y5573815D01*
Y5570450D01*
X1752666D01*
Y5567086D01*
X1756031D01*
Y5563722D01*
X1762759D01*
Y5567086D01*
Y5570450D01*
X1766124D01*
Y5573815D01*
Y5577179D01*
X1769488D01*
Y5580544D01*
X1772852D01*
Y5583908D01*
X1776217D01*
Y5587272D01*
Y5590637D01*
X1779581D01*
Y5594001D01*
X1782945D01*
Y5597365D01*
Y5600730D01*
X1786310D01*
Y5604094D01*
X1789674D01*
Y5607458D01*
Y5610823D01*
X1793039D01*
Y5614187D01*
X1796403D01*
Y5617552D01*
Y5620916D01*
X1799767D01*
Y5624280D01*
X1803132D01*
Y5627645D01*
Y5631009D01*
X1806496D01*
Y5634373D01*
X1809860D01*
Y5637738D01*
Y5641102D01*
X1813225D01*
Y5644466D01*
X1816589D01*
Y5647831D01*
X1819953D01*
Y5651195D01*
Y5654559D01*
X1823318D01*
Y5657924D01*
Y5661288D01*
X1826682D01*
Y5664653D01*
X1830047D01*
Y5668017D01*
X1833411D01*
Y5671381D01*
Y5674746D01*
X1836775D01*
Y5678110D01*
Y5681475D01*
X1840140D01*
Y5684839D01*
X1843504D01*
Y5688203D01*
X1846869D01*
Y5691567D01*
Y5694932D01*
X1850233D01*
Y5698296D01*
X1853597D01*
Y5701661D01*
Y5705025D01*
X1856961D01*
Y5708389D01*
X1860326D01*
Y5711754D01*
X1863690D01*
Y5715118D01*
Y5718482D01*
X1867055D01*
Y5721847D01*
Y5725211D01*
X1870419D01*
Y5728576D01*
X1873783D01*
Y5731940D01*
X1877148D01*
Y5735304D01*
Y5738668D01*
Y5742033D01*
X1789674D01*
Y5738668D01*
X1786310D01*
Y5735304D01*
X1782945D01*
Y5731940D01*
Y5728576D01*
X1779581D01*
Y5725211D01*
X1776217D01*
Y5721847D01*
Y5718482D01*
X1772852D01*
Y5715118D01*
X1769488D01*
Y5711754D01*
X1766124D01*
Y5708389D01*
Y5705025D01*
X1762759D01*
Y5701661D01*
X1759395D01*
Y5698296D01*
Y5694932D01*
X1756031D01*
Y5691567D01*
X1752666D01*
Y5688203D01*
Y5684839D01*
X1749302D01*
Y5681475D01*
X1745938D01*
Y5678110D01*
Y5674746D01*
X1742573D01*
Y5671381D01*
X1739209D01*
Y5668017D01*
Y5664653D01*
X1735844D01*
Y5661288D01*
X1732480D01*
Y5657924D01*
Y5654559D01*
X1729116D01*
Y5651195D01*
X1725751D01*
Y5647831D01*
Y5644466D01*
X1722387D01*
Y5641102D01*
X1719022D01*
Y5637738D01*
Y5634373D01*
X1715658D01*
Y5631009D01*
X1712294D01*
Y5627645D01*
Y5624280D01*
X1708930D01*
Y5620916D01*
X1705565D01*
Y5617552D01*
X1702201D01*
Y5614187D01*
Y5610823D01*
X1698837D01*
Y5607458D01*
Y5604094D01*
X1695472D01*
Y5600730D01*
X1692108D01*
Y5597365D01*
Y5594001D01*
X1688743D01*
Y5590637D01*
X1685379D01*
Y5587272D01*
Y5583908D01*
X1682015D01*
Y5580544D01*
X1678650D01*
Y5577179D01*
X1675286D01*
Y5573815D01*
Y5570450D01*
X1671921D01*
Y5567086D01*
Y5563722D01*
X1668557D01*
Y5560357D01*
X1665193D01*
Y5556993D01*
X1661829D01*
Y5553628D01*
Y5550264D01*
X1658464D01*
Y5546900D01*
Y5543536D01*
X1655100D01*
Y5540171D01*
X1651735D01*
Y5536807D01*
X1648371D01*
Y5533442D01*
Y5530078D01*
X1645007D01*
Y5526714D01*
Y5523349D01*
X1641642D01*
Y5519985D01*
X1638278D01*
Y5516620D01*
X1634913D01*
Y5513256D01*
Y5509892D01*
X1631549D01*
Y5506527D01*
X1628185D01*
Y5503163D01*
Y5499799D01*
X1624820D01*
Y5496434D01*
X1621456D01*
Y5493070D01*
Y5489706D01*
X1618092D01*
Y5493070D01*
Y5496434D01*
X1614727D01*
Y5499799D01*
X1611363D01*
Y5503163D01*
X1607999D01*
Y5506527D01*
Y5509892D01*
X1604634D01*
Y5513256D01*
X1601270D01*
Y5516620D01*
Y5519985D01*
X1597906D01*
Y5523349D01*
X1594541D01*
Y5526714D01*
X1591177D01*
Y5530078D01*
Y5533442D01*
X1587812D01*
Y5536807D01*
X1584448D01*
Y5540171D01*
Y5543536D01*
X1581084D01*
Y5546900D01*
X1577719D01*
Y5550264D01*
Y5553628D01*
X1574355D01*
Y5556993D01*
X1570991D01*
Y5560357D01*
Y5563722D01*
X1567626D01*
Y5567086D01*
X1564262D01*
Y5570450D01*
X1560898D01*
Y5573815D01*
Y5577179D01*
X1557533D01*
Y5580544D01*
X1554169D01*
Y5583908D01*
Y5587272D01*
X1550804D01*
Y5590637D01*
X1547440D01*
Y5594001D01*
X1544076D01*
Y5597365D01*
Y5600730D01*
X1540711D01*
Y5604094D01*
X1537347D01*
Y5607458D01*
Y5610823D01*
X1533983D01*
Y5614187D01*
X1530618D01*
Y5617552D01*
Y5620916D01*
X1527254D01*
Y5624280D01*
X1523890D01*
Y5627645D01*
X1520525D01*
Y5631009D01*
Y5634373D01*
X1517161D01*
Y5637738D01*
X1513796D01*
Y5641102D01*
Y5644466D01*
X1510432D01*
Y5647831D01*
X1507068D01*
Y5651195D01*
Y5654559D01*
X1503703D01*
Y5657924D01*
X1500339D01*
Y5661288D01*
X1496975D01*
Y5664653D01*
Y5668017D01*
X1493610D01*
Y5671381D01*
Y5674746D01*
X1490246D01*
Y5678110D01*
X1486881D01*
Y5681475D01*
X1483517D01*
Y5684839D01*
X1480153D01*
Y5688203D01*
Y5691567D01*
X1476788D01*
Y5694932D01*
Y5698296D01*
X1473424D01*
Y5701661D01*
X1470060D01*
Y5705025D01*
X1466695D01*
Y5708389D01*
Y5711754D01*
X1463331D01*
Y5715118D01*
X1459967D01*
Y5718482D01*
Y5721847D01*
X1456602D01*
Y5725211D01*
X1453238D01*
Y5728576D01*
Y5731940D01*
X1449873D01*
Y5735304D01*
X1446509D01*
Y5738668D01*
X1443145D01*
Y5742033D01*
Y5745397D01*
X1439780D01*
Y5748762D01*
X1436416D01*
Y5752126D01*
Y5755490D01*
X1433052D01*
Y5758855D01*
X1429687D01*
Y5762219D01*
X1426323D01*
Y5765584D01*
Y5768948D01*
X1422959D01*
Y5772312D01*
X1419594D01*
Y5775677D01*
Y5779041D01*
X1416230D01*
Y5782406D01*
X1412865D01*
Y5785770D01*
X1409501D01*
Y5789134D01*
Y5792498D01*
X1406137D01*
Y5795863D01*
X1597906D01*
Y5792498D01*
D02*
G37*
G36*
X2681231Y5183548D02*
X2674502D01*
Y5180184D01*
X2671138D01*
Y5176819D01*
X2667774D01*
Y5173455D01*
X2661045D01*
Y5170091D01*
X2657680D01*
Y5166727D01*
X2654316D01*
Y5163362D01*
X2647587D01*
Y5159998D01*
X2644223D01*
Y5156633D01*
X2637494D01*
Y5153269D01*
X2634130D01*
Y5149905D01*
X2630766D01*
Y5146540D01*
X2627401D01*
Y5143176D01*
X2620672D01*
Y5139811D01*
X2617308D01*
Y5136447D01*
X2610579D01*
Y5133083D01*
X2607215D01*
Y5129718D01*
X2603851D01*
Y5126354D01*
X2600486D01*
Y5122990D01*
X2593758D01*
Y5119626D01*
X2590393D01*
Y5116261D01*
X2587029D01*
Y5112897D01*
X2580300D01*
Y5109532D01*
X2576936D01*
Y5106168D01*
X2573571D01*
Y5102804D01*
Y5099439D01*
X2576936D01*
Y5096075D01*
X2580300D01*
Y5092710D01*
X2587029D01*
Y5089346D01*
X2590393D01*
Y5085982D01*
X2597122D01*
Y5082617D01*
X2600486D01*
Y5079253D01*
X2603851D01*
Y5075889D01*
X2610579D01*
Y5072524D01*
X2613944D01*
Y5069160D01*
X2617308D01*
Y5065796D01*
X2624037D01*
Y5062431D01*
X2627401D01*
Y5059067D01*
X2634130D01*
Y5055703D01*
X2637494D01*
Y5052338D01*
X2640859D01*
Y5048974D01*
X2644223D01*
Y5045609D01*
X2650952D01*
Y5042245D01*
X2654316D01*
Y5038881D01*
X2661045D01*
Y5035516D01*
X2664409D01*
Y5032152D01*
X2667774D01*
Y5028788D01*
X2674502D01*
Y5025423D01*
X2677867D01*
Y5022059D01*
X2681231D01*
Y5018695D01*
X2610579D01*
Y5022059D01*
X2607215D01*
Y5025423D01*
X2600486D01*
Y5028788D01*
X2597122D01*
Y5032152D01*
X2590393D01*
Y5035516D01*
X2587029D01*
Y5038881D01*
X2580300D01*
Y5042245D01*
X2576936D01*
Y5045609D01*
X2570207D01*
Y5048974D01*
X2566843D01*
Y5052338D01*
X2563478D01*
Y5055703D01*
X2556750D01*
Y5059067D01*
X2553385D01*
Y5062431D01*
X2546656D01*
Y5065796D01*
X2543292D01*
Y5069160D01*
X2539928D01*
Y5072524D01*
X2529835D01*
Y5069160D01*
Y5065796D01*
Y5062431D01*
Y5059067D01*
Y5055703D01*
Y5052338D01*
Y5048974D01*
Y5045609D01*
Y5042245D01*
Y5038881D01*
Y5035516D01*
Y5032152D01*
Y5028788D01*
Y5025423D01*
Y5022059D01*
Y5018695D01*
X2479369D01*
Y5022059D01*
Y5025423D01*
Y5028788D01*
Y5032152D01*
Y5035516D01*
Y5038881D01*
Y5042245D01*
Y5045609D01*
Y5048974D01*
Y5052338D01*
Y5055703D01*
Y5059067D01*
Y5062431D01*
Y5065796D01*
Y5069160D01*
Y5072524D01*
Y5075889D01*
Y5079253D01*
Y5082617D01*
Y5085982D01*
Y5089346D01*
Y5092710D01*
Y5096075D01*
Y5099439D01*
Y5102804D01*
Y5106168D01*
Y5109532D01*
Y5112897D01*
Y5116261D01*
Y5119626D01*
Y5122990D01*
Y5126354D01*
Y5129718D01*
Y5133083D01*
Y5136447D01*
Y5139811D01*
Y5143176D01*
Y5146540D01*
Y5149905D01*
Y5153269D01*
Y5156633D01*
Y5159998D01*
Y5163362D01*
Y5166727D01*
Y5170091D01*
Y5173455D01*
Y5176819D01*
Y5180184D01*
Y5183548D01*
Y5186913D01*
X2529835D01*
Y5183548D01*
Y5180184D01*
Y5176819D01*
Y5173455D01*
Y5170091D01*
Y5166727D01*
Y5163362D01*
Y5159998D01*
Y5156633D01*
Y5153269D01*
Y5149905D01*
Y5146540D01*
Y5143176D01*
Y5139811D01*
Y5136447D01*
Y5133083D01*
Y5129718D01*
X2533199D01*
Y5133083D01*
X2539928D01*
Y5136447D01*
X2543292D01*
Y5139811D01*
X2546656D01*
Y5143176D01*
X2553385D01*
Y5146540D01*
X2556750D01*
Y5149905D01*
X2563478D01*
Y5153269D01*
X2566843D01*
Y5156633D01*
X2570207D01*
Y5159998D01*
X2576936D01*
Y5163362D01*
X2580300D01*
Y5166727D01*
X2583664D01*
Y5170091D01*
X2587029D01*
Y5173455D01*
X2593758D01*
Y5176819D01*
X2597122D01*
Y5180184D01*
X2603851D01*
Y5183548D01*
X2607215D01*
Y5186913D01*
X2681231D01*
Y5183548D01*
D02*
G37*
G36*
X1560898D02*
Y5180184D01*
Y5176819D01*
Y5173455D01*
Y5170091D01*
Y5166727D01*
Y5163362D01*
Y5159998D01*
Y5156633D01*
Y5153269D01*
Y5149905D01*
Y5146540D01*
Y5143176D01*
Y5139811D01*
Y5136447D01*
Y5133083D01*
Y5129718D01*
Y5126354D01*
Y5122990D01*
Y5119626D01*
Y5116261D01*
Y5112897D01*
Y5109532D01*
Y5106168D01*
Y5102804D01*
Y5099439D01*
Y5096075D01*
Y5092710D01*
Y5089346D01*
Y5085982D01*
Y5082617D01*
Y5079253D01*
Y5075889D01*
Y5072524D01*
Y5069160D01*
Y5065796D01*
Y5062431D01*
Y5059067D01*
Y5055703D01*
Y5052338D01*
Y5048974D01*
Y5045609D01*
Y5042245D01*
Y5038881D01*
Y5035516D01*
Y5032152D01*
Y5028788D01*
Y5025423D01*
Y5022059D01*
Y5018695D01*
X1510432D01*
Y5022059D01*
Y5025423D01*
Y5028788D01*
Y5032152D01*
Y5035516D01*
Y5038881D01*
Y5042245D01*
Y5045609D01*
Y5048974D01*
Y5052338D01*
Y5055703D01*
Y5059067D01*
Y5062431D01*
Y5065796D01*
Y5069160D01*
Y5072524D01*
Y5075889D01*
Y5079253D01*
Y5082617D01*
X1416230D01*
Y5079253D01*
X1412865D01*
Y5075889D01*
Y5072524D01*
Y5069160D01*
Y5065796D01*
Y5062431D01*
Y5059067D01*
Y5055703D01*
Y5052338D01*
Y5048974D01*
Y5045609D01*
Y5042245D01*
Y5038881D01*
Y5035516D01*
Y5032152D01*
Y5028788D01*
Y5025423D01*
Y5022059D01*
X1416230D01*
Y5018695D01*
X1362400D01*
Y5022059D01*
Y5025423D01*
Y5028788D01*
Y5032152D01*
Y5035516D01*
Y5038881D01*
Y5042245D01*
Y5045609D01*
Y5048974D01*
Y5052338D01*
Y5055703D01*
Y5059067D01*
Y5062431D01*
Y5065796D01*
Y5069160D01*
Y5072524D01*
Y5075889D01*
Y5079253D01*
Y5082617D01*
Y5085982D01*
Y5089346D01*
Y5092710D01*
Y5096075D01*
Y5099439D01*
Y5102804D01*
Y5106168D01*
Y5109532D01*
Y5112897D01*
Y5116261D01*
Y5119626D01*
Y5122990D01*
Y5126354D01*
Y5129718D01*
Y5133083D01*
Y5136447D01*
Y5139811D01*
Y5143176D01*
Y5146540D01*
Y5149905D01*
Y5153269D01*
Y5156633D01*
Y5159998D01*
Y5163362D01*
Y5166727D01*
Y5170091D01*
Y5173455D01*
Y5176819D01*
Y5180184D01*
Y5183548D01*
Y5186913D01*
X1416230D01*
Y5183548D01*
X1412865D01*
Y5180184D01*
Y5176819D01*
Y5173455D01*
Y5170091D01*
Y5166727D01*
Y5163362D01*
Y5159998D01*
Y5156633D01*
Y5153269D01*
Y5149905D01*
Y5146540D01*
Y5143176D01*
Y5139811D01*
Y5136447D01*
Y5133083D01*
Y5129718D01*
Y5126354D01*
X1510432D01*
Y5129718D01*
Y5133083D01*
Y5136447D01*
Y5139811D01*
Y5143176D01*
Y5146540D01*
Y5149905D01*
Y5153269D01*
Y5156633D01*
Y5159998D01*
Y5163362D01*
Y5166727D01*
Y5170091D01*
Y5173455D01*
Y5176819D01*
Y5180184D01*
Y5183548D01*
Y5186913D01*
X1560898D01*
Y5183548D01*
D02*
G37*
G36*
X1140352D02*
Y5180184D01*
X1136988D01*
Y5176819D01*
X1133623D01*
Y5173455D01*
X1130259D01*
Y5170091D01*
X1126894D01*
Y5166727D01*
X1123530D01*
Y5163362D01*
X1120166D01*
Y5159998D01*
Y5156633D01*
X1116801D01*
Y5153269D01*
X1113437D01*
Y5149905D01*
X1110072D01*
Y5146540D01*
X1106708D01*
Y5143176D01*
X1103344D01*
Y5139811D01*
X1099980D01*
Y5136447D01*
Y5133083D01*
X1096615D01*
Y5129718D01*
X1093251D01*
Y5126354D01*
X1089886D01*
Y5122990D01*
X1086522D01*
Y5119626D01*
X1083158D01*
Y5116261D01*
X1079793D01*
Y5112897D01*
Y5109532D01*
X1076429D01*
Y5106168D01*
X1073064D01*
Y5102804D01*
X1069700D01*
Y5099439D01*
X1066336D01*
Y5096075D01*
X1062971D01*
Y5092710D01*
X1059607D01*
Y5089346D01*
Y5085982D01*
X1056243D01*
Y5082617D01*
X1052878D01*
Y5079253D01*
X1049514D01*
Y5075889D01*
Y5072524D01*
Y5069160D01*
Y5065796D01*
Y5062431D01*
Y5059067D01*
Y5055703D01*
Y5052338D01*
Y5048974D01*
Y5045609D01*
Y5042245D01*
Y5038881D01*
Y5035516D01*
Y5032152D01*
Y5028788D01*
Y5025423D01*
Y5022059D01*
Y5018695D01*
X995684D01*
Y5022059D01*
Y5025423D01*
Y5028788D01*
Y5032152D01*
Y5035516D01*
Y5038881D01*
Y5042245D01*
Y5045609D01*
Y5048974D01*
Y5052338D01*
Y5055703D01*
Y5059067D01*
Y5062431D01*
Y5065796D01*
Y5069160D01*
Y5072524D01*
Y5075889D01*
Y5079253D01*
X992320D01*
Y5082617D01*
X988955D01*
Y5085982D01*
X985591D01*
Y5089346D01*
X982227D01*
Y5092710D01*
X978862D01*
Y5096075D01*
Y5099439D01*
X975498D01*
Y5102804D01*
X972133D01*
Y5106168D01*
X968769D01*
Y5109532D01*
X965405D01*
Y5112897D01*
X962040D01*
Y5116261D01*
Y5119626D01*
X955312D01*
Y5122990D01*
X951947D01*
Y5126354D01*
Y5129718D01*
X948583D01*
Y5133083D01*
X945219D01*
Y5136447D01*
X941854D01*
Y5139811D01*
X938490D01*
Y5143176D01*
X935126D01*
Y5146540D01*
Y5149905D01*
X928397D01*
Y5153269D01*
X925032D01*
Y5156633D01*
Y5159998D01*
X921668D01*
Y5163362D01*
X918304D01*
Y5166727D01*
X914939D01*
Y5170091D01*
X911575D01*
Y5173455D01*
X908211D01*
Y5176819D01*
X904846D01*
Y5180184D01*
X901482D01*
Y5183548D01*
X898118D01*
Y5186913D01*
X965405D01*
Y5183548D01*
X968769D01*
Y5180184D01*
X972133D01*
Y5176819D01*
X975498D01*
Y5173455D01*
X978862D01*
Y5170091D01*
X982227D01*
Y5166727D01*
X985591D01*
Y5163362D01*
Y5159998D01*
X988955D01*
Y5156633D01*
X992320D01*
Y5153269D01*
X995684D01*
Y5149905D01*
X999049D01*
Y5146540D01*
X1002413D01*
Y5143176D01*
Y5139811D01*
X1009141D01*
Y5136447D01*
X1012506D01*
Y5133083D01*
Y5129718D01*
X1015870D01*
Y5126354D01*
X1019235D01*
Y5122990D01*
X1025963D01*
Y5126354D01*
X1029328D01*
Y5129718D01*
X1032692D01*
Y5133083D01*
X1036057D01*
Y5136447D01*
Y5139811D01*
X1039421D01*
Y5143176D01*
X1042785D01*
Y5146540D01*
X1046150D01*
Y5149905D01*
X1049514D01*
Y5153269D01*
X1052878D01*
Y5156633D01*
X1056243D01*
Y5159998D01*
Y5163362D01*
X1062971D01*
Y5166727D01*
Y5170091D01*
X1066336D01*
Y5173455D01*
X1069700D01*
Y5176819D01*
X1073064D01*
Y5180184D01*
X1076429D01*
Y5183548D01*
Y5186913D01*
X1140352D01*
Y5183548D01*
D02*
G37*
G36*
X2163119D02*
X2176576D01*
Y5180184D01*
X2186669D01*
Y5176819D01*
X2193398D01*
Y5173455D01*
X2196762D01*
Y5170091D01*
X2203491D01*
Y5166727D01*
X2206856D01*
Y5163362D01*
X2210220D01*
Y5159998D01*
X2213584D01*
Y5156633D01*
X2216949D01*
Y5153269D01*
Y5149905D01*
X2220313D01*
Y5146540D01*
Y5143176D01*
X2223678D01*
Y5139811D01*
X2227042D01*
Y5136447D01*
Y5133083D01*
Y5129718D01*
Y5126354D01*
X2230406D01*
Y5122990D01*
Y5119626D01*
Y5116261D01*
X2233770D01*
Y5112897D01*
Y5109532D01*
Y5106168D01*
Y5102804D01*
Y5099439D01*
Y5096075D01*
Y5092710D01*
Y5089346D01*
X2230406D01*
Y5085982D01*
Y5082617D01*
Y5079253D01*
Y5075889D01*
X2227042D01*
Y5072524D01*
Y5069160D01*
Y5065796D01*
X2223678D01*
Y5062431D01*
X2220313D01*
Y5059067D01*
Y5055703D01*
X2216949D01*
Y5052338D01*
Y5048974D01*
X2213584D01*
Y5045609D01*
X2210220D01*
Y5042245D01*
X2206856D01*
Y5038881D01*
X2203491D01*
Y5035516D01*
X2196762D01*
Y5032152D01*
X2193398D01*
Y5028788D01*
X2186669D01*
Y5025423D01*
X2176576D01*
Y5022059D01*
X2166483D01*
Y5018695D01*
X2048730D01*
Y5022059D01*
X2038637D01*
Y5025423D01*
X2028544D01*
Y5028788D01*
X2021816D01*
Y5032152D01*
X2015087D01*
Y5035516D01*
X2011722D01*
Y5038881D01*
X2008358D01*
Y5042245D01*
X2004994D01*
Y5045609D01*
X2001629D01*
Y5048974D01*
X1998265D01*
Y5052338D01*
X1994901D01*
Y5055703D01*
Y5059067D01*
X1991536D01*
Y5062431D01*
Y5065796D01*
X1988172D01*
Y5069160D01*
Y5072524D01*
Y5075889D01*
X1984808D01*
Y5079253D01*
Y5082617D01*
Y5085982D01*
Y5089346D01*
X1981443D01*
Y5092710D01*
X1984808D01*
Y5096075D01*
Y5099439D01*
X1981443D01*
Y5102804D01*
Y5106168D01*
X1984808D01*
Y5109532D01*
Y5112897D01*
X1981443D01*
Y5116261D01*
X1984808D01*
Y5119626D01*
Y5122990D01*
Y5126354D01*
Y5129718D01*
X1988172D01*
Y5133083D01*
Y5136447D01*
Y5139811D01*
X1991536D01*
Y5143176D01*
Y5146540D01*
X1994901D01*
Y5149905D01*
X1998265D01*
Y5153269D01*
Y5156633D01*
X2001629D01*
Y5159998D01*
X2004994D01*
Y5163362D01*
X2008358D01*
Y5166727D01*
X2011722D01*
Y5170091D01*
X2018451D01*
Y5173455D01*
X2021816D01*
Y5176819D01*
X2028544D01*
Y5180184D01*
X2038637D01*
Y5183548D01*
X2052095D01*
Y5186913D01*
X2163119D01*
Y5183548D01*
D02*
G37*
G36*
X1920884D02*
X1930978D01*
Y5180184D01*
X1937706D01*
Y5176819D01*
X1944435D01*
Y5173455D01*
X1947800D01*
Y5170091D01*
X1951164D01*
Y5166727D01*
X1954528D01*
Y5163362D01*
X1957892D01*
Y5159998D01*
Y5156633D01*
X1961257D01*
Y5153269D01*
X1964621D01*
Y5149905D01*
Y5146540D01*
Y5143176D01*
Y5139811D01*
X1967986D01*
Y5136447D01*
Y5133083D01*
Y5129718D01*
Y5126354D01*
Y5122990D01*
Y5119626D01*
Y5116261D01*
Y5112897D01*
Y5109532D01*
Y5106168D01*
X1964621D01*
Y5102804D01*
Y5099439D01*
Y5096075D01*
X1961257D01*
Y5092710D01*
Y5089346D01*
X1957892D01*
Y5085982D01*
X1954528D01*
Y5082617D01*
X1951164D01*
Y5079253D01*
X1947800D01*
Y5075889D01*
X1944435D01*
Y5072524D01*
X1941071D01*
Y5069160D01*
X1937706D01*
Y5065796D01*
X1941071D01*
Y5062431D01*
X1944435D01*
Y5059067D01*
X1947800D01*
Y5055703D01*
X1951164D01*
Y5052338D01*
X1954528D01*
Y5048974D01*
X1957892D01*
Y5045609D01*
X1961257D01*
Y5042245D01*
X1964621D01*
Y5038881D01*
X1967986D01*
Y5035516D01*
X1971350D01*
Y5032152D01*
X1974714D01*
Y5028788D01*
X1978079D01*
Y5025423D01*
Y5022059D01*
X1981443D01*
Y5018695D01*
X1907427D01*
Y5022059D01*
X1904063D01*
Y5025423D01*
X1900698D01*
Y5028788D01*
X1897334D01*
Y5032152D01*
Y5035516D01*
X1893970D01*
Y5038881D01*
X1890605D01*
Y5042245D01*
X1887241D01*
Y5045609D01*
X1883876D01*
Y5048974D01*
X1880512D01*
Y5052338D01*
X1877148D01*
Y5055703D01*
Y5059067D01*
X1873783D01*
Y5062431D01*
X1803132D01*
Y5059067D01*
Y5055703D01*
Y5052338D01*
Y5048974D01*
Y5045609D01*
Y5042245D01*
Y5038881D01*
Y5035516D01*
Y5032152D01*
Y5028788D01*
Y5025423D01*
Y5022059D01*
Y5018695D01*
X1752666D01*
Y5022059D01*
Y5025423D01*
Y5028788D01*
Y5032152D01*
Y5035516D01*
Y5038881D01*
Y5042245D01*
Y5045609D01*
Y5048974D01*
Y5052338D01*
Y5055703D01*
Y5059067D01*
Y5062431D01*
Y5065796D01*
Y5069160D01*
Y5072524D01*
Y5075889D01*
Y5079253D01*
Y5082617D01*
Y5085982D01*
Y5089346D01*
Y5092710D01*
Y5096075D01*
Y5099439D01*
Y5102804D01*
X1904063D01*
Y5106168D01*
X1907427D01*
Y5109532D01*
X1914156D01*
Y5112897D01*
Y5116261D01*
X1917520D01*
Y5119626D01*
Y5122990D01*
Y5126354D01*
Y5129718D01*
Y5133083D01*
X1914156D01*
Y5136447D01*
X1910791D01*
Y5139811D01*
X1907427D01*
Y5143176D01*
X1752666D01*
Y5146540D01*
X1756031D01*
Y5149905D01*
X1759395D01*
Y5153269D01*
Y5156633D01*
X1762759D01*
Y5159998D01*
X1766124D01*
Y5163362D01*
X1769488D01*
Y5166727D01*
Y5170091D01*
X1772852D01*
Y5173455D01*
X1776217D01*
Y5176819D01*
Y5180184D01*
X1779581D01*
Y5183548D01*
X1782945D01*
Y5186913D01*
X1920884D01*
Y5183548D01*
D02*
G37*
G36*
X1749302D02*
X1745938D01*
Y5180184D01*
Y5176819D01*
X1742573D01*
Y5173455D01*
X1739209D01*
Y5170091D01*
Y5166727D01*
X1735844D01*
Y5163362D01*
X1732480D01*
Y5159998D01*
Y5156633D01*
X1729116D01*
Y5153269D01*
X1725751D01*
Y5149905D01*
Y5146540D01*
X1634913D01*
Y5143176D01*
Y5139811D01*
Y5136447D01*
Y5133083D01*
Y5129718D01*
Y5126354D01*
Y5122990D01*
X1712294D01*
Y5119626D01*
X1708930D01*
Y5116261D01*
Y5112897D01*
X1705565D01*
Y5109532D01*
X1702201D01*
Y5106168D01*
Y5102804D01*
X1698837D01*
Y5099439D01*
X1695472D01*
Y5096075D01*
Y5092710D01*
X1692108D01*
Y5089346D01*
X1688743D01*
Y5085982D01*
Y5082617D01*
X1638278D01*
Y5079253D01*
X1634913D01*
Y5075889D01*
Y5072524D01*
Y5069160D01*
Y5065796D01*
Y5062431D01*
Y5059067D01*
X1732480D01*
Y5055703D01*
Y5052338D01*
Y5048974D01*
Y5045609D01*
Y5042245D01*
Y5038881D01*
Y5035516D01*
Y5032152D01*
Y5028788D01*
Y5025423D01*
Y5022059D01*
Y5018695D01*
X1584448D01*
Y5022059D01*
Y5025423D01*
Y5028788D01*
Y5032152D01*
Y5035516D01*
Y5038881D01*
Y5042245D01*
Y5045609D01*
Y5048974D01*
Y5052338D01*
Y5055703D01*
Y5059067D01*
Y5062431D01*
Y5065796D01*
Y5069160D01*
Y5072524D01*
Y5075889D01*
Y5079253D01*
Y5082617D01*
Y5085982D01*
Y5089346D01*
Y5092710D01*
Y5096075D01*
Y5099439D01*
Y5102804D01*
Y5106168D01*
Y5109532D01*
Y5112897D01*
Y5116261D01*
Y5119626D01*
Y5122990D01*
Y5126354D01*
Y5129718D01*
Y5133083D01*
Y5136447D01*
Y5139811D01*
Y5143176D01*
Y5146540D01*
Y5149905D01*
Y5153269D01*
Y5156633D01*
Y5159998D01*
Y5163362D01*
Y5166727D01*
Y5170091D01*
Y5173455D01*
Y5176819D01*
Y5180184D01*
Y5183548D01*
Y5186913D01*
X1749302D01*
Y5183548D01*
D02*
G37*
G36*
X1295113D02*
X1305206D01*
Y5180184D01*
X1311934D01*
Y5176819D01*
X1318663D01*
Y5173455D01*
X1322028D01*
Y5170091D01*
X1325392D01*
Y5166727D01*
X1328756D01*
Y5163362D01*
X1332121D01*
Y5159998D01*
X1335485D01*
Y5156633D01*
Y5153269D01*
Y5149905D01*
X1338849D01*
Y5146540D01*
Y5143176D01*
X1342214D01*
Y5139811D01*
Y5136447D01*
Y5133083D01*
Y5129718D01*
Y5126354D01*
Y5122990D01*
Y5119626D01*
Y5116261D01*
Y5112897D01*
Y5109532D01*
Y5106168D01*
X1338849D01*
Y5102804D01*
Y5099439D01*
Y5096075D01*
X1335485D01*
Y5092710D01*
Y5089346D01*
X1332121D01*
Y5085982D01*
X1328756D01*
Y5082617D01*
X1325392D01*
Y5079253D01*
X1322028D01*
Y5075889D01*
X1318663D01*
Y5072524D01*
X1315299D01*
Y5069160D01*
X1308570D01*
Y5065796D01*
X1298477D01*
Y5062431D01*
X1177360D01*
Y5059067D01*
Y5055703D01*
Y5052338D01*
Y5048974D01*
Y5045609D01*
Y5042245D01*
Y5038881D01*
Y5035516D01*
Y5032152D01*
Y5028788D01*
Y5025423D01*
Y5022059D01*
Y5018695D01*
X1126894D01*
Y5022059D01*
Y5025423D01*
Y5028788D01*
Y5032152D01*
Y5035516D01*
Y5038881D01*
Y5042245D01*
Y5045609D01*
Y5048974D01*
Y5052338D01*
Y5055703D01*
Y5059067D01*
Y5062431D01*
Y5065796D01*
Y5069160D01*
Y5072524D01*
Y5075889D01*
Y5079253D01*
Y5082617D01*
Y5085982D01*
Y5089346D01*
Y5092710D01*
Y5096075D01*
Y5099439D01*
Y5102804D01*
X1278291D01*
Y5106168D01*
X1281655D01*
Y5109532D01*
X1288384D01*
Y5112897D01*
Y5116261D01*
X1291748D01*
Y5119626D01*
Y5122990D01*
Y5126354D01*
Y5129718D01*
Y5133083D01*
X1288384D01*
Y5136447D01*
X1285020D01*
Y5139811D01*
X1281655D01*
Y5143176D01*
X1126894D01*
Y5146540D01*
X1130259D01*
Y5149905D01*
X1133623D01*
Y5153269D01*
X1136988D01*
Y5156633D01*
X1140352D01*
Y5159998D01*
Y5163362D01*
X1143716D01*
Y5166727D01*
X1147081D01*
Y5170091D01*
X1150445D01*
Y5173455D01*
X1153809D01*
Y5176819D01*
X1157174D01*
Y5180184D01*
Y5183548D01*
X1160538D01*
Y5186913D01*
X1295113D01*
Y5183548D01*
D02*
G37*
G36*
X2459183D02*
X2455819D01*
Y5180184D01*
X2452454D01*
Y5176819D01*
X2449090D01*
Y5173455D01*
Y5170091D01*
X2445725D01*
Y5166727D01*
Y5163362D01*
X2442361D01*
Y5159998D01*
X2438997D01*
Y5156633D01*
X2435632D01*
Y5153269D01*
Y5149905D01*
X2432268D01*
Y5146540D01*
X2428904D01*
Y5143176D01*
X2327973D01*
Y5139811D01*
X2317880D01*
Y5136447D01*
X2314515D01*
Y5133083D01*
X2307787D01*
Y5129718D01*
Y5126354D01*
X2304422D01*
Y5122990D01*
X2301058D01*
Y5119626D01*
Y5116261D01*
X2297693D01*
Y5112897D01*
Y5109532D01*
Y5106168D01*
Y5102804D01*
Y5099439D01*
Y5096075D01*
Y5092710D01*
Y5089346D01*
Y5085982D01*
X2301058D01*
Y5082617D01*
Y5079253D01*
X2304422D01*
Y5075889D01*
X2307787D01*
Y5072524D01*
X2311151D01*
Y5069160D01*
X2314515D01*
Y5065796D01*
X2321244D01*
Y5062431D01*
X2327973D01*
Y5059067D01*
X2455819D01*
Y5055703D01*
X2452454D01*
Y5052338D01*
Y5048974D01*
X2449090D01*
Y5045609D01*
X2445725D01*
Y5042245D01*
Y5038881D01*
X2442361D01*
Y5035516D01*
X2438997D01*
Y5032152D01*
X2435632D01*
Y5028788D01*
Y5025423D01*
X2432268D01*
Y5022059D01*
Y5018695D01*
X2428904D01*
Y5015330D01*
X2324609D01*
Y5018695D01*
X2311151D01*
Y5022059D01*
X2301058D01*
Y5025423D01*
X2290965D01*
Y5028788D01*
X2287600D01*
Y5032152D01*
X2280871D01*
Y5035516D01*
X2277507D01*
Y5038881D01*
X2274143D01*
Y5042245D01*
X2270779D01*
Y5045609D01*
X2267414D01*
Y5048974D01*
X2264050D01*
Y5052338D01*
Y5055703D01*
X2260686D01*
Y5059067D01*
X2257321D01*
Y5062431D01*
Y5065796D01*
X2253957D01*
Y5069160D01*
Y5072524D01*
Y5075889D01*
Y5079253D01*
X2250592D01*
Y5082617D01*
Y5085982D01*
Y5089346D01*
X2247228D01*
Y5092710D01*
Y5096075D01*
Y5099439D01*
Y5102804D01*
Y5106168D01*
Y5109532D01*
Y5112897D01*
X2250592D01*
Y5116261D01*
Y5119626D01*
Y5122990D01*
Y5126354D01*
X2253957D01*
Y5129718D01*
Y5133083D01*
Y5136447D01*
Y5139811D01*
X2257321D01*
Y5143176D01*
X2260686D01*
Y5146540D01*
Y5149905D01*
X2264050D01*
Y5153269D01*
X2267414D01*
Y5156633D01*
Y5159998D01*
X2270779D01*
Y5163362D01*
X2274143D01*
Y5166727D01*
X2280871D01*
Y5170091D01*
X2284236D01*
Y5173455D01*
X2287600D01*
Y5176819D01*
X2294329D01*
Y5180184D01*
X2304422D01*
Y5183548D01*
X2317880D01*
Y5186913D01*
X2459183D01*
Y5183548D01*
D02*
G37*
G36*
X877931D02*
X874567D01*
Y5180184D01*
X871203D01*
Y5176819D01*
Y5173455D01*
X867838D01*
Y5170091D01*
Y5166727D01*
X864474D01*
Y5163362D01*
X861110D01*
Y5159998D01*
X857745D01*
Y5156633D01*
Y5153269D01*
X854381D01*
Y5149905D01*
Y5146540D01*
X851016D01*
Y5143176D01*
X746721D01*
Y5139811D01*
X739992D01*
Y5136447D01*
X733264D01*
Y5133083D01*
X729899D01*
Y5129718D01*
X726535D01*
Y5126354D01*
X723171D01*
Y5122990D01*
Y5119626D01*
X719806D01*
Y5116261D01*
Y5112897D01*
Y5109532D01*
Y5106168D01*
X716442D01*
Y5102804D01*
Y5099439D01*
Y5096075D01*
X719806D01*
Y5092710D01*
Y5089346D01*
Y5085982D01*
Y5082617D01*
X723171D01*
Y5079253D01*
Y5075889D01*
X726535D01*
Y5072524D01*
X729899D01*
Y5069160D01*
X736628D01*
Y5065796D01*
X739992D01*
Y5062431D01*
X750085D01*
Y5059067D01*
X874567D01*
Y5055703D01*
Y5052338D01*
X871203D01*
Y5048974D01*
X867838D01*
Y5045609D01*
Y5042245D01*
X864474D01*
Y5038881D01*
X861110D01*
Y5035516D01*
Y5032152D01*
X857745D01*
Y5028788D01*
X854381D01*
Y5025423D01*
Y5022059D01*
X851016D01*
Y5018695D01*
X847652D01*
Y5015330D01*
X743357D01*
Y5018695D01*
X729899D01*
Y5022059D01*
X719806D01*
Y5025423D01*
X713077D01*
Y5028788D01*
X706349D01*
Y5032152D01*
X702984D01*
Y5035516D01*
X696256D01*
Y5038881D01*
X692891D01*
Y5042245D01*
X689527D01*
Y5045609D01*
X686162D01*
Y5048974D01*
Y5052338D01*
X682798D01*
Y5055703D01*
X679434D01*
Y5059067D01*
Y5062431D01*
X676069D01*
Y5065796D01*
Y5069160D01*
X672705D01*
Y5072524D01*
Y5075889D01*
Y5079253D01*
X669341D01*
Y5082617D01*
Y5085982D01*
Y5089346D01*
Y5092710D01*
Y5096075D01*
X665976D01*
Y5099439D01*
Y5102804D01*
Y5106168D01*
Y5109532D01*
X669341D01*
Y5112897D01*
Y5116261D01*
Y5119626D01*
Y5122990D01*
X672705D01*
Y5126354D01*
Y5129718D01*
Y5133083D01*
X676069D01*
Y5136447D01*
Y5139811D01*
Y5143176D01*
X679434D01*
Y5146540D01*
X682798D01*
Y5149905D01*
Y5153269D01*
X686162D01*
Y5156633D01*
X689527D01*
Y5159998D01*
X692891D01*
Y5163362D01*
X696256D01*
Y5166727D01*
X699620D01*
Y5170091D01*
X702984D01*
Y5173455D01*
X709713D01*
Y5176819D01*
X713077D01*
Y5180184D01*
X726535D01*
Y5183548D01*
X736628D01*
Y5186913D01*
X877931D01*
Y5183548D01*
D02*
G37*
%LPC*%
G36*
X2149661Y5143176D02*
X2065552D01*
Y5139811D01*
X2058823D01*
Y5136447D01*
X2052095D01*
Y5133083D01*
X2048730D01*
Y5129718D01*
X2045366D01*
Y5126354D01*
X2042002D01*
Y5122990D01*
Y5119626D01*
X2038637D01*
Y5116261D01*
Y5112897D01*
X2035273D01*
Y5109532D01*
Y5106168D01*
Y5102804D01*
Y5099439D01*
Y5096075D01*
Y5092710D01*
Y5089346D01*
X2038637D01*
Y5085982D01*
Y5082617D01*
X2042002D01*
Y5079253D01*
X2045366D01*
Y5075889D01*
X2048730D01*
Y5072524D01*
X2052095D01*
Y5069160D01*
X2055459D01*
Y5065796D01*
X2062188D01*
Y5062431D01*
X2153026D01*
Y5065796D01*
X2159755D01*
Y5069160D01*
X2163119D01*
Y5072524D01*
X2169848D01*
Y5075889D01*
Y5079253D01*
X2173212D01*
Y5082617D01*
X2176576D01*
Y5085982D01*
Y5089346D01*
Y5092710D01*
X2179941D01*
Y5096075D01*
Y5099439D01*
Y5102804D01*
Y5106168D01*
Y5109532D01*
Y5112897D01*
X2176576D01*
Y5116261D01*
Y5119626D01*
Y5122990D01*
X2173212D01*
Y5126354D01*
X2169848D01*
Y5129718D01*
X2166483D01*
Y5133083D01*
X2163119D01*
Y5136447D01*
X2156390D01*
Y5139811D01*
X2149661D01*
Y5143176D01*
D02*
G37*
%LPD*%
D25*
X1270000Y4040000D02*
G03*
X1270000Y4040000I-20000J0D01*
G01*
D26*
X3183000Y3419000D02*
G03*
X3183000Y3419000I-10000J0D01*
G01*
X137000Y5581000D02*
G03*
X137000Y5581000I-10000J0D01*
G01*
X579000Y2468000D02*
G03*
X579000Y2468000I-10000J0D01*
G01*
X2837250Y6532000D02*
G03*
X2837250Y6532000I-10000J0D01*
G01*
X1335000Y4185000D02*
X1965000D01*
Y4815000D01*
X1335000D02*
X1965000D01*
X1335000Y4185000D02*
Y4815000D01*
D27*
X1509000Y3399875D02*
X1539000D01*
X1509000Y3489875D02*
X1539000D01*
X1874125Y3606250D02*
X1904125D01*
X1874125Y3696250D02*
X1904125D01*
X590000Y1477250D02*
Y1507250D01*
X680000Y1477250D02*
Y1507250D01*
X2653750Y1493125D02*
Y1523125D01*
X2743750Y1493125D02*
Y1523125D01*
X2804500Y3484000D02*
X3287500D01*
X2804500Y5516000D02*
X3287500D01*
X2804500Y3484000D02*
Y5516000D01*
X3287500Y3484000D02*
Y5516000D01*
X12500D02*
X495500D01*
X12500Y3484000D02*
X495500D01*
Y5516000D01*
X12500Y3484000D02*
Y5516000D01*
X634000Y2353500D02*
Y2836500D01*
X2666000Y2353500D02*
Y2836500D01*
X634000D02*
X2666000D01*
X634000Y2353500D02*
X2666000D01*
X2762250Y6163500D02*
Y6646500D01*
X730250Y6163500D02*
Y6646500D01*
Y6163500D02*
X2762250D01*
X730250Y6646500D02*
X2762250D01*
X1080000Y1384250D02*
X2220000D01*
X1080000Y1854250D02*
X2220000D01*
D28*
X1498608Y3273408D02*
X1473217Y3298800D01*
X1422433D01*
X1397041Y3273408D01*
Y3171842D01*
X1422433Y3146450D01*
X1473217D01*
X1498608Y3171842D01*
X1625567Y3146450D02*
Y3298800D01*
X1549392Y3222625D01*
X1650959D01*
X1936750Y3495658D02*
X1911358Y3521050D01*
X1860575D01*
X1835183Y3495658D01*
Y3394092D01*
X1860575Y3368700D01*
X1911358D01*
X1936750Y3394092D01*
X1987534Y3368700D02*
X2038317D01*
X2012926D01*
Y3521050D01*
X1987534Y3495658D01*
X2689233Y1908158D02*
X2663842Y1933550D01*
X2613058D01*
X2587666Y1908158D01*
Y1806592D01*
X2613058Y1781200D01*
X2663842D01*
X2689233Y1806592D01*
X2740017Y1908158D02*
X2765409Y1933550D01*
X2816192D01*
X2841584Y1908158D01*
Y1882767D01*
X2816192Y1857375D01*
X2790800D01*
X2816192D01*
X2841584Y1831983D01*
Y1806592D01*
X2816192Y1781200D01*
X2765409D01*
X2740017Y1806592D01*
X657233Y1892283D02*
X631842Y1917675D01*
X581058D01*
X555666Y1892283D01*
Y1790717D01*
X581058Y1765325D01*
X631842D01*
X657233Y1790717D01*
X809584Y1765325D02*
X708017D01*
X809584Y1866892D01*
Y1892283D01*
X784192Y1917675D01*
X733409D01*
X708017Y1892283D01*
X2990858Y5743550D02*
X2940075D01*
X2965467D01*
Y5616592D01*
X2940075Y5591200D01*
X2914683D01*
X2889291Y5616592D01*
X3143209Y5743550D02*
X3092425Y5718158D01*
X3041642Y5667375D01*
Y5616592D01*
X3067034Y5591200D01*
X3117817D01*
X3143209Y5616592D01*
Y5641983D01*
X3117817Y5667375D01*
X3041642D01*
X466733Y6489675D02*
X415950D01*
X441342D01*
Y6362717D01*
X415950Y6337325D01*
X390558D01*
X365166Y6362717D01*
X619084Y6489675D02*
X517517D01*
Y6413500D01*
X568300Y6438892D01*
X593692D01*
X619084Y6413500D01*
Y6362717D01*
X593692Y6337325D01*
X542909D01*
X517517Y6362717D01*
X228608Y2679675D02*
X177825D01*
X203217D01*
Y2552717D01*
X177825Y2527325D01*
X152433D01*
X127041Y2552717D01*
X355567Y2527325D02*
Y2679675D01*
X279392Y2603500D01*
X380959D01*
X1501808Y1250925D02*
Y1225533D01*
X1552592Y1174750D01*
X1603375Y1225533D01*
Y1250925D01*
X1552592Y1174750D02*
Y1098575D01*
X1654159D02*
X1704942D01*
X1679551D01*
Y1250925D01*
X1654159Y1225533D01*
X307983Y5743550D02*
X257200D01*
X282592D01*
Y5616592D01*
X257200Y5591200D01*
X231808D01*
X206416Y5616592D01*
X358767Y5718158D02*
X384159Y5743550D01*
X434942D01*
X460334Y5718158D01*
Y5692767D01*
X434942Y5667375D01*
X409550D01*
X434942D01*
X460334Y5641983D01*
Y5616592D01*
X434942Y5591200D01*
X384159D01*
X358767Y5616592D01*
X1517683Y3917925D02*
Y3790967D01*
X1543075Y3765575D01*
X1593858D01*
X1619250Y3790967D01*
Y3917925D01*
X1670034Y3765575D02*
X1720817D01*
X1695426D01*
Y3917925D01*
X1670034Y3892533D01*
%TF.MD5,4d2f01601f34b900e7ce8ee60461c2f1*%
M02*
