%TF.GenerationSoftware,Altium Limited,Altium Designer,23.4.1 (23)*%
G04 Layer_Color=8421504*
%FSLAX45Y45*%
%MOMM*%
%TF.SameCoordinates,37F79050-5382-499E-8BED-BD4E09E40BF1*%
%TF.FilePolarity,Positive*%
%TF.FileFunction,Paste,Top*%
%TF.Part,Single*%
G01*
G75*
%TA.AperFunction,SMDPad,CuDef*%
%ADD11R,1.10000X1.00000*%
%ADD12R,1.50000X0.60000*%
%ADD13R,0.60000X1.50000*%
%ADD14R,1.00000X1.10000*%
%ADD15R,5.60000X2.10000*%
D11*
X1609000Y3444875D02*
D03*
X1439000D02*
D03*
X1974125Y3651250D02*
D03*
X1804125D02*
D03*
D12*
X1225000Y4220000D02*
D03*
Y4300000D02*
D03*
Y4380000D02*
D03*
Y4460000D02*
D03*
Y4540000D02*
D03*
Y4620000D02*
D03*
Y4700000D02*
D03*
Y4780000D02*
D03*
X2075000D02*
D03*
Y4700000D02*
D03*
Y4620000D02*
D03*
Y4540000D02*
D03*
Y4460000D02*
D03*
Y4380000D02*
D03*
Y4300000D02*
D03*
Y4220000D02*
D03*
D13*
X1370000Y4925000D02*
D03*
X1450000D02*
D03*
X1530000D02*
D03*
X1610000D02*
D03*
X1690000D02*
D03*
X1770000D02*
D03*
X1850000D02*
D03*
X1930000D02*
D03*
Y4075000D02*
D03*
X1850000D02*
D03*
X1770000D02*
D03*
X1690000D02*
D03*
X1610000D02*
D03*
X1530000D02*
D03*
X1450000D02*
D03*
X1370000D02*
D03*
D14*
X635000Y1407250D02*
D03*
Y1577250D02*
D03*
X2698750Y1423125D02*
D03*
Y1593125D02*
D03*
D15*
X2125000Y1619250D02*
D03*
X1175000D02*
D03*
%TF.MD5,f3c17d01d0793ad023fee44acd28add0*%
M02*
