%TF.GenerationSoftware,Altium Limited,Altium Designer,23.4.1 (23)*%
G04 Layer_Color=0*
%FSLAX45Y45*%
%MOMM*%
%TF.SameCoordinates,37F79050-5382-499E-8BED-BD4E09E40BF1*%
%TF.FilePolarity,Positive*%
%TF.FileFunction,Plated,1,2,PTH,Drill*%
%TF.Part,Single*%
G01*
G75*
%TA.AperFunction,ComponentDrill*%
%ADD47C,1.04000*%
%ADD48C,1.10000*%
%TA.AperFunction,OtherDrill,Pad Free-17 (25.559mm,69.215mm)*%
%ADD49C,0.76200*%
%TA.AperFunction,OtherDrill,Pad Free-17 (23.019mm,69.215mm)*%
%ADD50C,0.76200*%
%TA.AperFunction,OtherDrill,Pad Free-17 (28.099mm,69.215mm)*%
%ADD51C,0.76200*%
%TA.AperFunction,OtherDrill,Pad Free-17 (30.639mm,69.215mm)*%
%ADD52C,0.76200*%
%TA.AperFunction,OtherDrill,Pad Free-17 (15.399mm,69.215mm)*%
%ADD53C,0.76200*%
%TA.AperFunction,OtherDrill,Pad Free-17 (17.939mm,69.215mm)*%
%ADD54C,0.76200*%
%TA.AperFunction,OtherDrill,Pad Free-17 (20.479mm,69.215mm)*%
%ADD55C,0.76200*%
%TA.AperFunction,OtherDrill,Pad Free-17 (12.859mm,69.215mm)*%
%ADD56C,0.76200*%
%TA.AperFunction,OtherDrill,Pad Free-17 (7.779mm,69.215mm)*%
%ADD57C,0.76200*%
%TA.AperFunction,OtherDrill,Pad Free-17 (5.239mm,69.215mm)*%
%ADD58C,0.76200*%
%TA.AperFunction,OtherDrill,Pad Free-17 (10.319mm,69.215mm)*%
%ADD59C,0.76200*%
%TA.AperFunction,OtherDrill,Pad Free-17 (2.699mm,69.215mm)*%
%ADD60C,0.76200*%
%TA.AperFunction,OtherDrill,Pad Free-17 (25.559mm,71.755mm)*%
%ADD61C,0.76200*%
%TA.AperFunction,OtherDrill,Pad Free-17 (23.019mm,71.755mm)*%
%ADD62C,0.76200*%
%TA.AperFunction,OtherDrill,Pad Free-17 (28.099mm,71.755mm)*%
%ADD63C,0.76200*%
%TA.AperFunction,OtherDrill,Pad Free-17 (30.639mm,71.755mm)*%
%ADD64C,0.76200*%
%TA.AperFunction,OtherDrill,Pad Free-17 (15.399mm,71.755mm)*%
%ADD65C,0.76200*%
%TA.AperFunction,OtherDrill,Pad Free-17 (17.939mm,71.755mm)*%
%ADD66C,0.76200*%
%TA.AperFunction,OtherDrill,Pad Free-17 (20.479mm,71.755mm)*%
%ADD67C,0.76200*%
%TA.AperFunction,OtherDrill,Pad Free-17 (12.859mm,71.755mm)*%
%ADD68C,0.76200*%
%TA.AperFunction,OtherDrill,Pad Free-17 (7.779mm,71.755mm)*%
%ADD69C,0.76200*%
%TA.AperFunction,OtherDrill,Pad Free-17 (5.239mm,71.755mm)*%
%ADD70C,0.76200*%
%TA.AperFunction,OtherDrill,Pad Free-17 (10.319mm,71.755mm)*%
%ADD71C,0.76200*%
%TA.AperFunction,OtherDrill,Pad Free-17 (2.699mm,71.755mm)*%
%ADD72C,0.76200*%
%TA.AperFunction,ComponentDrill*%
%ADD73C,1.10000*%
%TA.AperFunction,OtherDrill,Pad Free-17 (2.699mm,74.295mm)*%
%ADD74C,0.76200*%
%TA.AperFunction,OtherDrill,Pad Free-17 (10.319mm,74.295mm)*%
%ADD75C,0.76200*%
%TA.AperFunction,OtherDrill,Pad Free-17 (5.239mm,74.295mm)*%
%ADD76C,0.76200*%
%TA.AperFunction,OtherDrill,Pad Free-17 (7.779mm,74.295mm)*%
%ADD77C,0.76200*%
%TA.AperFunction,OtherDrill,Pad Free-17 (12.859mm,74.295mm)*%
%ADD78C,0.76200*%
%TA.AperFunction,OtherDrill,Pad Free-17 (20.479mm,74.295mm)*%
%ADD79C,0.76200*%
%TA.AperFunction,OtherDrill,Pad Free-17 (17.939mm,74.295mm)*%
%ADD80C,0.76200*%
%TA.AperFunction,OtherDrill,Pad Free-17 (15.399mm,74.295mm)*%
%ADD81C,0.76200*%
%TA.AperFunction,OtherDrill,Pad Free-17 (30.639mm,74.295mm)*%
%ADD82C,0.76200*%
%TA.AperFunction,OtherDrill,Pad Free-17 (28.099mm,74.295mm)*%
%ADD83C,0.76200*%
%TA.AperFunction,OtherDrill,Pad Free-17 (23.019mm,74.295mm)*%
%ADD84C,0.76200*%
%TA.AperFunction,OtherDrill,Pad Free-17 (25.559mm,74.295mm)*%
%ADD85C,0.76200*%
%TA.AperFunction,OtherDrill,Pad Free-17 (23.019mm,79.375mm)*%
%ADD86C,0.76200*%
%TA.AperFunction,OtherDrill,Pad Free-17 (23.019mm,76.835mm)*%
%ADD87C,0.76200*%
%TA.AperFunction,OtherDrill,Pad Free-17 (25.559mm,76.835mm)*%
%ADD88C,0.76200*%
%TA.AperFunction,OtherDrill,Pad Free-17 (25.559mm,79.375mm)*%
%ADD89C,0.76200*%
%TA.AperFunction,OtherDrill,Pad Free-17 (30.639mm,79.375mm)*%
%ADD90C,0.76200*%
%TA.AperFunction,OtherDrill,Pad Free-17 (30.639mm,76.835mm)*%
%ADD91C,0.76200*%
%TA.AperFunction,OtherDrill,Pad Free-17 (28.099mm,76.835mm)*%
%ADD92C,0.76200*%
%TA.AperFunction,OtherDrill,Pad Free-17 (28.099mm,79.375mm)*%
%ADD93C,0.76200*%
%TA.AperFunction,OtherDrill,Pad Free-17 (12.859mm,79.375mm)*%
%ADD94C,0.76200*%
%TA.AperFunction,OtherDrill,Pad Free-17 (12.859mm,76.835mm)*%
%ADD95C,0.76200*%
%TA.AperFunction,OtherDrill,Pad Free-17 (15.399mm,76.835mm)*%
%ADD96C,0.76200*%
%TA.AperFunction,OtherDrill,Pad Free-17 (15.399mm,79.375mm)*%
%ADD97C,0.76200*%
%TA.AperFunction,OtherDrill,Pad Free-17 (20.479mm,79.375mm)*%
%ADD98C,0.76200*%
%TA.AperFunction,OtherDrill,Pad Free-17 (20.479mm,76.835mm)*%
%ADD99C,0.76200*%
%TA.AperFunction,OtherDrill,Pad Free-17 (17.939mm,76.835mm)*%
%ADD100C,0.76200*%
%TA.AperFunction,OtherDrill,Pad Free-17 (17.939mm,79.375mm)*%
%ADD101C,0.76200*%
%TA.AperFunction,OtherDrill,Pad Free-17 (7.779mm,79.375mm)*%
%ADD102C,0.76200*%
%TA.AperFunction,OtherDrill,Pad Free-17 (7.779mm,76.835mm)*%
%ADD103C,0.76200*%
%TA.AperFunction,OtherDrill,Pad Free-17 (10.319mm,76.835mm)*%
%ADD104C,0.76200*%
%TA.AperFunction,OtherDrill,Pad Free-17 (10.319mm,79.375mm)*%
%ADD105C,0.76200*%
%TA.AperFunction,OtherDrill,Pad Free-17 (5.239mm,79.375mm)*%
%ADD106C,0.76200*%
%TA.AperFunction,OtherDrill,Pad Free-17 (5.239mm,76.835mm)*%
%ADD107C,0.76200*%
%TA.AperFunction,OtherDrill,Pad Free-17 (2.699mm,76.835mm)*%
%ADD108C,0.76200*%
%TA.AperFunction,OtherDrill,Pad Free-17 (2.699mm,79.375mm)*%
%ADD109C,0.76200*%
%TA.AperFunction,ViaDrill,NotFilled*%
%ADD110C,0.60000*%
D47*
X2794000Y8492000D02*
D03*
Y8238000D02*
D03*
X2540000Y8492000D02*
D03*
Y8238000D02*
D03*
X2286000Y8492000D02*
D03*
Y8238000D02*
D03*
X2032000Y8492000D02*
D03*
Y8238000D02*
D03*
X1778000Y8492000D02*
D03*
Y8238000D02*
D03*
X1524000Y8492000D02*
D03*
Y8238000D02*
D03*
X1270000Y8492000D02*
D03*
Y8238000D02*
D03*
X1016000Y8492000D02*
D03*
Y8238000D02*
D03*
X762000Y8492000D02*
D03*
Y8238000D02*
D03*
X508000Y8492000D02*
D03*
Y8238000D02*
D03*
X2794000Y762000D02*
D03*
Y508000D02*
D03*
X2540000Y762000D02*
D03*
Y508000D02*
D03*
X2286000Y762000D02*
D03*
Y508000D02*
D03*
X2032000Y762000D02*
D03*
Y508000D02*
D03*
X1778000Y762000D02*
D03*
Y508000D02*
D03*
X1524000Y762000D02*
D03*
Y508000D02*
D03*
X1270000Y762000D02*
D03*
Y508000D02*
D03*
X1016000Y762000D02*
D03*
Y508000D02*
D03*
X762000Y762000D02*
D03*
Y508000D02*
D03*
X508000Y762000D02*
D03*
Y508000D02*
D03*
D48*
X3173000Y3611000D02*
D03*
X2919000D02*
D03*
X3173000Y3865000D02*
D03*
X2919000D02*
D03*
X3173000Y4119000D02*
D03*
X2919000D02*
D03*
X3173000Y4373000D02*
D03*
X2919000D02*
D03*
X3173000Y4627000D02*
D03*
X2919000D02*
D03*
X3173000Y4881000D02*
D03*
X2919000D02*
D03*
X3173000Y5135000D02*
D03*
X2919000D02*
D03*
X3173000Y5389000D02*
D03*
X2919000D02*
D03*
X127000D02*
D03*
X381000D02*
D03*
X127000Y5135000D02*
D03*
X381000D02*
D03*
X127000Y4881000D02*
D03*
X381000D02*
D03*
X127000Y4627000D02*
D03*
X381000D02*
D03*
X127000Y4373000D02*
D03*
X381000D02*
D03*
X127000Y4119000D02*
D03*
X381000D02*
D03*
X127000Y3865000D02*
D03*
X381000D02*
D03*
X127000Y3611000D02*
D03*
X381000D02*
D03*
D49*
X2555875Y6921500D02*
D03*
D50*
X2301875D02*
D03*
D51*
X2809875D02*
D03*
D52*
X3063875D02*
D03*
D53*
X1539875D02*
D03*
D54*
X1793875D02*
D03*
D55*
X2047875D02*
D03*
D56*
X1285875D02*
D03*
D57*
X777875D02*
D03*
D58*
X523875D02*
D03*
D59*
X1031875D02*
D03*
D60*
X269875D02*
D03*
D61*
X2555875Y7175500D02*
D03*
D62*
X2301875D02*
D03*
D63*
X2809875D02*
D03*
D64*
X3063875D02*
D03*
D65*
X1539875D02*
D03*
D66*
X1793875D02*
D03*
D67*
X2047875D02*
D03*
D68*
X1285875D02*
D03*
D69*
X777875D02*
D03*
D70*
X523875D02*
D03*
D71*
X1031875D02*
D03*
D72*
X269875D02*
D03*
D73*
X761000Y2468000D02*
D03*
Y2722000D02*
D03*
X1015000Y2468000D02*
D03*
Y2722000D02*
D03*
X1269000Y2468000D02*
D03*
Y2722000D02*
D03*
X1523000Y2468000D02*
D03*
Y2722000D02*
D03*
X1777000Y2468000D02*
D03*
Y2722000D02*
D03*
X2031000Y2468000D02*
D03*
Y2722000D02*
D03*
X2285000Y2468000D02*
D03*
Y2722000D02*
D03*
X2539000Y2468000D02*
D03*
Y2722000D02*
D03*
X2635250Y6532000D02*
D03*
Y6278000D02*
D03*
X2381250Y6532000D02*
D03*
Y6278000D02*
D03*
X2127250Y6532000D02*
D03*
Y6278000D02*
D03*
X1873250Y6532000D02*
D03*
Y6278000D02*
D03*
X1619250Y6532000D02*
D03*
Y6278000D02*
D03*
X1365250Y6532000D02*
D03*
Y6278000D02*
D03*
X1111250Y6532000D02*
D03*
Y6278000D02*
D03*
X857250Y6532000D02*
D03*
Y6278000D02*
D03*
D74*
X269875Y7429500D02*
D03*
D75*
X1031875D02*
D03*
D76*
X523875D02*
D03*
D77*
X777875D02*
D03*
D78*
X1285875D02*
D03*
D79*
X2047875D02*
D03*
D80*
X1793875D02*
D03*
D81*
X1539875D02*
D03*
D82*
X3063875D02*
D03*
D83*
X2809875D02*
D03*
D84*
X2301875D02*
D03*
D85*
X2555875D02*
D03*
D86*
X2301875Y7937500D02*
D03*
D87*
Y7683500D02*
D03*
D88*
X2555875D02*
D03*
D89*
Y7937500D02*
D03*
D90*
X3063875D02*
D03*
D91*
Y7683500D02*
D03*
D92*
X2809875D02*
D03*
D93*
Y7937500D02*
D03*
D94*
X1285875D02*
D03*
D95*
Y7683500D02*
D03*
D96*
X1539875D02*
D03*
D97*
Y7937500D02*
D03*
D98*
X2047875D02*
D03*
D99*
Y7683500D02*
D03*
D100*
X1793875D02*
D03*
D101*
Y7937500D02*
D03*
D102*
X777875D02*
D03*
D103*
Y7683500D02*
D03*
D104*
X1031875D02*
D03*
D105*
Y7937500D02*
D03*
D106*
X523875D02*
D03*
D107*
Y7683500D02*
D03*
D108*
X269875D02*
D03*
D109*
Y7937500D02*
D03*
D110*
X1270000Y3270250D02*
D03*
X1952625Y3460750D02*
D03*
%TF.MD5,76c7a54a2a38ba753994a27034687bb1*%
M02*
