%TF.GenerationSoftware,Altium Limited,Altium Designer,23.4.1 (23)*%
G04 Layer_Color=8388736*
%FSLAX45Y45*%
%MOMM*%
%TF.SameCoordinates,37F79050-5382-499E-8BED-BD4E09E40BF1*%
%TF.FilePolarity,Negative*%
%TF.FileFunction,Soldermask,Top*%
%TF.Part,Single*%
G01*
G75*
%TA.AperFunction,SMDPad,CuDef*%
%ADD29R,1.30320X1.20320*%
%ADD30R,1.70320X0.80320*%
%ADD31R,0.80320X1.70320*%
%ADD32R,1.20320X1.30320*%
%ADD33R,5.80320X2.30320*%
%TA.AperFunction,ComponentPad*%
%ADD34C,1.59320*%
%ADD35R,1.59320X1.59320*%
%ADD36R,1.85320X1.85320*%
%ADD37C,1.85320*%
%TA.AperFunction,ViaPad*%
%ADD38R,2.20320X2.20320*%
%TA.AperFunction,ComponentPad*%
%ADD39R,1.85320X1.85320*%
D29*
X1609000Y3444875D02*
D03*
X1439000D02*
D03*
X1974125Y3651250D02*
D03*
X1804125D02*
D03*
D30*
X1225000Y4220000D02*
D03*
Y4300000D02*
D03*
Y4380000D02*
D03*
Y4460000D02*
D03*
Y4540000D02*
D03*
Y4620000D02*
D03*
Y4700000D02*
D03*
Y4780000D02*
D03*
X2075000D02*
D03*
Y4700000D02*
D03*
Y4620000D02*
D03*
Y4540000D02*
D03*
Y4460000D02*
D03*
Y4380000D02*
D03*
Y4300000D02*
D03*
Y4220000D02*
D03*
D31*
X1370000Y4925000D02*
D03*
X1450000D02*
D03*
X1530000D02*
D03*
X1610000D02*
D03*
X1690000D02*
D03*
X1770000D02*
D03*
X1850000D02*
D03*
X1930000D02*
D03*
Y4075000D02*
D03*
X1850000D02*
D03*
X1770000D02*
D03*
X1690000D02*
D03*
X1610000D02*
D03*
X1530000D02*
D03*
X1450000D02*
D03*
X1370000D02*
D03*
D32*
X635000Y1407250D02*
D03*
Y1577250D02*
D03*
X2698750Y1423125D02*
D03*
Y1593125D02*
D03*
D33*
X2125000Y1619250D02*
D03*
X1175000D02*
D03*
D34*
X2794000Y8492000D02*
D03*
Y8238000D02*
D03*
X2540000Y8492000D02*
D03*
Y8238000D02*
D03*
X2286000Y8492000D02*
D03*
Y8238000D02*
D03*
X2032000Y8492000D02*
D03*
Y8238000D02*
D03*
X1778000Y8492000D02*
D03*
Y8238000D02*
D03*
X1524000Y8492000D02*
D03*
Y8238000D02*
D03*
X1270000Y8492000D02*
D03*
Y8238000D02*
D03*
X1016000Y8492000D02*
D03*
Y8238000D02*
D03*
X762000Y8492000D02*
D03*
Y8238000D02*
D03*
X508000Y8492000D02*
D03*
X2794000Y762000D02*
D03*
Y508000D02*
D03*
X2540000Y762000D02*
D03*
Y508000D02*
D03*
X2286000Y762000D02*
D03*
Y508000D02*
D03*
X2032000Y762000D02*
D03*
Y508000D02*
D03*
X1778000Y762000D02*
D03*
Y508000D02*
D03*
X1524000Y762000D02*
D03*
Y508000D02*
D03*
X1270000Y762000D02*
D03*
Y508000D02*
D03*
X1016000Y762000D02*
D03*
Y508000D02*
D03*
X762000Y762000D02*
D03*
Y508000D02*
D03*
X508000Y762000D02*
D03*
D35*
Y8238000D02*
D03*
Y508000D02*
D03*
D36*
X3173000Y3611000D02*
D03*
X127000Y5389000D02*
D03*
D37*
X2919000Y3611000D02*
D03*
X3173000Y3865000D02*
D03*
X2919000D02*
D03*
X3173000Y4119000D02*
D03*
X2919000D02*
D03*
X3173000Y4373000D02*
D03*
X2919000D02*
D03*
X3173000Y4627000D02*
D03*
X2919000D02*
D03*
X3173000Y4881000D02*
D03*
X2919000D02*
D03*
X3173000Y5135000D02*
D03*
X2919000D02*
D03*
X3173000Y5389000D02*
D03*
X2919000D02*
D03*
X381000D02*
D03*
X127000Y5135000D02*
D03*
X381000D02*
D03*
X127000Y4881000D02*
D03*
X381000D02*
D03*
X127000Y4627000D02*
D03*
X381000D02*
D03*
X127000Y4373000D02*
D03*
X381000D02*
D03*
X127000Y4119000D02*
D03*
X381000D02*
D03*
X127000Y3865000D02*
D03*
X381000D02*
D03*
X127000Y3611000D02*
D03*
X381000D02*
D03*
X761000Y2722000D02*
D03*
X1015000Y2468000D02*
D03*
Y2722000D02*
D03*
X1269000Y2468000D02*
D03*
Y2722000D02*
D03*
X1523000Y2468000D02*
D03*
Y2722000D02*
D03*
X1777000Y2468000D02*
D03*
Y2722000D02*
D03*
X2031000Y2468000D02*
D03*
Y2722000D02*
D03*
X2285000Y2468000D02*
D03*
Y2722000D02*
D03*
X2539000Y2468000D02*
D03*
Y2722000D02*
D03*
X2635250Y6278000D02*
D03*
X2381250Y6532000D02*
D03*
Y6278000D02*
D03*
X2127250Y6532000D02*
D03*
Y6278000D02*
D03*
X1873250Y6532000D02*
D03*
Y6278000D02*
D03*
X1619250Y6532000D02*
D03*
Y6278000D02*
D03*
X1365250Y6532000D02*
D03*
Y6278000D02*
D03*
X1111250Y6532000D02*
D03*
Y6278000D02*
D03*
X857250Y6532000D02*
D03*
Y6278000D02*
D03*
D38*
X2555875Y6921500D02*
D03*
X2301875D02*
D03*
X2809875D02*
D03*
X3063875D02*
D03*
X1539875D02*
D03*
X1793875D02*
D03*
X2047875D02*
D03*
X1285875D02*
D03*
X777875D02*
D03*
X523875D02*
D03*
X1031875D02*
D03*
X269875D02*
D03*
X2555875Y7175500D02*
D03*
X2301875D02*
D03*
X2809875D02*
D03*
X3063875D02*
D03*
X1539875D02*
D03*
X1793875D02*
D03*
X2047875D02*
D03*
X1285875D02*
D03*
X777875D02*
D03*
X523875D02*
D03*
X1031875D02*
D03*
X269875D02*
D03*
Y7429500D02*
D03*
X1031875D02*
D03*
X523875D02*
D03*
X777875D02*
D03*
X1285875D02*
D03*
X2047875D02*
D03*
X1793875D02*
D03*
X1539875D02*
D03*
X3063875D02*
D03*
X2809875D02*
D03*
X2301875D02*
D03*
X2555875D02*
D03*
X2301875Y7937500D02*
D03*
Y7683500D02*
D03*
X2555875D02*
D03*
Y7937500D02*
D03*
X3063875D02*
D03*
Y7683500D02*
D03*
X2809875D02*
D03*
Y7937500D02*
D03*
X1285875D02*
D03*
Y7683500D02*
D03*
X1539875D02*
D03*
Y7937500D02*
D03*
X2047875D02*
D03*
Y7683500D02*
D03*
X1793875D02*
D03*
Y7937500D02*
D03*
X777875D02*
D03*
Y7683500D02*
D03*
X1031875D02*
D03*
Y7937500D02*
D03*
X523875D02*
D03*
Y7683500D02*
D03*
X269875D02*
D03*
Y7937500D02*
D03*
D39*
X761000Y2468000D02*
D03*
X2635250Y6532000D02*
D03*
%TF.MD5,b55e5c034f7d5e51a6f81bfbc9c2630a*%
M02*
