%TF.GenerationSoftware,Altium Limited,Altium Designer,23.4.1 (23)*%
G04 Layer_Color=16711935*
%FSLAX45Y45*%
%MOMM*%
%TF.SameCoordinates,06F9E411-BB4A-4FCF-AF8D-8E7D50D0EFEC*%
%TF.FilePolarity,Negative*%
%TF.FileFunction,Soldermask,Bot*%
%TF.Part,Single*%
G01*
G75*
%TA.AperFunction,SMDPad,CuDef*%
G04:AMPARAMS|DCode=31|XSize=1.1432mm|YSize=1.2232mm|CornerRadius=0.1956mm|HoleSize=0mm|Usage=FLASHONLY|Rotation=270.000|XOffset=0mm|YOffset=0mm|HoleType=Round|Shape=RoundedRectangle|*
%AMROUNDEDRECTD31*
21,1,1.14320,0.83200,0,0,270.0*
21,1,0.75200,1.22320,0,0,270.0*
1,1,0.39120,-0.41600,-0.37600*
1,1,0.39120,-0.41600,0.37600*
1,1,0.39120,0.41600,0.37600*
1,1,0.39120,0.41600,-0.37600*
%
%ADD31ROUNDEDRECTD31*%
%ADD32R,1.20320X1.30320*%
%TA.AperFunction,ComponentPad*%
%ADD37C,1.59320*%
%ADD38R,1.59320X1.59320*%
%ADD39R,1.85320X1.85320*%
%ADD40C,1.85320*%
%TA.AperFunction,ViaPad*%
%ADD41R,2.20320X2.20320*%
%TA.AperFunction,ComponentPad*%
%ADD42R,1.85320X1.85320*%
%TA.AperFunction,SMDPad,CuDef*%
G04:AMPARAMS|DCode=43|XSize=0.7832mm|YSize=1.8132mm|CornerRadius=0.1451mm|HoleSize=0mm|Usage=FLASHONLY|Rotation=180.000|XOffset=0mm|YOffset=0mm|HoleType=Round|Shape=RoundedRectangle|*
%AMROUNDEDRECTD43*
21,1,0.78320,1.52300,0,0,180.0*
21,1,0.49300,1.81320,0,0,180.0*
1,1,0.29020,-0.24650,0.76150*
1,1,0.29020,0.24650,0.76150*
1,1,0.29020,0.24650,-0.76150*
1,1,0.29020,-0.24650,-0.76150*
%
%ADD43ROUNDEDRECTD43*%
%ADD44R,1.30320X1.20320*%
%TA.AperFunction,TestPad*%
%ADD45C,1.12700*%
D31*
X2286000Y5826500D02*
D03*
Y5984500D02*
D03*
X809625Y5286750D02*
D03*
Y5444750D02*
D03*
X1095375Y5524125D02*
D03*
Y5366125D02*
D03*
D32*
X2032000Y5814875D02*
D03*
Y5984875D02*
D03*
X2571750Y4043500D02*
D03*
Y3873500D02*
D03*
X2333625Y4037875D02*
D03*
Y3867875D02*
D03*
X2127250Y4037875D02*
D03*
Y3867875D02*
D03*
X1428750Y4037875D02*
D03*
Y3867875D02*
D03*
X1666875Y4037875D02*
D03*
Y3867875D02*
D03*
X1905000Y4037875D02*
D03*
Y3867875D02*
D03*
D37*
X2794000Y8492000D02*
D03*
Y8238000D02*
D03*
X2540000Y8492000D02*
D03*
Y8238000D02*
D03*
X2286000Y8492000D02*
D03*
Y8238000D02*
D03*
X2032000Y8492000D02*
D03*
Y8238000D02*
D03*
X1778000Y8492000D02*
D03*
Y8238000D02*
D03*
X1524000Y8492000D02*
D03*
Y8238000D02*
D03*
X1270000Y8492000D02*
D03*
Y8238000D02*
D03*
X1016000Y8492000D02*
D03*
Y8238000D02*
D03*
X762000Y8492000D02*
D03*
Y8238000D02*
D03*
X508000Y8492000D02*
D03*
X2794000Y762000D02*
D03*
Y508000D02*
D03*
X2540000Y762000D02*
D03*
Y508000D02*
D03*
X2286000Y762000D02*
D03*
Y508000D02*
D03*
X2032000Y762000D02*
D03*
Y508000D02*
D03*
X1778000Y762000D02*
D03*
Y508000D02*
D03*
X1524000Y762000D02*
D03*
Y508000D02*
D03*
X1270000Y762000D02*
D03*
Y508000D02*
D03*
X1016000Y762000D02*
D03*
Y508000D02*
D03*
X762000Y762000D02*
D03*
Y508000D02*
D03*
X508000Y762000D02*
D03*
D38*
Y8238000D02*
D03*
Y508000D02*
D03*
D39*
X2539000Y6532000D02*
D03*
X761000Y2368000D02*
D03*
D40*
X2539000Y6278000D02*
D03*
X2285000Y6532000D02*
D03*
Y6278000D02*
D03*
X2031000Y6532000D02*
D03*
Y6278000D02*
D03*
X1777000Y6532000D02*
D03*
Y6278000D02*
D03*
X1523000Y6532000D02*
D03*
Y6278000D02*
D03*
X1269000Y6532000D02*
D03*
Y6278000D02*
D03*
X1015000Y6532000D02*
D03*
Y6278000D02*
D03*
X761000Y6532000D02*
D03*
Y6278000D02*
D03*
Y2622000D02*
D03*
X1015000Y2368000D02*
D03*
Y2622000D02*
D03*
X1269000Y2368000D02*
D03*
Y2622000D02*
D03*
X1523000Y2368000D02*
D03*
Y2622000D02*
D03*
X1777000Y2368000D02*
D03*
Y2622000D02*
D03*
X2031000Y2368000D02*
D03*
Y2622000D02*
D03*
X2285000Y2368000D02*
D03*
Y2622000D02*
D03*
X2539000Y2368000D02*
D03*
Y2622000D02*
D03*
X2919000Y3611000D02*
D03*
X3173000Y3865000D02*
D03*
X2919000D02*
D03*
X3173000Y4119000D02*
D03*
X2919000D02*
D03*
X3173000Y4373000D02*
D03*
X2919000D02*
D03*
X3173000Y4627000D02*
D03*
X2919000D02*
D03*
X3173000Y4881000D02*
D03*
X2919000D02*
D03*
X3173000Y5135000D02*
D03*
X2919000D02*
D03*
X3173000Y5389000D02*
D03*
X2919000D02*
D03*
X381000D02*
D03*
X127000Y5135000D02*
D03*
X381000D02*
D03*
X127000Y4881000D02*
D03*
X381000D02*
D03*
X127000Y4627000D02*
D03*
X381000D02*
D03*
X127000Y4373000D02*
D03*
X381000D02*
D03*
X127000Y4119000D02*
D03*
X381000D02*
D03*
X127000Y3865000D02*
D03*
X381000D02*
D03*
X127000Y3611000D02*
D03*
X381000D02*
D03*
D41*
X2555875Y6921500D02*
D03*
X2301875D02*
D03*
X2809875D02*
D03*
X3063875D02*
D03*
X1539875D02*
D03*
X1793875D02*
D03*
X2047875D02*
D03*
X1285875D02*
D03*
X777875D02*
D03*
X523875D02*
D03*
X1031875D02*
D03*
X269875D02*
D03*
X2555875Y7175500D02*
D03*
X2301875D02*
D03*
X2809875D02*
D03*
X3063875D02*
D03*
X1539875D02*
D03*
X1793875D02*
D03*
X2047875D02*
D03*
X1285875D02*
D03*
X777875D02*
D03*
X523875D02*
D03*
X1031875D02*
D03*
X269875D02*
D03*
Y7429500D02*
D03*
X1031875D02*
D03*
X523875D02*
D03*
X777875D02*
D03*
X1285875D02*
D03*
X2047875D02*
D03*
X1793875D02*
D03*
X1539875D02*
D03*
X3063875D02*
D03*
X2809875D02*
D03*
X2301875D02*
D03*
X2555875D02*
D03*
X2301875Y7937500D02*
D03*
Y7683500D02*
D03*
X2555875D02*
D03*
Y7937500D02*
D03*
X3063875D02*
D03*
Y7683500D02*
D03*
X2809875D02*
D03*
Y7937500D02*
D03*
X1285875D02*
D03*
Y7683500D02*
D03*
X1539875D02*
D03*
Y7937500D02*
D03*
X2047875D02*
D03*
Y7683500D02*
D03*
X1793875D02*
D03*
Y7937500D02*
D03*
X777875D02*
D03*
Y7683500D02*
D03*
X1031875D02*
D03*
Y7937500D02*
D03*
X523875D02*
D03*
Y7683500D02*
D03*
X269875D02*
D03*
Y7937500D02*
D03*
D42*
X3173000Y3611000D02*
D03*
X127000Y5389000D02*
D03*
D43*
X1095375Y4837250D02*
D03*
X968375D02*
D03*
X841375D02*
D03*
X714375D02*
D03*
Y4116250D02*
D03*
X841375D02*
D03*
X968375D02*
D03*
X1095375D02*
D03*
D44*
X1105625Y5159375D02*
D03*
X1275625D02*
D03*
D45*
X1571625Y4508500D02*
D03*
X1317625Y5524500D02*
D03*
X2206625Y3714750D02*
D03*
X714375Y3746500D02*
D03*
X635000Y5413375D02*
D03*
X809625Y5048250D02*
D03*
X2524125Y5810250D02*
D03*
X666750Y4651375D02*
D03*
X714375Y5635625D02*
D03*
%TF.MD5,0527a4f3a5102848b930c13921167998*%
M02*
