%TF.GenerationSoftware,Altium Limited,Altium Designer,23.4.1 (23)*%
G04 Layer_Color=8421504*
%FSLAX45Y45*%
%MOMM*%
%TF.SameCoordinates,06F9E411-BB4A-4FCF-AF8D-8E7D50D0EFEC*%
%TF.FilePolarity,Positive*%
%TF.FileFunction,Paste,Top*%
%TF.Part,Single*%
G01*
G75*
%TA.AperFunction,SMDPad,CuDef*%
G04:AMPARAMS|DCode=11|XSize=0.94mm|YSize=1.02mm|CornerRadius=0.094mm|HoleSize=0mm|Usage=FLASHONLY|Rotation=270.000|XOffset=0mm|YOffset=0mm|HoleType=Round|Shape=RoundedRectangle|*
%AMROUNDEDRECTD11*
21,1,0.94000,0.83200,0,0,270.0*
21,1,0.75200,1.02000,0,0,270.0*
1,1,0.18800,-0.41600,-0.37600*
1,1,0.18800,-0.41600,0.37600*
1,1,0.18800,0.41600,0.37600*
1,1,0.18800,0.41600,-0.37600*
%
%ADD11ROUNDEDRECTD11*%
%ADD12R,1.00000X1.10000*%
%ADD13R,3.75000X3.75000*%
%ADD14R,0.15000X0.80000*%
%ADD15R,0.80000X0.15000*%
%ADD16R,5.60000X2.10000*%
D11*
X333375Y1222000D02*
D03*
Y1064000D02*
D03*
X555625D02*
D03*
Y1222000D02*
D03*
D12*
X2095500Y4196625D02*
D03*
Y4026625D02*
D03*
X2333625Y4196625D02*
D03*
Y4026625D02*
D03*
X2571750Y4196625D02*
D03*
Y4026625D02*
D03*
X619125Y1502500D02*
D03*
Y1672500D02*
D03*
X2682875Y1502500D02*
D03*
Y1672500D02*
D03*
D13*
X1571625Y4508500D02*
D03*
D14*
X1729125Y4258500D02*
D03*
X1694125D02*
D03*
X1659125D02*
D03*
X1624125D02*
D03*
X1589125D02*
D03*
X1554125D02*
D03*
X1519125D02*
D03*
X1484125D02*
D03*
X1449125D02*
D03*
X1414125D02*
D03*
Y4758500D02*
D03*
X1449125D02*
D03*
X1484125D02*
D03*
X1519125D02*
D03*
X1554125D02*
D03*
X1589125D02*
D03*
X1624125D02*
D03*
X1659125D02*
D03*
X1694125D02*
D03*
X1729125D02*
D03*
D15*
X1316625Y4281000D02*
D03*
Y4316000D02*
D03*
Y4351000D02*
D03*
Y4386000D02*
D03*
Y4421000D02*
D03*
Y4456000D02*
D03*
Y4491000D02*
D03*
Y4526000D02*
D03*
Y4561000D02*
D03*
Y4596000D02*
D03*
Y4631000D02*
D03*
Y4666000D02*
D03*
Y4701000D02*
D03*
Y4736000D02*
D03*
X1826625D02*
D03*
Y4701000D02*
D03*
Y4666000D02*
D03*
Y4631000D02*
D03*
Y4596000D02*
D03*
Y4561000D02*
D03*
Y4526000D02*
D03*
Y4491000D02*
D03*
Y4456000D02*
D03*
Y4421000D02*
D03*
Y4386000D02*
D03*
Y4351000D02*
D03*
Y4316000D02*
D03*
Y4281000D02*
D03*
D16*
X2125000Y1619250D02*
D03*
X1175000D02*
D03*
%TF.MD5,c3fbfa5aaac119c5e017594ff6801393*%
M02*
