%TF.GenerationSoftware,Altium Limited,Altium Designer,23.4.1 (23)*%
G04 Layer_Color=16711935*
%FSLAX45Y45*%
%MOMM*%
%TF.SameCoordinates,06F9E411-BB4A-4FCF-AF8D-8E7D50D0EFEC*%
%TF.FilePolarity,Positive*%
%TF.FileFunction,Other,Mechanical_13*%
%TF.Part,Single*%
G01*
G75*
%TA.AperFunction,NonConductor*%
%ADD28C,0.20000*%
%ADD29C,0.12700*%
%ADD46C,0.10160*%
%ADD47C,0.10000*%
G36*
X2079013Y5933685D02*
X1983990D01*
Y5983736D01*
X2079013D01*
Y5933685D01*
D02*
G37*
G36*
X2079087Y5816845D02*
X1983990D01*
Y5866787D01*
X2079087D01*
Y5816845D01*
D02*
G37*
G36*
X1273655Y5111365D02*
X1223713D01*
Y5206462D01*
X1273655D01*
Y5111365D01*
D02*
G37*
G36*
X1156815D02*
X1106764D01*
Y5206388D01*
X1156815D01*
Y5111365D01*
D02*
G37*
G36*
X2619760Y4145435D02*
X2524737D01*
Y4195486D01*
X2619760D01*
Y4145435D01*
D02*
G37*
G36*
X2381635D02*
X2286612D01*
Y4195486D01*
X2381635D01*
Y4145435D01*
D02*
G37*
G36*
X2143510D02*
X2048487D01*
Y4195486D01*
X2143510D01*
Y4145435D01*
D02*
G37*
G36*
X2619760Y4028595D02*
X2618763D01*
Y3992310D01*
X2523740D01*
Y4042361D01*
X2524663D01*
Y4078537D01*
X2619760D01*
Y4028595D01*
D02*
G37*
G36*
X2381635D02*
X2380638D01*
Y3986685D01*
X2285615D01*
Y4036736D01*
X2286538D01*
Y4078537D01*
X2381635D01*
Y4028595D01*
D02*
G37*
G36*
X2143510Y4036736D02*
X2174263D01*
Y3986685D01*
X2079240D01*
Y4028595D01*
X2048413D01*
Y4078537D01*
X2143510D01*
Y4036736D01*
D02*
G37*
G36*
X1952013Y3986685D02*
X1856990D01*
Y4036736D01*
X1952013D01*
Y3986685D01*
D02*
G37*
G36*
X1713888D02*
X1618865D01*
Y4036736D01*
X1713888D01*
Y3986685D01*
D02*
G37*
G36*
X1475763D02*
X1380740D01*
Y4036736D01*
X1475763D01*
Y3986685D01*
D02*
G37*
G36*
X2618837Y3875470D02*
X2523740D01*
Y3925412D01*
X2618837D01*
Y3875470D01*
D02*
G37*
G36*
X2380712Y3869845D02*
X2285615D01*
Y3919787D01*
X2380712D01*
Y3869845D01*
D02*
G37*
G36*
X2174337D02*
X2079240D01*
Y3919787D01*
X2174337D01*
Y3869845D01*
D02*
G37*
G36*
X1952087D02*
X1856990D01*
Y3919787D01*
X1952087D01*
Y3869845D01*
D02*
G37*
G36*
X1713962D02*
X1618865D01*
Y3919787D01*
X1713962D01*
Y3869845D01*
D02*
G37*
G36*
X1475837D02*
X1380740D01*
Y3919787D01*
X1475837D01*
Y3869845D01*
D02*
G37*
G36*
X2729962Y1620588D02*
X2634865D01*
Y1670530D01*
X2729962D01*
Y1620588D01*
D02*
G37*
G36*
X666212D02*
X571115D01*
Y1670530D01*
X666212D01*
Y1620588D01*
D02*
G37*
G36*
X2729888Y1503639D02*
X2634865D01*
Y1553690D01*
X2729888D01*
Y1503639D01*
D02*
G37*
G36*
X666138D02*
X571115D01*
Y1553690D01*
X666138D01*
Y1503639D01*
D02*
G37*
D28*
X300500Y8238000D02*
G03*
X300500Y8238000I-10000J0D01*
G01*
Y508000D02*
G03*
X300500Y508000I-10000J0D01*
G01*
X1145375Y3961450D02*
G03*
X1145375Y3961450I-10000J0D01*
G01*
X2741000Y6532000D02*
G03*
X2741000Y6532000I-10000J0D01*
G01*
X579000Y2368000D02*
G03*
X579000Y2368000I-10000J0D01*
G01*
X3183000Y3419000D02*
G03*
X3183000Y3419000I-10000J0D01*
G01*
X137000Y5581000D02*
G03*
X137000Y5581000I-10000J0D01*
G01*
D29*
X383375Y1053000D02*
Y1233000D01*
X283375Y1053000D02*
Y1233000D01*
Y1053000D02*
X383375D01*
X283375Y1233000D02*
X383375D01*
X505625Y1053000D02*
Y1233000D01*
X605625Y1053000D02*
Y1233000D01*
X505625D02*
X605625D01*
X505625Y1053000D02*
X605625D01*
X2336000Y5815500D02*
Y5995500D01*
X2236000Y5815500D02*
Y5995500D01*
X2336000D01*
X2236000Y5815500D02*
X2336000D01*
X635875Y4743750D02*
X1173875D01*
X635875Y4209750D02*
Y4743750D01*
Y4209750D02*
X1173875D01*
Y4743750D01*
X859625Y5275750D02*
Y5455750D01*
X759625Y5275750D02*
Y5455750D01*
X859625D01*
X759625Y5275750D02*
X859625D01*
X1045375Y5355125D02*
Y5535125D01*
X1145375Y5355125D02*
Y5535125D01*
X1045375Y5355125D02*
X1145375D01*
X1045375Y5535125D02*
X1145375D01*
X2666000Y6163500D02*
Y6646500D01*
X634000Y6163500D02*
X2666000D01*
X634000D02*
Y6646500D01*
X2666000D01*
Y6163500D02*
Y6646500D01*
X634000Y6163500D02*
X2666000D01*
X634000D02*
Y6646500D01*
Y2253500D02*
Y2736500D01*
X2666000D01*
Y2253500D02*
Y2736500D01*
X634000Y2253500D02*
X2666000D01*
X634000D02*
Y2736500D01*
X2666000D01*
Y2253500D02*
Y2736500D01*
X2804500Y3484000D02*
X3287500D01*
X2804500D02*
Y5516000D01*
X3287500D01*
Y3484000D02*
Y5516000D01*
X2804500Y3484000D02*
X3287500D01*
X2804500D02*
Y5516000D01*
X3287500D01*
X12500D02*
X495500D01*
Y3484000D02*
Y5516000D01*
X12500Y3484000D02*
X495500D01*
X12500D02*
Y5516000D01*
X495500D01*
Y3484000D02*
Y5516000D01*
X12500Y3484000D02*
X495500D01*
X1080000Y1384250D02*
X2220000D01*
X1080000Y1854250D02*
X2220000D01*
Y1384250D02*
Y1854250D01*
X1080000Y1384250D02*
Y1854250D01*
D46*
X2073900Y5864275D02*
Y5935475D01*
X1988800Y5864275D02*
Y5935475D01*
X1155025Y5116175D02*
X1226225D01*
X1155025Y5201275D02*
X1226225D01*
X2138700Y4076025D02*
Y4147225D01*
X2053600Y4076025D02*
Y4147225D01*
X2376825Y4076025D02*
Y4147225D01*
X2291725Y4076025D02*
Y4147225D01*
X2614950Y4076025D02*
Y4147225D01*
X2529850Y4076025D02*
Y4147225D01*
X2528550Y3922900D02*
Y3994100D01*
X2613650Y3922900D02*
Y3994100D01*
X2290425Y3917275D02*
Y3988475D01*
X2375525Y3917275D02*
Y3988475D01*
X2084050Y3917275D02*
Y3988475D01*
X2169150Y3917275D02*
Y3988475D01*
X1385550Y3917275D02*
Y3988475D01*
X1470650Y3917275D02*
Y3988475D01*
X1623675Y3917275D02*
Y3988475D01*
X1708775Y3917275D02*
Y3988475D01*
X1861800Y3917275D02*
Y3988475D01*
X1946900Y3917275D02*
Y3988475D01*
X575925Y1551900D02*
Y1623100D01*
X661025Y1551900D02*
Y1623100D01*
X2639675Y1551900D02*
Y1623100D01*
X2724775Y1551900D02*
Y1623100D01*
D47*
X355500Y8117350D02*
Y8612650D01*
X2946500D01*
Y8117350D02*
Y8612650D01*
X355500Y8117350D02*
X2946500D01*
X355500D02*
Y8612650D01*
X2946500D01*
Y8117350D02*
Y8612650D01*
X355500Y387350D02*
Y882650D01*
X2946500D01*
Y387350D02*
Y882650D01*
X355500Y387350D02*
X2946500D01*
X355500D02*
Y882650D01*
X2946500D01*
Y387350D02*
Y882650D01*
%TF.MD5,fcdd36d0203e0432ddfc9baf5f243b76*%
M02*
