%TF.GenerationSoftware,Altium Limited,Altium Designer,23.4.1 (23)*%
G04 Layer_Color=32896*
%FSLAX45Y45*%
%MOMM*%
%TF.SameCoordinates,06F9E411-BB4A-4FCF-AF8D-8E7D50D0EFEC*%
%TF.FilePolarity,Positive*%
%TF.FileFunction,Legend,Bot*%
%TF.Part,Single*%
G01*
G75*
%TA.AperFunction,NonConductor*%
%ADD28C,0.20000*%
%ADD29C,0.12700*%
%ADD30C,0.25400*%
D28*
X300500Y8238000D02*
G03*
X300500Y8238000I-10000J0D01*
G01*
Y508000D02*
G03*
X300500Y508000I-10000J0D01*
G01*
X1145375Y3961450D02*
G03*
X1145375Y3961450I-10000J0D01*
G01*
X355500Y8117350D02*
X2946500D01*
X355500Y8612650D02*
X2946500D01*
X355500Y8117350D02*
Y8612650D01*
X2946500Y8117350D02*
Y8612650D01*
X355500Y387350D02*
X2946500D01*
X355500Y882650D02*
X2946500D01*
X355500Y387350D02*
Y882650D01*
X2946500Y387350D02*
Y882650D01*
D29*
X2355000Y5825500D02*
Y5985500D01*
X2217000Y5825500D02*
Y5985500D01*
X2077000Y5884875D02*
Y5914875D01*
X1987000Y5884875D02*
Y5914875D01*
X635875Y4209750D02*
X667375D01*
X635875Y4743750D02*
X667375D01*
X1142375D02*
X1173875D01*
X1142375Y4209750D02*
X1173875D01*
X635875D02*
Y4743750D01*
X1173875Y4209750D02*
Y4743750D01*
X1175625Y5114375D02*
X1205625D01*
X1175625Y5204375D02*
X1205625D01*
X878625Y5285750D02*
Y5445750D01*
X740625Y5285750D02*
Y5445750D01*
X1026375Y5365125D02*
Y5525125D01*
X1164375Y5365125D02*
Y5525125D01*
X2526750Y3943500D02*
Y3973500D01*
X2616750Y3943500D02*
Y3973500D01*
X2288625Y3937875D02*
Y3967875D01*
X2378625Y3937875D02*
Y3967875D01*
X2082250Y3937875D02*
Y3967875D01*
X2172250Y3937875D02*
Y3967875D01*
X1383750Y3937875D02*
Y3967875D01*
X1473750Y3937875D02*
Y3967875D01*
X1621875Y3937875D02*
Y3967875D01*
X1711875Y3937875D02*
Y3967875D01*
X1860000Y3937875D02*
Y3967875D01*
X1950000Y3937875D02*
Y3967875D01*
D30*
X1400158Y4632300D02*
Y4505342D01*
X1374767Y4479950D01*
X1323983D01*
X1298591Y4505342D01*
Y4632300D01*
X2746334Y5940450D02*
Y6092800D01*
X2670158D01*
X2644767Y6067408D01*
Y6016625D01*
X2670158Y5991233D01*
X2746334D01*
X2695550D02*
X2644767Y5940450D01*
X2593983Y6067408D02*
X2568591Y6092800D01*
X2517808D01*
X2492416Y6067408D01*
Y6042017D01*
X2517808Y6016625D01*
X2543200D01*
X2517808D01*
X2492416Y5991233D01*
Y5965842D01*
X2517808Y5940450D01*
X2568591D01*
X2593983Y5965842D01*
X1269959Y5765825D02*
Y5918175D01*
X1193783D01*
X1168392Y5892783D01*
Y5842000D01*
X1193783Y5816608D01*
X1269959D01*
X1219175D02*
X1168392Y5765825D01*
X1016041D02*
X1117608D01*
X1016041Y5867392D01*
Y5892783D01*
X1041433Y5918175D01*
X1092216D01*
X1117608Y5892783D01*
X911192Y5765825D02*
Y5918175D01*
X835017D01*
X809625Y5892783D01*
Y5842000D01*
X835017Y5816608D01*
X911192D01*
X860408D02*
X809625Y5765825D01*
X758841D02*
X708058D01*
X733449D01*
Y5918175D01*
X758841Y5892783D01*
X1692246Y5210158D02*
X1717638Y5235550D01*
X1768421D01*
X1793813Y5210158D01*
Y5108592D01*
X1768421Y5083200D01*
X1717638D01*
X1692246Y5108592D01*
X1641463Y5083200D02*
X1590679D01*
X1616071D01*
Y5235550D01*
X1641463Y5210158D01*
X1514504D02*
X1489112Y5235550D01*
X1438328D01*
X1412936Y5210158D01*
Y5184767D01*
X1438328Y5159375D01*
X1463720D01*
X1438328D01*
X1412936Y5133983D01*
Y5108592D01*
X1438328Y5083200D01*
X1489112D01*
X1514504Y5108592D01*
X1362092Y3597267D02*
X1336700Y3622658D01*
Y3673442D01*
X1362092Y3698834D01*
X1463658D01*
X1489050Y3673442D01*
Y3622658D01*
X1463658Y3597267D01*
Y3546483D02*
X1489050Y3521091D01*
Y3470308D01*
X1463658Y3444916D01*
X1362092D01*
X1336700Y3470308D01*
Y3521091D01*
X1362092Y3546483D01*
X1387483D01*
X1412875Y3521091D01*
Y3444916D01*
X1600217Y3597267D02*
X1574825Y3622658D01*
Y3673442D01*
X1600217Y3698834D01*
X1701783D01*
X1727175Y3673442D01*
Y3622658D01*
X1701783Y3597267D01*
X1600217Y3546483D02*
X1574825Y3521091D01*
Y3470308D01*
X1600217Y3444916D01*
X1625608D01*
X1651000Y3470308D01*
X1676392Y3444916D01*
X1701783D01*
X1727175Y3470308D01*
Y3521091D01*
X1701783Y3546483D01*
X1676392D01*
X1651000Y3521091D01*
X1625608Y3546483D01*
X1600217D01*
X1651000Y3521091D02*
Y3470308D01*
X1854217Y3613142D02*
X1828825Y3638533D01*
Y3689317D01*
X1854217Y3714709D01*
X1955783D01*
X1981175Y3689317D01*
Y3638533D01*
X1955783Y3613142D01*
X1828825Y3562358D02*
Y3460791D01*
X1854217D01*
X1955783Y3562358D01*
X1981175D01*
X2060592Y3629017D02*
X2035200Y3654408D01*
Y3705192D01*
X2060592Y3730584D01*
X2162158D01*
X2187550Y3705192D01*
Y3654408D01*
X2162158Y3629017D01*
X2035200Y3476666D02*
X2060592Y3527450D01*
X2111375Y3578233D01*
X2162158D01*
X2187550Y3552841D01*
Y3502058D01*
X2162158Y3476666D01*
X2136767D01*
X2111375Y3502058D01*
Y3578233D01*
X2282842Y3629017D02*
X2257450Y3654408D01*
Y3705192D01*
X2282842Y3730584D01*
X2384408D01*
X2409800Y3705192D01*
Y3654408D01*
X2384408Y3629017D01*
X2257450Y3476666D02*
Y3578233D01*
X2333625D01*
X2308233Y3527450D01*
Y3502058D01*
X2333625Y3476666D01*
X2384408D01*
X2409800Y3502058D01*
Y3552841D01*
X2384408Y3578233D01*
X2520967Y3629017D02*
X2495575Y3654408D01*
Y3705192D01*
X2520967Y3730584D01*
X2622533D01*
X2647925Y3705192D01*
Y3654408D01*
X2622533Y3629017D01*
X2647925Y3502058D02*
X2495575D01*
X2571750Y3578233D01*
Y3476666D01*
X1762125Y5972158D02*
X1787517Y5997550D01*
X1838300D01*
X1863692Y5972158D01*
Y5870592D01*
X1838300Y5845200D01*
X1787517D01*
X1762125Y5870592D01*
X1711341Y5845200D02*
X1660558D01*
X1685949D01*
Y5997550D01*
X1711341Y5972158D01*
X1739892Y1139800D02*
X1790675D01*
X1765283D01*
Y1012842D01*
X1790675Y987450D01*
X1816067D01*
X1841459Y1012842D01*
X1587541Y987450D02*
X1689108D01*
X1587541Y1089017D01*
Y1114408D01*
X1612933Y1139800D01*
X1663716D01*
X1689108Y1114408D01*
X1730375Y8902675D02*
X1781158D01*
X1755767D01*
Y8775717D01*
X1781158Y8750325D01*
X1806550D01*
X1831942Y8775717D01*
X1679591Y8750325D02*
X1628808D01*
X1654199D01*
Y8902675D01*
X1679591Y8877283D01*
%TF.MD5,ca20d4adfe543a65ca12e21bf249b88c*%
M02*
