%TF.GenerationSoftware,Altium Limited,Altium Designer,23.4.1 (23)*%
G04 Layer_Color=65535*
%FSLAX45Y45*%
%MOMM*%
%TF.SameCoordinates,06F9E411-BB4A-4FCF-AF8D-8E7D50D0EFEC*%
%TF.FilePolarity,Positive*%
%TF.FileFunction,Legend,Top*%
%TF.Part,Single*%
G01*
G75*
%TA.AperFunction,NonConductor*%
%ADD27C,0.17500*%
%ADD28C,0.20000*%
%ADD29C,0.12700*%
%ADD30C,0.25400*%
G36*
X1728571Y6087027D02*
X1731935D01*
Y6083663D01*
Y6080299D01*
X1735300D01*
Y6076934D01*
Y6073570D01*
X1738664D01*
Y6070206D01*
X1742029D01*
Y6066841D01*
X1745393D01*
Y6063477D01*
Y6060113D01*
X1748757D01*
Y6056748D01*
X1752121D01*
Y6053384D01*
Y6050019D01*
X1755486D01*
Y6046655D01*
X1758850D01*
Y6043291D01*
Y6039926D01*
X1762215D01*
Y6036562D01*
Y6033198D01*
X1765579D01*
Y6029833D01*
X1768943D01*
Y6026469D01*
X1772308D01*
Y6023105D01*
Y6019740D01*
X1775672D01*
Y6016376D01*
X1779037D01*
Y6013011D01*
Y6009647D01*
X1782401D01*
Y6006283D01*
X1785765D01*
Y6002918D01*
Y5999554D01*
X1789130D01*
Y5996190D01*
X1792494D01*
Y5992825D01*
X1795858D01*
Y5989461D01*
Y5986096D01*
X1799222D01*
Y5982732D01*
Y5979368D01*
X1802587D01*
Y5976003D01*
X1805951D01*
Y5972639D01*
Y5969275D01*
X1809316D01*
Y5965910D01*
X1812680D01*
Y5962546D01*
Y5959182D01*
X1816044D01*
Y5955817D01*
X1819409D01*
Y5952453D01*
Y5949088D01*
X1822773D01*
Y5945724D01*
X1826138D01*
Y5942360D01*
Y5938995D01*
X1829502D01*
Y5935631D01*
X1832866D01*
Y5932267D01*
X1836231D01*
Y5928902D01*
Y5925538D01*
X1839595D01*
Y5922174D01*
X1842959D01*
Y5918809D01*
Y5915445D01*
X1846324D01*
Y5912080D01*
X1849688D01*
Y5908716D01*
Y5905352D01*
X1853052D01*
Y5901987D01*
X1856417D01*
Y5898623D01*
Y5895259D01*
X1859781D01*
Y5891894D01*
X1863146D01*
Y5888530D01*
Y5885166D01*
X1866510D01*
Y5881801D01*
X1869874D01*
Y5878437D01*
Y5875072D01*
X1873239D01*
Y5871708D01*
X1876603D01*
Y5868344D01*
Y5864979D01*
X1879968D01*
Y5861615D01*
X1883332D01*
Y5858251D01*
Y5854886D01*
X1886696D01*
Y5851522D01*
X1890060D01*
Y5848157D01*
Y5844793D01*
X1893425D01*
Y5841429D01*
X1896789D01*
Y5838064D01*
Y5834700D01*
X1900154D01*
Y5831336D01*
X1903518D01*
Y5827971D01*
X1906882D01*
Y5824607D01*
Y5821243D01*
X1910247D01*
Y5817878D01*
X1913611D01*
Y5814514D01*
Y5811149D01*
X1916975D01*
Y5807785D01*
X1731935D01*
Y5811149D01*
X1728571D01*
Y5814514D01*
X1725207D01*
Y5817878D01*
Y5821243D01*
X1721842D01*
Y5824607D01*
X1718478D01*
Y5827971D01*
X1715114D01*
Y5831336D01*
Y5834700D01*
X1711749D01*
Y5838064D01*
X1708385D01*
Y5841429D01*
Y5844793D01*
X1705020D01*
Y5848157D01*
X1701656D01*
Y5851522D01*
Y5854886D01*
X1698292D01*
Y5858251D01*
X1694927D01*
Y5861615D01*
Y5864979D01*
X1691563D01*
Y5868344D01*
X1688199D01*
Y5871708D01*
Y5875072D01*
X1684834D01*
Y5878437D01*
X1681470D01*
Y5881801D01*
Y5885166D01*
X1678106D01*
Y5888530D01*
X1674741D01*
Y5891894D01*
Y5895259D01*
X1671377D01*
Y5898623D01*
X1668012D01*
Y5901987D01*
Y5905352D01*
X1664648D01*
Y5908716D01*
X1661284D01*
Y5912080D01*
X1657919D01*
Y5915445D01*
Y5918809D01*
X1654555D01*
Y5922174D01*
X1651190D01*
Y5925538D01*
Y5928902D01*
X1647826D01*
Y5932267D01*
X1644462D01*
Y5935631D01*
Y5938995D01*
X1641098D01*
Y5942360D01*
X1637733D01*
Y5945724D01*
Y5949088D01*
X1634369D01*
Y5952453D01*
X1631004D01*
Y5955817D01*
Y5959182D01*
X1627640D01*
Y5962546D01*
X1624276D01*
Y5965910D01*
Y5969275D01*
X1620911D01*
Y5972639D01*
X1617547D01*
Y5976003D01*
Y5979368D01*
X1614183D01*
Y5982732D01*
X1610818D01*
Y5986096D01*
Y5989461D01*
X1607454D01*
Y5992825D01*
X1604090D01*
Y5996190D01*
Y5999554D01*
X1600725D01*
Y6002918D01*
X1597361D01*
Y6006283D01*
Y6009647D01*
X1593996D01*
Y6013011D01*
X1590632D01*
Y6016376D01*
Y6019740D01*
X1583903D01*
Y6016376D01*
X1580539D01*
Y6013011D01*
Y6009647D01*
X1577175D01*
Y6006283D01*
X1573810D01*
Y6002918D01*
Y5999554D01*
X1570446D01*
Y5996190D01*
X1567081D01*
Y5992825D01*
X1563717D01*
Y5989461D01*
Y5986096D01*
X1560353D01*
Y5982732D01*
X1556988D01*
Y5979368D01*
Y5976003D01*
X1553624D01*
Y5972639D01*
X1550260D01*
Y5969275D01*
X1546895D01*
Y5965910D01*
Y5962546D01*
X1543531D01*
Y5959182D01*
X1540167D01*
Y5955817D01*
Y5952453D01*
X1536802D01*
Y5949088D01*
X1533438D01*
Y5945724D01*
Y5942360D01*
X1530073D01*
Y5938995D01*
X1526709D01*
Y5935631D01*
X1523345D01*
Y5932267D01*
Y5928902D01*
X1519980D01*
Y5925538D01*
Y5922174D01*
X1516616D01*
Y5918809D01*
X1513252D01*
Y5915445D01*
X1509887D01*
Y5912080D01*
Y5908716D01*
X1506523D01*
Y5905352D01*
X1503159D01*
Y5901987D01*
Y5898623D01*
X1499794D01*
Y5895259D01*
X1496430D01*
Y5891894D01*
X1493065D01*
Y5888530D01*
Y5885166D01*
X1489701D01*
Y5881801D01*
X1486337D01*
Y5878437D01*
Y5875072D01*
X1482972D01*
Y5871708D01*
X1479608D01*
Y5868344D01*
Y5864979D01*
X1476244D01*
Y5861615D01*
X1472879D01*
Y5858251D01*
X1469515D01*
Y5854886D01*
Y5851522D01*
X1466150D01*
Y5848157D01*
X1462786D01*
Y5844793D01*
Y5841429D01*
X1459422D01*
Y5838064D01*
X1456057D01*
Y5834700D01*
X1452693D01*
Y5831336D01*
Y5827971D01*
X1449329D01*
Y5824607D01*
Y5821243D01*
X1530073D01*
Y5817878D01*
X1536802D01*
Y5821243D01*
X1540167D01*
Y5824607D01*
X1543531D01*
Y5827971D01*
X1546895D01*
Y5831336D01*
Y5834700D01*
X1550260D01*
Y5838064D01*
Y5841429D01*
X1553624D01*
Y5844793D01*
X1556988D01*
Y5848157D01*
X1560353D01*
Y5851522D01*
Y5854886D01*
X1563717D01*
Y5858251D01*
X1567081D01*
Y5861615D01*
Y5864979D01*
X1570446D01*
Y5868344D01*
X1573810D01*
Y5871708D01*
Y5875072D01*
X1577175D01*
Y5878437D01*
X1580539D01*
Y5881801D01*
X1583903D01*
Y5885166D01*
Y5888530D01*
X1587268D01*
Y5891894D01*
X1590632D01*
Y5895259D01*
Y5898623D01*
X1593996D01*
Y5901987D01*
X1597361D01*
Y5905352D01*
X1600725D01*
Y5908716D01*
Y5912080D01*
X1604090D01*
Y5915445D01*
X1607454D01*
Y5918809D01*
Y5922174D01*
X1610818D01*
Y5918809D01*
Y5915445D01*
X1614183D01*
Y5912080D01*
Y5908716D01*
X1617547D01*
Y5905352D01*
X1620911D01*
Y5901987D01*
X1624276D01*
Y5898623D01*
Y5895259D01*
X1627640D01*
Y5891894D01*
X1631004D01*
Y5888530D01*
Y5885166D01*
Y5881801D01*
X1627640D01*
Y5878437D01*
X1624276D01*
Y5875072D01*
X1620911D01*
Y5871708D01*
Y5868344D01*
X1617547D01*
Y5864979D01*
X1614183D01*
Y5861615D01*
Y5858251D01*
X1610818D01*
Y5854886D01*
X1607454D01*
Y5851522D01*
X1604090D01*
Y5848157D01*
Y5844793D01*
X1600725D01*
Y5841429D01*
X1597361D01*
Y5838064D01*
Y5834700D01*
X1593996D01*
Y5831336D01*
X1590632D01*
Y5827971D01*
Y5824607D01*
X1587268D01*
Y5821243D01*
X1583903D01*
Y5817878D01*
X1580539D01*
Y5814514D01*
Y5811149D01*
X1577175D01*
Y5807785D01*
X1573810D01*
Y5804421D01*
Y5801056D01*
X1570446D01*
Y5797692D01*
X1567081D01*
Y5794328D01*
X1563717D01*
Y5790963D01*
Y5787599D01*
X1560353D01*
Y5784235D01*
X1368584D01*
Y5787599D01*
X1371948D01*
Y5790963D01*
X1375313D01*
Y5794328D01*
X1378677D01*
Y5797692D01*
X1382041D01*
Y5801056D01*
Y5804421D01*
X1385406D01*
Y5807785D01*
X1388770D01*
Y5811149D01*
Y5814514D01*
X1392134D01*
Y5817878D01*
X1395499D01*
Y5821243D01*
Y5824607D01*
X1398863D01*
Y5827971D01*
X1402228D01*
Y5831336D01*
Y5834700D01*
X1405592D01*
Y5838064D01*
X1408956D01*
Y5841429D01*
X1412321D01*
Y5844793D01*
Y5848157D01*
X1415685D01*
Y5851522D01*
X1419049D01*
Y5854886D01*
Y5858251D01*
X1422414D01*
Y5861615D01*
X1425778D01*
Y5864979D01*
X1429142D01*
Y5868344D01*
Y5871708D01*
X1432507D01*
Y5875072D01*
X1435871D01*
Y5878437D01*
Y5881801D01*
X1439236D01*
Y5885166D01*
X1442600D01*
Y5888530D01*
Y5891894D01*
X1445964D01*
Y5895259D01*
X1449329D01*
Y5898623D01*
X1452693D01*
Y5901987D01*
Y5905352D01*
X1456057D01*
Y5908716D01*
X1459422D01*
Y5912080D01*
Y5915445D01*
X1462786D01*
Y5918809D01*
X1466150D01*
Y5922174D01*
X1469515D01*
Y5925538D01*
Y5928902D01*
X1472879D01*
Y5932267D01*
X1476244D01*
Y5935631D01*
Y5938995D01*
X1479608D01*
Y5942360D01*
X1482972D01*
Y5945724D01*
X1486337D01*
Y5949088D01*
Y5952453D01*
X1489701D01*
Y5955817D01*
X1493065D01*
Y5959182D01*
Y5962546D01*
X1496430D01*
Y5965910D01*
X1499794D01*
Y5969275D01*
Y5972639D01*
X1503159D01*
Y5976003D01*
X1506523D01*
Y5979368D01*
Y5982732D01*
X1509887D01*
Y5986096D01*
X1513252D01*
Y5989461D01*
Y5992825D01*
X1516616D01*
Y5996190D01*
X1519980D01*
Y5999554D01*
X1523345D01*
Y6002918D01*
Y6006283D01*
X1526709D01*
Y6009647D01*
X1530073D01*
Y6013011D01*
Y6016376D01*
X1533438D01*
Y6019740D01*
X1536802D01*
Y6023105D01*
Y6026469D01*
X1540167D01*
Y6029833D01*
X1543531D01*
Y6033198D01*
X1546895D01*
Y6036562D01*
Y6039926D01*
X1550260D01*
Y6043291D01*
X1553624D01*
Y6046655D01*
Y6050019D01*
X1556988D01*
Y6053384D01*
X1560353D01*
Y6056748D01*
X1563717D01*
Y6060113D01*
Y6063477D01*
X1567081D01*
Y6066841D01*
X1570446D01*
Y6070206D01*
Y6073570D01*
X1573810D01*
Y6076934D01*
X1577175D01*
Y6080299D01*
X1580539D01*
Y6083663D01*
Y6087027D01*
X1583903D01*
Y6090392D01*
X1587268D01*
Y6087027D01*
X1590632D01*
Y6083663D01*
Y6080299D01*
X1593996D01*
Y6076934D01*
X1597361D01*
Y6073570D01*
Y6070206D01*
X1600725D01*
Y6066841D01*
X1604090D01*
Y6063477D01*
Y6060113D01*
X1607454D01*
Y6056748D01*
X1610818D01*
Y6053384D01*
Y6050019D01*
X1614183D01*
Y6046655D01*
X1617547D01*
Y6043291D01*
X1620911D01*
Y6039926D01*
Y6036562D01*
X1624276D01*
Y6033198D01*
X1627640D01*
Y6029833D01*
Y6026469D01*
X1631004D01*
Y6023105D01*
X1634369D01*
Y6019740D01*
Y6016376D01*
X1637733D01*
Y6013011D01*
X1641098D01*
Y6009647D01*
Y6006283D01*
X1644462D01*
Y6002918D01*
Y5999554D01*
X1647826D01*
Y5996190D01*
X1651190D01*
Y5992825D01*
X1654555D01*
Y5989461D01*
Y5986096D01*
X1657919D01*
Y5982732D01*
X1661284D01*
Y5979368D01*
Y5976003D01*
X1664648D01*
Y5972639D01*
X1668012D01*
Y5969275D01*
Y5965910D01*
X1671377D01*
Y5962546D01*
X1674741D01*
Y5959182D01*
Y5955817D01*
X1678106D01*
Y5952453D01*
X1681470D01*
Y5949088D01*
Y5945724D01*
X1684834D01*
Y5942360D01*
X1688199D01*
Y5938995D01*
Y5935631D01*
X1691563D01*
Y5932267D01*
X1694927D01*
Y5928902D01*
X1698292D01*
Y5925538D01*
Y5922174D01*
X1701656D01*
Y5918809D01*
X1705020D01*
Y5915445D01*
Y5912080D01*
X1708385D01*
Y5908716D01*
Y5905352D01*
X1711749D01*
Y5901987D01*
X1715114D01*
Y5898623D01*
X1718478D01*
Y5895259D01*
Y5891894D01*
X1721842D01*
Y5888530D01*
Y5885166D01*
X1725207D01*
Y5881801D01*
X1728571D01*
Y5878437D01*
X1731935D01*
Y5875072D01*
Y5871708D01*
X1735300D01*
Y5868344D01*
X1738664D01*
Y5864979D01*
Y5861615D01*
X1742029D01*
Y5858251D01*
X1745393D01*
Y5854886D01*
Y5851522D01*
X1748757D01*
Y5848157D01*
X1752121D01*
Y5844793D01*
Y5841429D01*
X1842959D01*
Y5844793D01*
Y5848157D01*
X1839595D01*
Y5851522D01*
Y5854886D01*
X1836231D01*
Y5858251D01*
X1832866D01*
Y5861615D01*
Y5864979D01*
X1829502D01*
Y5868344D01*
X1826138D01*
Y5871708D01*
X1822773D01*
Y5875072D01*
Y5878437D01*
X1819409D01*
Y5881801D01*
Y5885166D01*
X1816044D01*
Y5888530D01*
X1812680D01*
Y5891894D01*
X1809316D01*
Y5895259D01*
Y5898623D01*
X1805951D01*
Y5901987D01*
X1802587D01*
Y5905352D01*
Y5908716D01*
X1799222D01*
Y5912080D01*
X1795858D01*
Y5915445D01*
Y5918809D01*
X1792494D01*
Y5922174D01*
X1789130D01*
Y5925538D01*
Y5928902D01*
X1785765D01*
Y5932267D01*
X1782401D01*
Y5935631D01*
X1779037D01*
Y5938995D01*
Y5942360D01*
X1775672D01*
Y5945724D01*
X1772308D01*
Y5949088D01*
Y5952453D01*
X1768943D01*
Y5955817D01*
X1765579D01*
Y5959182D01*
Y5962546D01*
X1762215D01*
Y5965910D01*
X1758850D01*
Y5969275D01*
Y5972639D01*
X1755486D01*
Y5976003D01*
X1752121D01*
Y5979368D01*
Y5982732D01*
X1748757D01*
Y5986096D01*
X1745393D01*
Y5989461D01*
Y5992825D01*
X1742029D01*
Y5996190D01*
X1738664D01*
Y5999554D01*
Y6002918D01*
X1735300D01*
Y6006283D01*
X1731935D01*
Y6009647D01*
X1728571D01*
Y6013011D01*
Y6016376D01*
X1718478D01*
Y6013011D01*
Y6009647D01*
X1715114D01*
Y6006283D01*
X1711749D01*
Y6002918D01*
Y5999554D01*
X1708385D01*
Y5996190D01*
X1705020D01*
Y5992825D01*
Y5989461D01*
X1701656D01*
Y5986096D01*
X1698292D01*
Y5989461D01*
Y5992825D01*
X1694927D01*
Y5996190D01*
Y5999554D01*
X1691563D01*
Y6002918D01*
X1688199D01*
Y6006283D01*
X1684834D01*
Y6009647D01*
Y6013011D01*
X1681470D01*
Y6016376D01*
X1678106D01*
Y6019740D01*
Y6023105D01*
X1681470D01*
Y6026469D01*
X1684834D01*
Y6029833D01*
Y6033198D01*
X1688199D01*
Y6036562D01*
X1691563D01*
Y6039926D01*
Y6043291D01*
X1694927D01*
Y6046655D01*
X1698292D01*
Y6050019D01*
Y6053384D01*
X1701656D01*
Y6056748D01*
X1705020D01*
Y6060113D01*
Y6063477D01*
X1708385D01*
Y6066841D01*
Y6070206D01*
X1711749D01*
Y6073570D01*
X1715114D01*
Y6076934D01*
Y6080299D01*
X1718478D01*
Y6083663D01*
X1721842D01*
Y6087027D01*
Y6090392D01*
X1728571D01*
Y6087027D01*
D02*
G37*
G36*
X1563717Y5727040D02*
Y5723676D01*
X1567081D01*
Y5720312D01*
Y5716947D01*
X1570446D01*
Y5713583D01*
X1573810D01*
Y5710218D01*
X1577175D01*
Y5706854D01*
X1580539D01*
Y5703490D01*
Y5700126D01*
X1583903D01*
Y5696761D01*
Y5693397D01*
X1587268D01*
Y5690032D01*
X1590632D01*
Y5686668D01*
X1593996D01*
Y5683304D01*
Y5679939D01*
X1597361D01*
Y5676575D01*
X1600725D01*
Y5673210D01*
Y5669846D01*
X1604090D01*
Y5666482D01*
X1607454D01*
Y5663117D01*
X1610818D01*
Y5659753D01*
Y5656389D01*
X1614183D01*
Y5653024D01*
X1617547D01*
Y5649660D01*
Y5646296D01*
X1620911D01*
Y5642931D01*
X1624276D01*
Y5639567D01*
Y5636203D01*
X1627640D01*
Y5632838D01*
X1631004D01*
Y5629474D01*
Y5626109D01*
X1627640D01*
Y5622745D01*
Y5619381D01*
X1624276D01*
Y5616016D01*
X1620911D01*
Y5612652D01*
X1617547D01*
Y5609287D01*
Y5605923D01*
X1614183D01*
Y5602559D01*
X1610818D01*
Y5599195D01*
Y5595830D01*
X1607454D01*
Y5599195D01*
X1604090D01*
Y5602559D01*
Y5605923D01*
X1600725D01*
Y5609287D01*
X1597361D01*
Y5612652D01*
Y5616016D01*
X1593996D01*
Y5619381D01*
X1590632D01*
Y5622745D01*
X1587268D01*
Y5626109D01*
Y5629474D01*
X1583903D01*
Y5632838D01*
X1580539D01*
Y5636203D01*
Y5639567D01*
X1577175D01*
Y5642931D01*
X1573810D01*
Y5646296D01*
Y5649660D01*
X1570446D01*
Y5653024D01*
X1567081D01*
Y5656389D01*
X1563717D01*
Y5659753D01*
Y5663117D01*
X1560353D01*
Y5666482D01*
X1556988D01*
Y5669846D01*
Y5673210D01*
X1553624D01*
Y5676575D01*
X1550260D01*
Y5679939D01*
Y5683304D01*
X1546895D01*
Y5686668D01*
X1543531D01*
Y5690032D01*
X1540167D01*
Y5693397D01*
Y5696761D01*
X1449329D01*
Y5693397D01*
Y5690032D01*
Y5686668D01*
X1452693D01*
Y5683304D01*
X1456057D01*
Y5679939D01*
X1459422D01*
Y5676575D01*
Y5673210D01*
X1462786D01*
Y5669846D01*
X1466150D01*
Y5666482D01*
Y5663117D01*
X1469515D01*
Y5659753D01*
X1472879D01*
Y5656389D01*
X1476244D01*
Y5653024D01*
Y5649660D01*
X1479608D01*
Y5646296D01*
X1482972D01*
Y5642931D01*
Y5639567D01*
X1486337D01*
Y5636203D01*
X1489701D01*
Y5632838D01*
Y5629474D01*
X1493065D01*
Y5626109D01*
X1496430D01*
Y5622745D01*
X1499794D01*
Y5619381D01*
Y5616016D01*
X1503159D01*
Y5612652D01*
X1506523D01*
Y5609287D01*
Y5605923D01*
X1509887D01*
Y5602559D01*
X1513252D01*
Y5599195D01*
Y5595830D01*
X1516616D01*
Y5592466D01*
X1519980D01*
Y5589101D01*
X1523345D01*
Y5585737D01*
Y5582373D01*
X1526709D01*
Y5579008D01*
X1530073D01*
Y5575644D01*
Y5572279D01*
X1533438D01*
Y5568915D01*
X1536802D01*
Y5565551D01*
Y5562186D01*
X1540167D01*
Y5558822D01*
X1543531D01*
Y5555458D01*
X1546895D01*
Y5552094D01*
Y5548729D01*
X1550260D01*
Y5545365D01*
X1553624D01*
Y5542000D01*
Y5538636D01*
X1556988D01*
Y5535272D01*
X1560353D01*
Y5531907D01*
X1563717D01*
Y5528543D01*
Y5525178D01*
X1567081D01*
Y5521814D01*
Y5518450D01*
X1570446D01*
Y5515085D01*
X1573810D01*
Y5511721D01*
X1577175D01*
Y5508357D01*
Y5504992D01*
X1580539D01*
Y5501628D01*
X1583903D01*
Y5498264D01*
X1590632D01*
Y5501628D01*
X1593996D01*
Y5504992D01*
Y5508357D01*
X1597361D01*
Y5511721D01*
Y5515085D01*
X1600725D01*
Y5518450D01*
X1604090D01*
Y5521814D01*
X1607454D01*
Y5525178D01*
Y5528543D01*
X1610818D01*
Y5531907D01*
Y5535272D01*
X1614183D01*
Y5538636D01*
X1617547D01*
Y5542000D01*
X1620911D01*
Y5545365D01*
Y5548729D01*
X1624276D01*
Y5552094D01*
X1627640D01*
Y5555458D01*
Y5558822D01*
X1631004D01*
Y5562186D01*
X1634369D01*
Y5565551D01*
Y5568915D01*
X1637733D01*
Y5572279D01*
X1641098D01*
Y5575644D01*
Y5579008D01*
X1644462D01*
Y5582373D01*
X1647826D01*
Y5585737D01*
Y5589101D01*
X1651190D01*
Y5592466D01*
X1654555D01*
Y5595830D01*
Y5599195D01*
X1657919D01*
Y5602559D01*
X1661284D01*
Y5605923D01*
Y5609287D01*
X1664648D01*
Y5612652D01*
X1668012D01*
Y5616016D01*
X1671377D01*
Y5619381D01*
Y5622745D01*
X1674741D01*
Y5626109D01*
Y5629474D01*
X1678106D01*
Y5632838D01*
X1681470D01*
Y5636203D01*
X1684834D01*
Y5639567D01*
Y5642931D01*
X1688199D01*
Y5646296D01*
X1691563D01*
Y5649660D01*
Y5653024D01*
X1694927D01*
Y5656389D01*
X1698292D01*
Y5659753D01*
Y5663117D01*
X1701656D01*
Y5666482D01*
Y5669846D01*
X1705020D01*
Y5673210D01*
X1708385D01*
Y5676575D01*
X1711749D01*
Y5679939D01*
Y5683304D01*
X1715114D01*
Y5686668D01*
X1718478D01*
Y5690032D01*
Y5693397D01*
X1721842D01*
Y5696761D01*
X1725207D01*
Y5700126D01*
Y5703490D01*
X1728571D01*
Y5706854D01*
X1731935D01*
Y5710218D01*
X1916975D01*
Y5706854D01*
X1913611D01*
Y5703490D01*
Y5700126D01*
X1910247D01*
Y5696761D01*
X1906882D01*
Y5693397D01*
Y5690032D01*
X1903518D01*
Y5686668D01*
X1900154D01*
Y5683304D01*
Y5679939D01*
X1896789D01*
Y5676575D01*
X1893425D01*
Y5673210D01*
Y5669846D01*
X1890060D01*
Y5666482D01*
X1886696D01*
Y5663117D01*
X1883332D01*
Y5659753D01*
Y5656389D01*
X1879968D01*
Y5653024D01*
Y5649660D01*
X1876603D01*
Y5646296D01*
X1873239D01*
Y5642931D01*
Y5639567D01*
X1869874D01*
Y5636203D01*
X1866510D01*
Y5632838D01*
Y5629474D01*
X1863146D01*
Y5626109D01*
X1859781D01*
Y5622745D01*
X1856417D01*
Y5619381D01*
Y5616016D01*
X1853052D01*
Y5612652D01*
Y5609287D01*
X1849688D01*
Y5605923D01*
X1846324D01*
Y5602559D01*
X1842959D01*
Y5599195D01*
Y5595830D01*
X1839595D01*
Y5592466D01*
Y5589101D01*
X1836231D01*
Y5585737D01*
X1832866D01*
Y5582373D01*
X1829502D01*
Y5579008D01*
Y5575644D01*
X1826138D01*
Y5572279D01*
X1822773D01*
Y5568915D01*
Y5565551D01*
X1819409D01*
Y5562186D01*
X1816044D01*
Y5558822D01*
Y5555458D01*
X1812680D01*
Y5552094D01*
X1809316D01*
Y5548729D01*
Y5545365D01*
X1805951D01*
Y5542000D01*
X1802587D01*
Y5538636D01*
Y5535272D01*
X1799222D01*
Y5531907D01*
X1795858D01*
Y5528543D01*
Y5525178D01*
X1792494D01*
Y5521814D01*
X1789130D01*
Y5518450D01*
Y5515085D01*
X1785765D01*
Y5511721D01*
X1782401D01*
Y5508357D01*
X1779037D01*
Y5504992D01*
Y5501628D01*
X1775672D01*
Y5498264D01*
Y5494899D01*
X1772308D01*
Y5491535D01*
X1768943D01*
Y5488170D01*
X1765579D01*
Y5484806D01*
Y5481442D01*
X1762215D01*
Y5478077D01*
Y5474713D01*
X1758850D01*
Y5471348D01*
X1755486D01*
Y5467984D01*
Y5464620D01*
X1752121D01*
Y5461256D01*
X1748757D01*
Y5457891D01*
Y5454527D01*
X1745393D01*
Y5451162D01*
X1742029D01*
Y5447798D01*
X1738664D01*
Y5444434D01*
Y5441069D01*
X1735300D01*
Y5437705D01*
X1731935D01*
Y5434341D01*
Y5430976D01*
X1728571D01*
Y5427612D01*
Y5424247D01*
X1725207D01*
Y5427612D01*
X1721842D01*
Y5430976D01*
Y5434341D01*
X1718478D01*
Y5437705D01*
X1715114D01*
Y5441069D01*
X1711749D01*
Y5444434D01*
Y5447798D01*
X1708385D01*
Y5451162D01*
Y5454527D01*
X1705020D01*
Y5457891D01*
X1701656D01*
Y5461256D01*
Y5464620D01*
X1698292D01*
Y5467984D01*
X1694927D01*
Y5471348D01*
Y5474713D01*
X1691563D01*
Y5478077D01*
X1688199D01*
Y5481442D01*
Y5484806D01*
X1684834D01*
Y5488170D01*
X1681470D01*
Y5491535D01*
Y5494899D01*
X1678106D01*
Y5498264D01*
X1681470D01*
Y5501628D01*
Y5504992D01*
X1684834D01*
Y5508357D01*
X1688199D01*
Y5511721D01*
X1691563D01*
Y5515085D01*
Y5518450D01*
X1694927D01*
Y5521814D01*
Y5525178D01*
X1698292D01*
Y5528543D01*
X1701656D01*
Y5525178D01*
X1705020D01*
Y5521814D01*
X1708385D01*
Y5518450D01*
Y5515085D01*
X1711749D01*
Y5511721D01*
X1715114D01*
Y5508357D01*
Y5504992D01*
X1718478D01*
Y5501628D01*
X1721842D01*
Y5498264D01*
X1728571D01*
Y5501628D01*
Y5504992D01*
X1731935D01*
Y5508357D01*
Y5511721D01*
X1735300D01*
Y5515085D01*
X1738664D01*
Y5518450D01*
X1742029D01*
Y5521814D01*
Y5525178D01*
X1745393D01*
Y5528543D01*
X1748757D01*
Y5531907D01*
Y5535272D01*
X1752121D01*
Y5538636D01*
X1755486D01*
Y5542000D01*
Y5545365D01*
X1758850D01*
Y5548729D01*
X1762215D01*
Y5552094D01*
Y5555458D01*
X1765579D01*
Y5558822D01*
X1768943D01*
Y5562186D01*
Y5565551D01*
X1772308D01*
Y5568915D01*
X1775672D01*
Y5572279D01*
Y5575644D01*
X1779037D01*
Y5579008D01*
X1782401D01*
Y5582373D01*
X1785765D01*
Y5585737D01*
Y5589101D01*
X1789130D01*
Y5592466D01*
Y5595830D01*
X1792494D01*
Y5599195D01*
X1795858D01*
Y5602559D01*
X1799222D01*
Y5605923D01*
Y5609287D01*
X1802587D01*
Y5612652D01*
Y5616016D01*
X1805951D01*
Y5619381D01*
X1809316D01*
Y5622745D01*
X1812680D01*
Y5626109D01*
Y5629474D01*
X1816044D01*
Y5632838D01*
X1819409D01*
Y5636203D01*
Y5639567D01*
X1822773D01*
Y5642931D01*
X1826138D01*
Y5646296D01*
X1829502D01*
Y5649660D01*
Y5653024D01*
X1832866D01*
Y5656389D01*
Y5659753D01*
X1836231D01*
Y5663117D01*
X1839595D01*
Y5666482D01*
X1842959D01*
Y5669846D01*
Y5673210D01*
Y5676575D01*
X1755486D01*
Y5673210D01*
X1752121D01*
Y5669846D01*
X1748757D01*
Y5666482D01*
Y5663117D01*
X1745393D01*
Y5659753D01*
X1742029D01*
Y5656389D01*
Y5653024D01*
X1738664D01*
Y5649660D01*
X1735300D01*
Y5646296D01*
X1731935D01*
Y5642931D01*
Y5639567D01*
X1728571D01*
Y5636203D01*
X1725207D01*
Y5632838D01*
Y5629474D01*
X1721842D01*
Y5626109D01*
X1718478D01*
Y5622745D01*
Y5619381D01*
X1715114D01*
Y5616016D01*
X1711749D01*
Y5612652D01*
Y5609287D01*
X1708385D01*
Y5605923D01*
X1705020D01*
Y5602559D01*
Y5599195D01*
X1701656D01*
Y5595830D01*
X1698292D01*
Y5592466D01*
Y5589101D01*
X1694927D01*
Y5585737D01*
X1691563D01*
Y5582373D01*
Y5579008D01*
X1688199D01*
Y5575644D01*
X1684834D01*
Y5572279D01*
Y5568915D01*
X1681470D01*
Y5565551D01*
X1678106D01*
Y5562186D01*
Y5558822D01*
X1674741D01*
Y5555458D01*
X1671377D01*
Y5552094D01*
X1668012D01*
Y5548729D01*
Y5545365D01*
X1664648D01*
Y5542000D01*
Y5538636D01*
X1661284D01*
Y5535272D01*
X1657919D01*
Y5531907D01*
Y5528543D01*
X1654555D01*
Y5525178D01*
X1651190D01*
Y5521814D01*
Y5518450D01*
X1647826D01*
Y5515085D01*
X1644462D01*
Y5511721D01*
X1641098D01*
Y5508357D01*
Y5504992D01*
X1637733D01*
Y5501628D01*
Y5498264D01*
X1634369D01*
Y5494899D01*
X1631004D01*
Y5491535D01*
X1627640D01*
Y5488170D01*
Y5484806D01*
X1624276D01*
Y5481442D01*
Y5478077D01*
X1620911D01*
Y5474713D01*
X1617547D01*
Y5471348D01*
X1614183D01*
Y5467984D01*
Y5464620D01*
X1610818D01*
Y5461256D01*
Y5457891D01*
X1607454D01*
Y5454527D01*
X1604090D01*
Y5451162D01*
X1600725D01*
Y5447798D01*
Y5444434D01*
X1597361D01*
Y5441069D01*
X1593996D01*
Y5437705D01*
Y5434341D01*
X1590632D01*
Y5430976D01*
X1587268D01*
Y5427612D01*
Y5424247D01*
X1583903D01*
Y5427612D01*
Y5430976D01*
X1580539D01*
Y5434341D01*
X1577175D01*
Y5437705D01*
X1573810D01*
Y5441069D01*
Y5444434D01*
X1570446D01*
Y5447798D01*
X1567081D01*
Y5451162D01*
Y5454527D01*
X1563717D01*
Y5457891D01*
X1560353D01*
Y5461256D01*
X1556988D01*
Y5464620D01*
Y5467984D01*
X1553624D01*
Y5471348D01*
X1550260D01*
Y5474713D01*
Y5478077D01*
X1546895D01*
Y5481442D01*
X1543531D01*
Y5484806D01*
Y5488170D01*
X1540167D01*
Y5491535D01*
X1536802D01*
Y5494899D01*
Y5498264D01*
X1533438D01*
Y5501628D01*
X1530073D01*
Y5504992D01*
X1526709D01*
Y5508357D01*
Y5511721D01*
X1523345D01*
Y5515085D01*
X1519980D01*
Y5518450D01*
Y5521814D01*
X1516616D01*
Y5525178D01*
X1513252D01*
Y5528543D01*
X1509887D01*
Y5531907D01*
Y5535272D01*
X1506523D01*
Y5538636D01*
X1503159D01*
Y5542000D01*
Y5545365D01*
X1499794D01*
Y5548729D01*
X1496430D01*
Y5552094D01*
Y5555458D01*
X1493065D01*
Y5558822D01*
X1489701D01*
Y5562186D01*
X1486337D01*
Y5565551D01*
Y5568915D01*
X1482972D01*
Y5572279D01*
X1479608D01*
Y5575644D01*
Y5579008D01*
X1476244D01*
Y5582373D01*
X1472879D01*
Y5585737D01*
Y5589101D01*
X1469515D01*
Y5592466D01*
X1466150D01*
Y5595830D01*
X1462786D01*
Y5599195D01*
Y5602559D01*
X1459422D01*
Y5605923D01*
Y5609287D01*
X1456057D01*
Y5612652D01*
X1452693D01*
Y5616016D01*
X1449329D01*
Y5619381D01*
X1445964D01*
Y5622745D01*
Y5626109D01*
X1442600D01*
Y5629474D01*
Y5632838D01*
X1439236D01*
Y5636203D01*
X1435871D01*
Y5639567D01*
X1432507D01*
Y5642931D01*
Y5646296D01*
X1429142D01*
Y5649660D01*
X1425778D01*
Y5653024D01*
Y5656389D01*
X1422414D01*
Y5659753D01*
X1419049D01*
Y5663117D01*
Y5666482D01*
X1415685D01*
Y5669846D01*
X1412321D01*
Y5673210D01*
X1408956D01*
Y5676575D01*
Y5679939D01*
X1405592D01*
Y5683304D01*
X1402228D01*
Y5686668D01*
Y5690032D01*
X1398863D01*
Y5693397D01*
X1395499D01*
Y5696761D01*
X1392134D01*
Y5700126D01*
Y5703490D01*
X1388770D01*
Y5706854D01*
X1385406D01*
Y5710218D01*
Y5713583D01*
X1382041D01*
Y5716947D01*
X1378677D01*
Y5720312D01*
X1375313D01*
Y5723676D01*
Y5727040D01*
X1371948D01*
Y5730405D01*
X1563717D01*
Y5727040D01*
D02*
G37*
G36*
X2647043Y5118090D02*
X2640314D01*
Y5114726D01*
X2636950D01*
Y5111361D01*
X2633585D01*
Y5107997D01*
X2626856D01*
Y5104633D01*
X2623492D01*
Y5101268D01*
X2620128D01*
Y5097904D01*
X2613399D01*
Y5094540D01*
X2610035D01*
Y5091175D01*
X2603306D01*
Y5087811D01*
X2599941D01*
Y5084447D01*
X2596577D01*
Y5081082D01*
X2593213D01*
Y5077718D01*
X2586484D01*
Y5074353D01*
X2583120D01*
Y5070989D01*
X2576391D01*
Y5067625D01*
X2573027D01*
Y5064260D01*
X2569662D01*
Y5060896D01*
X2566298D01*
Y5057532D01*
X2559569D01*
Y5054167D01*
X2556205D01*
Y5050803D01*
X2552840D01*
Y5047438D01*
X2546112D01*
Y5044074D01*
X2542747D01*
Y5040710D01*
X2539383D01*
Y5037346D01*
Y5033981D01*
X2542747D01*
Y5030617D01*
X2546112D01*
Y5027252D01*
X2552840D01*
Y5023888D01*
X2556205D01*
Y5020524D01*
X2562933D01*
Y5017159D01*
X2566298D01*
Y5013795D01*
X2569662D01*
Y5010430D01*
X2576391D01*
Y5007066D01*
X2579755D01*
Y5003702D01*
X2583120D01*
Y5000337D01*
X2589849D01*
Y4996973D01*
X2593213D01*
Y4993609D01*
X2599941D01*
Y4990245D01*
X2603306D01*
Y4986880D01*
X2606670D01*
Y4983516D01*
X2610035D01*
Y4980151D01*
X2616763D01*
Y4976787D01*
X2620128D01*
Y4973423D01*
X2626856D01*
Y4970058D01*
X2630221D01*
Y4966694D01*
X2633585D01*
Y4963329D01*
X2640314D01*
Y4959965D01*
X2643678D01*
Y4956601D01*
X2647043D01*
Y4953236D01*
X2576391D01*
Y4956601D01*
X2573027D01*
Y4959965D01*
X2566298D01*
Y4963329D01*
X2562933D01*
Y4966694D01*
X2556205D01*
Y4970058D01*
X2552840D01*
Y4973423D01*
X2546112D01*
Y4976787D01*
X2542747D01*
Y4980151D01*
X2536019D01*
Y4983516D01*
X2532654D01*
Y4986880D01*
X2529290D01*
Y4990245D01*
X2522561D01*
Y4993609D01*
X2519197D01*
Y4996973D01*
X2512468D01*
Y5000337D01*
X2509104D01*
Y5003702D01*
X2505739D01*
Y5007066D01*
X2495646D01*
Y5003702D01*
Y5000337D01*
Y4996973D01*
Y4993609D01*
Y4990245D01*
Y4986880D01*
Y4983516D01*
Y4980151D01*
Y4976787D01*
Y4973423D01*
Y4970058D01*
Y4966694D01*
Y4963329D01*
Y4959965D01*
Y4956601D01*
Y4953236D01*
X2445181D01*
Y4956601D01*
Y4959965D01*
Y4963329D01*
Y4966694D01*
Y4970058D01*
Y4973423D01*
Y4976787D01*
Y4980151D01*
Y4983516D01*
Y4986880D01*
Y4990245D01*
Y4993609D01*
Y4996973D01*
Y5000337D01*
Y5003702D01*
Y5007066D01*
Y5010430D01*
Y5013795D01*
Y5017159D01*
Y5020524D01*
Y5023888D01*
Y5027252D01*
Y5030617D01*
Y5033981D01*
Y5037346D01*
Y5040710D01*
Y5044074D01*
Y5047438D01*
Y5050803D01*
Y5054167D01*
Y5057532D01*
Y5060896D01*
Y5064260D01*
Y5067625D01*
Y5070989D01*
Y5074353D01*
Y5077718D01*
Y5081082D01*
Y5084447D01*
Y5087811D01*
Y5091175D01*
Y5094540D01*
Y5097904D01*
Y5101268D01*
Y5104633D01*
Y5107997D01*
Y5111361D01*
Y5114726D01*
Y5118090D01*
Y5121455D01*
X2495646D01*
Y5118090D01*
Y5114726D01*
Y5111361D01*
Y5107997D01*
Y5104633D01*
Y5101268D01*
Y5097904D01*
Y5094540D01*
Y5091175D01*
Y5087811D01*
Y5084447D01*
Y5081082D01*
Y5077718D01*
Y5074353D01*
Y5070989D01*
Y5067625D01*
Y5064260D01*
X2499010D01*
Y5067625D01*
X2505739D01*
Y5070989D01*
X2509104D01*
Y5074353D01*
X2512468D01*
Y5077718D01*
X2519197D01*
Y5081082D01*
X2522561D01*
Y5084447D01*
X2529290D01*
Y5087811D01*
X2532654D01*
Y5091175D01*
X2536019D01*
Y5094540D01*
X2542747D01*
Y5097904D01*
X2546112D01*
Y5101268D01*
X2549476D01*
Y5104633D01*
X2552840D01*
Y5107997D01*
X2559569D01*
Y5111361D01*
X2562933D01*
Y5114726D01*
X2569662D01*
Y5118090D01*
X2573027D01*
Y5121455D01*
X2647043D01*
Y5118090D01*
D02*
G37*
G36*
X1526709D02*
Y5114726D01*
Y5111361D01*
Y5107997D01*
Y5104633D01*
Y5101268D01*
Y5097904D01*
Y5094540D01*
Y5091175D01*
Y5087811D01*
Y5084447D01*
Y5081082D01*
Y5077718D01*
Y5074353D01*
Y5070989D01*
Y5067625D01*
Y5064260D01*
Y5060896D01*
Y5057532D01*
Y5054167D01*
Y5050803D01*
Y5047438D01*
Y5044074D01*
Y5040710D01*
Y5037346D01*
Y5033981D01*
Y5030617D01*
Y5027252D01*
Y5023888D01*
Y5020524D01*
Y5017159D01*
Y5013795D01*
Y5010430D01*
Y5007066D01*
Y5003702D01*
Y5000337D01*
Y4996973D01*
Y4993609D01*
Y4990245D01*
Y4986880D01*
Y4983516D01*
Y4980151D01*
Y4976787D01*
Y4973423D01*
Y4970058D01*
Y4966694D01*
Y4963329D01*
Y4959965D01*
Y4956601D01*
Y4953236D01*
X1476244D01*
Y4956601D01*
Y4959965D01*
Y4963329D01*
Y4966694D01*
Y4970058D01*
Y4973423D01*
Y4976787D01*
Y4980151D01*
Y4983516D01*
Y4986880D01*
Y4990245D01*
Y4993609D01*
Y4996973D01*
Y5000337D01*
Y5003702D01*
Y5007066D01*
Y5010430D01*
Y5013795D01*
Y5017159D01*
X1382041D01*
Y5013795D01*
X1378677D01*
Y5010430D01*
Y5007066D01*
Y5003702D01*
Y5000337D01*
Y4996973D01*
Y4993609D01*
Y4990245D01*
Y4986880D01*
Y4983516D01*
Y4980151D01*
Y4976787D01*
Y4973423D01*
Y4970058D01*
Y4966694D01*
Y4963329D01*
Y4959965D01*
Y4956601D01*
X1382041D01*
Y4953236D01*
X1328211D01*
Y4956601D01*
Y4959965D01*
Y4963329D01*
Y4966694D01*
Y4970058D01*
Y4973423D01*
Y4976787D01*
Y4980151D01*
Y4983516D01*
Y4986880D01*
Y4990245D01*
Y4993609D01*
Y4996973D01*
Y5000337D01*
Y5003702D01*
Y5007066D01*
Y5010430D01*
Y5013795D01*
Y5017159D01*
Y5020524D01*
Y5023888D01*
Y5027252D01*
Y5030617D01*
Y5033981D01*
Y5037346D01*
Y5040710D01*
Y5044074D01*
Y5047438D01*
Y5050803D01*
Y5054167D01*
Y5057532D01*
Y5060896D01*
Y5064260D01*
Y5067625D01*
Y5070989D01*
Y5074353D01*
Y5077718D01*
Y5081082D01*
Y5084447D01*
Y5087811D01*
Y5091175D01*
Y5094540D01*
Y5097904D01*
Y5101268D01*
Y5104633D01*
Y5107997D01*
Y5111361D01*
Y5114726D01*
Y5118090D01*
Y5121455D01*
X1382041D01*
Y5118090D01*
X1378677D01*
Y5114726D01*
Y5111361D01*
Y5107997D01*
Y5104633D01*
Y5101268D01*
Y5097904D01*
Y5094540D01*
Y5091175D01*
Y5087811D01*
Y5084447D01*
Y5081082D01*
Y5077718D01*
Y5074353D01*
Y5070989D01*
Y5067625D01*
Y5064260D01*
Y5060896D01*
X1476244D01*
Y5064260D01*
Y5067625D01*
Y5070989D01*
Y5074353D01*
Y5077718D01*
Y5081082D01*
Y5084447D01*
Y5087811D01*
Y5091175D01*
Y5094540D01*
Y5097904D01*
Y5101268D01*
Y5104633D01*
Y5107997D01*
Y5111361D01*
Y5114726D01*
Y5118090D01*
Y5121455D01*
X1526709D01*
Y5118090D01*
D02*
G37*
G36*
X1106163D02*
Y5114726D01*
X1102799D01*
Y5111361D01*
X1099435D01*
Y5107997D01*
X1096070D01*
Y5104633D01*
X1092706D01*
Y5101268D01*
X1089341D01*
Y5097904D01*
X1085977D01*
Y5094540D01*
Y5091175D01*
X1082613D01*
Y5087811D01*
X1079249D01*
Y5084447D01*
X1075884D01*
Y5081082D01*
X1072520D01*
Y5077718D01*
X1069155D01*
Y5074353D01*
X1065791D01*
Y5070989D01*
Y5067625D01*
X1062427D01*
Y5064260D01*
X1059062D01*
Y5060896D01*
X1055698D01*
Y5057532D01*
X1052334D01*
Y5054167D01*
X1048969D01*
Y5050803D01*
X1045605D01*
Y5047438D01*
Y5044074D01*
X1042240D01*
Y5040710D01*
X1038876D01*
Y5037346D01*
X1035512D01*
Y5033981D01*
X1032147D01*
Y5030617D01*
X1028783D01*
Y5027252D01*
X1025419D01*
Y5023888D01*
Y5020524D01*
X1022054D01*
Y5017159D01*
X1018690D01*
Y5013795D01*
X1015326D01*
Y5010430D01*
Y5007066D01*
Y5003702D01*
Y5000337D01*
Y4996973D01*
Y4993609D01*
Y4990245D01*
Y4986880D01*
Y4983516D01*
Y4980151D01*
Y4976787D01*
Y4973423D01*
Y4970058D01*
Y4966694D01*
Y4963329D01*
Y4959965D01*
Y4956601D01*
Y4953236D01*
X961496D01*
Y4956601D01*
Y4959965D01*
Y4963329D01*
Y4966694D01*
Y4970058D01*
Y4973423D01*
Y4976787D01*
Y4980151D01*
Y4983516D01*
Y4986880D01*
Y4990245D01*
Y4993609D01*
Y4996973D01*
Y5000337D01*
Y5003702D01*
Y5007066D01*
Y5010430D01*
Y5013795D01*
X958131D01*
Y5017159D01*
X954767D01*
Y5020524D01*
X951403D01*
Y5023888D01*
X948038D01*
Y5027252D01*
X944674D01*
Y5030617D01*
Y5033981D01*
X941310D01*
Y5037346D01*
X937945D01*
Y5040710D01*
X934581D01*
Y5044074D01*
X931216D01*
Y5047438D01*
X927852D01*
Y5050803D01*
Y5054167D01*
X921123D01*
Y5057532D01*
X917759D01*
Y5060896D01*
Y5064260D01*
X914395D01*
Y5067625D01*
X911030D01*
Y5070989D01*
X907666D01*
Y5074353D01*
X904301D01*
Y5077718D01*
X900937D01*
Y5081082D01*
Y5084447D01*
X894208D01*
Y5087811D01*
X890844D01*
Y5091175D01*
Y5094540D01*
X887480D01*
Y5097904D01*
X884115D01*
Y5101268D01*
X880751D01*
Y5104633D01*
X877387D01*
Y5107997D01*
X874022D01*
Y5111361D01*
X870658D01*
Y5114726D01*
X867293D01*
Y5118090D01*
X863929D01*
Y5121455D01*
X931216D01*
Y5118090D01*
X934581D01*
Y5114726D01*
X937945D01*
Y5111361D01*
X941310D01*
Y5107997D01*
X944674D01*
Y5104633D01*
X948038D01*
Y5101268D01*
X951403D01*
Y5097904D01*
Y5094540D01*
X954767D01*
Y5091175D01*
X958131D01*
Y5087811D01*
X961496D01*
Y5084447D01*
X964860D01*
Y5081082D01*
X968224D01*
Y5077718D01*
Y5074353D01*
X974953D01*
Y5070989D01*
X978318D01*
Y5067625D01*
Y5064260D01*
X981682D01*
Y5060896D01*
X985046D01*
Y5057532D01*
X991775D01*
Y5060896D01*
X995139D01*
Y5064260D01*
X998504D01*
Y5067625D01*
X1001868D01*
Y5070989D01*
Y5074353D01*
X1005232D01*
Y5077718D01*
X1008597D01*
Y5081082D01*
X1011961D01*
Y5084447D01*
X1015326D01*
Y5087811D01*
X1018690D01*
Y5091175D01*
X1022054D01*
Y5094540D01*
Y5097904D01*
X1028783D01*
Y5101268D01*
Y5104633D01*
X1032147D01*
Y5107997D01*
X1035512D01*
Y5111361D01*
X1038876D01*
Y5114726D01*
X1042240D01*
Y5118090D01*
Y5121455D01*
X1106163D01*
Y5118090D01*
D02*
G37*
G36*
X2128930D02*
X2142388D01*
Y5114726D01*
X2152481D01*
Y5111361D01*
X2159210D01*
Y5107997D01*
X2162574D01*
Y5104633D01*
X2169303D01*
Y5101268D01*
X2172667D01*
Y5097904D01*
X2176032D01*
Y5094540D01*
X2179396D01*
Y5091175D01*
X2182760D01*
Y5087811D01*
Y5084447D01*
X2186125D01*
Y5081082D01*
Y5077718D01*
X2189489D01*
Y5074353D01*
X2192853D01*
Y5070989D01*
Y5067625D01*
Y5064260D01*
Y5060896D01*
X2196218D01*
Y5057532D01*
Y5054167D01*
Y5050803D01*
X2199582D01*
Y5047438D01*
Y5044074D01*
Y5040710D01*
Y5037346D01*
Y5033981D01*
Y5030617D01*
Y5027252D01*
Y5023888D01*
X2196218D01*
Y5020524D01*
Y5017159D01*
Y5013795D01*
Y5010430D01*
X2192853D01*
Y5007066D01*
Y5003702D01*
Y5000337D01*
X2189489D01*
Y4996973D01*
X2186125D01*
Y4993609D01*
Y4990245D01*
X2182760D01*
Y4986880D01*
Y4983516D01*
X2179396D01*
Y4980151D01*
X2176032D01*
Y4976787D01*
X2172667D01*
Y4973423D01*
X2169303D01*
Y4970058D01*
X2162574D01*
Y4966694D01*
X2159210D01*
Y4963329D01*
X2152481D01*
Y4959965D01*
X2142388D01*
Y4956601D01*
X2132295D01*
Y4953236D01*
X2014542D01*
Y4956601D01*
X2004449D01*
Y4959965D01*
X1994356D01*
Y4963329D01*
X1987627D01*
Y4966694D01*
X1980898D01*
Y4970058D01*
X1977534D01*
Y4973423D01*
X1974170D01*
Y4976787D01*
X1970805D01*
Y4980151D01*
X1967441D01*
Y4983516D01*
X1964077D01*
Y4986880D01*
X1960712D01*
Y4990245D01*
Y4993609D01*
X1957348D01*
Y4996973D01*
Y5000337D01*
X1953983D01*
Y5003702D01*
Y5007066D01*
Y5010430D01*
X1950619D01*
Y5013795D01*
Y5017159D01*
Y5020524D01*
Y5023888D01*
X1947255D01*
Y5027252D01*
X1950619D01*
Y5030617D01*
Y5033981D01*
X1947255D01*
Y5037346D01*
Y5040710D01*
X1950619D01*
Y5044074D01*
Y5047438D01*
X1947255D01*
Y5050803D01*
X1950619D01*
Y5054167D01*
Y5057532D01*
Y5060896D01*
Y5064260D01*
X1953983D01*
Y5067625D01*
Y5070989D01*
Y5074353D01*
X1957348D01*
Y5077718D01*
Y5081082D01*
X1960712D01*
Y5084447D01*
X1964077D01*
Y5087811D01*
Y5091175D01*
X1967441D01*
Y5094540D01*
X1970805D01*
Y5097904D01*
X1974170D01*
Y5101268D01*
X1977534D01*
Y5104633D01*
X1984263D01*
Y5107997D01*
X1987627D01*
Y5111361D01*
X1994356D01*
Y5114726D01*
X2004449D01*
Y5118090D01*
X2017906D01*
Y5121455D01*
X2128930D01*
Y5118090D01*
D02*
G37*
G36*
X1886696D02*
X1896789D01*
Y5114726D01*
X1903518D01*
Y5111361D01*
X1910247D01*
Y5107997D01*
X1913611D01*
Y5104633D01*
X1916975D01*
Y5101268D01*
X1920340D01*
Y5097904D01*
X1923704D01*
Y5094540D01*
Y5091175D01*
X1927069D01*
Y5087811D01*
X1930433D01*
Y5084447D01*
Y5081082D01*
Y5077718D01*
Y5074353D01*
X1933797D01*
Y5070989D01*
Y5067625D01*
Y5064260D01*
Y5060896D01*
Y5057532D01*
Y5054167D01*
Y5050803D01*
Y5047438D01*
Y5044074D01*
Y5040710D01*
X1930433D01*
Y5037346D01*
Y5033981D01*
Y5030617D01*
X1927069D01*
Y5027252D01*
Y5023888D01*
X1923704D01*
Y5020524D01*
X1920340D01*
Y5017159D01*
X1916975D01*
Y5013795D01*
X1913611D01*
Y5010430D01*
X1910247D01*
Y5007066D01*
X1906882D01*
Y5003702D01*
X1903518D01*
Y5000337D01*
X1906882D01*
Y4996973D01*
X1910247D01*
Y4993609D01*
X1913611D01*
Y4990245D01*
X1916975D01*
Y4986880D01*
X1920340D01*
Y4983516D01*
X1923704D01*
Y4980151D01*
X1927069D01*
Y4976787D01*
X1930433D01*
Y4973423D01*
X1933797D01*
Y4970058D01*
X1937161D01*
Y4966694D01*
X1940526D01*
Y4963329D01*
X1943890D01*
Y4959965D01*
Y4956601D01*
X1947255D01*
Y4953236D01*
X1873239D01*
Y4956601D01*
X1869874D01*
Y4959965D01*
X1866510D01*
Y4963329D01*
X1863146D01*
Y4966694D01*
Y4970058D01*
X1859781D01*
Y4973423D01*
X1856417D01*
Y4976787D01*
X1853052D01*
Y4980151D01*
X1849688D01*
Y4983516D01*
X1846324D01*
Y4986880D01*
X1842959D01*
Y4990245D01*
Y4993609D01*
X1839595D01*
Y4996973D01*
X1768943D01*
Y4993609D01*
Y4990245D01*
Y4986880D01*
Y4983516D01*
Y4980151D01*
Y4976787D01*
Y4973423D01*
Y4970058D01*
Y4966694D01*
Y4963329D01*
Y4959965D01*
Y4956601D01*
Y4953236D01*
X1718478D01*
Y4956601D01*
Y4959965D01*
Y4963329D01*
Y4966694D01*
Y4970058D01*
Y4973423D01*
Y4976787D01*
Y4980151D01*
Y4983516D01*
Y4986880D01*
Y4990245D01*
Y4993609D01*
Y4996973D01*
Y5000337D01*
Y5003702D01*
Y5007066D01*
Y5010430D01*
Y5013795D01*
Y5017159D01*
Y5020524D01*
Y5023888D01*
Y5027252D01*
Y5030617D01*
Y5033981D01*
Y5037346D01*
X1869874D01*
Y5040710D01*
X1873239D01*
Y5044074D01*
X1879968D01*
Y5047438D01*
Y5050803D01*
X1883332D01*
Y5054167D01*
Y5057532D01*
Y5060896D01*
Y5064260D01*
Y5067625D01*
X1879968D01*
Y5070989D01*
X1876603D01*
Y5074353D01*
X1873239D01*
Y5077718D01*
X1718478D01*
Y5081082D01*
X1721842D01*
Y5084447D01*
X1725207D01*
Y5087811D01*
Y5091175D01*
X1728571D01*
Y5094540D01*
X1731935D01*
Y5097904D01*
X1735300D01*
Y5101268D01*
Y5104633D01*
X1738664D01*
Y5107997D01*
X1742029D01*
Y5111361D01*
Y5114726D01*
X1745393D01*
Y5118090D01*
X1748757D01*
Y5121455D01*
X1886696D01*
Y5118090D01*
D02*
G37*
G36*
X1715114D02*
X1711749D01*
Y5114726D01*
Y5111361D01*
X1708385D01*
Y5107997D01*
X1705020D01*
Y5104633D01*
Y5101268D01*
X1701656D01*
Y5097904D01*
X1698292D01*
Y5094540D01*
Y5091175D01*
X1694927D01*
Y5087811D01*
X1691563D01*
Y5084447D01*
Y5081082D01*
X1600725D01*
Y5077718D01*
Y5074353D01*
Y5070989D01*
Y5067625D01*
Y5064260D01*
Y5060896D01*
Y5057532D01*
X1678106D01*
Y5054167D01*
X1674741D01*
Y5050803D01*
Y5047438D01*
X1671377D01*
Y5044074D01*
X1668012D01*
Y5040710D01*
Y5037346D01*
X1664648D01*
Y5033981D01*
X1661284D01*
Y5030617D01*
Y5027252D01*
X1657919D01*
Y5023888D01*
X1654555D01*
Y5020524D01*
Y5017159D01*
X1604090D01*
Y5013795D01*
X1600725D01*
Y5010430D01*
Y5007066D01*
Y5003702D01*
Y5000337D01*
Y4996973D01*
Y4993609D01*
X1698292D01*
Y4990245D01*
Y4986880D01*
Y4983516D01*
Y4980151D01*
Y4976787D01*
Y4973423D01*
Y4970058D01*
Y4966694D01*
Y4963329D01*
Y4959965D01*
Y4956601D01*
Y4953236D01*
X1550260D01*
Y4956601D01*
Y4959965D01*
Y4963329D01*
Y4966694D01*
Y4970058D01*
Y4973423D01*
Y4976787D01*
Y4980151D01*
Y4983516D01*
Y4986880D01*
Y4990245D01*
Y4993609D01*
Y4996973D01*
Y5000337D01*
Y5003702D01*
Y5007066D01*
Y5010430D01*
Y5013795D01*
Y5017159D01*
Y5020524D01*
Y5023888D01*
Y5027252D01*
Y5030617D01*
Y5033981D01*
Y5037346D01*
Y5040710D01*
Y5044074D01*
Y5047438D01*
Y5050803D01*
Y5054167D01*
Y5057532D01*
Y5060896D01*
Y5064260D01*
Y5067625D01*
Y5070989D01*
Y5074353D01*
Y5077718D01*
Y5081082D01*
Y5084447D01*
Y5087811D01*
Y5091175D01*
Y5094540D01*
Y5097904D01*
Y5101268D01*
Y5104633D01*
Y5107997D01*
Y5111361D01*
Y5114726D01*
Y5118090D01*
Y5121455D01*
X1715114D01*
Y5118090D01*
D02*
G37*
G36*
X1260924D02*
X1271017D01*
Y5114726D01*
X1277746D01*
Y5111361D01*
X1284475D01*
Y5107997D01*
X1287839D01*
Y5104633D01*
X1291203D01*
Y5101268D01*
X1294568D01*
Y5097904D01*
X1297932D01*
Y5094540D01*
X1301297D01*
Y5091175D01*
Y5087811D01*
Y5084447D01*
X1304661D01*
Y5081082D01*
Y5077718D01*
X1308025D01*
Y5074353D01*
Y5070989D01*
Y5067625D01*
Y5064260D01*
Y5060896D01*
Y5057532D01*
Y5054167D01*
Y5050803D01*
Y5047438D01*
Y5044074D01*
Y5040710D01*
X1304661D01*
Y5037346D01*
Y5033981D01*
Y5030617D01*
X1301297D01*
Y5027252D01*
Y5023888D01*
X1297932D01*
Y5020524D01*
X1294568D01*
Y5017159D01*
X1291203D01*
Y5013795D01*
X1287839D01*
Y5010430D01*
X1284475D01*
Y5007066D01*
X1281110D01*
Y5003702D01*
X1274382D01*
Y5000337D01*
X1264289D01*
Y4996973D01*
X1143171D01*
Y4993609D01*
Y4990245D01*
Y4986880D01*
Y4983516D01*
Y4980151D01*
Y4976787D01*
Y4973423D01*
Y4970058D01*
Y4966694D01*
Y4963329D01*
Y4959965D01*
Y4956601D01*
Y4953236D01*
X1092706D01*
Y4956601D01*
Y4959965D01*
Y4963329D01*
Y4966694D01*
Y4970058D01*
Y4973423D01*
Y4976787D01*
Y4980151D01*
Y4983516D01*
Y4986880D01*
Y4990245D01*
Y4993609D01*
Y4996973D01*
Y5000337D01*
Y5003702D01*
Y5007066D01*
Y5010430D01*
Y5013795D01*
Y5017159D01*
Y5020524D01*
Y5023888D01*
Y5027252D01*
Y5030617D01*
Y5033981D01*
Y5037346D01*
X1244102D01*
Y5040710D01*
X1247467D01*
Y5044074D01*
X1254195D01*
Y5047438D01*
Y5050803D01*
X1257560D01*
Y5054167D01*
Y5057532D01*
Y5060896D01*
Y5064260D01*
Y5067625D01*
X1254195D01*
Y5070989D01*
X1250831D01*
Y5074353D01*
X1247467D01*
Y5077718D01*
X1092706D01*
Y5081082D01*
X1096070D01*
Y5084447D01*
X1099435D01*
Y5087811D01*
X1102799D01*
Y5091175D01*
X1106163D01*
Y5094540D01*
Y5097904D01*
X1109528D01*
Y5101268D01*
X1112892D01*
Y5104633D01*
X1116257D01*
Y5107997D01*
X1119621D01*
Y5111361D01*
X1122985D01*
Y5114726D01*
Y5118090D01*
X1126350D01*
Y5121455D01*
X1260924D01*
Y5118090D01*
D02*
G37*
G36*
X2424995D02*
X2421630D01*
Y5114726D01*
X2418266D01*
Y5111361D01*
X2414901D01*
Y5107997D01*
Y5104633D01*
X2411537D01*
Y5101268D01*
Y5097904D01*
X2408173D01*
Y5094540D01*
X2404808D01*
Y5091175D01*
X2401444D01*
Y5087811D01*
Y5084447D01*
X2398080D01*
Y5081082D01*
X2394715D01*
Y5077718D01*
X2293784D01*
Y5074353D01*
X2283691D01*
Y5070989D01*
X2280327D01*
Y5067625D01*
X2273598D01*
Y5064260D01*
Y5060896D01*
X2270234D01*
Y5057532D01*
X2266869D01*
Y5054167D01*
Y5050803D01*
X2263505D01*
Y5047438D01*
Y5044074D01*
Y5040710D01*
Y5037346D01*
Y5033981D01*
Y5030617D01*
Y5027252D01*
Y5023888D01*
Y5020524D01*
X2266869D01*
Y5017159D01*
Y5013795D01*
X2270234D01*
Y5010430D01*
X2273598D01*
Y5007066D01*
X2276963D01*
Y5003702D01*
X2280327D01*
Y5000337D01*
X2287056D01*
Y4996973D01*
X2293784D01*
Y4993609D01*
X2421630D01*
Y4990245D01*
X2418266D01*
Y4986880D01*
Y4983516D01*
X2414901D01*
Y4980151D01*
X2411537D01*
Y4976787D01*
Y4973423D01*
X2408173D01*
Y4970058D01*
X2404808D01*
Y4966694D01*
X2401444D01*
Y4963329D01*
Y4959965D01*
X2398080D01*
Y4956601D01*
Y4953236D01*
X2394715D01*
Y4949872D01*
X2290420D01*
Y4953236D01*
X2276963D01*
Y4956601D01*
X2266869D01*
Y4959965D01*
X2256776D01*
Y4963329D01*
X2253412D01*
Y4966694D01*
X2246683D01*
Y4970058D01*
X2243319D01*
Y4973423D01*
X2239955D01*
Y4976787D01*
X2236590D01*
Y4980151D01*
X2233226D01*
Y4983516D01*
X2229861D01*
Y4986880D01*
Y4990245D01*
X2226497D01*
Y4993609D01*
X2223133D01*
Y4996973D01*
Y5000337D01*
X2219768D01*
Y5003702D01*
Y5007066D01*
Y5010430D01*
Y5013795D01*
X2216404D01*
Y5017159D01*
Y5020524D01*
Y5023888D01*
X2213040D01*
Y5027252D01*
Y5030617D01*
Y5033981D01*
Y5037346D01*
Y5040710D01*
Y5044074D01*
Y5047438D01*
X2216404D01*
Y5050803D01*
Y5054167D01*
Y5057532D01*
Y5060896D01*
X2219768D01*
Y5064260D01*
Y5067625D01*
Y5070989D01*
Y5074353D01*
X2223133D01*
Y5077718D01*
X2226497D01*
Y5081082D01*
Y5084447D01*
X2229861D01*
Y5087811D01*
X2233226D01*
Y5091175D01*
Y5094540D01*
X2236590D01*
Y5097904D01*
X2239955D01*
Y5101268D01*
X2246683D01*
Y5104633D01*
X2250048D01*
Y5107997D01*
X2253412D01*
Y5111361D01*
X2260141D01*
Y5114726D01*
X2270234D01*
Y5118090D01*
X2283691D01*
Y5121455D01*
X2424995D01*
Y5118090D01*
D02*
G37*
G36*
X843743D02*
X840379D01*
Y5114726D01*
X837014D01*
Y5111361D01*
Y5107997D01*
X833650D01*
Y5104633D01*
Y5101268D01*
X830285D01*
Y5097904D01*
X826921D01*
Y5094540D01*
X823557D01*
Y5091175D01*
Y5087811D01*
X820192D01*
Y5084447D01*
Y5081082D01*
X816828D01*
Y5077718D01*
X712533D01*
Y5074353D01*
X705804D01*
Y5070989D01*
X699075D01*
Y5067625D01*
X695711D01*
Y5064260D01*
X692346D01*
Y5060896D01*
X688982D01*
Y5057532D01*
Y5054167D01*
X685618D01*
Y5050803D01*
Y5047438D01*
Y5044074D01*
Y5040710D01*
X682253D01*
Y5037346D01*
Y5033981D01*
Y5030617D01*
X685618D01*
Y5027252D01*
Y5023888D01*
Y5020524D01*
Y5017159D01*
X688982D01*
Y5013795D01*
Y5010430D01*
X692346D01*
Y5007066D01*
X695711D01*
Y5003702D01*
X702440D01*
Y5000337D01*
X705804D01*
Y4996973D01*
X715897D01*
Y4993609D01*
X840379D01*
Y4990245D01*
Y4986880D01*
X837014D01*
Y4983516D01*
X833650D01*
Y4980151D01*
Y4976787D01*
X830285D01*
Y4973423D01*
X826921D01*
Y4970058D01*
Y4966694D01*
X823557D01*
Y4963329D01*
X820192D01*
Y4959965D01*
Y4956601D01*
X816828D01*
Y4953236D01*
X813464D01*
Y4949872D01*
X709168D01*
Y4953236D01*
X695711D01*
Y4956601D01*
X685618D01*
Y4959965D01*
X678889D01*
Y4963329D01*
X672160D01*
Y4966694D01*
X668796D01*
Y4970058D01*
X662067D01*
Y4973423D01*
X658703D01*
Y4976787D01*
X655339D01*
Y4980151D01*
X651974D01*
Y4983516D01*
Y4986880D01*
X648610D01*
Y4990245D01*
X645245D01*
Y4993609D01*
Y4996973D01*
X641881D01*
Y5000337D01*
Y5003702D01*
X638517D01*
Y5007066D01*
Y5010430D01*
Y5013795D01*
X635152D01*
Y5017159D01*
Y5020524D01*
Y5023888D01*
Y5027252D01*
Y5030617D01*
X631788D01*
Y5033981D01*
Y5037346D01*
Y5040710D01*
Y5044074D01*
X635152D01*
Y5047438D01*
Y5050803D01*
Y5054167D01*
Y5057532D01*
X638517D01*
Y5060896D01*
Y5064260D01*
Y5067625D01*
X641881D01*
Y5070989D01*
Y5074353D01*
Y5077718D01*
X645245D01*
Y5081082D01*
X648610D01*
Y5084447D01*
Y5087811D01*
X651974D01*
Y5091175D01*
X655339D01*
Y5094540D01*
X658703D01*
Y5097904D01*
X662067D01*
Y5101268D01*
X665431D01*
Y5104633D01*
X668796D01*
Y5107997D01*
X675525D01*
Y5111361D01*
X678889D01*
Y5114726D01*
X692346D01*
Y5118090D01*
X702440D01*
Y5121455D01*
X843743D01*
Y5118090D01*
D02*
G37*
%LPC*%
G36*
X2115473Y5077718D02*
X2031364D01*
Y5074353D01*
X2024635D01*
Y5070989D01*
X2017906D01*
Y5067625D01*
X2014542D01*
Y5064260D01*
X2011178D01*
Y5060896D01*
X2007813D01*
Y5057532D01*
Y5054167D01*
X2004449D01*
Y5050803D01*
Y5047438D01*
X2001085D01*
Y5044074D01*
Y5040710D01*
Y5037346D01*
Y5033981D01*
Y5030617D01*
Y5027252D01*
Y5023888D01*
X2004449D01*
Y5020524D01*
Y5017159D01*
X2007813D01*
Y5013795D01*
X2011178D01*
Y5010430D01*
X2014542D01*
Y5007066D01*
X2017906D01*
Y5003702D01*
X2021271D01*
Y5000337D01*
X2027999D01*
Y4996973D01*
X2118837D01*
Y5000337D01*
X2125566D01*
Y5003702D01*
X2128930D01*
Y5007066D01*
X2135659D01*
Y5010430D01*
Y5013795D01*
X2139024D01*
Y5017159D01*
X2142388D01*
Y5020524D01*
Y5023888D01*
Y5027252D01*
X2145752D01*
Y5030617D01*
Y5033981D01*
Y5037346D01*
Y5040710D01*
Y5044074D01*
Y5047438D01*
X2142388D01*
Y5050803D01*
Y5054167D01*
Y5057532D01*
X2139024D01*
Y5060896D01*
X2135659D01*
Y5064260D01*
X2132295D01*
Y5067625D01*
X2128930D01*
Y5070989D01*
X2122202D01*
Y5074353D01*
X2115473D01*
Y5077718D01*
D02*
G37*
%LPD*%
D27*
X1855325Y4228500D02*
G03*
X1855325Y4228500I-8750J0D01*
G01*
D28*
X2741000Y6532000D02*
G03*
X2741000Y6532000I-10000J0D01*
G01*
X579000Y2368000D02*
G03*
X579000Y2368000I-10000J0D01*
G01*
X3183000Y3419000D02*
G03*
X3183000Y3419000I-10000J0D01*
G01*
X137000Y5581000D02*
G03*
X137000Y5581000I-10000J0D01*
G01*
D29*
X402375Y1063000D02*
Y1223000D01*
X264375Y1063000D02*
Y1223000D01*
X486625Y1063000D02*
Y1223000D01*
X624625Y1063000D02*
Y1223000D01*
X2140500Y4096625D02*
Y4126625D01*
X2050500Y4096625D02*
Y4126625D01*
X2378625Y4096625D02*
Y4126625D01*
X2288625Y4096625D02*
Y4126625D01*
X2616750Y4096625D02*
Y4126625D01*
X2526750Y4096625D02*
Y4126625D01*
X574125Y1572500D02*
Y1602500D01*
X664125Y1572500D02*
Y1602500D01*
X2637875Y1572500D02*
Y1602500D01*
X2727875Y1572500D02*
Y1602500D01*
X2666000Y6163500D02*
Y6646500D01*
X634000Y6163500D02*
Y6646500D01*
Y6163500D02*
X2666000D01*
X634000Y6646500D02*
X2666000D01*
X634000Y2253500D02*
Y2736500D01*
X2666000Y2253500D02*
Y2736500D01*
X634000D02*
X2666000D01*
X634000Y2253500D02*
X2666000D01*
X2804500Y3484000D02*
X3287500D01*
X2804500Y5516000D02*
X3287500D01*
X2804500Y3484000D02*
Y5516000D01*
X3287500Y3484000D02*
Y5516000D01*
X12500D02*
X495500D01*
X12500Y3484000D02*
X495500D01*
Y5516000D01*
X12500Y3484000D02*
Y5516000D01*
X1080000Y1384250D02*
X2220000D01*
X1080000Y1854250D02*
X2220000D01*
D30*
X142916Y1352575D02*
Y1504925D01*
X219092D01*
X244483Y1479533D01*
Y1428750D01*
X219092Y1403358D01*
X142916D01*
X193700D02*
X244483Y1352575D01*
X396834Y1504925D02*
X295267D01*
Y1428750D01*
X346050Y1454142D01*
X371442D01*
X396834Y1428750D01*
Y1377967D01*
X371442Y1352575D01*
X320659D01*
X295267Y1377967D01*
X777916Y1082700D02*
Y1235050D01*
X854092D01*
X879483Y1209658D01*
Y1158875D01*
X854092Y1133483D01*
X777916D01*
X828700D02*
X879483Y1082700D01*
X1006442D02*
Y1235050D01*
X930267Y1158875D01*
X1031834D01*
X2060592Y4514879D02*
X2035200Y4489487D01*
Y4438704D01*
X2060592Y4413312D01*
X2162158D01*
X2187550Y4438704D01*
Y4489487D01*
X2162158Y4514879D01*
X2187550Y4565662D02*
Y4616446D01*
Y4591054D01*
X2035200D01*
X2060592Y4565662D01*
X2187550Y4794189D02*
Y4692621D01*
X2085983Y4794189D01*
X2060592D01*
X2035200Y4768797D01*
Y4718013D01*
X2060592Y4692621D01*
X2330467Y4524396D02*
X2305075Y4499004D01*
Y4448220D01*
X2330467Y4422829D01*
X2432033D01*
X2457425Y4448220D01*
Y4499004D01*
X2432033Y4524396D01*
X2457425Y4575179D02*
Y4625963D01*
Y4600571D01*
X2305075D01*
X2330467Y4575179D01*
X2457425Y4702138D02*
Y4752922D01*
Y4727530D01*
X2305075D01*
X2330467Y4702138D01*
X2568592Y4514879D02*
X2543200Y4489487D01*
Y4438704D01*
X2568592Y4413312D01*
X2670158D01*
X2695550Y4438704D01*
Y4489487D01*
X2670158Y4514879D01*
X2695550Y4565662D02*
Y4616446D01*
Y4591054D01*
X2543200D01*
X2568592Y4565662D01*
Y4692621D02*
X2543200Y4718013D01*
Y4768797D01*
X2568592Y4794189D01*
X2670158D01*
X2695550Y4768797D01*
Y4718013D01*
X2670158Y4692621D01*
X2568592D01*
X2673358Y1987533D02*
X2647967Y2012925D01*
X2597183D01*
X2571791Y1987533D01*
Y1885967D01*
X2597183Y1860575D01*
X2647967D01*
X2673358Y1885967D01*
X2724142Y1987533D02*
X2749534Y2012925D01*
X2800317D01*
X2825709Y1987533D01*
Y1962142D01*
X2800317Y1936750D01*
X2774925D01*
X2800317D01*
X2825709Y1911358D01*
Y1885967D01*
X2800317Y1860575D01*
X2749534D01*
X2724142Y1885967D01*
X641358Y1987533D02*
X615967Y2012925D01*
X565183D01*
X539791Y1987533D01*
Y1885967D01*
X565183Y1860575D01*
X615967D01*
X641358Y1885967D01*
X793709Y1860575D02*
X692142D01*
X793709Y1962142D01*
Y1987533D01*
X768317Y2012925D01*
X717534D01*
X692142Y1987533D01*
X323858Y6489675D02*
X273075D01*
X298467D01*
Y6362717D01*
X273075Y6337325D01*
X247683D01*
X222291Y6362717D01*
X476209Y6489675D02*
X425425Y6464283D01*
X374642Y6413500D01*
Y6362717D01*
X400034Y6337325D01*
X450817D01*
X476209Y6362717D01*
Y6388108D01*
X450817Y6413500D01*
X374642D01*
X212733Y3314675D02*
X161950D01*
X187342D01*
Y3187717D01*
X161950Y3162325D01*
X136558D01*
X111166Y3187717D01*
X365084Y3314675D02*
X263517D01*
Y3238500D01*
X314300Y3263892D01*
X339692D01*
X365084Y3238500D01*
Y3187717D01*
X339692Y3162325D01*
X288909D01*
X263517Y3187717D01*
X2974983Y3330550D02*
X2924200D01*
X2949592D01*
Y3203592D01*
X2924200Y3178200D01*
X2898808D01*
X2873416Y3203592D01*
X3101942Y3178200D02*
Y3330550D01*
X3025767Y3254375D01*
X3127334D01*
X1501808Y1250925D02*
Y1225533D01*
X1552592Y1174750D01*
X1603375Y1225533D01*
Y1250925D01*
X1552592Y1174750D02*
Y1098575D01*
X1654159D02*
X1704942D01*
X1679551D01*
Y1250925D01*
X1654159Y1225533D01*
X1609733Y3028925D02*
X1558950D01*
X1584342D01*
Y2901967D01*
X1558950Y2876575D01*
X1533558D01*
X1508166Y2901967D01*
X1660517Y3003533D02*
X1685909Y3028925D01*
X1736692D01*
X1762084Y3003533D01*
Y2978142D01*
X1736692Y2952750D01*
X1711300D01*
X1736692D01*
X1762084Y2927358D01*
Y2901967D01*
X1736692Y2876575D01*
X1685909D01*
X1660517Y2901967D01*
X1501808Y4124300D02*
Y3997342D01*
X1527200Y3971950D01*
X1577983D01*
X1603375Y3997342D01*
Y4124300D01*
X1654159Y3971950D02*
X1704942D01*
X1679551D01*
Y4124300D01*
X1654159Y4098908D01*
%TF.MD5,0b2ada6fe91ae0b760adad44e93204bf*%
M02*
