%TF.GenerationSoftware,Altium Limited,Altium Designer,23.4.1 (23)*%
G04 Layer_Color=8388736*
%FSLAX45Y45*%
%MOMM*%
%TF.SameCoordinates,06F9E411-BB4A-4FCF-AF8D-8E7D50D0EFEC*%
%TF.FilePolarity,Negative*%
%TF.FileFunction,Soldermask,Top*%
%TF.Part,Single*%
G01*
G75*
%TA.AperFunction,SMDPad,CuDef*%
G04:AMPARAMS|DCode=31|XSize=1.1432mm|YSize=1.2232mm|CornerRadius=0.1956mm|HoleSize=0mm|Usage=FLASHONLY|Rotation=270.000|XOffset=0mm|YOffset=0mm|HoleType=Round|Shape=RoundedRectangle|*
%AMROUNDEDRECTD31*
21,1,1.14320,0.83200,0,0,270.0*
21,1,0.75200,1.22320,0,0,270.0*
1,1,0.39120,-0.41600,-0.37600*
1,1,0.39120,-0.41600,0.37600*
1,1,0.39120,0.41600,0.37600*
1,1,0.39120,0.41600,-0.37600*
%
%ADD31ROUNDEDRECTD31*%
%ADD32R,1.20320X1.30320*%
%ADD33R,3.95320X3.95320*%
%ADD34R,0.35320X1.00320*%
%ADD35R,1.00320X0.35320*%
%ADD36R,5.80320X2.30320*%
%TA.AperFunction,ComponentPad*%
%ADD37C,1.59320*%
%ADD38R,1.59320X1.59320*%
%ADD39R,1.85320X1.85320*%
%ADD40C,1.85320*%
%TA.AperFunction,ViaPad*%
%ADD41R,2.20320X2.20320*%
%TA.AperFunction,ComponentPad*%
%ADD42R,1.85320X1.85320*%
D31*
X333375Y1222000D02*
D03*
Y1064000D02*
D03*
X555625D02*
D03*
Y1222000D02*
D03*
D32*
X2095500Y4196625D02*
D03*
Y4026625D02*
D03*
X2333625Y4196625D02*
D03*
Y4026625D02*
D03*
X2571750Y4196625D02*
D03*
Y4026625D02*
D03*
X619125Y1502500D02*
D03*
Y1672500D02*
D03*
X2682875Y1502500D02*
D03*
Y1672500D02*
D03*
D33*
X1571625Y4508500D02*
D03*
D34*
X1729125Y4258500D02*
D03*
X1694125D02*
D03*
X1659125D02*
D03*
X1624125D02*
D03*
X1589125D02*
D03*
X1554125D02*
D03*
X1519125D02*
D03*
X1484125D02*
D03*
X1449125D02*
D03*
X1414125D02*
D03*
Y4758500D02*
D03*
X1449125D02*
D03*
X1484125D02*
D03*
X1519125D02*
D03*
X1554125D02*
D03*
X1589125D02*
D03*
X1624125D02*
D03*
X1659125D02*
D03*
X1694125D02*
D03*
X1729125D02*
D03*
D35*
X1316625Y4281000D02*
D03*
Y4316000D02*
D03*
Y4351000D02*
D03*
Y4386000D02*
D03*
Y4421000D02*
D03*
Y4456000D02*
D03*
Y4491000D02*
D03*
Y4526000D02*
D03*
Y4561000D02*
D03*
Y4596000D02*
D03*
Y4631000D02*
D03*
Y4666000D02*
D03*
Y4701000D02*
D03*
Y4736000D02*
D03*
X1826625D02*
D03*
Y4701000D02*
D03*
Y4666000D02*
D03*
Y4631000D02*
D03*
Y4596000D02*
D03*
Y4561000D02*
D03*
Y4526000D02*
D03*
Y4491000D02*
D03*
Y4456000D02*
D03*
Y4421000D02*
D03*
Y4386000D02*
D03*
Y4351000D02*
D03*
Y4316000D02*
D03*
Y4281000D02*
D03*
D36*
X2125000Y1619250D02*
D03*
X1175000D02*
D03*
D37*
X2794000Y8492000D02*
D03*
Y8238000D02*
D03*
X2540000Y8492000D02*
D03*
Y8238000D02*
D03*
X2286000Y8492000D02*
D03*
Y8238000D02*
D03*
X2032000Y8492000D02*
D03*
Y8238000D02*
D03*
X1778000Y8492000D02*
D03*
Y8238000D02*
D03*
X1524000Y8492000D02*
D03*
Y8238000D02*
D03*
X1270000Y8492000D02*
D03*
Y8238000D02*
D03*
X1016000Y8492000D02*
D03*
Y8238000D02*
D03*
X762000Y8492000D02*
D03*
Y8238000D02*
D03*
X508000Y8492000D02*
D03*
X2794000Y762000D02*
D03*
Y508000D02*
D03*
X2540000Y762000D02*
D03*
Y508000D02*
D03*
X2286000Y762000D02*
D03*
Y508000D02*
D03*
X2032000Y762000D02*
D03*
Y508000D02*
D03*
X1778000Y762000D02*
D03*
Y508000D02*
D03*
X1524000Y762000D02*
D03*
Y508000D02*
D03*
X1270000Y762000D02*
D03*
Y508000D02*
D03*
X1016000Y762000D02*
D03*
Y508000D02*
D03*
X762000Y762000D02*
D03*
Y508000D02*
D03*
X508000Y762000D02*
D03*
D38*
Y8238000D02*
D03*
Y508000D02*
D03*
D39*
X2539000Y6532000D02*
D03*
X761000Y2368000D02*
D03*
D40*
X2539000Y6278000D02*
D03*
X2285000Y6532000D02*
D03*
Y6278000D02*
D03*
X2031000Y6532000D02*
D03*
Y6278000D02*
D03*
X1777000Y6532000D02*
D03*
Y6278000D02*
D03*
X1523000Y6532000D02*
D03*
Y6278000D02*
D03*
X1269000Y6532000D02*
D03*
Y6278000D02*
D03*
X1015000Y6532000D02*
D03*
Y6278000D02*
D03*
X761000Y6532000D02*
D03*
Y6278000D02*
D03*
Y2622000D02*
D03*
X1015000Y2368000D02*
D03*
Y2622000D02*
D03*
X1269000Y2368000D02*
D03*
Y2622000D02*
D03*
X1523000Y2368000D02*
D03*
Y2622000D02*
D03*
X1777000Y2368000D02*
D03*
Y2622000D02*
D03*
X2031000Y2368000D02*
D03*
Y2622000D02*
D03*
X2285000Y2368000D02*
D03*
Y2622000D02*
D03*
X2539000Y2368000D02*
D03*
Y2622000D02*
D03*
X2919000Y3611000D02*
D03*
X3173000Y3865000D02*
D03*
X2919000D02*
D03*
X3173000Y4119000D02*
D03*
X2919000D02*
D03*
X3173000Y4373000D02*
D03*
X2919000D02*
D03*
X3173000Y4627000D02*
D03*
X2919000D02*
D03*
X3173000Y4881000D02*
D03*
X2919000D02*
D03*
X3173000Y5135000D02*
D03*
X2919000D02*
D03*
X3173000Y5389000D02*
D03*
X2919000D02*
D03*
X381000D02*
D03*
X127000Y5135000D02*
D03*
X381000D02*
D03*
X127000Y4881000D02*
D03*
X381000D02*
D03*
X127000Y4627000D02*
D03*
X381000D02*
D03*
X127000Y4373000D02*
D03*
X381000D02*
D03*
X127000Y4119000D02*
D03*
X381000D02*
D03*
X127000Y3865000D02*
D03*
X381000D02*
D03*
X127000Y3611000D02*
D03*
X381000D02*
D03*
D41*
X2555875Y6921500D02*
D03*
X2301875D02*
D03*
X2809875D02*
D03*
X3063875D02*
D03*
X1539875D02*
D03*
X1793875D02*
D03*
X2047875D02*
D03*
X1285875D02*
D03*
X777875D02*
D03*
X523875D02*
D03*
X1031875D02*
D03*
X269875D02*
D03*
X2555875Y7175500D02*
D03*
X2301875D02*
D03*
X2809875D02*
D03*
X3063875D02*
D03*
X1539875D02*
D03*
X1793875D02*
D03*
X2047875D02*
D03*
X1285875D02*
D03*
X777875D02*
D03*
X523875D02*
D03*
X1031875D02*
D03*
X269875D02*
D03*
Y7429500D02*
D03*
X1031875D02*
D03*
X523875D02*
D03*
X777875D02*
D03*
X1285875D02*
D03*
X2047875D02*
D03*
X1793875D02*
D03*
X1539875D02*
D03*
X3063875D02*
D03*
X2809875D02*
D03*
X2301875D02*
D03*
X2555875D02*
D03*
X2301875Y7937500D02*
D03*
Y7683500D02*
D03*
X2555875D02*
D03*
Y7937500D02*
D03*
X3063875D02*
D03*
Y7683500D02*
D03*
X2809875D02*
D03*
Y7937500D02*
D03*
X1285875D02*
D03*
Y7683500D02*
D03*
X1539875D02*
D03*
Y7937500D02*
D03*
X2047875D02*
D03*
Y7683500D02*
D03*
X1793875D02*
D03*
Y7937500D02*
D03*
X777875D02*
D03*
Y7683500D02*
D03*
X1031875D02*
D03*
Y7937500D02*
D03*
X523875D02*
D03*
Y7683500D02*
D03*
X269875D02*
D03*
Y7937500D02*
D03*
D42*
X3173000Y3611000D02*
D03*
X127000Y5389000D02*
D03*
%TF.MD5,6f2abf1438d3d075cecea25cea327edc*%
M02*
