%TF.GenerationSoftware,Altium Limited,Altium Designer,23.4.1 (23)*%
G04 Layer_Color=128*
%FSLAX45Y45*%
%MOMM*%
%TF.SameCoordinates,06F9E411-BB4A-4FCF-AF8D-8E7D50D0EFEC*%
%TF.FilePolarity,Positive*%
%TF.FileFunction,Paste,Bot*%
%TF.Part,Single*%
G01*
G75*
%TA.AperFunction,SMDPad,CuDef*%
G04:AMPARAMS|DCode=11|XSize=0.94mm|YSize=1.02mm|CornerRadius=0.094mm|HoleSize=0mm|Usage=FLASHONLY|Rotation=270.000|XOffset=0mm|YOffset=0mm|HoleType=Round|Shape=RoundedRectangle|*
%AMROUNDEDRECTD11*
21,1,0.94000,0.83200,0,0,270.0*
21,1,0.75200,1.02000,0,0,270.0*
1,1,0.18800,-0.41600,-0.37600*
1,1,0.18800,-0.41600,0.37600*
1,1,0.18800,0.41600,0.37600*
1,1,0.18800,0.41600,-0.37600*
%
%ADD11ROUNDEDRECTD11*%
%ADD12R,1.00000X1.10000*%
G04:AMPARAMS|DCode=25|XSize=0.58mm|YSize=1.61mm|CornerRadius=0.0435mm|HoleSize=0mm|Usage=FLASHONLY|Rotation=180.000|XOffset=0mm|YOffset=0mm|HoleType=Round|Shape=RoundedRectangle|*
%AMROUNDEDRECTD25*
21,1,0.58000,1.52300,0,0,180.0*
21,1,0.49300,1.61000,0,0,180.0*
1,1,0.08700,-0.24650,0.76150*
1,1,0.08700,0.24650,0.76150*
1,1,0.08700,0.24650,-0.76150*
1,1,0.08700,-0.24650,-0.76150*
%
%ADD25ROUNDEDRECTD25*%
%ADD26R,1.10000X1.00000*%
D11*
X2286000Y5826500D02*
D03*
Y5984500D02*
D03*
X809625Y5286750D02*
D03*
Y5444750D02*
D03*
X1095375Y5524125D02*
D03*
Y5366125D02*
D03*
D12*
X2032000Y5814875D02*
D03*
Y5984875D02*
D03*
X2571750Y4043500D02*
D03*
Y3873500D02*
D03*
X2333625Y4037875D02*
D03*
Y3867875D02*
D03*
X2127250Y4037875D02*
D03*
Y3867875D02*
D03*
X1428750Y4037875D02*
D03*
Y3867875D02*
D03*
X1666875Y4037875D02*
D03*
Y3867875D02*
D03*
X1905000Y4037875D02*
D03*
Y3867875D02*
D03*
D25*
X1095375Y4837250D02*
D03*
X968375D02*
D03*
X841375D02*
D03*
X714375D02*
D03*
Y4116250D02*
D03*
X841375D02*
D03*
X968375D02*
D03*
X1095375D02*
D03*
D26*
X1105625Y5159375D02*
D03*
X1275625D02*
D03*
%TF.MD5,fa003b32e4dd10459ff9cb336235d3d2*%
M02*
