%TF.GenerationSoftware,Altium Limited,Altium Designer,23.4.1 (23)*%
G04 Layer_Color=32768*
%FSLAX45Y45*%
%MOMM*%
%TF.SameCoordinates,06F9E411-BB4A-4FCF-AF8D-8E7D50D0EFEC*%
%TF.FilePolarity,Positive*%
%TF.FileFunction,Other,Mechanical_15*%
%TF.Part,Single*%
G01*
G75*
%TA.AperFunction,NonConductor*%
%ADD47C,0.10000*%
%ADD48C,0.05000*%
%ADD49C,0.05080*%
D47*
X1786625Y4258500D02*
X1821625Y4293500D01*
Y4258500D02*
Y4758500D01*
X1321625D02*
X1821625D01*
X1321625Y4258500D02*
Y4758500D01*
Y4258500D02*
X1821625D01*
D48*
X409375Y992000D02*
Y1294000D01*
X257375Y992000D02*
X409375D01*
X257375D02*
Y1294000D01*
X409375D01*
X479625Y992000D02*
Y1294000D01*
X631625D01*
Y992000D02*
Y1294000D01*
X479625Y992000D02*
X631625D01*
X2362000Y5754500D02*
Y6056500D01*
X2210000D02*
X2362000D01*
X2210000Y5754500D02*
Y6056500D01*
Y5754500D02*
X2362000D01*
X330500Y8092350D02*
X2971500D01*
X330500D02*
Y8637650D01*
X2971500D01*
Y8092350D02*
Y8637650D01*
X330500Y362350D02*
X2971500D01*
X330500D02*
Y907650D01*
X2971500D01*
Y362350D02*
Y907650D01*
X610875Y4942750D02*
X1198875D01*
X610875Y4010750D02*
Y4942750D01*
Y4010750D02*
X1198875D01*
Y4942750D01*
X885625Y5214750D02*
Y5516750D01*
X733625D02*
X885625D01*
X733625Y5214750D02*
Y5516750D01*
Y5214750D02*
X885625D01*
X1019375Y5294125D02*
Y5596125D01*
Y5294125D02*
X1171375D01*
Y5596125D01*
X1019375D02*
X1171375D01*
X2691000Y6138500D02*
Y6671500D01*
X609000Y6138500D02*
X2691000D01*
X609000D02*
Y6671500D01*
X2691000D01*
X609000Y2228500D02*
Y2761500D01*
X2691000D01*
Y2228500D02*
Y2761500D01*
X609000Y2228500D02*
X2691000D01*
X2779500Y3459000D02*
X3312500D01*
X2779500D02*
Y5541000D01*
X3312500D01*
Y3459000D02*
Y5541000D01*
X-12500D02*
X520500D01*
Y3459000D02*
Y5541000D01*
X-12500Y3459000D02*
X520500D01*
X-12500D02*
Y5541000D01*
X870000Y1879250D02*
X2430000D01*
Y1359250D02*
Y1879250D01*
X870000Y1359250D02*
X2430000D01*
X870000D02*
Y1879250D01*
D49*
X1953700Y6067175D02*
X2110300D01*
Y5732575D02*
Y6067175D01*
X1953700Y5732575D02*
X2110300D01*
X1953700D02*
Y6067175D01*
X1023325Y5081075D02*
X1357925D01*
Y5237675D01*
X1023325D02*
X1357925D01*
X1023325Y5081075D02*
Y5237675D01*
X2173800Y3944325D02*
Y4278925D01*
X2017200Y3944325D02*
X2173800D01*
X2017200D02*
Y4278925D01*
X2173800D01*
X2411925Y3944325D02*
Y4278925D01*
X2255325Y3944325D02*
X2411925D01*
X2255325D02*
Y4278925D01*
X2411925D01*
X2650050Y3944325D02*
Y4278925D01*
X2493450Y3944325D02*
X2650050D01*
X2493450D02*
Y4278925D01*
X2650050D01*
X2493450Y3791200D02*
Y4125800D01*
Y3791200D02*
X2650050D01*
Y4125800D01*
X2493450D02*
X2650050D01*
X2255325Y3785575D02*
Y4120175D01*
Y3785575D02*
X2411925D01*
Y4120175D01*
X2255325D02*
X2411925D01*
X2048950Y3785575D02*
Y4120175D01*
Y3785575D02*
X2205550D01*
Y4120175D01*
X2048950D02*
X2205550D01*
X1350450Y3785575D02*
Y4120175D01*
Y3785575D02*
X1507050D01*
Y4120175D01*
X1350450D02*
X1507050D01*
X1588575Y3785575D02*
Y4120175D01*
Y3785575D02*
X1745175D01*
Y4120175D01*
X1588575D02*
X1745175D01*
X1826700Y3785575D02*
Y4120175D01*
Y3785575D02*
X1983300D01*
Y4120175D01*
X1826700D02*
X1983300D01*
X540825Y1420200D02*
Y1754800D01*
X697425D01*
Y1420200D02*
Y1754800D01*
X540825Y1420200D02*
X697425D01*
X2604575D02*
Y1754800D01*
X2761175D01*
Y1420200D02*
Y1754800D01*
X2604575Y1420200D02*
X2761175D01*
%TF.MD5,0fb5605c6017debd8bf3ac0bfe21ad90*%
M02*
