%TF.GenerationSoftware,Altium Limited,Altium Designer,23.4.1 (23)*%
G04 Layer_Color=128*
%FSLAX45Y45*%
%MOMM*%
%TF.SameCoordinates,06F9E411-BB4A-4FCF-AF8D-8E7D50D0EFEC*%
%TF.FilePolarity,Positive*%
%TF.FileFunction,Drillmap*%
%TF.Part,Single*%
G01*
G75*
%TA.AperFunction,NonConductor*%
%ADD29C,0.12700*%
D29*
X2742000Y8492000D02*
X2846000D01*
X2794000Y8440000D02*
Y8544000D01*
X2742000Y8238000D02*
X2846000D01*
X2794000Y8186000D02*
Y8290000D01*
X2488000Y8492000D02*
X2592000D01*
X2540000Y8440000D02*
Y8544000D01*
X2488000Y8238000D02*
X2592000D01*
X2540000Y8186000D02*
Y8290000D01*
X2234000Y8492000D02*
X2338000D01*
X2286000Y8440000D02*
Y8544000D01*
X2234000Y8238000D02*
X2338000D01*
X2286000Y8186000D02*
Y8290000D01*
X1980000Y8492000D02*
X2084000D01*
X2032000Y8440000D02*
Y8544000D01*
X1980000Y8238000D02*
X2084000D01*
X2032000Y8186000D02*
Y8290000D01*
X1726000Y8492000D02*
X1830000D01*
X1778000Y8440000D02*
Y8544000D01*
X1726000Y8238000D02*
X1830000D01*
X1778000Y8186000D02*
Y8290000D01*
X1472000Y8492000D02*
X1576000D01*
X1524000Y8440000D02*
Y8544000D01*
X1472000Y8238000D02*
X1576000D01*
X1524000Y8186000D02*
Y8290000D01*
X1218000Y8492000D02*
X1322000D01*
X1270000Y8440000D02*
Y8544000D01*
X1218000Y8238000D02*
X1322000D01*
X1270000Y8186000D02*
Y8290000D01*
X964000Y8492000D02*
X1068000D01*
X1016000Y8440000D02*
Y8544000D01*
X964000Y8238000D02*
X1068000D01*
X1016000Y8186000D02*
Y8290000D01*
X710000Y8492000D02*
X814000D01*
X762000Y8440000D02*
Y8544000D01*
X710000Y8238000D02*
X814000D01*
X762000Y8186000D02*
Y8290000D01*
X456000Y8492000D02*
X560000D01*
X508000Y8440000D02*
Y8544000D01*
X456000Y8238000D02*
X560000D01*
X508000Y8186000D02*
Y8290000D01*
X2742000Y762000D02*
X2846000D01*
X2794000Y710000D02*
Y814000D01*
X2742000Y508000D02*
X2846000D01*
X2794000Y456000D02*
Y560000D01*
X2488000Y762000D02*
X2592000D01*
X2540000Y710000D02*
Y814000D01*
X2488000Y508000D02*
X2592000D01*
X2540000Y456000D02*
Y560000D01*
X2234000Y762000D02*
X2338000D01*
X2286000Y710000D02*
Y814000D01*
X2234000Y508000D02*
X2338000D01*
X2286000Y456000D02*
Y560000D01*
X1980000Y762000D02*
X2084000D01*
X2032000Y710000D02*
Y814000D01*
X1980000Y508000D02*
X2084000D01*
X2032000Y456000D02*
Y560000D01*
X1726000Y762000D02*
X1830000D01*
X1778000Y710000D02*
Y814000D01*
X1726000Y508000D02*
X1830000D01*
X1778000Y456000D02*
Y560000D01*
X1472000Y762000D02*
X1576000D01*
X1524000Y710000D02*
Y814000D01*
X1472000Y508000D02*
X1576000D01*
X1524000Y456000D02*
Y560000D01*
X1218000Y762000D02*
X1322000D01*
X1270000Y710000D02*
Y814000D01*
X1218000Y508000D02*
X1322000D01*
X1270000Y456000D02*
Y560000D01*
X964000Y762000D02*
X1068000D01*
X1016000Y710000D02*
Y814000D01*
X964000Y508000D02*
X1068000D01*
X1016000Y456000D02*
Y560000D01*
X710000Y762000D02*
X814000D01*
X762000Y710000D02*
Y814000D01*
X710000Y508000D02*
X814000D01*
X762000Y456000D02*
Y560000D01*
X456000Y762000D02*
X560000D01*
X508000Y710000D02*
Y814000D01*
X456000Y508000D02*
X560000D01*
X508000Y456000D02*
Y560000D01*
X2484000Y6532000D02*
X2594000D01*
X2539000Y6477000D02*
Y6587000D01*
X2484000Y6278000D02*
X2594000D01*
X2539000Y6223000D02*
Y6333000D01*
X2230000Y6532000D02*
X2340000D01*
X2285000Y6477000D02*
Y6587000D01*
X2230000Y6278000D02*
X2340000D01*
X2285000Y6223000D02*
Y6333000D01*
X1976000Y6532000D02*
X2086000D01*
X2031000Y6477000D02*
Y6587000D01*
X1976000Y6278000D02*
X2086000D01*
X2031000Y6223000D02*
Y6333000D01*
X1722000Y6532000D02*
X1832000D01*
X1777000Y6477000D02*
Y6587000D01*
X1722000Y6278000D02*
X1832000D01*
X1777000Y6223000D02*
Y6333000D01*
X1468000Y6532000D02*
X1578000D01*
X1523000Y6477000D02*
Y6587000D01*
X1468000Y6278000D02*
X1578000D01*
X1523000Y6223000D02*
Y6333000D01*
X1214000Y6532000D02*
X1324000D01*
X1269000Y6477000D02*
Y6587000D01*
X1214000Y6278000D02*
X1324000D01*
X1269000Y6223000D02*
Y6333000D01*
X960000Y6532000D02*
X1070000D01*
X1015000Y6477000D02*
Y6587000D01*
X960000Y6278000D02*
X1070000D01*
X1015000Y6223000D02*
Y6333000D01*
X706000Y6532000D02*
X816000D01*
X761000Y6477000D02*
Y6587000D01*
X706000Y6278000D02*
X816000D01*
X761000Y6223000D02*
Y6333000D01*
X2517775Y6921500D02*
X2593975D01*
X2555875Y6883400D02*
Y6959600D01*
X2263775Y6921500D02*
X2339975D01*
X2301875Y6883400D02*
Y6959600D01*
X2771775Y6921500D02*
X2847975D01*
X2809875Y6883400D02*
Y6959600D01*
X3025775Y6921500D02*
X3101975D01*
X3063875Y6883400D02*
Y6959600D01*
X1501775Y6921500D02*
X1577975D01*
X1539875Y6883400D02*
Y6959600D01*
X1755775Y6921500D02*
X1831975D01*
X1793875Y6883400D02*
Y6959600D01*
X2009775Y6921500D02*
X2085975D01*
X2047875Y6883400D02*
Y6959600D01*
X1247775Y6921500D02*
X1323975D01*
X1285875Y6883400D02*
Y6959600D01*
X739775Y6921500D02*
X815975D01*
X777875Y6883400D02*
Y6959600D01*
X485775Y6921500D02*
X561975D01*
X523875Y6883400D02*
Y6959600D01*
X993775Y6921500D02*
X1069975D01*
X1031875Y6883400D02*
Y6959600D01*
X231775Y6921500D02*
X307975D01*
X269875Y6883400D02*
Y6959600D01*
X706000Y2368000D02*
X816000D01*
X761000Y2313000D02*
Y2423000D01*
X706000Y2622000D02*
X816000D01*
X761000Y2567000D02*
Y2677000D01*
X960000Y2368000D02*
X1070000D01*
X1015000Y2313000D02*
Y2423000D01*
X960000Y2622000D02*
X1070000D01*
X1015000Y2567000D02*
Y2677000D01*
X1214000Y2368000D02*
X1324000D01*
X1269000Y2313000D02*
Y2423000D01*
X1214000Y2622000D02*
X1324000D01*
X1269000Y2567000D02*
Y2677000D01*
X1468000Y2368000D02*
X1578000D01*
X1523000Y2313000D02*
Y2423000D01*
X1468000Y2622000D02*
X1578000D01*
X1523000Y2567000D02*
Y2677000D01*
X1722000Y2368000D02*
X1832000D01*
X1777000Y2313000D02*
Y2423000D01*
X1722000Y2622000D02*
X1832000D01*
X1777000Y2567000D02*
Y2677000D01*
X1976000Y2368000D02*
X2086000D01*
X2031000Y2313000D02*
Y2423000D01*
X1976000Y2622000D02*
X2086000D01*
X2031000Y2567000D02*
Y2677000D01*
X2230000Y2368000D02*
X2340000D01*
X2285000Y2313000D02*
Y2423000D01*
X2230000Y2622000D02*
X2340000D01*
X2285000Y2567000D02*
Y2677000D01*
X2484000Y2368000D02*
X2594000D01*
X2539000Y2313000D02*
Y2423000D01*
X2484000Y2622000D02*
X2594000D01*
X2539000Y2567000D02*
Y2677000D01*
X2517775Y7175500D02*
X2593975D01*
X2555875Y7137400D02*
Y7213600D01*
X2263775Y7175500D02*
X2339975D01*
X2301875Y7137400D02*
Y7213600D01*
X2771775Y7175500D02*
X2847975D01*
X2809875Y7137400D02*
Y7213600D01*
X3025775Y7175500D02*
X3101975D01*
X3063875Y7137400D02*
Y7213600D01*
X1501775Y7175500D02*
X1577975D01*
X1539875Y7137400D02*
Y7213600D01*
X1755775Y7175500D02*
X1831975D01*
X1793875Y7137400D02*
Y7213600D01*
X2009775Y7175500D02*
X2085975D01*
X2047875Y7137400D02*
Y7213600D01*
X1247775Y7175500D02*
X1323975D01*
X1285875Y7137400D02*
Y7213600D01*
X739775Y7175500D02*
X815975D01*
X777875Y7137400D02*
Y7213600D01*
X485775Y7175500D02*
X561975D01*
X523875Y7137400D02*
Y7213600D01*
X993775Y7175500D02*
X1069975D01*
X1031875Y7137400D02*
Y7213600D01*
X231775Y7175500D02*
X307975D01*
X269875Y7137400D02*
Y7213600D01*
X3118000Y3611000D02*
X3228000D01*
X3173000Y3556000D02*
Y3666000D01*
X2864000Y3611000D02*
X2974000D01*
X2919000Y3556000D02*
Y3666000D01*
X3118000Y3865000D02*
X3228000D01*
X3173000Y3810000D02*
Y3920000D01*
X2864000Y3865000D02*
X2974000D01*
X2919000Y3810000D02*
Y3920000D01*
X3118000Y4119000D02*
X3228000D01*
X3173000Y4064000D02*
Y4174000D01*
X2864000Y4119000D02*
X2974000D01*
X2919000Y4064000D02*
Y4174000D01*
X3118000Y4373000D02*
X3228000D01*
X3173000Y4318000D02*
Y4428000D01*
X2864000Y4373000D02*
X2974000D01*
X2919000Y4318000D02*
Y4428000D01*
X3118000Y4627000D02*
X3228000D01*
X3173000Y4572000D02*
Y4682000D01*
X2864000Y4627000D02*
X2974000D01*
X2919000Y4572000D02*
Y4682000D01*
X3118000Y4881000D02*
X3228000D01*
X3173000Y4826000D02*
Y4936000D01*
X2864000Y4881000D02*
X2974000D01*
X2919000Y4826000D02*
Y4936000D01*
X3118000Y5135000D02*
X3228000D01*
X3173000Y5080000D02*
Y5190000D01*
X2864000Y5135000D02*
X2974000D01*
X2919000Y5080000D02*
Y5190000D01*
X3118000Y5389000D02*
X3228000D01*
X3173000Y5334000D02*
Y5444000D01*
X2864000Y5389000D02*
X2974000D01*
X2919000Y5334000D02*
Y5444000D01*
X72000Y5389000D02*
X182000D01*
X127000Y5334000D02*
Y5444000D01*
X326000Y5389000D02*
X436000D01*
X381000Y5334000D02*
Y5444000D01*
X72000Y5135000D02*
X182000D01*
X127000Y5080000D02*
Y5190000D01*
X326000Y5135000D02*
X436000D01*
X381000Y5080000D02*
Y5190000D01*
X72000Y4881000D02*
X182000D01*
X127000Y4826000D02*
Y4936000D01*
X326000Y4881000D02*
X436000D01*
X381000Y4826000D02*
Y4936000D01*
X72000Y4627000D02*
X182000D01*
X127000Y4572000D02*
Y4682000D01*
X326000Y4627000D02*
X436000D01*
X381000Y4572000D02*
Y4682000D01*
X72000Y4373000D02*
X182000D01*
X127000Y4318000D02*
Y4428000D01*
X326000Y4373000D02*
X436000D01*
X381000Y4318000D02*
Y4428000D01*
X72000Y4119000D02*
X182000D01*
X127000Y4064000D02*
Y4174000D01*
X326000Y4119000D02*
X436000D01*
X381000Y4064000D02*
Y4174000D01*
X72000Y3865000D02*
X182000D01*
X127000Y3810000D02*
Y3920000D01*
X326000Y3865000D02*
X436000D01*
X381000Y3810000D02*
Y3920000D01*
X72000Y3611000D02*
X182000D01*
X127000Y3556000D02*
Y3666000D01*
X326000Y3611000D02*
X436000D01*
X381000Y3556000D02*
Y3666000D01*
X231775Y7429500D02*
X307975D01*
X269875Y7391400D02*
Y7467600D01*
X993775Y7429500D02*
X1069975D01*
X1031875Y7391400D02*
Y7467600D01*
X485775Y7429500D02*
X561975D01*
X523875Y7391400D02*
Y7467600D01*
X739775Y7429500D02*
X815975D01*
X777875Y7391400D02*
Y7467600D01*
X1247775Y7429500D02*
X1323975D01*
X1285875Y7391400D02*
Y7467600D01*
X2009775Y7429500D02*
X2085975D01*
X2047875Y7391400D02*
Y7467600D01*
X1755775Y7429500D02*
X1831975D01*
X1793875Y7391400D02*
Y7467600D01*
X1501775Y7429500D02*
X1577975D01*
X1539875Y7391400D02*
Y7467600D01*
X3025775Y7429500D02*
X3101975D01*
X3063875Y7391400D02*
Y7467600D01*
X2771775Y7429500D02*
X2847975D01*
X2809875Y7391400D02*
Y7467600D01*
X2263775Y7429500D02*
X2339975D01*
X2301875Y7391400D02*
Y7467600D01*
X2517775Y7429500D02*
X2593975D01*
X2555875Y7391400D02*
Y7467600D01*
X2263775Y7937500D02*
X2339975D01*
X2301875Y7899400D02*
Y7975600D01*
X2263775Y7683500D02*
X2339975D01*
X2301875Y7645400D02*
Y7721600D01*
X2517775Y7683500D02*
X2593975D01*
X2555875Y7645400D02*
Y7721600D01*
X2517775Y7937500D02*
X2593975D01*
X2555875Y7899400D02*
Y7975600D01*
X3025775Y7937500D02*
X3101975D01*
X3063875Y7899400D02*
Y7975600D01*
X3025775Y7683500D02*
X3101975D01*
X3063875Y7645400D02*
Y7721600D01*
X2771775Y7683500D02*
X2847975D01*
X2809875Y7645400D02*
Y7721600D01*
X2771775Y7937500D02*
X2847975D01*
X2809875Y7899400D02*
Y7975600D01*
X1247775Y7937500D02*
X1323975D01*
X1285875Y7899400D02*
Y7975600D01*
X1247775Y7683500D02*
X1323975D01*
X1285875Y7645400D02*
Y7721600D01*
X1501775Y7683500D02*
X1577975D01*
X1539875Y7645400D02*
Y7721600D01*
X1501775Y7937500D02*
X1577975D01*
X1539875Y7899400D02*
Y7975600D01*
X2009775Y7937500D02*
X2085975D01*
X2047875Y7899400D02*
Y7975600D01*
X2009775Y7683500D02*
X2085975D01*
X2047875Y7645400D02*
Y7721600D01*
X1755775Y7683500D02*
X1831975D01*
X1793875Y7645400D02*
Y7721600D01*
X1755775Y7937500D02*
X1831975D01*
X1793875Y7899400D02*
Y7975600D01*
X739775Y7937500D02*
X815975D01*
X777875Y7899400D02*
Y7975600D01*
X739775Y7683500D02*
X815975D01*
X777875Y7645400D02*
Y7721600D01*
X993775Y7683500D02*
X1069975D01*
X1031875Y7645400D02*
Y7721600D01*
X993775Y7937500D02*
X1069975D01*
X1031875Y7899400D02*
Y7975600D01*
X485775Y7937500D02*
X561975D01*
X523875Y7899400D02*
Y7975600D01*
X485775Y7683500D02*
X561975D01*
X523875Y7645400D02*
Y7721600D01*
X231775Y7683500D02*
X307975D01*
X269875Y7645400D02*
Y7721600D01*
X231775Y7937500D02*
X307975D01*
X269875Y7899400D02*
Y7975600D01*
X1541625Y4508500D02*
X1601625D01*
X1571625Y4478500D02*
Y4538500D01*
X1287625Y5524500D02*
X1347625D01*
X1317625Y5494500D02*
Y5554500D01*
X2176625Y3714750D02*
X2236625D01*
X2206625Y3684750D02*
Y3744750D01*
X684375Y3746500D02*
X744375D01*
X714375Y3716500D02*
Y3776500D01*
X605000Y5413375D02*
X665000D01*
X635000Y5383375D02*
Y5443375D01*
X779625Y5048250D02*
X839625D01*
X809625Y5018250D02*
Y5078250D01*
X2494125Y5810250D02*
X2554125D01*
X2524125Y5780250D02*
Y5840250D01*
X636750Y4651375D02*
X696750D01*
X666750Y4621375D02*
Y4681375D01*
X684375Y5635625D02*
X744375D01*
X714375Y5605625D02*
Y5665625D01*
%TF.MD5,0410674e4942956ce7973ed926553e45*%
M02*
