%TF.GenerationSoftware,Altium Limited,Altium Designer,23.4.1 (23)*%
G04 Layer_Color=255*
%FSLAX45Y45*%
%MOMM*%
%TF.SameCoordinates,3C8645F9-427F-4EF9-BD5D-D69B0DC8593D*%
%TF.FilePolarity,Positive*%
%TF.FileFunction,Pads,Bot*%
%TF.Part,Single*%
G01*
G75*
%TA.AperFunction,ComponentPad*%
%ADD16C,1.65000*%
%ADD17R,1.65000X1.65000*%
%ADD18R,1.65000X1.65000*%
%TA.AperFunction,ViaPad*%
%ADD19R,2.00000X2.00000*%
%TA.AperFunction,ComponentPad*%
%ADD20R,1.39000X1.39000*%
%ADD21C,1.39000*%
D16*
X381000Y2976000D02*
D03*
X127000D02*
D03*
X381000Y3230000D02*
D03*
X127000D02*
D03*
X381000Y3484000D02*
D03*
X127000D02*
D03*
X381000Y3738000D02*
D03*
X127000D02*
D03*
X381000Y3992000D02*
D03*
X127000D02*
D03*
X381000Y4246000D02*
D03*
X127000D02*
D03*
X381000Y4500000D02*
D03*
X127000D02*
D03*
X381000Y4754000D02*
D03*
X127000D02*
D03*
X381000Y5008000D02*
D03*
X127000D02*
D03*
X381000Y5262000D02*
D03*
X127000D02*
D03*
X381000Y5516000D02*
D03*
X127000D02*
D03*
X381000Y5770000D02*
D03*
X127000D02*
D03*
X381000Y6024000D02*
D03*
X126000Y2087000D02*
D03*
X380000Y1833000D02*
D03*
Y2087000D02*
D03*
X634000Y1833000D02*
D03*
Y2087000D02*
D03*
X888000Y1833000D02*
D03*
Y2087000D02*
D03*
X1142000Y1833000D02*
D03*
Y2087000D02*
D03*
X1396000Y1833000D02*
D03*
Y2087000D02*
D03*
X1650000Y1833000D02*
D03*
Y2087000D02*
D03*
X1904000Y1833000D02*
D03*
Y2087000D02*
D03*
X2158000Y1833000D02*
D03*
Y2087000D02*
D03*
X2412000Y1833000D02*
D03*
Y2087000D02*
D03*
X2666000Y1833000D02*
D03*
Y2087000D02*
D03*
X2920000Y1833000D02*
D03*
Y2087000D02*
D03*
X3174000Y1833000D02*
D03*
Y2087000D02*
D03*
Y6913000D02*
D03*
X2920000Y7167000D02*
D03*
Y6913000D02*
D03*
X2666000Y7167000D02*
D03*
Y6913000D02*
D03*
X2412000Y7167000D02*
D03*
Y6913000D02*
D03*
X2158000Y7167000D02*
D03*
Y6913000D02*
D03*
X1904000Y7167000D02*
D03*
Y6913000D02*
D03*
X1650000Y7167000D02*
D03*
Y6913000D02*
D03*
X1396000Y7167000D02*
D03*
Y6913000D02*
D03*
X1142000Y7167000D02*
D03*
Y6913000D02*
D03*
X888000Y7167000D02*
D03*
Y6913000D02*
D03*
X634000Y7167000D02*
D03*
Y6913000D02*
D03*
X380000Y7167000D02*
D03*
Y6913000D02*
D03*
X126000Y7167000D02*
D03*
Y6913000D02*
D03*
X2919000Y2976000D02*
D03*
X3173000Y3230000D02*
D03*
X2919000D02*
D03*
X3173000Y3484000D02*
D03*
X2919000D02*
D03*
X3173000Y3738000D02*
D03*
X2919000D02*
D03*
X3173000Y3992000D02*
D03*
X2919000D02*
D03*
X3173000Y4246000D02*
D03*
X2919000D02*
D03*
X3173000Y4500000D02*
D03*
X2919000D02*
D03*
X3173000Y4754000D02*
D03*
X2919000D02*
D03*
X3173000Y5008000D02*
D03*
X2919000D02*
D03*
X3173000Y5262000D02*
D03*
X2919000D02*
D03*
X3173000Y5516000D02*
D03*
X2919000D02*
D03*
X3173000Y5770000D02*
D03*
X2919000D02*
D03*
X3173000Y6024000D02*
D03*
X2919000D02*
D03*
D17*
X127000D02*
D03*
X3173000Y2976000D02*
D03*
D18*
X126000Y1833000D02*
D03*
X3174000Y7167000D02*
D03*
D19*
X269875Y7429500D02*
D03*
X1031875D02*
D03*
X523875D02*
D03*
X777875D02*
D03*
X1285875D02*
D03*
X2047875D02*
D03*
X1793875D02*
D03*
X1539875D02*
D03*
X3063875D02*
D03*
X2809875D02*
D03*
X2301875D02*
D03*
X2555875D02*
D03*
X2301875Y7937500D02*
D03*
Y7683500D02*
D03*
X2555875D02*
D03*
Y7937500D02*
D03*
X3063875D02*
D03*
Y7683500D02*
D03*
X2809875D02*
D03*
Y7937500D02*
D03*
X1285875D02*
D03*
Y7683500D02*
D03*
X1539875D02*
D03*
Y7937500D02*
D03*
X2047875D02*
D03*
Y7683500D02*
D03*
X1793875D02*
D03*
Y7937500D02*
D03*
X777875D02*
D03*
Y7683500D02*
D03*
X1031875D02*
D03*
Y7937500D02*
D03*
X523875D02*
D03*
Y7683500D02*
D03*
X269875D02*
D03*
Y7937500D02*
D03*
D20*
X508000Y8238000D02*
D03*
Y508000D02*
D03*
D21*
Y8492000D02*
D03*
X762000Y8238000D02*
D03*
Y8492000D02*
D03*
X1016000Y8238000D02*
D03*
Y8492000D02*
D03*
X1270000Y8238000D02*
D03*
Y8492000D02*
D03*
X1524000Y8238000D02*
D03*
Y8492000D02*
D03*
X1778000Y8238000D02*
D03*
Y8492000D02*
D03*
X2032000Y8238000D02*
D03*
Y8492000D02*
D03*
X2286000Y8238000D02*
D03*
Y8492000D02*
D03*
X2540000Y8238000D02*
D03*
Y8492000D02*
D03*
X2794000Y8238000D02*
D03*
Y8492000D02*
D03*
X508000Y762000D02*
D03*
X762000Y508000D02*
D03*
Y762000D02*
D03*
X1016000Y508000D02*
D03*
Y762000D02*
D03*
X1270000Y508000D02*
D03*
Y762000D02*
D03*
X1524000Y508000D02*
D03*
Y762000D02*
D03*
X1778000Y508000D02*
D03*
Y762000D02*
D03*
X2032000Y508000D02*
D03*
Y762000D02*
D03*
X2286000Y508000D02*
D03*
Y762000D02*
D03*
X2540000Y508000D02*
D03*
Y762000D02*
D03*
X2794000Y508000D02*
D03*
Y762000D02*
D03*
%TF.MD5,1382321813bb32cc91b482119cfb4fca*%
M02*
