%TF.GenerationSoftware,Altium Limited,Altium Designer,23.4.1 (23)*%
G04 Layer_Color=255*
%FSLAX45Y45*%
%MOMM*%
%TF.SameCoordinates,3C8645F9-427F-4EF9-BD5D-D69B0DC8593D*%
%TF.FilePolarity,Positive*%
%TF.FileFunction,Pads,Top*%
%TF.Part,Single*%
G01*
G75*
%TA.AperFunction,SMDPad,CuDef*%
%ADD11R,1.47500X0.30000*%
%ADD12R,0.30000X1.47500*%
%ADD13R,5.60000X2.10000*%
%ADD14R,1.00000X1.10000*%
%TA.AperFunction,ComponentPad*%
%ADD16C,1.65000*%
%ADD17R,1.65000X1.65000*%
%ADD18R,1.65000X1.65000*%
%TA.AperFunction,ViaPad*%
%ADD19R,2.00000X2.00000*%
%TA.AperFunction,ComponentPad*%
%ADD20R,1.39000X1.39000*%
%ADD21C,1.39000*%
D11*
X876200Y3900000D02*
D03*
Y3950000D02*
D03*
Y4000000D02*
D03*
Y4050000D02*
D03*
Y4100000D02*
D03*
Y4150000D02*
D03*
Y4200000D02*
D03*
Y4250000D02*
D03*
Y4300000D02*
D03*
Y4350000D02*
D03*
Y4400000D02*
D03*
Y4450000D02*
D03*
Y4500000D02*
D03*
Y4550000D02*
D03*
Y4600000D02*
D03*
Y4650000D02*
D03*
Y4700000D02*
D03*
Y4750000D02*
D03*
Y4800000D02*
D03*
Y4850000D02*
D03*
Y4900000D02*
D03*
Y4950000D02*
D03*
Y5000000D02*
D03*
Y5050000D02*
D03*
Y5100000D02*
D03*
X2423800D02*
D03*
Y5050000D02*
D03*
Y5000000D02*
D03*
Y4950000D02*
D03*
Y4900000D02*
D03*
Y4850000D02*
D03*
Y4800000D02*
D03*
Y4750000D02*
D03*
Y4700000D02*
D03*
Y4650000D02*
D03*
Y4600000D02*
D03*
Y4550000D02*
D03*
Y4500000D02*
D03*
Y4450000D02*
D03*
Y4400000D02*
D03*
Y4350000D02*
D03*
Y4300000D02*
D03*
Y4250000D02*
D03*
Y4200000D02*
D03*
Y4150000D02*
D03*
Y4100000D02*
D03*
Y4050000D02*
D03*
Y4000000D02*
D03*
Y3950000D02*
D03*
Y3900000D02*
D03*
D12*
X1050000Y5273800D02*
D03*
X1100000D02*
D03*
X1150000D02*
D03*
X1200000D02*
D03*
X1250000D02*
D03*
X1300000D02*
D03*
X1350000D02*
D03*
X1400000D02*
D03*
X1450000D02*
D03*
X1500000D02*
D03*
X1550000D02*
D03*
X1600000D02*
D03*
X1650000D02*
D03*
X1700000D02*
D03*
X1750000D02*
D03*
X1800000D02*
D03*
X1850000D02*
D03*
X1900000D02*
D03*
X1950000D02*
D03*
X2000000D02*
D03*
X2050000D02*
D03*
X2100000D02*
D03*
X2150000D02*
D03*
X2200000D02*
D03*
X2250000D02*
D03*
Y3726200D02*
D03*
X2200000D02*
D03*
X2150000D02*
D03*
X2100000D02*
D03*
X2050000D02*
D03*
X2000000D02*
D03*
X1950000D02*
D03*
X1900000D02*
D03*
X1850000D02*
D03*
X1800000D02*
D03*
X1750000D02*
D03*
X1700000D02*
D03*
X1650000D02*
D03*
X1600000D02*
D03*
X1550000D02*
D03*
X1500000D02*
D03*
X1450000D02*
D03*
X1400000D02*
D03*
X1350000D02*
D03*
X1300000D02*
D03*
X1250000D02*
D03*
X1200000D02*
D03*
X1150000D02*
D03*
X1100000D02*
D03*
X1050000D02*
D03*
D13*
X2126000Y1295400D02*
D03*
X1176000D02*
D03*
D14*
X889000Y3248750D02*
D03*
Y3418750D02*
D03*
X2714625Y1291500D02*
D03*
Y1121500D02*
D03*
X635000Y1243875D02*
D03*
Y1073875D02*
D03*
D16*
X381000Y2976000D02*
D03*
X127000D02*
D03*
X381000Y3230000D02*
D03*
X127000D02*
D03*
X381000Y3484000D02*
D03*
X127000D02*
D03*
X381000Y3738000D02*
D03*
X127000D02*
D03*
X381000Y3992000D02*
D03*
X127000D02*
D03*
X381000Y4246000D02*
D03*
X127000D02*
D03*
X381000Y4500000D02*
D03*
X127000D02*
D03*
X381000Y4754000D02*
D03*
X127000D02*
D03*
X381000Y5008000D02*
D03*
X127000D02*
D03*
X381000Y5262000D02*
D03*
X127000D02*
D03*
X381000Y5516000D02*
D03*
X127000D02*
D03*
X381000Y5770000D02*
D03*
X127000D02*
D03*
X381000Y6024000D02*
D03*
X126000Y2087000D02*
D03*
X380000Y1833000D02*
D03*
Y2087000D02*
D03*
X634000Y1833000D02*
D03*
Y2087000D02*
D03*
X888000Y1833000D02*
D03*
Y2087000D02*
D03*
X1142000Y1833000D02*
D03*
Y2087000D02*
D03*
X1396000Y1833000D02*
D03*
Y2087000D02*
D03*
X1650000Y1833000D02*
D03*
Y2087000D02*
D03*
X1904000Y1833000D02*
D03*
Y2087000D02*
D03*
X2158000Y1833000D02*
D03*
Y2087000D02*
D03*
X2412000Y1833000D02*
D03*
Y2087000D02*
D03*
X2666000Y1833000D02*
D03*
Y2087000D02*
D03*
X2920000Y1833000D02*
D03*
Y2087000D02*
D03*
X3174000Y1833000D02*
D03*
Y2087000D02*
D03*
Y6913000D02*
D03*
X2920000Y7167000D02*
D03*
Y6913000D02*
D03*
X2666000Y7167000D02*
D03*
Y6913000D02*
D03*
X2412000Y7167000D02*
D03*
Y6913000D02*
D03*
X2158000Y7167000D02*
D03*
Y6913000D02*
D03*
X1904000Y7167000D02*
D03*
Y6913000D02*
D03*
X1650000Y7167000D02*
D03*
Y6913000D02*
D03*
X1396000Y7167000D02*
D03*
Y6913000D02*
D03*
X1142000Y7167000D02*
D03*
Y6913000D02*
D03*
X888000Y7167000D02*
D03*
Y6913000D02*
D03*
X634000Y7167000D02*
D03*
Y6913000D02*
D03*
X380000Y7167000D02*
D03*
Y6913000D02*
D03*
X126000Y7167000D02*
D03*
Y6913000D02*
D03*
X2919000Y2976000D02*
D03*
X3173000Y3230000D02*
D03*
X2919000D02*
D03*
X3173000Y3484000D02*
D03*
X2919000D02*
D03*
X3173000Y3738000D02*
D03*
X2919000D02*
D03*
X3173000Y3992000D02*
D03*
X2919000D02*
D03*
X3173000Y4246000D02*
D03*
X2919000D02*
D03*
X3173000Y4500000D02*
D03*
X2919000D02*
D03*
X3173000Y4754000D02*
D03*
X2919000D02*
D03*
X3173000Y5008000D02*
D03*
X2919000D02*
D03*
X3173000Y5262000D02*
D03*
X2919000D02*
D03*
X3173000Y5516000D02*
D03*
X2919000D02*
D03*
X3173000Y5770000D02*
D03*
X2919000D02*
D03*
X3173000Y6024000D02*
D03*
X2919000D02*
D03*
D17*
X127000D02*
D03*
X3173000Y2976000D02*
D03*
D18*
X126000Y1833000D02*
D03*
X3174000Y7167000D02*
D03*
D19*
X269875Y7429500D02*
D03*
X1031875D02*
D03*
X523875D02*
D03*
X777875D02*
D03*
X1285875D02*
D03*
X2047875D02*
D03*
X1793875D02*
D03*
X1539875D02*
D03*
X3063875D02*
D03*
X2809875D02*
D03*
X2301875D02*
D03*
X2555875D02*
D03*
X2301875Y7937500D02*
D03*
Y7683500D02*
D03*
X2555875D02*
D03*
Y7937500D02*
D03*
X3063875D02*
D03*
Y7683500D02*
D03*
X2809875D02*
D03*
Y7937500D02*
D03*
X1285875D02*
D03*
Y7683500D02*
D03*
X1539875D02*
D03*
Y7937500D02*
D03*
X2047875D02*
D03*
Y7683500D02*
D03*
X1793875D02*
D03*
Y7937500D02*
D03*
X777875D02*
D03*
Y7683500D02*
D03*
X1031875D02*
D03*
Y7937500D02*
D03*
X523875D02*
D03*
Y7683500D02*
D03*
X269875D02*
D03*
Y7937500D02*
D03*
D20*
X508000Y8238000D02*
D03*
Y508000D02*
D03*
D21*
Y8492000D02*
D03*
X762000Y8238000D02*
D03*
Y8492000D02*
D03*
X1016000Y8238000D02*
D03*
Y8492000D02*
D03*
X1270000Y8238000D02*
D03*
Y8492000D02*
D03*
X1524000Y8238000D02*
D03*
Y8492000D02*
D03*
X1778000Y8238000D02*
D03*
Y8492000D02*
D03*
X2032000Y8238000D02*
D03*
Y8492000D02*
D03*
X2286000Y8238000D02*
D03*
Y8492000D02*
D03*
X2540000Y8238000D02*
D03*
Y8492000D02*
D03*
X2794000Y8238000D02*
D03*
Y8492000D02*
D03*
X508000Y762000D02*
D03*
X762000Y508000D02*
D03*
Y762000D02*
D03*
X1016000Y508000D02*
D03*
Y762000D02*
D03*
X1270000Y508000D02*
D03*
Y762000D02*
D03*
X1524000Y508000D02*
D03*
Y762000D02*
D03*
X1778000Y508000D02*
D03*
Y762000D02*
D03*
X2032000Y508000D02*
D03*
Y762000D02*
D03*
X2286000Y508000D02*
D03*
Y762000D02*
D03*
X2540000Y508000D02*
D03*
Y762000D02*
D03*
X2794000Y508000D02*
D03*
Y762000D02*
D03*
%TF.MD5,793d5c64e1d68a1d05e9645d14f0b95a*%
M02*
