%TF.GenerationSoftware,Altium Limited,Altium Designer,23.4.1 (23)*%
G04 Layer_Color=32896*
%FSLAX45Y45*%
%MOMM*%
%TF.SameCoordinates,3C8645F9-427F-4EF9-BD5D-D69B0DC8593D*%
%TF.FilePolarity,Positive*%
%TF.FileFunction,Legend,Bot*%
%TF.Part,Single*%
G01*
G75*
%TA.AperFunction,NonConductor*%
%ADD22C,0.20000*%
%ADD25C,0.25400*%
D22*
X300500Y8238000D02*
G03*
X300500Y8238000I-10000J0D01*
G01*
Y508000D02*
G03*
X300500Y508000I-10000J0D01*
G01*
X2946500Y8117350D02*
Y8612650D01*
X355500Y8117350D02*
Y8612650D01*
X2946500D01*
X355500Y8117350D02*
X2946500D01*
Y387350D02*
Y882650D01*
X355500Y387350D02*
Y882650D01*
X2946500D01*
X355500Y387350D02*
X2946500D01*
D25*
X447073Y1137871D02*
X497857D01*
X472465D01*
Y1010912D01*
X497857Y985520D01*
X523248D01*
X548640Y1010912D01*
X294722Y985520D02*
X396289D01*
X294722Y1087087D01*
Y1112479D01*
X320114Y1137871D01*
X370897D01*
X396289Y1112479D01*
X396273Y8869631D02*
X447057D01*
X421665D01*
Y8742672D01*
X447057Y8717280D01*
X472448D01*
X497840Y8742672D01*
X345489Y8717280D02*
X294706D01*
X320097D01*
Y8869631D01*
X345489Y8844239D01*
%TF.MD5,6827d23456fc9a93e4b0cd05b287eb7e*%
M02*
