%TF.GenerationSoftware,Altium Limited,Altium Designer,23.4.1 (23)*%
G04 Layer_Color=0*
%FSLAX45Y45*%
%MOMM*%
%TF.SameCoordinates,3C8645F9-427F-4EF9-BD5D-D69B0DC8593D*%
%TF.FilePolarity,Positive*%
%TF.FileFunction,Plated,1,2,PTH,Drill*%
%TF.Part,Single*%
G01*
G75*
%TA.AperFunction,ComponentDrill*%
%ADD41C,1.10000*%
%ADD42C,1.10000*%
%TA.AperFunction,OtherDrill,Pad Free-17 (2.699mm,74.295mm)*%
%ADD43C,0.76200*%
%TA.AperFunction,OtherDrill,Pad Free-17 (10.319mm,74.295mm)*%
%ADD44C,0.76200*%
%TA.AperFunction,OtherDrill,Pad Free-17 (5.239mm,74.295mm)*%
%ADD45C,0.76200*%
%TA.AperFunction,OtherDrill,Pad Free-17 (7.779mm,74.295mm)*%
%ADD46C,0.76200*%
%TA.AperFunction,OtherDrill,Pad Free-17 (12.859mm,74.295mm)*%
%ADD47C,0.76200*%
%TA.AperFunction,OtherDrill,Pad Free-17 (20.479mm,74.295mm)*%
%ADD48C,0.76200*%
%TA.AperFunction,OtherDrill,Pad Free-17 (17.939mm,74.295mm)*%
%ADD49C,0.76200*%
%TA.AperFunction,OtherDrill,Pad Free-17 (15.399mm,74.295mm)*%
%ADD50C,0.76200*%
%TA.AperFunction,OtherDrill,Pad Free-17 (30.639mm,74.295mm)*%
%ADD51C,0.76200*%
%TA.AperFunction,OtherDrill,Pad Free-17 (28.099mm,74.295mm)*%
%ADD52C,0.76200*%
%TA.AperFunction,OtherDrill,Pad Free-17 (23.019mm,74.295mm)*%
%ADD53C,0.76200*%
%TA.AperFunction,OtherDrill,Pad Free-17 (25.559mm,74.295mm)*%
%ADD54C,0.76200*%
%TA.AperFunction,OtherDrill,Pad Free-17 (23.019mm,79.375mm)*%
%ADD55C,0.76200*%
%TA.AperFunction,OtherDrill,Pad Free-17 (23.019mm,76.835mm)*%
%ADD56C,0.76200*%
%TA.AperFunction,OtherDrill,Pad Free-17 (25.559mm,76.835mm)*%
%ADD57C,0.76200*%
%TA.AperFunction,OtherDrill,Pad Free-17 (25.559mm,79.375mm)*%
%ADD58C,0.76200*%
%TA.AperFunction,OtherDrill,Pad Free-17 (30.639mm,79.375mm)*%
%ADD59C,0.76200*%
%TA.AperFunction,OtherDrill,Pad Free-17 (30.639mm,76.835mm)*%
%ADD60C,0.76200*%
%TA.AperFunction,OtherDrill,Pad Free-17 (28.099mm,76.835mm)*%
%ADD61C,0.76200*%
%TA.AperFunction,OtherDrill,Pad Free-17 (28.099mm,79.375mm)*%
%ADD62C,0.76200*%
%TA.AperFunction,OtherDrill,Pad Free-17 (12.859mm,79.375mm)*%
%ADD63C,0.76200*%
%TA.AperFunction,OtherDrill,Pad Free-17 (12.859mm,76.835mm)*%
%ADD64C,0.76200*%
%TA.AperFunction,OtherDrill,Pad Free-17 (15.399mm,76.835mm)*%
%ADD65C,0.76200*%
%TA.AperFunction,OtherDrill,Pad Free-17 (15.399mm,79.375mm)*%
%ADD66C,0.76200*%
%TA.AperFunction,OtherDrill,Pad Free-17 (20.479mm,79.375mm)*%
%ADD67C,0.76200*%
%TA.AperFunction,OtherDrill,Pad Free-17 (20.479mm,76.835mm)*%
%ADD68C,0.76200*%
%TA.AperFunction,OtherDrill,Pad Free-17 (17.939mm,76.835mm)*%
%ADD69C,0.76200*%
%TA.AperFunction,OtherDrill,Pad Free-17 (17.939mm,79.375mm)*%
%ADD70C,0.76200*%
%TA.AperFunction,OtherDrill,Pad Free-17 (7.779mm,79.375mm)*%
%ADD71C,0.76200*%
%TA.AperFunction,OtherDrill,Pad Free-17 (7.779mm,76.835mm)*%
%ADD72C,0.76200*%
%TA.AperFunction,OtherDrill,Pad Free-17 (10.319mm,76.835mm)*%
%ADD73C,0.76200*%
%TA.AperFunction,OtherDrill,Pad Free-17 (10.319mm,79.375mm)*%
%ADD74C,0.76200*%
%TA.AperFunction,OtherDrill,Pad Free-17 (5.239mm,79.375mm)*%
%ADD75C,0.76200*%
%TA.AperFunction,OtherDrill,Pad Free-17 (5.239mm,76.835mm)*%
%ADD76C,0.76200*%
%TA.AperFunction,OtherDrill,Pad Free-17 (2.699mm,76.835mm)*%
%ADD77C,0.76200*%
%TA.AperFunction,OtherDrill,Pad Free-17 (2.699mm,79.375mm)*%
%ADD78C,0.76200*%
%TA.AperFunction,ComponentDrill*%
%ADD79C,1.04000*%
D41*
X381000Y2976000D02*
D03*
X127000D02*
D03*
X381000Y3230000D02*
D03*
X127000D02*
D03*
X381000Y3484000D02*
D03*
X127000D02*
D03*
X381000Y3738000D02*
D03*
X127000D02*
D03*
X381000Y3992000D02*
D03*
X127000D02*
D03*
X381000Y4246000D02*
D03*
X127000D02*
D03*
X381000Y4500000D02*
D03*
X127000D02*
D03*
X381000Y4754000D02*
D03*
X127000D02*
D03*
X381000Y5008000D02*
D03*
X127000D02*
D03*
X381000Y5262000D02*
D03*
X127000D02*
D03*
X381000Y5516000D02*
D03*
X127000D02*
D03*
X381000Y5770000D02*
D03*
X127000D02*
D03*
X381000Y6024000D02*
D03*
X127000D02*
D03*
X3173000Y2976000D02*
D03*
X2919000D02*
D03*
X3173000Y3230000D02*
D03*
X2919000D02*
D03*
X3173000Y3484000D02*
D03*
X2919000D02*
D03*
X3173000Y3738000D02*
D03*
X2919000D02*
D03*
X3173000Y3992000D02*
D03*
X2919000D02*
D03*
X3173000Y4246000D02*
D03*
X2919000D02*
D03*
X3173000Y4500000D02*
D03*
X2919000D02*
D03*
X3173000Y4754000D02*
D03*
X2919000D02*
D03*
X3173000Y5008000D02*
D03*
X2919000D02*
D03*
X3173000Y5262000D02*
D03*
X2919000D02*
D03*
X3173000Y5516000D02*
D03*
X2919000D02*
D03*
X3173000Y5770000D02*
D03*
X2919000D02*
D03*
X3173000Y6024000D02*
D03*
X2919000D02*
D03*
D42*
X126000Y1833000D02*
D03*
Y2087000D02*
D03*
X380000Y1833000D02*
D03*
Y2087000D02*
D03*
X634000Y1833000D02*
D03*
Y2087000D02*
D03*
X888000Y1833000D02*
D03*
Y2087000D02*
D03*
X1142000Y1833000D02*
D03*
Y2087000D02*
D03*
X1396000Y1833000D02*
D03*
Y2087000D02*
D03*
X1650000Y1833000D02*
D03*
Y2087000D02*
D03*
X1904000Y1833000D02*
D03*
Y2087000D02*
D03*
X2158000Y1833000D02*
D03*
Y2087000D02*
D03*
X2412000Y1833000D02*
D03*
Y2087000D02*
D03*
X2666000Y1833000D02*
D03*
Y2087000D02*
D03*
X2920000Y1833000D02*
D03*
Y2087000D02*
D03*
X3174000Y1833000D02*
D03*
Y2087000D02*
D03*
Y7167000D02*
D03*
Y6913000D02*
D03*
X2920000Y7167000D02*
D03*
Y6913000D02*
D03*
X2666000Y7167000D02*
D03*
Y6913000D02*
D03*
X2412000Y7167000D02*
D03*
Y6913000D02*
D03*
X2158000Y7167000D02*
D03*
Y6913000D02*
D03*
X1904000Y7167000D02*
D03*
Y6913000D02*
D03*
X1650000Y7167000D02*
D03*
Y6913000D02*
D03*
X1396000Y7167000D02*
D03*
Y6913000D02*
D03*
X1142000Y7167000D02*
D03*
Y6913000D02*
D03*
X888000Y7167000D02*
D03*
Y6913000D02*
D03*
X634000Y7167000D02*
D03*
Y6913000D02*
D03*
X380000Y7167000D02*
D03*
Y6913000D02*
D03*
X126000Y7167000D02*
D03*
Y6913000D02*
D03*
D43*
X269875Y7429500D02*
D03*
D44*
X1031875D02*
D03*
D45*
X523875D02*
D03*
D46*
X777875D02*
D03*
D47*
X1285875D02*
D03*
D48*
X2047875D02*
D03*
D49*
X1793875D02*
D03*
D50*
X1539875D02*
D03*
D51*
X3063875D02*
D03*
D52*
X2809875D02*
D03*
D53*
X2301875D02*
D03*
D54*
X2555875D02*
D03*
D55*
X2301875Y7937500D02*
D03*
D56*
Y7683500D02*
D03*
D57*
X2555875D02*
D03*
D58*
Y7937500D02*
D03*
D59*
X3063875D02*
D03*
D60*
Y7683500D02*
D03*
D61*
X2809875D02*
D03*
D62*
Y7937500D02*
D03*
D63*
X1285875D02*
D03*
D64*
Y7683500D02*
D03*
D65*
X1539875D02*
D03*
D66*
Y7937500D02*
D03*
D67*
X2047875D02*
D03*
D68*
Y7683500D02*
D03*
D69*
X1793875D02*
D03*
D70*
Y7937500D02*
D03*
D71*
X777875D02*
D03*
D72*
Y7683500D02*
D03*
D73*
X1031875D02*
D03*
D74*
Y7937500D02*
D03*
D75*
X523875D02*
D03*
D76*
Y7683500D02*
D03*
D77*
X269875D02*
D03*
D78*
Y7937500D02*
D03*
D79*
X508000Y8238000D02*
D03*
Y8492000D02*
D03*
X762000Y8238000D02*
D03*
Y8492000D02*
D03*
X1016000Y8238000D02*
D03*
Y8492000D02*
D03*
X1270000Y8238000D02*
D03*
Y8492000D02*
D03*
X1524000Y8238000D02*
D03*
Y8492000D02*
D03*
X1778000Y8238000D02*
D03*
Y8492000D02*
D03*
X2032000Y8238000D02*
D03*
Y8492000D02*
D03*
X2286000Y8238000D02*
D03*
Y8492000D02*
D03*
X2540000Y8238000D02*
D03*
Y8492000D02*
D03*
X2794000Y8238000D02*
D03*
Y8492000D02*
D03*
X508000Y508000D02*
D03*
Y762000D02*
D03*
X762000Y508000D02*
D03*
Y762000D02*
D03*
X1016000Y508000D02*
D03*
Y762000D02*
D03*
X1270000Y508000D02*
D03*
Y762000D02*
D03*
X1524000Y508000D02*
D03*
Y762000D02*
D03*
X1778000Y508000D02*
D03*
Y762000D02*
D03*
X2032000Y508000D02*
D03*
Y762000D02*
D03*
X2286000Y508000D02*
D03*
Y762000D02*
D03*
X2540000Y508000D02*
D03*
Y762000D02*
D03*
X2794000Y508000D02*
D03*
Y762000D02*
D03*
%TF.MD5,fb26ef7d9f5592a9376172f328d2ae34*%
M02*
