%TF.GenerationSoftware,Altium Limited,Altium Designer,23.4.1 (23)*%
G04 Layer_Physical_Order=1*
G04 Layer_Color=255*
%FSLAX45Y45*%
%MOMM*%
%TF.SameCoordinates,3C8645F9-427F-4EF9-BD5D-D69B0DC8593D*%
%TF.FilePolarity,Positive*%
%TF.FileFunction,Copper,L1,Top,Signal*%
%TF.Part,Single*%
G01*
G75*
%TA.AperFunction,Conductor*%
%ADD10C,0.20000*%
%TA.AperFunction,SMDPad,CuDef*%
%ADD11R,1.47500X0.30000*%
%ADD12R,0.30000X1.47500*%
%ADD13R,5.60000X2.10000*%
%ADD14R,1.00000X1.10000*%
%TA.AperFunction,Conductor*%
%ADD15C,0.25400*%
%TA.AperFunction,ComponentPad*%
%ADD16C,1.65000*%
%ADD17R,1.65000X1.65000*%
%ADD18R,1.65000X1.65000*%
%TA.AperFunction,ViaPad*%
%ADD19R,2.00000X2.00000*%
%TA.AperFunction,ComponentPad*%
%ADD20R,1.39000X1.39000*%
%ADD21C,1.39000*%
G36*
X30485Y6873436D02*
X43980Y6850064D01*
X63064Y6830979D01*
X86436Y6817485D01*
X112506Y6810500D01*
X139494D01*
X165564Y6817485D01*
X188936Y6830979D01*
X208020Y6850064D01*
X221515Y6873436D01*
X224212Y6883504D01*
X236912Y6881832D01*
Y6866402D01*
X236912Y6866401D01*
X239241Y6854696D01*
X245871Y6844772D01*
X311772Y6778871D01*
X321696Y6772241D01*
X333401Y6769912D01*
X333402Y6769912D01*
X423261D01*
X1019412Y6173762D01*
Y5367550D01*
X1015000D01*
Y5180050D01*
X1059600D01*
Y5174650D01*
X1087300D01*
Y5273800D01*
X1112700D01*
Y5174650D01*
X1140400D01*
Y5180050D01*
X2285000D01*
Y5367550D01*
X2280588D01*
Y5904455D01*
X3146045Y6769912D01*
X3220598D01*
X3220599Y6769912D01*
X3232304Y6772241D01*
X3242228Y6778871D01*
X3302000Y6838643D01*
X3314700Y6833383D01*
Y0D01*
X12700D01*
Y1725913D01*
X23500Y1730500D01*
Y1730500D01*
X228500D01*
Y1935500D01*
X151901D01*
X147629Y1941893D01*
X147628Y1941894D01*
X117722Y1971800D01*
X122983Y1984500D01*
X139494D01*
X165564Y1991485D01*
X188936Y2004979D01*
X208020Y2024064D01*
X218812Y2042756D01*
X231512Y2039353D01*
Y2038166D01*
X231512Y2038164D01*
X233841Y2026459D01*
X240471Y2016535D01*
X325488Y1931519D01*
X323830Y1918927D01*
X317064Y1915020D01*
X297980Y1895936D01*
X284485Y1872563D01*
X277500Y1846494D01*
Y1819506D01*
X284485Y1793436D01*
X297980Y1770064D01*
X317064Y1750979D01*
X340436Y1737485D01*
X366506Y1730500D01*
X393494D01*
X419564Y1737485D01*
X442936Y1750979D01*
X462020Y1770064D01*
X475515Y1793436D01*
X482500Y1819506D01*
Y1846494D01*
X475515Y1872563D01*
X462020Y1895936D01*
X442936Y1915020D01*
X419564Y1928515D01*
X408349Y1931520D01*
X408259Y1931970D01*
X401629Y1941893D01*
X401628Y1941894D01*
X371722Y1971800D01*
X376983Y1984500D01*
X393494D01*
X419564Y1991485D01*
X442936Y2004979D01*
X462020Y2024064D01*
X475515Y2047436D01*
X478212Y2057504D01*
X490912Y2055832D01*
Y2040402D01*
X490912Y2040401D01*
X493241Y2028696D01*
X499871Y2018772D01*
X584330Y1934314D01*
X582672Y1921722D01*
X571064Y1915020D01*
X551980Y1895936D01*
X538485Y1872563D01*
X531500Y1846494D01*
Y1819506D01*
X538485Y1793436D01*
X551980Y1770064D01*
X571064Y1750979D01*
X594436Y1737485D01*
X620506Y1730500D01*
X647494D01*
X673564Y1737485D01*
X696936Y1750979D01*
X716020Y1770064D01*
X729515Y1793436D01*
X736500Y1819506D01*
Y1846494D01*
X729515Y1872563D01*
X716020Y1895936D01*
X696936Y1915020D01*
X673564Y1928515D01*
X663954Y1931090D01*
X662259Y1939606D01*
X655629Y1949530D01*
X655628Y1949531D01*
X632392Y1972767D01*
X637252Y1984500D01*
X647494D01*
X673564Y1991485D01*
X696936Y2004979D01*
X716020Y2024064D01*
X729515Y2047436D01*
X732212Y2057504D01*
X744912Y2055832D01*
Y2040402D01*
X744912Y2040401D01*
X747241Y2028696D01*
X753871Y2018772D01*
X838330Y1934314D01*
X836672Y1921722D01*
X825064Y1915020D01*
X805980Y1895936D01*
X792485Y1872563D01*
X785500Y1846494D01*
Y1819506D01*
X792485Y1793436D01*
X805980Y1770064D01*
X825064Y1750979D01*
X848436Y1737485D01*
X874506Y1730500D01*
X901494D01*
X927564Y1737485D01*
X950936Y1750979D01*
X970020Y1770064D01*
X983515Y1793436D01*
X990500Y1819506D01*
Y1846494D01*
X983515Y1872563D01*
X970020Y1895936D01*
X950936Y1915020D01*
X927564Y1928515D01*
X917954Y1931090D01*
X916259Y1939606D01*
X909629Y1949530D01*
X909628Y1949531D01*
X886392Y1972767D01*
X891252Y1984500D01*
X901494D01*
X927564Y1991485D01*
X950936Y2004979D01*
X970020Y2024064D01*
X983515Y2047436D01*
X986212Y2057504D01*
X998912Y2055832D01*
Y2040402D01*
X998912Y2040401D01*
X1001241Y2028696D01*
X1007871Y2018772D01*
X1013258Y2013386D01*
X1013259Y2013384D01*
X1092330Y1934314D01*
X1090672Y1921722D01*
X1079064Y1915020D01*
X1059980Y1895936D01*
X1046485Y1872563D01*
X1039500Y1846494D01*
Y1819506D01*
X1046485Y1793436D01*
X1059980Y1770064D01*
X1079064Y1750979D01*
X1102436Y1737485D01*
X1128506Y1730500D01*
X1155494D01*
X1181564Y1737485D01*
X1204936Y1750979D01*
X1224020Y1770064D01*
X1237515Y1793436D01*
X1244500Y1819506D01*
Y1846494D01*
X1237515Y1872563D01*
X1224020Y1895936D01*
X1204936Y1915020D01*
X1181564Y1928515D01*
X1171953Y1931090D01*
X1170259Y1939606D01*
X1163629Y1949530D01*
X1163628Y1949530D01*
X1145792Y1967367D01*
X1150652Y1979100D01*
X1156205D01*
X1183648Y1986453D01*
X1208252Y2000658D01*
X1228341Y2020748D01*
X1240212Y2041308D01*
X1248374Y2040726D01*
X1253281Y2038545D01*
X1255241Y2028696D01*
X1261871Y2018772D01*
X1283134Y1997510D01*
X1283134Y1997509D01*
X1283135Y1997509D01*
X1291071Y1989572D01*
X1291072Y1989572D01*
X1346330Y1934314D01*
X1344672Y1921722D01*
X1333064Y1915020D01*
X1313980Y1895936D01*
X1300485Y1872563D01*
X1293500Y1846494D01*
Y1819506D01*
X1300485Y1793436D01*
X1313980Y1770064D01*
X1333064Y1750979D01*
X1356436Y1737485D01*
X1382506Y1730500D01*
X1409494D01*
X1433087Y1736822D01*
X1445787Y1730541D01*
Y1608445D01*
X1257742Y1420400D01*
X876000D01*
Y1274463D01*
X705000D01*
Y1318875D01*
X565000D01*
Y1168875D01*
X705000D01*
Y1213287D01*
X876000D01*
Y1170400D01*
X1476000D01*
Y1420400D01*
X1360851D01*
X1355991Y1432133D01*
X1498003Y1574146D01*
X1498004Y1574146D01*
X1504634Y1584070D01*
X1506963Y1595775D01*
Y1741606D01*
X1530129Y1764772D01*
X1536759Y1774696D01*
X1539088Y1786401D01*
Y1801832D01*
X1551788Y1803504D01*
X1554485Y1793436D01*
X1567980Y1770064D01*
X1587064Y1750979D01*
X1610436Y1737485D01*
X1636506Y1730500D01*
X1643750D01*
X1942116Y1432133D01*
X1937256Y1420400D01*
X1826000D01*
Y1170400D01*
X2426000D01*
Y1258160D01*
X2644625D01*
Y1216500D01*
X2764037D01*
Y1201900D01*
X2727325D01*
Y1121500D01*
X2714625D01*
Y1108800D01*
X2639225D01*
Y1087040D01*
X2626525Y1077619D01*
X2622909Y1078338D01*
X2622908Y1078338D01*
X1047750D01*
X1036045Y1076009D01*
X1026121Y1069379D01*
X1026121Y1069378D01*
X800094Y843352D01*
X796546Y845401D01*
X773783Y851500D01*
X750217D01*
X727454Y845401D01*
X707046Y833618D01*
X690382Y816954D01*
X678599Y796546D01*
X672500Y773783D01*
Y750217D01*
X678599Y727454D01*
X690382Y707046D01*
X707046Y690382D01*
X723146Y681087D01*
X733741Y674205D01*
X731412Y662500D01*
Y592461D01*
X727454Y591401D01*
X707046Y579618D01*
X690382Y562954D01*
X678599Y542546D01*
X672500Y519783D01*
Y496217D01*
X678599Y473454D01*
X690382Y453046D01*
X707046Y436382D01*
X727454Y424599D01*
X750217Y418500D01*
X773783D01*
X796546Y424599D01*
X816954Y436382D01*
X833618Y453046D01*
X845401Y473454D01*
X851500Y496217D01*
Y519783D01*
X845401Y542546D01*
X833618Y562954D01*
X816954Y579618D01*
X796546Y591401D01*
X792588Y592461D01*
Y625185D01*
X803214Y631912D01*
X814919Y634241D01*
X824843Y640871D01*
X883128Y699157D01*
X883129Y699157D01*
X889759Y709080D01*
X892088Y720786D01*
Y792262D01*
X1076988Y977162D01*
X2593671D01*
X2595962Y974872D01*
X2595962Y974871D01*
X2605885Y968241D01*
X2617591Y965912D01*
X2759751D01*
X2766539Y953212D01*
X2765741Y952017D01*
X2763412Y940312D01*
X2763412Y940311D01*
Y846461D01*
X2759454Y845401D01*
X2739046Y833618D01*
X2722382Y816954D01*
X2710599Y796546D01*
X2704500Y773783D01*
Y750217D01*
X2710599Y727454D01*
X2722382Y707046D01*
X2739046Y690382D01*
X2759454Y678599D01*
X2782217Y672500D01*
X2805783D01*
X2828546Y678599D01*
X2848954Y690382D01*
X2865618Y707046D01*
X2877401Y727454D01*
X2883500Y750217D01*
Y773783D01*
X2877401Y796546D01*
X2865618Y816954D01*
X2848954Y833618D01*
X2828546Y845401D01*
X2824588Y846461D01*
Y927642D01*
X2896254Y999308D01*
X2902884Y1009231D01*
X2905213Y1020937D01*
Y1392062D01*
X2905213Y1392063D01*
X2902884Y1403769D01*
X2896254Y1413692D01*
X2831817Y1478129D01*
X2824588Y1482959D01*
Y1587500D01*
X2822259Y1599206D01*
X2815629Y1609129D01*
X2815628Y1609129D01*
X2700118Y1724639D01*
X2703405Y1736907D01*
X2705564Y1737485D01*
X2728936Y1750979D01*
X2748020Y1770064D01*
X2761515Y1793436D01*
X2768500Y1819506D01*
Y1846494D01*
X2761515Y1872563D01*
X2748020Y1895936D01*
X2728936Y1915020D01*
X2705564Y1928515D01*
X2696588Y1930920D01*
Y1974500D01*
X2694259Y1986205D01*
X2695202Y1988709D01*
X2705564Y1991485D01*
X2714854Y1996849D01*
X2717290Y1995745D01*
X2723920Y1985822D01*
X2723922Y1985821D01*
X2829132Y1880611D01*
X2824485Y1872563D01*
X2817500Y1846494D01*
Y1819506D01*
X2824485Y1793436D01*
X2837980Y1770064D01*
X2857064Y1750979D01*
X2880436Y1737485D01*
X2906506Y1730500D01*
X2933494D01*
X2959564Y1737485D01*
X2982936Y1750979D01*
X3002020Y1770064D01*
X3015515Y1793436D01*
X3022500Y1819506D01*
Y1846494D01*
X3015515Y1872563D01*
X3002020Y1895936D01*
X2982936Y1915020D01*
X2959564Y1928515D01*
X2933494Y1935500D01*
X2906506D01*
X2880436Y1928515D01*
X2872389Y1923868D01*
X2788807Y2007451D01*
X2800128Y2018772D01*
X2800129Y2018772D01*
X2806759Y2028696D01*
X2809088Y2040401D01*
X2809088Y2040402D01*
Y2055832D01*
X2821788Y2057504D01*
X2824485Y2047436D01*
X2837980Y2024064D01*
X2857064Y2004979D01*
X2880436Y1991485D01*
X2906506Y1984500D01*
X2933494D01*
X2959564Y1991485D01*
X2972962Y1999221D01*
X2985662Y1991889D01*
Y1990751D01*
X2985662Y1990750D01*
X2987991Y1979045D01*
X2994621Y1969121D01*
X3083132Y1880611D01*
X3078485Y1872563D01*
X3071500Y1846494D01*
Y1819506D01*
X3078485Y1793436D01*
X3091980Y1770064D01*
X3111064Y1750979D01*
X3134436Y1737485D01*
X3160506Y1730500D01*
X3187494D01*
X3213564Y1737485D01*
X3236936Y1750979D01*
X3256020Y1770064D01*
X3269515Y1793436D01*
X3276500Y1819506D01*
Y1846494D01*
X3269515Y1872563D01*
X3256020Y1895936D01*
X3236936Y1915020D01*
X3213564Y1928515D01*
X3187494Y1935500D01*
X3160506D01*
X3134436Y1928515D01*
X3126389Y1923868D01*
X3046838Y2003420D01*
Y2011481D01*
X3054128Y2018772D01*
X3054129Y2018772D01*
X3060759Y2028696D01*
X3063088Y2040401D01*
X3063088Y2040402D01*
Y2055832D01*
X3075788Y2057504D01*
X3078485Y2047436D01*
X3091980Y2024064D01*
X3111064Y2004979D01*
X3134436Y1991485D01*
X3160506Y1984500D01*
X3187494D01*
X3213564Y1991485D01*
X3236936Y2004979D01*
X3256020Y2024064D01*
X3269515Y2047436D01*
X3276500Y2073506D01*
Y2100494D01*
X3269515Y2126563D01*
X3256020Y2149936D01*
X3236936Y2169020D01*
X3213564Y2182515D01*
X3187494Y2189500D01*
X3160506D01*
X3134436Y2182515D01*
X3111064Y2169020D01*
X3091980Y2149936D01*
X3078485Y2126563D01*
X3075788Y2116496D01*
X3063088Y2118167D01*
Y2133597D01*
X3063088Y2133599D01*
X3060759Y2145304D01*
X3054129Y2155228D01*
X2988228Y2221129D01*
X2978304Y2227759D01*
X2966599Y2230088D01*
X2966598Y2230087D01*
X2876738D01*
X2601038Y2505788D01*
X2280588Y2826238D01*
Y3632450D01*
X2285000D01*
Y3819950D01*
X1540400D01*
Y3825350D01*
X1512700D01*
Y3726200D01*
X1487300D01*
Y3825350D01*
X1459600D01*
Y3819950D01*
X1015000D01*
Y3632450D01*
X1019412D01*
Y3094670D01*
X160230Y2235488D01*
X77166D01*
X77164Y2235488D01*
X65459Y2233159D01*
X55536Y2226529D01*
X55535Y2226528D01*
X24433Y2195426D01*
X12700Y2200286D01*
Y2957475D01*
X25400Y2959147D01*
X31485Y2936436D01*
X44980Y2913064D01*
X64064Y2893979D01*
X87436Y2880485D01*
X113506Y2873500D01*
X140494D01*
X166564Y2880485D01*
X189936Y2893979D01*
X209020Y2913064D01*
X222515Y2936436D01*
X229500Y2962506D01*
Y2989494D01*
X222515Y3015563D01*
X209020Y3038936D01*
X189936Y3058020D01*
X166564Y3071515D01*
X140494Y3078500D01*
X113506D01*
X87436Y3071515D01*
X64064Y3058020D01*
X44980Y3038936D01*
X31485Y3015563D01*
X25400Y2992853D01*
X12700Y2994525D01*
Y3190610D01*
X25400Y3192282D01*
X26453Y3188352D01*
X40659Y3163748D01*
X60748Y3143658D01*
X85352Y3129453D01*
X112795Y3122100D01*
X114300D01*
Y3230000D01*
Y3337900D01*
X112795D01*
X85352Y3330547D01*
X60748Y3316341D01*
X40659Y3296252D01*
X26453Y3271648D01*
X25400Y3267718D01*
X12700Y3269390D01*
Y3465475D01*
X25400Y3467147D01*
X31485Y3444436D01*
X44980Y3421064D01*
X64064Y3401979D01*
X87436Y3388485D01*
X113506Y3381500D01*
X140494D01*
X166564Y3388485D01*
X174611Y3393131D01*
X223271Y3344472D01*
X223271Y3344471D01*
X233195Y3337841D01*
X244900Y3335512D01*
X244901Y3335512D01*
X333353D01*
X336756Y3322812D01*
X318064Y3312020D01*
X298980Y3292936D01*
X285485Y3269563D01*
X278500Y3243494D01*
Y3216506D01*
X284485Y3194170D01*
X277576Y3181470D01*
X237056D01*
X229106Y3194170D01*
X234900Y3215795D01*
Y3217300D01*
X139700D01*
Y3122100D01*
X141205D01*
X168648Y3129453D01*
X178564Y3135178D01*
X184489Y3129253D01*
X194412Y3122623D01*
X206118Y3120294D01*
X280712D01*
X310535Y3090472D01*
X310536Y3090471D01*
X320459Y3083841D01*
X332164Y3081512D01*
X332166Y3081512D01*
X333353D01*
X336756Y3068812D01*
X318064Y3058020D01*
X298980Y3038936D01*
X285485Y3015563D01*
X278500Y2989494D01*
Y2962506D01*
X285485Y2936436D01*
X298980Y2913064D01*
X318064Y2893979D01*
X341436Y2880485D01*
X367506Y2873500D01*
X394494D01*
X420564Y2880485D01*
X443936Y2893979D01*
X463020Y2913064D01*
X476515Y2936436D01*
X483500Y2962506D01*
Y2969992D01*
X801867Y3288359D01*
X813600Y3283499D01*
Y3261450D01*
X876300D01*
Y3329150D01*
X872468D01*
X865680Y3341850D01*
X866949Y3343750D01*
X959000D01*
Y3493750D01*
X906788D01*
Y3865000D01*
X969950D01*
Y3909600D01*
X975350D01*
Y3937299D01*
X876200D01*
Y3962699D01*
X975350D01*
Y3990400D01*
X969950D01*
Y4115000D01*
Y4215000D01*
Y4315000D01*
Y4415000D01*
Y4515000D01*
Y4615000D01*
Y4715000D01*
Y4815000D01*
Y4915000D01*
Y5015000D01*
Y5135000D01*
X906788D01*
Y5528800D01*
X904459Y5540505D01*
X897829Y5550429D01*
X897828Y5550429D01*
X471868Y5976389D01*
X476515Y5984436D01*
X483500Y6010506D01*
Y6037494D01*
X476515Y6063563D01*
X463020Y6086936D01*
X443936Y6106020D01*
X420564Y6119515D01*
X394494Y6126500D01*
X367506D01*
X341436Y6119515D01*
X318064Y6106020D01*
X298980Y6086936D01*
X285485Y6063563D01*
X278500Y6037494D01*
Y6010506D01*
X285485Y5984436D01*
X286690Y5982349D01*
X280340Y5971351D01*
X229500D01*
Y6126500D01*
X25400D01*
X24500Y6126500D01*
X12700Y6128673D01*
Y6890743D01*
X25400Y6892415D01*
X30485Y6873436D01*
D02*
G37*
%LPC*%
G36*
X3186494Y6126500D02*
X3159506D01*
X3133436Y6119515D01*
X3110064Y6106020D01*
X3090980Y6086936D01*
X3077485Y6063563D01*
X3070500Y6037494D01*
Y6010506D01*
X3077485Y5984436D01*
X3090980Y5961064D01*
X3110064Y5941979D01*
X3133436Y5928485D01*
X3159506Y5921500D01*
X3186494D01*
X3212564Y5928485D01*
X3235936Y5941979D01*
X3255020Y5961064D01*
X3268515Y5984436D01*
X3275500Y6010506D01*
Y6037494D01*
X3268515Y6063563D01*
X3255020Y6086936D01*
X3235936Y6106020D01*
X3212564Y6119515D01*
X3186494Y6126500D01*
D02*
G37*
G36*
X3187205Y5877900D02*
X3185700D01*
Y5782700D01*
X3280900D01*
Y5784205D01*
X3273547Y5811648D01*
X3259341Y5836252D01*
X3239252Y5856341D01*
X3214648Y5870547D01*
X3187205Y5877900D01*
D02*
G37*
G36*
X2932494Y6126500D02*
X2905506D01*
X2879436Y6119515D01*
X2856064Y6106020D01*
X2836980Y6086936D01*
X2823485Y6063563D01*
X2816500Y6037494D01*
Y6010506D01*
X2823485Y5984436D01*
X2828132Y5976389D01*
X2402171Y5550429D01*
X2395541Y5540505D01*
X2393212Y5528800D01*
X2393212Y5528799D01*
Y5135000D01*
X2330050D01*
Y5090400D01*
X2324650D01*
Y5062699D01*
X2423800D01*
Y5037299D01*
X2324650D01*
Y5009600D01*
X2330050D01*
Y4965000D01*
Y4865000D01*
Y4765000D01*
Y4665000D01*
Y4565000D01*
Y4465000D01*
Y4365000D01*
Y4265000D01*
Y4165000D01*
Y4065000D01*
Y3978085D01*
X2327871Y3976629D01*
X2321241Y3966705D01*
X2318912Y3955000D01*
X2321241Y3943295D01*
X2324650Y3938192D01*
Y3912700D01*
X2423800D01*
Y3887300D01*
X2324650D01*
Y3859600D01*
X2393212D01*
Y3471201D01*
X2393212Y3471200D01*
X2395541Y3459494D01*
X2402171Y3449571D01*
X2824178Y3027564D01*
X2818453Y3017648D01*
X2811100Y2990205D01*
Y2988700D01*
X2919000D01*
Y2976000D01*
X2931700D01*
Y2868100D01*
X2933205D01*
X2960648Y2875453D01*
X2985252Y2889658D01*
X3005341Y2909748D01*
X3019547Y2934352D01*
X3022965Y2947110D01*
X3031500Y2945412D01*
X3070500D01*
Y2873500D01*
X3275500D01*
Y3078500D01*
X3070500D01*
Y3040449D01*
X3057800Y3037236D01*
X3053129Y3044228D01*
X2987228Y3110129D01*
X2977304Y3116759D01*
X2965599Y3119088D01*
X2965598Y3119087D01*
X2950168D01*
X2948496Y3131787D01*
X2958564Y3134485D01*
X2981936Y3147979D01*
X3001020Y3167064D01*
X3014515Y3190436D01*
X3021500Y3216506D01*
Y3243494D01*
X3014515Y3269563D01*
X3002449Y3290462D01*
X3006968Y3303162D01*
X3056580D01*
X3082132Y3277611D01*
X3077485Y3269563D01*
X3070500Y3243494D01*
Y3216506D01*
X3077485Y3190436D01*
X3090980Y3167064D01*
X3110064Y3147979D01*
X3133436Y3134485D01*
X3159506Y3127500D01*
X3186494D01*
X3212564Y3134485D01*
X3235936Y3147979D01*
X3255020Y3167064D01*
X3268515Y3190436D01*
X3275500Y3216506D01*
Y3243494D01*
X3268515Y3269563D01*
X3255020Y3292936D01*
X3235936Y3312020D01*
X3212564Y3325515D01*
X3186494Y3332500D01*
X3159506D01*
X3133436Y3325515D01*
X3125389Y3320868D01*
X3090879Y3355379D01*
X3080955Y3362009D01*
X3069250Y3364338D01*
X3069249Y3364338D01*
X2986915D01*
X2977304Y3370759D01*
X2970315Y3372149D01*
X2964723Y3379346D01*
X2966986Y3393348D01*
X2981936Y3401979D01*
X3001020Y3421064D01*
X3014515Y3444436D01*
X3021500Y3470505D01*
X3031206Y3478471D01*
X3031500Y3478412D01*
X3070500D01*
Y3470506D01*
X3077485Y3444436D01*
X3090980Y3421064D01*
X3110064Y3401979D01*
X3133436Y3388485D01*
X3159506Y3381500D01*
X3186494D01*
X3212564Y3388485D01*
X3235936Y3401979D01*
X3255020Y3421064D01*
X3268515Y3444436D01*
X3275500Y3470506D01*
Y3497494D01*
X3268515Y3523563D01*
X3255020Y3546936D01*
X3235936Y3566020D01*
X3212564Y3579515D01*
X3186494Y3586500D01*
X3159506D01*
X3133436Y3579515D01*
X3110064Y3566020D01*
X3090980Y3546936D01*
X3086737Y3539588D01*
X3060299D01*
X3059759Y3542304D01*
X3053129Y3552228D01*
X2987228Y3618129D01*
X2977304Y3624759D01*
X2971150Y3625984D01*
X2965333Y3633799D01*
X2968010Y3647939D01*
X2981936Y3655979D01*
X3001020Y3675064D01*
X3014515Y3698436D01*
X3021500Y3724506D01*
Y3751494D01*
X3014515Y3777563D01*
X3001020Y3800936D01*
X2981936Y3820020D01*
X2958564Y3833515D01*
X2948496Y3836212D01*
X2950168Y3848912D01*
X3018830D01*
X3082132Y3785611D01*
X3077485Y3777563D01*
X3070500Y3751494D01*
Y3724506D01*
X3077485Y3698436D01*
X3090980Y3675064D01*
X3110064Y3655979D01*
X3133436Y3642485D01*
X3159506Y3635500D01*
X3186494D01*
X3212564Y3642485D01*
X3235936Y3655979D01*
X3255020Y3675064D01*
X3268515Y3698436D01*
X3275500Y3724506D01*
Y3751494D01*
X3268515Y3777563D01*
X3255020Y3800936D01*
X3235936Y3820020D01*
X3212564Y3833515D01*
X3186494Y3840500D01*
X3159506D01*
X3133436Y3833515D01*
X3125389Y3828868D01*
X3053129Y3901129D01*
X3043205Y3907759D01*
X3031500Y3910088D01*
X3031499Y3910088D01*
X2998638D01*
X2993778Y3921821D01*
X3001020Y3929064D01*
X3014515Y3952436D01*
X3021500Y3978506D01*
Y4005494D01*
X3014515Y4031563D01*
X3005379Y4047386D01*
X3012712Y4060087D01*
X3061656D01*
X3082132Y4039611D01*
X3077485Y4031563D01*
X3070500Y4005494D01*
Y3978506D01*
X3077485Y3952436D01*
X3090980Y3929064D01*
X3110064Y3909979D01*
X3133436Y3896485D01*
X3159506Y3889500D01*
X3186494D01*
X3212564Y3896485D01*
X3235936Y3909979D01*
X3255020Y3929064D01*
X3268515Y3952436D01*
X3275500Y3978506D01*
Y4005494D01*
X3268515Y4031563D01*
X3255020Y4054936D01*
X3235936Y4074020D01*
X3212564Y4087515D01*
X3186494Y4094500D01*
X3159506D01*
X3133436Y4087515D01*
X3125389Y4082868D01*
X3095954Y4112303D01*
X3086031Y4118934D01*
X3074326Y4121262D01*
X3074324Y4121262D01*
X2992094D01*
X2987228Y4126129D01*
X2977304Y4132759D01*
X2965599Y4135088D01*
X2965598Y4135087D01*
X2950168D01*
X2948496Y4147787D01*
X2958564Y4150485D01*
X2981936Y4163979D01*
X3001020Y4183064D01*
X3014515Y4206436D01*
X3021500Y4232506D01*
Y4259494D01*
X3014515Y4285563D01*
X3008980Y4295150D01*
X3015330Y4306149D01*
X3069593D01*
X3082132Y4293611D01*
X3077485Y4285563D01*
X3070500Y4259494D01*
Y4232506D01*
X3077485Y4206436D01*
X3090980Y4183064D01*
X3110064Y4163979D01*
X3133436Y4150485D01*
X3159506Y4143500D01*
X3186494D01*
X3212564Y4150485D01*
X3235936Y4163979D01*
X3255020Y4183064D01*
X3268515Y4206436D01*
X3275500Y4232506D01*
Y4259494D01*
X3268515Y4285563D01*
X3255020Y4308936D01*
X3235936Y4328020D01*
X3212564Y4341515D01*
X3186494Y4348500D01*
X3159506D01*
X3133436Y4341515D01*
X3125389Y4336868D01*
X3103892Y4358366D01*
X3093968Y4364996D01*
X3082263Y4367325D01*
X3082262Y4367325D01*
X3000032D01*
X2987228Y4380129D01*
X2977304Y4386759D01*
X2965599Y4389088D01*
X2965598Y4389087D01*
X2950168D01*
X2948496Y4401787D01*
X2958564Y4404485D01*
X2981936Y4417979D01*
X3001020Y4437064D01*
X3014515Y4460436D01*
X3021500Y4486505D01*
X3030593Y4493968D01*
X3031500Y4493787D01*
X3070500D01*
Y4486506D01*
X3077485Y4460436D01*
X3090980Y4437064D01*
X3110064Y4417979D01*
X3133436Y4404485D01*
X3159506Y4397500D01*
X3186494D01*
X3212564Y4404485D01*
X3235936Y4417979D01*
X3255020Y4437064D01*
X3268515Y4460436D01*
X3275500Y4486506D01*
Y4513494D01*
X3268515Y4539563D01*
X3255020Y4562936D01*
X3235936Y4582020D01*
X3212564Y4595515D01*
X3186494Y4602500D01*
X3159506D01*
X3133436Y4595515D01*
X3110064Y4582020D01*
X3090980Y4562936D01*
X3086376Y4554963D01*
X3060424D01*
X3059759Y4558304D01*
X3053129Y4568228D01*
X2987228Y4634129D01*
X2977304Y4640759D01*
X2965599Y4643088D01*
X2965598Y4643087D01*
X2950168D01*
X2948496Y4655787D01*
X2958564Y4658485D01*
X2981936Y4671979D01*
X3001020Y4691064D01*
X3014515Y4714436D01*
X3021500Y4740506D01*
Y4767494D01*
X3014515Y4793563D01*
X3002449Y4814462D01*
X3006968Y4827162D01*
X3056580D01*
X3082132Y4801611D01*
X3077485Y4793563D01*
X3070500Y4767494D01*
Y4740506D01*
X3077485Y4714436D01*
X3090980Y4691064D01*
X3110064Y4671979D01*
X3133436Y4658485D01*
X3159506Y4651500D01*
X3186494D01*
X3212564Y4658485D01*
X3235936Y4671979D01*
X3255020Y4691064D01*
X3268515Y4714436D01*
X3275500Y4740506D01*
Y4767494D01*
X3268515Y4793563D01*
X3255020Y4816936D01*
X3235936Y4836020D01*
X3212564Y4849515D01*
X3186494Y4856500D01*
X3159506D01*
X3133436Y4849515D01*
X3125389Y4844868D01*
X3090879Y4879379D01*
X3080955Y4886009D01*
X3069250Y4888338D01*
X3069249Y4888338D01*
X2986915D01*
X2977304Y4894759D01*
X2965599Y4897088D01*
X2965598Y4897087D01*
X2950168D01*
X2948496Y4909787D01*
X2958564Y4912485D01*
X2981936Y4925979D01*
X3001020Y4945064D01*
X3014515Y4968436D01*
X3021500Y4994506D01*
Y5021494D01*
X3014515Y5047563D01*
X3002449Y5068462D01*
X3006968Y5081162D01*
X3056580D01*
X3082132Y5055611D01*
X3077485Y5047563D01*
X3070500Y5021494D01*
Y4994506D01*
X3077485Y4968436D01*
X3090980Y4945064D01*
X3110064Y4925979D01*
X3133436Y4912485D01*
X3159506Y4905500D01*
X3186494D01*
X3212564Y4912485D01*
X3235936Y4925979D01*
X3255020Y4945064D01*
X3268515Y4968436D01*
X3275500Y4994506D01*
Y5021494D01*
X3268515Y5047563D01*
X3255020Y5070936D01*
X3235936Y5090020D01*
X3212564Y5103515D01*
X3186494Y5110500D01*
X3159506D01*
X3133436Y5103515D01*
X3125389Y5098868D01*
X3090879Y5133379D01*
X3080955Y5140009D01*
X3069250Y5142338D01*
X3069249Y5142338D01*
X2986915D01*
X2977304Y5148759D01*
X2965599Y5151088D01*
X2965597Y5151087D01*
X2950168D01*
X2948496Y5163787D01*
X2958564Y5166485D01*
X2981936Y5179979D01*
X3001020Y5199064D01*
X3014515Y5222436D01*
X3021500Y5248506D01*
Y5275494D01*
X3014515Y5301563D01*
X3001020Y5324936D01*
X2993778Y5332179D01*
X2998638Y5343912D01*
X3047830D01*
X3082132Y5309611D01*
X3077485Y5301563D01*
X3070500Y5275494D01*
Y5248506D01*
X3077485Y5222436D01*
X3090980Y5199064D01*
X3110064Y5179979D01*
X3133436Y5166485D01*
X3159506Y5159500D01*
X3186494D01*
X3212564Y5166485D01*
X3235936Y5179979D01*
X3255020Y5199064D01*
X3268515Y5222436D01*
X3275500Y5248506D01*
Y5275494D01*
X3268515Y5301563D01*
X3255020Y5324936D01*
X3235936Y5344020D01*
X3212564Y5357515D01*
X3186494Y5364500D01*
X3159506D01*
X3133436Y5357515D01*
X3125389Y5352868D01*
X3082129Y5396129D01*
X3072205Y5402759D01*
X3060500Y5405088D01*
X3060499Y5405087D01*
X2950168D01*
X2948496Y5417787D01*
X2958564Y5420485D01*
X2981936Y5433979D01*
X3001020Y5453064D01*
X3014515Y5476436D01*
X3021500Y5502506D01*
Y5529494D01*
X3014515Y5555563D01*
X3013562Y5557213D01*
X3019912Y5568212D01*
X3070123D01*
X3077485Y5555563D01*
X3070500Y5529494D01*
Y5502506D01*
X3077485Y5476436D01*
X3090980Y5453064D01*
X3110064Y5433979D01*
X3133436Y5420485D01*
X3159506Y5413500D01*
X3186494D01*
X3212564Y5420485D01*
X3235936Y5433979D01*
X3255020Y5453064D01*
X3268515Y5476436D01*
X3275500Y5502506D01*
Y5529494D01*
X3268515Y5555563D01*
X3255020Y5578936D01*
X3235936Y5598020D01*
X3212564Y5611515D01*
X3186494Y5618500D01*
X3159506D01*
X3133436Y5611515D01*
X3125389Y5606868D01*
X3111829Y5620428D01*
X3101906Y5627059D01*
X3090201Y5629387D01*
X3090199Y5629387D01*
X3007969D01*
X2987228Y5650129D01*
X2977304Y5656759D01*
X2965599Y5659088D01*
X2965598Y5659087D01*
X2950168D01*
X2948496Y5671787D01*
X2958564Y5674485D01*
X2981936Y5687979D01*
X3001020Y5707064D01*
X3014515Y5730436D01*
X3021500Y5756506D01*
Y5783494D01*
X3014515Y5809563D01*
X3001020Y5832936D01*
X2993778Y5840179D01*
X2998638Y5851912D01*
X3047830D01*
X3078178Y5821564D01*
X3072453Y5811648D01*
X3065100Y5784205D01*
Y5782700D01*
X3160300D01*
Y5877900D01*
X3158795D01*
X3131352Y5870547D01*
X3121436Y5864822D01*
X3082129Y5904129D01*
X3072205Y5910759D01*
X3060500Y5913088D01*
X3060499Y5913087D01*
X2950168D01*
X2948496Y5925787D01*
X2958564Y5928485D01*
X2981936Y5941979D01*
X3001020Y5961064D01*
X3014515Y5984436D01*
X3021500Y6010506D01*
Y6037494D01*
X3014515Y6063563D01*
X3001020Y6086936D01*
X2981936Y6106020D01*
X2958564Y6119515D01*
X2932494Y6126500D01*
D02*
G37*
G36*
X3280900Y5757300D02*
X3185700D01*
Y5662100D01*
X3187205D01*
X3214648Y5669453D01*
X3239252Y5683658D01*
X3259341Y5703748D01*
X3273547Y5728352D01*
X3280900Y5755795D01*
Y5757300D01*
D02*
G37*
G36*
X3160300D02*
X3065100D01*
Y5755795D01*
X3072453Y5728352D01*
X3086659Y5703748D01*
X3106748Y5683658D01*
X3131352Y5669453D01*
X3158795Y5662100D01*
X3160300D01*
Y5757300D01*
D02*
G37*
G36*
X964400Y3329150D02*
X901700D01*
Y3261450D01*
X964400D01*
Y3329150D01*
D02*
G37*
G36*
X141205Y3337900D02*
X139700D01*
Y3242700D01*
X234900D01*
Y3244205D01*
X227547Y3271648D01*
X213341Y3296252D01*
X193252Y3316341D01*
X168648Y3330547D01*
X141205Y3337900D01*
D02*
G37*
G36*
X964400Y3236050D02*
X901700D01*
Y3168350D01*
X964400D01*
Y3236050D01*
D02*
G37*
G36*
X876300D02*
X813600D01*
Y3168350D01*
X876300D01*
Y3236050D01*
D02*
G37*
G36*
X2906300Y2963300D02*
X2811100D01*
Y2961795D01*
X2818453Y2934352D01*
X2832659Y2909748D01*
X2852748Y2889658D01*
X2877352Y2875453D01*
X2904795Y2868100D01*
X2906300D01*
Y2963300D01*
D02*
G37*
G36*
X2701925Y1201900D02*
X2639225D01*
Y1134200D01*
X2701925D01*
Y1201900D01*
D02*
G37*
G36*
X710400Y1154275D02*
X647700D01*
Y1086575D01*
X710400D01*
Y1154275D01*
D02*
G37*
G36*
X622300D02*
X559600D01*
Y1086575D01*
X622300D01*
Y1154275D01*
D02*
G37*
G36*
X710400Y1061175D02*
X647700D01*
Y993475D01*
X710400D01*
Y1061175D01*
D02*
G37*
G36*
X622300D02*
X559600D01*
Y993475D01*
X622300D01*
Y1061175D01*
D02*
G37*
G36*
X2551783Y851500D02*
X2528217D01*
X2505454Y845401D01*
X2485046Y833618D01*
X2468382Y816954D01*
X2456599Y796546D01*
X2450500Y773783D01*
Y750217D01*
X2456599Y727454D01*
X2468382Y707046D01*
X2485046Y690382D01*
X2505454Y678599D01*
X2528217Y672500D01*
X2551783D01*
X2574546Y678599D01*
X2594954Y690382D01*
X2611618Y707046D01*
X2623401Y727454D01*
X2629500Y750217D01*
Y773783D01*
X2623401Y796546D01*
X2611618Y816954D01*
X2594954Y833618D01*
X2574546Y845401D01*
X2551783Y851500D01*
D02*
G37*
G36*
X2297783D02*
X2274217D01*
X2251454Y845401D01*
X2231046Y833618D01*
X2214382Y816954D01*
X2202599Y796546D01*
X2196500Y773783D01*
Y750217D01*
X2202599Y727454D01*
X2214382Y707046D01*
X2231046Y690382D01*
X2251454Y678599D01*
X2274217Y672500D01*
X2297783D01*
X2320546Y678599D01*
X2340954Y690382D01*
X2357618Y707046D01*
X2369401Y727454D01*
X2375500Y750217D01*
Y773783D01*
X2369401Y796546D01*
X2357618Y816954D01*
X2340954Y833618D01*
X2320546Y845401D01*
X2297783Y851500D01*
D02*
G37*
G36*
X2043783D02*
X2020217D01*
X1997454Y845401D01*
X1977046Y833618D01*
X1960382Y816954D01*
X1948599Y796546D01*
X1942500Y773783D01*
Y750217D01*
X1948599Y727454D01*
X1960382Y707046D01*
X1977046Y690382D01*
X1997454Y678599D01*
X2020217Y672500D01*
X2043783D01*
X2066546Y678599D01*
X2086954Y690382D01*
X2103618Y707046D01*
X2115401Y727454D01*
X2121500Y750217D01*
Y773783D01*
X2115401Y796546D01*
X2103618Y816954D01*
X2086954Y833618D01*
X2066546Y845401D01*
X2043783Y851500D01*
D02*
G37*
G36*
X1789783D02*
X1766217D01*
X1743454Y845401D01*
X1723046Y833618D01*
X1706382Y816954D01*
X1694599Y796546D01*
X1688500Y773783D01*
Y750217D01*
X1694599Y727454D01*
X1706382Y707046D01*
X1723046Y690382D01*
X1743454Y678599D01*
X1766217Y672500D01*
X1789783D01*
X1812546Y678599D01*
X1832954Y690382D01*
X1849618Y707046D01*
X1861401Y727454D01*
X1867500Y750217D01*
Y773783D01*
X1861401Y796546D01*
X1849618Y816954D01*
X1832954Y833618D01*
X1812546Y845401D01*
X1789783Y851500D01*
D02*
G37*
G36*
X1535783D02*
X1512217D01*
X1489454Y845401D01*
X1469046Y833618D01*
X1452382Y816954D01*
X1440599Y796546D01*
X1434500Y773783D01*
Y750217D01*
X1440599Y727454D01*
X1452382Y707046D01*
X1469046Y690382D01*
X1489454Y678599D01*
X1512217Y672500D01*
X1535783D01*
X1558546Y678599D01*
X1578954Y690382D01*
X1595618Y707046D01*
X1607401Y727454D01*
X1613500Y750217D01*
Y773783D01*
X1607401Y796546D01*
X1595618Y816954D01*
X1578954Y833618D01*
X1558546Y845401D01*
X1535783Y851500D01*
D02*
G37*
G36*
X1281783D02*
X1258217D01*
X1235454Y845401D01*
X1215046Y833618D01*
X1198382Y816954D01*
X1186599Y796546D01*
X1180500Y773783D01*
Y750217D01*
X1186599Y727454D01*
X1198382Y707046D01*
X1215046Y690382D01*
X1235454Y678599D01*
X1258217Y672500D01*
X1281783D01*
X1304546Y678599D01*
X1324954Y690382D01*
X1341618Y707046D01*
X1353401Y727454D01*
X1359500Y750217D01*
Y773783D01*
X1353401Y796546D01*
X1341618Y816954D01*
X1324954Y833618D01*
X1304546Y845401D01*
X1281783Y851500D01*
D02*
G37*
G36*
X1027783D02*
X1004217D01*
X981454Y845401D01*
X961046Y833618D01*
X944382Y816954D01*
X932599Y796546D01*
X926500Y773783D01*
Y750217D01*
X932599Y727454D01*
X944382Y707046D01*
X961046Y690382D01*
X981454Y678599D01*
X1004217Y672500D01*
X1027783D01*
X1050546Y678599D01*
X1070954Y690382D01*
X1087618Y707046D01*
X1099401Y727454D01*
X1105500Y750217D01*
Y773783D01*
X1099401Y796546D01*
X1087618Y816954D01*
X1070954Y833618D01*
X1050546Y845401D01*
X1027783Y851500D01*
D02*
G37*
G36*
X519783D02*
X496217D01*
X473454Y845401D01*
X453046Y833618D01*
X436382Y816954D01*
X424599Y796546D01*
X418500Y773783D01*
Y750217D01*
X424599Y727454D01*
X436382Y707046D01*
X453046Y690382D01*
X473454Y678599D01*
X496217Y672500D01*
X519783D01*
X542546Y678599D01*
X562954Y690382D01*
X579618Y707046D01*
X591401Y727454D01*
X597500Y750217D01*
Y773783D01*
X591401Y796546D01*
X579618Y816954D01*
X562954Y833618D01*
X542546Y845401D01*
X519783Y851500D01*
D02*
G37*
G36*
X2806700Y602845D02*
Y520700D01*
X2888845D01*
X2882433Y544630D01*
X2869939Y566270D01*
X2852270Y583939D01*
X2830630Y596433D01*
X2806700Y602845D01*
D02*
G37*
G36*
X2781300D02*
X2757370Y596433D01*
X2735730Y583939D01*
X2718061Y566270D01*
X2705567Y544630D01*
X2699155Y520700D01*
X2781300D01*
Y602845D01*
D02*
G37*
G36*
X2551783Y597500D02*
X2528217D01*
X2505454Y591401D01*
X2485046Y579618D01*
X2468382Y562954D01*
X2456599Y542546D01*
X2450500Y519783D01*
Y496217D01*
X2456599Y473454D01*
X2468382Y453046D01*
X2485046Y436382D01*
X2505454Y424599D01*
X2528217Y418500D01*
X2551783D01*
X2574546Y424599D01*
X2594954Y436382D01*
X2611618Y453046D01*
X2623401Y473454D01*
X2629500Y496217D01*
Y519783D01*
X2623401Y542546D01*
X2611618Y562954D01*
X2594954Y579618D01*
X2574546Y591401D01*
X2551783Y597500D01*
D02*
G37*
G36*
X2297783D02*
X2274217D01*
X2251454Y591401D01*
X2231046Y579618D01*
X2214382Y562954D01*
X2202599Y542546D01*
X2196500Y519783D01*
Y496217D01*
X2202599Y473454D01*
X2214382Y453046D01*
X2231046Y436382D01*
X2251454Y424599D01*
X2274217Y418500D01*
X2297783D01*
X2320546Y424599D01*
X2340954Y436382D01*
X2357618Y453046D01*
X2369401Y473454D01*
X2375500Y496217D01*
Y519783D01*
X2369401Y542546D01*
X2357618Y562954D01*
X2340954Y579618D01*
X2320546Y591401D01*
X2297783Y597500D01*
D02*
G37*
G36*
X2043783D02*
X2020217D01*
X1997454Y591401D01*
X1977046Y579618D01*
X1960382Y562954D01*
X1948599Y542546D01*
X1942500Y519783D01*
Y496217D01*
X1948599Y473454D01*
X1960382Y453046D01*
X1977046Y436382D01*
X1997454Y424599D01*
X2020217Y418500D01*
X2043783D01*
X2066546Y424599D01*
X2086954Y436382D01*
X2103618Y453046D01*
X2115401Y473454D01*
X2121500Y496217D01*
Y519783D01*
X2115401Y542546D01*
X2103618Y562954D01*
X2086954Y579618D01*
X2066546Y591401D01*
X2043783Y597500D01*
D02*
G37*
G36*
X1789783D02*
X1766217D01*
X1743454Y591401D01*
X1723046Y579618D01*
X1706382Y562954D01*
X1694599Y542546D01*
X1688500Y519783D01*
Y496217D01*
X1694599Y473454D01*
X1706382Y453046D01*
X1723046Y436382D01*
X1743454Y424599D01*
X1766217Y418500D01*
X1789783D01*
X1812546Y424599D01*
X1832954Y436382D01*
X1849618Y453046D01*
X1861401Y473454D01*
X1867500Y496217D01*
Y519783D01*
X1861401Y542546D01*
X1849618Y562954D01*
X1832954Y579618D01*
X1812546Y591401D01*
X1789783Y597500D01*
D02*
G37*
G36*
X1535783D02*
X1512217D01*
X1489454Y591401D01*
X1469046Y579618D01*
X1452382Y562954D01*
X1440599Y542546D01*
X1434500Y519783D01*
Y496217D01*
X1440599Y473454D01*
X1452382Y453046D01*
X1469046Y436382D01*
X1489454Y424599D01*
X1512217Y418500D01*
X1535783D01*
X1558546Y424599D01*
X1578954Y436382D01*
X1595618Y453046D01*
X1607401Y473454D01*
X1613500Y496217D01*
Y519783D01*
X1607401Y542546D01*
X1595618Y562954D01*
X1578954Y579618D01*
X1558546Y591401D01*
X1535783Y597500D01*
D02*
G37*
G36*
X1281783D02*
X1258217D01*
X1235454Y591401D01*
X1215046Y579618D01*
X1198382Y562954D01*
X1186599Y542546D01*
X1180500Y519783D01*
Y496217D01*
X1186599Y473454D01*
X1198382Y453046D01*
X1215046Y436382D01*
X1235454Y424599D01*
X1258217Y418500D01*
X1281783D01*
X1304546Y424599D01*
X1324954Y436382D01*
X1341618Y453046D01*
X1353401Y473454D01*
X1359500Y496217D01*
Y519783D01*
X1353401Y542546D01*
X1341618Y562954D01*
X1324954Y579618D01*
X1304546Y591401D01*
X1281783Y597500D01*
D02*
G37*
G36*
X1027783D02*
X1004217D01*
X981454Y591401D01*
X961046Y579618D01*
X944382Y562954D01*
X932599Y542546D01*
X926500Y519783D01*
Y496217D01*
X932599Y473454D01*
X944382Y453046D01*
X961046Y436382D01*
X981454Y424599D01*
X1004217Y418500D01*
X1027783D01*
X1050546Y424599D01*
X1070954Y436382D01*
X1087618Y453046D01*
X1099401Y473454D01*
X1105500Y496217D01*
Y519783D01*
X1099401Y542546D01*
X1087618Y562954D01*
X1070954Y579618D01*
X1050546Y591401D01*
X1027783Y597500D01*
D02*
G37*
G36*
X597500D02*
X418500D01*
Y418500D01*
X597500D01*
Y597500D01*
D02*
G37*
G36*
X2888845Y495300D02*
X2806700D01*
Y413155D01*
X2830630Y419567D01*
X2852270Y432061D01*
X2869939Y449730D01*
X2882433Y471370D01*
X2888845Y495300D01*
D02*
G37*
G36*
X2781300D02*
X2699155D01*
X2705567Y471370D01*
X2718061Y449730D01*
X2735730Y432061D01*
X2757370Y419567D01*
X2781300Y413155D01*
Y495300D01*
D02*
G37*
%LPD*%
D10*
X2658750Y5180991D02*
G03*
X2633521Y5135113I260250J-172991D01*
G01*
X2698750Y5168455D02*
G03*
X2667233Y5112257I220250J-160455D01*
G01*
X2851898Y5098297D02*
G03*
X2808089Y5026839I67102J-90297D01*
G01*
X2738750Y5154854D02*
G03*
X2701378Y5089833I180250J-146854D01*
G01*
X2778750Y5139856D02*
G03*
X2736078Y5067965I140250J-131856D01*
G01*
X2814968Y5119505D02*
G03*
X2771532Y5046850I104032J-111505D01*
G01*
X334401Y3850500D02*
X398599D01*
X527050Y3978951D02*
Y4029073D01*
X742977Y4245000D01*
X398599Y3850500D02*
X527050Y3978951D01*
X742977Y4245000D02*
X871200D01*
Y4145000D02*
X876200Y4150000D01*
X612450Y3993700D02*
X743749Y4124999D01*
X783455Y4145000D02*
X871200D01*
X763454Y4124999D02*
X783455Y4145000D01*
X612450Y3810351D02*
Y3993700D01*
X743749Y4124999D02*
X763454D01*
X381000Y3992000D02*
X689000Y4300000D01*
X876200D01*
X226112Y5162888D02*
X321013D01*
X127000Y5262000D02*
X226112Y5162888D01*
X321013D02*
X334401Y5149500D01*
X2874625Y1020937D02*
Y1392063D01*
X2805716Y1456500D02*
X2810188D01*
X2777051Y1036500D02*
X2794625Y1054074D01*
X2794000Y762000D02*
Y940312D01*
X2634159Y1036500D02*
X2777051D01*
X2794000Y940312D02*
X2874625Y1020937D01*
X2622909Y1047750D02*
X2634159Y1036500D01*
X2794000Y1468216D02*
X2805716Y1456500D01*
X2617591Y996500D02*
X2793620D01*
X2834625Y1037505D01*
X2606341Y1007750D02*
X2617591Y996500D01*
X1064318Y1007750D02*
X2606341D01*
X2834625Y1037505D02*
Y1207505D01*
X2794000Y1468216D02*
Y1587500D01*
X2476000Y1416500D02*
X2793620D01*
X2834625Y1207505D02*
Y1375495D01*
X860641Y804073D02*
X1064318Y1007750D01*
X381000Y2976000D02*
X446250D01*
X889000Y3418750D01*
X332164Y3112100D02*
X429836D01*
X498900Y3181164D01*
X293382Y3150882D02*
X332164Y3112100D01*
X876200Y3431550D02*
Y3900000D01*
Y3431550D02*
X889000Y3418750D01*
X1047750Y1047750D02*
X2622909D01*
X2553500Y1786401D02*
X2619401Y1720500D01*
X2553500Y1786401D02*
Y1809750D01*
X2435250D02*
X2553500D01*
X2412000Y1833000D02*
X2435250Y1809750D01*
X2794625Y1054074D02*
Y1358926D01*
X2777051Y1376500D02*
X2794625Y1358926D01*
X2661000Y1720500D02*
X2794000Y1587500D01*
X2810188Y1456500D02*
X2874625Y1392063D01*
X2619401Y1720500D02*
X2661000D01*
X2793620Y1416500D02*
X2834625Y1375495D01*
X2652199Y1376500D02*
X2777051D01*
X2476000Y1416500D02*
Y1429395D01*
X2450448Y1375427D02*
X2651125D01*
X2111401Y1720500D02*
X2168875D01*
X2047875Y1784026D02*
X2111401Y1720500D01*
X2045500Y1786401D02*
Y1825625D01*
X1904000Y1833000D02*
X1911375Y1825625D01*
X1950599Y1720500D02*
X1994431Y1764333D01*
X2434995Y1470400D02*
X2476000Y1429395D01*
X2344933Y1430400D02*
X2418426D01*
X2011000Y1764333D02*
X2344933Y1430400D01*
X2045500Y1786401D02*
X2047875Y1784026D01*
X1911375Y1825625D02*
X2045500D01*
X1994431Y1764333D02*
X2011000D01*
X860641Y804073D02*
X861500Y803214D01*
X803214Y662500D02*
X861500Y720786D01*
X762000Y662500D02*
X803214D01*
X762000Y508000D02*
Y662500D01*
X2047875Y1784026D02*
Y1784026D01*
X861500Y720786D02*
Y803214D01*
X2418975Y1470400D02*
X2434995D01*
X2168875Y1720500D02*
X2418975Y1470400D01*
X762000Y762000D02*
X1047750Y1047750D01*
X2436000Y1389875D02*
Y1412826D01*
X1762500Y1879599D02*
X1791500D01*
X2651125Y1375427D02*
X2652199Y1376500D01*
X1696599Y1945500D02*
X1762500Y1879599D01*
X1642212Y1945500D02*
X1696599D01*
X2436000Y1389875D02*
X2450448Y1375427D01*
X1791500Y1786401D02*
Y1879599D01*
X1857401Y1720500D02*
X1950599D01*
X1791500Y1786401D02*
X1857401Y1720500D01*
X1610793Y1976918D02*
X1642212Y1945500D01*
X2418426Y1430400D02*
X2436000Y1412826D01*
X1610793Y1976918D02*
Y2047793D01*
X1650000Y2087000D01*
X1124475Y1243875D02*
X1176000Y1295400D01*
X635000Y1243875D02*
X1124475D01*
X1176000Y1295400D02*
X1476375Y1595775D01*
Y1754276D01*
X1508500Y1786401D01*
Y1879599D01*
X1471799Y1916299D02*
X1508500Y1879599D01*
X1396000Y1992098D02*
X1471799Y1916299D01*
X1396000Y1992098D02*
Y2087000D01*
X431265Y6805166D02*
X1050000Y6186432D01*
X431265Y6805166D02*
Y6805166D01*
X1050000Y5273800D02*
Y6186432D01*
X426599Y6800500D02*
X431265Y6805166D01*
X333401Y6800500D02*
X426599D01*
X267500Y6866401D02*
X333401Y6800500D01*
X267500Y6866401D02*
Y6959599D01*
X126000Y7167000D02*
X300451Y6992549D01*
X267500Y6959599D02*
X300451Y6992549D01*
X126000Y7167000D02*
Y7167000D01*
X380000Y6913000D02*
X1100000Y6193000D01*
Y5273800D02*
Y6193000D01*
X587401Y6800500D02*
X680599D01*
X685265Y6805166D02*
Y6805166D01*
Y6805166D02*
X1150000Y6340432D01*
X521500Y6866401D02*
Y6905625D01*
Y6866401D02*
X587401Y6800500D01*
X680599D02*
X685265Y6805166D01*
X380000Y7072099D02*
Y7167000D01*
X492500Y6934625D02*
X521500Y6905625D01*
X492500Y6934625D02*
Y6959599D01*
X380000Y7072099D02*
X492500Y6959599D01*
X1150000Y5273800D02*
Y6340432D01*
X841401Y6800500D02*
X934599D01*
X804700Y6837201D02*
X841401Y6800500D01*
X746500Y6895401D02*
X804700Y6837200D01*
X634000Y7072099D02*
Y7167000D01*
Y7072099D02*
X746500Y6959599D01*
X939265Y6805166D02*
Y6805166D01*
X746500Y6895401D02*
Y6959599D01*
X634000Y6913000D02*
X1200000Y6347000D01*
Y5273800D02*
Y6347000D01*
X939265Y6805166D02*
X1250000Y6494432D01*
X934599Y6800500D02*
X939265Y6805166D01*
X1250000Y5273800D02*
Y6494432D01*
X888000Y6913000D02*
X1300000Y6501000D01*
Y5273800D02*
Y6501000D01*
X1193265Y6805166D02*
X1350000Y6648431D01*
X1193265Y6805166D02*
Y6805166D01*
X888000Y7167000D02*
X1029500D01*
X1095401Y6800500D02*
X1188599D01*
X1350000Y5273800D02*
Y6648431D01*
X1029500Y6866401D02*
Y6959599D01*
X1188599Y6800500D02*
X1193265Y6805166D01*
X1029500Y7120401D02*
X1079500Y7070401D01*
Y7009599D02*
Y7070401D01*
X1029500Y6959599D02*
X1079500Y7009599D01*
X1029500Y6866401D02*
X1095401Y6800500D01*
X1029500Y7120401D02*
Y7167000D01*
X1250112Y6862013D02*
X1254500Y6866401D01*
X1142000Y7072099D02*
X1254500Y6959599D01*
X1250112Y6862013D02*
X1250112D01*
X1142000Y7072099D02*
Y7167000D01*
X1254500Y6866401D02*
Y6959599D01*
X1250112Y6862013D02*
X1450000Y6662125D01*
Y5273800D02*
Y6662125D01*
X1142000Y6913000D02*
X1400000Y6655000D01*
Y5273800D02*
Y6655000D01*
X1396000Y6913000D02*
X1500000Y6809000D01*
Y5273800D02*
Y6809000D01*
X1550000Y5273800D02*
Y6853901D01*
Y6972099D02*
Y7013000D01*
X1537500Y6866401D02*
X1550000Y6853901D01*
X1537500Y6866401D02*
Y6959599D01*
X1550000Y6972099D01*
X1396000Y7167000D02*
X1550000Y7013000D01*
X1625000Y5393113D02*
X1626875Y5394988D01*
Y6817068D01*
X1625000Y5386545D02*
Y5393113D01*
X1600000Y5273800D02*
X1605000Y5278800D01*
X1615000Y5376545D02*
X1625000Y5386545D01*
X1626875Y6817068D02*
X1650000Y6840193D01*
X1615000Y5369988D02*
Y5376545D01*
X1605000Y5278800D02*
Y5359976D01*
X1615000Y5369988D02*
X1615006Y5369982D01*
X1650000Y6840193D02*
Y6913000D01*
X1605000Y5359976D02*
X1615006Y5369982D01*
X1666875Y5378420D02*
Y6800500D01*
X1696599D01*
X1650000Y7072098D02*
X1757549Y6964549D01*
Y6964549D02*
X1762500Y6959599D01*
Y6866401D02*
Y6959599D01*
X1696599Y6800500D02*
X1762500Y6866401D01*
X1650000Y7072098D02*
Y7167000D01*
X1655000Y5278800D02*
Y5359976D01*
X1650000Y5273800D02*
X1655000Y5278800D01*
X1665000Y5369977D02*
Y5376545D01*
X1655000Y5359976D02*
X1665000Y5369977D01*
Y5376545D02*
X1666875Y5378420D01*
X1904000Y6818318D02*
Y6913000D01*
X1710000Y6624318D02*
X1904000Y6818318D01*
X1710000Y5364976D02*
Y6624318D01*
X1700000Y5273800D02*
X1705000Y5278800D01*
Y5359976D02*
X1710000Y5364976D01*
X1705000Y5278800D02*
Y5359976D01*
X2150000Y6023500D02*
X2927000Y6800500D01*
X2250000Y5273800D02*
Y5917125D01*
X1900000Y5273800D02*
Y6401000D01*
X2200000Y5273800D02*
Y5939000D01*
X1750000Y5273800D02*
Y6607750D01*
X2050000Y6145750D02*
X2704750Y6800500D01*
X1800000Y6555000D02*
X2158000Y6913000D01*
X1855000Y5359976D02*
X1860000Y5364976D01*
X1900000Y6401000D02*
X2412000Y6913000D01*
X1950000Y6299750D02*
X2450750Y6800500D01*
X2100000Y6093000D02*
X2920000Y6913000D01*
X1950599Y6800500D02*
X2016500Y6866401D01*
X2050000Y5273800D02*
Y6145750D01*
X2150000Y5273800D02*
Y6023500D01*
X1750000Y6607750D02*
X1942750Y6800500D01*
X1950599D01*
X1855000Y5278800D02*
Y5359976D01*
X2100000Y5273800D02*
Y6093000D01*
X1800000Y5273800D02*
Y6555000D01*
X2000000Y5273800D02*
Y6247000D01*
X1950000Y5273800D02*
Y6299750D01*
X1860000Y5364976D02*
Y6495500D01*
X2200000Y5939000D02*
X3174000Y6913000D01*
X1860000Y6495500D02*
X2165000Y6800500D01*
X2000000Y6247000D02*
X2666000Y6913000D01*
X2250000Y5917125D02*
X3133375Y6800500D01*
X3220599D01*
X1920875Y7025500D02*
X1950599D01*
X2016500Y6866401D02*
Y6890125D01*
X1904000Y7042375D02*
X1920875Y7025500D01*
X2016500Y6890125D02*
X2045500Y6919125D01*
X1904000Y7042375D02*
Y7167000D01*
X2045500Y6919125D02*
Y7000875D01*
X1975224D02*
X2045500D01*
X1950599Y7025500D02*
X1975224Y7000875D01*
X2158000Y7072099D02*
X2270500Y6959599D01*
X1850000Y5273800D02*
X1855000Y5278800D01*
X2165000Y6800500D02*
X2204599D01*
X2270500Y6866401D02*
Y6959599D01*
X2204599Y6800500D02*
X2270500Y6866401D01*
X2158000Y7072099D02*
Y7167000D01*
X2412000Y7072099D02*
Y7167000D01*
X2450750Y6800500D02*
X2458599D01*
X2412000Y7072099D02*
X2524500Y6959599D01*
Y6866401D02*
Y6874250D01*
X2553500Y6903250D01*
X2458599Y6800500D02*
X2524500Y6866401D01*
X2553500Y6903250D02*
Y6905625D01*
X2524500Y6934625D02*
X2553500Y6905625D01*
X2524500Y6934625D02*
Y6959599D01*
X2704750Y6800500D02*
X2712599D01*
X2778500Y6866401D01*
Y6959599D01*
X2666000Y7072099D02*
X2778500Y6959599D01*
X2666000Y7072099D02*
Y7167000D01*
X2920000Y7128875D02*
Y7167000D01*
X2927000Y6800500D02*
X2966599D01*
X3032500Y6866401D02*
Y6874250D01*
X2966599Y6800500D02*
X3032500Y6866401D01*
Y6874250D02*
X3061500Y6903250D01*
Y6959599D01*
X2920000Y7128875D02*
X3075388Y6973487D01*
X3061500Y6959599D02*
X3075388Y6973487D01*
X3220599Y6800500D02*
X3286500Y6866401D01*
Y6959599D01*
X3174000Y7072099D02*
X3286500Y6959599D01*
X3174000Y7072099D02*
Y7167000D01*
X2423800Y5528800D02*
X2919000Y6024000D01*
X2423800Y5100000D02*
Y5528800D01*
X2727550Y4989732D02*
Y5002868D01*
X2807550Y4969731D02*
X2822860Y4985042D01*
X2602817Y4715000D02*
X2622524D01*
X2589387Y4795000D02*
X2767550Y4973163D01*
X2553112Y4835000D02*
X2572818D01*
X2536544Y4875000D02*
X2556250D01*
X2428800Y5005000D02*
X2516545D01*
X3060500Y5882500D02*
X3173000Y5770000D01*
X2567550Y5069142D02*
X2633521Y5135113D01*
X2647550Y5022869D02*
Y5036005D01*
X2767550Y4973163D02*
Y4986300D01*
X2807550Y4956595D02*
Y4969731D01*
X2765273Y4857750D02*
X2863651D01*
X2639092Y4675001D02*
X2718091Y4754000D01*
X2569680Y4795000D02*
X2589387D01*
X2428800Y4955000D02*
X2523113D01*
X2806500Y5816599D02*
X2872401Y5882500D01*
X2647550Y5036005D02*
X2701378Y5089833D01*
X2718091Y4754000D02*
X2919000D01*
X2556250Y4875000D02*
X2687550Y5006300D01*
X2523113Y4955000D02*
X2607550Y5039437D01*
X2423800Y5050000D02*
X2494125D01*
X2687550Y5019437D02*
X2736078Y5067965D01*
X2727550Y5002868D02*
X2771532Y5046850D01*
X2622524Y4715000D02*
X2765273Y4857750D01*
X2605955Y4755000D02*
X2807550Y4956595D01*
X2509976Y5055000D02*
X2527550Y5072574D01*
X2499125Y5055000D02*
X2509976D01*
X2494125Y5050000D02*
X2499125Y5055000D01*
X2607550Y5039437D02*
Y5052574D01*
X2687550Y5006300D02*
Y5019437D01*
X2586249Y4755000D02*
X2605955D01*
X2527550Y5210425D02*
X2618750Y5301625D01*
X2527550Y5072574D02*
Y5210425D01*
X2567550Y5056005D02*
Y5069142D01*
X2607550Y5052574D02*
X2667233Y5112257D01*
X2516545Y5005000D02*
X2567550Y5056005D01*
X2618750Y5571500D02*
X2806500Y5759250D01*
X2618750Y5301625D02*
Y5571500D01*
X2619386Y4675001D02*
X2639092D01*
X2572818Y4835000D02*
X2727550Y4989732D01*
X2539681Y4915000D02*
X2647550Y5022869D01*
X2806500Y5759250D02*
Y5816599D01*
X2872401Y5882500D02*
X3060500D01*
X2767550Y4986300D02*
X2808089Y5026839D01*
X2519975Y4915000D02*
X2539681D01*
X2423800Y5000000D02*
X2428800Y5005000D01*
X2658750Y5361523D02*
X2698125Y5400899D01*
X2658750Y5180991D02*
Y5361523D01*
X2766500Y5485970D02*
Y5579167D01*
X2794000Y5645000D02*
X2919000Y5770000D01*
X2766500Y5485969D02*
X2766500Y5485970D01*
X2766500Y5476636D02*
Y5485969D01*
X2794000Y5606667D02*
Y5645000D01*
X2698125Y5408262D02*
X2766500Y5476636D01*
X2766500Y5579167D02*
X2794000Y5606667D01*
X2698125Y5400899D02*
Y5408262D01*
X2806500Y5469401D02*
X2811166Y5464735D01*
X2738125Y5391693D02*
X2811166Y5464735D01*
X2738125Y5384330D02*
Y5391693D01*
X2698750Y5344955D02*
X2738125Y5384330D01*
X2698750Y5168455D02*
Y5344955D01*
X2896042Y4985042D02*
X2919000Y5008000D01*
X2822860Y4985042D02*
X2896042D01*
X2851898Y5098297D02*
X2858750Y5105149D01*
X2814968Y5119505D02*
X2818750Y5123287D01*
X2830466Y5262000D02*
X2919000D01*
X2971457Y5114642D02*
X2974349Y5111750D01*
X2818750Y5250284D02*
X2830466Y5262000D01*
X2818750Y5123287D02*
Y5250284D01*
X2858750Y5105149D02*
Y5108942D01*
X2841431Y5374500D02*
X3060500D01*
X2858750Y5108942D02*
X2870308Y5120500D01*
X2738750Y5154854D02*
Y5328387D01*
X2778750Y5139856D02*
Y5311818D01*
X2870308Y5120500D02*
X2965599D01*
X2738750Y5328387D02*
X2778125Y5367762D01*
X2965599Y5120500D02*
X2971457Y5114642D01*
X2778750Y5311818D02*
X2841431Y5374500D01*
X2778125Y5367762D02*
Y5375125D01*
X2806500Y5469401D02*
Y5562599D01*
X2551248Y4720000D02*
X2586249Y4755000D01*
X2423800Y4900000D02*
X2428800Y4905000D01*
X2423800Y4950000D02*
X2428800Y4955000D01*
X2523112Y4805000D02*
X2553112Y4835000D01*
X2806500Y5562599D02*
X2872401Y5628500D01*
X2995299Y5598799D02*
X3090201D01*
X3173000Y5516000D01*
X2965599Y5628500D02*
X2995299Y5598799D01*
X2539680Y4765000D02*
X2569680Y4795000D01*
X2872401Y5628500D02*
X2965599D01*
X2584385Y4640000D02*
X2619386Y4675001D01*
X2516543Y4855000D02*
X2536544Y4875000D01*
X2567817Y4680000D02*
X2602817Y4715000D01*
X2509975Y4905000D02*
X2519975Y4915000D01*
X2428800Y4905000D02*
X2509975D01*
X2778125Y5375125D02*
X2919000Y5516000D01*
X2519976Y4765000D02*
X2539680D01*
X2863651Y4857750D02*
X2872401Y4866500D01*
X2423800Y4850000D02*
X2428800Y4855000D01*
X2548113Y4680000D02*
X2567817D01*
X2428800Y4805000D02*
X2523112D01*
X2531545Y4720000D02*
X2551248D01*
X2564682Y4640000D02*
X2584385D01*
X2428800Y4855000D02*
X2516543D01*
X2509976Y4755000D02*
X2519976Y4765000D01*
X2423800Y4800000D02*
X2428800Y4805000D01*
X3060500Y5374500D02*
X3173000Y5262000D01*
X2529682Y4605000D02*
X2564682Y4640000D01*
X2428800Y4755000D02*
X2509976D01*
X2516545Y4705000D02*
X2531545Y4720000D01*
X2523113Y4655000D02*
X2548113Y4680000D01*
X2423800Y4750000D02*
X2428800Y4755000D01*
X2423800Y4700000D02*
X2428800Y4705000D01*
Y4605000D02*
X2529682D01*
X2428800Y4705000D02*
X2516545D01*
X2499266Y4655000D02*
X2523113D01*
X2974349Y5111750D02*
X3069250D01*
X3173000Y5008000D01*
X2499266Y4655000D02*
X2499266Y4655000D01*
X2428800Y4655000D02*
X2499266D01*
X2423800Y4650000D02*
X2428800Y4655000D01*
X2974349Y4857750D02*
X3069250D01*
X2965599Y4866500D02*
X2974349Y4857750D01*
X3069250D02*
X3173000Y4754000D01*
X2423800Y4600000D02*
X2428800Y4605000D01*
X2872401Y4866500D02*
X2965599D01*
X2423800Y4550000D02*
X2809901D01*
X2872401Y4612500D01*
X2965599D01*
X3031500Y4546599D01*
Y4524375D02*
Y4546599D01*
Y4524375D02*
X3148625D01*
X3173000Y4500000D01*
X2423800D02*
X2919000D01*
X2423800Y4450000D02*
X2809901D01*
X2872401Y4387500D01*
X2899125D01*
X2928125Y4358500D01*
X2965599D01*
X2987362Y4336737D01*
X3082263D01*
X3173000Y4246000D01*
X2795568D02*
X2919000D01*
X2651568Y4390000D02*
X2795568Y4246000D01*
X2514976Y4390000D02*
X2651568D01*
X2423800Y4400000D02*
X2428800Y4395000D01*
X2509976D02*
X2514976Y4390000D01*
X2428800Y4395000D02*
X2509976D01*
X2423800Y4350000D02*
X2635000D01*
X2880500Y4104500D01*
X2965599D01*
X2979424Y4090674D01*
X3074326D01*
X3173000Y3992000D01*
X2611000Y4300000D02*
X2919000Y3992000D01*
X2423800Y4300000D02*
X2611000D01*
X2528625Y4250000D02*
X2560341Y4218284D01*
X2423800Y4250000D02*
X2528625D01*
X2499266Y4195000D02*
X2516545D01*
X2423800Y4100000D02*
X2428800Y4095000D01*
X2766500Y3928833D02*
X2862049Y3833284D01*
X2766500Y3928833D02*
Y3975455D01*
X2919000Y3738000D02*
Y3768966D01*
X2519978Y4134999D02*
X2548376D01*
X2553375Y4130000D01*
X2560341Y4218284D02*
X2578228D01*
X2499266Y4195000D02*
X2499266Y4195000D01*
X2586512Y4209999D02*
X2588524D01*
X3031500Y3879500D02*
X3173000Y3738000D01*
X2726500Y3912264D02*
Y3958886D01*
X2499266Y4094999D02*
X2533820D01*
X2686500Y3942318D01*
X2862049Y3825917D02*
X2919000Y3768966D01*
X2588524Y4209999D02*
X2806500Y3992023D01*
X2578228Y4218284D02*
X2586512Y4209999D01*
X2555387Y4130000D02*
X2726500Y3958886D01*
X2533261Y4178284D02*
X2561659D01*
X2516545Y4195000D02*
X2533261Y4178284D01*
X2509976Y4145000D02*
X2519978Y4134999D01*
X2624375Y3901253D02*
Y3947875D01*
Y3901253D02*
X2726500Y3799128D01*
X2862049Y3825917D02*
Y3833284D01*
X2806500Y3945401D02*
Y3992023D01*
X2571955Y4170000D02*
X2766500Y3975455D01*
X2726500Y3658264D02*
Y3799128D01*
X2423800Y4200000D02*
X2428800Y4195000D01*
X2726500Y3912264D02*
X2822049Y3816716D01*
Y3800147D02*
Y3816716D01*
X2522250Y4050000D02*
X2624375Y3947875D01*
X2806500Y3945401D02*
X2872401Y3879500D01*
X2428800Y4195000D02*
X2499266D01*
X2499265Y4095000D02*
X2499266Y4094999D01*
X2686500Y3895696D02*
X2766500Y3815696D01*
Y3674833D02*
Y3815696D01*
X2872401Y3879500D02*
X3031500D01*
X2686500Y3895696D02*
Y3942318D01*
X2806500Y3784599D02*
X2822049Y3800147D01*
X2428800Y4095000D02*
X2499265D01*
X2423800Y4150000D02*
X2428800Y4145000D01*
X2569944Y4170000D02*
X2571955D01*
X2428800Y4145000D02*
X2509976D01*
X2561659Y4178284D02*
X2569944Y4170000D01*
X2945750Y3596500D02*
X2965599D01*
X3031500Y3530599D01*
X2945750Y3596500D02*
Y3602068D01*
X2806500Y3691401D02*
X2872401Y3625500D01*
X2922318D01*
X3031500Y3509000D02*
X3148000D01*
X3173000Y3484000D01*
X2766500Y3674833D02*
X2919000Y3522333D01*
X2922318Y3625500D02*
X2945750Y3602068D01*
X3031500Y3509000D02*
Y3530599D01*
X2553375Y4130000D02*
X2555387D01*
X2919000Y3484000D02*
Y3522333D01*
X2806500Y3691401D02*
Y3784599D01*
Y3530599D02*
X2822049Y3546147D01*
Y3562716D01*
X2567550Y3889375D02*
X2686500Y3770425D01*
Y3641696D02*
X2766500Y3561696D01*
X2686500Y3641696D02*
Y3770425D01*
X2726500Y3658264D02*
X2822049Y3562716D01*
X2766500Y3420833D02*
Y3561696D01*
X2872401Y3371500D02*
X2921000D01*
X2806500Y3437401D02*
X2872401Y3371500D01*
X2950000Y3342500D02*
X2965599D01*
X2806500Y3437401D02*
Y3530599D01*
X2965599Y3342500D02*
X2974349Y3333750D01*
X2423800Y4050000D02*
X2522250D01*
X2921000Y3371500D02*
X2950000Y3342500D01*
X2974349Y3333750D02*
X3069250D01*
X3173000Y3230000D01*
X2428800Y3995000D02*
X2520682D01*
X2548250Y3963295D02*
Y3967432D01*
X2349500Y3955000D02*
X2423800D01*
X2433800Y3945000D01*
X2855833Y3331500D02*
X2877970D01*
X2433800Y3945000D02*
X2509976D01*
X2527550Y3872574D02*
Y3927426D01*
X2766500Y3420833D02*
X2855833Y3331500D01*
X2891256Y3257744D02*
Y3318215D01*
X2520682Y3995000D02*
X2548250Y3967432D01*
X2509976Y3945000D02*
X2527550Y3927426D01*
X2891256Y3257744D02*
X2919000Y3230000D01*
X2877970Y3331500D02*
X2891256Y3318215D01*
X2567550Y3889375D02*
Y3943994D01*
X2509976Y3855000D02*
X2527550Y3872574D01*
X2548250Y3963295D02*
X2567550Y3943994D01*
X2423800Y4000000D02*
X2428800Y3995000D01*
X2463800Y3855000D02*
X2509976D01*
X3031500Y2976000D02*
Y3022599D01*
Y2976000D02*
X3173000D01*
X2463800Y3487768D02*
X2867735Y3083833D01*
X2872401Y3088500D01*
X2965599D01*
X3031500Y3022599D01*
X2463800Y3487768D02*
Y3855000D01*
X2423800Y3471200D02*
X2919000Y2976000D01*
X2423800Y3471200D02*
Y3900000D01*
X3016250Y1990750D02*
X3174000Y1833000D01*
X3016250Y2024151D02*
X3032500Y2040401D01*
X2966599Y2199500D02*
X3032500Y2133599D01*
X2873401Y2199500D02*
X2966599D01*
X3032500Y2040401D02*
Y2133599D01*
X3016250Y1990750D02*
Y2024151D01*
X2579409Y2484159D02*
X2868735Y2194833D01*
X2873401Y2199500D01*
X2250000Y2813568D02*
X2579409Y2484159D01*
X2250000Y2813568D02*
Y3726200D01*
X2200000Y2807000D02*
X2920000Y2087000D01*
X2200000Y2807000D02*
Y3726200D01*
X2745550Y2007451D02*
X2920000Y1833000D01*
X2745549Y2007451D02*
X2745550D01*
X2145000Y3721200D02*
X2150000Y3726200D01*
X2745549Y2007450D02*
X2778500Y2040401D01*
X2619401Y2199500D02*
X2712599D01*
X2614735Y2194833D02*
X2619401Y2199500D01*
X2712599D02*
X2778500Y2133599D01*
X2140000Y2669568D02*
X2614735Y2194833D01*
X2140000Y3635023D02*
X2145000Y3640023D01*
Y3721200D01*
X2140000Y2669568D02*
Y3635023D01*
X2778500Y2040401D02*
Y2133599D01*
X1900000Y2345000D02*
Y3726200D01*
X1800000Y2191000D02*
Y3726200D01*
X1950000Y2431500D02*
Y3726200D01*
X1695000Y3640023D02*
Y3721200D01*
X2050000Y2505568D02*
Y3726200D01*
X2100000Y2653000D02*
Y3726200D01*
X1750000Y2146099D02*
Y3726200D01*
X2000000Y2499000D02*
Y3726200D01*
X2100000Y2653000D02*
X2666000Y2087000D01*
X1850000Y2300099D02*
Y3726200D01*
X1692700Y3637723D02*
X1695000Y3640023D01*
X1692700Y2283188D02*
Y3637723D01*
X2553500Y2040401D02*
X2619401Y1974500D01*
X2666000D01*
Y1833000D02*
Y1974500D01*
X2524500Y2133599D02*
X2553500D01*
Y2040401D02*
Y2133599D01*
X2050000Y2505568D02*
X2356068Y2199500D01*
X2254250Y2024151D02*
X2270500Y2040401D01*
X1950000Y2431500D02*
X2182000Y2199500D01*
X2356068D02*
X2458599D01*
X2182000D02*
X2204599D01*
X2270500Y2040401D02*
Y2133599D01*
X2204599Y2199500D02*
X2270500Y2133599D01*
X2000000Y2499000D02*
X2412000Y2087000D01*
X2458599Y2199500D02*
X2524500Y2133599D01*
X2254250Y1990750D02*
X2412000Y1833000D01*
X2254250Y1990750D02*
Y2024151D01*
X1900000Y2345000D02*
X2158000Y2087000D01*
Y1833000D02*
Y1921875D01*
X2016500Y2063375D02*
X2158000Y1921875D01*
X1850000Y2300099D02*
X2016500Y2133599D01*
Y2063375D02*
Y2133599D01*
X1800000Y2191000D02*
X1904000Y2087000D01*
X1750000Y2146099D02*
X1762500Y2133599D01*
Y2047875D02*
Y2133599D01*
Y2047875D02*
X1904000Y1906375D01*
Y1833000D02*
Y1906375D01*
X1685400Y2255626D02*
Y2275888D01*
X1650000Y2087000D02*
Y2220226D01*
X1685400Y2275888D02*
X1692700Y2283188D01*
X1650000Y2220226D02*
X1685400Y2255626D01*
X1695000Y3721200D02*
X1700000Y3726200D01*
X1600000Y2291000D02*
Y3726200D01*
X1396000Y2087000D02*
X1600000Y2291000D01*
X1304763Y2019138D02*
X1312701Y2011200D01*
X1304763Y2019138D02*
X1304763D01*
X1550000Y2327875D02*
Y3726200D01*
X1349401Y2199500D02*
X1421625D01*
X1550000Y2327875D01*
X1312700Y2011200D02*
X1396000Y1927901D01*
X1283500Y2040401D02*
X1304763Y2019138D01*
X1396000Y1833000D02*
Y1927901D01*
X1283500Y2040401D02*
Y2133599D01*
X1349401Y2199500D01*
X1142000Y2087000D02*
X1500000Y2445000D01*
Y3726200D01*
X1350000Y2683500D02*
Y3726200D01*
X380000Y2087000D02*
X1200000Y2907000D01*
X888000Y2087000D02*
X1400000Y2599000D01*
X866000Y2199500D02*
X1350000Y2683500D01*
X1034888Y2035013D02*
X1142000Y1927901D01*
X1135875Y2199500D02*
X1450000Y2513625D01*
X1029500Y2040401D02*
X1034888Y2035013D01*
X1300000Y2753000D02*
Y3726200D01*
X1450000Y2513625D02*
Y3726200D01*
X172900Y2204900D02*
X1050000Y3082000D01*
X634000Y2087000D02*
X1300000Y2753000D01*
X1250000Y2853375D02*
Y3726200D01*
X1050000Y3082000D02*
Y3726200D01*
X126000Y2087000D02*
X1100000Y3061000D01*
X1400000Y2599000D02*
Y3726200D01*
X379275Y2204900D02*
X1150000Y2975625D01*
X596125Y2199500D02*
X1250000Y2853375D01*
X1100000Y3061000D02*
Y3726200D01*
X1150000Y2975625D02*
Y3726200D01*
X1200000Y2907000D02*
Y3726200D01*
X77164Y2204900D02*
X172900D01*
X1095401Y2199500D02*
X1135875D01*
X1029500Y2133599D02*
X1095401Y2199500D01*
X1029500Y2040401D02*
Y2133599D01*
X1142000Y1833000D02*
Y1927901D01*
X841401Y2199500D02*
X866000D01*
X775500Y2133599D02*
X841401Y2199500D01*
X775500Y2040401D02*
Y2133599D01*
Y2040401D02*
X888000Y1927901D01*
Y1833000D02*
Y1927901D01*
X587401Y2199500D02*
X596125D01*
X521500Y2133599D02*
X587401Y2199500D01*
X521500Y2040401D02*
Y2133599D01*
Y2040401D02*
X634000Y1927901D01*
Y1833000D02*
Y1927901D01*
X262100Y2038164D02*
Y2061425D01*
X243900Y2079625D02*
X262100Y2061425D01*
X243900Y2117150D02*
X277570Y2150820D01*
X262100Y2038164D02*
X380000Y1920264D01*
X243900Y2079625D02*
Y2117150D01*
X277570Y2150820D02*
Y2151305D01*
X331164Y2204900D01*
X379275D01*
X498900Y3181164D02*
Y3197345D01*
X790024Y3945000D02*
X833500D01*
X776886Y4044999D02*
X800734D01*
X268500Y3691401D02*
X334401Y3625500D01*
X381000Y3230000D02*
X732450Y3581450D01*
X838500Y3950000D02*
X876200D01*
X833500Y3945000D02*
X838500Y3950000D01*
X692450Y3960563D02*
X776886Y4044999D01*
X732450Y3943994D02*
X783455Y3995000D01*
X652450Y3636950D02*
Y3977131D01*
X481784Y3466284D02*
X652450Y3636950D01*
X783455Y3995000D02*
X871200D01*
X772450Y3927426D02*
X790024Y3945000D01*
X438168Y3366100D02*
X692450Y3620382D01*
Y3960563D01*
X732450Y3581450D02*
Y3943994D01*
X871200Y3995000D02*
X876200Y4000000D01*
X790024Y3488468D02*
Y3855000D01*
X772450Y3872574D02*
X790024Y3855000D01*
X498900Y3197345D02*
X790024Y3488468D01*
X772450Y3872574D02*
Y3927426D01*
X427599Y3625500D02*
X612450Y3810351D01*
X760318Y4084999D02*
X780023D01*
X652450Y3977131D02*
X760318Y4084999D01*
X398716Y3466284D02*
X481784D01*
X381000Y3484000D02*
X398716Y3466284D01*
X127000Y3484000D02*
X244900Y3366100D01*
X438168D01*
X800734Y4044999D02*
X800735Y4045000D01*
X871200D01*
X876200Y4050000D01*
X780023Y4084999D02*
X790024Y4095000D01*
X871200Y4095000D02*
X876200Y4100000D01*
X800734Y4095000D02*
X800734Y4095000D01*
X871200D01*
X790024Y4095000D02*
X800734D01*
X127000Y3738000D02*
X150250Y3714750D01*
X334401Y3625500D02*
X427599D01*
X150250Y3714750D02*
X268500D01*
Y3691401D02*
Y3714750D01*
X871200Y4245000D02*
X876200Y4250000D01*
X321576Y3837674D02*
X334401Y3850500D01*
X281326Y3837674D02*
X321576D01*
X127000Y3992000D02*
X281326Y3837674D01*
X493500Y4199401D02*
Y4290409D01*
X800734Y4345000D02*
X871200D01*
X876200Y4350000D01*
X800734Y4345000D02*
X800734Y4345000D01*
X548090Y4345000D02*
X800734D01*
X493500Y4290409D02*
X548090Y4345000D01*
X127000Y4246000D02*
X173599Y4199401D01*
X268500D01*
X334401Y4133500D02*
X427599D01*
X268500Y4199401D02*
X334401Y4133500D01*
X427599D02*
X493500Y4199401D01*
X239500Y4387500D02*
X465932D01*
X523432Y4445000D01*
X800734D01*
X800734Y4445000D01*
X871200D01*
X876200Y4450000D01*
X381000Y4246000D02*
X535000Y4400000D01*
X876200D01*
X127000Y4500000D02*
X239500Y4387500D01*
X381000Y4500000D02*
X876200D01*
X490099Y4550000D02*
X876200D01*
X427599Y4612500D02*
X490099Y4550000D01*
X419875Y4612500D02*
X427599D01*
X381000Y4754000D02*
X535000Y4600000D01*
X876200D01*
X390875Y4641500D02*
X419875Y4612500D01*
X268500Y4707401D02*
X334401Y4641500D01*
X268500Y4707401D02*
Y4746625D01*
X334401Y4641500D02*
X390875D01*
X134375Y4746625D02*
X268500D01*
X127000Y4754000D02*
X134375Y4746625D01*
X381000Y5008000D02*
X689000Y4700000D01*
X419875Y4866500D02*
X427599D01*
X636375Y4650000D02*
X876200D01*
X689000Y4700000D02*
X876200D01*
X493500Y4792875D02*
Y4800599D01*
Y4792875D02*
X636375Y4650000D01*
X427599Y4866500D02*
X493500Y4800599D01*
X871200Y4645000D02*
X876200Y4650000D01*
X127000Y5008000D02*
X134375Y5000625D01*
X268500D01*
X390875Y4895500D02*
X419875Y4866500D01*
X268500Y4961401D02*
X334401Y4895500D01*
X390875D01*
X268500Y4961401D02*
Y5000625D01*
X612450Y5006300D02*
Y5048785D01*
X758625Y4750000D02*
X876200D01*
X710193Y4855000D02*
X765194Y4800000D01*
X477951Y5183284D02*
Y5199852D01*
X693624Y4815001D02*
X758625Y4750000D01*
X572450Y4989732D02*
X707181Y4855000D01*
X726761Y4895000D02*
X766762Y4855000D01*
X381000Y5262000D02*
X408744Y5234255D01*
X690613Y4815001D02*
X693624D01*
X765194Y4800000D02*
X876200D01*
X707181Y4855000D02*
X710193D01*
X572450Y4989732D02*
Y5032217D01*
X444167Y5160500D02*
X572450Y5032217D01*
X422030Y5160500D02*
X444167D01*
X408744Y5173785D02*
X422030Y5160500D01*
X532450Y4973163D02*
Y4976175D01*
Y4973163D02*
X690613Y4815001D01*
X477951Y5183284D02*
X612450Y5048785D01*
X493500Y5015125D02*
X532450Y4976175D01*
X359125Y5149500D02*
X388125Y5120500D01*
X477951Y5199852D02*
X493500Y5215401D01*
X766762Y4855000D02*
X871200D01*
X493500Y5015125D02*
Y5054599D01*
X723750Y4895000D02*
X726761D01*
X408744Y5173785D02*
Y5234255D01*
X388125Y5120500D02*
X427599D01*
X493500Y5054599D01*
X334401Y5149500D02*
X359125D01*
X612450Y5006300D02*
X723750Y4895000D01*
X127000Y5516000D02*
X268500Y5374500D01*
X533500Y5204307D02*
X652450Y5085357D01*
X408744Y5427785D02*
Y5488255D01*
Y5427785D02*
X422030Y5414500D01*
X477951Y5437284D02*
Y5453852D01*
Y5437284D02*
X573500Y5341736D01*
X268500Y5374500D02*
X427599D01*
X493500Y5308599D01*
X573500Y5220875D02*
X692450Y5101925D01*
X613500Y5262700D02*
X732450Y5143750D01*
X533500Y5438304D02*
Y5579167D01*
X613500Y5262700D02*
Y5358304D01*
X493500Y5215401D02*
Y5308599D01*
X444167Y5414500D02*
X533500Y5325167D01*
Y5204307D02*
Y5325167D01*
X477951Y5453852D02*
X493500Y5469401D01*
X573500Y5220875D02*
Y5341736D01*
X533500Y5438304D02*
X613500Y5358304D01*
X381000Y5516000D02*
X408744Y5488255D01*
X422030Y5414500D02*
X444167D01*
X841750Y4905000D02*
X846750Y4900000D01*
X876200D01*
X790024Y4905000D02*
X841750D01*
X652450Y5022869D02*
Y5085357D01*
X773455Y4915000D02*
X780024D01*
X790024Y4905000D01*
X746886Y4935000D02*
X756887Y4925000D01*
X763455D01*
X773455Y4915000D01*
X740318Y4935000D02*
X746886D01*
X652450Y5022869D02*
X740318Y4935000D01*
X493500Y5469401D02*
Y5562599D01*
X127000Y5770000D02*
X268500Y5628500D01*
X444167Y5668500D02*
X533500Y5579167D01*
X381000Y5770000D02*
X408744Y5742255D01*
X780024Y4965000D02*
X790024Y4955000D01*
X839375D01*
X844375Y4950000D01*
X876200D01*
X408744Y5681785D02*
Y5742255D01*
X422030Y5668500D02*
X444167D01*
X756887Y4975000D02*
X763455D01*
X773455Y4965000D01*
X780024D01*
X692450Y5039437D02*
X756887Y4975000D01*
X408744Y5681785D02*
X422030Y5668500D01*
X692450Y5039437D02*
Y5101925D01*
X427599Y5628500D02*
X493500Y5562599D01*
X268500Y5628500D02*
X427599D01*
X871200Y5005000D02*
X876200Y5000000D01*
X790024Y5005000D02*
X871200D01*
X773455Y5015000D02*
X780023D01*
X732450Y5056005D02*
X773455Y5015000D01*
X732450Y5056005D02*
Y5143750D01*
X780023Y5015000D02*
X790024Y5005000D01*
X876200Y5050000D02*
Y5055000D01*
X790024D02*
X876200D01*
X305138Y5940763D02*
X334401Y5911500D01*
X210237Y5940763D02*
X305138D01*
X127000Y6024000D02*
X210237Y5940763D01*
X422625Y5911500D02*
X477034Y5857091D01*
X334401Y5911500D02*
X422625D01*
X492125Y5856306D02*
X523091Y5825341D01*
X492125Y5856306D02*
Y5856307D01*
X523875Y5824556D02*
Y5824557D01*
X523091Y5825341D02*
X523875Y5824557D01*
X772450Y5072574D02*
X790024Y5055000D01*
X546903Y5801528D02*
X555625Y5792807D01*
X523875Y5824556D02*
X546903Y5801528D01*
X772450Y5127426D02*
X790024Y5145000D01*
X491341Y5857091D02*
X492125Y5856307D01*
X477034Y5857091D02*
X491341D01*
X587375Y5572125D02*
X836200Y5323300D01*
Y5145000D02*
Y5323300D01*
X790024Y5145000D02*
X836200D01*
X587375Y5572125D02*
Y5761057D01*
X772450Y5072574D02*
Y5127426D01*
X586591Y5761841D02*
X587375Y5761057D01*
X555625Y5792806D02*
X586591Y5761841D01*
X555625Y5792806D02*
Y5792807D01*
X381000Y6024000D02*
X876200Y5528800D01*
Y5100000D02*
Y5528800D01*
X871200Y4855000D02*
X876200Y4850000D01*
X380000Y1833000D02*
Y1920264D01*
X8100Y2135835D02*
X77164Y2204900D01*
X8100Y2038164D02*
Y2135835D01*
Y2038164D02*
X126000Y1920264D01*
Y1833000D02*
Y1920264D01*
X206118Y3150882D02*
X293382D01*
X127000Y3230000D02*
X206118Y3150882D01*
D11*
X876200Y3900000D02*
D03*
Y3950000D02*
D03*
Y4000000D02*
D03*
Y4050000D02*
D03*
Y4100000D02*
D03*
Y4150000D02*
D03*
Y4200000D02*
D03*
Y4250000D02*
D03*
Y4300000D02*
D03*
Y4350000D02*
D03*
Y4400000D02*
D03*
Y4450000D02*
D03*
Y4500000D02*
D03*
Y4550000D02*
D03*
Y4600000D02*
D03*
Y4650000D02*
D03*
Y4700000D02*
D03*
Y4750000D02*
D03*
Y4800000D02*
D03*
Y4850000D02*
D03*
Y4900000D02*
D03*
Y4950000D02*
D03*
Y5000000D02*
D03*
Y5050000D02*
D03*
Y5100000D02*
D03*
X2423800D02*
D03*
Y5050000D02*
D03*
Y5000000D02*
D03*
Y4950000D02*
D03*
Y4900000D02*
D03*
Y4850000D02*
D03*
Y4800000D02*
D03*
Y4750000D02*
D03*
Y4700000D02*
D03*
Y4650000D02*
D03*
Y4600000D02*
D03*
Y4550000D02*
D03*
Y4500000D02*
D03*
Y4450000D02*
D03*
Y4400000D02*
D03*
Y4350000D02*
D03*
Y4300000D02*
D03*
Y4250000D02*
D03*
Y4200000D02*
D03*
Y4150000D02*
D03*
Y4100000D02*
D03*
Y4050000D02*
D03*
Y4000000D02*
D03*
Y3950000D02*
D03*
Y3900000D02*
D03*
D12*
X1050000Y5273800D02*
D03*
X1100000D02*
D03*
X1150000D02*
D03*
X1200000D02*
D03*
X1250000D02*
D03*
X1300000D02*
D03*
X1350000D02*
D03*
X1400000D02*
D03*
X1450000D02*
D03*
X1500000D02*
D03*
X1550000D02*
D03*
X1600000D02*
D03*
X1650000D02*
D03*
X1700000D02*
D03*
X1750000D02*
D03*
X1800000D02*
D03*
X1850000D02*
D03*
X1900000D02*
D03*
X1950000D02*
D03*
X2000000D02*
D03*
X2050000D02*
D03*
X2100000D02*
D03*
X2150000D02*
D03*
X2200000D02*
D03*
X2250000D02*
D03*
Y3726200D02*
D03*
X2200000D02*
D03*
X2150000D02*
D03*
X2100000D02*
D03*
X2050000D02*
D03*
X2000000D02*
D03*
X1950000D02*
D03*
X1900000D02*
D03*
X1850000D02*
D03*
X1800000D02*
D03*
X1750000D02*
D03*
X1700000D02*
D03*
X1650000D02*
D03*
X1600000D02*
D03*
X1550000D02*
D03*
X1500000D02*
D03*
X1450000D02*
D03*
X1400000D02*
D03*
X1350000D02*
D03*
X1300000D02*
D03*
X1250000D02*
D03*
X1200000D02*
D03*
X1150000D02*
D03*
X1100000D02*
D03*
X1050000D02*
D03*
D13*
X2126000Y1295400D02*
D03*
X1176000D02*
D03*
D14*
X889000Y3248750D02*
D03*
Y3418750D02*
D03*
X2714625Y1291500D02*
D03*
Y1121500D02*
D03*
X635000Y1243875D02*
D03*
Y1073875D02*
D03*
D15*
X569750Y4011386D02*
X758364Y4200000D01*
X569750Y3926750D02*
Y4011386D01*
X381000Y3738000D02*
X569750Y3926750D01*
X758364Y4200000D02*
X876200D01*
X2126000Y1295400D02*
X2129900Y1291500D01*
X2714625D01*
X1650000Y1771400D02*
Y1833000D01*
Y1771400D02*
X2126000Y1295400D01*
X1511200Y2134717D02*
Y2134717D01*
X1650000Y2300875D02*
Y3726200D01*
X1511200Y2016125D02*
Y2134717D01*
X1642700Y2293575D02*
X1650000Y2300875D01*
X1642700Y2273313D02*
Y2293575D01*
X1507652Y2138265D02*
X1642700Y2273313D01*
X1507652Y2138265D02*
X1511200Y2134717D01*
Y2016125D02*
X1650000Y1877325D01*
Y1833000D02*
Y1877325D01*
D16*
X381000Y2976000D02*
D03*
X127000D02*
D03*
X381000Y3230000D02*
D03*
X127000D02*
D03*
X381000Y3484000D02*
D03*
X127000D02*
D03*
X381000Y3738000D02*
D03*
X127000D02*
D03*
X381000Y3992000D02*
D03*
X127000D02*
D03*
X381000Y4246000D02*
D03*
X127000D02*
D03*
X381000Y4500000D02*
D03*
X127000D02*
D03*
X381000Y4754000D02*
D03*
X127000D02*
D03*
X381000Y5008000D02*
D03*
X127000D02*
D03*
X381000Y5262000D02*
D03*
X127000D02*
D03*
X381000Y5516000D02*
D03*
X127000D02*
D03*
X381000Y5770000D02*
D03*
X127000D02*
D03*
X381000Y6024000D02*
D03*
X126000Y2087000D02*
D03*
X380000Y1833000D02*
D03*
Y2087000D02*
D03*
X634000Y1833000D02*
D03*
Y2087000D02*
D03*
X888000Y1833000D02*
D03*
Y2087000D02*
D03*
X1142000Y1833000D02*
D03*
Y2087000D02*
D03*
X1396000Y1833000D02*
D03*
Y2087000D02*
D03*
X1650000Y1833000D02*
D03*
Y2087000D02*
D03*
X1904000Y1833000D02*
D03*
Y2087000D02*
D03*
X2158000Y1833000D02*
D03*
Y2087000D02*
D03*
X2412000Y1833000D02*
D03*
Y2087000D02*
D03*
X2666000Y1833000D02*
D03*
Y2087000D02*
D03*
X2920000Y1833000D02*
D03*
Y2087000D02*
D03*
X3174000Y1833000D02*
D03*
Y2087000D02*
D03*
Y6913000D02*
D03*
X2920000Y7167000D02*
D03*
Y6913000D02*
D03*
X2666000Y7167000D02*
D03*
Y6913000D02*
D03*
X2412000Y7167000D02*
D03*
Y6913000D02*
D03*
X2158000Y7167000D02*
D03*
Y6913000D02*
D03*
X1904000Y7167000D02*
D03*
Y6913000D02*
D03*
X1650000Y7167000D02*
D03*
Y6913000D02*
D03*
X1396000Y7167000D02*
D03*
Y6913000D02*
D03*
X1142000Y7167000D02*
D03*
Y6913000D02*
D03*
X888000Y7167000D02*
D03*
Y6913000D02*
D03*
X634000Y7167000D02*
D03*
Y6913000D02*
D03*
X380000Y7167000D02*
D03*
Y6913000D02*
D03*
X126000Y7167000D02*
D03*
Y6913000D02*
D03*
X2919000Y2976000D02*
D03*
X3173000Y3230000D02*
D03*
X2919000D02*
D03*
X3173000Y3484000D02*
D03*
X2919000D02*
D03*
X3173000Y3738000D02*
D03*
X2919000D02*
D03*
X3173000Y3992000D02*
D03*
X2919000D02*
D03*
X3173000Y4246000D02*
D03*
X2919000D02*
D03*
X3173000Y4500000D02*
D03*
X2919000D02*
D03*
X3173000Y4754000D02*
D03*
X2919000D02*
D03*
X3173000Y5008000D02*
D03*
X2919000D02*
D03*
X3173000Y5262000D02*
D03*
X2919000D02*
D03*
X3173000Y5516000D02*
D03*
X2919000D02*
D03*
X3173000Y5770000D02*
D03*
X2919000D02*
D03*
X3173000Y6024000D02*
D03*
X2919000D02*
D03*
D17*
X127000D02*
D03*
X3173000Y2976000D02*
D03*
D18*
X126000Y1833000D02*
D03*
X3174000Y7167000D02*
D03*
D19*
X269875Y7429500D02*
D03*
X1031875D02*
D03*
X523875D02*
D03*
X777875D02*
D03*
X1285875D02*
D03*
X2047875D02*
D03*
X1793875D02*
D03*
X1539875D02*
D03*
X3063875D02*
D03*
X2809875D02*
D03*
X2301875D02*
D03*
X2555875D02*
D03*
X2301875Y7937500D02*
D03*
Y7683500D02*
D03*
X2555875D02*
D03*
Y7937500D02*
D03*
X3063875D02*
D03*
Y7683500D02*
D03*
X2809875D02*
D03*
Y7937500D02*
D03*
X1285875D02*
D03*
Y7683500D02*
D03*
X1539875D02*
D03*
Y7937500D02*
D03*
X2047875D02*
D03*
Y7683500D02*
D03*
X1793875D02*
D03*
Y7937500D02*
D03*
X777875D02*
D03*
Y7683500D02*
D03*
X1031875D02*
D03*
Y7937500D02*
D03*
X523875D02*
D03*
Y7683500D02*
D03*
X269875D02*
D03*
Y7937500D02*
D03*
D20*
X508000Y8238000D02*
D03*
Y508000D02*
D03*
D21*
Y8492000D02*
D03*
X762000Y8238000D02*
D03*
Y8492000D02*
D03*
X1016000Y8238000D02*
D03*
Y8492000D02*
D03*
X1270000Y8238000D02*
D03*
Y8492000D02*
D03*
X1524000Y8238000D02*
D03*
Y8492000D02*
D03*
X1778000Y8238000D02*
D03*
Y8492000D02*
D03*
X2032000Y8238000D02*
D03*
Y8492000D02*
D03*
X2286000Y8238000D02*
D03*
Y8492000D02*
D03*
X2540000Y8238000D02*
D03*
Y8492000D02*
D03*
X2794000Y8238000D02*
D03*
Y8492000D02*
D03*
X508000Y762000D02*
D03*
X762000Y508000D02*
D03*
Y762000D02*
D03*
X1016000Y508000D02*
D03*
Y762000D02*
D03*
X1270000Y508000D02*
D03*
Y762000D02*
D03*
X1524000Y508000D02*
D03*
Y762000D02*
D03*
X1778000Y508000D02*
D03*
Y762000D02*
D03*
X2032000Y508000D02*
D03*
Y762000D02*
D03*
X2286000Y508000D02*
D03*
Y762000D02*
D03*
X2540000Y508000D02*
D03*
Y762000D02*
D03*
X2794000Y508000D02*
D03*
Y762000D02*
D03*
%TF.MD5,e779a0accda0f0467d53c6b179cfc5f9*%
M02*
