%TF.GenerationSoftware,Altium Limited,Altium Designer,23.4.1 (23)*%
G04 Layer_Color=128*
%FSLAX45Y45*%
%MOMM*%
%TF.SameCoordinates,7ABC1050-9991-4EB7-8225-191FA7049C92*%
%TF.FilePolarity,Positive*%
%TF.FileFunction,Drillmap*%
%TF.Part,Single*%
G01*
G75*
%TA.AperFunction,NonConductor*%
%ADD25C,0.12700*%
D25*
X71000Y1833000D02*
X181000D01*
X126000Y1778000D02*
Y1888000D01*
X71000Y2087000D02*
X181000D01*
X126000Y2032000D02*
Y2142000D01*
X325000Y1833000D02*
X435000D01*
X380000Y1778000D02*
Y1888000D01*
X325000Y2087000D02*
X435000D01*
X380000Y2032000D02*
Y2142000D01*
X579000Y1833000D02*
X689000D01*
X634000Y1778000D02*
Y1888000D01*
X579000Y2087000D02*
X689000D01*
X634000Y2032000D02*
Y2142000D01*
X833000Y1833000D02*
X943000D01*
X888000Y1778000D02*
Y1888000D01*
X833000Y2087000D02*
X943000D01*
X888000Y2032000D02*
Y2142000D01*
X1087000Y1833000D02*
X1197000D01*
X1142000Y1778000D02*
Y1888000D01*
X1087000Y2087000D02*
X1197000D01*
X1142000Y2032000D02*
Y2142000D01*
X1341000Y1833000D02*
X1451000D01*
X1396000Y1778000D02*
Y1888000D01*
X1341000Y2087000D02*
X1451000D01*
X1396000Y2032000D02*
Y2142000D01*
X1595000Y1833000D02*
X1705000D01*
X1650000Y1778000D02*
Y1888000D01*
X1595000Y2087000D02*
X1705000D01*
X1650000Y2032000D02*
Y2142000D01*
X1849000Y1833000D02*
X1959000D01*
X1904000Y1778000D02*
Y1888000D01*
X1849000Y2087000D02*
X1959000D01*
X1904000Y2032000D02*
Y2142000D01*
X2103000Y1833000D02*
X2213000D01*
X2158000Y1778000D02*
Y1888000D01*
X2103000Y2087000D02*
X2213000D01*
X2158000Y2032000D02*
Y2142000D01*
X2357000Y1833000D02*
X2467000D01*
X2412000Y1778000D02*
Y1888000D01*
X2357000Y2087000D02*
X2467000D01*
X2412000Y2032000D02*
Y2142000D01*
X2611000Y1833000D02*
X2721000D01*
X2666000Y1778000D02*
Y1888000D01*
X2611000Y2087000D02*
X2721000D01*
X2666000Y2032000D02*
Y2142000D01*
X2865000Y1833000D02*
X2975000D01*
X2920000Y1778000D02*
Y1888000D01*
X2865000Y2087000D02*
X2975000D01*
X2920000Y2032000D02*
Y2142000D01*
X3119000Y1833000D02*
X3229000D01*
X3174000Y1778000D02*
Y1888000D01*
X3119000Y2087000D02*
X3229000D01*
X3174000Y2032000D02*
Y2142000D01*
X72000Y6913000D02*
X182000D01*
X127000Y6858000D02*
Y6968000D01*
X72000Y7167000D02*
X182000D01*
X127000Y7112000D02*
Y7222000D01*
X326000Y6913000D02*
X436000D01*
X381000Y6858000D02*
Y6968000D01*
X326000Y7167000D02*
X436000D01*
X381000Y7112000D02*
Y7222000D01*
X580000Y6913000D02*
X690000D01*
X635000Y6858000D02*
Y6968000D01*
X580000Y7167000D02*
X690000D01*
X635000Y7112000D02*
Y7222000D01*
X834000Y6913000D02*
X944000D01*
X889000Y6858000D02*
Y6968000D01*
X834000Y7167000D02*
X944000D01*
X889000Y7112000D02*
Y7222000D01*
X1088000Y6913000D02*
X1198000D01*
X1143000Y6858000D02*
Y6968000D01*
X1088000Y7167000D02*
X1198000D01*
X1143000Y7112000D02*
Y7222000D01*
X1342000Y6913000D02*
X1452000D01*
X1397000Y6858000D02*
Y6968000D01*
X1342000Y7167000D02*
X1452000D01*
X1397000Y7112000D02*
Y7222000D01*
X1596000Y6913000D02*
X1706000D01*
X1651000Y6858000D02*
Y6968000D01*
X1596000Y7167000D02*
X1706000D01*
X1651000Y7112000D02*
Y7222000D01*
X1850000Y6913000D02*
X1960000D01*
X1905000Y6858000D02*
Y6968000D01*
X1850000Y7167000D02*
X1960000D01*
X1905000Y7112000D02*
Y7222000D01*
X2104000Y6913000D02*
X2214000D01*
X2159000Y6858000D02*
Y6968000D01*
X2104000Y7167000D02*
X2214000D01*
X2159000Y7112000D02*
Y7222000D01*
X2358000Y6913000D02*
X2468000D01*
X2413000Y6858000D02*
Y6968000D01*
X2358000Y7167000D02*
X2468000D01*
X2413000Y7112000D02*
Y7222000D01*
X2612000Y6913000D02*
X2722000D01*
X2667000Y6858000D02*
Y6968000D01*
X2612000Y7167000D02*
X2722000D01*
X2667000Y7112000D02*
Y7222000D01*
X2866000Y6913000D02*
X2976000D01*
X2921000Y6858000D02*
Y6968000D01*
X2866000Y7167000D02*
X2976000D01*
X2921000Y7112000D02*
Y7222000D01*
X3120000Y6913000D02*
X3230000D01*
X3175000Y6858000D02*
Y6968000D01*
X3120000Y7167000D02*
X3230000D01*
X3175000Y7112000D02*
Y7222000D01*
X3118000Y2976000D02*
X3228000D01*
X3173000Y2921000D02*
Y3031000D01*
X2864000Y2976000D02*
X2974000D01*
X2919000Y2921000D02*
Y3031000D01*
X3118000Y3230000D02*
X3228000D01*
X3173000Y3175000D02*
Y3285000D01*
X2864000Y3230000D02*
X2974000D01*
X2919000Y3175000D02*
Y3285000D01*
X3118000Y3484000D02*
X3228000D01*
X3173000Y3429000D02*
Y3539000D01*
X2864000Y3484000D02*
X2974000D01*
X2919000Y3429000D02*
Y3539000D01*
X3118000Y3738000D02*
X3228000D01*
X3173000Y3683000D02*
Y3793000D01*
X2864000Y3738000D02*
X2974000D01*
X2919000Y3683000D02*
Y3793000D01*
X3118000Y3992000D02*
X3228000D01*
X3173000Y3937000D02*
Y4047000D01*
X2864000Y3992000D02*
X2974000D01*
X2919000Y3937000D02*
Y4047000D01*
X3118000Y4246000D02*
X3228000D01*
X3173000Y4191000D02*
Y4301000D01*
X2864000Y4246000D02*
X2974000D01*
X2919000Y4191000D02*
Y4301000D01*
X3118000Y4500000D02*
X3228000D01*
X3173000Y4445000D02*
Y4555000D01*
X2864000Y4500000D02*
X2974000D01*
X2919000Y4445000D02*
Y4555000D01*
X3118000Y4754000D02*
X3228000D01*
X3173000Y4699000D02*
Y4809000D01*
X2864000Y4754000D02*
X2974000D01*
X2919000Y4699000D02*
Y4809000D01*
X3118000Y5008000D02*
X3228000D01*
X3173000Y4953000D02*
Y5063000D01*
X2864000Y5008000D02*
X2974000D01*
X2919000Y4953000D02*
Y5063000D01*
X3118000Y5262000D02*
X3228000D01*
X3173000Y5207000D02*
Y5317000D01*
X2864000Y5262000D02*
X2974000D01*
X2919000Y5207000D02*
Y5317000D01*
X3118000Y5516000D02*
X3228000D01*
X3173000Y5461000D02*
Y5571000D01*
X2864000Y5516000D02*
X2974000D01*
X2919000Y5461000D02*
Y5571000D01*
X3118000Y5770000D02*
X3228000D01*
X3173000Y5715000D02*
Y5825000D01*
X2864000Y5770000D02*
X2974000D01*
X2919000Y5715000D02*
Y5825000D01*
X3118000Y6024000D02*
X3228000D01*
X3173000Y5969000D02*
Y6079000D01*
X2864000Y6024000D02*
X2974000D01*
X2919000Y5969000D02*
Y6079000D01*
X72000Y6024000D02*
X182000D01*
X127000Y5969000D02*
Y6079000D01*
X326000Y6024000D02*
X436000D01*
X381000Y5969000D02*
Y6079000D01*
X72000Y5770000D02*
X182000D01*
X127000Y5715000D02*
Y5825000D01*
X326000Y5770000D02*
X436000D01*
X381000Y5715000D02*
Y5825000D01*
X72000Y5516000D02*
X182000D01*
X127000Y5461000D02*
Y5571000D01*
X326000Y5516000D02*
X436000D01*
X381000Y5461000D02*
Y5571000D01*
X72000Y5262000D02*
X182000D01*
X127000Y5207000D02*
Y5317000D01*
X326000Y5262000D02*
X436000D01*
X381000Y5207000D02*
Y5317000D01*
X72000Y5008000D02*
X182000D01*
X127000Y4953000D02*
Y5063000D01*
X326000Y5008000D02*
X436000D01*
X381000Y4953000D02*
Y5063000D01*
X72000Y4754000D02*
X182000D01*
X127000Y4699000D02*
Y4809000D01*
X326000Y4754000D02*
X436000D01*
X381000Y4699000D02*
Y4809000D01*
X72000Y4500000D02*
X182000D01*
X127000Y4445000D02*
Y4555000D01*
X326000Y4500000D02*
X436000D01*
X381000Y4445000D02*
Y4555000D01*
X72000Y4246000D02*
X182000D01*
X127000Y4191000D02*
Y4301000D01*
X326000Y4246000D02*
X436000D01*
X381000Y4191000D02*
Y4301000D01*
X72000Y3992000D02*
X182000D01*
X127000Y3937000D02*
Y4047000D01*
X326000Y3992000D02*
X436000D01*
X381000Y3937000D02*
Y4047000D01*
X72000Y3738000D02*
X182000D01*
X127000Y3683000D02*
Y3793000D01*
X326000Y3738000D02*
X436000D01*
X381000Y3683000D02*
Y3793000D01*
X72000Y3484000D02*
X182000D01*
X127000Y3429000D02*
Y3539000D01*
X326000Y3484000D02*
X436000D01*
X381000Y3429000D02*
Y3539000D01*
X72000Y3230000D02*
X182000D01*
X127000Y3175000D02*
Y3285000D01*
X326000Y3230000D02*
X436000D01*
X381000Y3175000D02*
Y3285000D01*
X72000Y2976000D02*
X182000D01*
X127000Y2921000D02*
Y3031000D01*
X326000Y2976000D02*
X436000D01*
X381000Y2921000D02*
Y3031000D01*
X456000Y508000D02*
X560000D01*
X508000Y456000D02*
Y560000D01*
X456000Y762000D02*
X560000D01*
X508000Y710000D02*
Y814000D01*
X710000Y508000D02*
X814000D01*
X762000Y456000D02*
Y560000D01*
X710000Y762000D02*
X814000D01*
X762000Y710000D02*
Y814000D01*
X964000Y508000D02*
X1068000D01*
X1016000Y456000D02*
Y560000D01*
X964000Y762000D02*
X1068000D01*
X1016000Y710000D02*
Y814000D01*
X1218000Y508000D02*
X1322000D01*
X1270000Y456000D02*
Y560000D01*
X1218000Y762000D02*
X1322000D01*
X1270000Y710000D02*
Y814000D01*
X1472000Y508000D02*
X1576000D01*
X1524000Y456000D02*
Y560000D01*
X1472000Y762000D02*
X1576000D01*
X1524000Y710000D02*
Y814000D01*
X1726000Y508000D02*
X1830000D01*
X1778000Y456000D02*
Y560000D01*
X1726000Y762000D02*
X1830000D01*
X1778000Y710000D02*
Y814000D01*
X1980000Y508000D02*
X2084000D01*
X2032000Y456000D02*
Y560000D01*
X1980000Y762000D02*
X2084000D01*
X2032000Y710000D02*
Y814000D01*
X2234000Y508000D02*
X2338000D01*
X2286000Y456000D02*
Y560000D01*
X2234000Y762000D02*
X2338000D01*
X2286000Y710000D02*
Y814000D01*
X2488000Y508000D02*
X2592000D01*
X2540000Y456000D02*
Y560000D01*
X2488000Y762000D02*
X2592000D01*
X2540000Y710000D02*
Y814000D01*
X2742000Y508000D02*
X2846000D01*
X2794000Y456000D02*
Y560000D01*
X2742000Y762000D02*
X2846000D01*
X2794000Y710000D02*
Y814000D01*
X241300Y7429500D02*
X317500D01*
X279400Y7391400D02*
Y7467600D01*
X1003300Y7429500D02*
X1079500D01*
X1041400Y7391400D02*
Y7467600D01*
X495300Y7429500D02*
X571500D01*
X533400Y7391400D02*
Y7467600D01*
X749300Y7429500D02*
X825500D01*
X787400Y7391400D02*
Y7467600D01*
X1257300Y7429500D02*
X1333500D01*
X1295400Y7391400D02*
Y7467600D01*
X2019300Y7429500D02*
X2095500D01*
X2057400Y7391400D02*
Y7467600D01*
X1765300Y7429500D02*
X1841500D01*
X1803400Y7391400D02*
Y7467600D01*
X1511300Y7429500D02*
X1587500D01*
X1549400Y7391400D02*
Y7467600D01*
X3035300Y7429500D02*
X3111500D01*
X3073400Y7391400D02*
Y7467600D01*
X2781300Y7429500D02*
X2857500D01*
X2819400Y7391400D02*
Y7467600D01*
X2273300Y7429500D02*
X2349500D01*
X2311400Y7391400D02*
Y7467600D01*
X2527300Y7429500D02*
X2603500D01*
X2565400Y7391400D02*
Y7467600D01*
X2273300Y7937500D02*
X2349500D01*
X2311400Y7899400D02*
Y7975600D01*
X2273300Y7683500D02*
X2349500D01*
X2311400Y7645400D02*
Y7721600D01*
X2527300Y7683500D02*
X2603500D01*
X2565400Y7645400D02*
Y7721600D01*
X2527300Y7937500D02*
X2603500D01*
X2565400Y7899400D02*
Y7975600D01*
X3035300Y7937500D02*
X3111500D01*
X3073400Y7899400D02*
Y7975600D01*
X3035300Y7683500D02*
X3111500D01*
X3073400Y7645400D02*
Y7721600D01*
X2781300Y7683500D02*
X2857500D01*
X2819400Y7645400D02*
Y7721600D01*
X2781300Y7937500D02*
X2857500D01*
X2819400Y7899400D02*
Y7975600D01*
X1257300Y7937500D02*
X1333500D01*
X1295400Y7899400D02*
Y7975600D01*
X1257300Y7683500D02*
X1333500D01*
X1295400Y7645400D02*
Y7721600D01*
X1511300Y7683500D02*
X1587500D01*
X1549400Y7645400D02*
Y7721600D01*
X1511300Y7937500D02*
X1587500D01*
X1549400Y7899400D02*
Y7975600D01*
X2019300Y7937500D02*
X2095500D01*
X2057400Y7899400D02*
Y7975600D01*
X2019300Y7683500D02*
X2095500D01*
X2057400Y7645400D02*
Y7721600D01*
X1765300Y7683500D02*
X1841500D01*
X1803400Y7645400D02*
Y7721600D01*
X1765300Y7937500D02*
X1841500D01*
X1803400Y7899400D02*
Y7975600D01*
X749300Y7937500D02*
X825500D01*
X787400Y7899400D02*
Y7975600D01*
X749300Y7683500D02*
X825500D01*
X787400Y7645400D02*
Y7721600D01*
X1003300Y7683500D02*
X1079500D01*
X1041400Y7645400D02*
Y7721600D01*
X1003300Y7937500D02*
X1079500D01*
X1041400Y7899400D02*
Y7975600D01*
X495300Y7937500D02*
X571500D01*
X533400Y7899400D02*
Y7975600D01*
X495300Y7683500D02*
X571500D01*
X533400Y7645400D02*
Y7721600D01*
X241300Y7683500D02*
X317500D01*
X279400Y7645400D02*
Y7721600D01*
X241300Y7937500D02*
X317500D01*
X279400Y7899400D02*
Y7975600D01*
X456000Y8238000D02*
X560000D01*
X508000Y8186000D02*
Y8290000D01*
X456000Y8492000D02*
X560000D01*
X508000Y8440000D02*
Y8544000D01*
X710000Y8238000D02*
X814000D01*
X762000Y8186000D02*
Y8290000D01*
X710000Y8492000D02*
X814000D01*
X762000Y8440000D02*
Y8544000D01*
X964000Y8238000D02*
X1068000D01*
X1016000Y8186000D02*
Y8290000D01*
X964000Y8492000D02*
X1068000D01*
X1016000Y8440000D02*
Y8544000D01*
X1218000Y8238000D02*
X1322000D01*
X1270000Y8186000D02*
Y8290000D01*
X1218000Y8492000D02*
X1322000D01*
X1270000Y8440000D02*
Y8544000D01*
X1472000Y8238000D02*
X1576000D01*
X1524000Y8186000D02*
Y8290000D01*
X1472000Y8492000D02*
X1576000D01*
X1524000Y8440000D02*
Y8544000D01*
X1726000Y8238000D02*
X1830000D01*
X1778000Y8186000D02*
Y8290000D01*
X1726000Y8492000D02*
X1830000D01*
X1778000Y8440000D02*
Y8544000D01*
X1980000Y8238000D02*
X2084000D01*
X2032000Y8186000D02*
Y8290000D01*
X1980000Y8492000D02*
X2084000D01*
X2032000Y8440000D02*
Y8544000D01*
X2234000Y8238000D02*
X2338000D01*
X2286000Y8186000D02*
Y8290000D01*
X2234000Y8492000D02*
X2338000D01*
X2286000Y8440000D02*
Y8544000D01*
X2488000Y8238000D02*
X2592000D01*
X2540000Y8186000D02*
Y8290000D01*
X2488000Y8492000D02*
X2592000D01*
X2540000Y8440000D02*
Y8544000D01*
X2742000Y8238000D02*
X2846000D01*
X2794000Y8186000D02*
Y8290000D01*
X2742000Y8492000D02*
X2846000D01*
X2794000Y8440000D02*
Y8544000D01*
X2217900Y4254500D02*
X2277900D01*
X2247900Y4224500D02*
Y4284500D01*
X2459200Y5232400D02*
X2519200D01*
X2489200Y5202400D02*
Y5262400D01*
%TF.MD5,aa501efef0c27f4006cb5af050ceb309*%
M02*
