%TF.GenerationSoftware,Altium Limited,Altium Designer,23.4.1 (23)*%
G04 Layer_Color=32768*
%FSLAX45Y45*%
%MOMM*%
%TF.SameCoordinates,7ABC1050-9991-4EB7-8225-191FA7049C92*%
%TF.FilePolarity,Positive*%
%TF.FileFunction,Other,Mechanical_15*%
%TF.Part,Single*%
G01*
G75*
%TA.AperFunction,NonConductor*%
%ADD39C,0.10000*%
%ADD40C,0.05080*%
%ADD41C,0.05000*%
D39*
X950000Y3800000D02*
Y5200000D01*
X2350000D01*
Y3800000D02*
Y5200000D01*
X950000Y3800000D02*
X2350000D01*
X950000Y3850000D02*
X1000000Y3800000D01*
D40*
X954600Y3223600D02*
Y3558200D01*
X798000Y3223600D02*
X954600D01*
X798000D02*
Y3558200D01*
X954600D01*
X658300Y1090000D02*
X814900D01*
Y1424600D01*
X658300D02*
X814900D01*
X658300Y1090000D02*
Y1424600D01*
X2512500Y1064600D02*
X2669100D01*
Y1399200D01*
X2512500D02*
X2669100D01*
X2512500Y1064600D02*
Y1399200D01*
D41*
X-26000Y1693500D02*
Y2226500D01*
X3326000D01*
Y1693500D02*
Y2226500D01*
X-26000Y1693500D02*
X3326000D01*
X-25000Y7306500D02*
X3327000D01*
X-25000Y6773500D02*
Y7306500D01*
Y6773500D02*
X3327000D01*
Y7306500D01*
X2779500Y2824000D02*
X3312500D01*
X2779500D02*
Y6176000D01*
X3312500D01*
Y2824000D02*
Y6176000D01*
X-12500D02*
X520500D01*
Y2824000D02*
Y6176000D01*
X-12500Y2824000D02*
X520500D01*
X-12500D02*
Y6176000D01*
X2971500Y362350D02*
Y907650D01*
X330500D02*
X2971500D01*
X330500Y362350D02*
Y907650D01*
Y362350D02*
X2971500D01*
X883700Y1618900D02*
X2443700D01*
Y1098900D02*
Y1618900D01*
X883700Y1098900D02*
X2443700D01*
X883700D02*
Y1618900D01*
X2971500Y8092350D02*
Y8637650D01*
X330500D02*
X2971500D01*
X330500Y8092350D02*
Y8637650D01*
Y8092350D02*
X2971500D01*
%TF.MD5,956b56d406641b3bb4611a750a8de9c4*%
M02*
