%TF.GenerationSoftware,Altium Limited,Altium Designer,23.4.1 (23)*%
G04 Layer_Color=16711935*
%FSLAX45Y45*%
%MOMM*%
%TF.SameCoordinates,7ABC1050-9991-4EB7-8225-191FA7049C92*%
%TF.FilePolarity,Negative*%
%TF.FileFunction,Soldermask,Bot*%
%TF.Part,Single*%
G01*
G75*
%TA.AperFunction,ComponentPad*%
%ADD31R,1.85320X1.85320*%
%ADD32C,1.85320*%
%ADD33R,1.85320X1.85320*%
%ADD34R,1.59320X1.59320*%
%ADD35C,1.59320*%
%TA.AperFunction,ViaPad*%
%ADD36R,2.20320X2.20320*%
%TA.AperFunction,TestPad*%
%ADD37C,1.12700*%
D31*
X126000Y1833000D02*
D03*
X3175000Y7167000D02*
D03*
D32*
X126000Y2087000D02*
D03*
X380000Y1833000D02*
D03*
Y2087000D02*
D03*
X634000Y1833000D02*
D03*
Y2087000D02*
D03*
X888000Y1833000D02*
D03*
Y2087000D02*
D03*
X1142000Y1833000D02*
D03*
Y2087000D02*
D03*
X1396000Y1833000D02*
D03*
Y2087000D02*
D03*
X1650000Y1833000D02*
D03*
Y2087000D02*
D03*
X1904000Y1833000D02*
D03*
Y2087000D02*
D03*
X2158000Y1833000D02*
D03*
Y2087000D02*
D03*
X2412000Y1833000D02*
D03*
Y2087000D02*
D03*
X2666000Y1833000D02*
D03*
Y2087000D02*
D03*
X2920000Y1833000D02*
D03*
Y2087000D02*
D03*
X3174000Y1833000D02*
D03*
Y2087000D02*
D03*
X127000Y6913000D02*
D03*
Y7167000D02*
D03*
X381000Y6913000D02*
D03*
Y7167000D02*
D03*
X635000Y6913000D02*
D03*
Y7167000D02*
D03*
X889000Y6913000D02*
D03*
Y7167000D02*
D03*
X1143000Y6913000D02*
D03*
Y7167000D02*
D03*
X1397000Y6913000D02*
D03*
Y7167000D02*
D03*
X1651000Y6913000D02*
D03*
Y7167000D02*
D03*
X1905000Y6913000D02*
D03*
Y7167000D02*
D03*
X2159000Y6913000D02*
D03*
Y7167000D02*
D03*
X2413000Y6913000D02*
D03*
Y7167000D02*
D03*
X2667000Y6913000D02*
D03*
Y7167000D02*
D03*
X2921000Y6913000D02*
D03*
Y7167000D02*
D03*
X3175000Y6913000D02*
D03*
X2919000Y2976000D02*
D03*
X3173000Y3230000D02*
D03*
X2919000D02*
D03*
X3173000Y3484000D02*
D03*
X2919000D02*
D03*
X3173000Y3738000D02*
D03*
X2919000D02*
D03*
X3173000Y3992000D02*
D03*
X2919000D02*
D03*
X3173000Y4246000D02*
D03*
X2919000D02*
D03*
X3173000Y4500000D02*
D03*
X2919000D02*
D03*
X3173000Y4754000D02*
D03*
X2919000D02*
D03*
X3173000Y5008000D02*
D03*
X2919000D02*
D03*
X3173000Y5262000D02*
D03*
X2919000D02*
D03*
X3173000Y5516000D02*
D03*
X2919000D02*
D03*
X3173000Y5770000D02*
D03*
X2919000D02*
D03*
X3173000Y6024000D02*
D03*
X2919000D02*
D03*
X381000D02*
D03*
X127000Y5770000D02*
D03*
X381000D02*
D03*
X127000Y5516000D02*
D03*
X381000D02*
D03*
X127000Y5262000D02*
D03*
X381000D02*
D03*
X127000Y5008000D02*
D03*
X381000D02*
D03*
X127000Y4754000D02*
D03*
X381000D02*
D03*
X127000Y4500000D02*
D03*
X381000D02*
D03*
X127000Y4246000D02*
D03*
X381000D02*
D03*
X127000Y3992000D02*
D03*
X381000D02*
D03*
X127000Y3738000D02*
D03*
X381000D02*
D03*
X127000Y3484000D02*
D03*
X381000D02*
D03*
X127000Y3230000D02*
D03*
X381000D02*
D03*
X127000Y2976000D02*
D03*
X381000D02*
D03*
D33*
X3173000D02*
D03*
X127000Y6024000D02*
D03*
D34*
X508000Y508000D02*
D03*
Y8238000D02*
D03*
D35*
Y762000D02*
D03*
X762000Y508000D02*
D03*
Y762000D02*
D03*
X1016000Y508000D02*
D03*
Y762000D02*
D03*
X1270000Y508000D02*
D03*
Y762000D02*
D03*
X1524000Y508000D02*
D03*
Y762000D02*
D03*
X1778000Y508000D02*
D03*
Y762000D02*
D03*
X2032000Y508000D02*
D03*
Y762000D02*
D03*
X2286000Y508000D02*
D03*
Y762000D02*
D03*
X2540000Y508000D02*
D03*
Y762000D02*
D03*
X2794000Y508000D02*
D03*
Y762000D02*
D03*
X508000Y8492000D02*
D03*
X762000Y8238000D02*
D03*
Y8492000D02*
D03*
X1016000Y8238000D02*
D03*
Y8492000D02*
D03*
X1270000Y8238000D02*
D03*
Y8492000D02*
D03*
X1524000Y8238000D02*
D03*
Y8492000D02*
D03*
X1778000Y8238000D02*
D03*
Y8492000D02*
D03*
X2032000Y8238000D02*
D03*
Y8492000D02*
D03*
X2286000Y8238000D02*
D03*
Y8492000D02*
D03*
X2540000Y8238000D02*
D03*
Y8492000D02*
D03*
X2794000Y8238000D02*
D03*
Y8492000D02*
D03*
D36*
X279400Y7429500D02*
D03*
X1041400D02*
D03*
X533400D02*
D03*
X787400D02*
D03*
X1295400D02*
D03*
X2057400D02*
D03*
X1803400D02*
D03*
X1549400D02*
D03*
X3073400D02*
D03*
X2819400D02*
D03*
X2311400D02*
D03*
X2565400D02*
D03*
X2311400Y7937500D02*
D03*
Y7683500D02*
D03*
X2565400D02*
D03*
Y7937500D02*
D03*
X3073400D02*
D03*
Y7683500D02*
D03*
X2819400D02*
D03*
Y7937500D02*
D03*
X1295400D02*
D03*
Y7683500D02*
D03*
X1549400D02*
D03*
Y7937500D02*
D03*
X2057400D02*
D03*
Y7683500D02*
D03*
X1803400D02*
D03*
Y7937500D02*
D03*
X787400D02*
D03*
Y7683500D02*
D03*
X1041400D02*
D03*
Y7937500D02*
D03*
X533400D02*
D03*
Y7683500D02*
D03*
X279400D02*
D03*
Y7937500D02*
D03*
D37*
X2247900Y4254500D02*
D03*
X2489200Y5232400D02*
D03*
%TF.MD5,1cb90cd0c33ba6479c62920b04ca223f*%
M02*
