%TF.GenerationSoftware,Altium Limited,Altium Designer,23.4.1 (23)*%
G04 Layer_Physical_Order=1*
G04 Layer_Color=255*
%FSLAX45Y45*%
%MOMM*%
%TF.SameCoordinates,7ABC1050-9991-4EB7-8225-191FA7049C92*%
%TF.FilePolarity,Positive*%
%TF.FileFunction,Copper,L1,Top,Signal*%
%TF.Part,Single*%
G01*
G75*
%TA.AperFunction,Conductor*%
%ADD10C,0.20000*%
%TA.AperFunction,SMDPad,CuDef*%
%ADD11R,1.00000X1.10000*%
%ADD12R,0.30000X1.47500*%
%ADD13R,1.47500X0.30000*%
%ADD14R,5.60000X2.10000*%
%TA.AperFunction,Conductor*%
%ADD15C,0.25400*%
%TA.AperFunction,ComponentPad*%
%ADD16R,1.65000X1.65000*%
%ADD17C,1.65000*%
%ADD18R,1.65000X1.65000*%
%ADD19R,1.39000X1.39000*%
%ADD20C,1.39000*%
%TA.AperFunction,ViaPad*%
%ADD21R,2.00000X2.00000*%
%TA.AperFunction,TestPad*%
%ADD22C,1.00000*%
G36*
X26453Y6871352D02*
X40659Y6846748D01*
X60748Y6826658D01*
X85352Y6812453D01*
X112795Y6805100D01*
X141205D01*
X168648Y6812453D01*
X193252Y6826658D01*
X213341Y6846748D01*
X214739Y6849169D01*
X227007Y6845882D01*
Y6390064D01*
X229754Y6376252D01*
X237578Y6364543D01*
X1018007Y5584114D01*
Y5372950D01*
X1009600D01*
Y5174650D01*
X1028350D01*
X1028578Y5174308D01*
X1040288Y5166484D01*
X1054100Y5163737D01*
X1067912Y5166484D01*
X1079622Y5174308D01*
X1079850Y5174650D01*
X1090405D01*
Y5273800D01*
X1109595D01*
Y5174650D01*
X2290400D01*
Y5372950D01*
X2283993D01*
Y5448117D01*
X2809074Y5973197D01*
X2824945Y5971108D01*
X2832659Y5957748D01*
X2852748Y5937658D01*
X2858133Y5934549D01*
X2856352Y5921246D01*
X2844643Y5913422D01*
X2552578Y5621357D01*
X2544754Y5609648D01*
X2542007Y5595835D01*
Y5303525D01*
X2529307Y5296309D01*
X2518303Y5302662D01*
X2499127Y5307800D01*
X2479273D01*
X2460097Y5302662D01*
X2442903Y5292735D01*
X2428865Y5278697D01*
X2418938Y5261503D01*
X2413800Y5242327D01*
Y5222473D01*
X2418938Y5203297D01*
X2428865Y5186103D01*
X2442903Y5172065D01*
X2452207Y5166694D01*
Y5140400D01*
X2324650D01*
Y5059600D01*
Y5009600D01*
Y4909600D01*
Y4809600D01*
Y4709600D01*
Y4609600D01*
Y4509600D01*
Y4409600D01*
Y4297765D01*
X2311950Y4294362D01*
X2308235Y4300797D01*
X2294197Y4314835D01*
X2277003Y4324762D01*
X2257827Y4329900D01*
X2237973D01*
X2218797Y4324762D01*
X2201603Y4314835D01*
X2187565Y4300797D01*
X2177638Y4283603D01*
X2172500Y4264427D01*
Y4244573D01*
X2177638Y4225397D01*
X2187565Y4208203D01*
X2201603Y4194165D01*
X2218797Y4184238D01*
X2237973Y4179100D01*
X2257827D01*
X2277003Y4184238D01*
X2294197Y4194165D01*
X2308235Y4208203D01*
X2322862Y4208138D01*
X2324650Y4206540D01*
Y4159600D01*
Y4059600D01*
Y3959600D01*
Y3959594D01*
X2423800D01*
Y3940404D01*
X2324650D01*
Y3859600D01*
X2452207D01*
Y3406700D01*
X2454954Y3392888D01*
X2462778Y3381178D01*
X2821328Y3022628D01*
X2818453Y3017648D01*
X2811100Y2990205D01*
Y2961795D01*
X2818453Y2934352D01*
X2832659Y2909748D01*
X2852748Y2889658D01*
X2877352Y2875453D01*
X2904795Y2868100D01*
X2933205D01*
X2960648Y2875453D01*
X2985252Y2889658D01*
X3005341Y2909748D01*
X3019547Y2934352D01*
X3023008Y2947270D01*
X3023021Y2947274D01*
X3036706Y2949323D01*
X3046688Y2942654D01*
X3060500Y2939906D01*
X3065100D01*
Y2868100D01*
X3160300D01*
Y2976000D01*
Y3083900D01*
X3065100D01*
Y3065640D01*
X3052400Y3060379D01*
X2984322Y3128457D01*
X2985252Y3143659D01*
X3005341Y3163748D01*
X3019547Y3188352D01*
X3026900Y3215795D01*
Y3244205D01*
X3019547Y3271648D01*
X3005341Y3296252D01*
X2985252Y3316341D01*
X2982831Y3317739D01*
X2986118Y3330007D01*
X3021950D01*
X3075328Y3276628D01*
X3072453Y3271648D01*
X3065100Y3244205D01*
Y3215795D01*
X3072453Y3188352D01*
X3086659Y3163748D01*
X3106748Y3143658D01*
X3131352Y3129453D01*
X3158795Y3122100D01*
X3187205D01*
X3214648Y3129453D01*
X3239252Y3143658D01*
X3259341Y3163748D01*
X3273547Y3188352D01*
X3280900Y3215795D01*
Y3244205D01*
X3273547Y3271648D01*
X3259341Y3296252D01*
X3239252Y3316341D01*
X3214648Y3330547D01*
X3187205Y3337900D01*
X3158795D01*
X3131352Y3330547D01*
X3126372Y3327672D01*
X3062422Y3391622D01*
X3050712Y3399446D01*
X3036900Y3402193D01*
X3006381D01*
X3001520Y3413927D01*
X3005341Y3417748D01*
X3019547Y3442352D01*
X3026900Y3469795D01*
Y3498205D01*
X3019547Y3525648D01*
X3005341Y3550252D01*
X2985252Y3570341D01*
X2982831Y3571739D01*
X2986118Y3584007D01*
X3021950D01*
X3075328Y3530628D01*
X3072453Y3525648D01*
X3065100Y3498205D01*
Y3469795D01*
X3072453Y3442352D01*
X3086659Y3417748D01*
X3106748Y3397658D01*
X3131352Y3383453D01*
X3158795Y3376100D01*
X3187205D01*
X3214648Y3383453D01*
X3239252Y3397658D01*
X3259341Y3417748D01*
X3273547Y3442352D01*
X3280900Y3469795D01*
Y3498205D01*
X3273547Y3525648D01*
X3259341Y3550252D01*
X3239252Y3570341D01*
X3214648Y3584547D01*
X3187205Y3591900D01*
X3158795D01*
X3131352Y3584547D01*
X3126372Y3581672D01*
X3062422Y3645622D01*
X3050712Y3653446D01*
X3036900Y3656193D01*
X3006381D01*
X3001520Y3667927D01*
X3005341Y3671748D01*
X3019547Y3696352D01*
X3026900Y3723795D01*
Y3752205D01*
X3019547Y3779648D01*
X3005341Y3804252D01*
X2985252Y3824341D01*
X2960648Y3838547D01*
X2933205Y3845900D01*
X2929858D01*
Y3850500D01*
X2927110Y3864312D01*
X2922375Y3871400D01*
X2928316Y3884100D01*
X2933205D01*
X2960648Y3891453D01*
X2985252Y3905658D01*
X3005341Y3925748D01*
X3019547Y3950352D01*
X3026900Y3977795D01*
Y4006205D01*
X3019547Y4033648D01*
X3005341Y4058252D01*
X2985252Y4078341D01*
X2982831Y4079739D01*
X2986118Y4092007D01*
X3021950D01*
X3075328Y4038628D01*
X3072453Y4033648D01*
X3065100Y4006205D01*
Y3977795D01*
X3072453Y3950352D01*
X3086659Y3925748D01*
X3106748Y3905658D01*
X3131352Y3891453D01*
X3158795Y3884100D01*
X3187205D01*
X3214648Y3891453D01*
X3239252Y3905658D01*
X3259341Y3925748D01*
X3273547Y3950352D01*
X3280900Y3977795D01*
Y4006205D01*
X3273547Y4033648D01*
X3259341Y4058252D01*
X3239252Y4078341D01*
X3214648Y4092547D01*
X3187205Y4099900D01*
X3158795D01*
X3131352Y4092547D01*
X3126372Y4089672D01*
X3062422Y4153622D01*
X3050712Y4161446D01*
X3036900Y4164193D01*
X3006381D01*
X3001520Y4175927D01*
X3005341Y4179748D01*
X3019547Y4204352D01*
X3026900Y4231795D01*
Y4260205D01*
X3019547Y4287648D01*
X3005341Y4312252D01*
X3001520Y4316073D01*
X3006381Y4327806D01*
X3040150D01*
X3075328Y4292628D01*
X3072453Y4287648D01*
X3065100Y4260205D01*
Y4231795D01*
X3072453Y4204352D01*
X3086659Y4179748D01*
X3106748Y4159658D01*
X3131352Y4145453D01*
X3158795Y4138100D01*
X3187205D01*
X3214648Y4145453D01*
X3239252Y4159658D01*
X3259341Y4179748D01*
X3273547Y4204352D01*
X3280900Y4231795D01*
Y4260205D01*
X3273547Y4287648D01*
X3259341Y4312252D01*
X3239252Y4332341D01*
X3214648Y4346547D01*
X3187205Y4353900D01*
X3158795D01*
X3131352Y4346547D01*
X3126372Y4343672D01*
X3080622Y4389422D01*
X3068912Y4397246D01*
X3055100Y4399993D01*
X2986118D01*
X2982831Y4412261D01*
X2985252Y4413658D01*
X3005341Y4433748D01*
X3019547Y4458352D01*
X3026900Y4485795D01*
Y4514205D01*
X3019547Y4541648D01*
X3005341Y4566252D01*
X3001520Y4570073D01*
X3006381Y4581806D01*
X3040150D01*
X3075328Y4546628D01*
X3072453Y4541648D01*
X3065100Y4514205D01*
Y4485795D01*
X3072453Y4458352D01*
X3086659Y4433748D01*
X3106748Y4413658D01*
X3131352Y4399453D01*
X3158795Y4392100D01*
X3187205D01*
X3214648Y4399453D01*
X3239252Y4413658D01*
X3259341Y4433748D01*
X3273547Y4458352D01*
X3280900Y4485795D01*
Y4514205D01*
X3273547Y4541648D01*
X3259341Y4566252D01*
X3239252Y4586341D01*
X3214648Y4600547D01*
X3187205Y4607900D01*
X3158795D01*
X3131352Y4600547D01*
X3126372Y4597672D01*
X3080622Y4643422D01*
X3068912Y4651246D01*
X3055100Y4653993D01*
X2986118D01*
X2982831Y4666261D01*
X2985252Y4667658D01*
X3005341Y4687748D01*
X3019547Y4712352D01*
X3026900Y4739795D01*
Y4768205D01*
X3019547Y4795648D01*
X3005341Y4820252D01*
X3001520Y4824073D01*
X3006381Y4835806D01*
X3040150D01*
X3075328Y4800628D01*
X3072453Y4795648D01*
X3065100Y4768205D01*
Y4739795D01*
X3072453Y4712352D01*
X3086659Y4687748D01*
X3106748Y4667658D01*
X3131352Y4653453D01*
X3158795Y4646100D01*
X3187205D01*
X3214648Y4653453D01*
X3239252Y4667658D01*
X3259341Y4687748D01*
X3273547Y4712352D01*
X3280900Y4739795D01*
Y4768205D01*
X3273547Y4795648D01*
X3259341Y4820252D01*
X3239252Y4840341D01*
X3214648Y4854547D01*
X3187205Y4861900D01*
X3158795D01*
X3131352Y4854547D01*
X3126372Y4851672D01*
X3080622Y4897422D01*
X3068912Y4905246D01*
X3055100Y4907993D01*
X2986118D01*
X2982831Y4920261D01*
X2985252Y4921658D01*
X3005341Y4941748D01*
X3019547Y4966352D01*
X3026900Y4993795D01*
Y5022205D01*
X3019547Y5049648D01*
X3005341Y5074252D01*
X3001520Y5078073D01*
X3006381Y5089806D01*
X3040150D01*
X3075328Y5054628D01*
X3072453Y5049648D01*
X3065100Y5022205D01*
Y4993795D01*
X3072453Y4966352D01*
X3086659Y4941748D01*
X3106748Y4921658D01*
X3131352Y4907453D01*
X3158795Y4900100D01*
X3187205D01*
X3214648Y4907453D01*
X3239252Y4921658D01*
X3259341Y4941748D01*
X3273547Y4966352D01*
X3280900Y4993795D01*
Y5022205D01*
X3273547Y5049648D01*
X3259341Y5074252D01*
X3239252Y5094341D01*
X3214648Y5108547D01*
X3187205Y5115900D01*
X3158795D01*
X3131352Y5108547D01*
X3126372Y5105672D01*
X3080622Y5151422D01*
X3068912Y5159246D01*
X3055100Y5161993D01*
X2986118D01*
X2982831Y5174261D01*
X2985252Y5175658D01*
X3005341Y5195748D01*
X3019547Y5220352D01*
X3026900Y5247795D01*
Y5276205D01*
X3019547Y5303648D01*
X3005341Y5328252D01*
X3001520Y5332073D01*
X3006381Y5343806D01*
X3040150D01*
X3075328Y5308628D01*
X3072453Y5303648D01*
X3065100Y5276205D01*
Y5247795D01*
X3072453Y5220352D01*
X3086659Y5195748D01*
X3106748Y5175658D01*
X3131352Y5161453D01*
X3158795Y5154100D01*
X3187205D01*
X3214648Y5161453D01*
X3239252Y5175658D01*
X3259341Y5195748D01*
X3273547Y5220352D01*
X3280900Y5247795D01*
Y5276205D01*
X3273547Y5303648D01*
X3259341Y5328252D01*
X3239252Y5348341D01*
X3214648Y5362547D01*
X3187205Y5369900D01*
X3158795D01*
X3131352Y5362547D01*
X3126372Y5359672D01*
X3080622Y5405422D01*
X3068912Y5413246D01*
X3055100Y5415993D01*
X2986118D01*
X2982831Y5428261D01*
X2985252Y5429658D01*
X3005341Y5449748D01*
X3019547Y5474352D01*
X3026900Y5501795D01*
Y5530205D01*
X3019547Y5557648D01*
X3005341Y5582252D01*
X3001520Y5586073D01*
X3006381Y5597806D01*
X3040150D01*
X3075328Y5562628D01*
X3072453Y5557648D01*
X3065100Y5530205D01*
Y5501795D01*
X3072453Y5474352D01*
X3086659Y5449748D01*
X3106748Y5429658D01*
X3131352Y5415453D01*
X3158795Y5408100D01*
X3187205D01*
X3214648Y5415453D01*
X3239252Y5429658D01*
X3259341Y5449748D01*
X3273547Y5474352D01*
X3280900Y5501795D01*
Y5530205D01*
X3273547Y5557648D01*
X3259341Y5582252D01*
X3239252Y5602341D01*
X3214648Y5616547D01*
X3187205Y5623900D01*
X3158795D01*
X3131352Y5616547D01*
X3126372Y5613672D01*
X3080622Y5659422D01*
X3068912Y5667246D01*
X3055100Y5669993D01*
X2986118D01*
X2982831Y5682261D01*
X2985252Y5683658D01*
X3005341Y5703748D01*
X3019547Y5728352D01*
X3026900Y5755795D01*
Y5784205D01*
X3019547Y5811648D01*
X3005341Y5836252D01*
X3001520Y5840073D01*
X3006381Y5851806D01*
X3040150D01*
X3075328Y5816628D01*
X3072453Y5811648D01*
X3065100Y5784205D01*
Y5755795D01*
X3072453Y5728352D01*
X3086659Y5703748D01*
X3106748Y5683658D01*
X3131352Y5669453D01*
X3158795Y5662100D01*
X3187205D01*
X3214648Y5669453D01*
X3239252Y5683658D01*
X3259341Y5703748D01*
X3273547Y5728352D01*
X3280900Y5755795D01*
Y5784205D01*
X3273547Y5811648D01*
X3259341Y5836252D01*
X3239252Y5856341D01*
X3214648Y5870547D01*
X3187205Y5877900D01*
X3158795D01*
X3131352Y5870547D01*
X3126372Y5867672D01*
X3080622Y5913422D01*
X3068912Y5921246D01*
X3055100Y5923993D01*
X2986118D01*
X2982831Y5936261D01*
X2985252Y5937658D01*
X3005341Y5957748D01*
X3019547Y5982352D01*
X3026900Y6009795D01*
Y6038205D01*
X3019547Y6065648D01*
X3005341Y6090252D01*
X2985252Y6110341D01*
X2960648Y6124547D01*
X2933205Y6131900D01*
X2927802D01*
X2922942Y6143633D01*
X2970598Y6191290D01*
X3130219D01*
X3144031Y6194037D01*
X3155741Y6201861D01*
X3302967Y6349087D01*
X3314700Y6344227D01*
Y0D01*
X12700D01*
Y1714637D01*
X18100Y1725100D01*
X233900D01*
Y1940900D01*
X70593D01*
Y1981697D01*
X81592Y1988047D01*
X84352Y1986453D01*
X111795Y1979100D01*
X140205D01*
X167648Y1986453D01*
X192252Y2000658D01*
X212341Y2020748D01*
X221707Y2036969D01*
X235459Y2035387D01*
X237684Y2028051D01*
X251919Y2001419D01*
X252407Y2000825D01*
Y1924500D01*
X255154Y1910688D01*
X262978Y1898978D01*
X282328Y1879628D01*
X279453Y1874648D01*
X272100Y1847205D01*
Y1818795D01*
X279453Y1791352D01*
X293659Y1766748D01*
X313748Y1746658D01*
X338352Y1732453D01*
X365795Y1725100D01*
X394205D01*
X421648Y1732453D01*
X446252Y1746658D01*
X466341Y1766748D01*
X480547Y1791352D01*
X487900Y1818795D01*
Y1847205D01*
X480547Y1874648D01*
X466341Y1899252D01*
X446252Y1919341D01*
X421648Y1933547D01*
X394205Y1940900D01*
X365795D01*
X338352Y1933547D01*
X333372Y1930672D01*
X324593Y1939450D01*
Y1981697D01*
X335592Y1988047D01*
X338352Y1986453D01*
X365795Y1979100D01*
X394205D01*
X421648Y1986453D01*
X446252Y2000658D01*
X466341Y2020748D01*
X475707Y2036969D01*
X489459Y2035387D01*
X491684Y2028051D01*
X505919Y2001419D01*
X506407Y2000825D01*
Y1924500D01*
X509154Y1910688D01*
X516978Y1898978D01*
X536328Y1879628D01*
X533453Y1874648D01*
X526100Y1847205D01*
Y1818795D01*
X533453Y1791352D01*
X547659Y1766748D01*
X567748Y1746658D01*
X592352Y1732453D01*
X619795Y1725100D01*
X648205D01*
X675648Y1732453D01*
X700252Y1746658D01*
X720341Y1766748D01*
X734547Y1791352D01*
X741900Y1818795D01*
Y1847205D01*
X734547Y1874648D01*
X720341Y1899252D01*
X700252Y1919341D01*
X675648Y1933547D01*
X648205Y1940900D01*
X619795D01*
X592352Y1933547D01*
X587372Y1930672D01*
X578593Y1939450D01*
Y1981697D01*
X589592Y1988047D01*
X592352Y1986453D01*
X619795Y1979100D01*
X648205D01*
X675648Y1986453D01*
X700252Y2000658D01*
X720341Y2020748D01*
X729707Y2036969D01*
X743459Y2035387D01*
X745684Y2028051D01*
X759919Y2001419D01*
X760407Y2000825D01*
Y1924500D01*
X763154Y1910688D01*
X770978Y1898978D01*
X790328Y1879628D01*
X787453Y1874648D01*
X780100Y1847205D01*
Y1818795D01*
X787453Y1791352D01*
X801659Y1766748D01*
X821748Y1746658D01*
X846352Y1732453D01*
X873795Y1725100D01*
X902205D01*
X929648Y1732453D01*
X954252Y1746658D01*
X974341Y1766748D01*
X988547Y1791352D01*
X995900Y1818795D01*
Y1847205D01*
X988547Y1874648D01*
X974341Y1899252D01*
X954252Y1919341D01*
X929648Y1933547D01*
X902205Y1940900D01*
X873795D01*
X846352Y1933547D01*
X841372Y1930672D01*
X832593Y1939450D01*
Y1981697D01*
X843592Y1988047D01*
X846352Y1986453D01*
X873795Y1979100D01*
X902205D01*
X929648Y1986453D01*
X954252Y2000658D01*
X967206Y2013613D01*
X979906Y2008352D01*
Y1959000D01*
X982654Y1945188D01*
X990478Y1933478D01*
X1044328Y1879628D01*
X1041453Y1874648D01*
X1034100Y1847205D01*
Y1818795D01*
X1041453Y1791352D01*
X1055659Y1766748D01*
X1075748Y1746658D01*
X1100352Y1732453D01*
X1127795Y1725100D01*
X1156205D01*
X1183648Y1732453D01*
X1208252Y1746658D01*
X1228341Y1766748D01*
X1242547Y1791352D01*
X1249900Y1818795D01*
Y1847205D01*
X1242547Y1874648D01*
X1228341Y1899252D01*
X1208252Y1919341D01*
X1183648Y1933547D01*
X1156205Y1940900D01*
X1127795D01*
X1100352Y1933547D01*
X1095372Y1930672D01*
X1052093Y1973951D01*
Y2006353D01*
X1064793Y2011613D01*
X1075748Y2000658D01*
X1100352Y1986453D01*
X1127795Y1979100D01*
X1129300D01*
Y2087000D01*
X1154700D01*
Y1979100D01*
X1156205D01*
X1183648Y1986453D01*
X1208252Y2000658D01*
X1228341Y2020748D01*
X1236103Y2034190D01*
X1248803Y2030787D01*
Y1944104D01*
X1251550Y1930292D01*
X1259374Y1918582D01*
X1298328Y1879628D01*
X1295453Y1874648D01*
X1288100Y1847205D01*
Y1818795D01*
X1295453Y1791352D01*
X1309659Y1766748D01*
X1329748Y1746658D01*
X1354352Y1732453D01*
X1374702Y1727000D01*
X1378498Y1712835D01*
X1161231Y1495569D01*
X1157043Y1489300D01*
X883300D01*
Y1381147D01*
X812000D01*
Y1422700D01*
X661200D01*
Y1265400D01*
X661200Y1261900D01*
Y1252700D01*
X661200Y1249200D01*
Y1185000D01*
X736600D01*
X812000D01*
Y1249200D01*
X812000Y1252700D01*
Y1261900D01*
X812000Y1265400D01*
Y1303454D01*
X883300D01*
Y1228500D01*
X1494100D01*
Y1489300D01*
X1281431D01*
X1276570Y1501033D01*
X1449869Y1674332D01*
X1460820Y1676510D01*
X1473423Y1684931D01*
X1544069Y1755577D01*
X1550170Y1764709D01*
X1560664Y1766295D01*
X1561346Y1766301D01*
X1564849Y1765558D01*
X1583748Y1746658D01*
X1608352Y1732453D01*
X1635795Y1725100D01*
X1664205D01*
X1691648Y1732453D01*
X1694160Y1733903D01*
X1927029Y1501033D01*
X1922169Y1489300D01*
X1833300D01*
Y1228500D01*
X2444100D01*
Y1320053D01*
X2515400D01*
Y1240000D01*
X2515400Y1236500D01*
Y1227300D01*
X2515400Y1223800D01*
Y1159600D01*
X2590800D01*
X2666200D01*
Y1223800D01*
X2666200Y1227300D01*
Y1236500D01*
X2666200Y1240000D01*
Y1397300D01*
X2551045D01*
X2548800Y1397747D01*
X2444100D01*
Y1489300D01*
X2048637D01*
X1870664Y1667273D01*
X1875524Y1679007D01*
X1889450D01*
X1973078Y1595378D01*
X1984788Y1587554D01*
X1998600Y1584807D01*
X2504350D01*
X2788507Y1300650D01*
Y942993D01*
X955981D01*
X942168Y940246D01*
X930459Y932422D01*
X928702Y930665D01*
X894572D01*
X880759Y927918D01*
X869050Y920094D01*
X799111Y850155D01*
X798630Y850433D01*
X774494Y856900D01*
X749506D01*
X725370Y850433D01*
X703730Y837939D01*
X686061Y820270D01*
X673567Y798630D01*
X667100Y774494D01*
Y749506D01*
X673567Y725370D01*
X686061Y703730D01*
X703730Y686061D01*
X725370Y673567D01*
X747093Y667747D01*
X753037Y655730D01*
X736478Y639171D01*
X728654Y627462D01*
X725907Y613649D01*
Y596576D01*
X725370Y596433D01*
X703730Y583939D01*
X686061Y566270D01*
X673567Y544630D01*
X667100Y520494D01*
Y495506D01*
X673567Y471370D01*
X686061Y449730D01*
X703730Y432061D01*
X725370Y419567D01*
X749506Y413100D01*
X774494D01*
X798630Y419567D01*
X820270Y432061D01*
X837939Y449730D01*
X850433Y471370D01*
X856900Y495506D01*
Y520494D01*
X850433Y544630D01*
X837939Y566270D01*
X820270Y583939D01*
X808240Y590885D01*
X806150Y606756D01*
X904182Y704787D01*
X912006Y716497D01*
X914047Y726759D01*
X927081Y727186D01*
X927567Y725370D01*
X940061Y703730D01*
X957730Y686061D01*
X979370Y673567D01*
X1003506Y667100D01*
X1028494D01*
X1052630Y673567D01*
X1074270Y686061D01*
X1091939Y703730D01*
X1104433Y725370D01*
X1110900Y749506D01*
Y774494D01*
X1104433Y798630D01*
X1093188Y818107D01*
X1097481Y830807D01*
X1188519D01*
X1192812Y818107D01*
X1181567Y798630D01*
X1175100Y774494D01*
Y749506D01*
X1181567Y725370D01*
X1194061Y703730D01*
X1211730Y686061D01*
X1233370Y673567D01*
X1257506Y667100D01*
X1282494D01*
X1306630Y673567D01*
X1328270Y686061D01*
X1345939Y703730D01*
X1358433Y725370D01*
X1364900Y749506D01*
Y774494D01*
X1358433Y798630D01*
X1347188Y818107D01*
X1351481Y830807D01*
X1442519D01*
X1446812Y818107D01*
X1435567Y798630D01*
X1429100Y774494D01*
Y749506D01*
X1435567Y725370D01*
X1448061Y703730D01*
X1465730Y686061D01*
X1487370Y673567D01*
X1511506Y667100D01*
X1536494D01*
X1560630Y673567D01*
X1582270Y686061D01*
X1599939Y703730D01*
X1612433Y725370D01*
X1618900Y749506D01*
Y774494D01*
X1612433Y798630D01*
X1601188Y818107D01*
X1605481Y830807D01*
X1696519D01*
X1700812Y818107D01*
X1689567Y798630D01*
X1683100Y774494D01*
Y749506D01*
X1689567Y725370D01*
X1702061Y703730D01*
X1719730Y686061D01*
X1741370Y673567D01*
X1765506Y667100D01*
X1790494D01*
X1814630Y673567D01*
X1836270Y686061D01*
X1853939Y703730D01*
X1866433Y725370D01*
X1872900Y749506D01*
Y774494D01*
X1866433Y798630D01*
X1855188Y818107D01*
X1859481Y830807D01*
X1950519D01*
X1954812Y818107D01*
X1943567Y798630D01*
X1937100Y774494D01*
Y749506D01*
X1943567Y725370D01*
X1956061Y703730D01*
X1973730Y686061D01*
X1995370Y673567D01*
X2019506Y667100D01*
X2044494D01*
X2068630Y673567D01*
X2090270Y686061D01*
X2107939Y703730D01*
X2120433Y725370D01*
X2126900Y749506D01*
Y774494D01*
X2120433Y798630D01*
X2109188Y818107D01*
X2113481Y830807D01*
X2204519D01*
X2208812Y818107D01*
X2197567Y798630D01*
X2191100Y774494D01*
Y749506D01*
X2197567Y725370D01*
X2210061Y703730D01*
X2227730Y686061D01*
X2249370Y673567D01*
X2273506Y667100D01*
X2298494D01*
X2322630Y673567D01*
X2344270Y686061D01*
X2361939Y703730D01*
X2374433Y725370D01*
X2380900Y749506D01*
Y774494D01*
X2374433Y798630D01*
X2363188Y818107D01*
X2367481Y830807D01*
X2458519D01*
X2462812Y818107D01*
X2451567Y798630D01*
X2445100Y774494D01*
Y749506D01*
X2451567Y725370D01*
X2464061Y703730D01*
X2481730Y686061D01*
X2503370Y673567D01*
X2527506Y667100D01*
X2552494D01*
X2576630Y673567D01*
X2598270Y686061D01*
X2615939Y703730D01*
X2628433Y725370D01*
X2634900Y749506D01*
Y774494D01*
X2628433Y798630D01*
X2617188Y818107D01*
X2621481Y830807D01*
X2712519D01*
X2716812Y818107D01*
X2705567Y798630D01*
X2699100Y774494D01*
Y749506D01*
X2705567Y725370D01*
X2718061Y703730D01*
X2735730Y686061D01*
X2757370Y673567D01*
X2781506Y667100D01*
X2806494D01*
X2830630Y673567D01*
X2852270Y686061D01*
X2869939Y703730D01*
X2882433Y725370D01*
X2888900Y749506D01*
Y774494D01*
X2882433Y798630D01*
X2881518Y800215D01*
X2883259Y801378D01*
X2930122Y848241D01*
X2937946Y859951D01*
X2940693Y873763D01*
Y1348737D01*
X2937946Y1362549D01*
X2930122Y1374259D01*
X2577959Y1726422D01*
X2566249Y1734246D01*
X2560693Y1735351D01*
X2509672Y1786372D01*
X2512547Y1791352D01*
X2519900Y1818795D01*
Y1847205D01*
X2512547Y1874648D01*
X2498341Y1899252D01*
X2478252Y1919341D01*
X2453648Y1933547D01*
X2426205Y1940900D01*
X2397795D01*
X2370352Y1933547D01*
X2365372Y1930672D01*
X2338393Y1957650D01*
Y1990969D01*
X2351093Y1997572D01*
X2370352Y1986453D01*
X2397795Y1979100D01*
X2426205D01*
X2453648Y1986453D01*
X2478252Y2000658D01*
X2498341Y2020748D01*
X2503027Y2028863D01*
X2517619Y2028737D01*
X2529861Y2016495D01*
X2537919Y2001419D01*
X2557076Y1978076D01*
X2580419Y1958919D01*
X2595496Y1950860D01*
X2609658Y1936698D01*
X2608001Y1924106D01*
X2599748Y1919341D01*
X2579659Y1899252D01*
X2565453Y1874648D01*
X2558100Y1847205D01*
Y1818795D01*
X2565453Y1791352D01*
X2579659Y1766748D01*
X2599748Y1746658D01*
X2624352Y1732453D01*
X2651795Y1725100D01*
X2680205D01*
X2707648Y1732453D01*
X2732252Y1746658D01*
X2752341Y1766748D01*
X2766547Y1791352D01*
X2773900Y1818795D01*
Y1847205D01*
X2766547Y1874648D01*
X2752341Y1899252D01*
X2732252Y1919341D01*
X2707648Y1933547D01*
X2701330Y1935240D01*
X2699346Y1945212D01*
X2691522Y1956922D01*
X2681326Y1967118D01*
X2685804Y1980600D01*
X2707648Y1986453D01*
X2732252Y2000658D01*
X2752341Y2020748D01*
X2761507Y2036622D01*
X2774207Y2033219D01*
Y1942700D01*
X2776954Y1928888D01*
X2784778Y1917178D01*
X2822328Y1879628D01*
X2819453Y1874648D01*
X2812100Y1847205D01*
Y1818795D01*
X2819453Y1791352D01*
X2833659Y1766748D01*
X2853748Y1746658D01*
X2878352Y1732453D01*
X2905795Y1725100D01*
X2934205D01*
X2961648Y1732453D01*
X2986252Y1746658D01*
X3006341Y1766748D01*
X3020547Y1791352D01*
X3027900Y1818795D01*
Y1847205D01*
X3020547Y1874648D01*
X3006341Y1899252D01*
X2986252Y1919341D01*
X2961648Y1933547D01*
X2934205Y1940900D01*
X2905795D01*
X2878352Y1933547D01*
X2873372Y1930672D01*
X2846393Y1957650D01*
Y1990969D01*
X2859093Y1997572D01*
X2878352Y1986453D01*
X2897055Y1981442D01*
X2906188Y1975340D01*
X2920000Y1972592D01*
X2933812Y1975340D01*
X2942945Y1981442D01*
X2961648Y1986453D01*
X2986252Y2000658D01*
X3006341Y2020748D01*
X3015507Y2036622D01*
X3028207Y2033219D01*
Y1942700D01*
X3030954Y1928888D01*
X3038778Y1917178D01*
X3076328Y1879628D01*
X3073453Y1874648D01*
X3066100Y1847205D01*
Y1818795D01*
X3073453Y1791352D01*
X3087659Y1766748D01*
X3107748Y1746658D01*
X3132352Y1732453D01*
X3159795Y1725100D01*
X3188205D01*
X3215648Y1732453D01*
X3240252Y1746658D01*
X3260341Y1766748D01*
X3274547Y1791352D01*
X3281900Y1818795D01*
Y1847205D01*
X3274547Y1874648D01*
X3260341Y1899252D01*
X3240252Y1919341D01*
X3215648Y1933547D01*
X3188205Y1940900D01*
X3159795D01*
X3132352Y1933547D01*
X3127372Y1930672D01*
X3100393Y1957650D01*
Y1990969D01*
X3113093Y1997572D01*
X3132352Y1986453D01*
X3159795Y1979100D01*
X3188205D01*
X3215648Y1986453D01*
X3240252Y2000658D01*
X3260341Y2020748D01*
X3274547Y2045352D01*
X3281900Y2072795D01*
Y2101205D01*
X3274547Y2128648D01*
X3260341Y2153252D01*
X3240252Y2173341D01*
X3215648Y2187547D01*
X3188205Y2194900D01*
X3159795D01*
X3132352Y2187547D01*
X3113093Y2176428D01*
X3100393Y2183031D01*
Y2562312D01*
X3097646Y2576124D01*
X3089822Y2587834D01*
X2283993Y3393662D01*
Y3627050D01*
X2290400D01*
Y3825350D01*
X1509595D01*
Y3726200D01*
X1490405D01*
Y3825350D01*
X1009600D01*
Y3627050D01*
X1018907D01*
Y3196619D01*
X60478Y2238190D01*
X52654Y2226481D01*
X51572Y2221043D01*
X40419Y2215081D01*
X25400Y2202755D01*
X12700Y2208762D01*
Y2936610D01*
X25400Y2938282D01*
X26453Y2934352D01*
X40659Y2909748D01*
X60748Y2889658D01*
X85352Y2875453D01*
X112795Y2868100D01*
X141205D01*
X168648Y2875453D01*
X193252Y2889658D01*
X213341Y2909748D01*
X227547Y2934352D01*
X234900Y2961795D01*
Y2990205D01*
X227547Y3017648D01*
X213341Y3042252D01*
X193252Y3062341D01*
X168648Y3076547D01*
X141205Y3083900D01*
X112795D01*
X85352Y3076547D01*
X60748Y3062341D01*
X40659Y3042252D01*
X26453Y3017648D01*
X25400Y3013718D01*
X12700Y3015390D01*
Y3190610D01*
X25400Y3192282D01*
X26453Y3188352D01*
X40659Y3163748D01*
X60748Y3143658D01*
X85352Y3129453D01*
X112795Y3122100D01*
X114300D01*
Y3230000D01*
Y3337900D01*
X112795D01*
X85352Y3330547D01*
X60748Y3316341D01*
X40659Y3296252D01*
X26453Y3271648D01*
X25400Y3267718D01*
X12700Y3269390D01*
Y3444610D01*
X25400Y3446282D01*
X26453Y3442352D01*
X40659Y3417748D01*
X60748Y3397658D01*
X85352Y3383453D01*
X112795Y3376100D01*
X141205D01*
X168648Y3383453D01*
X173628Y3386328D01*
X219378Y3340578D01*
X231088Y3332754D01*
X244900Y3330007D01*
X313882D01*
X317169Y3317739D01*
X314748Y3316341D01*
X294659Y3296252D01*
X280453Y3271648D01*
X273100Y3244205D01*
Y3215795D01*
X280453Y3188352D01*
X294659Y3163748D01*
X298480Y3159927D01*
X293619Y3148193D01*
X259850D01*
X224672Y3183372D01*
X227547Y3188352D01*
X234900Y3215795D01*
Y3217300D01*
X139700D01*
Y3122100D01*
X141205D01*
X168648Y3129453D01*
X173628Y3132328D01*
X219378Y3086578D01*
X231088Y3078754D01*
X244900Y3076007D01*
X313882D01*
X317169Y3063739D01*
X314748Y3062341D01*
X294659Y3042252D01*
X280453Y3017648D01*
X273100Y2990205D01*
Y2961795D01*
X280453Y2934352D01*
X294659Y2909748D01*
X314748Y2889658D01*
X339352Y2875453D01*
X366795Y2868100D01*
X395205D01*
X422648Y2875453D01*
X447252Y2889658D01*
X467341Y2909748D01*
X481547Y2934352D01*
X488900Y2961795D01*
Y2990205D01*
X481547Y3017648D01*
X478672Y3022628D01*
X789167Y3333123D01*
X800900Y3328263D01*
Y3318600D01*
X876300D01*
X951700D01*
Y3386299D01*
X951700Y3386300D01*
Y3395501D01*
X951700D01*
X951700Y3399000D01*
Y3556300D01*
X913043D01*
Y3859600D01*
X975350D01*
Y3892743D01*
X976793Y3900000D01*
X975350Y3907256D01*
Y3942743D01*
X976793Y3950000D01*
X975350Y3957256D01*
Y3992743D01*
X976793Y4000000D01*
X975350Y4007256D01*
Y4059600D01*
Y4159600D01*
Y4242743D01*
X976793Y4250000D01*
X975350Y4257256D01*
Y4292743D01*
X976793Y4300000D01*
X975350Y4307256D01*
Y4342743D01*
X976793Y4350000D01*
X975350Y4357256D01*
Y4392743D01*
X976793Y4400000D01*
X975350Y4407256D01*
Y4442743D01*
X976793Y4450000D01*
X975350Y4457257D01*
Y4492743D01*
X976793Y4500000D01*
X975350Y4507256D01*
Y4542743D01*
X976793Y4550000D01*
X975350Y4557256D01*
Y4592743D01*
X976793Y4600000D01*
X975350Y4607256D01*
Y4642743D01*
X976793Y4650000D01*
X975350Y4657256D01*
Y4692743D01*
X976793Y4700000D01*
X975350Y4707257D01*
Y4742743D01*
X976793Y4750000D01*
X975350Y4757256D01*
Y4809600D01*
Y4909600D01*
Y5009600D01*
Y5092743D01*
X976793Y5100000D01*
X975350Y5107256D01*
Y5140400D01*
X913043D01*
Y5528050D01*
X910296Y5541862D01*
X902472Y5553572D01*
X478672Y5977372D01*
X481547Y5982352D01*
X488900Y6009795D01*
Y6038205D01*
X481547Y6065648D01*
X467341Y6090252D01*
X447252Y6110341D01*
X422648Y6124547D01*
X395205Y6131900D01*
X366795D01*
X339352Y6124547D01*
X314748Y6110341D01*
X294659Y6090252D01*
X280453Y6065648D01*
X273100Y6038205D01*
Y6009795D01*
X280453Y5982352D01*
X294659Y5957748D01*
X314748Y5937658D01*
X317169Y5936261D01*
X313882Y5923993D01*
X278050D01*
X234900Y5967144D01*
Y6131900D01*
X25400D01*
X19100Y6131900D01*
X12700Y6141949D01*
Y6873610D01*
X25400Y6875282D01*
X26453Y6871352D01*
D02*
G37*
G36*
X3314700Y7094937D02*
X3302967Y7090077D01*
X3282900Y7110144D01*
Y7274900D01*
X3067100D01*
Y7089904D01*
X3054400Y7084644D01*
X3018672Y7120372D01*
X3021547Y7125352D01*
X3028900Y7152795D01*
Y7181205D01*
X3021547Y7208648D01*
X3007341Y7233252D01*
X2987252Y7253341D01*
X2962648Y7267547D01*
X2935205Y7274900D01*
X2906795D01*
X2879352Y7267547D01*
X2854748Y7253341D01*
X2834659Y7233252D01*
X2820453Y7208648D01*
X2813100Y7181205D01*
Y7152795D01*
X2820453Y7125352D01*
X2834659Y7100748D01*
X2854748Y7080658D01*
X2879352Y7066453D01*
X2906795Y7059100D01*
X2935205D01*
X2962648Y7066453D01*
X2967628Y7069328D01*
X3002807Y7034150D01*
Y7000380D01*
X2991073Y6995520D01*
X2987252Y6999341D01*
X2962648Y7013547D01*
X2935205Y7020900D01*
X2906795D01*
X2879352Y7013547D01*
X2854748Y6999341D01*
X2834659Y6979252D01*
X2833261Y6976831D01*
X2820993Y6980118D01*
Y7049100D01*
X2818246Y7062912D01*
X2810422Y7074622D01*
X2764672Y7120372D01*
X2767547Y7125352D01*
X2774900Y7152795D01*
Y7181205D01*
X2767547Y7208648D01*
X2753341Y7233252D01*
X2733252Y7253341D01*
X2708648Y7267547D01*
X2681205Y7274900D01*
X2652795D01*
X2625352Y7267547D01*
X2600748Y7253341D01*
X2580659Y7233252D01*
X2566453Y7208648D01*
X2559100Y7181205D01*
Y7152795D01*
X2566453Y7125352D01*
X2580659Y7100748D01*
X2600748Y7080658D01*
X2625352Y7066453D01*
X2652795Y7059100D01*
X2681205D01*
X2708648Y7066453D01*
X2713628Y7069328D01*
X2748807Y7034150D01*
Y7000380D01*
X2737073Y6995520D01*
X2733252Y6999341D01*
X2708648Y7013547D01*
X2681205Y7020900D01*
X2652795D01*
X2625352Y7013547D01*
X2600748Y6999341D01*
X2580659Y6979252D01*
X2579261Y6976831D01*
X2566993Y6980118D01*
Y7049100D01*
X2564246Y7062912D01*
X2556422Y7074622D01*
X2510672Y7120372D01*
X2513547Y7125352D01*
X2520900Y7152795D01*
Y7181205D01*
X2513547Y7208648D01*
X2499341Y7233252D01*
X2479252Y7253341D01*
X2454648Y7267547D01*
X2427205Y7274900D01*
X2398795D01*
X2371352Y7267547D01*
X2346748Y7253341D01*
X2326659Y7233252D01*
X2312453Y7208648D01*
X2305100Y7181205D01*
Y7152795D01*
X2312453Y7125352D01*
X2326659Y7100748D01*
X2346748Y7080658D01*
X2371352Y7066453D01*
X2398795Y7059100D01*
X2427205D01*
X2454648Y7066453D01*
X2459628Y7069328D01*
X2494807Y7034150D01*
Y7000380D01*
X2483073Y6995520D01*
X2479252Y6999341D01*
X2454648Y7013547D01*
X2427205Y7020900D01*
X2398795D01*
X2371352Y7013547D01*
X2346748Y6999341D01*
X2326659Y6979252D01*
X2325261Y6976831D01*
X2312993Y6980118D01*
Y7049100D01*
X2310246Y7062912D01*
X2302422Y7074622D01*
X2256672Y7120372D01*
X2259547Y7125352D01*
X2266900Y7152795D01*
Y7181205D01*
X2259547Y7208648D01*
X2245341Y7233252D01*
X2225252Y7253341D01*
X2200648Y7267547D01*
X2173205Y7274900D01*
X2144795D01*
X2117352Y7267547D01*
X2092748Y7253341D01*
X2072659Y7233252D01*
X2058453Y7208648D01*
X2051100Y7181205D01*
Y7152795D01*
X2058453Y7125352D01*
X2072659Y7100748D01*
X2092748Y7080658D01*
X2117352Y7066453D01*
X2144795Y7059100D01*
X2173205D01*
X2200648Y7066453D01*
X2205628Y7069328D01*
X2240807Y7034150D01*
Y7000380D01*
X2229073Y6995520D01*
X2225252Y6999341D01*
X2200648Y7013547D01*
X2173205Y7020900D01*
X2144795D01*
X2117352Y7013547D01*
X2092748Y6999341D01*
X2072659Y6979252D01*
X2071261Y6976831D01*
X2058993Y6980118D01*
Y7049100D01*
X2056246Y7062912D01*
X2048422Y7074622D01*
X2002672Y7120372D01*
X2005547Y7125352D01*
X2012900Y7152795D01*
Y7181205D01*
X2005547Y7208648D01*
X1991341Y7233252D01*
X1971252Y7253341D01*
X1946648Y7267547D01*
X1919205Y7274900D01*
X1890795D01*
X1863352Y7267547D01*
X1838748Y7253341D01*
X1818659Y7233252D01*
X1804453Y7208648D01*
X1797100Y7181205D01*
Y7152795D01*
X1804453Y7125352D01*
X1818659Y7100748D01*
X1838748Y7080658D01*
X1863352Y7066453D01*
X1890795Y7059100D01*
X1919205D01*
X1946648Y7066453D01*
X1951628Y7069328D01*
X1986807Y7034150D01*
Y7000380D01*
X1975073Y6995520D01*
X1971252Y6999341D01*
X1946648Y7013547D01*
X1919205Y7020900D01*
X1890795D01*
X1863352Y7013547D01*
X1838748Y6999341D01*
X1818659Y6979252D01*
X1817261Y6976831D01*
X1804993Y6980118D01*
Y7049100D01*
X1802246Y7062912D01*
X1794422Y7074622D01*
X1748672Y7120372D01*
X1751547Y7125352D01*
X1758900Y7152795D01*
Y7181205D01*
X1751547Y7208648D01*
X1737341Y7233252D01*
X1717252Y7253341D01*
X1692648Y7267547D01*
X1665205Y7274900D01*
X1636795D01*
X1609352Y7267547D01*
X1584748Y7253341D01*
X1564659Y7233252D01*
X1550453Y7208648D01*
X1543100Y7181205D01*
Y7152795D01*
X1550453Y7125352D01*
X1564659Y7100748D01*
X1584748Y7080658D01*
X1609352Y7066453D01*
X1636795Y7059100D01*
X1665205D01*
X1692648Y7066453D01*
X1697628Y7069328D01*
X1732807Y7034150D01*
Y7000380D01*
X1721073Y6995520D01*
X1717252Y6999341D01*
X1692648Y7013547D01*
X1665205Y7020900D01*
X1636795D01*
X1609352Y7013547D01*
X1584748Y6999341D01*
X1568415Y6983009D01*
X1555715Y6988269D01*
Y7044378D01*
X1552968Y7058190D01*
X1545144Y7069900D01*
X1494672Y7120372D01*
X1497547Y7125352D01*
X1504900Y7152795D01*
Y7181205D01*
X1497547Y7208648D01*
X1483341Y7233252D01*
X1463252Y7253341D01*
X1438648Y7267547D01*
X1411205Y7274900D01*
X1382795D01*
X1355352Y7267547D01*
X1330748Y7253341D01*
X1310659Y7233252D01*
X1296453Y7208648D01*
X1289100Y7181205D01*
Y7152795D01*
X1296453Y7125352D01*
X1310659Y7100748D01*
X1330748Y7080658D01*
X1355352Y7066453D01*
X1382795Y7059100D01*
X1411205D01*
X1438648Y7066453D01*
X1443628Y7069328D01*
X1483529Y7029427D01*
Y6997025D01*
X1470829Y6991765D01*
X1463252Y6999341D01*
X1438648Y7013547D01*
X1411205Y7020900D01*
X1382795D01*
X1355352Y7013547D01*
X1330748Y6999341D01*
X1326927Y6995520D01*
X1315193Y7000380D01*
Y7030900D01*
X1312446Y7044712D01*
X1304622Y7056422D01*
X1240672Y7120372D01*
X1243547Y7125352D01*
X1250900Y7152795D01*
Y7181205D01*
X1243547Y7208648D01*
X1229341Y7233252D01*
X1209252Y7253341D01*
X1184648Y7267547D01*
X1157205Y7274900D01*
X1128795D01*
X1101352Y7267547D01*
X1076748Y7253341D01*
X1056659Y7233252D01*
X1042453Y7208648D01*
X1035100Y7181205D01*
Y7152795D01*
X1042453Y7125352D01*
X1056659Y7100748D01*
X1076748Y7080658D01*
X1101352Y7066453D01*
X1128795Y7059100D01*
X1157205D01*
X1184648Y7066453D01*
X1189628Y7069328D01*
X1243007Y7015949D01*
Y6980118D01*
X1230739Y6976831D01*
X1229341Y6979252D01*
X1209252Y6999341D01*
X1184648Y7013547D01*
X1157205Y7020900D01*
X1128795D01*
X1101352Y7013547D01*
X1076748Y6999341D01*
X1072927Y6995520D01*
X1061193Y7000380D01*
Y7030900D01*
X1058446Y7044712D01*
X1050622Y7056422D01*
X986672Y7120372D01*
X989547Y7125352D01*
X996900Y7152795D01*
Y7181205D01*
X989547Y7208648D01*
X975341Y7233252D01*
X955252Y7253341D01*
X930648Y7267547D01*
X903205Y7274900D01*
X874795D01*
X847352Y7267547D01*
X822748Y7253341D01*
X802659Y7233252D01*
X788453Y7208648D01*
X781100Y7181205D01*
Y7152795D01*
X788453Y7125352D01*
X802659Y7100748D01*
X822748Y7080658D01*
X847352Y7066453D01*
X874795Y7059100D01*
X903205D01*
X930648Y7066453D01*
X935628Y7069328D01*
X989007Y7015949D01*
Y6980118D01*
X976739Y6976831D01*
X975341Y6979252D01*
X955252Y6999341D01*
X930648Y7013547D01*
X903205Y7020900D01*
X874795D01*
X847352Y7013547D01*
X822748Y6999341D01*
X818927Y6995520D01*
X807193Y7000380D01*
Y7030900D01*
X804446Y7044712D01*
X796622Y7056422D01*
X732672Y7120372D01*
X735547Y7125352D01*
X742900Y7152795D01*
Y7181205D01*
X735547Y7208648D01*
X721341Y7233252D01*
X701252Y7253341D01*
X676648Y7267547D01*
X649205Y7274900D01*
X620795D01*
X593352Y7267547D01*
X568748Y7253341D01*
X548659Y7233252D01*
X534453Y7208648D01*
X527100Y7181205D01*
Y7152795D01*
X534453Y7125352D01*
X548659Y7100748D01*
X568748Y7080658D01*
X593352Y7066453D01*
X620795Y7059100D01*
X649205D01*
X676648Y7066453D01*
X681628Y7069328D01*
X735007Y7015949D01*
Y6980118D01*
X722739Y6976831D01*
X721341Y6979252D01*
X701252Y6999341D01*
X676648Y7013547D01*
X649205Y7020900D01*
X620795D01*
X593352Y7013547D01*
X568748Y6999341D01*
X564927Y6995520D01*
X553193Y7000380D01*
Y7030900D01*
X550446Y7044712D01*
X542622Y7056422D01*
X478672Y7120372D01*
X481547Y7125352D01*
X488900Y7152795D01*
Y7181205D01*
X481547Y7208648D01*
X467341Y7233252D01*
X447252Y7253341D01*
X422648Y7267547D01*
X395205Y7274900D01*
X366795D01*
X339352Y7267547D01*
X314748Y7253341D01*
X294659Y7233252D01*
X280453Y7208648D01*
X273100Y7181205D01*
Y7152795D01*
X280453Y7125352D01*
X294659Y7100748D01*
X314748Y7080658D01*
X339352Y7066453D01*
X366795Y7059100D01*
X395205D01*
X422648Y7066453D01*
X427628Y7069328D01*
X481007Y7015949D01*
Y6980118D01*
X468739Y6976831D01*
X467341Y6979252D01*
X447252Y6999341D01*
X422648Y7013547D01*
X395205Y7020900D01*
X393700D01*
Y6913000D01*
X368300D01*
Y7020900D01*
X366795D01*
X339352Y7013547D01*
X314748Y6999341D01*
X310927Y6995520D01*
X299193Y7000380D01*
Y7030900D01*
X296446Y7044712D01*
X288622Y7056422D01*
X224672Y7120372D01*
X227547Y7125352D01*
X234900Y7152795D01*
Y7181205D01*
X227547Y7208648D01*
X213341Y7233252D01*
X193252Y7253341D01*
X168648Y7267547D01*
X141205Y7274900D01*
X112795D01*
X85352Y7267547D01*
X60748Y7253341D01*
X40659Y7233252D01*
X26453Y7208648D01*
X25400Y7204718D01*
X12700Y7206390D01*
Y8991600D01*
X3314700D01*
Y7094937D01*
D02*
G37*
%LPC*%
G36*
X3187205Y6131900D02*
X3158795D01*
X3131352Y6124547D01*
X3106748Y6110341D01*
X3086659Y6090252D01*
X3072453Y6065648D01*
X3065100Y6038205D01*
Y6009795D01*
X3072453Y5982352D01*
X3086659Y5957748D01*
X3106748Y5937658D01*
X3131352Y5923453D01*
X3158795Y5916100D01*
X3187205D01*
X3214648Y5923453D01*
X3239252Y5937658D01*
X3259341Y5957748D01*
X3273547Y5982352D01*
X3280900Y6009795D01*
Y6038205D01*
X3273547Y6065648D01*
X3259341Y6090252D01*
X3239252Y6110341D01*
X3214648Y6124547D01*
X3187205Y6131900D01*
D02*
G37*
G36*
Y3845900D02*
X3158795D01*
X3131352Y3838547D01*
X3106748Y3824341D01*
X3086659Y3804252D01*
X3072453Y3779648D01*
X3065100Y3752205D01*
Y3723795D01*
X3072453Y3696352D01*
X3086659Y3671748D01*
X3106748Y3651658D01*
X3131352Y3637453D01*
X3158795Y3630100D01*
X3187205D01*
X3214648Y3637453D01*
X3239252Y3651658D01*
X3259341Y3671748D01*
X3273547Y3696352D01*
X3280900Y3723795D01*
Y3752205D01*
X3273547Y3779648D01*
X3259341Y3804252D01*
X3239252Y3824341D01*
X3214648Y3838547D01*
X3187205Y3845900D01*
D02*
G37*
G36*
X141205Y3337900D02*
X139700D01*
Y3242700D01*
X234900D01*
Y3244205D01*
X227547Y3271648D01*
X213341Y3296252D01*
X193252Y3316341D01*
X168648Y3330547D01*
X141205Y3337900D01*
D02*
G37*
G36*
X951700Y3293200D02*
X889000D01*
Y3225500D01*
X951700D01*
Y3293200D01*
D02*
G37*
G36*
X863600D02*
X800900D01*
Y3225500D01*
X863600D01*
Y3293200D01*
D02*
G37*
G36*
X3280900Y3083900D02*
X3185700D01*
Y2988700D01*
X3280900D01*
Y3083900D01*
D02*
G37*
G36*
Y2963300D02*
X3185700D01*
Y2868100D01*
X3280900D01*
Y2963300D01*
D02*
G37*
G36*
X812000Y1159600D02*
X749300D01*
Y1091900D01*
X812000D01*
Y1159600D01*
D02*
G37*
G36*
X723900D02*
X661200D01*
Y1091900D01*
X723900D01*
Y1159600D01*
D02*
G37*
G36*
X2666200Y1134200D02*
X2603500D01*
Y1066500D01*
X2666200D01*
Y1134200D01*
D02*
G37*
G36*
X2578100D02*
X2515400D01*
Y1066500D01*
X2578100D01*
Y1134200D01*
D02*
G37*
G36*
X520494Y856900D02*
X495506D01*
X471370Y850433D01*
X449730Y837939D01*
X432061Y820270D01*
X419567Y798630D01*
X413100Y774494D01*
Y749506D01*
X419567Y725370D01*
X432061Y703730D01*
X449730Y686061D01*
X471370Y673567D01*
X495506Y667100D01*
X520494D01*
X544630Y673567D01*
X566270Y686061D01*
X583939Y703730D01*
X596433Y725370D01*
X602900Y749506D01*
Y774494D01*
X596433Y798630D01*
X583939Y820270D01*
X566270Y837939D01*
X544630Y850433D01*
X520494Y856900D01*
D02*
G37*
G36*
X2806700Y602845D02*
Y520700D01*
X2888845D01*
X2882433Y544630D01*
X2869939Y566270D01*
X2852270Y583939D01*
X2830630Y596433D01*
X2806700Y602845D01*
D02*
G37*
G36*
X2781300D02*
X2757370Y596433D01*
X2735730Y583939D01*
X2718061Y566270D01*
X2705567Y544630D01*
X2699155Y520700D01*
X2781300D01*
Y602845D01*
D02*
G37*
G36*
X2888845Y495300D02*
X2806700D01*
Y413155D01*
X2830630Y419567D01*
X2852270Y432061D01*
X2869939Y449730D01*
X2882433Y471370D01*
X2888845Y495300D01*
D02*
G37*
G36*
X2781300D02*
X2699155D01*
X2705567Y471370D01*
X2718061Y449730D01*
X2735730Y432061D01*
X2757370Y419567D01*
X2781300Y413155D01*
Y495300D01*
D02*
G37*
G36*
X2552494Y602900D02*
X2527506D01*
X2503370Y596433D01*
X2481730Y583939D01*
X2464061Y566270D01*
X2451567Y544630D01*
X2445100Y520494D01*
Y495506D01*
X2451567Y471370D01*
X2464061Y449730D01*
X2481730Y432061D01*
X2503370Y419567D01*
X2527506Y413100D01*
X2552494D01*
X2576630Y419567D01*
X2598270Y432061D01*
X2615939Y449730D01*
X2628433Y471370D01*
X2634900Y495506D01*
Y520494D01*
X2628433Y544630D01*
X2615939Y566270D01*
X2598270Y583939D01*
X2576630Y596433D01*
X2552494Y602900D01*
D02*
G37*
G36*
X2298494D02*
X2273506D01*
X2249370Y596433D01*
X2227730Y583939D01*
X2210061Y566270D01*
X2197567Y544630D01*
X2191100Y520494D01*
Y495506D01*
X2197567Y471370D01*
X2210061Y449730D01*
X2227730Y432061D01*
X2249370Y419567D01*
X2273506Y413100D01*
X2298494D01*
X2322630Y419567D01*
X2344270Y432061D01*
X2361939Y449730D01*
X2374433Y471370D01*
X2380900Y495506D01*
Y520494D01*
X2374433Y544630D01*
X2361939Y566270D01*
X2344270Y583939D01*
X2322630Y596433D01*
X2298494Y602900D01*
D02*
G37*
G36*
X2044494D02*
X2019506D01*
X1995370Y596433D01*
X1973730Y583939D01*
X1956061Y566270D01*
X1943567Y544630D01*
X1937100Y520494D01*
Y495506D01*
X1943567Y471370D01*
X1956061Y449730D01*
X1973730Y432061D01*
X1995370Y419567D01*
X2019506Y413100D01*
X2044494D01*
X2068630Y419567D01*
X2090270Y432061D01*
X2107939Y449730D01*
X2120433Y471370D01*
X2126900Y495506D01*
Y520494D01*
X2120433Y544630D01*
X2107939Y566270D01*
X2090270Y583939D01*
X2068630Y596433D01*
X2044494Y602900D01*
D02*
G37*
G36*
X1790494D02*
X1765506D01*
X1741370Y596433D01*
X1719730Y583939D01*
X1702061Y566270D01*
X1689567Y544630D01*
X1683100Y520494D01*
Y495506D01*
X1689567Y471370D01*
X1702061Y449730D01*
X1719730Y432061D01*
X1741370Y419567D01*
X1765506Y413100D01*
X1790494D01*
X1814630Y419567D01*
X1836270Y432061D01*
X1853939Y449730D01*
X1866433Y471370D01*
X1872900Y495506D01*
Y520494D01*
X1866433Y544630D01*
X1853939Y566270D01*
X1836270Y583939D01*
X1814630Y596433D01*
X1790494Y602900D01*
D02*
G37*
G36*
X1536494D02*
X1511506D01*
X1487370Y596433D01*
X1465730Y583939D01*
X1448061Y566270D01*
X1435567Y544630D01*
X1429100Y520494D01*
Y495506D01*
X1435567Y471370D01*
X1448061Y449730D01*
X1465730Y432061D01*
X1487370Y419567D01*
X1511506Y413100D01*
X1536494D01*
X1560630Y419567D01*
X1582270Y432061D01*
X1599939Y449730D01*
X1612433Y471370D01*
X1618900Y495506D01*
Y520494D01*
X1612433Y544630D01*
X1599939Y566270D01*
X1582270Y583939D01*
X1560630Y596433D01*
X1536494Y602900D01*
D02*
G37*
G36*
X1282494D02*
X1257506D01*
X1233370Y596433D01*
X1211730Y583939D01*
X1194061Y566270D01*
X1181567Y544630D01*
X1175100Y520494D01*
Y495506D01*
X1181567Y471370D01*
X1194061Y449730D01*
X1211730Y432061D01*
X1233370Y419567D01*
X1257506Y413100D01*
X1282494D01*
X1306630Y419567D01*
X1328270Y432061D01*
X1345939Y449730D01*
X1358433Y471370D01*
X1364900Y495506D01*
Y520494D01*
X1358433Y544630D01*
X1345939Y566270D01*
X1328270Y583939D01*
X1306630Y596433D01*
X1282494Y602900D01*
D02*
G37*
G36*
X1028494D02*
X1003506D01*
X979370Y596433D01*
X957730Y583939D01*
X940061Y566270D01*
X927567Y544630D01*
X921100Y520494D01*
Y495506D01*
X927567Y471370D01*
X940061Y449730D01*
X957730Y432061D01*
X979370Y419567D01*
X1003506Y413100D01*
X1028494D01*
X1052630Y419567D01*
X1074270Y432061D01*
X1091939Y449730D01*
X1104433Y471370D01*
X1110900Y495506D01*
Y520494D01*
X1104433Y544630D01*
X1091939Y566270D01*
X1074270Y583939D01*
X1052630Y596433D01*
X1028494Y602900D01*
D02*
G37*
G36*
X602900D02*
X413100D01*
Y413100D01*
X602900D01*
Y602900D01*
D02*
G37*
G36*
X2806494Y8586900D02*
X2781506D01*
X2757370Y8580433D01*
X2735730Y8567939D01*
X2718061Y8550270D01*
X2705567Y8528630D01*
X2699100Y8504494D01*
Y8479506D01*
X2705567Y8455370D01*
X2718061Y8433730D01*
X2735730Y8416061D01*
X2757370Y8403567D01*
X2781506Y8397100D01*
X2806494D01*
X2830630Y8403567D01*
X2852270Y8416061D01*
X2869939Y8433730D01*
X2882433Y8455370D01*
X2888900Y8479506D01*
Y8504494D01*
X2882433Y8528630D01*
X2869939Y8550270D01*
X2852270Y8567939D01*
X2830630Y8580433D01*
X2806494Y8586900D01*
D02*
G37*
G36*
X2552494D02*
X2527506D01*
X2503370Y8580433D01*
X2481730Y8567939D01*
X2464061Y8550270D01*
X2451567Y8528630D01*
X2445100Y8504494D01*
Y8479506D01*
X2451567Y8455370D01*
X2464061Y8433730D01*
X2481730Y8416061D01*
X2503370Y8403567D01*
X2527506Y8397100D01*
X2552494D01*
X2576630Y8403567D01*
X2598270Y8416061D01*
X2615939Y8433730D01*
X2628433Y8455370D01*
X2634900Y8479506D01*
Y8504494D01*
X2628433Y8528630D01*
X2615939Y8550270D01*
X2598270Y8567939D01*
X2576630Y8580433D01*
X2552494Y8586900D01*
D02*
G37*
G36*
X2298494D02*
X2273506D01*
X2249370Y8580433D01*
X2227730Y8567939D01*
X2210061Y8550270D01*
X2197567Y8528630D01*
X2191100Y8504494D01*
Y8479506D01*
X2197567Y8455370D01*
X2210061Y8433730D01*
X2227730Y8416061D01*
X2249370Y8403567D01*
X2273506Y8397100D01*
X2298494D01*
X2322630Y8403567D01*
X2344270Y8416061D01*
X2361939Y8433730D01*
X2374433Y8455370D01*
X2380900Y8479506D01*
Y8504494D01*
X2374433Y8528630D01*
X2361939Y8550270D01*
X2344270Y8567939D01*
X2322630Y8580433D01*
X2298494Y8586900D01*
D02*
G37*
G36*
X2044494D02*
X2019506D01*
X1995370Y8580433D01*
X1973730Y8567939D01*
X1956061Y8550270D01*
X1943567Y8528630D01*
X1937100Y8504494D01*
Y8479506D01*
X1943567Y8455370D01*
X1956061Y8433730D01*
X1973730Y8416061D01*
X1995370Y8403567D01*
X2019506Y8397100D01*
X2044494D01*
X2068630Y8403567D01*
X2090270Y8416061D01*
X2107939Y8433730D01*
X2120433Y8455370D01*
X2126900Y8479506D01*
Y8504494D01*
X2120433Y8528630D01*
X2107939Y8550270D01*
X2090270Y8567939D01*
X2068630Y8580433D01*
X2044494Y8586900D01*
D02*
G37*
G36*
X1790494D02*
X1765506D01*
X1741370Y8580433D01*
X1719730Y8567939D01*
X1702061Y8550270D01*
X1689567Y8528630D01*
X1683100Y8504494D01*
Y8479506D01*
X1689567Y8455370D01*
X1702061Y8433730D01*
X1719730Y8416061D01*
X1741370Y8403567D01*
X1765506Y8397100D01*
X1790494D01*
X1814630Y8403567D01*
X1836270Y8416061D01*
X1853939Y8433730D01*
X1866433Y8455370D01*
X1872900Y8479506D01*
Y8504494D01*
X1866433Y8528630D01*
X1853939Y8550270D01*
X1836270Y8567939D01*
X1814630Y8580433D01*
X1790494Y8586900D01*
D02*
G37*
G36*
X1536494D02*
X1511506D01*
X1487370Y8580433D01*
X1465730Y8567939D01*
X1448061Y8550270D01*
X1435567Y8528630D01*
X1429100Y8504494D01*
Y8479506D01*
X1435567Y8455370D01*
X1448061Y8433730D01*
X1465730Y8416061D01*
X1487370Y8403567D01*
X1511506Y8397100D01*
X1536494D01*
X1560630Y8403567D01*
X1582270Y8416061D01*
X1599939Y8433730D01*
X1612433Y8455370D01*
X1618900Y8479506D01*
Y8504494D01*
X1612433Y8528630D01*
X1599939Y8550270D01*
X1582270Y8567939D01*
X1560630Y8580433D01*
X1536494Y8586900D01*
D02*
G37*
G36*
X1282494D02*
X1257506D01*
X1233370Y8580433D01*
X1211730Y8567939D01*
X1194061Y8550270D01*
X1181567Y8528630D01*
X1175100Y8504494D01*
Y8479506D01*
X1181567Y8455370D01*
X1194061Y8433730D01*
X1211730Y8416061D01*
X1233370Y8403567D01*
X1257506Y8397100D01*
X1282494D01*
X1306630Y8403567D01*
X1328270Y8416061D01*
X1345939Y8433730D01*
X1358433Y8455370D01*
X1364900Y8479506D01*
Y8504494D01*
X1358433Y8528630D01*
X1345939Y8550270D01*
X1328270Y8567939D01*
X1306630Y8580433D01*
X1282494Y8586900D01*
D02*
G37*
G36*
X1028494D02*
X1003506D01*
X979370Y8580433D01*
X957730Y8567939D01*
X940061Y8550270D01*
X927567Y8528630D01*
X921100Y8504494D01*
Y8479506D01*
X927567Y8455370D01*
X940061Y8433730D01*
X957730Y8416061D01*
X979370Y8403567D01*
X1003506Y8397100D01*
X1028494D01*
X1052630Y8403567D01*
X1074270Y8416061D01*
X1091939Y8433730D01*
X1104433Y8455370D01*
X1110900Y8479506D01*
Y8504494D01*
X1104433Y8528630D01*
X1091939Y8550270D01*
X1074270Y8567939D01*
X1052630Y8580433D01*
X1028494Y8586900D01*
D02*
G37*
G36*
X774494D02*
X749506D01*
X725370Y8580433D01*
X703730Y8567939D01*
X686061Y8550270D01*
X673567Y8528630D01*
X667100Y8504494D01*
Y8479506D01*
X673567Y8455370D01*
X686061Y8433730D01*
X703730Y8416061D01*
X725370Y8403567D01*
X749506Y8397100D01*
X774494D01*
X798630Y8403567D01*
X820270Y8416061D01*
X837939Y8433730D01*
X850433Y8455370D01*
X856900Y8479506D01*
Y8504494D01*
X850433Y8528630D01*
X837939Y8550270D01*
X820270Y8567939D01*
X798630Y8580433D01*
X774494Y8586900D01*
D02*
G37*
G36*
X520494D02*
X495506D01*
X471370Y8580433D01*
X449730Y8567939D01*
X432061Y8550270D01*
X419567Y8528630D01*
X413100Y8504494D01*
Y8479506D01*
X419567Y8455370D01*
X432061Y8433730D01*
X449730Y8416061D01*
X471370Y8403567D01*
X495506Y8397100D01*
X520494D01*
X544630Y8403567D01*
X566270Y8416061D01*
X583939Y8433730D01*
X596433Y8455370D01*
X602900Y8479506D01*
Y8504494D01*
X596433Y8528630D01*
X583939Y8550270D01*
X566270Y8567939D01*
X544630Y8580433D01*
X520494Y8586900D01*
D02*
G37*
G36*
X2806494Y8332900D02*
X2781506D01*
X2757370Y8326433D01*
X2735730Y8313939D01*
X2718061Y8296270D01*
X2705567Y8274630D01*
X2699100Y8250494D01*
Y8225506D01*
X2705567Y8201370D01*
X2718061Y8179730D01*
X2735730Y8162061D01*
X2757370Y8149567D01*
X2781506Y8143100D01*
X2806494D01*
X2830630Y8149567D01*
X2852270Y8162061D01*
X2869939Y8179730D01*
X2882433Y8201370D01*
X2888900Y8225506D01*
Y8250494D01*
X2882433Y8274630D01*
X2869939Y8296270D01*
X2852270Y8313939D01*
X2830630Y8326433D01*
X2806494Y8332900D01*
D02*
G37*
G36*
X2552494D02*
X2527506D01*
X2503370Y8326433D01*
X2481730Y8313939D01*
X2464061Y8296270D01*
X2451567Y8274630D01*
X2445100Y8250494D01*
Y8225506D01*
X2451567Y8201370D01*
X2464061Y8179730D01*
X2481730Y8162061D01*
X2503370Y8149567D01*
X2527506Y8143100D01*
X2552494D01*
X2576630Y8149567D01*
X2598270Y8162061D01*
X2615939Y8179730D01*
X2628433Y8201370D01*
X2634900Y8225506D01*
Y8250494D01*
X2628433Y8274630D01*
X2615939Y8296270D01*
X2598270Y8313939D01*
X2576630Y8326433D01*
X2552494Y8332900D01*
D02*
G37*
G36*
X2298494D02*
X2273506D01*
X2249370Y8326433D01*
X2227730Y8313939D01*
X2210061Y8296270D01*
X2197567Y8274630D01*
X2191100Y8250494D01*
Y8225506D01*
X2197567Y8201370D01*
X2210061Y8179730D01*
X2227730Y8162061D01*
X2249370Y8149567D01*
X2273506Y8143100D01*
X2298494D01*
X2322630Y8149567D01*
X2344270Y8162061D01*
X2361939Y8179730D01*
X2374433Y8201370D01*
X2380900Y8225506D01*
Y8250494D01*
X2374433Y8274630D01*
X2361939Y8296270D01*
X2344270Y8313939D01*
X2322630Y8326433D01*
X2298494Y8332900D01*
D02*
G37*
G36*
X2044494D02*
X2019506D01*
X1995370Y8326433D01*
X1973730Y8313939D01*
X1956061Y8296270D01*
X1943567Y8274630D01*
X1937100Y8250494D01*
Y8225506D01*
X1943567Y8201370D01*
X1956061Y8179730D01*
X1973730Y8162061D01*
X1995370Y8149567D01*
X2019506Y8143100D01*
X2044494D01*
X2068630Y8149567D01*
X2090270Y8162061D01*
X2107939Y8179730D01*
X2120433Y8201370D01*
X2126900Y8225506D01*
Y8250494D01*
X2120433Y8274630D01*
X2107939Y8296270D01*
X2090270Y8313939D01*
X2068630Y8326433D01*
X2044494Y8332900D01*
D02*
G37*
G36*
X1790494D02*
X1765506D01*
X1741370Y8326433D01*
X1719730Y8313939D01*
X1702061Y8296270D01*
X1689567Y8274630D01*
X1683100Y8250494D01*
Y8225506D01*
X1689567Y8201370D01*
X1702061Y8179730D01*
X1719730Y8162061D01*
X1741370Y8149567D01*
X1765506Y8143100D01*
X1790494D01*
X1814630Y8149567D01*
X1836270Y8162061D01*
X1853939Y8179730D01*
X1866433Y8201370D01*
X1872900Y8225506D01*
Y8250494D01*
X1866433Y8274630D01*
X1853939Y8296270D01*
X1836270Y8313939D01*
X1814630Y8326433D01*
X1790494Y8332900D01*
D02*
G37*
G36*
X1536494D02*
X1511506D01*
X1487370Y8326433D01*
X1465730Y8313939D01*
X1448061Y8296270D01*
X1435567Y8274630D01*
X1429100Y8250494D01*
Y8225506D01*
X1435567Y8201370D01*
X1448061Y8179730D01*
X1465730Y8162061D01*
X1487370Y8149567D01*
X1511506Y8143100D01*
X1536494D01*
X1560630Y8149567D01*
X1582270Y8162061D01*
X1599939Y8179730D01*
X1612433Y8201370D01*
X1618900Y8225506D01*
Y8250494D01*
X1612433Y8274630D01*
X1599939Y8296270D01*
X1582270Y8313939D01*
X1560630Y8326433D01*
X1536494Y8332900D01*
D02*
G37*
G36*
X1282494D02*
X1257506D01*
X1233370Y8326433D01*
X1211730Y8313939D01*
X1194061Y8296270D01*
X1181567Y8274630D01*
X1175100Y8250494D01*
Y8225506D01*
X1181567Y8201370D01*
X1194061Y8179730D01*
X1211730Y8162061D01*
X1233370Y8149567D01*
X1257506Y8143100D01*
X1282494D01*
X1306630Y8149567D01*
X1328270Y8162061D01*
X1345939Y8179730D01*
X1358433Y8201370D01*
X1364900Y8225506D01*
Y8250494D01*
X1358433Y8274630D01*
X1345939Y8296270D01*
X1328270Y8313939D01*
X1306630Y8326433D01*
X1282494Y8332900D01*
D02*
G37*
G36*
X1028494D02*
X1003506D01*
X979370Y8326433D01*
X957730Y8313939D01*
X940061Y8296270D01*
X927567Y8274630D01*
X921100Y8250494D01*
Y8225506D01*
X927567Y8201370D01*
X940061Y8179730D01*
X957730Y8162061D01*
X979370Y8149567D01*
X1003506Y8143100D01*
X1028494D01*
X1052630Y8149567D01*
X1074270Y8162061D01*
X1091939Y8179730D01*
X1104433Y8201370D01*
X1110900Y8225506D01*
Y8250494D01*
X1104433Y8274630D01*
X1091939Y8296270D01*
X1074270Y8313939D01*
X1052630Y8326433D01*
X1028494Y8332900D01*
D02*
G37*
G36*
X774494D02*
X749506D01*
X725370Y8326433D01*
X703730Y8313939D01*
X686061Y8296270D01*
X673567Y8274630D01*
X667100Y8250494D01*
Y8225506D01*
X673567Y8201370D01*
X686061Y8179730D01*
X703730Y8162061D01*
X725370Y8149567D01*
X749506Y8143100D01*
X774494D01*
X798630Y8149567D01*
X820270Y8162061D01*
X837939Y8179730D01*
X850433Y8201370D01*
X856900Y8225506D01*
Y8250494D01*
X850433Y8274630D01*
X837939Y8296270D01*
X820270Y8313939D01*
X798630Y8326433D01*
X774494Y8332900D01*
D02*
G37*
G36*
X602900D02*
X413100D01*
Y8143100D01*
X602900D01*
Y8332900D01*
D02*
G37*
G36*
X2948000Y8062900D02*
X2935300Y8062900D01*
X2703500D01*
X2694000Y8062900D01*
X2681300Y8062900D01*
X2449500D01*
X2440000Y8062900D01*
X2427300Y8062900D01*
X2195500D01*
X2186000Y8062900D01*
X2173300Y8062900D01*
X1941500D01*
X1932000Y8062900D01*
X1919300Y8062900D01*
X1687500D01*
X1678000Y8062900D01*
X1665300Y8062900D01*
X1433500D01*
X1424000Y8062900D01*
X1411300Y8062900D01*
X1179500D01*
X1170000Y8062900D01*
X1157300Y8062900D01*
X925500D01*
X916000Y8062900D01*
X903300Y8062900D01*
X671500D01*
X662000Y8062900D01*
X649300Y8062900D01*
X417500D01*
X408000Y8062900D01*
X395300Y8062900D01*
X154000D01*
Y7821600D01*
X154000Y7812100D01*
X154000Y7799400D01*
Y7567600D01*
X154000Y7558100D01*
X154000Y7545400D01*
Y7304100D01*
X395300D01*
X404800Y7304100D01*
X417500Y7304100D01*
X649300D01*
X658800Y7304100D01*
X671500Y7304100D01*
X903300D01*
X912800Y7304100D01*
X925500Y7304100D01*
X1157300D01*
X1166800Y7304100D01*
X1179500Y7304100D01*
X1411300D01*
X1420800Y7304100D01*
X1433500Y7304100D01*
X1665300D01*
X1674800Y7304100D01*
X1687500Y7304100D01*
X1919300D01*
X1928800Y7304100D01*
X1941500Y7304100D01*
X2173300D01*
X2182800Y7304100D01*
X2195500Y7304100D01*
X2427300D01*
X2436800Y7304100D01*
X2449500Y7304100D01*
X2681300D01*
X2690800Y7304100D01*
X2703500Y7304100D01*
X2935300D01*
X2944800Y7304100D01*
X2957500Y7304100D01*
X3198800D01*
Y7545400D01*
X3198800Y7554900D01*
X3198800Y7567600D01*
Y7799400D01*
X3198800Y7808900D01*
X3198800Y7821600D01*
Y8062900D01*
X2957500D01*
X2948000Y8062900D01*
D02*
G37*
%LPD*%
D10*
X2532722Y5158922D02*
G03*
X2562678Y5188877I-43522J73478D01*
G01*
X2592050Y5160657D02*
G03*
X2594179Y5163811I-102850J71743D01*
G01*
X369465Y3112666D02*
G03*
X498334Y3241534I11535J117334D01*
G01*
X86000Y2197907D02*
G03*
X34500Y2012648I40000J-110907D01*
G01*
X288500Y2161352D02*
G03*
X288500Y2012648I91500J-74352D01*
G01*
X3064300Y2130200D02*
G03*
X3064300Y2043799I109700J-43201D01*
G01*
X2810300Y2130200D02*
G03*
X2810300Y2043799I109700J-43201D01*
G01*
X2558244Y2039156D02*
G03*
X2618156Y1979244I107756J47844D01*
G01*
X2302300Y2130200D02*
G03*
X2302300Y2043799I109700J-43201D01*
G01*
X1534712Y2062319D02*
G03*
X1544900Y2033573I115288J24681D01*
G01*
X1558500Y2161352D02*
G03*
X1534710Y2111670I91500J-74352D01*
G01*
X1530875Y2103568D02*
G03*
X1534710Y2111670I-15700J12391D01*
G01*
X1534712Y2062319D02*
G03*
X1530875Y2070431I-19537J-4278D01*
G01*
X1284896Y2126450D02*
G03*
X1284896Y2047550I111104J-39450D01*
G01*
X796500Y2161351D02*
G03*
X796500Y2012648I91500J-74351D01*
G01*
X542500Y2161351D02*
G03*
X542500Y2012648I91500J-74351D01*
G01*
X730209Y5086391D02*
G03*
X658900Y5233530I-349209J-78392D01*
G01*
X458900Y5156364D02*
G03*
X467966Y5139792I20000J175D01*
G01*
X497446Y4989540D02*
G03*
X368167Y5125199I-116446J18460D01*
G01*
X497446Y4988031D02*
G03*
X497446Y4988026I20000J-3D01*
G01*
X656097Y5047366D02*
G03*
X578900Y5203099I-275097J-39366D01*
G01*
X502977Y5164609D02*
G03*
X506113Y5161333I15923J12103D01*
G01*
X538835Y5003226D02*
G03*
X538835Y5003206I20000J-19D01*
G01*
X693457Y5066575D02*
G03*
X618900Y5218864I-312457J-58575D01*
G01*
X617978Y5028917D02*
G03*
X545009Y5180328I-236978J-20917D01*
G01*
X544640Y5180694D02*
G03*
X545009Y5180328I14259J14024D01*
G01*
X578870Y5011457D02*
G03*
X506113Y5161333I-197870J-3457D01*
G01*
X364541Y5125156D02*
G03*
X368167Y5125199I1577J19938D01*
G01*
X538835Y5003478D02*
G03*
X467967Y5139792I-157835J4522D01*
G01*
X802300Y4900000D02*
G03*
X790024Y4905000I-13256J-14976D01*
G01*
X355927Y5125838D02*
G03*
X354250Y5125900I-1577J-19938D01*
G01*
X1549400Y5264536D02*
Y6373764D01*
X1519622Y6403542D02*
X1549400Y6373764D01*
X527050Y4043329D02*
X733721Y4250000D01*
X244900Y3874100D02*
X429836D01*
X381000Y3992000D02*
X419153D01*
X495915Y4246000D02*
X629915Y4380000D01*
X705593D01*
X498685Y4128100D02*
X710585Y4340000D01*
X419153Y3992000D02*
X727153Y4300000D01*
X527050Y3971315D02*
Y4043329D01*
X429836Y3874100D02*
X527050Y3971315D01*
X244900Y4128100D02*
X498685D01*
X381000Y4246000D02*
X495915D01*
X710585Y4340000D02*
X722161D01*
X733721Y4250000D02*
X809161D01*
X727153Y4300000D02*
X802593D01*
X244900Y3620100D02*
X429836D01*
X127000Y3738000D02*
X244900Y3620100D01*
X429836D02*
X515000Y3705265D01*
X2535869Y1660900D02*
X2864600Y1332169D01*
Y1250200D02*
Y1332169D01*
X1998600Y1620900D02*
X2519300D01*
X2824600Y1315600D01*
X2544100Y1700900D02*
X2552437D01*
X2453900Y1660900D02*
X2535869D01*
X2824600Y906900D02*
Y1315600D01*
X2904600Y873763D02*
Y1348737D01*
X2302300Y1942700D02*
X2544100Y1700900D01*
X2552437D02*
X2904600Y1348737D01*
X2076100Y1660900D02*
X2453900D01*
X2864600Y890332D02*
Y1250200D01*
X1855164Y1715100D02*
X1904400D01*
X1816100Y1754164D02*
X1855164Y1715100D01*
X1558500Y1924500D02*
X1650000Y1833000D01*
X1558500Y1924500D02*
Y1991732D01*
X1816100Y1754164D02*
Y1754164D01*
X1698836Y1950900D02*
X1767900Y1881835D01*
X1786100Y1784164D02*
Y1841500D01*
X1904400Y1715100D02*
X1998600Y1620900D01*
X1767900Y1841500D02*
X1786100D01*
Y1784164D02*
X1816100Y1754164D01*
X1767900Y1841500D02*
Y1881835D01*
X2857737Y826900D02*
X2904600Y873763D01*
X2794000Y767655D02*
X2853245Y826900D01*
X2794000Y762000D02*
Y767655D01*
X2853245Y826900D02*
X2857737D01*
X2841168Y866900D02*
X2864600Y890332D01*
X2362395Y866900D02*
X2841168D01*
X2824600Y906900D02*
X2824600Y906900D01*
X1532832Y906900D02*
X2824600D01*
X972549Y866900D02*
X2362395D01*
X381000Y7167000D02*
X517100Y7030900D01*
X1195000Y5299571D02*
Y5738037D01*
X1447800Y5264536D02*
Y6221364D01*
X889000Y6438900D02*
X1295400Y6032500D01*
X635000Y6438900D02*
X1181100Y5892800D01*
X1279100Y6390064D02*
Y7030900D01*
X1231900Y5757705D02*
Y5929264D01*
X889000Y7167000D02*
X1025100Y7030900D01*
X381000Y6438900D02*
X1104900Y5715000D01*
X889000Y6438900D02*
Y6913000D01*
X771100Y6390064D02*
X1231900Y5929264D01*
X1295400Y5253588D02*
Y6032500D01*
X1117600Y5758868D02*
Y5789564D01*
Y5758868D02*
X1144900Y5731568D01*
X1181100Y5751937D02*
Y5892800D01*
X635000Y7167000D02*
X771100Y7030900D01*
X1346200Y5269635D02*
Y6068964D01*
X1143000Y7167000D02*
X1279100Y7030900D01*
X1144900Y5360076D02*
Y5731568D01*
X1181100Y5751937D02*
X1195000Y5738037D01*
X771100Y6390064D02*
Y7030900D01*
X1025100Y6390064D02*
Y7030900D01*
X517100Y6390064D02*
X1117600Y5789564D01*
X1104900Y5247997D02*
Y5715000D01*
X1025100Y6390064D02*
X1346200Y6068964D01*
X1397000Y5272169D02*
Y6184900D01*
X517100Y6390064D02*
Y7030900D01*
X1143000Y6438900D02*
Y6913000D01*
X381000Y6438900D02*
Y6913000D01*
X1279100Y6390064D02*
X1447800Y6221364D01*
X635000Y6438900D02*
Y6913000D01*
X1143000Y6438900D02*
X1397000Y6184900D01*
X1144900Y5360076D02*
X1145000Y5359976D01*
Y5306231D02*
Y5359976D01*
X2528300Y5154500D02*
X2532722Y5158922D01*
X2562678Y5188877D02*
X2578100Y5204300D01*
X2738100Y5247835D02*
X2870164Y5379900D01*
X2618100Y5469100D02*
X2919000Y5770000D01*
X2578100Y5204300D02*
Y5595835D01*
X2618100Y5187731D02*
Y5469100D01*
X2423800Y5050000D02*
X2428800Y5055000D01*
X2632050Y5006005D02*
Y5145113D01*
X2509976Y5055000D02*
X2527550Y5072574D01*
X2698100Y5295100D02*
X2919000Y5516000D01*
X2632050Y5145113D02*
X2658100Y5171163D01*
X2698100Y5154594D02*
Y5295100D01*
X2712050Y4972868D02*
Y5111976D01*
X2574476Y5005000D02*
X2592050Y5022574D01*
X2870164Y5633900D02*
X3055100D01*
X2428800Y5055000D02*
X2509976D01*
X2581045Y4955000D02*
X2632050Y5006005D01*
X2614183Y4875001D02*
X2712050Y4972868D01*
X2527550Y5072574D02*
Y5082682D01*
X2597614Y4915001D02*
X2672050Y4989437D01*
Y5128545D02*
X2698100Y5154594D01*
X2527550Y5082682D02*
X2528300Y5083432D01*
X2712050Y5111976D02*
X2738100Y5138026D01*
X2658100Y5421835D02*
X2870164Y5633900D01*
Y5379900D02*
X3055100D01*
X2594179Y5163811D02*
X2618100Y5187731D01*
X2658100Y5171163D02*
Y5421835D01*
X2672050Y4989437D02*
Y5128545D01*
X2738100Y5138026D02*
Y5247835D01*
X2592050Y5022574D02*
Y5160657D01*
X2528300Y5083432D02*
Y5154500D01*
X2578100Y5595835D02*
X2870164Y5887900D01*
X86000Y2212668D02*
X1055000Y3181669D01*
Y3645800D01*
X368900Y3112100D02*
X369465Y3112665D01*
X244900Y3112100D02*
X368900D01*
X774700Y3517900D02*
Y3865176D01*
X498334Y3241534D02*
X774700Y3517900D01*
X817600Y3412600D02*
X876950Y3471950D01*
X86000Y2197907D02*
Y2212668D01*
X288500Y2161352D02*
Y2302032D01*
Y1924500D02*
Y2012648D01*
X876300Y3475900D02*
X889000Y3488600D01*
X858700Y3323500D02*
X876300Y3305900D01*
X3064300Y1942700D02*
X3204840Y1802160D01*
X3064300Y1942700D02*
Y2043799D01*
Y2130200D02*
Y2562312D01*
X2247900Y3378712D02*
X3064300Y2562312D01*
X2197100Y3372943D02*
X2920000Y2650043D01*
Y2008686D02*
Y2650043D01*
X2810300Y1942700D02*
X2948899Y1804101D01*
X2810300Y2130200D02*
Y2669987D01*
Y1942700D02*
Y2043799D01*
X2146300Y3333987D02*
X2810300Y2669987D01*
X2666000Y2087000D02*
Y2248900D01*
X2618156Y1979244D02*
X2666000Y1931400D01*
X2558244Y2039156D02*
X2558244Y2039156D01*
X2540000Y2057400D02*
X2558244Y2039156D01*
X2666000Y1833000D02*
Y1931400D01*
X2045000Y3227612D02*
X2540000Y2732612D01*
Y2057400D02*
Y2732612D01*
X2005000Y3211043D02*
X2413000Y2803043D01*
Y2139991D02*
Y2803043D01*
X2302300Y1942700D02*
Y2043799D01*
Y2130200D02*
Y2793312D01*
X1905000Y3134043D02*
X2158000Y2881043D01*
Y2060049D02*
Y2881043D01*
X2032000Y1993900D02*
X2168100Y1857800D01*
X1854200Y3064412D02*
X2032000Y2886612D01*
Y1993900D02*
Y2886612D01*
X1803400Y3058643D02*
X1904000Y2958043D01*
Y2073448D02*
Y2958043D01*
X1767900Y1969100D02*
Y3037575D01*
X1763400Y3042075D02*
X1767900Y3037575D01*
Y1969100D02*
X1904000Y1833000D01*
X1763400Y3042075D02*
Y3631623D01*
X1904000Y1833000D02*
X2076100Y1660900D01*
X1584900Y2021900D02*
X1655900Y1950900D01*
X1544900Y2005332D02*
Y2033573D01*
Y2005332D02*
X1558500Y1991732D01*
X1655900Y1950900D02*
X1698836D01*
X1584900Y2021900D02*
X1650000Y2087000D01*
X1558500Y2161352D02*
Y2840057D01*
X1530875Y2070431D02*
X1530875Y2103568D01*
X1750000Y3726200D02*
X1755000Y3721200D01*
Y3640023D02*
Y3721200D01*
Y3640023D02*
X1763400Y3631623D01*
X1570874Y2087000D02*
X1650000D01*
X1631257Y2856245D02*
X1701800Y2926789D01*
X1631257Y2105743D02*
X1638164Y2098836D01*
X1631257Y2105743D02*
Y2856245D01*
X1570874Y2087000D02*
X1638164Y2098836D01*
X1558500Y2840057D02*
X1651000Y2932557D01*
X1284896Y2705018D02*
X1549400Y2969522D01*
X1284896Y1944104D02*
X1396000Y1833000D01*
X1284896Y1944104D02*
Y2047550D01*
Y2126450D02*
Y2705018D01*
X2488300Y5100000D02*
Y5231500D01*
X2423800Y4000000D02*
X2488300D01*
X1054100Y5199830D02*
Y5599064D01*
X876950Y3895000D02*
X881950Y3900000D01*
X1142000Y2618690D02*
X1498600Y2975290D01*
X1142000Y2087000D02*
Y2618690D01*
X854524Y3945000D02*
X935700D01*
X772450Y3872574D02*
X777274Y3867750D01*
X1016000Y1959000D02*
X1142000Y1833000D01*
X1016000Y1959000D02*
Y2120900D01*
X1016000Y2549258D02*
X1447800Y2981058D01*
X1016000Y2120900D02*
Y2549258D01*
X888000Y2477827D02*
X1397000Y2986827D01*
X888000Y2087000D02*
Y2477827D01*
X796500Y1924500D02*
X917840Y1803160D01*
X796500Y1924500D02*
Y2012648D01*
Y2161351D02*
Y2442895D01*
X1346200Y2992595D01*
X634000Y2336963D02*
X1295400Y2998363D01*
X634000Y2087000D02*
Y2336963D01*
X542500Y1924500D02*
X650263Y1816737D01*
X542500Y1924500D02*
Y2012648D01*
Y2161351D02*
Y2302032D01*
X1255400Y3014932D01*
X380000Y2087000D02*
Y2196100D01*
X288500Y1924500D02*
X399982Y1813017D01*
X1104900Y3175000D02*
Y3740537D01*
X126000Y2087000D02*
Y2196100D01*
X34500Y1924500D02*
X140642Y1818358D01*
X34500Y1924500D02*
Y2012648D01*
X126000Y2196100D02*
X1104900Y3175000D01*
X2247900Y3378712D02*
Y3712257D01*
X2197100Y3372943D02*
Y3687185D01*
X2146300Y3333987D02*
Y3703904D01*
X2095500Y3328218D02*
X2596300Y2827419D01*
X2095500Y3328218D02*
Y3681770D01*
X2045000Y3227612D02*
Y3689959D01*
X2005000Y3211043D02*
Y3640023D01*
Y3688094D01*
X1945000Y3150612D02*
Y3685115D01*
Y3150612D02*
X2302300Y2793312D01*
X1905000Y3134043D02*
Y3700012D01*
X1854200Y3064412D02*
Y3719454D01*
X1803400Y3058643D02*
Y3707536D01*
X1701800Y2926789D02*
Y3720161D01*
X1651000Y2932557D02*
Y3712788D01*
X1549400Y2969522D02*
Y3699305D01*
X1498600Y2975290D02*
Y3686681D01*
X1447800Y2981058D02*
Y3726978D01*
X1397000Y2986827D02*
Y3677743D01*
X1346200Y2992595D02*
Y3715768D01*
X1295400Y2998363D02*
Y3703927D01*
X1255000Y3640023D02*
X1255400Y3639623D01*
Y3014932D02*
Y3639623D01*
X1255000Y3640023D02*
Y3652268D01*
X1193800Y3009900D02*
Y3638824D01*
X1195000Y3640023D01*
Y3656106D01*
X380000Y2196100D02*
X1193800Y3009900D01*
X288500Y2302032D02*
X1130300Y3143832D01*
X1145000Y3640023D02*
Y3657595D01*
X1144900Y3639923D02*
X1145000Y3640023D01*
X1130300Y3143832D02*
X1144900Y3158432D01*
Y3639923D01*
X1055000Y3645800D02*
Y3726200D01*
X774700Y3865176D02*
X777274Y3867750D01*
X854524Y3945000D02*
X854524Y3945000D01*
X772450Y3927426D02*
X790024Y3945000D01*
X772450Y3872574D02*
Y3927426D01*
X612450Y3993700D02*
X667400Y4048650D01*
X790024Y3945000D02*
X854524D01*
X707400Y4032081D02*
Y4046337D01*
X692450Y3879745D02*
Y3960563D01*
X732450Y3863176D02*
Y3943994D01*
X612450Y3912882D02*
Y3993700D01*
X747400Y4015513D02*
Y4029768D01*
X595000Y3782295D02*
X692450Y3879745D01*
Y3960563D02*
X747400Y4015513D01*
X652450Y3977131D02*
X707400Y4032081D01*
X667400Y4048650D02*
Y4062905D01*
X555000Y3798863D02*
X652450Y3896313D01*
X732450Y3943994D02*
X788455Y4000000D01*
X635000Y3765727D02*
X732450Y3863176D01*
X652450Y3896313D02*
Y3977131D01*
X515000Y3815432D02*
X612450Y3912882D01*
X788455Y4000000D02*
X940700D01*
X381000Y3484000D02*
Y3511912D01*
X515000Y3705265D02*
Y3815432D01*
X244900Y3366100D02*
X429836D01*
X707400Y4046337D02*
X761063Y4100000D01*
X595000Y3531264D02*
Y3782295D01*
X429836Y3366100D02*
X595000Y3531264D01*
X635000Y3484000D02*
Y3765727D01*
X381000Y3230000D02*
X635000Y3484000D01*
X667400Y4062905D02*
X749495Y4145000D01*
X381000Y3511912D02*
X555000Y3685912D01*
Y3798863D01*
X747400Y4029768D02*
X770832Y4053200D01*
X761063Y4100000D02*
X876200D01*
X749495Y4145000D02*
X817298D01*
X809161Y4250000D02*
X940700D01*
X722161Y4340000D02*
X732162Y4350000D01*
X705593Y4380000D02*
X725593Y4400000D01*
X3292900Y6390064D02*
Y7049100D01*
X3175000Y7167000D02*
X3292900Y7049100D01*
X3167165Y6905164D02*
X3175000Y6913000D01*
X3167165Y6438900D02*
Y6905164D01*
X3038900Y6390064D02*
Y7049100D01*
X2921000Y7167000D02*
X3038900Y7049100D01*
X2921000Y6438900D02*
Y6913000D01*
X2784900Y6359368D02*
Y7049100D01*
X2667000Y7167000D02*
X2784900Y7049100D01*
X2667000Y6438900D02*
Y6913000D01*
X2530900Y6359368D02*
Y7049100D01*
X2413000Y7167000D02*
X2530900Y7049100D01*
X2413000Y6438900D02*
Y6913000D01*
X2276900Y6359368D02*
Y7049100D01*
X2159000Y7167000D02*
X2276900Y7049100D01*
X2159000Y6438900D02*
Y6913000D01*
X2022900Y6359368D02*
Y7049100D01*
X1905000Y7167000D02*
X2022900Y7049100D01*
X1905000Y6438900D02*
Y6913000D01*
X1768900Y6359368D02*
Y7049100D01*
X1651000Y7167000D02*
X1768900Y7049100D01*
X1600200Y6862200D02*
X1651000Y6913000D01*
X1519622Y6403542D02*
Y7044378D01*
X1397000Y7167000D02*
X1519622Y7044378D01*
X1397000Y6438900D02*
Y6913000D01*
X263100Y6390064D02*
Y7030900D01*
X127000Y7167000D02*
X263100Y7030900D01*
X2247900Y5463067D02*
X2792966Y6008134D01*
X2247900Y5266910D02*
Y5463067D01*
X2197100Y5468835D02*
X2752967Y6024702D01*
X2197100Y5230657D02*
Y5468835D01*
X2146300Y5231470D02*
Y5531172D01*
X2922511Y6307383D01*
X2870164Y5887900D02*
X3055100D01*
X2095500Y5269601D02*
Y5613400D01*
X2921000Y6438900D01*
X2055000Y5629469D02*
X2784900Y6359368D01*
X2055000Y5268726D02*
Y5349266D01*
X2055000Y5349266D01*
Y5629469D01*
X1995000Y5313645D02*
Y5359976D01*
X1985000Y5369976D02*
X1995000Y5359976D01*
X1985000Y5756900D02*
X2667000Y6438900D01*
X1985000Y5369976D02*
Y5756900D01*
X1945000Y5773468D02*
X2530900Y6359368D01*
X1945000Y5247935D02*
Y5773468D01*
X1905000Y5930900D02*
X2413000Y6438900D01*
X1905000Y5264504D02*
Y5930900D01*
X1854200Y5936668D02*
X2276900Y6359368D01*
X1854200Y5268726D02*
Y5936668D01*
X1803400Y5265379D02*
Y6083300D01*
X2159000Y6438900D01*
X1752600Y6089068D02*
X2022900Y6359368D01*
X1752600Y5261125D02*
Y6089068D01*
X1701800Y6235700D02*
X1905000Y6438900D01*
X1701800Y5273044D02*
Y6235700D01*
X1651000Y6241468D02*
X1768900Y6359368D01*
X1651000Y5266225D02*
Y6241468D01*
X1600200Y5338100D02*
Y6862200D01*
Y5338100D02*
X1605000Y5333300D01*
Y5273800D02*
Y5333300D01*
X1397000Y6438900D02*
X1498600Y6337300D01*
Y5279738D02*
Y6337300D01*
X1245000Y5277502D02*
Y5359976D01*
X1235000Y5369976D02*
X1245000Y5359976D01*
X1235000Y5369976D02*
Y5754605D01*
X1231900Y5757705D02*
X1235000Y5754605D01*
X263100Y6390064D02*
X1054100Y5599064D01*
X717263Y4839568D02*
X746832Y4810000D01*
X497446Y4988026D02*
X497446Y4979744D01*
X697626Y4854600D02*
X707181Y4845045D01*
X773500Y5005000D02*
X935700D01*
X458900Y5156364D02*
Y5184100D01*
X733831Y4879568D02*
X763400Y4850000D01*
X497446Y4979744D02*
X662590Y4814600D01*
X578870Y5011457D02*
X695727Y4894600D01*
X763900Y5014600D02*
X773500Y5005000D01*
X751806Y4919325D02*
X761132Y4910000D01*
X695727Y4894600D02*
X714194D01*
X712295Y4934600D02*
X730763D01*
X656097Y5047366D02*
X728863Y4974600D01*
X617978Y5028917D02*
X712295Y4934600D01*
X728863Y4974600D02*
X747331D01*
X671800Y4814600D02*
X736400Y4750000D01*
X730763Y4934600D02*
X740363Y4925000D01*
X538835Y5003226D02*
X538835Y5003478D01*
X740363Y4925000D02*
X746131D01*
X618900Y5218864D02*
Y5360541D01*
X723735Y4885060D02*
X728399Y4885000D01*
X662590Y4814600D02*
X671800D01*
X578900Y5203099D02*
Y5343972D01*
X736400Y4750000D02*
X940700D01*
X756932Y4965000D02*
X762700Y4965000D01*
X679158Y4854600D02*
X697626D01*
X497446Y4988031D02*
X497446Y4989540D01*
X498900Y5169973D02*
X502977Y5164609D01*
X538835Y4994923D02*
X679158Y4854600D01*
X538900Y5186531D02*
Y5327404D01*
X714194Y4894600D02*
X723735Y4885060D01*
X745432Y5014600D02*
X763900Y5014600D01*
X762000Y5054600D02*
X936100D01*
X538835Y5003206D02*
X538835Y4994923D01*
X711875Y4844954D02*
X717263Y4839568D01*
X747331Y4974600D02*
X756932Y4965000D01*
X467966Y5139791D02*
X467967Y5139792D01*
X538900Y5186531D02*
X544640Y5180694D01*
X707181Y4845045D02*
X711875Y4844954D01*
X498900Y5176712D02*
X498900Y5169973D01*
X693456Y5066575D02*
X745432Y5014600D01*
X746131Y4925000D02*
X751806Y4919325D01*
X658900Y5233530D02*
Y5377109D01*
X730209Y5086391D02*
X762000Y5054600D01*
X728399Y4885000D02*
X733831Y4879568D01*
X752600Y4810000D02*
X758275Y4804325D01*
X762600Y4800000D01*
X761132Y4910000D02*
X785024D01*
X763400Y4850000D02*
X876200D01*
X746832Y4810000D02*
X752600D01*
X777700Y4950000D02*
X876200D01*
X762700Y4965000D02*
X777700Y4950000D01*
X498900Y5176712D02*
Y5310835D01*
X802300Y4900000D02*
X876200D01*
X785024Y4910000D02*
X790024Y4905000D01*
X355927Y5125838D02*
X355967Y5125834D01*
X263100Y5125900D02*
X354250D01*
X355967Y5125834D02*
X364541Y5125156D01*
X762600Y4800000D02*
X876200D01*
X2486050Y4252250D02*
X2488300Y4250000D01*
X2250150Y4252250D02*
X2486050D01*
X2247900Y4254500D02*
X2250150Y4252250D01*
X2488300Y3995000D02*
X2581045D01*
X762000Y508000D02*
Y613649D01*
X894572Y894572D02*
X943653D01*
X955981Y906900D01*
X1532832D01*
X878660Y773010D02*
X972549Y866900D01*
X762000Y613649D02*
X878660Y730309D01*
Y773010D01*
X762000Y762000D02*
X894572Y894572D01*
X2956219Y6307383D02*
X3038900Y6390064D01*
X2922511Y6307383D02*
X2956219D01*
X2995648Y6267383D02*
X3167165Y6438900D01*
X2792966Y6064702D02*
X2955648Y6227383D01*
X3130219D02*
X3292900Y6390064D01*
X2752967Y6024702D02*
Y6081270D01*
X2792966Y6008134D02*
Y6064702D01*
X2955648Y6227383D02*
X3130219D01*
X2939079Y6267383D02*
X2995648D01*
X2752967Y6081270D02*
X2939079Y6267383D01*
X2488300Y5231500D02*
X2489200Y5232400D01*
X3055100Y5887900D02*
X3173000Y5770000D01*
X2752050Y4956300D02*
Y5095050D01*
X2792050Y5047785D02*
X2870164Y5125900D01*
X2752050Y5095050D02*
X2919000Y5262000D01*
X2792050Y4939732D02*
Y5047785D01*
X2870164Y5125900D02*
X3055100D01*
X2647320Y4795001D02*
X2792050Y4939732D01*
X2584477Y4915001D02*
X2597614D01*
X2634183Y4795001D02*
X2647320D01*
X2493300Y5005000D02*
X2574476D01*
X2601046Y4875001D02*
X2614183D01*
X2630751Y4835001D02*
X2752050Y4956300D01*
X2493300Y4955000D02*
X2581045D01*
X2617614Y4835001D02*
X2630751D01*
X2488300Y5000000D02*
X2493300Y5005000D01*
X2574476Y4905000D02*
X2584477Y4915001D01*
X2587613Y4805000D02*
X2617614Y4835001D01*
X2488300Y4950000D02*
X2493300Y4955000D01*
X2581045Y4855000D02*
X2601046Y4875001D01*
X3055100Y5379900D02*
X3173000Y5262000D01*
X2594181Y4755000D02*
X2634183Y4795001D01*
X3055100Y5633900D02*
X3173000Y5516000D01*
X2488300Y4900000D02*
X2493300Y4905000D01*
X2574476D01*
X2493300Y4855000D02*
X2581045D01*
X2493300Y4755000D02*
X2594181D01*
X2493300Y4805000D02*
X2587613D01*
X2488300Y4850000D02*
X2493300Y4855000D01*
X2488300Y4800000D02*
X2493300Y4805000D01*
X3055100Y5125900D02*
X3173000Y5008000D01*
X2488300Y4750000D02*
X2493300Y4755000D01*
X2488300Y4700000D02*
X2493300Y4705000D01*
X2616000D01*
X2919000Y5008000D01*
X2488300Y4650000D02*
X2648264D01*
X2870164Y4871900D01*
X3055100D01*
X3173000Y4754000D01*
X2725993Y4550000D02*
X2735993Y4560000D01*
X2839468Y4617900D02*
X3055100D01*
X2735993Y4560000D02*
X2781568D01*
X2839468Y4617900D01*
X2488300Y4600000D02*
X2765000D01*
X2919000Y4754000D01*
X2488300Y4550000D02*
X2725993D01*
X3055100Y4617900D02*
X3173000Y4500000D01*
X2488300D02*
X2919000D01*
X2488300Y4450000D02*
X2802264D01*
X2888365Y4363900D01*
X3055100D01*
X3173000Y4246000D01*
X2488300Y4400000D02*
X2765000D01*
X2919000Y4246000D01*
X3036900Y4128100D02*
X3173000Y3992000D01*
X2870164Y4128100D02*
X3036900D01*
X2488300Y4350000D02*
X2648264D01*
X2870164Y4128100D01*
X2488300Y4300000D02*
X2611000D01*
X2919000Y3992000D01*
X2893765Y3763235D02*
X2919000Y3738000D01*
X2801100Y3943164D02*
X2893765Y3850500D01*
Y3763235D02*
Y3850500D01*
X2681100Y3893459D02*
X2721100Y3853459D01*
X2602318Y4200000D02*
X2801100Y4001218D01*
X2592050Y4097131D02*
X2721100Y3968081D01*
X2761100Y3926596D02*
X2801100Y3886596D01*
X2761100Y3926596D02*
Y3984649D01*
X2493300Y3945000D02*
X2574476D01*
X2801100Y3943164D02*
Y4001218D01*
X2601100Y3860322D02*
X2641100Y3820322D01*
Y3876891D02*
Y3934944D01*
X2574476Y3945000D02*
X2601100Y3918376D01*
X2595750Y4150000D02*
X2761100Y3984649D01*
X2601100Y3860322D02*
Y3918376D01*
X2801100Y3689164D02*
Y3886596D01*
X2721100Y3910027D02*
Y3968081D01*
X2761100Y3672596D02*
Y3870028D01*
X2721100Y3656027D02*
Y3853459D01*
X2587613Y4045000D02*
X2681100Y3951513D01*
X2721100Y3910027D02*
X2761100Y3870028D01*
X2581045Y3995000D02*
X2641100Y3934944D01*
Y3876891D02*
X2681100Y3836891D01*
Y3893459D02*
Y3951513D01*
Y3639459D02*
Y3836891D01*
X2641100Y3622891D02*
Y3820322D01*
X2488300Y4200000D02*
X2602318D01*
X2681100Y3442027D02*
Y3582891D01*
X2891256Y3511744D02*
X2919000Y3484000D01*
X2891256Y3511744D02*
Y3561415D01*
X2872570Y3580100D02*
X2891256Y3561415D01*
X2761100Y3672596D02*
X2853596Y3580100D01*
X2721100Y3656027D02*
X2801100Y3576028D01*
X2761100Y3418596D02*
Y3559459D01*
X2853596Y3580100D02*
X2872570D01*
X2801100Y3435164D02*
Y3576028D01*
Y3689164D02*
X2870164Y3620100D01*
X2681100Y3639459D02*
X2761100Y3559459D01*
X2641100Y3622891D02*
X2681100Y3582891D01*
X2488300Y4150000D02*
X2595750D01*
X2870164Y3620100D02*
X3036900D01*
X3173000Y3484000D01*
X2491169Y4097131D02*
X2592050D01*
X2681100Y3442027D02*
X2722320Y3400807D01*
X2488300Y4100000D02*
X2491169Y4097131D01*
X2761100Y3418596D02*
X2853596Y3326100D01*
X2870164Y3366100D02*
X3036900D01*
X3173000Y3230000D01*
X2488300Y4050000D02*
X2493300Y4045000D01*
X2801100Y3435164D02*
X2870164Y3366100D01*
X2722320Y3259944D02*
Y3400807D01*
X2493300Y4045000D02*
X2587613D01*
X2891256Y3257744D02*
Y3307415D01*
X2872570Y3326100D02*
X2891256Y3307415D01*
X2853596Y3326100D02*
X2872570D01*
X2891256Y3257744D02*
X2919000Y3230000D01*
X3036900Y2999600D02*
Y3024835D01*
X2949635Y3112100D02*
X3036900Y3024835D01*
X2870164Y3112100D02*
X2949635D01*
X2722320Y3259944D02*
X2870164Y3112100D01*
X3060500Y2976000D02*
X3173000D01*
X2488300Y3950000D02*
X2493300Y3945000D01*
X3036900Y2999600D02*
X3060500Y2976000D01*
X2488300Y3406700D02*
Y3900000D01*
Y3406700D02*
X2919000Y2976000D01*
X2596300Y2318600D02*
X2666000Y2248900D01*
X2596300Y2318600D02*
Y2827419D01*
X876950Y3471950D02*
Y3895000D01*
X381000Y2976000D02*
X817600Y3412600D01*
X881950Y3900000D02*
X940700D01*
X127000Y3230000D02*
X244900Y3112100D01*
X935700Y3945000D02*
X940700Y3950000D01*
X770832Y4053200D02*
X819791D01*
X127000Y3484000D02*
X244900Y3366100D01*
X127000Y3992000D02*
X244900Y3874100D01*
X802593Y4300000D02*
X940700D01*
X127000Y4246000D02*
X244900Y4128100D01*
X732162Y4350000D02*
X940700D01*
X725593Y4400000D02*
X940700D01*
X570607Y4382100D02*
X638507Y4450000D01*
X244900Y4382100D02*
X570607D01*
X638507Y4450000D02*
X940700D01*
X127000Y4500000D02*
X244900Y4382100D01*
X381000Y4500000D02*
X940700D01*
X127000Y4754000D02*
X244900Y4636100D01*
X497736Y4550000D02*
X940700D01*
X411635Y4636100D02*
X497736Y4550000D01*
X535000Y4600000D02*
X940700D01*
X381000Y4754000D02*
X535000Y4600000D01*
X244900Y4636100D02*
X411635D01*
X429836Y4871900D02*
X651736Y4650000D01*
X381000Y5008000D02*
X689000Y4700000D01*
X940700D01*
X651736Y4650000D02*
X940700D01*
X263100Y4871900D02*
X429836D01*
X127000Y5008000D02*
X263100Y4871900D01*
X127000Y5262000D02*
X263100Y5125900D01*
X381000Y5262000D02*
X458900Y5184100D01*
X381000Y5262000D02*
Y5262000D01*
X596980Y5382461D02*
X618900Y5360541D01*
X642379Y5393629D02*
Y5675356D01*
X556980Y5365892D02*
Y5506756D01*
Y5365892D02*
X578900Y5343972D01*
X596980Y5382461D02*
Y5554020D01*
X516980Y5349324D02*
Y5380020D01*
Y5349324D02*
X538900Y5327404D01*
X244900Y5398100D02*
X411635D01*
X127000Y5516000D02*
X244900Y5398100D01*
X411635D02*
X498900Y5310835D01*
X642379Y5393629D02*
X658900Y5377109D01*
X381000Y5516000D02*
X516980Y5380020D01*
X127000Y5770000D02*
X263100Y5633900D01*
X429836D02*
X556980Y5506756D01*
X263100Y5633900D02*
X429836D01*
X381000Y5770000D02*
X596980Y5554020D01*
X263100Y5887900D02*
X429836D01*
X642379Y5675356D01*
X127000Y6024000D02*
X263100Y5887900D01*
X381000Y6024000D02*
X876950Y5528050D01*
Y5105000D02*
Y5528050D01*
Y5105000D02*
X881950Y5100000D01*
X940700D01*
D11*
X876300Y3475900D02*
D03*
Y3305900D02*
D03*
X736600Y1342300D02*
D03*
Y1172300D02*
D03*
X2590800Y1316900D02*
D03*
Y1146900D02*
D03*
D12*
X1050000Y3726200D02*
D03*
X1100000D02*
D03*
X1150000D02*
D03*
X1200000D02*
D03*
X1250000D02*
D03*
X1300000D02*
D03*
X1350000D02*
D03*
X1400000D02*
D03*
X1450000D02*
D03*
X1500000D02*
D03*
X1550000D02*
D03*
X1600000D02*
D03*
X1650000D02*
D03*
X1700000D02*
D03*
X1750000D02*
D03*
X1800000D02*
D03*
X1850000D02*
D03*
X1900000D02*
D03*
X1950000D02*
D03*
X2000000D02*
D03*
X2050000D02*
D03*
X2100000D02*
D03*
X2150000D02*
D03*
X2200000D02*
D03*
X2250000D02*
D03*
Y5273800D02*
D03*
X2200000D02*
D03*
X2150000D02*
D03*
X2100000D02*
D03*
X2050000D02*
D03*
X2000000D02*
D03*
X1950000D02*
D03*
X1900000D02*
D03*
X1850000D02*
D03*
X1800000D02*
D03*
X1750000D02*
D03*
X1700000D02*
D03*
X1650000D02*
D03*
X1600000D02*
D03*
X1550000D02*
D03*
X1500000D02*
D03*
X1450000D02*
D03*
X1400000D02*
D03*
X1350000D02*
D03*
X1300000D02*
D03*
X1250000D02*
D03*
X1200000D02*
D03*
X1150000D02*
D03*
X1100000D02*
D03*
X1050000D02*
D03*
D13*
X2423800Y3900000D02*
D03*
Y3950000D02*
D03*
Y4000000D02*
D03*
Y4050000D02*
D03*
Y4100000D02*
D03*
Y4150000D02*
D03*
Y4200000D02*
D03*
Y4250000D02*
D03*
Y4300000D02*
D03*
Y4350000D02*
D03*
Y4400000D02*
D03*
Y4450000D02*
D03*
Y4500000D02*
D03*
Y4550000D02*
D03*
Y4600000D02*
D03*
Y4650000D02*
D03*
Y4700000D02*
D03*
Y4750000D02*
D03*
Y4800000D02*
D03*
Y4850000D02*
D03*
Y4900000D02*
D03*
Y4950000D02*
D03*
Y5000000D02*
D03*
Y5050000D02*
D03*
Y5100000D02*
D03*
X876200D02*
D03*
Y5050000D02*
D03*
Y5000000D02*
D03*
Y4950000D02*
D03*
Y4900000D02*
D03*
Y4850000D02*
D03*
Y4800000D02*
D03*
Y4750000D02*
D03*
Y4700000D02*
D03*
Y4650000D02*
D03*
Y4600000D02*
D03*
Y4550000D02*
D03*
Y4500000D02*
D03*
Y4450000D02*
D03*
Y4400000D02*
D03*
Y4350000D02*
D03*
Y4300000D02*
D03*
Y4250000D02*
D03*
Y4200000D02*
D03*
Y4150000D02*
D03*
Y4100000D02*
D03*
Y4050000D02*
D03*
Y4000000D02*
D03*
Y3950000D02*
D03*
Y3900000D02*
D03*
D14*
X2138700Y1358900D02*
D03*
X1188700D02*
D03*
D15*
X569750Y4025642D02*
X744108Y4200000D01*
X381000Y3741818D02*
X569750Y3930568D01*
X381000Y3738000D02*
Y3741818D01*
X744108Y4200000D02*
X876200D01*
X569750Y3930568D02*
Y4025642D01*
X2548800Y1358900D02*
X2590800Y1316900D01*
X2138700Y1358900D02*
X2548800D01*
X1172100Y1342300D02*
X1188700Y1358900D01*
X736600Y1342300D02*
X1172100D01*
X1650000Y1833000D02*
X2124100Y1358900D01*
X2138700D01*
X1516600Y1783046D02*
Y1882954D01*
X1188700Y1358900D02*
Y1468100D01*
X1433000Y1712400D01*
X1445954D01*
X1516600Y1783046D01*
X1396000Y2003554D02*
X1516600Y1882954D01*
X1396000Y2003554D02*
Y2087000D01*
X1403496Y2102066D02*
Y2763231D01*
X1600200Y2959935D01*
Y3688802D01*
D16*
X126000Y1833000D02*
D03*
X3175000Y7167000D02*
D03*
D17*
X126000Y2087000D02*
D03*
X380000Y1833000D02*
D03*
Y2087000D02*
D03*
X634000Y1833000D02*
D03*
Y2087000D02*
D03*
X888000Y1833000D02*
D03*
Y2087000D02*
D03*
X1142000Y1833000D02*
D03*
Y2087000D02*
D03*
X1396000Y1833000D02*
D03*
Y2087000D02*
D03*
X1650000Y1833000D02*
D03*
Y2087000D02*
D03*
X1904000Y1833000D02*
D03*
Y2087000D02*
D03*
X2158000Y1833000D02*
D03*
Y2087000D02*
D03*
X2412000Y1833000D02*
D03*
Y2087000D02*
D03*
X2666000Y1833000D02*
D03*
Y2087000D02*
D03*
X2920000Y1833000D02*
D03*
Y2087000D02*
D03*
X3174000Y1833000D02*
D03*
Y2087000D02*
D03*
X127000Y6913000D02*
D03*
Y7167000D02*
D03*
X381000Y6913000D02*
D03*
Y7167000D02*
D03*
X635000Y6913000D02*
D03*
Y7167000D02*
D03*
X889000Y6913000D02*
D03*
Y7167000D02*
D03*
X1143000Y6913000D02*
D03*
Y7167000D02*
D03*
X1397000Y6913000D02*
D03*
Y7167000D02*
D03*
X1651000Y6913000D02*
D03*
Y7167000D02*
D03*
X1905000Y6913000D02*
D03*
Y7167000D02*
D03*
X2159000Y6913000D02*
D03*
Y7167000D02*
D03*
X2413000Y6913000D02*
D03*
Y7167000D02*
D03*
X2667000Y6913000D02*
D03*
Y7167000D02*
D03*
X2921000Y6913000D02*
D03*
Y7167000D02*
D03*
X3175000Y6913000D02*
D03*
X2919000Y2976000D02*
D03*
X3173000Y3230000D02*
D03*
X2919000D02*
D03*
X3173000Y3484000D02*
D03*
X2919000D02*
D03*
X3173000Y3738000D02*
D03*
X2919000D02*
D03*
X3173000Y3992000D02*
D03*
X2919000D02*
D03*
X3173000Y4246000D02*
D03*
X2919000D02*
D03*
X3173000Y4500000D02*
D03*
X2919000D02*
D03*
X3173000Y4754000D02*
D03*
X2919000D02*
D03*
X3173000Y5008000D02*
D03*
X2919000D02*
D03*
X3173000Y5262000D02*
D03*
X2919000D02*
D03*
X3173000Y5516000D02*
D03*
X2919000D02*
D03*
X3173000Y5770000D02*
D03*
X2919000D02*
D03*
X3173000Y6024000D02*
D03*
X2919000D02*
D03*
X381000D02*
D03*
X127000Y5770000D02*
D03*
X381000D02*
D03*
X127000Y5516000D02*
D03*
X381000D02*
D03*
X127000Y5262000D02*
D03*
X381000D02*
D03*
X127000Y5008000D02*
D03*
X381000D02*
D03*
X127000Y4754000D02*
D03*
X381000D02*
D03*
X127000Y4500000D02*
D03*
X381000D02*
D03*
X127000Y4246000D02*
D03*
X381000D02*
D03*
X127000Y3992000D02*
D03*
X381000D02*
D03*
X127000Y3738000D02*
D03*
X381000D02*
D03*
X127000Y3484000D02*
D03*
X381000D02*
D03*
X127000Y3230000D02*
D03*
X381000D02*
D03*
X127000Y2976000D02*
D03*
X381000D02*
D03*
D18*
X3173000D02*
D03*
X127000Y6024000D02*
D03*
D19*
X508000Y508000D02*
D03*
Y8238000D02*
D03*
D20*
Y762000D02*
D03*
X762000Y508000D02*
D03*
Y762000D02*
D03*
X1016000Y508000D02*
D03*
Y762000D02*
D03*
X1270000Y508000D02*
D03*
Y762000D02*
D03*
X1524000Y508000D02*
D03*
Y762000D02*
D03*
X1778000Y508000D02*
D03*
Y762000D02*
D03*
X2032000Y508000D02*
D03*
Y762000D02*
D03*
X2286000Y508000D02*
D03*
Y762000D02*
D03*
X2540000Y508000D02*
D03*
Y762000D02*
D03*
X2794000Y508000D02*
D03*
Y762000D02*
D03*
X508000Y8492000D02*
D03*
X762000Y8238000D02*
D03*
Y8492000D02*
D03*
X1016000Y8238000D02*
D03*
Y8492000D02*
D03*
X1270000Y8238000D02*
D03*
Y8492000D02*
D03*
X1524000Y8238000D02*
D03*
Y8492000D02*
D03*
X1778000Y8238000D02*
D03*
Y8492000D02*
D03*
X2032000Y8238000D02*
D03*
Y8492000D02*
D03*
X2286000Y8238000D02*
D03*
Y8492000D02*
D03*
X2540000Y8238000D02*
D03*
Y8492000D02*
D03*
X2794000Y8238000D02*
D03*
Y8492000D02*
D03*
D21*
X279400Y7429500D02*
D03*
X1041400D02*
D03*
X533400D02*
D03*
X787400D02*
D03*
X1295400D02*
D03*
X2057400D02*
D03*
X1803400D02*
D03*
X1549400D02*
D03*
X3073400D02*
D03*
X2819400D02*
D03*
X2311400D02*
D03*
X2565400D02*
D03*
X2311400Y7937500D02*
D03*
Y7683500D02*
D03*
X2565400D02*
D03*
Y7937500D02*
D03*
X3073400D02*
D03*
Y7683500D02*
D03*
X2819400D02*
D03*
Y7937500D02*
D03*
X1295400D02*
D03*
Y7683500D02*
D03*
X1549400D02*
D03*
Y7937500D02*
D03*
X2057400D02*
D03*
Y7683500D02*
D03*
X1803400D02*
D03*
Y7937500D02*
D03*
X787400D02*
D03*
Y7683500D02*
D03*
X1041400D02*
D03*
Y7937500D02*
D03*
X533400D02*
D03*
Y7683500D02*
D03*
X279400D02*
D03*
Y7937500D02*
D03*
D22*
X2247900Y4254500D02*
D03*
X2489200Y5232400D02*
D03*
%TF.MD5,ead513df451ab404ca727cef9401aca9*%
M02*
