%TF.GenerationSoftware,Altium Limited,Altium Designer,23.4.1 (23)*%
G04 Layer_Color=255*
%FSLAX45Y45*%
%MOMM*%
%TF.SameCoordinates,7ABC1050-9991-4EB7-8225-191FA7049C92*%
%TF.FilePolarity,Positive*%
%TF.FileFunction,Pads,Top*%
%TF.Part,Single*%
G01*
G75*
%TA.AperFunction,SMDPad,CuDef*%
%ADD11R,1.00000X1.10000*%
%ADD12R,0.30000X1.47500*%
%ADD13R,1.47500X0.30000*%
%ADD14R,5.60000X2.10000*%
%TA.AperFunction,ComponentPad*%
%ADD16R,1.65000X1.65000*%
%ADD17C,1.65000*%
%ADD18R,1.65000X1.65000*%
%ADD19R,1.39000X1.39000*%
%ADD20C,1.39000*%
%TA.AperFunction,ViaPad*%
%ADD21R,2.00000X2.00000*%
D11*
X876300Y3475900D02*
D03*
Y3305900D02*
D03*
X736600Y1342300D02*
D03*
Y1172300D02*
D03*
X2590800Y1316900D02*
D03*
Y1146900D02*
D03*
D12*
X1050000Y3726200D02*
D03*
X1100000D02*
D03*
X1150000D02*
D03*
X1200000D02*
D03*
X1250000D02*
D03*
X1300000D02*
D03*
X1350000D02*
D03*
X1400000D02*
D03*
X1450000D02*
D03*
X1500000D02*
D03*
X1550000D02*
D03*
X1600000D02*
D03*
X1650000D02*
D03*
X1700000D02*
D03*
X1750000D02*
D03*
X1800000D02*
D03*
X1850000D02*
D03*
X1900000D02*
D03*
X1950000D02*
D03*
X2000000D02*
D03*
X2050000D02*
D03*
X2100000D02*
D03*
X2150000D02*
D03*
X2200000D02*
D03*
X2250000D02*
D03*
Y5273800D02*
D03*
X2200000D02*
D03*
X2150000D02*
D03*
X2100000D02*
D03*
X2050000D02*
D03*
X2000000D02*
D03*
X1950000D02*
D03*
X1900000D02*
D03*
X1850000D02*
D03*
X1800000D02*
D03*
X1750000D02*
D03*
X1700000D02*
D03*
X1650000D02*
D03*
X1600000D02*
D03*
X1550000D02*
D03*
X1500000D02*
D03*
X1450000D02*
D03*
X1400000D02*
D03*
X1350000D02*
D03*
X1300000D02*
D03*
X1250000D02*
D03*
X1200000D02*
D03*
X1150000D02*
D03*
X1100000D02*
D03*
X1050000D02*
D03*
D13*
X2423800Y3900000D02*
D03*
Y3950000D02*
D03*
Y4000000D02*
D03*
Y4050000D02*
D03*
Y4100000D02*
D03*
Y4150000D02*
D03*
Y4200000D02*
D03*
Y4250000D02*
D03*
Y4300000D02*
D03*
Y4350000D02*
D03*
Y4400000D02*
D03*
Y4450000D02*
D03*
Y4500000D02*
D03*
Y4550000D02*
D03*
Y4600000D02*
D03*
Y4650000D02*
D03*
Y4700000D02*
D03*
Y4750000D02*
D03*
Y4800000D02*
D03*
Y4850000D02*
D03*
Y4900000D02*
D03*
Y4950000D02*
D03*
Y5000000D02*
D03*
Y5050000D02*
D03*
Y5100000D02*
D03*
X876200D02*
D03*
Y5050000D02*
D03*
Y5000000D02*
D03*
Y4950000D02*
D03*
Y4900000D02*
D03*
Y4850000D02*
D03*
Y4800000D02*
D03*
Y4750000D02*
D03*
Y4700000D02*
D03*
Y4650000D02*
D03*
Y4600000D02*
D03*
Y4550000D02*
D03*
Y4500000D02*
D03*
Y4450000D02*
D03*
Y4400000D02*
D03*
Y4350000D02*
D03*
Y4300000D02*
D03*
Y4250000D02*
D03*
Y4200000D02*
D03*
Y4150000D02*
D03*
Y4100000D02*
D03*
Y4050000D02*
D03*
Y4000000D02*
D03*
Y3950000D02*
D03*
Y3900000D02*
D03*
D14*
X2138700Y1358900D02*
D03*
X1188700D02*
D03*
D16*
X126000Y1833000D02*
D03*
X3175000Y7167000D02*
D03*
D17*
X126000Y2087000D02*
D03*
X380000Y1833000D02*
D03*
Y2087000D02*
D03*
X634000Y1833000D02*
D03*
Y2087000D02*
D03*
X888000Y1833000D02*
D03*
Y2087000D02*
D03*
X1142000Y1833000D02*
D03*
Y2087000D02*
D03*
X1396000Y1833000D02*
D03*
Y2087000D02*
D03*
X1650000Y1833000D02*
D03*
Y2087000D02*
D03*
X1904000Y1833000D02*
D03*
Y2087000D02*
D03*
X2158000Y1833000D02*
D03*
Y2087000D02*
D03*
X2412000Y1833000D02*
D03*
Y2087000D02*
D03*
X2666000Y1833000D02*
D03*
Y2087000D02*
D03*
X2920000Y1833000D02*
D03*
Y2087000D02*
D03*
X3174000Y1833000D02*
D03*
Y2087000D02*
D03*
X127000Y6913000D02*
D03*
Y7167000D02*
D03*
X381000Y6913000D02*
D03*
Y7167000D02*
D03*
X635000Y6913000D02*
D03*
Y7167000D02*
D03*
X889000Y6913000D02*
D03*
Y7167000D02*
D03*
X1143000Y6913000D02*
D03*
Y7167000D02*
D03*
X1397000Y6913000D02*
D03*
Y7167000D02*
D03*
X1651000Y6913000D02*
D03*
Y7167000D02*
D03*
X1905000Y6913000D02*
D03*
Y7167000D02*
D03*
X2159000Y6913000D02*
D03*
Y7167000D02*
D03*
X2413000Y6913000D02*
D03*
Y7167000D02*
D03*
X2667000Y6913000D02*
D03*
Y7167000D02*
D03*
X2921000Y6913000D02*
D03*
Y7167000D02*
D03*
X3175000Y6913000D02*
D03*
X2919000Y2976000D02*
D03*
X3173000Y3230000D02*
D03*
X2919000D02*
D03*
X3173000Y3484000D02*
D03*
X2919000D02*
D03*
X3173000Y3738000D02*
D03*
X2919000D02*
D03*
X3173000Y3992000D02*
D03*
X2919000D02*
D03*
X3173000Y4246000D02*
D03*
X2919000D02*
D03*
X3173000Y4500000D02*
D03*
X2919000D02*
D03*
X3173000Y4754000D02*
D03*
X2919000D02*
D03*
X3173000Y5008000D02*
D03*
X2919000D02*
D03*
X3173000Y5262000D02*
D03*
X2919000D02*
D03*
X3173000Y5516000D02*
D03*
X2919000D02*
D03*
X3173000Y5770000D02*
D03*
X2919000D02*
D03*
X3173000Y6024000D02*
D03*
X2919000D02*
D03*
X381000D02*
D03*
X127000Y5770000D02*
D03*
X381000D02*
D03*
X127000Y5516000D02*
D03*
X381000D02*
D03*
X127000Y5262000D02*
D03*
X381000D02*
D03*
X127000Y5008000D02*
D03*
X381000D02*
D03*
X127000Y4754000D02*
D03*
X381000D02*
D03*
X127000Y4500000D02*
D03*
X381000D02*
D03*
X127000Y4246000D02*
D03*
X381000D02*
D03*
X127000Y3992000D02*
D03*
X381000D02*
D03*
X127000Y3738000D02*
D03*
X381000D02*
D03*
X127000Y3484000D02*
D03*
X381000D02*
D03*
X127000Y3230000D02*
D03*
X381000D02*
D03*
X127000Y2976000D02*
D03*
X381000D02*
D03*
D18*
X3173000D02*
D03*
X127000Y6024000D02*
D03*
D19*
X508000Y508000D02*
D03*
Y8238000D02*
D03*
D20*
Y762000D02*
D03*
X762000Y508000D02*
D03*
Y762000D02*
D03*
X1016000Y508000D02*
D03*
Y762000D02*
D03*
X1270000Y508000D02*
D03*
Y762000D02*
D03*
X1524000Y508000D02*
D03*
Y762000D02*
D03*
X1778000Y508000D02*
D03*
Y762000D02*
D03*
X2032000Y508000D02*
D03*
Y762000D02*
D03*
X2286000Y508000D02*
D03*
Y762000D02*
D03*
X2540000Y508000D02*
D03*
Y762000D02*
D03*
X2794000Y508000D02*
D03*
Y762000D02*
D03*
X508000Y8492000D02*
D03*
X762000Y8238000D02*
D03*
Y8492000D02*
D03*
X1016000Y8238000D02*
D03*
Y8492000D02*
D03*
X1270000Y8238000D02*
D03*
Y8492000D02*
D03*
X1524000Y8238000D02*
D03*
Y8492000D02*
D03*
X1778000Y8238000D02*
D03*
Y8492000D02*
D03*
X2032000Y8238000D02*
D03*
Y8492000D02*
D03*
X2286000Y8238000D02*
D03*
Y8492000D02*
D03*
X2540000Y8238000D02*
D03*
Y8492000D02*
D03*
X2794000Y8238000D02*
D03*
Y8492000D02*
D03*
D21*
X279400Y7429500D02*
D03*
X1041400D02*
D03*
X533400D02*
D03*
X787400D02*
D03*
X1295400D02*
D03*
X2057400D02*
D03*
X1803400D02*
D03*
X1549400D02*
D03*
X3073400D02*
D03*
X2819400D02*
D03*
X2311400D02*
D03*
X2565400D02*
D03*
X2311400Y7937500D02*
D03*
Y7683500D02*
D03*
X2565400D02*
D03*
Y7937500D02*
D03*
X3073400D02*
D03*
Y7683500D02*
D03*
X2819400D02*
D03*
Y7937500D02*
D03*
X1295400D02*
D03*
Y7683500D02*
D03*
X1549400D02*
D03*
Y7937500D02*
D03*
X2057400D02*
D03*
Y7683500D02*
D03*
X1803400D02*
D03*
Y7937500D02*
D03*
X787400D02*
D03*
Y7683500D02*
D03*
X1041400D02*
D03*
Y7937500D02*
D03*
X533400D02*
D03*
Y7683500D02*
D03*
X279400D02*
D03*
Y7937500D02*
D03*
%TF.MD5,5e52e31c262dd2b820ab7bfd2b4f30fd*%
M02*
