%TF.GenerationSoftware,Altium Limited,Altium Designer,23.4.1 (23)*%
G04 Layer_Color=0*
%FSLAX45Y45*%
%MOMM*%
%TF.SameCoordinates,7ABC1050-9991-4EB7-8225-191FA7049C92*%
%TF.FilePolarity,Positive*%
%TF.FileFunction,Plated,1,2,PTH,Drill*%
%TF.Part,Single*%
G01*
G75*
%TA.AperFunction,ComponentDrill*%
%ADD43C,1.10000*%
%ADD44C,1.10000*%
%ADD45C,1.04000*%
%TA.AperFunction,OtherDrill,Pad Free-17 (2.794mm,74.295mm)*%
%ADD46C,0.76200*%
%TA.AperFunction,OtherDrill,Pad Free-17 (10.414mm,74.295mm)*%
%ADD47C,0.76200*%
%TA.AperFunction,OtherDrill,Pad Free-17 (5.334mm,74.295mm)*%
%ADD48C,0.76200*%
%TA.AperFunction,OtherDrill,Pad Free-17 (7.874mm,74.295mm)*%
%ADD49C,0.76200*%
%TA.AperFunction,OtherDrill,Pad Free-17 (12.954mm,74.295mm)*%
%ADD50C,0.76200*%
%TA.AperFunction,OtherDrill,Pad Free-17 (20.574mm,74.295mm)*%
%ADD51C,0.76200*%
%TA.AperFunction,OtherDrill,Pad Free-17 (18.034mm,74.295mm)*%
%ADD52C,0.76200*%
%TA.AperFunction,OtherDrill,Pad Free-17 (15.494mm,74.295mm)*%
%ADD53C,0.76200*%
%TA.AperFunction,OtherDrill,Pad Free-17 (30.734mm,74.295mm)*%
%ADD54C,0.76200*%
%TA.AperFunction,OtherDrill,Pad Free-17 (28.194mm,74.295mm)*%
%ADD55C,0.76200*%
%TA.AperFunction,OtherDrill,Pad Free-17 (23.114mm,74.295mm)*%
%ADD56C,0.76200*%
%TA.AperFunction,OtherDrill,Pad Free-17 (25.654mm,74.295mm)*%
%ADD57C,0.76200*%
%TA.AperFunction,OtherDrill,Pad Free-17 (23.114mm,79.375mm)*%
%ADD58C,0.76200*%
%TA.AperFunction,OtherDrill,Pad Free-17 (23.114mm,76.835mm)*%
%ADD59C,0.76200*%
%TA.AperFunction,OtherDrill,Pad Free-17 (25.654mm,76.835mm)*%
%ADD60C,0.76200*%
%TA.AperFunction,OtherDrill,Pad Free-17 (25.654mm,79.375mm)*%
%ADD61C,0.76200*%
%TA.AperFunction,OtherDrill,Pad Free-17 (30.734mm,79.375mm)*%
%ADD62C,0.76200*%
%TA.AperFunction,OtherDrill,Pad Free-17 (30.734mm,76.835mm)*%
%ADD63C,0.76200*%
%TA.AperFunction,OtherDrill,Pad Free-17 (28.194mm,76.835mm)*%
%ADD64C,0.76200*%
%TA.AperFunction,OtherDrill,Pad Free-17 (28.194mm,79.375mm)*%
%ADD65C,0.76200*%
%TA.AperFunction,OtherDrill,Pad Free-17 (12.954mm,79.375mm)*%
%ADD66C,0.76200*%
%TA.AperFunction,OtherDrill,Pad Free-17 (12.954mm,76.835mm)*%
%ADD67C,0.76200*%
%TA.AperFunction,OtherDrill,Pad Free-17 (15.494mm,76.835mm)*%
%ADD68C,0.76200*%
%TA.AperFunction,OtherDrill,Pad Free-17 (15.494mm,79.375mm)*%
%ADD69C,0.76200*%
%TA.AperFunction,OtherDrill,Pad Free-17 (20.574mm,79.375mm)*%
%ADD70C,0.76200*%
%TA.AperFunction,OtherDrill,Pad Free-17 (20.574mm,76.835mm)*%
%ADD71C,0.76200*%
%TA.AperFunction,OtherDrill,Pad Free-17 (18.034mm,76.835mm)*%
%ADD72C,0.76200*%
%TA.AperFunction,OtherDrill,Pad Free-17 (18.034mm,79.375mm)*%
%ADD73C,0.76200*%
%TA.AperFunction,OtherDrill,Pad Free-17 (7.874mm,79.375mm)*%
%ADD74C,0.76200*%
%TA.AperFunction,OtherDrill,Pad Free-17 (7.874mm,76.835mm)*%
%ADD75C,0.76200*%
%TA.AperFunction,OtherDrill,Pad Free-17 (10.414mm,76.835mm)*%
%ADD76C,0.76200*%
%TA.AperFunction,OtherDrill,Pad Free-17 (10.414mm,79.375mm)*%
%ADD77C,0.76200*%
%TA.AperFunction,OtherDrill,Pad Free-17 (5.334mm,79.375mm)*%
%ADD78C,0.76200*%
%TA.AperFunction,OtherDrill,Pad Free-17 (5.334mm,76.835mm)*%
%ADD79C,0.76200*%
%TA.AperFunction,OtherDrill,Pad Free-17 (2.794mm,76.835mm)*%
%ADD80C,0.76200*%
%TA.AperFunction,OtherDrill,Pad Free-17 (2.794mm,79.375mm)*%
%ADD81C,0.76200*%
%TA.AperFunction,ViaDrill,NotFilled*%
%ADD82C,0.60000*%
D43*
X126000Y1833000D02*
D03*
Y2087000D02*
D03*
X380000Y1833000D02*
D03*
Y2087000D02*
D03*
X634000Y1833000D02*
D03*
Y2087000D02*
D03*
X888000Y1833000D02*
D03*
Y2087000D02*
D03*
X1142000Y1833000D02*
D03*
Y2087000D02*
D03*
X1396000Y1833000D02*
D03*
Y2087000D02*
D03*
X1650000Y1833000D02*
D03*
Y2087000D02*
D03*
X1904000Y1833000D02*
D03*
Y2087000D02*
D03*
X2158000Y1833000D02*
D03*
Y2087000D02*
D03*
X2412000Y1833000D02*
D03*
Y2087000D02*
D03*
X2666000Y1833000D02*
D03*
Y2087000D02*
D03*
X2920000Y1833000D02*
D03*
Y2087000D02*
D03*
X3174000Y1833000D02*
D03*
Y2087000D02*
D03*
X127000Y6913000D02*
D03*
Y7167000D02*
D03*
X381000Y6913000D02*
D03*
Y7167000D02*
D03*
X635000Y6913000D02*
D03*
Y7167000D02*
D03*
X889000Y6913000D02*
D03*
Y7167000D02*
D03*
X1143000Y6913000D02*
D03*
Y7167000D02*
D03*
X1397000Y6913000D02*
D03*
Y7167000D02*
D03*
X1651000Y6913000D02*
D03*
Y7167000D02*
D03*
X1905000Y6913000D02*
D03*
Y7167000D02*
D03*
X2159000Y6913000D02*
D03*
Y7167000D02*
D03*
X2413000Y6913000D02*
D03*
Y7167000D02*
D03*
X2667000Y6913000D02*
D03*
Y7167000D02*
D03*
X2921000Y6913000D02*
D03*
Y7167000D02*
D03*
X3175000Y6913000D02*
D03*
Y7167000D02*
D03*
D44*
X3173000Y2976000D02*
D03*
X2919000D02*
D03*
X3173000Y3230000D02*
D03*
X2919000D02*
D03*
X3173000Y3484000D02*
D03*
X2919000D02*
D03*
X3173000Y3738000D02*
D03*
X2919000D02*
D03*
X3173000Y3992000D02*
D03*
X2919000D02*
D03*
X3173000Y4246000D02*
D03*
X2919000D02*
D03*
X3173000Y4500000D02*
D03*
X2919000D02*
D03*
X3173000Y4754000D02*
D03*
X2919000D02*
D03*
X3173000Y5008000D02*
D03*
X2919000D02*
D03*
X3173000Y5262000D02*
D03*
X2919000D02*
D03*
X3173000Y5516000D02*
D03*
X2919000D02*
D03*
X3173000Y5770000D02*
D03*
X2919000D02*
D03*
X3173000Y6024000D02*
D03*
X2919000D02*
D03*
X127000D02*
D03*
X381000D02*
D03*
X127000Y5770000D02*
D03*
X381000D02*
D03*
X127000Y5516000D02*
D03*
X381000D02*
D03*
X127000Y5262000D02*
D03*
X381000D02*
D03*
X127000Y5008000D02*
D03*
X381000D02*
D03*
X127000Y4754000D02*
D03*
X381000D02*
D03*
X127000Y4500000D02*
D03*
X381000D02*
D03*
X127000Y4246000D02*
D03*
X381000D02*
D03*
X127000Y3992000D02*
D03*
X381000D02*
D03*
X127000Y3738000D02*
D03*
X381000D02*
D03*
X127000Y3484000D02*
D03*
X381000D02*
D03*
X127000Y3230000D02*
D03*
X381000D02*
D03*
X127000Y2976000D02*
D03*
X381000D02*
D03*
D45*
X508000Y508000D02*
D03*
Y762000D02*
D03*
X762000Y508000D02*
D03*
Y762000D02*
D03*
X1016000Y508000D02*
D03*
Y762000D02*
D03*
X1270000Y508000D02*
D03*
Y762000D02*
D03*
X1524000Y508000D02*
D03*
Y762000D02*
D03*
X1778000Y508000D02*
D03*
Y762000D02*
D03*
X2032000Y508000D02*
D03*
Y762000D02*
D03*
X2286000Y508000D02*
D03*
Y762000D02*
D03*
X2540000Y508000D02*
D03*
Y762000D02*
D03*
X2794000Y508000D02*
D03*
Y762000D02*
D03*
X508000Y8238000D02*
D03*
Y8492000D02*
D03*
X762000Y8238000D02*
D03*
Y8492000D02*
D03*
X1016000Y8238000D02*
D03*
Y8492000D02*
D03*
X1270000Y8238000D02*
D03*
Y8492000D02*
D03*
X1524000Y8238000D02*
D03*
Y8492000D02*
D03*
X1778000Y8238000D02*
D03*
Y8492000D02*
D03*
X2032000Y8238000D02*
D03*
Y8492000D02*
D03*
X2286000Y8238000D02*
D03*
Y8492000D02*
D03*
X2540000Y8238000D02*
D03*
Y8492000D02*
D03*
X2794000Y8238000D02*
D03*
Y8492000D02*
D03*
D46*
X279400Y7429500D02*
D03*
D47*
X1041400D02*
D03*
D48*
X533400D02*
D03*
D49*
X787400D02*
D03*
D50*
X1295400D02*
D03*
D51*
X2057400D02*
D03*
D52*
X1803400D02*
D03*
D53*
X1549400D02*
D03*
D54*
X3073400D02*
D03*
D55*
X2819400D02*
D03*
D56*
X2311400D02*
D03*
D57*
X2565400D02*
D03*
D58*
X2311400Y7937500D02*
D03*
D59*
Y7683500D02*
D03*
D60*
X2565400D02*
D03*
D61*
Y7937500D02*
D03*
D62*
X3073400D02*
D03*
D63*
Y7683500D02*
D03*
D64*
X2819400D02*
D03*
D65*
Y7937500D02*
D03*
D66*
X1295400D02*
D03*
D67*
Y7683500D02*
D03*
D68*
X1549400D02*
D03*
D69*
Y7937500D02*
D03*
D70*
X2057400D02*
D03*
D71*
Y7683500D02*
D03*
D72*
X1803400D02*
D03*
D73*
Y7937500D02*
D03*
D74*
X787400D02*
D03*
D75*
Y7683500D02*
D03*
D76*
X1041400D02*
D03*
D77*
Y7937500D02*
D03*
D78*
X533400D02*
D03*
D79*
Y7683500D02*
D03*
D80*
X279400D02*
D03*
D81*
Y7937500D02*
D03*
D82*
X2247900Y4254500D02*
D03*
X2489200Y5232400D02*
D03*
%TF.MD5,8bf2ee1a9b615747f144d6c4d74917f6*%
M02*
