%TF.GenerationSoftware,Altium Limited,Altium Designer,23.4.1 (23)*%
G04 Layer_Color=16711935*
%FSLAX45Y45*%
%MOMM*%
%TF.SameCoordinates,576A2805-CD40-4E5C-B7A3-750DB6231075*%
%TF.FilePolarity,Positive*%
%TF.FileFunction,Other,Mechanical_1*%
%TF.Part,Single*%
G01*
G75*
%TA.AperFunction,NonConductor*%
%ADD92C,0.00000*%
D92*
X12127327Y1626094D02*
G03*
X12096080Y1640998I-30569J-23883D01*
G01*
X12096200Y1641000D02*
G03*
X12056200Y1601000I0J-40000D01*
G01*
X12056200Y1601070D02*
G03*
X12076139Y1566535I39878J0D01*
G01*
Y973465D02*
G03*
X12056200Y938930I19939J-34535D01*
G01*
X12056200Y939000D02*
G03*
X12096200Y899000I40000J0D01*
G01*
X12096080Y899002D02*
G03*
X12127327Y913906I677J38787D01*
G01*
X12137526Y3634894D02*
G03*
X12106280Y3649798I-30569J-23883D01*
G01*
X12106400Y3649800D02*
G03*
X12066400Y3609800I0J-40000D01*
G01*
X12066400Y3609870D02*
G03*
X12086339Y3575335I39878J0D01*
G01*
Y2982265D02*
G03*
X12066400Y2947729I19939J-34535D01*
G01*
X12066400Y2947800D02*
G03*
X12106400Y2907800I40000J0D01*
G01*
X12106280Y2907802D02*
G03*
X12137526Y2922706I677J38787D01*
G01*
X695320Y2735398D02*
G03*
X664074Y2720494I-677J-38787D01*
G01*
X735200Y2695400D02*
G03*
X695200Y2735400I-40000J0D01*
G01*
X715261Y2660935D02*
G03*
X735200Y2695470I-19939J34535D01*
G01*
Y2033329D02*
G03*
X715261Y2067865I-39878J0D01*
G01*
X695200Y1993400D02*
G03*
X735200Y2033400I0J40000D01*
G01*
X664074Y2008306D02*
G03*
X695320Y1993402I30569J23883D01*
G01*
X12776200Y1626000D02*
Y1770000D01*
X12127400Y1626000D02*
X12776200D01*
X12076200Y973500D02*
Y1566500D01*
X12127400Y914000D02*
X12776200D01*
Y770000D02*
Y914000D01*
X12786400Y3634800D02*
Y3778800D01*
X12137600Y3634800D02*
X12786400D01*
X12086400Y2982300D02*
Y3575300D01*
X12137600Y2922800D02*
X12786400D01*
Y2778800D02*
Y2922800D01*
X15200Y2720400D02*
Y2864400D01*
Y2720400D02*
X664000D01*
X715200Y2067900D02*
Y2660900D01*
X15200Y2008400D02*
X664000D01*
X15200Y1864400D02*
Y2008400D01*
%TF.MD5,410c2274d0684d3781e5999d2ed58f1b*%
M02*
