%TF.GenerationSoftware,Altium Limited,Altium Designer,23.4.1 (23)*%
G04 Layer_Color=0*
%FSLAX45Y45*%
%MOMM*%
%TF.SameCoordinates,576A2805-CD40-4E5C-B7A3-750DB6231075*%
%TF.FilePolarity,Positive*%
%TF.FileFunction,Plated,1,2,PTH,Drill*%
%TF.Part,Single*%
G01*
G75*
%TA.AperFunction,ComponentDrill*%
%ADD99C,1.05000*%
%TA.AperFunction,OtherDrill,Pad Free-7 (64mm,43mm)*%
%ADD100C,3.00000*%
%TA.AperFunction,OtherDrill,Pad Free-6 (64mm,2mm)*%
%ADD101C,3.00000*%
%TA.AperFunction,OtherDrill,Pad Free-5 (2.5mm,43mm)*%
%ADD102C,3.00000*%
%TA.AperFunction,OtherDrill,Pad Free-3 (125.5mm,2mm)*%
%ADD103C,3.00000*%
%TA.AperFunction,OtherDrill,Pad Free-4 (2.5mm,2mm)*%
%ADD104C,3.00000*%
%TA.AperFunction,OtherDrill,Pad Free-2 (125.5mm,43mm)*%
%ADD105C,3.00000*%
%TA.AperFunction,ComponentDrill*%
%ADD106O,1.70000X0.60000*%
%ADD107O,1.40000X0.60000*%
%ADD108C,1.00000*%
%ADD109C,0.88900*%
%TA.AperFunction,ViaDrill,NotFilled*%
%ADD110C,0.60000*%
D99*
X4395400Y2082400D02*
D03*
Y3249400D02*
D03*
X5562400Y2082400D02*
D03*
Y3249400D02*
D03*
X4978400Y2766400D02*
D03*
Y2565400D02*
D03*
D100*
X6400000Y4300000D02*
D03*
D101*
Y200000D02*
D03*
D102*
X250000Y4300000D02*
D03*
D103*
X12550000Y200000D02*
D03*
D104*
X250000D02*
D03*
D105*
X12550000Y4300000D02*
D03*
D106*
X697400Y507800D02*
D03*
Y1371800D02*
D03*
Y3124000D02*
D03*
Y3988000D02*
D03*
D107*
X279400Y507800D02*
D03*
Y1371800D02*
D03*
Y3124000D02*
D03*
Y3988000D02*
D03*
D108*
X4005200Y228600D02*
D03*
X3755200D02*
D03*
X3505200D02*
D03*
X3255200D02*
D03*
X3005200D02*
D03*
X2755200D02*
D03*
D109*
X1320800Y508000D02*
D03*
X1574800D02*
D03*
D110*
X10600000Y780000D02*
D03*
X10480000Y1810000D02*
D03*
X9820000Y2320000D02*
D03*
X9480000Y2330000D02*
D03*
X9160000D02*
D03*
X8810000Y2320000D02*
D03*
X8500000D02*
D03*
X8230000D02*
D03*
X7940000D02*
D03*
X7660000D02*
D03*
X7380000D02*
D03*
X9750000Y3040000D02*
D03*
Y2850000D02*
D03*
X9570000Y3030000D02*
D03*
X9560000Y3220000D02*
D03*
X9750000D02*
D03*
X11350000Y1570000D02*
D03*
Y1840000D02*
D03*
X4770000Y2650000D02*
D03*
X4750000Y2830000D02*
D03*
Y3010000D02*
D03*
Y3220000D02*
D03*
X4740000Y3420000D02*
D03*
X4560000Y2640000D02*
D03*
X4210000Y2630000D02*
D03*
X4540000Y2810000D02*
D03*
X4210000Y2820000D02*
D03*
X3910000D02*
D03*
Y3050000D02*
D03*
Y3240000D02*
D03*
X3660000Y2820000D02*
D03*
X3380000Y2850000D02*
D03*
X3120000D02*
D03*
X2840000Y2830000D02*
D03*
X3630000Y3010000D02*
D03*
X3360000D02*
D03*
X3110000D02*
D03*
X2840000D02*
D03*
X3590000Y3260000D02*
D03*
X3310000Y3240000D02*
D03*
X1320000Y1690000D02*
D03*
X1100000Y1700000D02*
D03*
Y1900000D02*
D03*
Y2130000D02*
D03*
X1300000Y1870000D02*
D03*
X920000Y1890000D02*
D03*
X1300000Y2120000D02*
D03*
X900000D02*
D03*
X5810000Y4420000D02*
D03*
X5290000D02*
D03*
X4640000Y4400000D02*
D03*
X3840000Y4410000D02*
D03*
X3200000D02*
D03*
X5960000Y130000D02*
D03*
X5510000Y120000D02*
D03*
X5080000Y110000D02*
D03*
X4660000Y120000D02*
D03*
X4290000Y130000D02*
D03*
X140000Y1160000D02*
D03*
X130000Y3410000D02*
D03*
X120000Y3750000D02*
D03*
X1980000Y140000D02*
D03*
X1480000Y170000D02*
D03*
X1070000D02*
D03*
X680000Y160000D02*
D03*
X2400000Y4370000D02*
D03*
X1790000Y4350000D02*
D03*
X1230000Y4360000D02*
D03*
X730000Y4350000D02*
D03*
X5390000Y3840000D02*
D03*
X5210000Y3850000D02*
D03*
X5360000Y2870000D02*
D03*
X5160000D02*
D03*
Y3090000D02*
D03*
Y3290000D02*
D03*
X5150000Y3470000D02*
D03*
X9650000Y1800000D02*
D03*
X8760000D02*
D03*
X7840000D02*
D03*
X12030000Y4160000D02*
D03*
X12020000Y4430000D02*
D03*
X11690000Y4160000D02*
D03*
Y4420000D02*
D03*
X11300000Y4160000D02*
D03*
X11280000Y4420000D02*
D03*
X10870000Y4160000D02*
D03*
X10860000Y4410000D02*
D03*
X10440000Y4160000D02*
D03*
X10410000Y4410000D02*
D03*
X10010000Y4150000D02*
D03*
X9990000Y4420000D02*
D03*
X9560000Y4160000D02*
D03*
Y4420000D02*
D03*
X9130000Y4160000D02*
D03*
Y4420000D02*
D03*
X8720000Y4160000D02*
D03*
Y4410000D02*
D03*
X8320000Y4160000D02*
D03*
X8300000Y4410000D02*
D03*
X7990000Y4160000D02*
D03*
X7970000Y4410000D02*
D03*
X7640000Y4160000D02*
D03*
X7650000Y4410000D02*
D03*
X7330000Y4160000D02*
D03*
X7320000Y4410000D02*
D03*
X12100000Y90000D02*
D03*
X12070000Y410000D02*
D03*
X11750000Y90000D02*
D03*
X11770000Y400000D02*
D03*
X11420000Y90000D02*
D03*
X11390000Y400000D02*
D03*
X11110000Y80000D02*
D03*
X11050000Y390000D02*
D03*
X10750000Y80000D02*
D03*
Y390000D02*
D03*
X10440000Y80000D02*
D03*
Y390000D02*
D03*
X10120000Y80000D02*
D03*
X10100000Y300000D02*
D03*
X9820000Y70000D02*
D03*
X9800000Y290000D02*
D03*
X9430000Y70000D02*
D03*
X9440000Y290000D02*
D03*
X9100000Y80000D02*
D03*
X9080000Y280000D02*
D03*
X8710000Y90000D02*
D03*
X8730000Y280000D02*
D03*
X8400000Y90000D02*
D03*
Y270000D02*
D03*
X8100000Y90000D02*
D03*
Y270000D02*
D03*
X7820000Y90000D02*
D03*
X7790000Y260000D02*
D03*
X7510000Y90000D02*
D03*
Y260000D02*
D03*
X7210000Y100000D02*
D03*
X7220000Y260000D02*
D03*
X6910000D02*
D03*
Y100000D02*
D03*
X11240000Y2340000D02*
D03*
X11280000Y3050000D02*
D03*
X11260000Y3250000D02*
D03*
X11240000Y3470000D02*
D03*
X11250000Y3680000D02*
D03*
X10600000Y2870000D02*
D03*
X10400000Y2860000D02*
D03*
X10580000Y3080000D02*
D03*
X10400000Y3090000D02*
D03*
X10590000Y3290000D02*
D03*
X10410000Y3270000D02*
D03*
X10590000Y3490000D02*
D03*
X10370000Y3500000D02*
D03*
X10590000Y3690000D02*
D03*
X10370000Y3680000D02*
D03*
X9547300Y2832700D02*
D03*
X9740000Y3470000D02*
D03*
X9560000D02*
D03*
X9740000Y3670000D02*
D03*
X9540000Y3680000D02*
D03*
X8920000Y2850000D02*
D03*
X8710000Y2840000D02*
D03*
X8920000Y3050000D02*
D03*
X8710000Y3040000D02*
D03*
X8910000Y3240000D02*
D03*
X8680000Y3220000D02*
D03*
X8910000Y3450000D02*
D03*
X8660000D02*
D03*
X8910000Y3660000D02*
D03*
X8650000D02*
D03*
X7970000Y2850000D02*
D03*
X7740000D02*
D03*
X7960000Y3050000D02*
D03*
X7740000Y3040000D02*
D03*
X7960000Y3240000D02*
D03*
X7730000Y3230000D02*
D03*
X7950000Y3440000D02*
D03*
X7720000D02*
D03*
X7950000Y3650000D02*
D03*
X7710000D02*
D03*
X11710000Y2090000D02*
D03*
Y2280000D02*
D03*
X11720000Y3280000D02*
D03*
X11720000Y680000D02*
D03*
X10520000Y630000D02*
D03*
X10480000Y2010000D02*
D03*
X431800Y914400D02*
D03*
X6070600Y2260600D02*
D03*
X3302000Y863600D02*
D03*
X965200Y965200D02*
D03*
Y1117600D02*
D03*
X2590800Y1426300D02*
D03*
X2954400Y1100200D02*
D03*
X6578600Y3479800D02*
D03*
X6426200Y2819400D02*
D03*
X2235200Y431800D02*
D03*
X2108200Y1346200D02*
D03*
X3987800Y1926050D02*
D03*
X3595884Y1534916D02*
D03*
X3556000Y1295400D02*
D03*
Y1727200D02*
D03*
X2692400Y660400D02*
D03*
X2641600Y1219200D02*
D03*
X4089400Y3683000D02*
D03*
X5003800Y3987800D02*
D03*
X2032000Y3556000D02*
D03*
X3657600Y2159000D02*
D03*
X1258400Y2376000D02*
D03*
X609600Y812800D02*
D03*
X965200Y1447800D02*
D03*
Y799877D02*
D03*
%TF.MD5,6c6ed44db3eb9f6cbb582a9b7f7ca292*%
M02*
