%TF.GenerationSoftware,Altium Limited,Altium Designer,23.4.1 (23)*%
G04 Layer_Color=2752767*
%FSLAX45Y45*%
%MOMM*%
%TF.SameCoordinates,576A2805-CD40-4E5C-B7A3-750DB6231075*%
%TF.FilePolarity,Positive*%
%TF.FileFunction,Drawing*%
%TF.Part,Single*%
G01*
G75*
%TA.AperFunction,NonConductor*%
%ADD53C,0.12700*%
%ADD93C,0.10160*%
%ADD112C,0.16933*%
D53*
X4370000Y2057000D02*
Y2031600D01*
X4420800D01*
Y2057000D01*
X4446200D01*
Y2107800D01*
X4420800D01*
Y2133200D01*
X4370000D01*
Y2107800D01*
X4344600D01*
Y2057000D01*
X4370000D01*
Y3224000D02*
Y3198600D01*
X4420800D01*
Y3224000D01*
X4446200D01*
Y3274800D01*
X4420800D01*
Y3300200D01*
X4370000D01*
Y3274800D01*
X4344600D01*
Y3224000D01*
X4370000D01*
X5537000Y2057000D02*
Y2031600D01*
X5587800D01*
Y2057000D01*
X5613200D01*
Y2107800D01*
X5587800D01*
Y2133200D01*
X5537000D01*
Y2107800D01*
X5511600D01*
Y2057000D01*
X5537000D01*
Y3224000D02*
Y3198600D01*
X5587800D01*
Y3224000D01*
X5613200D01*
Y3274800D01*
X5587800D01*
Y3300200D01*
X5537000D01*
Y3274800D01*
X5511600D01*
Y3224000D01*
X5537000D01*
X4953000Y2741000D02*
Y2715600D01*
X5003800D01*
Y2741000D01*
X5029200D01*
Y2791800D01*
X5003800D01*
Y2817200D01*
X4953000D01*
Y2791800D01*
X4927600D01*
Y2741000D01*
X4953000D01*
Y2540000D02*
Y2514600D01*
X5003800D01*
Y2540000D01*
X5029200D01*
Y2590800D01*
X5003800D01*
Y2616200D01*
X4953000D01*
Y2590800D01*
X4927600D01*
Y2540000D01*
X4953000D01*
X647400Y1178000D02*
X672800Y1203400D01*
X698200D01*
X672800Y1228800D01*
X698200Y1254200D01*
X672800D01*
X647400Y1279600D01*
X622000Y1254200D01*
X596600D01*
X622000Y1228800D01*
X596600Y1203400D01*
X622000D01*
X647400Y1178000D01*
Y600000D02*
X672800Y625400D01*
X698200D01*
X672800Y650800D01*
X698200Y676200D01*
X672800D01*
X647400Y701600D01*
X622000Y676200D01*
X596600D01*
X622000Y650800D01*
X596600Y625400D01*
X622000D01*
X647400Y600000D01*
X697400Y457000D02*
X646600Y558600D01*
X748200D01*
X697400Y457000D01*
Y1321000D02*
X646600Y1422600D01*
X748200D01*
X697400Y1321000D01*
X647400Y3794200D02*
X672800Y3819600D01*
X698200D01*
X672800Y3845000D01*
X698200Y3870400D01*
X672800D01*
X647400Y3895800D01*
X622000Y3870400D01*
X596600D01*
X622000Y3845000D01*
X596600Y3819600D01*
X622000D01*
X647400Y3794200D01*
Y3216200D02*
X672800Y3241600D01*
X698200D01*
X672800Y3267000D01*
X698200Y3292400D01*
X672800D01*
X647400Y3317800D01*
X622000Y3292400D01*
X596600D01*
X622000Y3267000D01*
X596600Y3241600D01*
X622000D01*
X647400Y3216200D01*
X697400Y3073200D02*
X646600Y3174800D01*
X748200D01*
X697400Y3073200D01*
Y3937200D02*
X646600Y4038800D01*
X748200D01*
X697400Y3937200D01*
X3954400Y177800D02*
X3979800Y228600D01*
X3954400Y279400D01*
X4005200Y254000D01*
X4056000Y279400D01*
X4030600Y228600D01*
X4056000Y177800D01*
X4005200Y203200D01*
X3954400Y177800D01*
X3704400D02*
X3729800Y228600D01*
X3704400Y279400D01*
X3755200Y254000D01*
X3806000Y279400D01*
X3780600Y228600D01*
X3806000Y177800D01*
X3755200Y203200D01*
X3704400Y177800D01*
X3454400D02*
X3479800Y228600D01*
X3454400Y279400D01*
X3505200Y254000D01*
X3556000Y279400D01*
X3530600Y228600D01*
X3556000Y177800D01*
X3505200Y203200D01*
X3454400Y177800D01*
X3204400D02*
X3229800Y228600D01*
X3204400Y279400D01*
X3255200Y254000D01*
X3306000Y279400D01*
X3280600Y228600D01*
X3306000Y177800D01*
X3255200Y203200D01*
X3204400Y177800D01*
X2954400D02*
X2979800Y228600D01*
X2954400Y279400D01*
X3005200Y254000D01*
X3056000Y279400D01*
X3030600Y228600D01*
X3056000Y177800D01*
X3005200Y203200D01*
X2954400Y177800D01*
X2704400D02*
X2729800Y228600D01*
X2704400Y279400D01*
X2755200Y254000D01*
X2806000Y279400D01*
X2780600Y228600D01*
X2806000Y177800D01*
X2755200Y203200D01*
X2704400Y177800D01*
X1270000Y457200D02*
Y558800D01*
X1371600D01*
Y457200D01*
X1270000D01*
X1524000D02*
Y558800D01*
X1625600D01*
Y457200D01*
X1524000D01*
X10549200Y729200D02*
X10574600D01*
X10600000Y754600D01*
X10625400Y729200D01*
X10650800D01*
Y754600D01*
X10625400Y780000D01*
X10650800Y805400D01*
Y830800D01*
X10625400D01*
X10600000Y805400D01*
X10574600Y830800D01*
X10549200D01*
Y805400D01*
X10574600Y780000D01*
X10549200Y754600D01*
Y729200D01*
X10429200Y1759200D02*
X10454600D01*
X10480000Y1784600D01*
X10505400Y1759200D01*
X10530800D01*
Y1784600D01*
X10505400Y1810000D01*
X10530800Y1835400D01*
Y1860800D01*
X10505400D01*
X10480000Y1835400D01*
X10454600Y1860800D01*
X10429200D01*
Y1835400D01*
X10454600Y1810000D01*
X10429200Y1784600D01*
Y1759200D01*
X9769200Y2269200D02*
X9794600D01*
X9820000Y2294600D01*
X9845400Y2269200D01*
X9870800D01*
Y2294600D01*
X9845400Y2320000D01*
X9870800Y2345400D01*
Y2370800D01*
X9845400D01*
X9820000Y2345400D01*
X9794600Y2370800D01*
X9769200D01*
Y2345400D01*
X9794600Y2320000D01*
X9769200Y2294600D01*
Y2269200D01*
X9429200Y2279200D02*
X9454600D01*
X9480000Y2304600D01*
X9505400Y2279200D01*
X9530800D01*
Y2304600D01*
X9505400Y2330000D01*
X9530800Y2355400D01*
Y2380800D01*
X9505400D01*
X9480000Y2355400D01*
X9454600Y2380800D01*
X9429200D01*
Y2355400D01*
X9454600Y2330000D01*
X9429200Y2304600D01*
Y2279200D01*
X9109200D02*
X9134600D01*
X9160000Y2304600D01*
X9185400Y2279200D01*
X9210800D01*
Y2304600D01*
X9185400Y2330000D01*
X9210800Y2355400D01*
Y2380800D01*
X9185400D01*
X9160000Y2355400D01*
X9134600Y2380800D01*
X9109200D01*
Y2355400D01*
X9134600Y2330000D01*
X9109200Y2304600D01*
Y2279200D01*
X8759200Y2269200D02*
X8784600D01*
X8810000Y2294600D01*
X8835400Y2269200D01*
X8860800D01*
Y2294600D01*
X8835400Y2320000D01*
X8860800Y2345400D01*
Y2370800D01*
X8835400D01*
X8810000Y2345400D01*
X8784600Y2370800D01*
X8759200D01*
Y2345400D01*
X8784600Y2320000D01*
X8759200Y2294600D01*
Y2269200D01*
X8449200D02*
X8474600D01*
X8500000Y2294600D01*
X8525400Y2269200D01*
X8550800D01*
Y2294600D01*
X8525400Y2320000D01*
X8550800Y2345400D01*
Y2370800D01*
X8525400D01*
X8500000Y2345400D01*
X8474600Y2370800D01*
X8449200D01*
Y2345400D01*
X8474600Y2320000D01*
X8449200Y2294600D01*
Y2269200D01*
X8179200D02*
X8204600D01*
X8230000Y2294600D01*
X8255400Y2269200D01*
X8280800D01*
Y2294600D01*
X8255400Y2320000D01*
X8280800Y2345400D01*
Y2370800D01*
X8255400D01*
X8230000Y2345400D01*
X8204600Y2370800D01*
X8179200D01*
Y2345400D01*
X8204600Y2320000D01*
X8179200Y2294600D01*
Y2269200D01*
X7889200D02*
X7914600D01*
X7940000Y2294600D01*
X7965400Y2269200D01*
X7990800D01*
Y2294600D01*
X7965400Y2320000D01*
X7990800Y2345400D01*
Y2370800D01*
X7965400D01*
X7940000Y2345400D01*
X7914600Y2370800D01*
X7889200D01*
Y2345400D01*
X7914600Y2320000D01*
X7889200Y2294600D01*
Y2269200D01*
X7609200D02*
X7634600D01*
X7660000Y2294600D01*
X7685400Y2269200D01*
X7710800D01*
Y2294600D01*
X7685400Y2320000D01*
X7710800Y2345400D01*
Y2370800D01*
X7685400D01*
X7660000Y2345400D01*
X7634600Y2370800D01*
X7609200D01*
Y2345400D01*
X7634600Y2320000D01*
X7609200Y2294600D01*
Y2269200D01*
X7329200D02*
X7354600D01*
X7380000Y2294600D01*
X7405400Y2269200D01*
X7430800D01*
Y2294600D01*
X7405400Y2320000D01*
X7430800Y2345400D01*
Y2370800D01*
X7405400D01*
X7380000Y2345400D01*
X7354600Y2370800D01*
X7329200D01*
Y2345400D01*
X7354600Y2320000D01*
X7329200Y2294600D01*
Y2269200D01*
X9699200Y2989200D02*
X9724600D01*
X9750000Y3014600D01*
X9775400Y2989200D01*
X9800800D01*
Y3014600D01*
X9775400Y3040000D01*
X9800800Y3065400D01*
Y3090800D01*
X9775400D01*
X9750000Y3065400D01*
X9724600Y3090800D01*
X9699200D01*
Y3065400D01*
X9724600Y3040000D01*
X9699200Y3014600D01*
Y2989200D01*
Y2799200D02*
X9724600D01*
X9750000Y2824600D01*
X9775400Y2799200D01*
X9800800D01*
Y2824600D01*
X9775400Y2850000D01*
X9800800Y2875400D01*
Y2900800D01*
X9775400D01*
X9750000Y2875400D01*
X9724600Y2900800D01*
X9699200D01*
Y2875400D01*
X9724600Y2850000D01*
X9699200Y2824600D01*
Y2799200D01*
X9519200Y2979200D02*
X9544600D01*
X9570000Y3004600D01*
X9595400Y2979200D01*
X9620800D01*
Y3004600D01*
X9595400Y3030000D01*
X9620800Y3055400D01*
Y3080800D01*
X9595400D01*
X9570000Y3055400D01*
X9544600Y3080800D01*
X9519200D01*
Y3055400D01*
X9544600Y3030000D01*
X9519200Y3004600D01*
Y2979200D01*
X9509200Y3169200D02*
X9534600D01*
X9560000Y3194600D01*
X9585400Y3169200D01*
X9610800D01*
Y3194600D01*
X9585400Y3220000D01*
X9610800Y3245400D01*
Y3270800D01*
X9585400D01*
X9560000Y3245400D01*
X9534600Y3270800D01*
X9509200D01*
Y3245400D01*
X9534600Y3220000D01*
X9509200Y3194600D01*
Y3169200D01*
X9699200D02*
X9724600D01*
X9750000Y3194600D01*
X9775400Y3169200D01*
X9800800D01*
Y3194600D01*
X9775400Y3220000D01*
X9800800Y3245400D01*
Y3270800D01*
X9775400D01*
X9750000Y3245400D01*
X9724600Y3270800D01*
X9699200D01*
Y3245400D01*
X9724600Y3220000D01*
X9699200Y3194600D01*
Y3169200D01*
X11299200Y1519200D02*
X11324600D01*
X11350000Y1544600D01*
X11375400Y1519200D01*
X11400800D01*
Y1544600D01*
X11375400Y1570000D01*
X11400800Y1595400D01*
Y1620800D01*
X11375400D01*
X11350000Y1595400D01*
X11324600Y1620800D01*
X11299200D01*
Y1595400D01*
X11324600Y1570000D01*
X11299200Y1544600D01*
Y1519200D01*
Y1789200D02*
X11324600D01*
X11350000Y1814600D01*
X11375400Y1789200D01*
X11400800D01*
Y1814600D01*
X11375400Y1840000D01*
X11400800Y1865400D01*
Y1890800D01*
X11375400D01*
X11350000Y1865400D01*
X11324600Y1890800D01*
X11299200D01*
Y1865400D01*
X11324600Y1840000D01*
X11299200Y1814600D01*
Y1789200D01*
X4719200Y2599200D02*
X4744600D01*
X4770000Y2624600D01*
X4795400Y2599200D01*
X4820800D01*
Y2624600D01*
X4795400Y2650000D01*
X4820800Y2675400D01*
Y2700800D01*
X4795400D01*
X4770000Y2675400D01*
X4744600Y2700800D01*
X4719200D01*
Y2675400D01*
X4744600Y2650000D01*
X4719200Y2624600D01*
Y2599200D01*
X4699200Y2779200D02*
X4724600D01*
X4750000Y2804600D01*
X4775400Y2779200D01*
X4800800D01*
Y2804600D01*
X4775400Y2830000D01*
X4800800Y2855400D01*
Y2880800D01*
X4775400D01*
X4750000Y2855400D01*
X4724600Y2880800D01*
X4699200D01*
Y2855400D01*
X4724600Y2830000D01*
X4699200Y2804600D01*
Y2779200D01*
Y2959200D02*
X4724600D01*
X4750000Y2984600D01*
X4775400Y2959200D01*
X4800800D01*
Y2984600D01*
X4775400Y3010000D01*
X4800800Y3035400D01*
Y3060800D01*
X4775400D01*
X4750000Y3035400D01*
X4724600Y3060800D01*
X4699200D01*
Y3035400D01*
X4724600Y3010000D01*
X4699200Y2984600D01*
Y2959200D01*
Y3169200D02*
X4724600D01*
X4750000Y3194600D01*
X4775400Y3169200D01*
X4800800D01*
Y3194600D01*
X4775400Y3220000D01*
X4800800Y3245400D01*
Y3270800D01*
X4775400D01*
X4750000Y3245400D01*
X4724600Y3270800D01*
X4699200D01*
Y3245400D01*
X4724600Y3220000D01*
X4699200Y3194600D01*
Y3169200D01*
X4689200Y3369200D02*
X4714600D01*
X4740000Y3394600D01*
X4765400Y3369200D01*
X4790800D01*
Y3394600D01*
X4765400Y3420000D01*
X4790800Y3445400D01*
Y3470800D01*
X4765400D01*
X4740000Y3445400D01*
X4714600Y3470800D01*
X4689200D01*
Y3445400D01*
X4714600Y3420000D01*
X4689200Y3394600D01*
Y3369200D01*
X4509200Y2589200D02*
X4534600D01*
X4560000Y2614600D01*
X4585400Y2589200D01*
X4610800D01*
Y2614600D01*
X4585400Y2640000D01*
X4610800Y2665400D01*
Y2690800D01*
X4585400D01*
X4560000Y2665400D01*
X4534600Y2690800D01*
X4509200D01*
Y2665400D01*
X4534600Y2640000D01*
X4509200Y2614600D01*
Y2589200D01*
X4159200Y2579200D02*
X4184600D01*
X4210000Y2604600D01*
X4235400Y2579200D01*
X4260800D01*
Y2604600D01*
X4235400Y2630000D01*
X4260800Y2655400D01*
Y2680800D01*
X4235400D01*
X4210000Y2655400D01*
X4184600Y2680800D01*
X4159200D01*
Y2655400D01*
X4184600Y2630000D01*
X4159200Y2604600D01*
Y2579200D01*
X4489200Y2759200D02*
X4514600D01*
X4540000Y2784600D01*
X4565400Y2759200D01*
X4590800D01*
Y2784600D01*
X4565400Y2810000D01*
X4590800Y2835400D01*
Y2860800D01*
X4565400D01*
X4540000Y2835400D01*
X4514600Y2860800D01*
X4489200D01*
Y2835400D01*
X4514600Y2810000D01*
X4489200Y2784600D01*
Y2759200D01*
X4159200Y2769200D02*
X4184600D01*
X4210000Y2794600D01*
X4235400Y2769200D01*
X4260800D01*
Y2794600D01*
X4235400Y2820000D01*
X4260800Y2845400D01*
Y2870800D01*
X4235400D01*
X4210000Y2845400D01*
X4184600Y2870800D01*
X4159200D01*
Y2845400D01*
X4184600Y2820000D01*
X4159200Y2794600D01*
Y2769200D01*
X3859200D02*
X3884600D01*
X3910000Y2794600D01*
X3935400Y2769200D01*
X3960800D01*
Y2794600D01*
X3935400Y2820000D01*
X3960800Y2845400D01*
Y2870800D01*
X3935400D01*
X3910000Y2845400D01*
X3884600Y2870800D01*
X3859200D01*
Y2845400D01*
X3884600Y2820000D01*
X3859200Y2794600D01*
Y2769200D01*
Y2999200D02*
X3884600D01*
X3910000Y3024600D01*
X3935400Y2999200D01*
X3960800D01*
Y3024600D01*
X3935400Y3050000D01*
X3960800Y3075400D01*
Y3100800D01*
X3935400D01*
X3910000Y3075400D01*
X3884600Y3100800D01*
X3859200D01*
Y3075400D01*
X3884600Y3050000D01*
X3859200Y3024600D01*
Y2999200D01*
Y3189200D02*
X3884600D01*
X3910000Y3214600D01*
X3935400Y3189200D01*
X3960800D01*
Y3214600D01*
X3935400Y3240000D01*
X3960800Y3265400D01*
Y3290800D01*
X3935400D01*
X3910000Y3265400D01*
X3884600Y3290800D01*
X3859200D01*
Y3265400D01*
X3884600Y3240000D01*
X3859200Y3214600D01*
Y3189200D01*
X3609200Y2769200D02*
X3634600D01*
X3660000Y2794600D01*
X3685400Y2769200D01*
X3710800D01*
Y2794600D01*
X3685400Y2820000D01*
X3710800Y2845400D01*
Y2870800D01*
X3685400D01*
X3660000Y2845400D01*
X3634600Y2870800D01*
X3609200D01*
Y2845400D01*
X3634600Y2820000D01*
X3609200Y2794600D01*
Y2769200D01*
X3329200Y2799200D02*
X3354600D01*
X3380000Y2824600D01*
X3405400Y2799200D01*
X3430800D01*
Y2824600D01*
X3405400Y2850000D01*
X3430800Y2875400D01*
Y2900800D01*
X3405400D01*
X3380000Y2875400D01*
X3354600Y2900800D01*
X3329200D01*
Y2875400D01*
X3354600Y2850000D01*
X3329200Y2824600D01*
Y2799200D01*
X3069200D02*
X3094600D01*
X3120000Y2824600D01*
X3145400Y2799200D01*
X3170800D01*
Y2824600D01*
X3145400Y2850000D01*
X3170800Y2875400D01*
Y2900800D01*
X3145400D01*
X3120000Y2875400D01*
X3094600Y2900800D01*
X3069200D01*
Y2875400D01*
X3094600Y2850000D01*
X3069200Y2824600D01*
Y2799200D01*
X2789200Y2779200D02*
X2814600D01*
X2840000Y2804600D01*
X2865400Y2779200D01*
X2890800D01*
Y2804600D01*
X2865400Y2830000D01*
X2890800Y2855400D01*
Y2880800D01*
X2865400D01*
X2840000Y2855400D01*
X2814600Y2880800D01*
X2789200D01*
Y2855400D01*
X2814600Y2830000D01*
X2789200Y2804600D01*
Y2779200D01*
X3579200Y2959200D02*
X3604600D01*
X3630000Y2984600D01*
X3655400Y2959200D01*
X3680800D01*
Y2984600D01*
X3655400Y3010000D01*
X3680800Y3035400D01*
Y3060800D01*
X3655400D01*
X3630000Y3035400D01*
X3604600Y3060800D01*
X3579200D01*
Y3035400D01*
X3604600Y3010000D01*
X3579200Y2984600D01*
Y2959200D01*
X3309200D02*
X3334600D01*
X3360000Y2984600D01*
X3385400Y2959200D01*
X3410800D01*
Y2984600D01*
X3385400Y3010000D01*
X3410800Y3035400D01*
Y3060800D01*
X3385400D01*
X3360000Y3035400D01*
X3334600Y3060800D01*
X3309200D01*
Y3035400D01*
X3334600Y3010000D01*
X3309200Y2984600D01*
Y2959200D01*
X3059200D02*
X3084600D01*
X3110000Y2984600D01*
X3135400Y2959200D01*
X3160800D01*
Y2984600D01*
X3135400Y3010000D01*
X3160800Y3035400D01*
Y3060800D01*
X3135400D01*
X3110000Y3035400D01*
X3084600Y3060800D01*
X3059200D01*
Y3035400D01*
X3084600Y3010000D01*
X3059200Y2984600D01*
Y2959200D01*
X2789200D02*
X2814600D01*
X2840000Y2984600D01*
X2865400Y2959200D01*
X2890800D01*
Y2984600D01*
X2865400Y3010000D01*
X2890800Y3035400D01*
Y3060800D01*
X2865400D01*
X2840000Y3035400D01*
X2814600Y3060800D01*
X2789200D01*
Y3035400D01*
X2814600Y3010000D01*
X2789200Y2984600D01*
Y2959200D01*
X3539200Y3209200D02*
X3564600D01*
X3590000Y3234600D01*
X3615400Y3209200D01*
X3640800D01*
Y3234600D01*
X3615400Y3260000D01*
X3640800Y3285400D01*
Y3310800D01*
X3615400D01*
X3590000Y3285400D01*
X3564600Y3310800D01*
X3539200D01*
Y3285400D01*
X3564600Y3260000D01*
X3539200Y3234600D01*
Y3209200D01*
X3259200Y3189200D02*
X3284600D01*
X3310000Y3214600D01*
X3335400Y3189200D01*
X3360800D01*
Y3214600D01*
X3335400Y3240000D01*
X3360800Y3265400D01*
Y3290800D01*
X3335400D01*
X3310000Y3265400D01*
X3284600Y3290800D01*
X3259200D01*
Y3265400D01*
X3284600Y3240000D01*
X3259200Y3214600D01*
Y3189200D01*
X1269200Y1639200D02*
X1294600D01*
X1320000Y1664600D01*
X1345400Y1639200D01*
X1370800D01*
Y1664600D01*
X1345400Y1690000D01*
X1370800Y1715400D01*
Y1740800D01*
X1345400D01*
X1320000Y1715400D01*
X1294600Y1740800D01*
X1269200D01*
Y1715400D01*
X1294600Y1690000D01*
X1269200Y1664600D01*
Y1639200D01*
X1049200Y1649200D02*
X1074600D01*
X1100000Y1674600D01*
X1125400Y1649200D01*
X1150800D01*
Y1674600D01*
X1125400Y1700000D01*
X1150800Y1725400D01*
Y1750800D01*
X1125400D01*
X1100000Y1725400D01*
X1074600Y1750800D01*
X1049200D01*
Y1725400D01*
X1074600Y1700000D01*
X1049200Y1674600D01*
Y1649200D01*
Y1849200D02*
X1074600D01*
X1100000Y1874600D01*
X1125400Y1849200D01*
X1150800D01*
Y1874600D01*
X1125400Y1900000D01*
X1150800Y1925400D01*
Y1950800D01*
X1125400D01*
X1100000Y1925400D01*
X1074600Y1950800D01*
X1049200D01*
Y1925400D01*
X1074600Y1900000D01*
X1049200Y1874600D01*
Y1849200D01*
Y2079200D02*
X1074600D01*
X1100000Y2104600D01*
X1125400Y2079200D01*
X1150800D01*
Y2104600D01*
X1125400Y2130000D01*
X1150800Y2155400D01*
Y2180800D01*
X1125400D01*
X1100000Y2155400D01*
X1074600Y2180800D01*
X1049200D01*
Y2155400D01*
X1074600Y2130000D01*
X1049200Y2104600D01*
Y2079200D01*
X1249200Y1819200D02*
X1274600D01*
X1300000Y1844600D01*
X1325400Y1819200D01*
X1350800D01*
Y1844600D01*
X1325400Y1870000D01*
X1350800Y1895400D01*
Y1920800D01*
X1325400D01*
X1300000Y1895400D01*
X1274600Y1920800D01*
X1249200D01*
Y1895400D01*
X1274600Y1870000D01*
X1249200Y1844600D01*
Y1819200D01*
X869200Y1839200D02*
X894600D01*
X920000Y1864600D01*
X945400Y1839200D01*
X970800D01*
Y1864600D01*
X945400Y1890000D01*
X970800Y1915400D01*
Y1940800D01*
X945400D01*
X920000Y1915400D01*
X894600Y1940800D01*
X869200D01*
Y1915400D01*
X894600Y1890000D01*
X869200Y1864600D01*
Y1839200D01*
X1249200Y2069200D02*
X1274600D01*
X1300000Y2094600D01*
X1325400Y2069200D01*
X1350800D01*
Y2094600D01*
X1325400Y2120000D01*
X1350800Y2145400D01*
Y2170800D01*
X1325400D01*
X1300000Y2145400D01*
X1274600Y2170800D01*
X1249200D01*
Y2145400D01*
X1274600Y2120000D01*
X1249200Y2094600D01*
Y2069200D01*
X849200D02*
X874600D01*
X900000Y2094600D01*
X925400Y2069200D01*
X950800D01*
Y2094600D01*
X925400Y2120000D01*
X950800Y2145400D01*
Y2170800D01*
X925400D01*
X900000Y2145400D01*
X874600Y2170800D01*
X849200D01*
Y2145400D01*
X874600Y2120000D01*
X849200Y2094600D01*
Y2069200D01*
X5759200Y4369200D02*
X5784600D01*
X5810000Y4394600D01*
X5835400Y4369200D01*
X5860800D01*
Y4394600D01*
X5835400Y4420000D01*
X5860800Y4445400D01*
Y4470800D01*
X5835400D01*
X5810000Y4445400D01*
X5784600Y4470800D01*
X5759200D01*
Y4445400D01*
X5784600Y4420000D01*
X5759200Y4394600D01*
Y4369200D01*
X5239200D02*
X5264600D01*
X5290000Y4394600D01*
X5315400Y4369200D01*
X5340800D01*
Y4394600D01*
X5315400Y4420000D01*
X5340800Y4445400D01*
Y4470800D01*
X5315400D01*
X5290000Y4445400D01*
X5264600Y4470800D01*
X5239200D01*
Y4445400D01*
X5264600Y4420000D01*
X5239200Y4394600D01*
Y4369200D01*
X4589200Y4349200D02*
X4614600D01*
X4640000Y4374600D01*
X4665400Y4349200D01*
X4690800D01*
Y4374600D01*
X4665400Y4400000D01*
X4690800Y4425400D01*
Y4450800D01*
X4665400D01*
X4640000Y4425400D01*
X4614600Y4450800D01*
X4589200D01*
Y4425400D01*
X4614600Y4400000D01*
X4589200Y4374600D01*
Y4349200D01*
X3789200Y4359200D02*
X3814600D01*
X3840000Y4384600D01*
X3865400Y4359200D01*
X3890800D01*
Y4384600D01*
X3865400Y4410000D01*
X3890800Y4435400D01*
Y4460800D01*
X3865400D01*
X3840000Y4435400D01*
X3814600Y4460800D01*
X3789200D01*
Y4435400D01*
X3814600Y4410000D01*
X3789200Y4384600D01*
Y4359200D01*
X3149200D02*
X3174600D01*
X3200000Y4384600D01*
X3225400Y4359200D01*
X3250800D01*
Y4384600D01*
X3225400Y4410000D01*
X3250800Y4435400D01*
Y4460800D01*
X3225400D01*
X3200000Y4435400D01*
X3174600Y4460800D01*
X3149200D01*
Y4435400D01*
X3174600Y4410000D01*
X3149200Y4384600D01*
Y4359200D01*
X5909200Y79200D02*
X5934600D01*
X5960000Y104600D01*
X5985400Y79200D01*
X6010800D01*
Y104600D01*
X5985400Y130000D01*
X6010800Y155400D01*
Y180800D01*
X5985400D01*
X5960000Y155400D01*
X5934600Y180800D01*
X5909200D01*
Y155400D01*
X5934600Y130000D01*
X5909200Y104600D01*
Y79200D01*
X5459200Y69200D02*
X5484600D01*
X5510000Y94600D01*
X5535400Y69200D01*
X5560800D01*
Y94600D01*
X5535400Y120000D01*
X5560800Y145400D01*
Y170800D01*
X5535400D01*
X5510000Y145400D01*
X5484600Y170800D01*
X5459200D01*
Y145400D01*
X5484600Y120000D01*
X5459200Y94600D01*
Y69200D01*
X5029200Y59200D02*
X5054600D01*
X5080000Y84600D01*
X5105400Y59200D01*
X5130800D01*
Y84600D01*
X5105400Y110000D01*
X5130800Y135400D01*
Y160800D01*
X5105400D01*
X5080000Y135400D01*
X5054600Y160800D01*
X5029200D01*
Y135400D01*
X5054600Y110000D01*
X5029200Y84600D01*
Y59200D01*
X4609200Y69200D02*
X4634600D01*
X4660000Y94600D01*
X4685400Y69200D01*
X4710800D01*
Y94600D01*
X4685400Y120000D01*
X4710800Y145400D01*
Y170800D01*
X4685400D01*
X4660000Y145400D01*
X4634600Y170800D01*
X4609200D01*
Y145400D01*
X4634600Y120000D01*
X4609200Y94600D01*
Y69200D01*
X4239200Y79200D02*
X4264600D01*
X4290000Y104600D01*
X4315400Y79200D01*
X4340800D01*
Y104600D01*
X4315400Y130000D01*
X4340800Y155400D01*
Y180800D01*
X4315400D01*
X4290000Y155400D01*
X4264600Y180800D01*
X4239200D01*
Y155400D01*
X4264600Y130000D01*
X4239200Y104600D01*
Y79200D01*
X89200Y1109200D02*
X114600D01*
X140000Y1134600D01*
X165400Y1109200D01*
X190800D01*
Y1134600D01*
X165400Y1160000D01*
X190800Y1185400D01*
Y1210800D01*
X165400D01*
X140000Y1185400D01*
X114600Y1210800D01*
X89200D01*
Y1185400D01*
X114600Y1160000D01*
X89200Y1134600D01*
Y1109200D01*
X79200Y3359200D02*
X104600D01*
X130000Y3384600D01*
X155400Y3359200D01*
X180800D01*
Y3384600D01*
X155400Y3410000D01*
X180800Y3435400D01*
Y3460800D01*
X155400D01*
X130000Y3435400D01*
X104600Y3460800D01*
X79200D01*
Y3435400D01*
X104600Y3410000D01*
X79200Y3384600D01*
Y3359200D01*
X69200Y3699200D02*
X94600D01*
X120000Y3724600D01*
X145400Y3699200D01*
X170800D01*
Y3724600D01*
X145400Y3750000D01*
X170800Y3775400D01*
Y3800800D01*
X145400D01*
X120000Y3775400D01*
X94600Y3800800D01*
X69200D01*
Y3775400D01*
X94600Y3750000D01*
X69200Y3724600D01*
Y3699200D01*
X1929200Y89200D02*
X1954600D01*
X1980000Y114600D01*
X2005400Y89200D01*
X2030800D01*
Y114600D01*
X2005400Y140000D01*
X2030800Y165400D01*
Y190800D01*
X2005400D01*
X1980000Y165400D01*
X1954600Y190800D01*
X1929200D01*
Y165400D01*
X1954600Y140000D01*
X1929200Y114600D01*
Y89200D01*
X1429200Y119200D02*
X1454600D01*
X1480000Y144600D01*
X1505400Y119200D01*
X1530800D01*
Y144600D01*
X1505400Y170000D01*
X1530800Y195400D01*
Y220800D01*
X1505400D01*
X1480000Y195400D01*
X1454600Y220800D01*
X1429200D01*
Y195400D01*
X1454600Y170000D01*
X1429200Y144600D01*
Y119200D01*
X1019200D02*
X1044600D01*
X1070000Y144600D01*
X1095400Y119200D01*
X1120800D01*
Y144600D01*
X1095400Y170000D01*
X1120800Y195400D01*
Y220800D01*
X1095400D01*
X1070000Y195400D01*
X1044600Y220800D01*
X1019200D01*
Y195400D01*
X1044600Y170000D01*
X1019200Y144600D01*
Y119200D01*
X629200Y109200D02*
X654600D01*
X680000Y134600D01*
X705400Y109200D01*
X730800D01*
Y134600D01*
X705400Y160000D01*
X730800Y185400D01*
Y210800D01*
X705400D01*
X680000Y185400D01*
X654600Y210800D01*
X629200D01*
Y185400D01*
X654600Y160000D01*
X629200Y134600D01*
Y109200D01*
X2349200Y4319200D02*
X2374600D01*
X2400000Y4344600D01*
X2425400Y4319200D01*
X2450800D01*
Y4344600D01*
X2425400Y4370000D01*
X2450800Y4395400D01*
Y4420800D01*
X2425400D01*
X2400000Y4395400D01*
X2374600Y4420800D01*
X2349200D01*
Y4395400D01*
X2374600Y4370000D01*
X2349200Y4344600D01*
Y4319200D01*
X1739200Y4299200D02*
X1764600D01*
X1790000Y4324600D01*
X1815400Y4299200D01*
X1840800D01*
Y4324600D01*
X1815400Y4350000D01*
X1840800Y4375400D01*
Y4400800D01*
X1815400D01*
X1790000Y4375400D01*
X1764600Y4400800D01*
X1739200D01*
Y4375400D01*
X1764600Y4350000D01*
X1739200Y4324600D01*
Y4299200D01*
X1179200Y4309200D02*
X1204600D01*
X1230000Y4334600D01*
X1255400Y4309200D01*
X1280800D01*
Y4334600D01*
X1255400Y4360000D01*
X1280800Y4385400D01*
Y4410800D01*
X1255400D01*
X1230000Y4385400D01*
X1204600Y4410800D01*
X1179200D01*
Y4385400D01*
X1204600Y4360000D01*
X1179200Y4334600D01*
Y4309200D01*
X679200Y4299200D02*
X704600D01*
X730000Y4324600D01*
X755400Y4299200D01*
X780800D01*
Y4324600D01*
X755400Y4350000D01*
X780800Y4375400D01*
Y4400800D01*
X755400D01*
X730000Y4375400D01*
X704600Y4400800D01*
X679200D01*
Y4375400D01*
X704600Y4350000D01*
X679200Y4324600D01*
Y4299200D01*
X5339200Y3789200D02*
X5364600D01*
X5390000Y3814600D01*
X5415400Y3789200D01*
X5440800D01*
Y3814600D01*
X5415400Y3840000D01*
X5440800Y3865400D01*
Y3890800D01*
X5415400D01*
X5390000Y3865400D01*
X5364600Y3890800D01*
X5339200D01*
Y3865400D01*
X5364600Y3840000D01*
X5339200Y3814600D01*
Y3789200D01*
X5159200Y3799200D02*
X5184600D01*
X5210000Y3824600D01*
X5235400Y3799200D01*
X5260800D01*
Y3824600D01*
X5235400Y3850000D01*
X5260800Y3875400D01*
Y3900800D01*
X5235400D01*
X5210000Y3875400D01*
X5184600Y3900800D01*
X5159200D01*
Y3875400D01*
X5184600Y3850000D01*
X5159200Y3824600D01*
Y3799200D01*
X5309200Y2819200D02*
X5334600D01*
X5360000Y2844600D01*
X5385400Y2819200D01*
X5410800D01*
Y2844600D01*
X5385400Y2870000D01*
X5410800Y2895400D01*
Y2920800D01*
X5385400D01*
X5360000Y2895400D01*
X5334600Y2920800D01*
X5309200D01*
Y2895400D01*
X5334600Y2870000D01*
X5309200Y2844600D01*
Y2819200D01*
X5109200D02*
X5134600D01*
X5160000Y2844600D01*
X5185400Y2819200D01*
X5210800D01*
Y2844600D01*
X5185400Y2870000D01*
X5210800Y2895400D01*
Y2920800D01*
X5185400D01*
X5160000Y2895400D01*
X5134600Y2920800D01*
X5109200D01*
Y2895400D01*
X5134600Y2870000D01*
X5109200Y2844600D01*
Y2819200D01*
Y3039200D02*
X5134600D01*
X5160000Y3064600D01*
X5185400Y3039200D01*
X5210800D01*
Y3064600D01*
X5185400Y3090000D01*
X5210800Y3115400D01*
Y3140800D01*
X5185400D01*
X5160000Y3115400D01*
X5134600Y3140800D01*
X5109200D01*
Y3115400D01*
X5134600Y3090000D01*
X5109200Y3064600D01*
Y3039200D01*
Y3239200D02*
X5134600D01*
X5160000Y3264600D01*
X5185400Y3239200D01*
X5210800D01*
Y3264600D01*
X5185400Y3290000D01*
X5210800Y3315400D01*
Y3340800D01*
X5185400D01*
X5160000Y3315400D01*
X5134600Y3340800D01*
X5109200D01*
Y3315400D01*
X5134600Y3290000D01*
X5109200Y3264600D01*
Y3239200D01*
X5099200Y3419200D02*
X5124600D01*
X5150000Y3444600D01*
X5175400Y3419200D01*
X5200800D01*
Y3444600D01*
X5175400Y3470000D01*
X5200800Y3495400D01*
Y3520800D01*
X5175400D01*
X5150000Y3495400D01*
X5124600Y3520800D01*
X5099200D01*
Y3495400D01*
X5124600Y3470000D01*
X5099200Y3444600D01*
Y3419200D01*
X9599200Y1749200D02*
X9624600D01*
X9650000Y1774600D01*
X9675400Y1749200D01*
X9700800D01*
Y1774600D01*
X9675400Y1800000D01*
X9700800Y1825400D01*
Y1850800D01*
X9675400D01*
X9650000Y1825400D01*
X9624600Y1850800D01*
X9599200D01*
Y1825400D01*
X9624600Y1800000D01*
X9599200Y1774600D01*
Y1749200D01*
X8709200D02*
X8734600D01*
X8760000Y1774600D01*
X8785400Y1749200D01*
X8810800D01*
Y1774600D01*
X8785400Y1800000D01*
X8810800Y1825400D01*
Y1850800D01*
X8785400D01*
X8760000Y1825400D01*
X8734600Y1850800D01*
X8709200D01*
Y1825400D01*
X8734600Y1800000D01*
X8709200Y1774600D01*
Y1749200D01*
X7789200D02*
X7814600D01*
X7840000Y1774600D01*
X7865400Y1749200D01*
X7890800D01*
Y1774600D01*
X7865400Y1800000D01*
X7890800Y1825400D01*
Y1850800D01*
X7865400D01*
X7840000Y1825400D01*
X7814600Y1850800D01*
X7789200D01*
Y1825400D01*
X7814600Y1800000D01*
X7789200Y1774600D01*
Y1749200D01*
X11979200Y4109200D02*
X12004600D01*
X12030000Y4134600D01*
X12055400Y4109200D01*
X12080800D01*
Y4134600D01*
X12055400Y4160000D01*
X12080800Y4185400D01*
Y4210800D01*
X12055400D01*
X12030000Y4185400D01*
X12004600Y4210800D01*
X11979200D01*
Y4185400D01*
X12004600Y4160000D01*
X11979200Y4134600D01*
Y4109200D01*
X11969200Y4379200D02*
X11994600D01*
X12020000Y4404600D01*
X12045400Y4379200D01*
X12070800D01*
Y4404600D01*
X12045400Y4430000D01*
X12070800Y4455400D01*
Y4480800D01*
X12045400D01*
X12020000Y4455400D01*
X11994600Y4480800D01*
X11969200D01*
Y4455400D01*
X11994600Y4430000D01*
X11969200Y4404600D01*
Y4379200D01*
X11639200Y4109200D02*
X11664600D01*
X11690000Y4134600D01*
X11715400Y4109200D01*
X11740800D01*
Y4134600D01*
X11715400Y4160000D01*
X11740800Y4185400D01*
Y4210800D01*
X11715400D01*
X11690000Y4185400D01*
X11664600Y4210800D01*
X11639200D01*
Y4185400D01*
X11664600Y4160000D01*
X11639200Y4134600D01*
Y4109200D01*
Y4369200D02*
X11664600D01*
X11690000Y4394600D01*
X11715400Y4369200D01*
X11740800D01*
Y4394600D01*
X11715400Y4420000D01*
X11740800Y4445400D01*
Y4470800D01*
X11715400D01*
X11690000Y4445400D01*
X11664600Y4470800D01*
X11639200D01*
Y4445400D01*
X11664600Y4420000D01*
X11639200Y4394600D01*
Y4369200D01*
X11249200Y4109200D02*
X11274600D01*
X11300000Y4134600D01*
X11325400Y4109200D01*
X11350800D01*
Y4134600D01*
X11325400Y4160000D01*
X11350800Y4185400D01*
Y4210800D01*
X11325400D01*
X11300000Y4185400D01*
X11274600Y4210800D01*
X11249200D01*
Y4185400D01*
X11274600Y4160000D01*
X11249200Y4134600D01*
Y4109200D01*
X11229200Y4369200D02*
X11254600D01*
X11280000Y4394600D01*
X11305400Y4369200D01*
X11330800D01*
Y4394600D01*
X11305400Y4420000D01*
X11330800Y4445400D01*
Y4470800D01*
X11305400D01*
X11280000Y4445400D01*
X11254600Y4470800D01*
X11229200D01*
Y4445400D01*
X11254600Y4420000D01*
X11229200Y4394600D01*
Y4369200D01*
X10819200Y4109200D02*
X10844600D01*
X10870000Y4134600D01*
X10895400Y4109200D01*
X10920800D01*
Y4134600D01*
X10895400Y4160000D01*
X10920800Y4185400D01*
Y4210800D01*
X10895400D01*
X10870000Y4185400D01*
X10844600Y4210800D01*
X10819200D01*
Y4185400D01*
X10844600Y4160000D01*
X10819200Y4134600D01*
Y4109200D01*
X10809200Y4359200D02*
X10834600D01*
X10860000Y4384600D01*
X10885400Y4359200D01*
X10910800D01*
Y4384600D01*
X10885400Y4410000D01*
X10910800Y4435400D01*
Y4460800D01*
X10885400D01*
X10860000Y4435400D01*
X10834600Y4460800D01*
X10809200D01*
Y4435400D01*
X10834600Y4410000D01*
X10809200Y4384600D01*
Y4359200D01*
X10389200Y4109200D02*
X10414600D01*
X10440000Y4134600D01*
X10465400Y4109200D01*
X10490800D01*
Y4134600D01*
X10465400Y4160000D01*
X10490800Y4185400D01*
Y4210800D01*
X10465400D01*
X10440000Y4185400D01*
X10414600Y4210800D01*
X10389200D01*
Y4185400D01*
X10414600Y4160000D01*
X10389200Y4134600D01*
Y4109200D01*
X10359200Y4359200D02*
X10384600D01*
X10410000Y4384600D01*
X10435400Y4359200D01*
X10460800D01*
Y4384600D01*
X10435400Y4410000D01*
X10460800Y4435400D01*
Y4460800D01*
X10435400D01*
X10410000Y4435400D01*
X10384600Y4460800D01*
X10359200D01*
Y4435400D01*
X10384600Y4410000D01*
X10359200Y4384600D01*
Y4359200D01*
X9959200Y4099200D02*
X9984600D01*
X10010000Y4124600D01*
X10035400Y4099200D01*
X10060800D01*
Y4124600D01*
X10035400Y4150000D01*
X10060800Y4175400D01*
Y4200800D01*
X10035400D01*
X10010000Y4175400D01*
X9984600Y4200800D01*
X9959200D01*
Y4175400D01*
X9984600Y4150000D01*
X9959200Y4124600D01*
Y4099200D01*
X9939200Y4369200D02*
X9964600D01*
X9990000Y4394600D01*
X10015400Y4369200D01*
X10040800D01*
Y4394600D01*
X10015400Y4420000D01*
X10040800Y4445400D01*
Y4470800D01*
X10015400D01*
X9990000Y4445400D01*
X9964600Y4470800D01*
X9939200D01*
Y4445400D01*
X9964600Y4420000D01*
X9939200Y4394600D01*
Y4369200D01*
X9509200Y4109200D02*
X9534600D01*
X9560000Y4134600D01*
X9585400Y4109200D01*
X9610800D01*
Y4134600D01*
X9585400Y4160000D01*
X9610800Y4185400D01*
Y4210800D01*
X9585400D01*
X9560000Y4185400D01*
X9534600Y4210800D01*
X9509200D01*
Y4185400D01*
X9534600Y4160000D01*
X9509200Y4134600D01*
Y4109200D01*
Y4369200D02*
X9534600D01*
X9560000Y4394600D01*
X9585400Y4369200D01*
X9610800D01*
Y4394600D01*
X9585400Y4420000D01*
X9610800Y4445400D01*
Y4470800D01*
X9585400D01*
X9560000Y4445400D01*
X9534600Y4470800D01*
X9509200D01*
Y4445400D01*
X9534600Y4420000D01*
X9509200Y4394600D01*
Y4369200D01*
X9079200Y4109200D02*
X9104600D01*
X9130000Y4134600D01*
X9155400Y4109200D01*
X9180800D01*
Y4134600D01*
X9155400Y4160000D01*
X9180800Y4185400D01*
Y4210800D01*
X9155400D01*
X9130000Y4185400D01*
X9104600Y4210800D01*
X9079200D01*
Y4185400D01*
X9104600Y4160000D01*
X9079200Y4134600D01*
Y4109200D01*
Y4369200D02*
X9104600D01*
X9130000Y4394600D01*
X9155400Y4369200D01*
X9180800D01*
Y4394600D01*
X9155400Y4420000D01*
X9180800Y4445400D01*
Y4470800D01*
X9155400D01*
X9130000Y4445400D01*
X9104600Y4470800D01*
X9079200D01*
Y4445400D01*
X9104600Y4420000D01*
X9079200Y4394600D01*
Y4369200D01*
X8669200Y4109200D02*
X8694600D01*
X8720000Y4134600D01*
X8745400Y4109200D01*
X8770800D01*
Y4134600D01*
X8745400Y4160000D01*
X8770800Y4185400D01*
Y4210800D01*
X8745400D01*
X8720000Y4185400D01*
X8694600Y4210800D01*
X8669200D01*
Y4185400D01*
X8694600Y4160000D01*
X8669200Y4134600D01*
Y4109200D01*
Y4359200D02*
X8694600D01*
X8720000Y4384600D01*
X8745400Y4359200D01*
X8770800D01*
Y4384600D01*
X8745400Y4410000D01*
X8770800Y4435400D01*
Y4460800D01*
X8745400D01*
X8720000Y4435400D01*
X8694600Y4460800D01*
X8669200D01*
Y4435400D01*
X8694600Y4410000D01*
X8669200Y4384600D01*
Y4359200D01*
X8269200Y4109200D02*
X8294600D01*
X8320000Y4134600D01*
X8345400Y4109200D01*
X8370800D01*
Y4134600D01*
X8345400Y4160000D01*
X8370800Y4185400D01*
Y4210800D01*
X8345400D01*
X8320000Y4185400D01*
X8294600Y4210800D01*
X8269200D01*
Y4185400D01*
X8294600Y4160000D01*
X8269200Y4134600D01*
Y4109200D01*
X8249200Y4359200D02*
X8274600D01*
X8300000Y4384600D01*
X8325400Y4359200D01*
X8350800D01*
Y4384600D01*
X8325400Y4410000D01*
X8350800Y4435400D01*
Y4460800D01*
X8325400D01*
X8300000Y4435400D01*
X8274600Y4460800D01*
X8249200D01*
Y4435400D01*
X8274600Y4410000D01*
X8249200Y4384600D01*
Y4359200D01*
X7939200Y4109200D02*
X7964600D01*
X7990000Y4134600D01*
X8015400Y4109200D01*
X8040800D01*
Y4134600D01*
X8015400Y4160000D01*
X8040800Y4185400D01*
Y4210800D01*
X8015400D01*
X7990000Y4185400D01*
X7964600Y4210800D01*
X7939200D01*
Y4185400D01*
X7964600Y4160000D01*
X7939200Y4134600D01*
Y4109200D01*
X7919200Y4359200D02*
X7944600D01*
X7970000Y4384600D01*
X7995400Y4359200D01*
X8020800D01*
Y4384600D01*
X7995400Y4410000D01*
X8020800Y4435400D01*
Y4460800D01*
X7995400D01*
X7970000Y4435400D01*
X7944600Y4460800D01*
X7919200D01*
Y4435400D01*
X7944600Y4410000D01*
X7919200Y4384600D01*
Y4359200D01*
X7589200Y4109200D02*
X7614600D01*
X7640000Y4134600D01*
X7665400Y4109200D01*
X7690800D01*
Y4134600D01*
X7665400Y4160000D01*
X7690800Y4185400D01*
Y4210800D01*
X7665400D01*
X7640000Y4185400D01*
X7614600Y4210800D01*
X7589200D01*
Y4185400D01*
X7614600Y4160000D01*
X7589200Y4134600D01*
Y4109200D01*
X7599200Y4359200D02*
X7624600D01*
X7650000Y4384600D01*
X7675400Y4359200D01*
X7700800D01*
Y4384600D01*
X7675400Y4410000D01*
X7700800Y4435400D01*
Y4460800D01*
X7675400D01*
X7650000Y4435400D01*
X7624600Y4460800D01*
X7599200D01*
Y4435400D01*
X7624600Y4410000D01*
X7599200Y4384600D01*
Y4359200D01*
X7279200Y4109200D02*
X7304600D01*
X7330000Y4134600D01*
X7355400Y4109200D01*
X7380800D01*
Y4134600D01*
X7355400Y4160000D01*
X7380800Y4185400D01*
Y4210800D01*
X7355400D01*
X7330000Y4185400D01*
X7304600Y4210800D01*
X7279200D01*
Y4185400D01*
X7304600Y4160000D01*
X7279200Y4134600D01*
Y4109200D01*
X7269200Y4359200D02*
X7294600D01*
X7320000Y4384600D01*
X7345400Y4359200D01*
X7370800D01*
Y4384600D01*
X7345400Y4410000D01*
X7370800Y4435400D01*
Y4460800D01*
X7345400D01*
X7320000Y4435400D01*
X7294600Y4460800D01*
X7269200D01*
Y4435400D01*
X7294600Y4410000D01*
X7269200Y4384600D01*
Y4359200D01*
X12049200Y39200D02*
X12074600D01*
X12100000Y64600D01*
X12125400Y39200D01*
X12150800D01*
Y64600D01*
X12125400Y90000D01*
X12150800Y115400D01*
Y140800D01*
X12125400D01*
X12100000Y115400D01*
X12074600Y140800D01*
X12049200D01*
Y115400D01*
X12074600Y90000D01*
X12049200Y64600D01*
Y39200D01*
X12019200Y359200D02*
X12044600D01*
X12070000Y384600D01*
X12095400Y359200D01*
X12120800D01*
Y384600D01*
X12095400Y410000D01*
X12120800Y435400D01*
Y460800D01*
X12095400D01*
X12070000Y435400D01*
X12044600Y460800D01*
X12019200D01*
Y435400D01*
X12044600Y410000D01*
X12019200Y384600D01*
Y359200D01*
X11699200Y39200D02*
X11724600D01*
X11750000Y64600D01*
X11775400Y39200D01*
X11800800D01*
Y64600D01*
X11775400Y90000D01*
X11800800Y115400D01*
Y140800D01*
X11775400D01*
X11750000Y115400D01*
X11724600Y140800D01*
X11699200D01*
Y115400D01*
X11724600Y90000D01*
X11699200Y64600D01*
Y39200D01*
X11719200Y349200D02*
X11744600D01*
X11770000Y374600D01*
X11795400Y349200D01*
X11820800D01*
Y374600D01*
X11795400Y400000D01*
X11820800Y425400D01*
Y450800D01*
X11795400D01*
X11770000Y425400D01*
X11744600Y450800D01*
X11719200D01*
Y425400D01*
X11744600Y400000D01*
X11719200Y374600D01*
Y349200D01*
X11369200Y39200D02*
X11394600D01*
X11420000Y64600D01*
X11445400Y39200D01*
X11470800D01*
Y64600D01*
X11445400Y90000D01*
X11470800Y115400D01*
Y140800D01*
X11445400D01*
X11420000Y115400D01*
X11394600Y140800D01*
X11369200D01*
Y115400D01*
X11394600Y90000D01*
X11369200Y64600D01*
Y39200D01*
X11339200Y349200D02*
X11364600D01*
X11390000Y374600D01*
X11415400Y349200D01*
X11440800D01*
Y374600D01*
X11415400Y400000D01*
X11440800Y425400D01*
Y450800D01*
X11415400D01*
X11390000Y425400D01*
X11364600Y450800D01*
X11339200D01*
Y425400D01*
X11364600Y400000D01*
X11339200Y374600D01*
Y349200D01*
X11059200Y29200D02*
X11084600D01*
X11110000Y54600D01*
X11135400Y29200D01*
X11160800D01*
Y54600D01*
X11135400Y80000D01*
X11160800Y105400D01*
Y130800D01*
X11135400D01*
X11110000Y105400D01*
X11084600Y130800D01*
X11059200D01*
Y105400D01*
X11084600Y80000D01*
X11059200Y54600D01*
Y29200D01*
X10999200Y339200D02*
X11024600D01*
X11050000Y364600D01*
X11075400Y339200D01*
X11100800D01*
Y364600D01*
X11075400Y390000D01*
X11100800Y415400D01*
Y440800D01*
X11075400D01*
X11050000Y415400D01*
X11024600Y440800D01*
X10999200D01*
Y415400D01*
X11024600Y390000D01*
X10999200Y364600D01*
Y339200D01*
X10699200Y29200D02*
X10724600D01*
X10750000Y54600D01*
X10775400Y29200D01*
X10800800D01*
Y54600D01*
X10775400Y80000D01*
X10800800Y105400D01*
Y130800D01*
X10775400D01*
X10750000Y105400D01*
X10724600Y130800D01*
X10699200D01*
Y105400D01*
X10724600Y80000D01*
X10699200Y54600D01*
Y29200D01*
Y339200D02*
X10724600D01*
X10750000Y364600D01*
X10775400Y339200D01*
X10800800D01*
Y364600D01*
X10775400Y390000D01*
X10800800Y415400D01*
Y440800D01*
X10775400D01*
X10750000Y415400D01*
X10724600Y440800D01*
X10699200D01*
Y415400D01*
X10724600Y390000D01*
X10699200Y364600D01*
Y339200D01*
X10389200Y29200D02*
X10414600D01*
X10440000Y54600D01*
X10465400Y29200D01*
X10490800D01*
Y54600D01*
X10465400Y80000D01*
X10490800Y105400D01*
Y130800D01*
X10465400D01*
X10440000Y105400D01*
X10414600Y130800D01*
X10389200D01*
Y105400D01*
X10414600Y80000D01*
X10389200Y54600D01*
Y29200D01*
Y339200D02*
X10414600D01*
X10440000Y364600D01*
X10465400Y339200D01*
X10490800D01*
Y364600D01*
X10465400Y390000D01*
X10490800Y415400D01*
Y440800D01*
X10465400D01*
X10440000Y415400D01*
X10414600Y440800D01*
X10389200D01*
Y415400D01*
X10414600Y390000D01*
X10389200Y364600D01*
Y339200D01*
X10069200Y29200D02*
X10094600D01*
X10120000Y54600D01*
X10145400Y29200D01*
X10170800D01*
Y54600D01*
X10145400Y80000D01*
X10170800Y105400D01*
Y130800D01*
X10145400D01*
X10120000Y105400D01*
X10094600Y130800D01*
X10069200D01*
Y105400D01*
X10094600Y80000D01*
X10069200Y54600D01*
Y29200D01*
X10049200Y249200D02*
X10074600D01*
X10100000Y274600D01*
X10125400Y249200D01*
X10150800D01*
Y274600D01*
X10125400Y300000D01*
X10150800Y325400D01*
Y350800D01*
X10125400D01*
X10100000Y325400D01*
X10074600Y350800D01*
X10049200D01*
Y325400D01*
X10074600Y300000D01*
X10049200Y274600D01*
Y249200D01*
X9769200Y19200D02*
X9794600D01*
X9820000Y44600D01*
X9845400Y19200D01*
X9870800D01*
Y44600D01*
X9845400Y70000D01*
X9870800Y95400D01*
Y120800D01*
X9845400D01*
X9820000Y95400D01*
X9794600Y120800D01*
X9769200D01*
Y95400D01*
X9794600Y70000D01*
X9769200Y44600D01*
Y19200D01*
X9749200Y239200D02*
X9774600D01*
X9800000Y264600D01*
X9825400Y239200D01*
X9850800D01*
Y264600D01*
X9825400Y290000D01*
X9850800Y315400D01*
Y340800D01*
X9825400D01*
X9800000Y315400D01*
X9774600Y340800D01*
X9749200D01*
Y315400D01*
X9774600Y290000D01*
X9749200Y264600D01*
Y239200D01*
X9379200Y19200D02*
X9404600D01*
X9430000Y44600D01*
X9455400Y19200D01*
X9480800D01*
Y44600D01*
X9455400Y70000D01*
X9480800Y95400D01*
Y120800D01*
X9455400D01*
X9430000Y95400D01*
X9404600Y120800D01*
X9379200D01*
Y95400D01*
X9404600Y70000D01*
X9379200Y44600D01*
Y19200D01*
X9389200Y239200D02*
X9414600D01*
X9440000Y264600D01*
X9465400Y239200D01*
X9490800D01*
Y264600D01*
X9465400Y290000D01*
X9490800Y315400D01*
Y340800D01*
X9465400D01*
X9440000Y315400D01*
X9414600Y340800D01*
X9389200D01*
Y315400D01*
X9414600Y290000D01*
X9389200Y264600D01*
Y239200D01*
X9049200Y29200D02*
X9074600D01*
X9100000Y54600D01*
X9125400Y29200D01*
X9150800D01*
Y54600D01*
X9125400Y80000D01*
X9150800Y105400D01*
Y130800D01*
X9125400D01*
X9100000Y105400D01*
X9074600Y130800D01*
X9049200D01*
Y105400D01*
X9074600Y80000D01*
X9049200Y54600D01*
Y29200D01*
X9029200Y229200D02*
X9054600D01*
X9080000Y254600D01*
X9105400Y229200D01*
X9130800D01*
Y254600D01*
X9105400Y280000D01*
X9130800Y305400D01*
Y330800D01*
X9105400D01*
X9080000Y305400D01*
X9054600Y330800D01*
X9029200D01*
Y305400D01*
X9054600Y280000D01*
X9029200Y254600D01*
Y229200D01*
X8659200Y39200D02*
X8684600D01*
X8710000Y64600D01*
X8735400Y39200D01*
X8760800D01*
Y64600D01*
X8735400Y90000D01*
X8760800Y115400D01*
Y140800D01*
X8735400D01*
X8710000Y115400D01*
X8684600Y140800D01*
X8659200D01*
Y115400D01*
X8684600Y90000D01*
X8659200Y64600D01*
Y39200D01*
X8679200Y229200D02*
X8704600D01*
X8730000Y254600D01*
X8755400Y229200D01*
X8780800D01*
Y254600D01*
X8755400Y280000D01*
X8780800Y305400D01*
Y330800D01*
X8755400D01*
X8730000Y305400D01*
X8704600Y330800D01*
X8679200D01*
Y305400D01*
X8704600Y280000D01*
X8679200Y254600D01*
Y229200D01*
X8349200Y39200D02*
X8374600D01*
X8400000Y64600D01*
X8425400Y39200D01*
X8450800D01*
Y64600D01*
X8425400Y90000D01*
X8450800Y115400D01*
Y140800D01*
X8425400D01*
X8400000Y115400D01*
X8374600Y140800D01*
X8349200D01*
Y115400D01*
X8374600Y90000D01*
X8349200Y64600D01*
Y39200D01*
Y219200D02*
X8374600D01*
X8400000Y244600D01*
X8425400Y219200D01*
X8450800D01*
Y244600D01*
X8425400Y270000D01*
X8450800Y295400D01*
Y320800D01*
X8425400D01*
X8400000Y295400D01*
X8374600Y320800D01*
X8349200D01*
Y295400D01*
X8374600Y270000D01*
X8349200Y244600D01*
Y219200D01*
X8049200Y39200D02*
X8074600D01*
X8100000Y64600D01*
X8125400Y39200D01*
X8150800D01*
Y64600D01*
X8125400Y90000D01*
X8150800Y115400D01*
Y140800D01*
X8125400D01*
X8100000Y115400D01*
X8074600Y140800D01*
X8049200D01*
Y115400D01*
X8074600Y90000D01*
X8049200Y64600D01*
Y39200D01*
Y219200D02*
X8074600D01*
X8100000Y244600D01*
X8125400Y219200D01*
X8150800D01*
Y244600D01*
X8125400Y270000D01*
X8150800Y295400D01*
Y320800D01*
X8125400D01*
X8100000Y295400D01*
X8074600Y320800D01*
X8049200D01*
Y295400D01*
X8074600Y270000D01*
X8049200Y244600D01*
Y219200D01*
X7769200Y39200D02*
X7794600D01*
X7820000Y64600D01*
X7845400Y39200D01*
X7870800D01*
Y64600D01*
X7845400Y90000D01*
X7870800Y115400D01*
Y140800D01*
X7845400D01*
X7820000Y115400D01*
X7794600Y140800D01*
X7769200D01*
Y115400D01*
X7794600Y90000D01*
X7769200Y64600D01*
Y39200D01*
X7739200Y209200D02*
X7764600D01*
X7790000Y234600D01*
X7815400Y209200D01*
X7840800D01*
Y234600D01*
X7815400Y260000D01*
X7840800Y285400D01*
Y310800D01*
X7815400D01*
X7790000Y285400D01*
X7764600Y310800D01*
X7739200D01*
Y285400D01*
X7764600Y260000D01*
X7739200Y234600D01*
Y209200D01*
X7459200Y39200D02*
X7484600D01*
X7510000Y64600D01*
X7535400Y39200D01*
X7560800D01*
Y64600D01*
X7535400Y90000D01*
X7560800Y115400D01*
Y140800D01*
X7535400D01*
X7510000Y115400D01*
X7484600Y140800D01*
X7459200D01*
Y115400D01*
X7484600Y90000D01*
X7459200Y64600D01*
Y39200D01*
Y209200D02*
X7484600D01*
X7510000Y234600D01*
X7535400Y209200D01*
X7560800D01*
Y234600D01*
X7535400Y260000D01*
X7560800Y285400D01*
Y310800D01*
X7535400D01*
X7510000Y285400D01*
X7484600Y310800D01*
X7459200D01*
Y285400D01*
X7484600Y260000D01*
X7459200Y234600D01*
Y209200D01*
X7159200Y49200D02*
X7184600D01*
X7210000Y74600D01*
X7235400Y49200D01*
X7260800D01*
Y74600D01*
X7235400Y100000D01*
X7260800Y125400D01*
Y150800D01*
X7235400D01*
X7210000Y125400D01*
X7184600Y150800D01*
X7159200D01*
Y125400D01*
X7184600Y100000D01*
X7159200Y74600D01*
Y49200D01*
X7169200Y209200D02*
X7194600D01*
X7220000Y234600D01*
X7245400Y209200D01*
X7270800D01*
Y234600D01*
X7245400Y260000D01*
X7270800Y285400D01*
Y310800D01*
X7245400D01*
X7220000Y285400D01*
X7194600Y310800D01*
X7169200D01*
Y285400D01*
X7194600Y260000D01*
X7169200Y234600D01*
Y209200D01*
X6859200D02*
X6884600D01*
X6910000Y234600D01*
X6935400Y209200D01*
X6960800D01*
Y234600D01*
X6935400Y260000D01*
X6960800Y285400D01*
Y310800D01*
X6935400D01*
X6910000Y285400D01*
X6884600Y310800D01*
X6859200D01*
Y285400D01*
X6884600Y260000D01*
X6859200Y234600D01*
Y209200D01*
Y49200D02*
X6884600D01*
X6910000Y74600D01*
X6935400Y49200D01*
X6960800D01*
Y74600D01*
X6935400Y100000D01*
X6960800Y125400D01*
Y150800D01*
X6935400D01*
X6910000Y125400D01*
X6884600Y150800D01*
X6859200D01*
Y125400D01*
X6884600Y100000D01*
X6859200Y74600D01*
Y49200D01*
X11189200Y2289200D02*
X11214600D01*
X11240000Y2314600D01*
X11265400Y2289200D01*
X11290800D01*
Y2314600D01*
X11265400Y2340000D01*
X11290800Y2365400D01*
Y2390800D01*
X11265400D01*
X11240000Y2365400D01*
X11214600Y2390800D01*
X11189200D01*
Y2365400D01*
X11214600Y2340000D01*
X11189200Y2314600D01*
Y2289200D01*
X11229200Y2999200D02*
X11254600D01*
X11280000Y3024600D01*
X11305400Y2999200D01*
X11330800D01*
Y3024600D01*
X11305400Y3050000D01*
X11330800Y3075400D01*
Y3100800D01*
X11305400D01*
X11280000Y3075400D01*
X11254600Y3100800D01*
X11229200D01*
Y3075400D01*
X11254600Y3050000D01*
X11229200Y3024600D01*
Y2999200D01*
X11209200Y3199200D02*
X11234600D01*
X11260000Y3224600D01*
X11285400Y3199200D01*
X11310800D01*
Y3224600D01*
X11285400Y3250000D01*
X11310800Y3275400D01*
Y3300800D01*
X11285400D01*
X11260000Y3275400D01*
X11234600Y3300800D01*
X11209200D01*
Y3275400D01*
X11234600Y3250000D01*
X11209200Y3224600D01*
Y3199200D01*
X11189200Y3419200D02*
X11214600D01*
X11240000Y3444600D01*
X11265400Y3419200D01*
X11290800D01*
Y3444600D01*
X11265400Y3470000D01*
X11290800Y3495400D01*
Y3520800D01*
X11265400D01*
X11240000Y3495400D01*
X11214600Y3520800D01*
X11189200D01*
Y3495400D01*
X11214600Y3470000D01*
X11189200Y3444600D01*
Y3419200D01*
X11199200Y3629200D02*
X11224600D01*
X11250000Y3654600D01*
X11275400Y3629200D01*
X11300800D01*
Y3654600D01*
X11275400Y3680000D01*
X11300800Y3705400D01*
Y3730800D01*
X11275400D01*
X11250000Y3705400D01*
X11224600Y3730800D01*
X11199200D01*
Y3705400D01*
X11224600Y3680000D01*
X11199200Y3654600D01*
Y3629200D01*
X10549200Y2819200D02*
X10574600D01*
X10600000Y2844600D01*
X10625400Y2819200D01*
X10650800D01*
Y2844600D01*
X10625400Y2870000D01*
X10650800Y2895400D01*
Y2920800D01*
X10625400D01*
X10600000Y2895400D01*
X10574600Y2920800D01*
X10549200D01*
Y2895400D01*
X10574600Y2870000D01*
X10549200Y2844600D01*
Y2819200D01*
X10349200Y2809200D02*
X10374600D01*
X10400000Y2834600D01*
X10425400Y2809200D01*
X10450800D01*
Y2834600D01*
X10425400Y2860000D01*
X10450800Y2885400D01*
Y2910800D01*
X10425400D01*
X10400000Y2885400D01*
X10374600Y2910800D01*
X10349200D01*
Y2885400D01*
X10374600Y2860000D01*
X10349200Y2834600D01*
Y2809200D01*
X10529200Y3029200D02*
X10554600D01*
X10580000Y3054600D01*
X10605400Y3029200D01*
X10630800D01*
Y3054600D01*
X10605400Y3080000D01*
X10630800Y3105400D01*
Y3130800D01*
X10605400D01*
X10580000Y3105400D01*
X10554600Y3130800D01*
X10529200D01*
Y3105400D01*
X10554600Y3080000D01*
X10529200Y3054600D01*
Y3029200D01*
X10349200Y3039200D02*
X10374600D01*
X10400000Y3064600D01*
X10425400Y3039200D01*
X10450800D01*
Y3064600D01*
X10425400Y3090000D01*
X10450800Y3115400D01*
Y3140800D01*
X10425400D01*
X10400000Y3115400D01*
X10374600Y3140800D01*
X10349200D01*
Y3115400D01*
X10374600Y3090000D01*
X10349200Y3064600D01*
Y3039200D01*
X10539200Y3239200D02*
X10564600D01*
X10590000Y3264600D01*
X10615400Y3239200D01*
X10640800D01*
Y3264600D01*
X10615400Y3290000D01*
X10640800Y3315400D01*
Y3340800D01*
X10615400D01*
X10590000Y3315400D01*
X10564600Y3340800D01*
X10539200D01*
Y3315400D01*
X10564600Y3290000D01*
X10539200Y3264600D01*
Y3239200D01*
X10359200Y3219200D02*
X10384600D01*
X10410000Y3244600D01*
X10435400Y3219200D01*
X10460800D01*
Y3244600D01*
X10435400Y3270000D01*
X10460800Y3295400D01*
Y3320800D01*
X10435400D01*
X10410000Y3295400D01*
X10384600Y3320800D01*
X10359200D01*
Y3295400D01*
X10384600Y3270000D01*
X10359200Y3244600D01*
Y3219200D01*
X10539200Y3439200D02*
X10564600D01*
X10590000Y3464600D01*
X10615400Y3439200D01*
X10640800D01*
Y3464600D01*
X10615400Y3490000D01*
X10640800Y3515400D01*
Y3540800D01*
X10615400D01*
X10590000Y3515400D01*
X10564600Y3540800D01*
X10539200D01*
Y3515400D01*
X10564600Y3490000D01*
X10539200Y3464600D01*
Y3439200D01*
X10319200Y3449200D02*
X10344600D01*
X10370000Y3474600D01*
X10395400Y3449200D01*
X10420800D01*
Y3474600D01*
X10395400Y3500000D01*
X10420800Y3525400D01*
Y3550800D01*
X10395400D01*
X10370000Y3525400D01*
X10344600Y3550800D01*
X10319200D01*
Y3525400D01*
X10344600Y3500000D01*
X10319200Y3474600D01*
Y3449200D01*
X10539200Y3639200D02*
X10564600D01*
X10590000Y3664600D01*
X10615400Y3639200D01*
X10640800D01*
Y3664600D01*
X10615400Y3690000D01*
X10640800Y3715400D01*
Y3740800D01*
X10615400D01*
X10590000Y3715400D01*
X10564600Y3740800D01*
X10539200D01*
Y3715400D01*
X10564600Y3690000D01*
X10539200Y3664600D01*
Y3639200D01*
X10319200Y3629200D02*
X10344600D01*
X10370000Y3654600D01*
X10395400Y3629200D01*
X10420800D01*
Y3654600D01*
X10395400Y3680000D01*
X10420800Y3705400D01*
Y3730800D01*
X10395400D01*
X10370000Y3705400D01*
X10344600Y3730800D01*
X10319200D01*
Y3705400D01*
X10344600Y3680000D01*
X10319200Y3654600D01*
Y3629200D01*
X9496500Y2781900D02*
X9521900D01*
X9547300Y2807300D01*
X9572700Y2781900D01*
X9598100D01*
Y2807300D01*
X9572700Y2832700D01*
X9598100Y2858100D01*
Y2883500D01*
X9572700D01*
X9547300Y2858100D01*
X9521900Y2883500D01*
X9496500D01*
Y2858100D01*
X9521900Y2832700D01*
X9496500Y2807300D01*
Y2781900D01*
X9689200Y3419200D02*
X9714600D01*
X9740000Y3444600D01*
X9765400Y3419200D01*
X9790800D01*
Y3444600D01*
X9765400Y3470000D01*
X9790800Y3495400D01*
Y3520800D01*
X9765400D01*
X9740000Y3495400D01*
X9714600Y3520800D01*
X9689200D01*
Y3495400D01*
X9714600Y3470000D01*
X9689200Y3444600D01*
Y3419200D01*
X9509200D02*
X9534600D01*
X9560000Y3444600D01*
X9585400Y3419200D01*
X9610800D01*
Y3444600D01*
X9585400Y3470000D01*
X9610800Y3495400D01*
Y3520800D01*
X9585400D01*
X9560000Y3495400D01*
X9534600Y3520800D01*
X9509200D01*
Y3495400D01*
X9534600Y3470000D01*
X9509200Y3444600D01*
Y3419200D01*
X9689200Y3619200D02*
X9714600D01*
X9740000Y3644600D01*
X9765400Y3619200D01*
X9790800D01*
Y3644600D01*
X9765400Y3670000D01*
X9790800Y3695400D01*
Y3720800D01*
X9765400D01*
X9740000Y3695400D01*
X9714600Y3720800D01*
X9689200D01*
Y3695400D01*
X9714600Y3670000D01*
X9689200Y3644600D01*
Y3619200D01*
X9489200Y3629200D02*
X9514600D01*
X9540000Y3654600D01*
X9565400Y3629200D01*
X9590800D01*
Y3654600D01*
X9565400Y3680000D01*
X9590800Y3705400D01*
Y3730800D01*
X9565400D01*
X9540000Y3705400D01*
X9514600Y3730800D01*
X9489200D01*
Y3705400D01*
X9514600Y3680000D01*
X9489200Y3654600D01*
Y3629200D01*
X8869200Y2799200D02*
X8894600D01*
X8920000Y2824600D01*
X8945400Y2799200D01*
X8970800D01*
Y2824600D01*
X8945400Y2850000D01*
X8970800Y2875400D01*
Y2900800D01*
X8945400D01*
X8920000Y2875400D01*
X8894600Y2900800D01*
X8869200D01*
Y2875400D01*
X8894600Y2850000D01*
X8869200Y2824600D01*
Y2799200D01*
X8659200Y2789200D02*
X8684600D01*
X8710000Y2814600D01*
X8735400Y2789200D01*
X8760800D01*
Y2814600D01*
X8735400Y2840000D01*
X8760800Y2865400D01*
Y2890800D01*
X8735400D01*
X8710000Y2865400D01*
X8684600Y2890800D01*
X8659200D01*
Y2865400D01*
X8684600Y2840000D01*
X8659200Y2814600D01*
Y2789200D01*
X8869200Y2999200D02*
X8894600D01*
X8920000Y3024600D01*
X8945400Y2999200D01*
X8970800D01*
Y3024600D01*
X8945400Y3050000D01*
X8970800Y3075400D01*
Y3100800D01*
X8945400D01*
X8920000Y3075400D01*
X8894600Y3100800D01*
X8869200D01*
Y3075400D01*
X8894600Y3050000D01*
X8869200Y3024600D01*
Y2999200D01*
X8659200Y2989200D02*
X8684600D01*
X8710000Y3014600D01*
X8735400Y2989200D01*
X8760800D01*
Y3014600D01*
X8735400Y3040000D01*
X8760800Y3065400D01*
Y3090800D01*
X8735400D01*
X8710000Y3065400D01*
X8684600Y3090800D01*
X8659200D01*
Y3065400D01*
X8684600Y3040000D01*
X8659200Y3014600D01*
Y2989200D01*
X8859200Y3189200D02*
X8884600D01*
X8910000Y3214600D01*
X8935400Y3189200D01*
X8960800D01*
Y3214600D01*
X8935400Y3240000D01*
X8960800Y3265400D01*
Y3290800D01*
X8935400D01*
X8910000Y3265400D01*
X8884600Y3290800D01*
X8859200D01*
Y3265400D01*
X8884600Y3240000D01*
X8859200Y3214600D01*
Y3189200D01*
X8629200Y3169200D02*
X8654600D01*
X8680000Y3194600D01*
X8705400Y3169200D01*
X8730800D01*
Y3194600D01*
X8705400Y3220000D01*
X8730800Y3245400D01*
Y3270800D01*
X8705400D01*
X8680000Y3245400D01*
X8654600Y3270800D01*
X8629200D01*
Y3245400D01*
X8654600Y3220000D01*
X8629200Y3194600D01*
Y3169200D01*
X8859200Y3399200D02*
X8884600D01*
X8910000Y3424600D01*
X8935400Y3399200D01*
X8960800D01*
Y3424600D01*
X8935400Y3450000D01*
X8960800Y3475400D01*
Y3500800D01*
X8935400D01*
X8910000Y3475400D01*
X8884600Y3500800D01*
X8859200D01*
Y3475400D01*
X8884600Y3450000D01*
X8859200Y3424600D01*
Y3399200D01*
X8609200D02*
X8634600D01*
X8660000Y3424600D01*
X8685400Y3399200D01*
X8710800D01*
Y3424600D01*
X8685400Y3450000D01*
X8710800Y3475400D01*
Y3500800D01*
X8685400D01*
X8660000Y3475400D01*
X8634600Y3500800D01*
X8609200D01*
Y3475400D01*
X8634600Y3450000D01*
X8609200Y3424600D01*
Y3399200D01*
X8859200Y3609200D02*
X8884600D01*
X8910000Y3634600D01*
X8935400Y3609200D01*
X8960800D01*
Y3634600D01*
X8935400Y3660000D01*
X8960800Y3685400D01*
Y3710800D01*
X8935400D01*
X8910000Y3685400D01*
X8884600Y3710800D01*
X8859200D01*
Y3685400D01*
X8884600Y3660000D01*
X8859200Y3634600D01*
Y3609200D01*
X8599200D02*
X8624600D01*
X8650000Y3634600D01*
X8675400Y3609200D01*
X8700800D01*
Y3634600D01*
X8675400Y3660000D01*
X8700800Y3685400D01*
Y3710800D01*
X8675400D01*
X8650000Y3685400D01*
X8624600Y3710800D01*
X8599200D01*
Y3685400D01*
X8624600Y3660000D01*
X8599200Y3634600D01*
Y3609200D01*
X7919200Y2799200D02*
X7944600D01*
X7970000Y2824600D01*
X7995400Y2799200D01*
X8020800D01*
Y2824600D01*
X7995400Y2850000D01*
X8020800Y2875400D01*
Y2900800D01*
X7995400D01*
X7970000Y2875400D01*
X7944600Y2900800D01*
X7919200D01*
Y2875400D01*
X7944600Y2850000D01*
X7919200Y2824600D01*
Y2799200D01*
X7689200D02*
X7714600D01*
X7740000Y2824600D01*
X7765400Y2799200D01*
X7790800D01*
Y2824600D01*
X7765400Y2850000D01*
X7790800Y2875400D01*
Y2900800D01*
X7765400D01*
X7740000Y2875400D01*
X7714600Y2900800D01*
X7689200D01*
Y2875400D01*
X7714600Y2850000D01*
X7689200Y2824600D01*
Y2799200D01*
X7909200Y2999200D02*
X7934600D01*
X7960000Y3024600D01*
X7985400Y2999200D01*
X8010800D01*
Y3024600D01*
X7985400Y3050000D01*
X8010800Y3075400D01*
Y3100800D01*
X7985400D01*
X7960000Y3075400D01*
X7934600Y3100800D01*
X7909200D01*
Y3075400D01*
X7934600Y3050000D01*
X7909200Y3024600D01*
Y2999200D01*
X7689200Y2989200D02*
X7714600D01*
X7740000Y3014600D01*
X7765400Y2989200D01*
X7790800D01*
Y3014600D01*
X7765400Y3040000D01*
X7790800Y3065400D01*
Y3090800D01*
X7765400D01*
X7740000Y3065400D01*
X7714600Y3090800D01*
X7689200D01*
Y3065400D01*
X7714600Y3040000D01*
X7689200Y3014600D01*
Y2989200D01*
X7909200Y3189200D02*
X7934600D01*
X7960000Y3214600D01*
X7985400Y3189200D01*
X8010800D01*
Y3214600D01*
X7985400Y3240000D01*
X8010800Y3265400D01*
Y3290800D01*
X7985400D01*
X7960000Y3265400D01*
X7934600Y3290800D01*
X7909200D01*
Y3265400D01*
X7934600Y3240000D01*
X7909200Y3214600D01*
Y3189200D01*
X7679200Y3179200D02*
X7704600D01*
X7730000Y3204600D01*
X7755400Y3179200D01*
X7780800D01*
Y3204600D01*
X7755400Y3230000D01*
X7780800Y3255400D01*
Y3280800D01*
X7755400D01*
X7730000Y3255400D01*
X7704600Y3280800D01*
X7679200D01*
Y3255400D01*
X7704600Y3230000D01*
X7679200Y3204600D01*
Y3179200D01*
X7899200Y3389200D02*
X7924600D01*
X7950000Y3414600D01*
X7975400Y3389200D01*
X8000800D01*
Y3414600D01*
X7975400Y3440000D01*
X8000800Y3465400D01*
Y3490800D01*
X7975400D01*
X7950000Y3465400D01*
X7924600Y3490800D01*
X7899200D01*
Y3465400D01*
X7924600Y3440000D01*
X7899200Y3414600D01*
Y3389200D01*
X7669200D02*
X7694600D01*
X7720000Y3414600D01*
X7745400Y3389200D01*
X7770800D01*
Y3414600D01*
X7745400Y3440000D01*
X7770800Y3465400D01*
Y3490800D01*
X7745400D01*
X7720000Y3465400D01*
X7694600Y3490800D01*
X7669200D01*
Y3465400D01*
X7694600Y3440000D01*
X7669200Y3414600D01*
Y3389200D01*
X7899200Y3599200D02*
X7924600D01*
X7950000Y3624600D01*
X7975400Y3599200D01*
X8000800D01*
Y3624600D01*
X7975400Y3650000D01*
X8000800Y3675400D01*
Y3700800D01*
X7975400D01*
X7950000Y3675400D01*
X7924600Y3700800D01*
X7899200D01*
Y3675400D01*
X7924600Y3650000D01*
X7899200Y3624600D01*
Y3599200D01*
X7659200D02*
X7684600D01*
X7710000Y3624600D01*
X7735400Y3599200D01*
X7760800D01*
Y3624600D01*
X7735400Y3650000D01*
X7760800Y3675400D01*
Y3700800D01*
X7735400D01*
X7710000Y3675400D01*
X7684600Y3700800D01*
X7659200D01*
Y3675400D01*
X7684600Y3650000D01*
X7659200Y3624600D01*
Y3599200D01*
X11659200Y2039200D02*
X11684600D01*
X11710000Y2064600D01*
X11735400Y2039200D01*
X11760800D01*
Y2064600D01*
X11735400Y2090000D01*
X11760800Y2115400D01*
Y2140800D01*
X11735400D01*
X11710000Y2115400D01*
X11684600Y2140800D01*
X11659200D01*
Y2115400D01*
X11684600Y2090000D01*
X11659200Y2064600D01*
Y2039200D01*
Y2229200D02*
X11684600D01*
X11710000Y2254600D01*
X11735400Y2229200D01*
X11760800D01*
Y2254600D01*
X11735400Y2280000D01*
X11760800Y2305400D01*
Y2330800D01*
X11735400D01*
X11710000Y2305400D01*
X11684600Y2330800D01*
X11659200D01*
Y2305400D01*
X11684600Y2280000D01*
X11659200Y2254600D01*
Y2229200D01*
X11669200Y3229200D02*
X11694600D01*
X11720000Y3254600D01*
X11745400Y3229200D01*
X11770800D01*
Y3254600D01*
X11745400Y3280000D01*
X11770800Y3305400D01*
Y3330800D01*
X11745400D01*
X11720000Y3305400D01*
X11694600Y3330800D01*
X11669200D01*
Y3305400D01*
X11694600Y3280000D01*
X11669200Y3254600D01*
Y3229200D01*
X11669200Y629200D02*
X11694600D01*
X11720000Y654600D01*
X11745400Y629200D01*
X11770800D01*
Y654600D01*
X11745400Y680000D01*
X11770800Y705400D01*
Y730800D01*
X11745400D01*
X11720000Y705400D01*
X11694600Y730800D01*
X11669200D01*
Y705400D01*
X11694600Y680000D01*
X11669200Y654600D01*
Y629200D01*
X10469200Y579200D02*
X10494600D01*
X10520000Y604600D01*
X10545400Y579200D01*
X10570800D01*
Y604600D01*
X10545400Y630000D01*
X10570800Y655400D01*
Y680800D01*
X10545400D01*
X10520000Y655400D01*
X10494600Y680800D01*
X10469200D01*
Y655400D01*
X10494600Y630000D01*
X10469200Y604600D01*
Y579200D01*
X10429200Y1959200D02*
X10454600D01*
X10480000Y1984600D01*
X10505400Y1959200D01*
X10530800D01*
Y1984600D01*
X10505400Y2010000D01*
X10530800Y2035400D01*
Y2060800D01*
X10505400D01*
X10480000Y2035400D01*
X10454600Y2060800D01*
X10429200D01*
Y2035400D01*
X10454600Y2010000D01*
X10429200Y1984600D01*
Y1959200D01*
X381000Y863600D02*
X406400D01*
X431800Y889000D01*
X457200Y863600D01*
X482600D01*
Y889000D01*
X457200Y914400D01*
X482600Y939800D01*
Y965200D01*
X457200D01*
X431800Y939800D01*
X406400Y965200D01*
X381000D01*
Y939800D01*
X406400Y914400D01*
X381000Y889000D01*
Y863600D01*
X6019800Y2209800D02*
X6045200D01*
X6070600Y2235200D01*
X6096000Y2209800D01*
X6121400D01*
Y2235200D01*
X6096000Y2260600D01*
X6121400Y2286000D01*
Y2311400D01*
X6096000D01*
X6070600Y2286000D01*
X6045200Y2311400D01*
X6019800D01*
Y2286000D01*
X6045200Y2260600D01*
X6019800Y2235200D01*
Y2209800D01*
X3251200Y812800D02*
X3276600D01*
X3302000Y838200D01*
X3327400Y812800D01*
X3352800D01*
Y838200D01*
X3327400Y863600D01*
X3352800Y889000D01*
Y914400D01*
X3327400D01*
X3302000Y889000D01*
X3276600Y914400D01*
X3251200D01*
Y889000D01*
X3276600Y863600D01*
X3251200Y838200D01*
Y812800D01*
X914400Y914400D02*
X939800D01*
X965200Y939800D01*
X990600Y914400D01*
X1016000D01*
Y939800D01*
X990600Y965200D01*
X1016000Y990600D01*
Y1016000D01*
X990600D01*
X965200Y990600D01*
X939800Y1016000D01*
X914400D01*
Y990600D01*
X939800Y965200D01*
X914400Y939800D01*
Y914400D01*
Y1066800D02*
X939800D01*
X965200Y1092200D01*
X990600Y1066800D01*
X1016000D01*
Y1092200D01*
X990600Y1117600D01*
X1016000Y1143000D01*
Y1168400D01*
X990600D01*
X965200Y1143000D01*
X939800Y1168400D01*
X914400D01*
Y1143000D01*
X939800Y1117600D01*
X914400Y1092200D01*
Y1066800D01*
X2540000Y1375500D02*
X2565400D01*
X2590800Y1400900D01*
X2616200Y1375500D01*
X2641600D01*
Y1400900D01*
X2616200Y1426300D01*
X2641600Y1451700D01*
Y1477100D01*
X2616200D01*
X2590800Y1451700D01*
X2565400Y1477100D01*
X2540000D01*
Y1451700D01*
X2565400Y1426300D01*
X2540000Y1400900D01*
Y1375500D01*
X2903600Y1049400D02*
X2929000D01*
X2954400Y1074800D01*
X2979800Y1049400D01*
X3005200D01*
Y1074800D01*
X2979800Y1100200D01*
X3005200Y1125600D01*
Y1151000D01*
X2979800D01*
X2954400Y1125600D01*
X2929000Y1151000D01*
X2903600D01*
Y1125600D01*
X2929000Y1100200D01*
X2903600Y1074800D01*
Y1049400D01*
X6527800Y3429000D02*
X6553200D01*
X6578600Y3454400D01*
X6604000Y3429000D01*
X6629400D01*
Y3454400D01*
X6604000Y3479800D01*
X6629400Y3505200D01*
Y3530600D01*
X6604000D01*
X6578600Y3505200D01*
X6553200Y3530600D01*
X6527800D01*
Y3505200D01*
X6553200Y3479800D01*
X6527800Y3454400D01*
Y3429000D01*
X6375400Y2768600D02*
X6400800D01*
X6426200Y2794000D01*
X6451600Y2768600D01*
X6477000D01*
Y2794000D01*
X6451600Y2819400D01*
X6477000Y2844800D01*
Y2870200D01*
X6451600D01*
X6426200Y2844800D01*
X6400800Y2870200D01*
X6375400D01*
Y2844800D01*
X6400800Y2819400D01*
X6375400Y2794000D01*
Y2768600D01*
X2184400Y381000D02*
X2209800D01*
X2235200Y406400D01*
X2260600Y381000D01*
X2286000D01*
Y406400D01*
X2260600Y431800D01*
X2286000Y457200D01*
Y482600D01*
X2260600D01*
X2235200Y457200D01*
X2209800Y482600D01*
X2184400D01*
Y457200D01*
X2209800Y431800D01*
X2184400Y406400D01*
Y381000D01*
X2057400Y1295400D02*
X2082800D01*
X2108200Y1320800D01*
X2133600Y1295400D01*
X2159000D01*
Y1320800D01*
X2133600Y1346200D01*
X2159000Y1371600D01*
Y1397000D01*
X2133600D01*
X2108200Y1371600D01*
X2082800Y1397000D01*
X2057400D01*
Y1371600D01*
X2082800Y1346200D01*
X2057400Y1320800D01*
Y1295400D01*
X3937000Y1875250D02*
X3962400D01*
X3987800Y1900650D01*
X4013200Y1875250D01*
X4038600D01*
Y1900650D01*
X4013200Y1926050D01*
X4038600Y1951450D01*
Y1976850D01*
X4013200D01*
X3987800Y1951450D01*
X3962400Y1976850D01*
X3937000D01*
Y1951450D01*
X3962400Y1926050D01*
X3937000Y1900650D01*
Y1875250D01*
X3545084Y1484116D02*
X3570484D01*
X3595884Y1509516D01*
X3621284Y1484116D01*
X3646684D01*
Y1509516D01*
X3621284Y1534916D01*
X3646684Y1560316D01*
Y1585716D01*
X3621284D01*
X3595884Y1560316D01*
X3570484Y1585716D01*
X3545084D01*
Y1560316D01*
X3570484Y1534916D01*
X3545084Y1509516D01*
Y1484116D01*
X3505200Y1244600D02*
X3530600D01*
X3556000Y1270000D01*
X3581400Y1244600D01*
X3606800D01*
Y1270000D01*
X3581400Y1295400D01*
X3606800Y1320800D01*
Y1346200D01*
X3581400D01*
X3556000Y1320800D01*
X3530600Y1346200D01*
X3505200D01*
Y1320800D01*
X3530600Y1295400D01*
X3505200Y1270000D01*
Y1244600D01*
Y1676400D02*
X3530600D01*
X3556000Y1701800D01*
X3581400Y1676400D01*
X3606800D01*
Y1701800D01*
X3581400Y1727200D01*
X3606800Y1752600D01*
Y1778000D01*
X3581400D01*
X3556000Y1752600D01*
X3530600Y1778000D01*
X3505200D01*
Y1752600D01*
X3530600Y1727200D01*
X3505200Y1701800D01*
Y1676400D01*
X2641600Y609600D02*
X2667000D01*
X2692400Y635000D01*
X2717800Y609600D01*
X2743200D01*
Y635000D01*
X2717800Y660400D01*
X2743200Y685800D01*
Y711200D01*
X2717800D01*
X2692400Y685800D01*
X2667000Y711200D01*
X2641600D01*
Y685800D01*
X2667000Y660400D01*
X2641600Y635000D01*
Y609600D01*
X2590800Y1168400D02*
X2616200D01*
X2641600Y1193800D01*
X2667000Y1168400D01*
X2692400D01*
Y1193800D01*
X2667000Y1219200D01*
X2692400Y1244600D01*
Y1270000D01*
X2667000D01*
X2641600Y1244600D01*
X2616200Y1270000D01*
X2590800D01*
Y1244600D01*
X2616200Y1219200D01*
X2590800Y1193800D01*
Y1168400D01*
X4038600Y3632200D02*
X4064000D01*
X4089400Y3657600D01*
X4114800Y3632200D01*
X4140200D01*
Y3657600D01*
X4114800Y3683000D01*
X4140200Y3708400D01*
Y3733800D01*
X4114800D01*
X4089400Y3708400D01*
X4064000Y3733800D01*
X4038600D01*
Y3708400D01*
X4064000Y3683000D01*
X4038600Y3657600D01*
Y3632200D01*
X4953000Y3937000D02*
X4978400D01*
X5003800Y3962400D01*
X5029200Y3937000D01*
X5054600D01*
Y3962400D01*
X5029200Y3987800D01*
X5054600Y4013200D01*
Y4038600D01*
X5029200D01*
X5003800Y4013200D01*
X4978400Y4038600D01*
X4953000D01*
Y4013200D01*
X4978400Y3987800D01*
X4953000Y3962400D01*
Y3937000D01*
X1981200Y3505200D02*
X2006600D01*
X2032000Y3530600D01*
X2057400Y3505200D01*
X2082800D01*
Y3530600D01*
X2057400Y3556000D01*
X2082800Y3581400D01*
Y3606800D01*
X2057400D01*
X2032000Y3581400D01*
X2006600Y3606800D01*
X1981200D01*
Y3581400D01*
X2006600Y3556000D01*
X1981200Y3530600D01*
Y3505200D01*
X3606800Y2108200D02*
X3632200D01*
X3657600Y2133600D01*
X3683000Y2108200D01*
X3708400D01*
Y2133600D01*
X3683000Y2159000D01*
X3708400Y2184400D01*
Y2209800D01*
X3683000D01*
X3657600Y2184400D01*
X3632200Y2209800D01*
X3606800D01*
Y2184400D01*
X3632200Y2159000D01*
X3606800Y2133600D01*
Y2108200D01*
X1207600Y2325200D02*
X1233000D01*
X1258400Y2350600D01*
X1283800Y2325200D01*
X1309200D01*
Y2350600D01*
X1283800Y2376000D01*
X1309200Y2401400D01*
Y2426800D01*
X1283800D01*
X1258400Y2401400D01*
X1233000Y2426800D01*
X1207600D01*
Y2401400D01*
X1233000Y2376000D01*
X1207600Y2350600D01*
Y2325200D01*
X558800Y762000D02*
X584200D01*
X609600Y787400D01*
X635000Y762000D01*
X660400D01*
Y787400D01*
X635000Y812800D01*
X660400Y838200D01*
Y863600D01*
X635000D01*
X609600Y838200D01*
X584200Y863600D01*
X558800D01*
Y838200D01*
X584200Y812800D01*
X558800Y787400D01*
Y762000D01*
X914400Y1397000D02*
X939800D01*
X965200Y1422400D01*
X990600Y1397000D01*
X1016000D01*
Y1422400D01*
X990600Y1447800D01*
X1016000Y1473200D01*
Y1498600D01*
X990600D01*
X965200Y1473200D01*
X939800Y1498600D01*
X914400D01*
Y1473200D01*
X939800Y1447800D01*
X914400Y1422400D01*
Y1397000D01*
Y749077D02*
X939800D01*
X965200Y774477D01*
X990600Y749077D01*
X1016000D01*
Y774477D01*
X990600Y799877D01*
X1016000Y825277D01*
Y850677D01*
X990600D01*
X965200Y825277D01*
X939800Y850677D01*
X914400D01*
Y825277D01*
X939800Y799877D01*
X914400Y774477D01*
Y749077D01*
D93*
X6430480Y4300000D02*
G03*
X6430480Y4300000I-30480J0D01*
G01*
Y200000D02*
G03*
X6430480Y200000I-30480J0D01*
G01*
X280480Y4300000D02*
G03*
X280480Y4300000I-30480J0D01*
G01*
X12580480Y200000D02*
G03*
X12580480Y200000I-30480J0D01*
G01*
X280480D02*
G03*
X280480Y200000I-30480J0D01*
G01*
X12580480Y4300000D02*
G03*
X12580480Y4300000I-30480J0D01*
G01*
D112*
X6450800D02*
G03*
X6450800Y4300000I-50800J0D01*
G01*
Y200000D02*
G03*
X6450800Y200000I-50800J0D01*
G01*
X300800Y4300000D02*
G03*
X300800Y4300000I-50800J0D01*
G01*
X12600800Y200000D02*
G03*
X12600800Y200000I-50800J0D01*
G01*
X300800D02*
G03*
X300800Y200000I-50800J0D01*
G01*
X12600800Y4300000D02*
G03*
X12600800Y4300000I-50800J0D01*
G01*
X330200Y507800D02*
G03*
X330200Y507800I-50800J0D01*
G01*
Y1371800D02*
G03*
X330200Y1371800I-50800J0D01*
G01*
Y3124000D02*
G03*
X330200Y3124000I-50800J0D01*
G01*
Y3988000D02*
G03*
X330200Y3988000I-50800J0D01*
G01*
%TF.MD5,f9d8f75e3be149449ad032f286b5fc14*%
M02*
