%TF.GenerationSoftware,Altium Limited,Altium Designer,23.4.1 (23)*%
G04 Layer_Physical_Order=2*
G04 Layer_Color=16711680*
%FSLAX45Y45*%
%MOMM*%
%TF.SameCoordinates,576A2805-CD40-4E5C-B7A3-750DB6231075*%
%TF.FilePolarity,Positive*%
%TF.FileFunction,Copper,L2,Bot,Signal*%
%TF.Part,Single*%
G01*
G75*
%TA.AperFunction,SMDPad,CuDef*%
%ADD12R,1.10000X1.00000*%
G04:AMPARAMS|DCode=15|XSize=0.94mm|YSize=1.02mm|CornerRadius=0.094mm|HoleSize=0mm|Usage=FLASHONLY|Rotation=270.000|XOffset=0mm|YOffset=0mm|HoleType=Round|Shape=RoundedRectangle|*
%AMROUNDEDRECTD15*
21,1,0.94000,0.83200,0,0,270.0*
21,1,0.75200,1.02000,0,0,270.0*
1,1,0.18800,-0.41600,-0.37600*
1,1,0.18800,-0.41600,0.37600*
1,1,0.18800,0.41600,0.37600*
1,1,0.18800,0.41600,-0.37600*
%
%ADD15ROUNDEDRECTD15*%
G04:AMPARAMS|DCode=16|XSize=0.94mm|YSize=1.02mm|CornerRadius=0.094mm|HoleSize=0mm|Usage=FLASHONLY|Rotation=180.000|XOffset=0mm|YOffset=0mm|HoleType=Round|Shape=RoundedRectangle|*
%AMROUNDEDRECTD16*
21,1,0.94000,0.83200,0,0,180.0*
21,1,0.75200,1.02000,0,0,180.0*
1,1,0.18800,-0.37600,0.41600*
1,1,0.18800,0.37600,0.41600*
1,1,0.18800,0.37600,-0.41600*
1,1,0.18800,-0.37600,-0.41600*
%
%ADD16ROUNDEDRECTD16*%
G04:AMPARAMS|DCode=32|XSize=2.21mm|YSize=1.53mm|CornerRadius=0.11475mm|HoleSize=0mm|Usage=FLASHONLY|Rotation=270.000|XOffset=0mm|YOffset=0mm|HoleType=Round|Shape=RoundedRectangle|*
%AMROUNDEDRECTD32*
21,1,2.21000,1.30050,0,0,270.0*
21,1,1.98050,1.53000,0,0,270.0*
1,1,0.22950,-0.65025,-0.99025*
1,1,0.22950,-0.65025,0.99025*
1,1,0.22950,0.65025,0.99025*
1,1,0.22950,0.65025,-0.99025*
%
%ADD32ROUNDEDRECTD32*%
%TA.AperFunction,Conductor*%
%ADD33C,0.20000*%
%ADD34C,1.70000*%
%ADD35C,0.63500*%
%TA.AperFunction,ComponentPad*%
%ADD36C,3.00000*%
%ADD37C,1.50000*%
%TA.AperFunction,ViaPad*%
%ADD38C,3.00000*%
%TA.AperFunction,ComponentPad*%
%ADD39C,0.65000*%
%ADD40O,2.10000X1.05000*%
%ADD41O,2.00000X1.00000*%
%ADD42C,1.50800*%
%ADD43R,1.50800X1.50800*%
%ADD44C,1.39700*%
%ADD45R,1.39700X1.39700*%
%TA.AperFunction,TestPad*%
%ADD46C,1.00000*%
%TA.AperFunction,SMDPad,CuDef*%
%ADD47R,1.36000X6.61000*%
%ADD48R,7.62000X10.84000*%
%ADD49R,3.79000X1.06000*%
G36*
X12801601Y2892800D02*
X11925000D01*
Y2815798D01*
X11885798D01*
Y3300000D01*
X11882613Y3332345D01*
X11873178Y3363448D01*
X11857856Y3392112D01*
X11837237Y3417237D01*
X11837237D01*
X11812113Y3437856D01*
X11783448Y3453177D01*
X11752346Y3462613D01*
X11720000Y3465798D01*
X11687654Y3462613D01*
X11656552Y3453177D01*
X11627887Y3437856D01*
X11602763Y3417237D01*
X11582144Y3392113D01*
X11566822Y3363448D01*
X11557387Y3332346D01*
X11554202Y3300000D01*
X11554202Y3299997D01*
Y2650000D01*
Y2324809D01*
X11547387Y2302345D01*
X11544202Y2270000D01*
Y2090000D01*
X11547387Y2057654D01*
X11554202Y2035190D01*
Y680000D01*
X11557388Y647654D01*
X11566823Y616552D01*
X11582144Y587887D01*
X11602763Y562763D01*
X11627888Y542144D01*
X11656552Y526822D01*
X11687655Y517387D01*
X11720000Y514202D01*
X11752346Y517387D01*
X11783448Y526822D01*
X11812113Y542144D01*
X11837237Y562763D01*
X11857856Y587887D01*
X11873178Y616552D01*
X11882613Y647654D01*
X11885798Y680000D01*
Y2080000D01*
X11882613Y2112345D01*
X11875798Y2134809D01*
Y2225190D01*
X11882613Y2247654D01*
X11885798Y2280000D01*
Y2484202D01*
X11925000D01*
Y1648800D01*
X12801601D01*
Y0D01*
X11147636D01*
X11144233Y12700D01*
X11156296Y19665D01*
X11170335Y33704D01*
X11180262Y50897D01*
X11184657Y67300D01*
X11035343D01*
X11039738Y50897D01*
X11049665Y33704D01*
X11063703Y19665D01*
X11075767Y12700D01*
X11072364Y0D01*
X10787636D01*
X10784233Y12700D01*
X10796297Y19665D01*
X10810335Y33704D01*
X10820262Y50897D01*
X10824657Y67300D01*
X10675343D01*
X10679738Y50897D01*
X10689665Y33704D01*
X10703704Y19665D01*
X10715767Y12700D01*
X10712364Y0D01*
X10477636D01*
X10474233Y12700D01*
X10486297Y19665D01*
X10500335Y33704D01*
X10510262Y50897D01*
X10514657Y67300D01*
X10365343D01*
X10369738Y50897D01*
X10379665Y33704D01*
X10393703Y19665D01*
X10405767Y12700D01*
X10402364Y0D01*
X10157636D01*
X10154233Y12700D01*
X10166297Y19665D01*
X10180335Y33704D01*
X10190262Y50897D01*
X10194657Y67300D01*
X10045343D01*
X10049738Y50897D01*
X10059665Y33704D01*
X10073703Y19665D01*
X10085767Y12700D01*
X10082364Y0D01*
X9873624D01*
X9869332Y12700D01*
X9880335Y23704D01*
X9890262Y40897D01*
X9894657Y57300D01*
X9745343D01*
X9749738Y40897D01*
X9759665Y23704D01*
X9770668Y12700D01*
X9766376Y0D01*
X9483624D01*
X9479332Y12700D01*
X9490335Y23704D01*
X9500262Y40897D01*
X9504657Y57300D01*
X9355343D01*
X9359738Y40897D01*
X9369665Y23704D01*
X9380668Y12700D01*
X9376376Y0D01*
X9137636D01*
X9134233Y12700D01*
X9146297Y19665D01*
X9160335Y33704D01*
X9170262Y50897D01*
X9174657Y67300D01*
X9025343D01*
X9029738Y50897D01*
X9039665Y33704D01*
X9053704Y19665D01*
X9065767Y12700D01*
X9062364Y0D01*
X0D01*
Y4521200D01*
X12801601D01*
Y2892800D01*
D02*
G37*
%LPC*%
G36*
X12032700Y4504657D02*
Y4442700D01*
X12094657D01*
X12090262Y4459103D01*
X12080335Y4476297D01*
X12066297Y4490335D01*
X12049103Y4500262D01*
X12032700Y4504657D01*
D02*
G37*
G36*
X12007300D02*
X11990897Y4500262D01*
X11973704Y4490335D01*
X11959665Y4476297D01*
X11949738Y4459103D01*
X11945343Y4442700D01*
X12007300D01*
Y4504657D01*
D02*
G37*
G36*
X11702700Y4494657D02*
Y4432700D01*
X11764657D01*
X11760262Y4449103D01*
X11750335Y4466297D01*
X11736297Y4480335D01*
X11719103Y4490262D01*
X11702700Y4494657D01*
D02*
G37*
G36*
X11677300D02*
X11660897Y4490262D01*
X11643703Y4480335D01*
X11629665Y4466297D01*
X11619738Y4449103D01*
X11615343Y4432700D01*
X11677300D01*
Y4494657D01*
D02*
G37*
G36*
X11292700D02*
Y4432700D01*
X11354657D01*
X11350262Y4449103D01*
X11340335Y4466297D01*
X11326297Y4480335D01*
X11309103Y4490262D01*
X11292700Y4494657D01*
D02*
G37*
G36*
X11267300D02*
X11250897Y4490262D01*
X11233703Y4480335D01*
X11219665Y4466297D01*
X11209738Y4449103D01*
X11205343Y4432700D01*
X11267300D01*
Y4494657D01*
D02*
G37*
G36*
X10002700D02*
Y4432700D01*
X10064657D01*
X10060262Y4449103D01*
X10050335Y4466297D01*
X10036297Y4480335D01*
X10019103Y4490262D01*
X10002700Y4494657D01*
D02*
G37*
G36*
X9977300D02*
X9960897Y4490262D01*
X9943704Y4480335D01*
X9929665Y4466297D01*
X9919738Y4449103D01*
X9915343Y4432700D01*
X9977300D01*
Y4494657D01*
D02*
G37*
G36*
X9572700D02*
Y4432700D01*
X9634657D01*
X9630262Y4449103D01*
X9620335Y4466297D01*
X9606297Y4480335D01*
X9589103Y4490262D01*
X9572700Y4494657D01*
D02*
G37*
G36*
X9547300D02*
X9530897Y4490262D01*
X9513703Y4480335D01*
X9499665Y4466297D01*
X9489738Y4449103D01*
X9485343Y4432700D01*
X9547300D01*
Y4494657D01*
D02*
G37*
G36*
X9142700D02*
Y4432700D01*
X9204657D01*
X9200262Y4449103D01*
X9190335Y4466297D01*
X9176297Y4480335D01*
X9159103Y4490262D01*
X9142700Y4494657D01*
D02*
G37*
G36*
X9117300D02*
X9100897Y4490262D01*
X9083703Y4480335D01*
X9069665Y4466297D01*
X9059738Y4449103D01*
X9055343Y4432700D01*
X9117300D01*
Y4494657D01*
D02*
G37*
G36*
X5822700D02*
Y4432700D01*
X5884657D01*
X5880262Y4449103D01*
X5870335Y4466297D01*
X5856297Y4480335D01*
X5839103Y4490262D01*
X5822700Y4494657D01*
D02*
G37*
G36*
X5797300D02*
X5780897Y4490262D01*
X5763703Y4480335D01*
X5749665Y4466297D01*
X5739738Y4449103D01*
X5735343Y4432700D01*
X5797300D01*
Y4494657D01*
D02*
G37*
G36*
X5302700D02*
Y4432700D01*
X5364657D01*
X5360262Y4449103D01*
X5350335Y4466297D01*
X5336297Y4480335D01*
X5319103Y4490262D01*
X5302700Y4494657D01*
D02*
G37*
G36*
X5277300D02*
X5260897Y4490262D01*
X5243704Y4480335D01*
X5229665Y4466297D01*
X5219738Y4449103D01*
X5215343Y4432700D01*
X5277300D01*
Y4494657D01*
D02*
G37*
G36*
X10872700Y4484657D02*
Y4422700D01*
X10934657D01*
X10930262Y4439103D01*
X10920335Y4456297D01*
X10906297Y4470335D01*
X10889103Y4480262D01*
X10872700Y4484657D01*
D02*
G37*
G36*
X10847300D02*
X10830897Y4480262D01*
X10813704Y4470335D01*
X10799665Y4456297D01*
X10789738Y4439103D01*
X10785343Y4422700D01*
X10847300D01*
Y4484657D01*
D02*
G37*
G36*
X10422700D02*
Y4422700D01*
X10484657D01*
X10480262Y4439103D01*
X10470335Y4456297D01*
X10456297Y4470335D01*
X10439103Y4480262D01*
X10422700Y4484657D01*
D02*
G37*
G36*
X10397300D02*
X10380897Y4480262D01*
X10363703Y4470335D01*
X10349665Y4456297D01*
X10339738Y4439103D01*
X10335343Y4422700D01*
X10397300D01*
Y4484657D01*
D02*
G37*
G36*
X8732700D02*
Y4422700D01*
X8794657D01*
X8790262Y4439103D01*
X8780335Y4456297D01*
X8766297Y4470335D01*
X8749103Y4480262D01*
X8732700Y4484657D01*
D02*
G37*
G36*
X8707300D02*
X8690897Y4480262D01*
X8673704Y4470335D01*
X8659665Y4456297D01*
X8649738Y4439103D01*
X8645343Y4422700D01*
X8707300D01*
Y4484657D01*
D02*
G37*
G36*
X8312700D02*
Y4422700D01*
X8374657D01*
X8370262Y4439103D01*
X8360335Y4456297D01*
X8346296Y4470335D01*
X8329103Y4480262D01*
X8312700Y4484657D01*
D02*
G37*
G36*
X8287300D02*
X8270897Y4480262D01*
X8253703Y4470335D01*
X8239665Y4456297D01*
X8229738Y4439103D01*
X8225343Y4422700D01*
X8287300D01*
Y4484657D01*
D02*
G37*
G36*
X7982700D02*
Y4422700D01*
X8044657D01*
X8040262Y4439103D01*
X8030335Y4456297D01*
X8016297Y4470335D01*
X7999103Y4480262D01*
X7982700Y4484657D01*
D02*
G37*
G36*
X7957300D02*
X7940897Y4480262D01*
X7923703Y4470335D01*
X7909665Y4456297D01*
X7899738Y4439103D01*
X7895343Y4422700D01*
X7957300D01*
Y4484657D01*
D02*
G37*
G36*
X7662700D02*
Y4422700D01*
X7724657D01*
X7720262Y4439103D01*
X7710335Y4456297D01*
X7696297Y4470335D01*
X7679103Y4480262D01*
X7662700Y4484657D01*
D02*
G37*
G36*
X7637300D02*
X7620897Y4480262D01*
X7603703Y4470335D01*
X7589665Y4456297D01*
X7579738Y4439103D01*
X7575343Y4422700D01*
X7637300D01*
Y4484657D01*
D02*
G37*
G36*
X7332700D02*
Y4422700D01*
X7394657D01*
X7390262Y4439103D01*
X7380335Y4456297D01*
X7366297Y4470335D01*
X7349103Y4480262D01*
X7332700Y4484657D01*
D02*
G37*
G36*
X7307300D02*
X7290897Y4480262D01*
X7273704Y4470335D01*
X7259665Y4456297D01*
X7249738Y4439103D01*
X7245343Y4422700D01*
X7307300D01*
Y4484657D01*
D02*
G37*
G36*
X3852700D02*
Y4422700D01*
X3914657D01*
X3910262Y4439103D01*
X3900335Y4456297D01*
X3886297Y4470335D01*
X3869103Y4480262D01*
X3852700Y4484657D01*
D02*
G37*
G36*
X3827300D02*
X3810897Y4480262D01*
X3793703Y4470335D01*
X3779665Y4456297D01*
X3769738Y4439103D01*
X3765343Y4422700D01*
X3827300D01*
Y4484657D01*
D02*
G37*
G36*
X3212700D02*
Y4422700D01*
X3274657D01*
X3270262Y4439103D01*
X3260335Y4456297D01*
X3246297Y4470335D01*
X3229103Y4480262D01*
X3212700Y4484657D01*
D02*
G37*
G36*
X3187300D02*
X3170897Y4480262D01*
X3153703Y4470335D01*
X3139665Y4456297D01*
X3129738Y4439103D01*
X3125343Y4422700D01*
X3187300D01*
Y4484657D01*
D02*
G37*
G36*
X4652700Y4474657D02*
Y4412700D01*
X4714657D01*
X4710262Y4429103D01*
X4700335Y4446297D01*
X4686297Y4460335D01*
X4669103Y4470262D01*
X4652700Y4474657D01*
D02*
G37*
G36*
X4627300D02*
X4610897Y4470262D01*
X4593704Y4460335D01*
X4579665Y4446297D01*
X4569738Y4429103D01*
X4565343Y4412700D01*
X4627300D01*
Y4474657D01*
D02*
G37*
G36*
X2412700Y4444657D02*
Y4382700D01*
X2474657D01*
X2470262Y4399103D01*
X2460335Y4416296D01*
X2446297Y4430335D01*
X2429103Y4440262D01*
X2412700Y4444657D01*
D02*
G37*
G36*
X2387300D02*
X2370897Y4440262D01*
X2353703Y4430335D01*
X2339665Y4416296D01*
X2329738Y4399103D01*
X2325343Y4382700D01*
X2387300D01*
Y4444657D01*
D02*
G37*
G36*
X1242700Y4434657D02*
Y4372700D01*
X1304657D01*
X1300262Y4389103D01*
X1290335Y4406296D01*
X1276297Y4420335D01*
X1259103Y4430262D01*
X1242700Y4434657D01*
D02*
G37*
G36*
X1217300D02*
X1200897Y4430262D01*
X1183703Y4420335D01*
X1169665Y4406296D01*
X1159738Y4389103D01*
X1155343Y4372700D01*
X1217300D01*
Y4434657D01*
D02*
G37*
G36*
X1802700Y4424657D02*
Y4362700D01*
X1864657D01*
X1860262Y4379103D01*
X1850335Y4396297D01*
X1836297Y4410335D01*
X1819103Y4420262D01*
X1802700Y4424657D01*
D02*
G37*
G36*
X1777300D02*
X1760897Y4420262D01*
X1743703Y4410335D01*
X1729665Y4396297D01*
X1719738Y4379103D01*
X1715343Y4362700D01*
X1777300D01*
Y4424657D01*
D02*
G37*
G36*
X742700D02*
Y4362700D01*
X804657D01*
X800262Y4379103D01*
X790335Y4396297D01*
X776297Y4410335D01*
X759103Y4420262D01*
X742700Y4424657D01*
D02*
G37*
G36*
X717300D02*
X700897Y4420262D01*
X683703Y4410335D01*
X669665Y4396297D01*
X659738Y4379103D01*
X655343Y4362700D01*
X717300D01*
Y4424657D01*
D02*
G37*
G36*
X12094657Y4417300D02*
X12032700D01*
Y4355343D01*
X12049103Y4359738D01*
X12066297Y4369665D01*
X12080335Y4383703D01*
X12090262Y4400897D01*
X12094657Y4417300D01*
D02*
G37*
G36*
X12007300D02*
X11945343D01*
X11949738Y4400897D01*
X11959665Y4383703D01*
X11973704Y4369665D01*
X11990897Y4359738D01*
X12007300Y4355343D01*
Y4417300D01*
D02*
G37*
G36*
X5884657Y4407300D02*
X5822700D01*
Y4345343D01*
X5839103Y4349738D01*
X5856297Y4359665D01*
X5870335Y4373703D01*
X5880262Y4390897D01*
X5884657Y4407300D01*
D02*
G37*
G36*
X5797300D02*
X5735343D01*
X5739738Y4390897D01*
X5749665Y4373703D01*
X5763703Y4359665D01*
X5780897Y4349738D01*
X5797300Y4345343D01*
Y4407300D01*
D02*
G37*
G36*
X5364657D02*
X5302700D01*
Y4345343D01*
X5319103Y4349738D01*
X5336297Y4359665D01*
X5350335Y4373703D01*
X5360262Y4390897D01*
X5364657Y4407300D01*
D02*
G37*
G36*
X5277300D02*
X5215343D01*
X5219738Y4390897D01*
X5229665Y4373703D01*
X5243704Y4359665D01*
X5260897Y4349738D01*
X5277300Y4345343D01*
Y4407300D01*
D02*
G37*
G36*
X11764657D02*
X11702700D01*
Y4345343D01*
X11719103Y4349738D01*
X11736297Y4359665D01*
X11750335Y4373703D01*
X11760262Y4390897D01*
X11764657Y4407300D01*
D02*
G37*
G36*
X11677300D02*
X11615343D01*
X11619738Y4390897D01*
X11629665Y4373703D01*
X11643703Y4359665D01*
X11660897Y4349738D01*
X11677300Y4345343D01*
Y4407300D01*
D02*
G37*
G36*
X11354657D02*
X11292700D01*
Y4345343D01*
X11309103Y4349738D01*
X11326297Y4359665D01*
X11340335Y4373703D01*
X11350262Y4390897D01*
X11354657Y4407300D01*
D02*
G37*
G36*
X11267300D02*
X11205343D01*
X11209738Y4390897D01*
X11219665Y4373703D01*
X11233703Y4359665D01*
X11250897Y4349738D01*
X11267300Y4345343D01*
Y4407300D01*
D02*
G37*
G36*
X10064657D02*
X10002700D01*
Y4345343D01*
X10019103Y4349738D01*
X10036297Y4359665D01*
X10050335Y4373703D01*
X10060262Y4390897D01*
X10064657Y4407300D01*
D02*
G37*
G36*
X9977300D02*
X9915343D01*
X9919738Y4390897D01*
X9929665Y4373703D01*
X9943704Y4359665D01*
X9960897Y4349738D01*
X9977300Y4345343D01*
Y4407300D01*
D02*
G37*
G36*
X9634657D02*
X9572700D01*
Y4345343D01*
X9589103Y4349738D01*
X9606297Y4359665D01*
X9620335Y4373703D01*
X9630262Y4390897D01*
X9634657Y4407300D01*
D02*
G37*
G36*
X9547300D02*
X9485343D01*
X9489738Y4390897D01*
X9499665Y4373703D01*
X9513703Y4359665D01*
X9530897Y4349738D01*
X9547300Y4345343D01*
Y4407300D01*
D02*
G37*
G36*
X9204657D02*
X9142700D01*
Y4345343D01*
X9159103Y4349738D01*
X9176297Y4359665D01*
X9190335Y4373703D01*
X9200262Y4390897D01*
X9204657Y4407300D01*
D02*
G37*
G36*
X9117300D02*
X9055343D01*
X9059738Y4390897D01*
X9069665Y4373703D01*
X9083703Y4359665D01*
X9100897Y4349738D01*
X9117300Y4345343D01*
Y4407300D01*
D02*
G37*
G36*
X3914657Y4397300D02*
X3852700D01*
Y4335343D01*
X3869103Y4339738D01*
X3886297Y4349665D01*
X3900335Y4363703D01*
X3910262Y4380897D01*
X3914657Y4397300D01*
D02*
G37*
G36*
X3827300D02*
X3765343D01*
X3769738Y4380897D01*
X3779665Y4363703D01*
X3793703Y4349665D01*
X3810897Y4339738D01*
X3827300Y4335343D01*
Y4397300D01*
D02*
G37*
G36*
X3274657D02*
X3212700D01*
Y4335343D01*
X3229103Y4339738D01*
X3246297Y4349665D01*
X3260335Y4363703D01*
X3270262Y4380897D01*
X3274657Y4397300D01*
D02*
G37*
G36*
X3187300D02*
X3125343D01*
X3129738Y4380897D01*
X3139665Y4363703D01*
X3153703Y4349665D01*
X3170897Y4339738D01*
X3187300Y4335343D01*
Y4397300D01*
D02*
G37*
G36*
X10934657D02*
X10872700D01*
Y4335343D01*
X10889103Y4339738D01*
X10906297Y4349665D01*
X10920335Y4363703D01*
X10930262Y4380897D01*
X10934657Y4397300D01*
D02*
G37*
G36*
X10847300D02*
X10785343D01*
X10789738Y4380897D01*
X10799665Y4363703D01*
X10813704Y4349665D01*
X10830897Y4339738D01*
X10847300Y4335343D01*
Y4397300D01*
D02*
G37*
G36*
X10484657D02*
X10422700D01*
Y4335343D01*
X10439103Y4339738D01*
X10456297Y4349665D01*
X10470335Y4363703D01*
X10480262Y4380897D01*
X10484657Y4397300D01*
D02*
G37*
G36*
X10397300D02*
X10335343D01*
X10339738Y4380897D01*
X10349665Y4363703D01*
X10363703Y4349665D01*
X10380897Y4339738D01*
X10397300Y4335343D01*
Y4397300D01*
D02*
G37*
G36*
X8794657D02*
X8732700D01*
Y4335343D01*
X8749103Y4339738D01*
X8766297Y4349665D01*
X8780335Y4363703D01*
X8790262Y4380897D01*
X8794657Y4397300D01*
D02*
G37*
G36*
X8707300D02*
X8645343D01*
X8649738Y4380897D01*
X8659665Y4363703D01*
X8673704Y4349665D01*
X8690897Y4339738D01*
X8707300Y4335343D01*
Y4397300D01*
D02*
G37*
G36*
X8374657D02*
X8312700D01*
Y4335343D01*
X8329103Y4339738D01*
X8346296Y4349665D01*
X8360335Y4363703D01*
X8370262Y4380897D01*
X8374657Y4397300D01*
D02*
G37*
G36*
X8287300D02*
X8225343D01*
X8229738Y4380897D01*
X8239665Y4363703D01*
X8253703Y4349665D01*
X8270897Y4339738D01*
X8287300Y4335343D01*
Y4397300D01*
D02*
G37*
G36*
X8044657D02*
X7982700D01*
Y4335343D01*
X7999103Y4339738D01*
X8016297Y4349665D01*
X8030335Y4363703D01*
X8040262Y4380897D01*
X8044657Y4397300D01*
D02*
G37*
G36*
X7957300D02*
X7895343D01*
X7899738Y4380897D01*
X7909665Y4363703D01*
X7923703Y4349665D01*
X7940897Y4339738D01*
X7957300Y4335343D01*
Y4397300D01*
D02*
G37*
G36*
X7724657D02*
X7662700D01*
Y4335343D01*
X7679103Y4339738D01*
X7696297Y4349665D01*
X7710335Y4363703D01*
X7720262Y4380897D01*
X7724657Y4397300D01*
D02*
G37*
G36*
X7637300D02*
X7575343D01*
X7579738Y4380897D01*
X7589665Y4363703D01*
X7603703Y4349665D01*
X7620897Y4339738D01*
X7637300Y4335343D01*
Y4397300D01*
D02*
G37*
G36*
X7394657D02*
X7332700D01*
Y4335343D01*
X7349103Y4339738D01*
X7366297Y4349665D01*
X7380335Y4363703D01*
X7390262Y4380897D01*
X7394657Y4397300D01*
D02*
G37*
G36*
X7307300D02*
X7245343D01*
X7249738Y4380897D01*
X7259665Y4363703D01*
X7273704Y4349665D01*
X7290897Y4339738D01*
X7307300Y4335343D01*
Y4397300D01*
D02*
G37*
G36*
X4714657Y4387300D02*
X4652700D01*
Y4325343D01*
X4669103Y4329738D01*
X4686297Y4339665D01*
X4700335Y4353704D01*
X4710262Y4370897D01*
X4714657Y4387300D01*
D02*
G37*
G36*
X4627300D02*
X4565343D01*
X4569738Y4370897D01*
X4579665Y4353704D01*
X4593704Y4339665D01*
X4610897Y4329738D01*
X4627300Y4325343D01*
Y4387300D01*
D02*
G37*
G36*
X2474657Y4357300D02*
X2412700D01*
Y4295343D01*
X2429103Y4299738D01*
X2446297Y4309665D01*
X2460335Y4323703D01*
X2470262Y4340897D01*
X2474657Y4357300D01*
D02*
G37*
G36*
X2387300D02*
X2325343D01*
X2329738Y4340897D01*
X2339665Y4323703D01*
X2353703Y4309665D01*
X2370897Y4299738D01*
X2387300Y4295343D01*
Y4357300D01*
D02*
G37*
G36*
X1304657Y4347300D02*
X1242700D01*
Y4285343D01*
X1259103Y4289738D01*
X1276297Y4299665D01*
X1290335Y4313703D01*
X1300262Y4330897D01*
X1304657Y4347300D01*
D02*
G37*
G36*
X1217300D02*
X1155343D01*
X1159738Y4330897D01*
X1169665Y4313703D01*
X1183703Y4299665D01*
X1200897Y4289738D01*
X1217300Y4285343D01*
Y4347300D01*
D02*
G37*
G36*
X1864657Y4337300D02*
X1802700D01*
Y4275343D01*
X1819103Y4279738D01*
X1836297Y4289665D01*
X1850335Y4303703D01*
X1860262Y4320897D01*
X1864657Y4337300D01*
D02*
G37*
G36*
X1777300D02*
X1715343D01*
X1719738Y4320897D01*
X1729665Y4303703D01*
X1743703Y4289665D01*
X1760897Y4279738D01*
X1777300Y4275343D01*
Y4337300D01*
D02*
G37*
G36*
X804657D02*
X742700D01*
Y4275343D01*
X759103Y4279738D01*
X776297Y4289665D01*
X790335Y4303703D01*
X800262Y4320897D01*
X804657Y4337300D01*
D02*
G37*
G36*
X717300D02*
X655343D01*
X659738Y4320897D01*
X669665Y4303703D01*
X683703Y4289665D01*
X700897Y4279738D01*
X717300Y4275343D01*
Y4337300D01*
D02*
G37*
G36*
X12042700Y4234657D02*
Y4172700D01*
X12104657D01*
X12100262Y4189103D01*
X12090335Y4206297D01*
X12076297Y4220335D01*
X12059103Y4230262D01*
X12042700Y4234657D01*
D02*
G37*
G36*
X12017300D02*
X12000897Y4230262D01*
X11983703Y4220335D01*
X11969665Y4206297D01*
X11959738Y4189103D01*
X11955343Y4172700D01*
X12017300D01*
Y4234657D01*
D02*
G37*
G36*
X11702700D02*
Y4172700D01*
X11764657D01*
X11760262Y4189103D01*
X11750335Y4206297D01*
X11736297Y4220335D01*
X11719103Y4230262D01*
X11702700Y4234657D01*
D02*
G37*
G36*
X11677300D02*
X11660897Y4230262D01*
X11643703Y4220335D01*
X11629665Y4206297D01*
X11619738Y4189103D01*
X11615343Y4172700D01*
X11677300D01*
Y4234657D01*
D02*
G37*
G36*
X11312700D02*
Y4172700D01*
X11374657D01*
X11370262Y4189103D01*
X11360335Y4206297D01*
X11346297Y4220335D01*
X11329103Y4230262D01*
X11312700Y4234657D01*
D02*
G37*
G36*
X11287300D02*
X11270897Y4230262D01*
X11253703Y4220335D01*
X11239665Y4206297D01*
X11229738Y4189103D01*
X11225343Y4172700D01*
X11287300D01*
Y4234657D01*
D02*
G37*
G36*
X10882700D02*
Y4172700D01*
X10944657D01*
X10940262Y4189103D01*
X10930335Y4206297D01*
X10916297Y4220335D01*
X10899103Y4230262D01*
X10882700Y4234657D01*
D02*
G37*
G36*
X10857300D02*
X10840897Y4230262D01*
X10823704Y4220335D01*
X10809665Y4206297D01*
X10799738Y4189103D01*
X10795343Y4172700D01*
X10857300D01*
Y4234657D01*
D02*
G37*
G36*
X10452700D02*
Y4172700D01*
X10514657D01*
X10510262Y4189103D01*
X10500335Y4206297D01*
X10486297Y4220335D01*
X10469103Y4230262D01*
X10452700Y4234657D01*
D02*
G37*
G36*
X10427300D02*
X10410897Y4230262D01*
X10393703Y4220335D01*
X10379665Y4206297D01*
X10369738Y4189103D01*
X10365343Y4172700D01*
X10427300D01*
Y4234657D01*
D02*
G37*
G36*
X9572700D02*
Y4172700D01*
X9634657D01*
X9630262Y4189103D01*
X9620335Y4206297D01*
X9606297Y4220335D01*
X9589103Y4230262D01*
X9572700Y4234657D01*
D02*
G37*
G36*
X9547300D02*
X9530897Y4230262D01*
X9513703Y4220335D01*
X9499665Y4206297D01*
X9489738Y4189103D01*
X9485343Y4172700D01*
X9547300D01*
Y4234657D01*
D02*
G37*
G36*
X9142700D02*
Y4172700D01*
X9204657D01*
X9200262Y4189103D01*
X9190335Y4206297D01*
X9176297Y4220335D01*
X9159103Y4230262D01*
X9142700Y4234657D01*
D02*
G37*
G36*
X9117300D02*
X9100897Y4230262D01*
X9083703Y4220335D01*
X9069665Y4206297D01*
X9059738Y4189103D01*
X9055343Y4172700D01*
X9117300D01*
Y4234657D01*
D02*
G37*
G36*
X8732700D02*
Y4172700D01*
X8794657D01*
X8790262Y4189103D01*
X8780335Y4206297D01*
X8766297Y4220335D01*
X8749103Y4230262D01*
X8732700Y4234657D01*
D02*
G37*
G36*
X8707300D02*
X8690897Y4230262D01*
X8673704Y4220335D01*
X8659665Y4206297D01*
X8649738Y4189103D01*
X8645343Y4172700D01*
X8707300D01*
Y4234657D01*
D02*
G37*
G36*
X8332700D02*
Y4172700D01*
X8394657D01*
X8390262Y4189103D01*
X8380335Y4206297D01*
X8366297Y4220335D01*
X8349103Y4230262D01*
X8332700Y4234657D01*
D02*
G37*
G36*
X8307300D02*
X8290897Y4230262D01*
X8273704Y4220335D01*
X8259665Y4206297D01*
X8249738Y4189103D01*
X8245343Y4172700D01*
X8307300D01*
Y4234657D01*
D02*
G37*
G36*
X8002700D02*
Y4172700D01*
X8064657D01*
X8060262Y4189103D01*
X8050335Y4206297D01*
X8036297Y4220335D01*
X8019103Y4230262D01*
X8002700Y4234657D01*
D02*
G37*
G36*
X7977300D02*
X7960897Y4230262D01*
X7943703Y4220335D01*
X7929665Y4206297D01*
X7919738Y4189103D01*
X7915343Y4172700D01*
X7977300D01*
Y4234657D01*
D02*
G37*
G36*
X7652700D02*
Y4172700D01*
X7714657D01*
X7710262Y4189103D01*
X7700335Y4206297D01*
X7686297Y4220335D01*
X7669103Y4230262D01*
X7652700Y4234657D01*
D02*
G37*
G36*
X7627300D02*
X7610897Y4230262D01*
X7593703Y4220335D01*
X7579665Y4206297D01*
X7569738Y4189103D01*
X7565343Y4172700D01*
X7627300D01*
Y4234657D01*
D02*
G37*
G36*
X7342700D02*
Y4172700D01*
X7404657D01*
X7400262Y4189103D01*
X7390335Y4206297D01*
X7376297Y4220335D01*
X7359103Y4230262D01*
X7342700Y4234657D01*
D02*
G37*
G36*
X7317300D02*
X7300897Y4230262D01*
X7283703Y4220335D01*
X7269665Y4206297D01*
X7259738Y4189103D01*
X7255343Y4172700D01*
X7317300D01*
Y4234657D01*
D02*
G37*
G36*
X10022700Y4224657D02*
Y4162700D01*
X10084657D01*
X10080262Y4179103D01*
X10070335Y4196297D01*
X10056297Y4210335D01*
X10039103Y4220262D01*
X10022700Y4224657D01*
D02*
G37*
G36*
X9997300D02*
X9980897Y4220262D01*
X9963703Y4210335D01*
X9949665Y4196297D01*
X9939738Y4179103D01*
X9935343Y4162700D01*
X9997300D01*
Y4224657D01*
D02*
G37*
G36*
X12567275Y4475400D02*
X12532725D01*
X12498838Y4468659D01*
X12466917Y4455437D01*
X12438189Y4436242D01*
X12413758Y4411811D01*
X12394563Y4383083D01*
X12381341Y4351162D01*
X12374600Y4317275D01*
Y4282725D01*
X12381341Y4248838D01*
X12394563Y4216917D01*
X12413758Y4188189D01*
X12438189Y4163758D01*
X12466917Y4144563D01*
X12498838Y4131341D01*
X12532725Y4124600D01*
X12567275D01*
X12601162Y4131341D01*
X12633083Y4144563D01*
X12661811Y4163758D01*
X12686242Y4188189D01*
X12705437Y4216917D01*
X12718659Y4248838D01*
X12725400Y4282725D01*
Y4317275D01*
X12718659Y4351162D01*
X12705437Y4383083D01*
X12686242Y4411811D01*
X12661811Y4436242D01*
X12633083Y4455437D01*
X12601162Y4468659D01*
X12567275Y4475400D01*
D02*
G37*
G36*
X6417275D02*
X6382725D01*
X6348838Y4468659D01*
X6316917Y4455437D01*
X6288189Y4436242D01*
X6263758Y4411811D01*
X6244563Y4383083D01*
X6231341Y4351162D01*
X6224600Y4317275D01*
Y4282725D01*
X6231341Y4248838D01*
X6244563Y4216917D01*
X6263758Y4188189D01*
X6288189Y4163758D01*
X6316917Y4144563D01*
X6348838Y4131341D01*
X6382725Y4124600D01*
X6417275D01*
X6451162Y4131341D01*
X6483083Y4144563D01*
X6511811Y4163758D01*
X6536242Y4188189D01*
X6555437Y4216917D01*
X6568659Y4248838D01*
X6575400Y4282725D01*
Y4317275D01*
X6568659Y4351162D01*
X6555437Y4383083D01*
X6536242Y4411811D01*
X6511811Y4436242D01*
X6483083Y4455437D01*
X6451162Y4468659D01*
X6417275Y4475400D01*
D02*
G37*
G36*
X267275D02*
X232725D01*
X198838Y4468659D01*
X166917Y4455437D01*
X138189Y4436242D01*
X113758Y4411811D01*
X94563Y4383083D01*
X81341Y4351162D01*
X74600Y4317275D01*
Y4282725D01*
X81341Y4248838D01*
X94563Y4216917D01*
X113758Y4188189D01*
X138189Y4163758D01*
X166917Y4144563D01*
X198838Y4131341D01*
X232725Y4124600D01*
X267275D01*
X301162Y4131341D01*
X333083Y4144563D01*
X361811Y4163758D01*
X386242Y4188189D01*
X405437Y4216917D01*
X418659Y4248838D01*
X425400Y4282725D01*
Y4317275D01*
X418659Y4351162D01*
X405437Y4383083D01*
X386242Y4411811D01*
X361811Y4436242D01*
X333083Y4455437D01*
X301162Y4468659D01*
X267275Y4475400D01*
D02*
G37*
G36*
X12104657Y4147300D02*
X12042700D01*
Y4085343D01*
X12059103Y4089738D01*
X12076297Y4099665D01*
X12090335Y4113703D01*
X12100262Y4130897D01*
X12104657Y4147300D01*
D02*
G37*
G36*
X12017300D02*
X11955343D01*
X11959738Y4130897D01*
X11969665Y4113703D01*
X11983703Y4099665D01*
X12000897Y4089738D01*
X12017300Y4085343D01*
Y4147300D01*
D02*
G37*
G36*
X11764657D02*
X11702700D01*
Y4085343D01*
X11719103Y4089738D01*
X11736297Y4099665D01*
X11750335Y4113703D01*
X11760262Y4130897D01*
X11764657Y4147300D01*
D02*
G37*
G36*
X11677300D02*
X11615343D01*
X11619738Y4130897D01*
X11629665Y4113703D01*
X11643703Y4099665D01*
X11660897Y4089738D01*
X11677300Y4085343D01*
Y4147300D01*
D02*
G37*
G36*
X11374657D02*
X11312700D01*
Y4085343D01*
X11329103Y4089738D01*
X11346297Y4099665D01*
X11360335Y4113703D01*
X11370262Y4130897D01*
X11374657Y4147300D01*
D02*
G37*
G36*
X11287300D02*
X11225343D01*
X11229738Y4130897D01*
X11239665Y4113703D01*
X11253703Y4099665D01*
X11270897Y4089738D01*
X11287300Y4085343D01*
Y4147300D01*
D02*
G37*
G36*
X10944657D02*
X10882700D01*
Y4085343D01*
X10899103Y4089738D01*
X10916297Y4099665D01*
X10930335Y4113703D01*
X10940262Y4130897D01*
X10944657Y4147300D01*
D02*
G37*
G36*
X10857300D02*
X10795343D01*
X10799738Y4130897D01*
X10809665Y4113703D01*
X10823704Y4099665D01*
X10840897Y4089738D01*
X10857300Y4085343D01*
Y4147300D01*
D02*
G37*
G36*
X10514657D02*
X10452700D01*
Y4085343D01*
X10469103Y4089738D01*
X10486297Y4099665D01*
X10500335Y4113703D01*
X10510262Y4130897D01*
X10514657Y4147300D01*
D02*
G37*
G36*
X10427300D02*
X10365343D01*
X10369738Y4130897D01*
X10379665Y4113703D01*
X10393703Y4099665D01*
X10410897Y4089738D01*
X10427300Y4085343D01*
Y4147300D01*
D02*
G37*
G36*
X9634657D02*
X9572700D01*
Y4085343D01*
X9589103Y4089738D01*
X9606297Y4099665D01*
X9620335Y4113703D01*
X9630262Y4130897D01*
X9634657Y4147300D01*
D02*
G37*
G36*
X9547300D02*
X9485343D01*
X9489738Y4130897D01*
X9499665Y4113703D01*
X9513703Y4099665D01*
X9530897Y4089738D01*
X9547300Y4085343D01*
Y4147300D01*
D02*
G37*
G36*
X9204657D02*
X9142700D01*
Y4085343D01*
X9159103Y4089738D01*
X9176297Y4099665D01*
X9190335Y4113703D01*
X9200262Y4130897D01*
X9204657Y4147300D01*
D02*
G37*
G36*
X9117300D02*
X9055343D01*
X9059738Y4130897D01*
X9069665Y4113703D01*
X9083703Y4099665D01*
X9100897Y4089738D01*
X9117300Y4085343D01*
Y4147300D01*
D02*
G37*
G36*
X8794657D02*
X8732700D01*
Y4085343D01*
X8749103Y4089738D01*
X8766297Y4099665D01*
X8780335Y4113703D01*
X8790262Y4130897D01*
X8794657Y4147300D01*
D02*
G37*
G36*
X8707300D02*
X8645343D01*
X8649738Y4130897D01*
X8659665Y4113703D01*
X8673704Y4099665D01*
X8690897Y4089738D01*
X8707300Y4085343D01*
Y4147300D01*
D02*
G37*
G36*
X8394657D02*
X8332700D01*
Y4085343D01*
X8349103Y4089738D01*
X8366297Y4099665D01*
X8380335Y4113703D01*
X8390262Y4130897D01*
X8394657Y4147300D01*
D02*
G37*
G36*
X8307300D02*
X8245343D01*
X8249738Y4130897D01*
X8259665Y4113703D01*
X8273704Y4099665D01*
X8290897Y4089738D01*
X8307300Y4085343D01*
Y4147300D01*
D02*
G37*
G36*
X8064657D02*
X8002700D01*
Y4085343D01*
X8019103Y4089738D01*
X8036297Y4099665D01*
X8050335Y4113703D01*
X8060262Y4130897D01*
X8064657Y4147300D01*
D02*
G37*
G36*
X7977300D02*
X7915343D01*
X7919738Y4130897D01*
X7929665Y4113703D01*
X7943703Y4099665D01*
X7960897Y4089738D01*
X7977300Y4085343D01*
Y4147300D01*
D02*
G37*
G36*
X7714657D02*
X7652700D01*
Y4085343D01*
X7669103Y4089738D01*
X7686297Y4099665D01*
X7700335Y4113703D01*
X7710262Y4130897D01*
X7714657Y4147300D01*
D02*
G37*
G36*
X7627300D02*
X7565343D01*
X7569738Y4130897D01*
X7579665Y4113703D01*
X7593703Y4099665D01*
X7610897Y4089738D01*
X7627300Y4085343D01*
Y4147300D01*
D02*
G37*
G36*
X7404657D02*
X7342700D01*
Y4085343D01*
X7359103Y4089738D01*
X7376297Y4099665D01*
X7390335Y4113703D01*
X7400262Y4130897D01*
X7404657Y4147300D01*
D02*
G37*
G36*
X7317300D02*
X7255343D01*
X7259738Y4130897D01*
X7269665Y4113703D01*
X7283703Y4099665D01*
X7300897Y4089738D01*
X7317300Y4085343D01*
Y4147300D01*
D02*
G37*
G36*
X10084657Y4137300D02*
X10022700D01*
Y4075343D01*
X10039103Y4079738D01*
X10056297Y4089665D01*
X10070335Y4103704D01*
X10080262Y4120897D01*
X10084657Y4137300D01*
D02*
G37*
G36*
X9997300D02*
X9935343D01*
X9939738Y4120897D01*
X9949665Y4103704D01*
X9963703Y4089665D01*
X9980897Y4079738D01*
X9997300Y4075343D01*
Y4137300D01*
D02*
G37*
G36*
X749900Y4066572D02*
X710100D01*
Y4000700D01*
X826800D01*
X825795Y4008336D01*
X817945Y4027286D01*
X805459Y4043559D01*
X789186Y4056045D01*
X770236Y4063895D01*
X749900Y4066572D01*
D02*
G37*
G36*
X684700D02*
X644900D01*
X624564Y4063895D01*
X605614Y4056045D01*
X589341Y4043559D01*
X576855Y4027286D01*
X569005Y4008336D01*
X568000Y4000700D01*
X684700D01*
Y4066572D01*
D02*
G37*
G36*
X329400Y4064051D02*
X292100D01*
Y4000700D01*
X403779D01*
X402859Y4007683D01*
X395262Y4026025D01*
X383176Y4041776D01*
X367425Y4053862D01*
X349084Y4061459D01*
X329400Y4064051D01*
D02*
G37*
G36*
X266700D02*
X229400D01*
X209716Y4061459D01*
X191375Y4053862D01*
X175624Y4041776D01*
X163538Y4026025D01*
X155941Y4007683D01*
X155021Y4000700D01*
X266700D01*
Y4064051D01*
D02*
G37*
G36*
X5013727Y4063200D02*
X4993873D01*
X4974697Y4058062D01*
X4957503Y4048135D01*
X4955438Y4046070D01*
X2463800D01*
X2441501Y4041634D01*
X2422597Y4029003D01*
X2024994Y3631400D01*
X2022073D01*
X2002897Y3626262D01*
X1985703Y3616335D01*
X1971665Y3602297D01*
X1961738Y3585103D01*
X1956600Y3565927D01*
Y3546073D01*
X1961738Y3526897D01*
X1971665Y3509703D01*
X1985703Y3495665D01*
X2002897Y3485738D01*
X2022073Y3480600D01*
X2041927D01*
X2061103Y3485738D01*
X2078297Y3495665D01*
X2092335Y3509703D01*
X2102262Y3526897D01*
X2107400Y3546073D01*
Y3548994D01*
X2487936Y3929530D01*
X4955438D01*
X4957503Y3927465D01*
X4974697Y3917538D01*
X4993873Y3912400D01*
X5013727D01*
X5032903Y3917538D01*
X5050097Y3927465D01*
X5064135Y3941503D01*
X5074062Y3958697D01*
X5079200Y3977873D01*
Y3997727D01*
X5074062Y4016903D01*
X5064135Y4034097D01*
X5050097Y4048135D01*
X5032903Y4058062D01*
X5013727Y4063200D01*
D02*
G37*
G36*
X403779Y3975300D02*
X292100D01*
Y3911949D01*
X329400D01*
X349084Y3914541D01*
X367425Y3922138D01*
X383176Y3934224D01*
X395262Y3949975D01*
X402859Y3968316D01*
X403779Y3975300D01*
D02*
G37*
G36*
X266700D02*
X155021D01*
X155941Y3968316D01*
X163538Y3949975D01*
X175624Y3934224D01*
X191375Y3922138D01*
X209716Y3914541D01*
X229400Y3911949D01*
X266700D01*
Y3975300D01*
D02*
G37*
G36*
X826800D02*
X710100D01*
Y3909428D01*
X749900D01*
X770236Y3912105D01*
X789186Y3919955D01*
X805459Y3932441D01*
X817945Y3948714D01*
X825795Y3967664D01*
X826800Y3975300D01*
D02*
G37*
G36*
X5222700Y3924657D02*
Y3862700D01*
X5284657D01*
X5280262Y3879103D01*
X5270335Y3896296D01*
X5256297Y3910335D01*
X5239103Y3920262D01*
X5222700Y3924657D01*
D02*
G37*
G36*
X5197300D02*
X5180897Y3920262D01*
X5163703Y3910335D01*
X5149665Y3896296D01*
X5139738Y3879103D01*
X5135343Y3862700D01*
X5197300D01*
Y3924657D01*
D02*
G37*
G36*
X5402700Y3914657D02*
Y3852700D01*
X5464657D01*
X5460262Y3869103D01*
X5450335Y3886297D01*
X5436296Y3900335D01*
X5419103Y3910262D01*
X5402700Y3914657D01*
D02*
G37*
G36*
X5377300D02*
X5360897Y3910262D01*
X5343703Y3900335D01*
X5329665Y3886297D01*
X5319738Y3869103D01*
X5315343Y3852700D01*
X5377300D01*
Y3914657D01*
D02*
G37*
G36*
X684700Y3975300D02*
X568000D01*
X569005Y3967664D01*
X576855Y3948714D01*
X589341Y3932441D01*
X605614Y3919955D01*
X624564Y3912105D01*
X624833Y3912069D01*
X626549Y3899034D01*
X614602Y3894085D01*
X598315Y3877798D01*
X589500Y3856517D01*
Y3833483D01*
X598315Y3812202D01*
X614602Y3795915D01*
X635883Y3787100D01*
X658917D01*
X680198Y3795915D01*
X696485Y3812202D01*
X705300Y3833483D01*
Y3856517D01*
X696485Y3877798D01*
X680198Y3894085D01*
X673818Y3896728D01*
X676344Y3909428D01*
X684700D01*
Y3975300D01*
D02*
G37*
G36*
X5284657Y3837300D02*
X5222700D01*
Y3775343D01*
X5239103Y3779738D01*
X5256297Y3789665D01*
X5270335Y3803703D01*
X5280262Y3820897D01*
X5284657Y3837300D01*
D02*
G37*
G36*
X5197300D02*
X5135343D01*
X5139738Y3820897D01*
X5149665Y3803703D01*
X5163703Y3789665D01*
X5180897Y3779738D01*
X5197300Y3775343D01*
Y3837300D01*
D02*
G37*
G36*
X5464657Y3827300D02*
X5402700D01*
Y3765343D01*
X5419103Y3769738D01*
X5436296Y3779665D01*
X5450335Y3793703D01*
X5460262Y3810897D01*
X5464657Y3827300D01*
D02*
G37*
G36*
X5377300D02*
X5315343D01*
X5319738Y3810897D01*
X5329665Y3793703D01*
X5343703Y3779665D01*
X5360897Y3769738D01*
X5377300Y3765343D01*
Y3827300D01*
D02*
G37*
G36*
X132700Y3824657D02*
Y3762700D01*
X194657D01*
X190262Y3779103D01*
X180335Y3796297D01*
X166297Y3810335D01*
X149103Y3820262D01*
X132700Y3824657D01*
D02*
G37*
G36*
X107300D02*
X90897Y3820262D01*
X73703Y3810335D01*
X59665Y3796297D01*
X49738Y3779103D01*
X45343Y3762700D01*
X107300D01*
Y3824657D01*
D02*
G37*
G36*
X10602700Y3764657D02*
Y3702700D01*
X10664657D01*
X10660262Y3719103D01*
X10650335Y3736297D01*
X10636296Y3750335D01*
X10619103Y3760262D01*
X10602700Y3764657D01*
D02*
G37*
G36*
X10577300D02*
X10560897Y3760262D01*
X10543703Y3750335D01*
X10529665Y3736297D01*
X10519738Y3719103D01*
X10515343Y3702700D01*
X10577300D01*
Y3764657D01*
D02*
G37*
G36*
X11262700Y3754657D02*
Y3692700D01*
X11324657D01*
X11320262Y3709103D01*
X11310335Y3726297D01*
X11296297Y3740335D01*
X11279103Y3750262D01*
X11262700Y3754657D01*
D02*
G37*
G36*
X11237300D02*
X11220897Y3750262D01*
X11203704Y3740335D01*
X11189665Y3726297D01*
X11179738Y3709103D01*
X11175343Y3692700D01*
X11237300D01*
Y3754657D01*
D02*
G37*
G36*
X10382700D02*
Y3692700D01*
X10444657D01*
X10440262Y3709103D01*
X10430335Y3726297D01*
X10416297Y3740335D01*
X10399103Y3750262D01*
X10382700Y3754657D01*
D02*
G37*
G36*
X10357300D02*
X10340897Y3750262D01*
X10323704Y3740335D01*
X10309665Y3726297D01*
X10299738Y3709103D01*
X10295343Y3692700D01*
X10357300D01*
Y3754657D01*
D02*
G37*
G36*
X9552700D02*
Y3692700D01*
X9614657D01*
X9610262Y3709103D01*
X9600335Y3726297D01*
X9586297Y3740335D01*
X9569103Y3750262D01*
X9552700Y3754657D01*
D02*
G37*
G36*
X9527300D02*
X9510897Y3750262D01*
X9493703Y3740335D01*
X9479665Y3726297D01*
X9469738Y3709103D01*
X9465343Y3692700D01*
X9527300D01*
Y3754657D01*
D02*
G37*
G36*
X9752700Y3744657D02*
Y3682700D01*
X9814657D01*
X9810262Y3699103D01*
X9800335Y3716297D01*
X9786297Y3730335D01*
X9769103Y3740262D01*
X9752700Y3744657D01*
D02*
G37*
G36*
X9727300D02*
X9710897Y3740262D01*
X9693703Y3730335D01*
X9679665Y3716297D01*
X9669738Y3699103D01*
X9665343Y3682700D01*
X9727300D01*
Y3744657D01*
D02*
G37*
G36*
X194657Y3737300D02*
X132700D01*
Y3675343D01*
X149103Y3679738D01*
X166297Y3689665D01*
X180335Y3703704D01*
X190262Y3720897D01*
X194657Y3737300D01*
D02*
G37*
G36*
X107300D02*
X45343D01*
X49738Y3720897D01*
X59665Y3703704D01*
X73703Y3689665D01*
X90897Y3679738D01*
X107300Y3675343D01*
Y3737300D01*
D02*
G37*
G36*
X8922700Y3734657D02*
Y3672700D01*
X8984657D01*
X8980262Y3689103D01*
X8970335Y3706297D01*
X8956297Y3720335D01*
X8939103Y3730262D01*
X8922700Y3734657D01*
D02*
G37*
G36*
X8897300D02*
X8880897Y3730262D01*
X8863703Y3720335D01*
X8849665Y3706297D01*
X8839738Y3689103D01*
X8835343Y3672700D01*
X8897300D01*
Y3734657D01*
D02*
G37*
G36*
X8662700D02*
Y3672700D01*
X8724657D01*
X8720262Y3689103D01*
X8710335Y3706297D01*
X8696297Y3720335D01*
X8679103Y3730262D01*
X8662700Y3734657D01*
D02*
G37*
G36*
X8637300D02*
X8620897Y3730262D01*
X8603703Y3720335D01*
X8589665Y3706297D01*
X8579738Y3689103D01*
X8575343Y3672700D01*
X8637300D01*
Y3734657D01*
D02*
G37*
G36*
X7962700Y3724657D02*
Y3662700D01*
X8024657D01*
X8020262Y3679103D01*
X8010335Y3696297D01*
X7996297Y3710335D01*
X7979103Y3720262D01*
X7962700Y3724657D01*
D02*
G37*
G36*
X7937300D02*
X7920897Y3720262D01*
X7903704Y3710335D01*
X7889665Y3696297D01*
X7879738Y3679103D01*
X7875343Y3662700D01*
X7937300D01*
Y3724657D01*
D02*
G37*
G36*
X7722700D02*
Y3662700D01*
X7784657D01*
X7780262Y3679103D01*
X7770335Y3696297D01*
X7756297Y3710335D01*
X7739103Y3720262D01*
X7722700Y3724657D01*
D02*
G37*
G36*
X7697300D02*
X7680897Y3720262D01*
X7663703Y3710335D01*
X7649665Y3696297D01*
X7639738Y3679103D01*
X7635343Y3662700D01*
X7697300D01*
Y3724657D01*
D02*
G37*
G36*
X10664657Y3677300D02*
X10602700D01*
Y3615343D01*
X10619103Y3619738D01*
X10636296Y3629665D01*
X10650335Y3643703D01*
X10660262Y3660897D01*
X10664657Y3677300D01*
D02*
G37*
G36*
X10577300D02*
X10515343D01*
X10519738Y3660897D01*
X10529665Y3643703D01*
X10543703Y3629665D01*
X10560897Y3619738D01*
X10577300Y3615343D01*
Y3677300D01*
D02*
G37*
G36*
X11324657Y3667300D02*
X11262700D01*
Y3605343D01*
X11279103Y3609738D01*
X11296297Y3619665D01*
X11310335Y3633703D01*
X11320262Y3650897D01*
X11324657Y3667300D01*
D02*
G37*
G36*
X11237300D02*
X11175343D01*
X11179738Y3650897D01*
X11189665Y3633703D01*
X11203704Y3619665D01*
X11220897Y3609738D01*
X11237300Y3605343D01*
Y3667300D01*
D02*
G37*
G36*
X10444657D02*
X10382700D01*
Y3605343D01*
X10399103Y3609738D01*
X10416297Y3619665D01*
X10430335Y3633703D01*
X10440262Y3650897D01*
X10444657Y3667300D01*
D02*
G37*
G36*
X10357300D02*
X10295343D01*
X10299738Y3650897D01*
X10309665Y3633703D01*
X10323704Y3619665D01*
X10340897Y3609738D01*
X10357300Y3605343D01*
Y3667300D01*
D02*
G37*
G36*
X9614657D02*
X9552700D01*
Y3605343D01*
X9569103Y3609738D01*
X9586297Y3619665D01*
X9600335Y3633703D01*
X9610262Y3650897D01*
X9614657Y3667300D01*
D02*
G37*
G36*
X9527300D02*
X9465343D01*
X9469738Y3650897D01*
X9479665Y3633703D01*
X9493703Y3619665D01*
X9510897Y3609738D01*
X9527300Y3605343D01*
Y3667300D01*
D02*
G37*
G36*
X9814657Y3657300D02*
X9752700D01*
Y3595343D01*
X9769103Y3599738D01*
X9786297Y3609665D01*
X9800335Y3623703D01*
X9810262Y3640897D01*
X9814657Y3657300D01*
D02*
G37*
G36*
X9727300D02*
X9665343D01*
X9669738Y3640897D01*
X9679665Y3623703D01*
X9693703Y3609665D01*
X9710897Y3599738D01*
X9727300Y3595343D01*
Y3657300D01*
D02*
G37*
G36*
X8984657Y3647300D02*
X8922700D01*
Y3585343D01*
X8939103Y3589738D01*
X8956297Y3599665D01*
X8970335Y3613703D01*
X8980262Y3630897D01*
X8984657Y3647300D01*
D02*
G37*
G36*
X8897300D02*
X8835343D01*
X8839738Y3630897D01*
X8849665Y3613703D01*
X8863703Y3599665D01*
X8880897Y3589738D01*
X8897300Y3585343D01*
Y3647300D01*
D02*
G37*
G36*
X8724657D02*
X8662700D01*
Y3585343D01*
X8679103Y3589738D01*
X8696297Y3599665D01*
X8710335Y3613703D01*
X8720262Y3630897D01*
X8724657Y3647300D01*
D02*
G37*
G36*
X8637300D02*
X8575343D01*
X8579738Y3630897D01*
X8589665Y3613703D01*
X8603703Y3599665D01*
X8620897Y3589738D01*
X8637300Y3585343D01*
Y3647300D01*
D02*
G37*
G36*
X8024657Y3637300D02*
X7962700D01*
Y3575343D01*
X7979103Y3579738D01*
X7996297Y3589665D01*
X8010335Y3603703D01*
X8020262Y3620897D01*
X8024657Y3637300D01*
D02*
G37*
G36*
X7937300D02*
X7875343D01*
X7879738Y3620897D01*
X7889665Y3603703D01*
X7903704Y3589665D01*
X7920897Y3579738D01*
X7937300Y3575343D01*
Y3637300D01*
D02*
G37*
G36*
X7784657D02*
X7722700D01*
Y3575343D01*
X7739103Y3579738D01*
X7756297Y3589665D01*
X7770335Y3603703D01*
X7780262Y3620897D01*
X7784657Y3637300D01*
D02*
G37*
G36*
X7697300D02*
X7635343D01*
X7639738Y3620897D01*
X7649665Y3603703D01*
X7663703Y3589665D01*
X7680897Y3579738D01*
X7697300Y3575343D01*
Y3637300D01*
D02*
G37*
G36*
X10382700Y3574657D02*
Y3512700D01*
X10444657D01*
X10440262Y3529103D01*
X10430335Y3546297D01*
X10416297Y3560335D01*
X10399103Y3570262D01*
X10382700Y3574657D01*
D02*
G37*
G36*
X10357300D02*
X10340897Y3570262D01*
X10323704Y3560335D01*
X10309665Y3546297D01*
X10299738Y3529103D01*
X10295343Y3512700D01*
X10357300D01*
Y3574657D01*
D02*
G37*
G36*
X10602700Y3564657D02*
Y3502700D01*
X10664657D01*
X10660262Y3519103D01*
X10650335Y3536296D01*
X10636296Y3550335D01*
X10619103Y3560262D01*
X10602700Y3564657D01*
D02*
G37*
G36*
X10577300D02*
X10560897Y3560262D01*
X10543703Y3550335D01*
X10529665Y3536296D01*
X10519738Y3519103D01*
X10515343Y3502700D01*
X10577300D01*
Y3564657D01*
D02*
G37*
G36*
X11252700Y3544657D02*
Y3482700D01*
X11314657D01*
X11310262Y3499103D01*
X11300335Y3516296D01*
X11286297Y3530335D01*
X11269103Y3540262D01*
X11252700Y3544657D01*
D02*
G37*
G36*
X11227300D02*
X11210897Y3540262D01*
X11193704Y3530335D01*
X11179665Y3516296D01*
X11169738Y3499103D01*
X11165343Y3482700D01*
X11227300D01*
Y3544657D01*
D02*
G37*
G36*
X9752700D02*
Y3482700D01*
X9814657D01*
X9810262Y3499103D01*
X9800335Y3516296D01*
X9786297Y3530335D01*
X9769103Y3540262D01*
X9752700Y3544657D01*
D02*
G37*
G36*
X9727300D02*
X9710897Y3540262D01*
X9693703Y3530335D01*
X9679665Y3516296D01*
X9669738Y3499103D01*
X9665343Y3482700D01*
X9727300D01*
Y3544657D01*
D02*
G37*
G36*
X9572700D02*
Y3482700D01*
X9634657D01*
X9630262Y3499103D01*
X9620335Y3516296D01*
X9606297Y3530335D01*
X9589103Y3540262D01*
X9572700Y3544657D01*
D02*
G37*
G36*
X9547300D02*
X9530897Y3540262D01*
X9513703Y3530335D01*
X9499665Y3516296D01*
X9489738Y3499103D01*
X9485343Y3482700D01*
X9547300D01*
Y3544657D01*
D02*
G37*
G36*
X5162700D02*
Y3482700D01*
X5224657D01*
X5220262Y3499103D01*
X5210335Y3516296D01*
X5196297Y3530335D01*
X5179103Y3540262D01*
X5162700Y3544657D01*
D02*
G37*
G36*
X5137300D02*
X5120897Y3540262D01*
X5103704Y3530335D01*
X5089665Y3516296D01*
X5079738Y3499103D01*
X5075343Y3482700D01*
X5137300D01*
Y3544657D01*
D02*
G37*
G36*
X8922700Y3524657D02*
Y3462700D01*
X8984657D01*
X8980262Y3479103D01*
X8970335Y3496297D01*
X8956297Y3510335D01*
X8939103Y3520262D01*
X8922700Y3524657D01*
D02*
G37*
G36*
X8897300D02*
X8880897Y3520262D01*
X8863703Y3510335D01*
X8849665Y3496297D01*
X8839738Y3479103D01*
X8835343Y3462700D01*
X8897300D01*
Y3524657D01*
D02*
G37*
G36*
X8672700D02*
Y3462700D01*
X8734657D01*
X8730262Y3479103D01*
X8720335Y3496297D01*
X8706297Y3510335D01*
X8689103Y3520262D01*
X8672700Y3524657D01*
D02*
G37*
G36*
X8647300D02*
X8630897Y3520262D01*
X8613703Y3510335D01*
X8599665Y3496297D01*
X8589738Y3479103D01*
X8585343Y3462700D01*
X8647300D01*
Y3524657D01*
D02*
G37*
G36*
X7962700Y3514657D02*
Y3452700D01*
X8024657D01*
X8020262Y3469103D01*
X8010335Y3486297D01*
X7996297Y3500335D01*
X7979103Y3510262D01*
X7962700Y3514657D01*
D02*
G37*
G36*
X7937300D02*
X7920897Y3510262D01*
X7903704Y3500335D01*
X7889665Y3486297D01*
X7879738Y3469103D01*
X7875343Y3452700D01*
X7937300D01*
Y3514657D01*
D02*
G37*
G36*
X7732700D02*
Y3452700D01*
X7794657D01*
X7790262Y3469103D01*
X7780335Y3486297D01*
X7766297Y3500335D01*
X7749103Y3510262D01*
X7732700Y3514657D01*
D02*
G37*
G36*
X7707300D02*
X7690897Y3510262D01*
X7673703Y3500335D01*
X7659665Y3486297D01*
X7649738Y3469103D01*
X7645343Y3452700D01*
X7707300D01*
Y3514657D01*
D02*
G37*
G36*
X4752700Y3494657D02*
Y3432700D01*
X4814657D01*
X4810262Y3449103D01*
X4800335Y3466297D01*
X4786296Y3480335D01*
X4769103Y3490262D01*
X4752700Y3494657D01*
D02*
G37*
G36*
X4727300D02*
X4710897Y3490262D01*
X4693703Y3480335D01*
X4679665Y3466297D01*
X4669738Y3449103D01*
X4665343Y3432700D01*
X4727300D01*
Y3494657D01*
D02*
G37*
G36*
X10444657Y3487300D02*
X10382700D01*
Y3425343D01*
X10399103Y3429738D01*
X10416297Y3439665D01*
X10430335Y3453704D01*
X10440262Y3470897D01*
X10444657Y3487300D01*
D02*
G37*
G36*
X10357300D02*
X10295343D01*
X10299738Y3470897D01*
X10309665Y3453704D01*
X10323704Y3439665D01*
X10340897Y3429738D01*
X10357300Y3425343D01*
Y3487300D01*
D02*
G37*
G36*
X142700Y3484657D02*
Y3422700D01*
X204657D01*
X200262Y3439103D01*
X190335Y3456297D01*
X176297Y3470335D01*
X159103Y3480262D01*
X142700Y3484657D01*
D02*
G37*
G36*
X117300D02*
X100897Y3480262D01*
X83703Y3470335D01*
X69665Y3456297D01*
X59738Y3439103D01*
X55343Y3422700D01*
X117300D01*
Y3484657D01*
D02*
G37*
G36*
X10664657Y3477300D02*
X10602700D01*
Y3415343D01*
X10619103Y3419738D01*
X10636296Y3429665D01*
X10650335Y3443703D01*
X10660262Y3460897D01*
X10664657Y3477300D01*
D02*
G37*
G36*
X10577300D02*
X10515343D01*
X10519738Y3460897D01*
X10529665Y3443703D01*
X10543703Y3429665D01*
X10560897Y3419738D01*
X10577300Y3415343D01*
Y3477300D01*
D02*
G37*
G36*
X4099327Y3758400D02*
X4079473D01*
X4060297Y3753262D01*
X4043103Y3743335D01*
X4029065Y3729297D01*
X4019138Y3712103D01*
X4014000Y3692927D01*
Y3673073D01*
X4019138Y3653897D01*
X4029065Y3636703D01*
X4043103Y3622665D01*
X4060297Y3612738D01*
X4079473Y3607600D01*
X4099327D01*
X4118503Y3612738D01*
X4135697Y3622665D01*
X4137762Y3624730D01*
X6478264D01*
X6513347Y3589648D01*
Y3517578D01*
X6508338Y3508903D01*
X6503200Y3489727D01*
Y3469873D01*
X6508338Y3450697D01*
X6518265Y3433503D01*
X6532303Y3419465D01*
X6549497Y3409538D01*
X6568673Y3404400D01*
X6588527D01*
X6607703Y3409538D01*
X6624897Y3419465D01*
X6638935Y3433503D01*
X6648862Y3450697D01*
X6654000Y3469873D01*
Y3489727D01*
X6648862Y3508903D01*
X6638935Y3526097D01*
X6629886Y3535146D01*
Y3613784D01*
X6625450Y3636083D01*
X6612819Y3654987D01*
X6543603Y3724203D01*
X6524699Y3736834D01*
X6502400Y3741270D01*
X4137762D01*
X4135697Y3743335D01*
X4118503Y3753262D01*
X4099327Y3758400D01*
D02*
G37*
G36*
X11314657Y3457300D02*
X11252700D01*
Y3395343D01*
X11269103Y3399738D01*
X11286297Y3409665D01*
X11300335Y3423703D01*
X11310262Y3440897D01*
X11314657Y3457300D01*
D02*
G37*
G36*
X11227300D02*
X11165343D01*
X11169738Y3440897D01*
X11179665Y3423703D01*
X11193704Y3409665D01*
X11210897Y3399738D01*
X11227300Y3395343D01*
Y3457300D01*
D02*
G37*
G36*
X9814657D02*
X9752700D01*
Y3395343D01*
X9769103Y3399738D01*
X9786297Y3409665D01*
X9800335Y3423703D01*
X9810262Y3440897D01*
X9814657Y3457300D01*
D02*
G37*
G36*
X9727300D02*
X9665343D01*
X9669738Y3440897D01*
X9679665Y3423703D01*
X9693703Y3409665D01*
X9710897Y3399738D01*
X9727300Y3395343D01*
Y3457300D01*
D02*
G37*
G36*
X9634657D02*
X9572700D01*
Y3395343D01*
X9589103Y3399738D01*
X9606297Y3409665D01*
X9620335Y3423703D01*
X9630262Y3440897D01*
X9634657Y3457300D01*
D02*
G37*
G36*
X9547300D02*
X9485343D01*
X9489738Y3440897D01*
X9499665Y3423703D01*
X9513703Y3409665D01*
X9530897Y3399738D01*
X9547300Y3395343D01*
Y3457300D01*
D02*
G37*
G36*
X5224657D02*
X5162700D01*
Y3395343D01*
X5179103Y3399738D01*
X5196297Y3409665D01*
X5210335Y3423703D01*
X5220262Y3440897D01*
X5224657Y3457300D01*
D02*
G37*
G36*
X5137300D02*
X5075343D01*
X5079738Y3440897D01*
X5089665Y3423703D01*
X5103704Y3409665D01*
X5120897Y3399738D01*
X5137300Y3395343D01*
Y3457300D01*
D02*
G37*
G36*
X8984657Y3437300D02*
X8922700D01*
Y3375343D01*
X8939103Y3379738D01*
X8956297Y3389665D01*
X8970335Y3403703D01*
X8980262Y3420897D01*
X8984657Y3437300D01*
D02*
G37*
G36*
X8897300D02*
X8835343D01*
X8839738Y3420897D01*
X8849665Y3403703D01*
X8863703Y3389665D01*
X8880897Y3379738D01*
X8897300Y3375343D01*
Y3437300D01*
D02*
G37*
G36*
X8734657D02*
X8672700D01*
Y3375343D01*
X8689103Y3379738D01*
X8706297Y3389665D01*
X8720335Y3403703D01*
X8730262Y3420897D01*
X8734657Y3437300D01*
D02*
G37*
G36*
X8647300D02*
X8585343D01*
X8589738Y3420897D01*
X8599665Y3403703D01*
X8613703Y3389665D01*
X8630897Y3379738D01*
X8647300Y3375343D01*
Y3437300D01*
D02*
G37*
G36*
X8024657Y3427300D02*
X7962700D01*
Y3365343D01*
X7979103Y3369738D01*
X7996297Y3379665D01*
X8010335Y3393703D01*
X8020262Y3410897D01*
X8024657Y3427300D01*
D02*
G37*
G36*
X7937300D02*
X7875343D01*
X7879738Y3410897D01*
X7889665Y3393703D01*
X7903704Y3379665D01*
X7920897Y3369738D01*
X7937300Y3365343D01*
Y3427300D01*
D02*
G37*
G36*
X7794657D02*
X7732700D01*
Y3365343D01*
X7749103Y3369738D01*
X7766297Y3379665D01*
X7780335Y3393703D01*
X7790262Y3410897D01*
X7794657Y3427300D01*
D02*
G37*
G36*
X7707300D02*
X7645343D01*
X7649738Y3410897D01*
X7659665Y3393703D01*
X7673703Y3379665D01*
X7690897Y3369738D01*
X7707300Y3365343D01*
Y3427300D01*
D02*
G37*
G36*
X4814657Y3407300D02*
X4752700D01*
Y3345343D01*
X4769103Y3349738D01*
X4786296Y3359665D01*
X4800335Y3373703D01*
X4810262Y3390897D01*
X4814657Y3407300D01*
D02*
G37*
G36*
X4727300D02*
X4665343D01*
X4669738Y3390897D01*
X4679665Y3373703D01*
X4693703Y3359665D01*
X4710897Y3349738D01*
X4727300Y3345343D01*
Y3407300D01*
D02*
G37*
G36*
X204657Y3397300D02*
X142700D01*
Y3335343D01*
X159103Y3339738D01*
X176297Y3349665D01*
X190335Y3363703D01*
X200262Y3380897D01*
X204657Y3397300D01*
D02*
G37*
G36*
X117300D02*
X55343D01*
X59738Y3380897D01*
X69665Y3363703D01*
X83703Y3349665D01*
X100897Y3339738D01*
X117300Y3335343D01*
Y3397300D01*
D02*
G37*
G36*
X10602700Y3364657D02*
Y3302700D01*
X10664657D01*
X10660262Y3319103D01*
X10650335Y3336297D01*
X10636296Y3350335D01*
X10619103Y3360262D01*
X10602700Y3364657D01*
D02*
G37*
G36*
X10577300D02*
X10560897Y3360262D01*
X10543703Y3350335D01*
X10529665Y3336297D01*
X10519738Y3319103D01*
X10515343Y3302700D01*
X10577300D01*
Y3364657D01*
D02*
G37*
G36*
X5172700D02*
Y3302700D01*
X5234657D01*
X5230262Y3319103D01*
X5220335Y3336297D01*
X5206297Y3350335D01*
X5189103Y3360262D01*
X5172700Y3364657D01*
D02*
G37*
G36*
X5147300D02*
X5130897Y3360262D01*
X5113704Y3350335D01*
X5099665Y3336297D01*
X5089738Y3319103D01*
X5085343Y3302700D01*
X5147300D01*
Y3364657D01*
D02*
G37*
G36*
X10422700Y3344657D02*
Y3282700D01*
X10484657D01*
X10480262Y3299103D01*
X10470335Y3316296D01*
X10456297Y3330335D01*
X10439103Y3340262D01*
X10422700Y3344657D01*
D02*
G37*
G36*
X10397300D02*
X10380897Y3340262D01*
X10363703Y3330335D01*
X10349665Y3316296D01*
X10339738Y3299103D01*
X10335343Y3282700D01*
X10397300D01*
Y3344657D01*
D02*
G37*
G36*
X3602700Y3334657D02*
Y3272700D01*
X3664657D01*
X3660262Y3289103D01*
X3650335Y3306297D01*
X3636297Y3320335D01*
X3619103Y3330262D01*
X3602700Y3334657D01*
D02*
G37*
G36*
X3577300D02*
X3560897Y3330262D01*
X3543703Y3320335D01*
X3529665Y3306297D01*
X3519738Y3289103D01*
X3515343Y3272700D01*
X3577300D01*
Y3334657D01*
D02*
G37*
G36*
X11272700Y3324657D02*
Y3262700D01*
X11334657D01*
X11330262Y3279103D01*
X11320335Y3296297D01*
X11306297Y3310335D01*
X11289103Y3320262D01*
X11272700Y3324657D01*
D02*
G37*
G36*
X11247300D02*
X11230897Y3320262D01*
X11213704Y3310335D01*
X11199665Y3296297D01*
X11189738Y3279103D01*
X11185343Y3262700D01*
X11247300D01*
Y3324657D01*
D02*
G37*
G36*
X4412675Y3424800D02*
X4408100D01*
Y3262100D01*
X4570800D01*
Y3266675D01*
X4564059Y3300562D01*
X4550837Y3332483D01*
X4531642Y3361211D01*
X4507211Y3385642D01*
X4478483Y3404837D01*
X4446562Y3418059D01*
X4412675Y3424800D01*
D02*
G37*
G36*
X4382700D02*
X4378125D01*
X4344238Y3418059D01*
X4312317Y3404837D01*
X4283589Y3385642D01*
X4259158Y3361211D01*
X4239963Y3332483D01*
X4226741Y3300562D01*
X4220000Y3266675D01*
Y3262100D01*
X4382700D01*
Y3424800D01*
D02*
G37*
G36*
X8922700Y3314657D02*
Y3252700D01*
X8984657D01*
X8980262Y3269103D01*
X8970335Y3286297D01*
X8956297Y3300335D01*
X8939103Y3310262D01*
X8922700Y3314657D01*
D02*
G37*
G36*
X8897300D02*
X8880897Y3310262D01*
X8863703Y3300335D01*
X8849665Y3286297D01*
X8839738Y3269103D01*
X8835343Y3252700D01*
X8897300D01*
Y3314657D01*
D02*
G37*
G36*
X7972700D02*
Y3252700D01*
X8034657D01*
X8030262Y3269103D01*
X8020335Y3286297D01*
X8006297Y3300335D01*
X7989103Y3310262D01*
X7972700Y3314657D01*
D02*
G37*
G36*
X7947300D02*
X7930897Y3310262D01*
X7913704Y3300335D01*
X7899665Y3286297D01*
X7889738Y3269103D01*
X7885343Y3252700D01*
X7947300D01*
Y3314657D01*
D02*
G37*
G36*
X3922700D02*
Y3252700D01*
X3984657D01*
X3980262Y3269103D01*
X3970335Y3286297D01*
X3956297Y3300335D01*
X3939103Y3310262D01*
X3922700Y3314657D01*
D02*
G37*
G36*
X3897300D02*
X3880897Y3310262D01*
X3863703Y3300335D01*
X3849665Y3286297D01*
X3839738Y3269103D01*
X3835343Y3252700D01*
X3897300D01*
Y3314657D01*
D02*
G37*
G36*
X3322700D02*
Y3252700D01*
X3384657D01*
X3380262Y3269103D01*
X3370335Y3286297D01*
X3356297Y3300335D01*
X3339103Y3310262D01*
X3322700Y3314657D01*
D02*
G37*
G36*
X3297300D02*
X3280897Y3310262D01*
X3263703Y3300335D01*
X3249665Y3286297D01*
X3239738Y3269103D01*
X3235343Y3252700D01*
X3297300D01*
Y3314657D01*
D02*
G37*
G36*
X7742700Y3304657D02*
Y3242700D01*
X7804657D01*
X7800262Y3259103D01*
X7790335Y3276296D01*
X7776297Y3290335D01*
X7759103Y3300262D01*
X7742700Y3304657D01*
D02*
G37*
G36*
X7717300D02*
X7700897Y3300262D01*
X7683703Y3290335D01*
X7669665Y3276296D01*
X7659738Y3259103D01*
X7655343Y3242700D01*
X7717300D01*
Y3304657D01*
D02*
G37*
G36*
X9762700Y3294657D02*
Y3232700D01*
X9824657D01*
X9820262Y3249103D01*
X9810335Y3266296D01*
X9796297Y3280335D01*
X9779103Y3290262D01*
X9762700Y3294657D01*
D02*
G37*
G36*
X9737300D02*
X9720897Y3290262D01*
X9703703Y3280335D01*
X9689665Y3266296D01*
X9679738Y3249103D01*
X9675343Y3232700D01*
X9737300D01*
Y3294657D01*
D02*
G37*
G36*
X9572700D02*
Y3232700D01*
X9634657D01*
X9630262Y3249103D01*
X9620335Y3266296D01*
X9606297Y3280335D01*
X9589103Y3290262D01*
X9572700Y3294657D01*
D02*
G37*
G36*
X9547300D02*
X9530897Y3290262D01*
X9513703Y3280335D01*
X9499665Y3266296D01*
X9489738Y3249103D01*
X9485343Y3232700D01*
X9547300D01*
Y3294657D01*
D02*
G37*
G36*
X8692700D02*
Y3232700D01*
X8754657D01*
X8750262Y3249103D01*
X8740335Y3266296D01*
X8726296Y3280335D01*
X8709103Y3290262D01*
X8692700Y3294657D01*
D02*
G37*
G36*
X8667300D02*
X8650897Y3290262D01*
X8633703Y3280335D01*
X8619665Y3266296D01*
X8609738Y3249103D01*
X8605343Y3232700D01*
X8667300D01*
Y3294657D01*
D02*
G37*
G36*
X4762700D02*
Y3232700D01*
X4824657D01*
X4820262Y3249103D01*
X4810335Y3266296D01*
X4796296Y3280335D01*
X4779103Y3290262D01*
X4762700Y3294657D01*
D02*
G37*
G36*
X4737300D02*
X4720897Y3290262D01*
X4703703Y3280335D01*
X4689665Y3266296D01*
X4679738Y3249103D01*
X4675343Y3232700D01*
X4737300D01*
Y3294657D01*
D02*
G37*
G36*
X5234657Y3277300D02*
X5172700D01*
Y3215343D01*
X5189103Y3219738D01*
X5206297Y3229665D01*
X5220335Y3243703D01*
X5230262Y3260897D01*
X5234657Y3277300D01*
D02*
G37*
G36*
X5147300D02*
X5085343D01*
X5089738Y3260897D01*
X5099665Y3243703D01*
X5113704Y3229665D01*
X5130897Y3219738D01*
X5147300Y3215343D01*
Y3277300D01*
D02*
G37*
G36*
X10664657D02*
X10602700D01*
Y3215343D01*
X10619103Y3219738D01*
X10636296Y3229665D01*
X10650335Y3243703D01*
X10660262Y3260897D01*
X10664657Y3277300D01*
D02*
G37*
G36*
X10577300D02*
X10515343D01*
X10519738Y3260897D01*
X10529665Y3243703D01*
X10543703Y3229665D01*
X10560897Y3219738D01*
X10577300Y3215343D01*
Y3277300D01*
D02*
G37*
G36*
X10484657Y3257300D02*
X10422700D01*
Y3195343D01*
X10439103Y3199738D01*
X10456297Y3209665D01*
X10470335Y3223703D01*
X10480262Y3240896D01*
X10484657Y3257300D01*
D02*
G37*
G36*
X10397300D02*
X10335343D01*
X10339738Y3240896D01*
X10349665Y3223703D01*
X10363703Y3209665D01*
X10380897Y3199738D01*
X10397300Y3195343D01*
Y3257300D01*
D02*
G37*
G36*
X3664657Y3247300D02*
X3602700D01*
Y3185343D01*
X3619103Y3189738D01*
X3636297Y3199665D01*
X3650335Y3213704D01*
X3660262Y3230897D01*
X3664657Y3247300D01*
D02*
G37*
G36*
X3577300D02*
X3515343D01*
X3519738Y3230897D01*
X3529665Y3213704D01*
X3543703Y3199665D01*
X3560897Y3189738D01*
X3577300Y3185343D01*
Y3247300D01*
D02*
G37*
G36*
X11334657Y3237300D02*
X11272700D01*
Y3175343D01*
X11289103Y3179738D01*
X11306297Y3189665D01*
X11320335Y3203704D01*
X11330262Y3220897D01*
X11334657Y3237300D01*
D02*
G37*
G36*
X11247300D02*
X11185343D01*
X11189738Y3220897D01*
X11199665Y3203704D01*
X11213704Y3189665D01*
X11230897Y3179738D01*
X11247300Y3175343D01*
Y3237300D01*
D02*
G37*
G36*
X8984657Y3227300D02*
X8922700D01*
Y3165343D01*
X8939103Y3169738D01*
X8956297Y3179665D01*
X8970335Y3193704D01*
X8980262Y3210897D01*
X8984657Y3227300D01*
D02*
G37*
G36*
X8897300D02*
X8835343D01*
X8839738Y3210897D01*
X8849665Y3193704D01*
X8863703Y3179665D01*
X8880897Y3169738D01*
X8897300Y3165343D01*
Y3227300D01*
D02*
G37*
G36*
X8034657D02*
X7972700D01*
Y3165343D01*
X7989103Y3169738D01*
X8006297Y3179665D01*
X8020335Y3193704D01*
X8030262Y3210897D01*
X8034657Y3227300D01*
D02*
G37*
G36*
X7947300D02*
X7885343D01*
X7889738Y3210897D01*
X7899665Y3193704D01*
X7913704Y3179665D01*
X7930897Y3169738D01*
X7947300Y3165343D01*
Y3227300D01*
D02*
G37*
G36*
X3984657D02*
X3922700D01*
Y3165343D01*
X3939103Y3169738D01*
X3956297Y3179665D01*
X3970335Y3193704D01*
X3980262Y3210897D01*
X3984657Y3227300D01*
D02*
G37*
G36*
X3897300D02*
X3835343D01*
X3839738Y3210897D01*
X3849665Y3193704D01*
X3863703Y3179665D01*
X3880897Y3169738D01*
X3897300Y3165343D01*
Y3227300D01*
D02*
G37*
G36*
X3384657D02*
X3322700D01*
Y3165343D01*
X3339103Y3169738D01*
X3356297Y3179665D01*
X3370335Y3193704D01*
X3380262Y3210897D01*
X3384657Y3227300D01*
D02*
G37*
G36*
X3297300D02*
X3235343D01*
X3239738Y3210897D01*
X3249665Y3193704D01*
X3263703Y3179665D01*
X3280897Y3169738D01*
X3297300Y3165343D01*
Y3227300D01*
D02*
G37*
G36*
X7804657Y3217300D02*
X7742700D01*
Y3155343D01*
X7759103Y3159738D01*
X7776297Y3169665D01*
X7790335Y3183703D01*
X7800262Y3200897D01*
X7804657Y3217300D01*
D02*
G37*
G36*
X7717300D02*
X7655343D01*
X7659738Y3200897D01*
X7669665Y3183703D01*
X7683703Y3169665D01*
X7700897Y3159738D01*
X7717300Y3155343D01*
Y3217300D01*
D02*
G37*
G36*
X9824657Y3207300D02*
X9762700D01*
Y3145343D01*
X9779103Y3149738D01*
X9796297Y3159665D01*
X9810335Y3173703D01*
X9820262Y3190897D01*
X9824657Y3207300D01*
D02*
G37*
G36*
X9737300D02*
X9675343D01*
X9679738Y3190897D01*
X9689665Y3173703D01*
X9703703Y3159665D01*
X9720897Y3149738D01*
X9737300Y3145343D01*
Y3207300D01*
D02*
G37*
G36*
X9634657D02*
X9572700D01*
Y3145343D01*
X9589103Y3149738D01*
X9606297Y3159665D01*
X9620335Y3173703D01*
X9630262Y3190897D01*
X9634657Y3207300D01*
D02*
G37*
G36*
X9547300D02*
X9485343D01*
X9489738Y3190897D01*
X9499665Y3173703D01*
X9513703Y3159665D01*
X9530897Y3149738D01*
X9547300Y3145343D01*
Y3207300D01*
D02*
G37*
G36*
X8754657D02*
X8692700D01*
Y3145343D01*
X8709103Y3149738D01*
X8726296Y3159665D01*
X8740335Y3173703D01*
X8750262Y3190897D01*
X8754657Y3207300D01*
D02*
G37*
G36*
X8667300D02*
X8605343D01*
X8609738Y3190897D01*
X8619665Y3173703D01*
X8633703Y3159665D01*
X8650897Y3149738D01*
X8667300Y3145343D01*
Y3207300D01*
D02*
G37*
G36*
X4824657D02*
X4762700D01*
Y3145343D01*
X4779103Y3149738D01*
X4796296Y3159665D01*
X4810335Y3173703D01*
X4820262Y3190897D01*
X4824657Y3207300D01*
D02*
G37*
G36*
X4737300D02*
X4675343D01*
X4679738Y3190897D01*
X4689665Y3173703D01*
X4703703Y3159665D01*
X4720897Y3149738D01*
X4737300Y3145343D01*
Y3207300D01*
D02*
G37*
G36*
X749900Y3202572D02*
X710100D01*
Y3136700D01*
X826800D01*
X825795Y3144336D01*
X817945Y3163286D01*
X805459Y3179559D01*
X789186Y3192045D01*
X770236Y3199895D01*
X749900Y3202572D01*
D02*
G37*
G36*
X658917Y3324900D02*
X635883D01*
X614602Y3316085D01*
X598315Y3299798D01*
X589500Y3278517D01*
Y3255483D01*
X598315Y3234202D01*
X614602Y3217915D01*
X626549Y3212966D01*
X624833Y3199931D01*
X624564Y3199895D01*
X605614Y3192045D01*
X589341Y3179559D01*
X576855Y3163286D01*
X569005Y3144336D01*
X568000Y3136700D01*
X684700D01*
Y3202572D01*
X676344D01*
X673818Y3215272D01*
X680198Y3217915D01*
X696485Y3234202D01*
X705300Y3255483D01*
Y3278517D01*
X696485Y3299798D01*
X680198Y3316085D01*
X658917Y3324900D01*
D02*
G37*
G36*
X329400Y3200051D02*
X292100D01*
Y3136700D01*
X403779D01*
X402859Y3143684D01*
X395262Y3162025D01*
X383176Y3177776D01*
X367425Y3189862D01*
X349084Y3197459D01*
X329400Y3200051D01*
D02*
G37*
G36*
X266700D02*
X229400D01*
X209716Y3197459D01*
X191375Y3189862D01*
X175624Y3177776D01*
X163538Y3162025D01*
X155941Y3143684D01*
X155021Y3136700D01*
X266700D01*
Y3200051D01*
D02*
G37*
G36*
X10412700Y3164657D02*
Y3102700D01*
X10474657D01*
X10470262Y3119103D01*
X10460335Y3136296D01*
X10446297Y3150335D01*
X10429103Y3160262D01*
X10412700Y3164657D01*
D02*
G37*
G36*
X10387300D02*
X10370897Y3160262D01*
X10353703Y3150335D01*
X10339665Y3136296D01*
X10329738Y3119103D01*
X10325343Y3102700D01*
X10387300D01*
Y3164657D01*
D02*
G37*
G36*
X5172700D02*
Y3102700D01*
X5234657D01*
X5230262Y3119103D01*
X5220335Y3136296D01*
X5206297Y3150335D01*
X5189103Y3160262D01*
X5172700Y3164657D01*
D02*
G37*
G36*
X5147300D02*
X5130897Y3160262D01*
X5113704Y3150335D01*
X5099665Y3136296D01*
X5089738Y3119103D01*
X5085343Y3102700D01*
X5147300D01*
Y3164657D01*
D02*
G37*
G36*
X10592700Y3154657D02*
Y3092700D01*
X10654657D01*
X10650262Y3109103D01*
X10640335Y3126297D01*
X10626297Y3140335D01*
X10609103Y3150262D01*
X10592700Y3154657D01*
D02*
G37*
G36*
X10567300D02*
X10550897Y3150262D01*
X10533703Y3140335D01*
X10519665Y3126297D01*
X10509738Y3109103D01*
X10505343Y3092700D01*
X10567300D01*
Y3154657D01*
D02*
G37*
G36*
X5579675Y3424800D02*
X5545125D01*
X5511238Y3418059D01*
X5479317Y3404837D01*
X5450589Y3385642D01*
X5426158Y3361211D01*
X5406963Y3332483D01*
X5393741Y3300562D01*
X5387000Y3266675D01*
Y3232125D01*
X5393741Y3198238D01*
X5406963Y3166317D01*
X5426158Y3137589D01*
X5450589Y3113158D01*
X5479317Y3093963D01*
X5511238Y3080741D01*
X5545125Y3074000D01*
X5579675D01*
X5613562Y3080741D01*
X5645483Y3093963D01*
X5674211Y3113158D01*
X5698642Y3137589D01*
X5717837Y3166317D01*
X5731059Y3198238D01*
X5737800Y3232125D01*
Y3266675D01*
X5731059Y3300562D01*
X5717837Y3332483D01*
X5698642Y3361211D01*
X5674211Y3385642D01*
X5645483Y3404837D01*
X5613562Y3418059D01*
X5579675Y3424800D01*
D02*
G37*
G36*
X4570800Y3236700D02*
X4408100D01*
Y3074000D01*
X4412675D01*
X4446562Y3080741D01*
X4478483Y3093963D01*
X4507211Y3113158D01*
X4531642Y3137589D01*
X4550837Y3166317D01*
X4564059Y3198238D01*
X4570800Y3232125D01*
Y3236700D01*
D02*
G37*
G36*
X4382700D02*
X4220000D01*
Y3232125D01*
X4226741Y3198238D01*
X4239963Y3166317D01*
X4259158Y3137589D01*
X4283589Y3113158D01*
X4312317Y3093963D01*
X4344238Y3080741D01*
X4378125Y3074000D01*
X4382700D01*
Y3236700D01*
D02*
G37*
G36*
X11292700Y3124657D02*
Y3062700D01*
X11354657D01*
X11350262Y3079103D01*
X11340335Y3096297D01*
X11326297Y3110335D01*
X11309103Y3120262D01*
X11292700Y3124657D01*
D02*
G37*
G36*
X11267300D02*
X11250897Y3120262D01*
X11233703Y3110335D01*
X11219665Y3096297D01*
X11209738Y3079103D01*
X11205343Y3062700D01*
X11267300D01*
Y3124657D01*
D02*
G37*
G36*
X8932700D02*
Y3062700D01*
X8994657D01*
X8990262Y3079103D01*
X8980335Y3096297D01*
X8966297Y3110335D01*
X8949103Y3120262D01*
X8932700Y3124657D01*
D02*
G37*
G36*
X8907300D02*
X8890897Y3120262D01*
X8873703Y3110335D01*
X8859665Y3096297D01*
X8849738Y3079103D01*
X8845343Y3062700D01*
X8907300D01*
Y3124657D01*
D02*
G37*
G36*
X7972700D02*
Y3062700D01*
X8034657D01*
X8030262Y3079103D01*
X8020335Y3096297D01*
X8006297Y3110335D01*
X7989103Y3120262D01*
X7972700Y3124657D01*
D02*
G37*
G36*
X7947300D02*
X7930897Y3120262D01*
X7913704Y3110335D01*
X7899665Y3096297D01*
X7889738Y3079103D01*
X7885343Y3062700D01*
X7947300D01*
Y3124657D01*
D02*
G37*
G36*
X3922700D02*
Y3062700D01*
X3984657D01*
X3980262Y3079103D01*
X3970335Y3096297D01*
X3956297Y3110335D01*
X3939103Y3120262D01*
X3922700Y3124657D01*
D02*
G37*
G36*
X3897300D02*
X3880897Y3120262D01*
X3863703Y3110335D01*
X3849665Y3096297D01*
X3839738Y3079103D01*
X3835343Y3062700D01*
X3897300D01*
Y3124657D01*
D02*
G37*
G36*
X9762700Y3114657D02*
Y3052700D01*
X9824657D01*
X9820262Y3069103D01*
X9810335Y3086297D01*
X9796297Y3100335D01*
X9779103Y3110262D01*
X9762700Y3114657D01*
D02*
G37*
G36*
X9737300D02*
X9720897Y3110262D01*
X9703703Y3100335D01*
X9689665Y3086297D01*
X9679738Y3069103D01*
X9675343Y3052700D01*
X9737300D01*
Y3114657D01*
D02*
G37*
G36*
X8722700D02*
Y3052700D01*
X8784657D01*
X8780262Y3069103D01*
X8770335Y3086297D01*
X8756297Y3100335D01*
X8739103Y3110262D01*
X8722700Y3114657D01*
D02*
G37*
G36*
X8697300D02*
X8680897Y3110262D01*
X8663704Y3100335D01*
X8649665Y3086297D01*
X8639738Y3069103D01*
X8635343Y3052700D01*
X8697300D01*
Y3114657D01*
D02*
G37*
G36*
X7752700D02*
Y3052700D01*
X7814657D01*
X7810262Y3069103D01*
X7800335Y3086297D01*
X7786297Y3100335D01*
X7769103Y3110262D01*
X7752700Y3114657D01*
D02*
G37*
G36*
X7727300D02*
X7710897Y3110262D01*
X7693703Y3100335D01*
X7679665Y3086297D01*
X7669738Y3069103D01*
X7665343Y3052700D01*
X7727300D01*
Y3114657D01*
D02*
G37*
G36*
X403779Y3111300D02*
X292100D01*
Y3047949D01*
X329400D01*
X349084Y3050541D01*
X367425Y3058138D01*
X383176Y3070224D01*
X395262Y3085975D01*
X402859Y3104317D01*
X403779Y3111300D01*
D02*
G37*
G36*
X266700D02*
X155021D01*
X155941Y3104317D01*
X163538Y3085975D01*
X175624Y3070224D01*
X191375Y3058138D01*
X209716Y3050541D01*
X229400Y3047949D01*
X266700D01*
Y3111300D01*
D02*
G37*
G36*
X826800D02*
X710100D01*
Y3045428D01*
X749900D01*
X770236Y3048105D01*
X789186Y3055955D01*
X805459Y3068441D01*
X817945Y3084714D01*
X825795Y3103664D01*
X826800Y3111300D01*
D02*
G37*
G36*
X684700D02*
X568000D01*
X569005Y3103664D01*
X576855Y3084714D01*
X589341Y3068441D01*
X605614Y3055955D01*
X624564Y3048105D01*
X644900Y3045428D01*
X684700D01*
Y3111300D01*
D02*
G37*
G36*
X9582700Y3104657D02*
Y3042700D01*
X9644657D01*
X9640262Y3059103D01*
X9630335Y3076297D01*
X9616296Y3090335D01*
X9599103Y3100262D01*
X9582700Y3104657D01*
D02*
G37*
G36*
X9557300D02*
X9540897Y3100262D01*
X9523703Y3090335D01*
X9509665Y3076297D01*
X9499738Y3059103D01*
X9495343Y3042700D01*
X9557300D01*
Y3104657D01*
D02*
G37*
G36*
X4762700Y3084657D02*
Y3022700D01*
X4824657D01*
X4820262Y3039103D01*
X4810335Y3056297D01*
X4796296Y3070335D01*
X4779103Y3080262D01*
X4762700Y3084657D01*
D02*
G37*
G36*
X4737300D02*
X4720897Y3080262D01*
X4703703Y3070335D01*
X4689665Y3056297D01*
X4679738Y3039103D01*
X4675343Y3022700D01*
X4737300D01*
Y3084657D01*
D02*
G37*
G36*
X3642700D02*
Y3022700D01*
X3704657D01*
X3700262Y3039103D01*
X3690335Y3056297D01*
X3676297Y3070335D01*
X3659103Y3080262D01*
X3642700Y3084657D01*
D02*
G37*
G36*
X3617300D02*
X3600897Y3080262D01*
X3583704Y3070335D01*
X3569665Y3056297D01*
X3559738Y3039103D01*
X3555343Y3022700D01*
X3617300D01*
Y3084657D01*
D02*
G37*
G36*
X3372700D02*
Y3022700D01*
X3434657D01*
X3430262Y3039103D01*
X3420335Y3056297D01*
X3406296Y3070335D01*
X3389103Y3080262D01*
X3372700Y3084657D01*
D02*
G37*
G36*
X3347300D02*
X3330897Y3080262D01*
X3313703Y3070335D01*
X3299665Y3056297D01*
X3289738Y3039103D01*
X3285343Y3022700D01*
X3347300D01*
Y3084657D01*
D02*
G37*
G36*
X3122700D02*
Y3022700D01*
X3184657D01*
X3180262Y3039103D01*
X3170335Y3056297D01*
X3156296Y3070335D01*
X3139103Y3080262D01*
X3122700Y3084657D01*
D02*
G37*
G36*
X3097300D02*
X3080897Y3080262D01*
X3063703Y3070335D01*
X3049665Y3056297D01*
X3039738Y3039103D01*
X3035343Y3022700D01*
X3097300D01*
Y3084657D01*
D02*
G37*
G36*
X2852700D02*
Y3022700D01*
X2914657D01*
X2910262Y3039103D01*
X2900335Y3056297D01*
X2886296Y3070335D01*
X2869103Y3080262D01*
X2852700Y3084657D01*
D02*
G37*
G36*
X2827300D02*
X2810897Y3080262D01*
X2793703Y3070335D01*
X2779665Y3056297D01*
X2769738Y3039103D01*
X2765343Y3022700D01*
X2827300D01*
Y3084657D01*
D02*
G37*
G36*
X10474657Y3077300D02*
X10412700D01*
Y3015343D01*
X10429103Y3019738D01*
X10446297Y3029665D01*
X10460335Y3043703D01*
X10470262Y3060897D01*
X10474657Y3077300D01*
D02*
G37*
G36*
X10387300D02*
X10325343D01*
X10329738Y3060897D01*
X10339665Y3043703D01*
X10353703Y3029665D01*
X10370897Y3019738D01*
X10387300Y3015343D01*
Y3077300D01*
D02*
G37*
G36*
X5234657D02*
X5172700D01*
Y3015343D01*
X5189103Y3019738D01*
X5206297Y3029665D01*
X5220335Y3043703D01*
X5230262Y3060897D01*
X5234657Y3077300D01*
D02*
G37*
G36*
X5147300D02*
X5085343D01*
X5089738Y3060897D01*
X5099665Y3043703D01*
X5113704Y3029665D01*
X5130897Y3019738D01*
X5147300Y3015343D01*
Y3077300D01*
D02*
G37*
G36*
X10654657Y3067300D02*
X10592700D01*
Y3005343D01*
X10609103Y3009738D01*
X10626297Y3019665D01*
X10640335Y3033703D01*
X10650262Y3050897D01*
X10654657Y3067300D01*
D02*
G37*
G36*
X10567300D02*
X10505343D01*
X10509738Y3050897D01*
X10519665Y3033703D01*
X10533703Y3019665D01*
X10550897Y3009738D01*
X10567300Y3005343D01*
Y3067300D01*
D02*
G37*
G36*
X11354657Y3037300D02*
X11292700D01*
Y2975343D01*
X11309103Y2979738D01*
X11326297Y2989665D01*
X11340335Y3003703D01*
X11350262Y3020897D01*
X11354657Y3037300D01*
D02*
G37*
G36*
X11267300D02*
X11205343D01*
X11209738Y3020897D01*
X11219665Y3003703D01*
X11233703Y2989665D01*
X11250897Y2979738D01*
X11267300Y2975343D01*
Y3037300D01*
D02*
G37*
G36*
X8994657D02*
X8932700D01*
Y2975343D01*
X8949103Y2979738D01*
X8966297Y2989665D01*
X8980335Y3003703D01*
X8990262Y3020897D01*
X8994657Y3037300D01*
D02*
G37*
G36*
X8907300D02*
X8845343D01*
X8849738Y3020897D01*
X8859665Y3003703D01*
X8873703Y2989665D01*
X8890897Y2979738D01*
X8907300Y2975343D01*
Y3037300D01*
D02*
G37*
G36*
X8034657D02*
X7972700D01*
Y2975343D01*
X7989103Y2979738D01*
X8006297Y2989665D01*
X8020335Y3003703D01*
X8030262Y3020897D01*
X8034657Y3037300D01*
D02*
G37*
G36*
X7947300D02*
X7885343D01*
X7889738Y3020897D01*
X7899665Y3003703D01*
X7913704Y2989665D01*
X7930897Y2979738D01*
X7947300Y2975343D01*
Y3037300D01*
D02*
G37*
G36*
X3984657D02*
X3922700D01*
Y2975343D01*
X3939103Y2979738D01*
X3956297Y2989665D01*
X3970335Y3003703D01*
X3980262Y3020897D01*
X3984657Y3037300D01*
D02*
G37*
G36*
X3897300D02*
X3835343D01*
X3839738Y3020897D01*
X3849665Y3003703D01*
X3863703Y2989665D01*
X3880897Y2979738D01*
X3897300Y2975343D01*
Y3037300D01*
D02*
G37*
G36*
X9824657Y3027300D02*
X9762700D01*
Y2965343D01*
X9779103Y2969738D01*
X9796297Y2979665D01*
X9810335Y2993703D01*
X9820262Y3010897D01*
X9824657Y3027300D01*
D02*
G37*
G36*
X9737300D02*
X9675343D01*
X9679738Y3010897D01*
X9689665Y2993703D01*
X9703703Y2979665D01*
X9720897Y2969738D01*
X9737300Y2965343D01*
Y3027300D01*
D02*
G37*
G36*
X8784657D02*
X8722700D01*
Y2965343D01*
X8739103Y2969738D01*
X8756297Y2979665D01*
X8770335Y2993703D01*
X8780262Y3010897D01*
X8784657Y3027300D01*
D02*
G37*
G36*
X8697300D02*
X8635343D01*
X8639738Y3010897D01*
X8649665Y2993703D01*
X8663704Y2979665D01*
X8680897Y2969738D01*
X8697300Y2965343D01*
Y3027300D01*
D02*
G37*
G36*
X7814657D02*
X7752700D01*
Y2965343D01*
X7769103Y2969738D01*
X7786297Y2979665D01*
X7800335Y2993703D01*
X7810262Y3010897D01*
X7814657Y3027300D01*
D02*
G37*
G36*
X7727300D02*
X7665343D01*
X7669738Y3010897D01*
X7679665Y2993703D01*
X7693703Y2979665D01*
X7710897Y2969738D01*
X7727300Y2965343D01*
Y3027300D01*
D02*
G37*
G36*
X9644657Y3017300D02*
X9582700D01*
Y2955343D01*
X9599103Y2959738D01*
X9616296Y2969665D01*
X9630335Y2983703D01*
X9640262Y3000897D01*
X9644657Y3017300D01*
D02*
G37*
G36*
X9557300D02*
X9495343D01*
X9499738Y3000897D01*
X9509665Y2983703D01*
X9523703Y2969665D01*
X9540897Y2959738D01*
X9557300Y2955343D01*
Y3017300D01*
D02*
G37*
G36*
X4824657Y2997300D02*
X4762700D01*
Y2935343D01*
X4779103Y2939738D01*
X4796296Y2949665D01*
X4810335Y2963703D01*
X4820262Y2980897D01*
X4824657Y2997300D01*
D02*
G37*
G36*
X4737300D02*
X4675343D01*
X4679738Y2980897D01*
X4689665Y2963703D01*
X4703703Y2949665D01*
X4720897Y2939738D01*
X4737300Y2935343D01*
Y2997300D01*
D02*
G37*
G36*
X3704657D02*
X3642700D01*
Y2935343D01*
X3659103Y2939738D01*
X3676297Y2949665D01*
X3690335Y2963703D01*
X3700262Y2980897D01*
X3704657Y2997300D01*
D02*
G37*
G36*
X3617300D02*
X3555343D01*
X3559738Y2980897D01*
X3569665Y2963703D01*
X3583704Y2949665D01*
X3600897Y2939738D01*
X3617300Y2935343D01*
Y2997300D01*
D02*
G37*
G36*
X2914657D02*
X2852700D01*
Y2935343D01*
X2869103Y2939738D01*
X2886296Y2949665D01*
X2900335Y2963703D01*
X2910262Y2980897D01*
X2914657Y2997300D01*
D02*
G37*
G36*
X2827300D02*
X2765343D01*
X2769738Y2980897D01*
X2779665Y2963703D01*
X2793703Y2949665D01*
X2810897Y2939738D01*
X2827300Y2935343D01*
Y2997300D01*
D02*
G37*
G36*
X5372700Y2944657D02*
Y2882700D01*
X5434657D01*
X5430262Y2899103D01*
X5420335Y2916297D01*
X5406297Y2930335D01*
X5389103Y2940262D01*
X5372700Y2944657D01*
D02*
G37*
G36*
X5347300D02*
X5330897Y2940262D01*
X5313703Y2930335D01*
X5299665Y2916297D01*
X5289738Y2899103D01*
X5285343Y2882700D01*
X5347300D01*
Y2944657D01*
D02*
G37*
G36*
X5172700D02*
Y2882700D01*
X5234657D01*
X5230262Y2899103D01*
X5220335Y2916297D01*
X5206297Y2930335D01*
X5189103Y2940262D01*
X5172700Y2944657D01*
D02*
G37*
G36*
X5147300D02*
X5130897Y2940262D01*
X5113704Y2930335D01*
X5099665Y2916297D01*
X5089738Y2899103D01*
X5085343Y2882700D01*
X5147300D01*
Y2944657D01*
D02*
G37*
G36*
X10612700Y2944657D02*
Y2882700D01*
X10674657D01*
X10670262Y2899103D01*
X10660335Y2916296D01*
X10646296Y2930335D01*
X10629103Y2940262D01*
X10612700Y2944657D01*
D02*
G37*
G36*
X10587300D02*
X10570897Y2940262D01*
X10553703Y2930335D01*
X10539665Y2916296D01*
X10529738Y2899103D01*
X10525343Y2882700D01*
X10587300D01*
Y2944657D01*
D02*
G37*
G36*
X10412700Y2934657D02*
Y2872700D01*
X10474657D01*
X10470262Y2889103D01*
X10460335Y2906296D01*
X10446297Y2920335D01*
X10429103Y2930262D01*
X10412700Y2934657D01*
D02*
G37*
G36*
X10387300D02*
X10370897Y2930262D01*
X10353703Y2920335D01*
X10339665Y2906296D01*
X10329738Y2889103D01*
X10325343Y2872700D01*
X10387300D01*
Y2934657D01*
D02*
G37*
G36*
X9762700Y2924657D02*
Y2862700D01*
X9824657D01*
X9820262Y2879103D01*
X9810335Y2896296D01*
X9796297Y2910335D01*
X9779103Y2920262D01*
X9762700Y2924657D01*
D02*
G37*
G36*
X9737300D02*
X9720897Y2920262D01*
X9703703Y2910335D01*
X9689665Y2896296D01*
X9679738Y2879103D01*
X9675343Y2862700D01*
X9737300D01*
Y2924657D01*
D02*
G37*
G36*
X8932700D02*
Y2862700D01*
X8994657D01*
X8990262Y2879103D01*
X8980335Y2896296D01*
X8966297Y2910335D01*
X8949103Y2920262D01*
X8932700Y2924657D01*
D02*
G37*
G36*
X8907300D02*
X8890897Y2920262D01*
X8873703Y2910335D01*
X8859665Y2896296D01*
X8849738Y2879103D01*
X8845343Y2862700D01*
X8907300D01*
Y2924657D01*
D02*
G37*
G36*
X7982700D02*
Y2862700D01*
X8044657D01*
X8040262Y2879103D01*
X8030335Y2896296D01*
X8016297Y2910335D01*
X7999103Y2920262D01*
X7982700Y2924657D01*
D02*
G37*
G36*
X7957300D02*
X7940897Y2920262D01*
X7923703Y2910335D01*
X7909665Y2896296D01*
X7899738Y2879103D01*
X7895343Y2862700D01*
X7957300D01*
Y2924657D01*
D02*
G37*
G36*
X7752700D02*
Y2862700D01*
X7814657D01*
X7810262Y2879103D01*
X7800335Y2896296D01*
X7786297Y2910335D01*
X7769103Y2920262D01*
X7752700Y2924657D01*
D02*
G37*
G36*
X7727300D02*
X7710897Y2920262D01*
X7693703Y2910335D01*
X7679665Y2896296D01*
X7669738Y2879103D01*
X7665343Y2862700D01*
X7727300D01*
Y2924657D01*
D02*
G37*
G36*
X3434657Y2997300D02*
X3285343D01*
X3289738Y2980897D01*
X3299665Y2963703D01*
X3313703Y2949665D01*
X3330897Y2939738D01*
X3350073Y2934600D01*
X3355340D01*
X3357012Y2921900D01*
X3350897Y2920262D01*
X3333704Y2910335D01*
X3319665Y2896296D01*
X3309738Y2879103D01*
X3305343Y2862700D01*
X3454657D01*
X3450262Y2879103D01*
X3440335Y2896296D01*
X3426297Y2910335D01*
X3409103Y2920262D01*
X3389927Y2925400D01*
X3384660D01*
X3382988Y2938100D01*
X3389103Y2939738D01*
X3406296Y2949665D01*
X3420335Y2963703D01*
X3430262Y2980897D01*
X3434657Y2997300D01*
D02*
G37*
G36*
X3184657D02*
X3035343D01*
X3039738Y2980897D01*
X3049665Y2963703D01*
X3063703Y2949665D01*
X3080897Y2939738D01*
X3097707Y2935234D01*
X3099378Y2927542D01*
X3098871Y2922398D01*
X3090897Y2920262D01*
X3073704Y2910335D01*
X3059665Y2896296D01*
X3049738Y2879103D01*
X3045343Y2862700D01*
X3194657D01*
X3190262Y2879103D01*
X3180335Y2896296D01*
X3166297Y2910335D01*
X3149103Y2920262D01*
X3132293Y2924766D01*
X3130622Y2932458D01*
X3131129Y2937602D01*
X3139103Y2939738D01*
X3156296Y2949665D01*
X3170335Y2963703D01*
X3180262Y2980897D01*
X3184657Y2997300D01*
D02*
G37*
G36*
X8722700Y2914657D02*
Y2852700D01*
X8784657D01*
X8780262Y2869103D01*
X8770335Y2886296D01*
X8756297Y2900335D01*
X8739103Y2910262D01*
X8722700Y2914657D01*
D02*
G37*
G36*
X8697300D02*
X8680897Y2910262D01*
X8663704Y2900335D01*
X8649665Y2886296D01*
X8639738Y2869103D01*
X8635343Y2852700D01*
X8697300D01*
Y2914657D01*
D02*
G37*
G36*
X9560000Y2907357D02*
Y2845400D01*
X9621957D01*
X9617562Y2861803D01*
X9607635Y2878997D01*
X9593597Y2893035D01*
X9576403Y2902962D01*
X9560000Y2907357D01*
D02*
G37*
G36*
X9534600D02*
X9518197Y2902962D01*
X9501003Y2893035D01*
X9486965Y2878997D01*
X9477038Y2861803D01*
X9472643Y2845400D01*
X9534600D01*
Y2907357D01*
D02*
G37*
G36*
X4762700Y2904657D02*
Y2842700D01*
X4824657D01*
X4820262Y2859103D01*
X4810335Y2876297D01*
X4796296Y2890335D01*
X4779103Y2900262D01*
X4762700Y2904657D01*
D02*
G37*
G36*
X4737300D02*
X4720897Y2900262D01*
X4703703Y2890335D01*
X4689665Y2876297D01*
X4679738Y2859103D01*
X4675343Y2842700D01*
X4737300D01*
Y2904657D01*
D02*
G37*
G36*
X2852700D02*
Y2842700D01*
X2914657D01*
X2910262Y2859103D01*
X2900335Y2876297D01*
X2886296Y2890335D01*
X2869103Y2900262D01*
X2852700Y2904657D01*
D02*
G37*
G36*
X2827300D02*
X2810897Y2900262D01*
X2793703Y2890335D01*
X2779665Y2876297D01*
X2769738Y2859103D01*
X2765343Y2842700D01*
X2827300D01*
Y2904657D01*
D02*
G37*
G36*
X4222700Y2894657D02*
Y2832700D01*
X4284657D01*
X4280262Y2849103D01*
X4270335Y2866297D01*
X4256297Y2880335D01*
X4239103Y2890262D01*
X4222700Y2894657D01*
D02*
G37*
G36*
X4197300D02*
X4180897Y2890262D01*
X4163703Y2880335D01*
X4149665Y2866297D01*
X4139738Y2849103D01*
X4135343Y2832700D01*
X4197300D01*
Y2894657D01*
D02*
G37*
G36*
X3922700D02*
Y2832700D01*
X3984657D01*
X3980262Y2849103D01*
X3970335Y2866297D01*
X3956297Y2880335D01*
X3939103Y2890262D01*
X3922700Y2894657D01*
D02*
G37*
G36*
X3897300D02*
X3880897Y2890262D01*
X3863703Y2880335D01*
X3849665Y2866297D01*
X3839738Y2849103D01*
X3835343Y2832700D01*
X3897300D01*
Y2894657D01*
D02*
G37*
G36*
X3672700D02*
Y2832700D01*
X3734657D01*
X3730262Y2849103D01*
X3720335Y2866297D01*
X3706297Y2880335D01*
X3689103Y2890262D01*
X3672700Y2894657D01*
D02*
G37*
G36*
X3647300D02*
X3630897Y2890262D01*
X3613703Y2880335D01*
X3599665Y2866297D01*
X3589738Y2849103D01*
X3585343Y2832700D01*
X3647300D01*
Y2894657D01*
D02*
G37*
G36*
X4552700Y2884657D02*
Y2822700D01*
X4614657D01*
X4610262Y2839103D01*
X4600335Y2856297D01*
X4586297Y2870335D01*
X4569103Y2880262D01*
X4552700Y2884657D01*
D02*
G37*
G36*
X4527300D02*
X4510897Y2880262D01*
X4493703Y2870335D01*
X4479665Y2856297D01*
X4469738Y2839103D01*
X4465343Y2822700D01*
X4527300D01*
Y2884657D01*
D02*
G37*
G36*
X5434657Y2857300D02*
X5372700D01*
Y2795343D01*
X5389103Y2799738D01*
X5406297Y2809665D01*
X5420335Y2823704D01*
X5430262Y2840897D01*
X5434657Y2857300D01*
D02*
G37*
G36*
X5347300D02*
X5285343D01*
X5289738Y2840897D01*
X5299665Y2823704D01*
X5313703Y2809665D01*
X5330897Y2799738D01*
X5347300Y2795343D01*
Y2857300D01*
D02*
G37*
G36*
X5234657D02*
X5172700D01*
Y2795343D01*
X5189103Y2799738D01*
X5206297Y2809665D01*
X5220335Y2823704D01*
X5230262Y2840897D01*
X5234657Y2857300D01*
D02*
G37*
G36*
X5147300D02*
X5085343D01*
X5089738Y2840897D01*
X5099665Y2823704D01*
X5113704Y2809665D01*
X5130897Y2799738D01*
X5147300Y2795343D01*
Y2857300D01*
D02*
G37*
G36*
X10674657Y2857300D02*
X10612700D01*
Y2795343D01*
X10629103Y2799738D01*
X10646296Y2809665D01*
X10660335Y2823703D01*
X10670262Y2840897D01*
X10674657Y2857300D01*
D02*
G37*
G36*
X10587300D02*
X10525343D01*
X10529738Y2840897D01*
X10539665Y2823703D01*
X10553703Y2809665D01*
X10570897Y2799738D01*
X10587300Y2795343D01*
Y2857300D01*
D02*
G37*
G36*
X10474657Y2847300D02*
X10412700D01*
Y2785343D01*
X10429103Y2789738D01*
X10446297Y2799665D01*
X10460335Y2813703D01*
X10470262Y2830897D01*
X10474657Y2847300D01*
D02*
G37*
G36*
X10387300D02*
X10325343D01*
X10329738Y2830897D01*
X10339665Y2813703D01*
X10353703Y2799665D01*
X10370897Y2789738D01*
X10387300Y2785343D01*
Y2847300D01*
D02*
G37*
G36*
X9824657Y2837300D02*
X9762700D01*
Y2775343D01*
X9779103Y2779738D01*
X9796297Y2789665D01*
X9810335Y2803703D01*
X9820262Y2820897D01*
X9824657Y2837300D01*
D02*
G37*
G36*
X9737300D02*
X9675343D01*
X9679738Y2820897D01*
X9689665Y2803703D01*
X9703703Y2789665D01*
X9720897Y2779738D01*
X9737300Y2775343D01*
Y2837300D01*
D02*
G37*
G36*
X8994657D02*
X8932700D01*
Y2775343D01*
X8949103Y2779738D01*
X8966297Y2789665D01*
X8980335Y2803703D01*
X8990262Y2820897D01*
X8994657Y2837300D01*
D02*
G37*
G36*
X8907300D02*
X8845343D01*
X8849738Y2820897D01*
X8859665Y2803703D01*
X8873703Y2789665D01*
X8890897Y2779738D01*
X8907300Y2775343D01*
Y2837300D01*
D02*
G37*
G36*
X8044657D02*
X7982700D01*
Y2775343D01*
X7999103Y2779738D01*
X8016297Y2789665D01*
X8030335Y2803703D01*
X8040262Y2820897D01*
X8044657Y2837300D01*
D02*
G37*
G36*
X7957300D02*
X7895343D01*
X7899738Y2820897D01*
X7909665Y2803703D01*
X7923703Y2789665D01*
X7940897Y2779738D01*
X7957300Y2775343D01*
Y2837300D01*
D02*
G37*
G36*
X7814657D02*
X7752700D01*
Y2775343D01*
X7769103Y2779738D01*
X7786297Y2789665D01*
X7800335Y2803703D01*
X7810262Y2820897D01*
X7814657Y2837300D01*
D02*
G37*
G36*
X7727300D02*
X7665343D01*
X7669738Y2820897D01*
X7679665Y2803703D01*
X7693703Y2789665D01*
X7710897Y2779738D01*
X7727300Y2775343D01*
Y2837300D01*
D02*
G37*
G36*
X3454657D02*
X3392700D01*
Y2775343D01*
X3409103Y2779738D01*
X3426297Y2789665D01*
X3440335Y2803703D01*
X3450262Y2820897D01*
X3454657Y2837300D01*
D02*
G37*
G36*
X3367300D02*
X3305343D01*
X3309738Y2820897D01*
X3319665Y2803703D01*
X3333704Y2789665D01*
X3350897Y2779738D01*
X3367300Y2775343D01*
Y2837300D01*
D02*
G37*
G36*
X3194657D02*
X3132700D01*
Y2775343D01*
X3149103Y2779738D01*
X3166297Y2789665D01*
X3180335Y2803703D01*
X3190262Y2820897D01*
X3194657Y2837300D01*
D02*
G37*
G36*
X3107300D02*
X3045343D01*
X3049738Y2820897D01*
X3059665Y2803703D01*
X3073704Y2789665D01*
X3090897Y2779738D01*
X3107300Y2775343D01*
Y2837300D01*
D02*
G37*
G36*
X8784657Y2827300D02*
X8722700D01*
Y2765343D01*
X8739103Y2769738D01*
X8756297Y2779665D01*
X8770335Y2793703D01*
X8780262Y2810897D01*
X8784657Y2827300D01*
D02*
G37*
G36*
X8697300D02*
X8635343D01*
X8639738Y2810897D01*
X8649665Y2793703D01*
X8663704Y2779665D01*
X8680897Y2769738D01*
X8697300Y2765343D01*
Y2827300D01*
D02*
G37*
G36*
X9621957Y2820000D02*
X9560000D01*
Y2758043D01*
X9576403Y2762438D01*
X9593597Y2772365D01*
X9607635Y2786403D01*
X9617562Y2803597D01*
X9621957Y2820000D01*
D02*
G37*
G36*
X9534600D02*
X9472643D01*
X9477038Y2803597D01*
X9486965Y2786403D01*
X9501003Y2772365D01*
X9518197Y2762438D01*
X9534600Y2758043D01*
Y2820000D01*
D02*
G37*
G36*
X4824657Y2817300D02*
X4762700D01*
Y2755343D01*
X4779103Y2759738D01*
X4796296Y2769665D01*
X4810335Y2783703D01*
X4820262Y2800897D01*
X4824657Y2817300D01*
D02*
G37*
G36*
X4737300D02*
X4675343D01*
X4679738Y2800897D01*
X4689665Y2783703D01*
X4703703Y2769665D01*
X4720897Y2759738D01*
X4737300Y2755343D01*
Y2817300D01*
D02*
G37*
G36*
X2914657D02*
X2852700D01*
Y2755343D01*
X2869103Y2759738D01*
X2886296Y2769665D01*
X2900335Y2783703D01*
X2910262Y2800897D01*
X2914657Y2817300D01*
D02*
G37*
G36*
X2827300D02*
X2765343D01*
X2769738Y2800897D01*
X2779665Y2783703D01*
X2793703Y2769665D01*
X2810897Y2759738D01*
X2827300Y2755343D01*
Y2817300D01*
D02*
G37*
G36*
X4284657Y2807300D02*
X4222700D01*
Y2745343D01*
X4239103Y2749738D01*
X4256297Y2759665D01*
X4270335Y2773703D01*
X4280262Y2790897D01*
X4284657Y2807300D01*
D02*
G37*
G36*
X4197300D02*
X4135343D01*
X4139738Y2790897D01*
X4149665Y2773703D01*
X4163703Y2759665D01*
X4180897Y2749738D01*
X4197300Y2745343D01*
Y2807300D01*
D02*
G37*
G36*
X3984657D02*
X3922700D01*
Y2745343D01*
X3939103Y2749738D01*
X3956297Y2759665D01*
X3970335Y2773703D01*
X3980262Y2790897D01*
X3984657Y2807300D01*
D02*
G37*
G36*
X3897300D02*
X3835343D01*
X3839738Y2790897D01*
X3849665Y2773703D01*
X3863703Y2759665D01*
X3880897Y2749738D01*
X3897300Y2745343D01*
Y2807300D01*
D02*
G37*
G36*
X3734657D02*
X3672700D01*
Y2745343D01*
X3689103Y2749738D01*
X3706297Y2759665D01*
X3720335Y2773703D01*
X3730262Y2790897D01*
X3734657Y2807300D01*
D02*
G37*
G36*
X3647300D02*
X3585343D01*
X3589738Y2790897D01*
X3599665Y2773703D01*
X3613703Y2759665D01*
X3630897Y2749738D01*
X3647300Y2745343D01*
Y2807300D01*
D02*
G37*
G36*
X4614657Y2797300D02*
X4552700D01*
Y2735343D01*
X4569103Y2739738D01*
X4586297Y2749665D01*
X4600335Y2763703D01*
X4610262Y2780897D01*
X4614657Y2797300D01*
D02*
G37*
G36*
X4527300D02*
X4465343D01*
X4469738Y2780897D01*
X4479665Y2763703D01*
X4493703Y2749665D01*
X4510897Y2739738D01*
X4527300Y2735343D01*
Y2797300D01*
D02*
G37*
G36*
X4782700Y2724657D02*
Y2662700D01*
X4844657D01*
X4840262Y2679103D01*
X4830335Y2696297D01*
X4816297Y2710335D01*
X4799103Y2720262D01*
X4782700Y2724657D01*
D02*
G37*
G36*
X4757300D02*
X4740897Y2720262D01*
X4723704Y2710335D01*
X4709665Y2696297D01*
X4699738Y2679103D01*
X4695343Y2662700D01*
X4757300D01*
Y2724657D01*
D02*
G37*
G36*
X4572700Y2714657D02*
Y2652700D01*
X4634657D01*
X4630262Y2669103D01*
X4620335Y2686297D01*
X4606297Y2700335D01*
X4589103Y2710262D01*
X4572700Y2714657D01*
D02*
G37*
G36*
X4547300D02*
X4530897Y2710262D01*
X4513703Y2700335D01*
X4499665Y2686297D01*
X4489738Y2669103D01*
X4485343Y2652700D01*
X4547300D01*
Y2714657D01*
D02*
G37*
G36*
X4222700Y2704657D02*
Y2642700D01*
X4284657D01*
X4280262Y2659103D01*
X4270335Y2676297D01*
X4256297Y2690335D01*
X4239103Y2700262D01*
X4222700Y2704657D01*
D02*
G37*
G36*
X4197300D02*
X4180897Y2700262D01*
X4163703Y2690335D01*
X4149665Y2676297D01*
X4139738Y2659103D01*
X4135343Y2642700D01*
X4197300D01*
Y2704657D01*
D02*
G37*
G36*
X4844657Y2637300D02*
X4782700D01*
Y2575343D01*
X4799103Y2579738D01*
X4816297Y2589665D01*
X4830335Y2603703D01*
X4840262Y2620897D01*
X4844657Y2637300D01*
D02*
G37*
G36*
X4757300D02*
X4695343D01*
X4699738Y2620897D01*
X4709665Y2603703D01*
X4723704Y2589665D01*
X4740897Y2579738D01*
X4757300Y2575343D01*
Y2637300D01*
D02*
G37*
G36*
X4634657Y2627300D02*
X4572700D01*
Y2565343D01*
X4589103Y2569738D01*
X4606297Y2579665D01*
X4620335Y2593703D01*
X4630262Y2610897D01*
X4634657Y2627300D01*
D02*
G37*
G36*
X4547300D02*
X4485343D01*
X4489738Y2610897D01*
X4499665Y2593703D01*
X4513703Y2579665D01*
X4530897Y2569738D01*
X4547300Y2565343D01*
Y2627300D01*
D02*
G37*
G36*
X4284657Y2617300D02*
X4222700D01*
Y2555343D01*
X4239103Y2559738D01*
X4256297Y2569665D01*
X4270335Y2583703D01*
X4280262Y2600897D01*
X4284657Y2617300D01*
D02*
G37*
G36*
X4197300D02*
X4135343D01*
X4139738Y2600897D01*
X4149665Y2583703D01*
X4163703Y2569665D01*
X4180897Y2559738D01*
X4197300Y2555343D01*
Y2617300D01*
D02*
G37*
G36*
X11512900Y2603200D02*
X11310700D01*
Y2537500D01*
X11512900D01*
Y2603200D01*
D02*
G37*
G36*
X11285300D02*
X11083100D01*
Y2537500D01*
X11285300D01*
Y2603200D01*
D02*
G37*
G36*
X11512900Y2512100D02*
X11310700D01*
Y2446400D01*
X11512900D01*
Y2512100D01*
D02*
G37*
G36*
X11285300D02*
X11083100D01*
Y2446400D01*
X11285300D01*
Y2512100D01*
D02*
G37*
G36*
X11252700Y2414657D02*
Y2352700D01*
X11314657D01*
X11310262Y2369103D01*
X11300335Y2386296D01*
X11286297Y2400335D01*
X11269103Y2410262D01*
X11252700Y2414657D01*
D02*
G37*
G36*
X11227300D02*
X11210897Y2410262D01*
X11193704Y2400335D01*
X11179665Y2386296D01*
X11169738Y2369103D01*
X11165343Y2352700D01*
X11227300D01*
Y2414657D01*
D02*
G37*
G36*
X9492700Y2404657D02*
Y2342700D01*
X9554657D01*
X9550262Y2359103D01*
X9540335Y2376296D01*
X9526297Y2390335D01*
X9509103Y2400262D01*
X9492700Y2404657D01*
D02*
G37*
G36*
X9467300D02*
X9450897Y2400262D01*
X9433704Y2390335D01*
X9419665Y2376296D01*
X9409738Y2359103D01*
X9405343Y2342700D01*
X9467300D01*
Y2404657D01*
D02*
G37*
G36*
X9172700D02*
Y2342700D01*
X9234657D01*
X9230262Y2359103D01*
X9220335Y2376296D01*
X9206297Y2390335D01*
X9189103Y2400262D01*
X9172700Y2404657D01*
D02*
G37*
G36*
X9147300D02*
X9130897Y2400262D01*
X9113703Y2390335D01*
X9099665Y2376296D01*
X9089738Y2359103D01*
X9085343Y2342700D01*
X9147300D01*
Y2404657D01*
D02*
G37*
G36*
X9832700Y2394657D02*
Y2332700D01*
X9894657D01*
X9890262Y2349103D01*
X9880335Y2366297D01*
X9866296Y2380335D01*
X9849103Y2390262D01*
X9832700Y2394657D01*
D02*
G37*
G36*
X9807300D02*
X9790897Y2390262D01*
X9773703Y2380335D01*
X9759665Y2366297D01*
X9749738Y2349103D01*
X9745343Y2332700D01*
X9807300D01*
Y2394657D01*
D02*
G37*
G36*
X8822700D02*
Y2332700D01*
X8884657D01*
X8880262Y2349103D01*
X8870335Y2366297D01*
X8856296Y2380335D01*
X8839103Y2390262D01*
X8822700Y2394657D01*
D02*
G37*
G36*
X8797300D02*
X8780897Y2390262D01*
X8763703Y2380335D01*
X8749665Y2366297D01*
X8739738Y2349103D01*
X8735343Y2332700D01*
X8797300D01*
Y2394657D01*
D02*
G37*
G36*
X8512700D02*
Y2332700D01*
X8574657D01*
X8570262Y2349103D01*
X8560335Y2366297D01*
X8546297Y2380335D01*
X8529103Y2390262D01*
X8512700Y2394657D01*
D02*
G37*
G36*
X8487300D02*
X8470897Y2390262D01*
X8453703Y2380335D01*
X8439665Y2366297D01*
X8429738Y2349103D01*
X8425343Y2332700D01*
X8487300D01*
Y2394657D01*
D02*
G37*
G36*
X8242700D02*
Y2332700D01*
X8304657D01*
X8300262Y2349103D01*
X8290335Y2366297D01*
X8276297Y2380335D01*
X8259103Y2390262D01*
X8242700Y2394657D01*
D02*
G37*
G36*
X8217300D02*
X8200897Y2390262D01*
X8183703Y2380335D01*
X8169665Y2366297D01*
X8159738Y2349103D01*
X8155343Y2332700D01*
X8217300D01*
Y2394657D01*
D02*
G37*
G36*
X7952700D02*
Y2332700D01*
X8014657D01*
X8010262Y2349103D01*
X8000335Y2366297D01*
X7986297Y2380335D01*
X7969103Y2390262D01*
X7952700Y2394657D01*
D02*
G37*
G36*
X7927300D02*
X7910897Y2390262D01*
X7893704Y2380335D01*
X7879665Y2366297D01*
X7869738Y2349103D01*
X7865343Y2332700D01*
X7927300D01*
Y2394657D01*
D02*
G37*
G36*
X7672700D02*
Y2332700D01*
X7734657D01*
X7730262Y2349103D01*
X7720335Y2366297D01*
X7706297Y2380335D01*
X7689103Y2390262D01*
X7672700Y2394657D01*
D02*
G37*
G36*
X7647300D02*
X7630897Y2390262D01*
X7613703Y2380335D01*
X7599665Y2366297D01*
X7589738Y2349103D01*
X7585343Y2332700D01*
X7647300D01*
Y2394657D01*
D02*
G37*
G36*
X7392700D02*
Y2332700D01*
X7454657D01*
X7450262Y2349103D01*
X7440335Y2366297D01*
X7426297Y2380335D01*
X7409103Y2390262D01*
X7392700Y2394657D01*
D02*
G37*
G36*
X7367300D02*
X7350897Y2390262D01*
X7333703Y2380335D01*
X7319665Y2366297D01*
X7309738Y2349103D01*
X7305343Y2332700D01*
X7367300D01*
Y2394657D01*
D02*
G37*
G36*
X11314657Y2327300D02*
X11252700D01*
Y2265343D01*
X11269103Y2269738D01*
X11286297Y2279665D01*
X11300335Y2293703D01*
X11310262Y2310897D01*
X11314657Y2327300D01*
D02*
G37*
G36*
X11227300D02*
X11165343D01*
X11169738Y2310897D01*
X11179665Y2293703D01*
X11193704Y2279665D01*
X11210897Y2269738D01*
X11227300Y2265343D01*
Y2327300D01*
D02*
G37*
G36*
X9554657Y2317300D02*
X9492700D01*
Y2255343D01*
X9509103Y2259738D01*
X9526297Y2269665D01*
X9540335Y2283703D01*
X9550262Y2300897D01*
X9554657Y2317300D01*
D02*
G37*
G36*
X9467300D02*
X9405343D01*
X9409738Y2300897D01*
X9419665Y2283703D01*
X9433704Y2269665D01*
X9450897Y2259738D01*
X9467300Y2255343D01*
Y2317300D01*
D02*
G37*
G36*
X9234657D02*
X9172700D01*
Y2255343D01*
X9189103Y2259738D01*
X9206297Y2269665D01*
X9220335Y2283703D01*
X9230262Y2300897D01*
X9234657Y2317300D01*
D02*
G37*
G36*
X9147300D02*
X9085343D01*
X9089738Y2300897D01*
X9099665Y2283703D01*
X9113703Y2269665D01*
X9130897Y2259738D01*
X9147300Y2255343D01*
Y2317300D01*
D02*
G37*
G36*
X9894657Y2307300D02*
X9832700D01*
Y2245343D01*
X9849103Y2249738D01*
X9866296Y2259665D01*
X9880335Y2273703D01*
X9890262Y2290897D01*
X9894657Y2307300D01*
D02*
G37*
G36*
X9807300D02*
X9745343D01*
X9749738Y2290897D01*
X9759665Y2273703D01*
X9773703Y2259665D01*
X9790897Y2249738D01*
X9807300Y2245343D01*
Y2307300D01*
D02*
G37*
G36*
X8884657D02*
X8822700D01*
Y2245343D01*
X8839103Y2249738D01*
X8856296Y2259665D01*
X8870335Y2273703D01*
X8880262Y2290897D01*
X8884657Y2307300D01*
D02*
G37*
G36*
X8797300D02*
X8735343D01*
X8739738Y2290897D01*
X8749665Y2273703D01*
X8763703Y2259665D01*
X8780897Y2249738D01*
X8797300Y2245343D01*
Y2307300D01*
D02*
G37*
G36*
X8574657D02*
X8512700D01*
Y2245343D01*
X8529103Y2249738D01*
X8546297Y2259665D01*
X8560335Y2273703D01*
X8570262Y2290897D01*
X8574657Y2307300D01*
D02*
G37*
G36*
X8487300D02*
X8425343D01*
X8429738Y2290897D01*
X8439665Y2273703D01*
X8453703Y2259665D01*
X8470897Y2249738D01*
X8487300Y2245343D01*
Y2307300D01*
D02*
G37*
G36*
X8304657D02*
X8242700D01*
Y2245343D01*
X8259103Y2249738D01*
X8276297Y2259665D01*
X8290335Y2273703D01*
X8300262Y2290897D01*
X8304657Y2307300D01*
D02*
G37*
G36*
X8217300D02*
X8155343D01*
X8159738Y2290897D01*
X8169665Y2273703D01*
X8183703Y2259665D01*
X8200897Y2249738D01*
X8217300Y2245343D01*
Y2307300D01*
D02*
G37*
G36*
X8014657D02*
X7952700D01*
Y2245343D01*
X7969103Y2249738D01*
X7986297Y2259665D01*
X8000335Y2273703D01*
X8010262Y2290897D01*
X8014657Y2307300D01*
D02*
G37*
G36*
X7927300D02*
X7865343D01*
X7869738Y2290897D01*
X7879665Y2273703D01*
X7893704Y2259665D01*
X7910897Y2249738D01*
X7927300Y2245343D01*
Y2307300D01*
D02*
G37*
G36*
X7734657D02*
X7672700D01*
Y2245343D01*
X7689103Y2249738D01*
X7706297Y2259665D01*
X7720335Y2273703D01*
X7730262Y2290897D01*
X7734657Y2307300D01*
D02*
G37*
G36*
X7647300D02*
X7585343D01*
X7589738Y2290897D01*
X7599665Y2273703D01*
X7613703Y2259665D01*
X7630897Y2249738D01*
X7647300Y2245343D01*
Y2307300D01*
D02*
G37*
G36*
X7454657D02*
X7392700D01*
Y2245343D01*
X7409103Y2249738D01*
X7426297Y2259665D01*
X7440335Y2273703D01*
X7450262Y2290897D01*
X7454657Y2307300D01*
D02*
G37*
G36*
X7367300D02*
X7305343D01*
X7309738Y2290897D01*
X7319665Y2273703D01*
X7333703Y2259665D01*
X7350897Y2249738D01*
X7367300Y2245343D01*
Y2307300D01*
D02*
G37*
G36*
X4991618Y2866800D02*
X4965182D01*
X4939647Y2859958D01*
X4916753Y2846740D01*
X4898060Y2828047D01*
X4884842Y2805153D01*
X4878000Y2779618D01*
Y2753182D01*
X4884842Y2727647D01*
X4898060Y2704753D01*
X4916753Y2686060D01*
X4939647Y2672842D01*
X4941021Y2672474D01*
Y2659326D01*
X4939647Y2658958D01*
X4916753Y2645740D01*
X4898060Y2627047D01*
X4884842Y2604153D01*
X4878000Y2578618D01*
Y2552182D01*
X4884842Y2526647D01*
X4898060Y2503753D01*
X4913020Y2488793D01*
X4907759Y2476093D01*
X3938600D01*
X3924788Y2473346D01*
X3913078Y2465522D01*
X3678907Y2231351D01*
X3667527Y2234400D01*
X3647673D01*
X3636293Y2231351D01*
X3466122Y2401522D01*
X3454412Y2409346D01*
X3440600Y2412093D01*
X1324626D01*
X1318735Y2422297D01*
X1304697Y2436335D01*
X1287503Y2446262D01*
X1268327Y2451400D01*
X1248473D01*
X1229297Y2446262D01*
X1212103Y2436335D01*
X1198065Y2422297D01*
X1188138Y2405103D01*
X1183000Y2385927D01*
Y2366073D01*
X1188138Y2346897D01*
X1198065Y2329703D01*
X1212103Y2315665D01*
X1229297Y2305738D01*
X1248473Y2300600D01*
X1268327D01*
X1287503Y2305738D01*
X1304697Y2315665D01*
X1318735Y2329703D01*
X1324626Y2339907D01*
X3425649D01*
X3585249Y2180307D01*
X3582200Y2168927D01*
Y2149073D01*
X3587338Y2129897D01*
X3597265Y2112703D01*
X3611303Y2098665D01*
X3628497Y2088738D01*
X3647673Y2083600D01*
X3667527D01*
X3686703Y2088738D01*
X3703897Y2098665D01*
X3717935Y2112703D01*
X3727862Y2129897D01*
X3733000Y2149073D01*
Y2168927D01*
X3729951Y2180307D01*
X3953550Y2403907D01*
X5868312D01*
X5996572Y2275647D01*
X5995200Y2270527D01*
Y2250673D01*
X6000338Y2231497D01*
X6010265Y2214303D01*
X6024303Y2200265D01*
X6041497Y2190338D01*
X6060673Y2185200D01*
X6080527D01*
X6099703Y2190338D01*
X6116897Y2200265D01*
X6130935Y2214303D01*
X6140862Y2231497D01*
X6146000Y2250673D01*
Y2270527D01*
X6140862Y2289703D01*
X6130935Y2306897D01*
X6116897Y2320935D01*
X6099703Y2330862D01*
X6080527Y2336000D01*
X6060673D01*
X6043033Y2331273D01*
X5908785Y2465522D01*
X5897075Y2473346D01*
X5883263Y2476093D01*
X5049041D01*
X5043780Y2488793D01*
X5058740Y2503753D01*
X5071958Y2526647D01*
X5078800Y2552182D01*
Y2578618D01*
X5071958Y2604153D01*
X5058740Y2627047D01*
X5040047Y2645740D01*
X5017153Y2658958D01*
X5015779Y2659326D01*
Y2672474D01*
X5017153Y2672842D01*
X5040047Y2686060D01*
X5058740Y2704753D01*
X5071958Y2727647D01*
X5078800Y2753182D01*
Y2779618D01*
X5071958Y2805153D01*
X5058740Y2828047D01*
X5040047Y2846740D01*
X5017153Y2859958D01*
X4991618Y2866800D01*
D02*
G37*
G36*
X1112700Y2204657D02*
Y2142700D01*
X1174657D01*
X1170262Y2159103D01*
X1160335Y2176297D01*
X1146297Y2190335D01*
X1129103Y2200262D01*
X1112700Y2204657D01*
D02*
G37*
G36*
X1087300D02*
X1070897Y2200262D01*
X1053704Y2190335D01*
X1039665Y2176297D01*
X1029738Y2159103D01*
X1025343Y2142700D01*
X1087300D01*
Y2204657D01*
D02*
G37*
G36*
X1312700Y2194657D02*
Y2132700D01*
X1374657D01*
X1370262Y2149103D01*
X1360335Y2166297D01*
X1346297Y2180335D01*
X1329103Y2190262D01*
X1312700Y2194657D01*
D02*
G37*
G36*
X1287300D02*
X1270897Y2190262D01*
X1253703Y2180335D01*
X1239665Y2166297D01*
X1229738Y2149103D01*
X1225343Y2132700D01*
X1287300D01*
Y2194657D01*
D02*
G37*
G36*
X912700D02*
Y2132700D01*
X974657D01*
X970262Y2149103D01*
X960335Y2166297D01*
X946297Y2180335D01*
X929103Y2190262D01*
X912700Y2194657D01*
D02*
G37*
G36*
X887300D02*
X870897Y2190262D01*
X853703Y2180335D01*
X839665Y2166297D01*
X829738Y2149103D01*
X825343Y2132700D01*
X887300D01*
Y2194657D01*
D02*
G37*
G36*
X4893000Y2133282D02*
X4864100D01*
Y2072900D01*
X4928482D01*
Y2097800D01*
X4925781Y2111378D01*
X4918089Y2122889D01*
X4906578Y2130581D01*
X4893000Y2133282D01*
D02*
G37*
G36*
X1174657Y2117300D02*
X1112700D01*
Y2055343D01*
X1129103Y2059738D01*
X1146297Y2069665D01*
X1160335Y2083703D01*
X1170262Y2100897D01*
X1174657Y2117300D01*
D02*
G37*
G36*
X1087300D02*
X1025343D01*
X1029738Y2100897D01*
X1039665Y2083703D01*
X1053704Y2069665D01*
X1070897Y2059738D01*
X1087300Y2055343D01*
Y2117300D01*
D02*
G37*
G36*
X1374657Y2107300D02*
X1312700D01*
Y2045343D01*
X1329103Y2049738D01*
X1346297Y2059665D01*
X1360335Y2073703D01*
X1370262Y2090897D01*
X1374657Y2107300D01*
D02*
G37*
G36*
X1287300D02*
X1225343D01*
X1229738Y2090897D01*
X1239665Y2073703D01*
X1253703Y2059665D01*
X1270897Y2049738D01*
X1287300Y2045343D01*
Y2107300D01*
D02*
G37*
G36*
X974657D02*
X912700D01*
Y2045343D01*
X929103Y2049738D01*
X946297Y2059665D01*
X960335Y2073703D01*
X970262Y2090897D01*
X974657Y2107300D01*
D02*
G37*
G36*
X887300D02*
X825343D01*
X829738Y2090897D01*
X839665Y2073703D01*
X853703Y2059665D01*
X870897Y2049738D01*
X887300Y2045343D01*
Y2107300D01*
D02*
G37*
G36*
X1112700Y1974657D02*
Y1912700D01*
X1174657D01*
X1170262Y1929103D01*
X1160335Y1946297D01*
X1146297Y1960335D01*
X1129103Y1970262D01*
X1112700Y1974657D01*
D02*
G37*
G36*
X1087300D02*
X1070897Y1970262D01*
X1053704Y1960335D01*
X1039665Y1946297D01*
X1029738Y1929103D01*
X1025343Y1912700D01*
X1087300D01*
Y1974657D01*
D02*
G37*
G36*
X932700Y1964657D02*
Y1902700D01*
X994657D01*
X990262Y1919103D01*
X980335Y1936297D01*
X966297Y1950335D01*
X949103Y1960262D01*
X932700Y1964657D01*
D02*
G37*
G36*
X907300D02*
X890897Y1960262D01*
X873703Y1950335D01*
X859665Y1936297D01*
X849738Y1919103D01*
X845343Y1902700D01*
X907300D01*
Y1964657D01*
D02*
G37*
G36*
X1312700Y1944657D02*
Y1882700D01*
X1374657D01*
X1370262Y1899103D01*
X1360335Y1916297D01*
X1346297Y1930335D01*
X1329103Y1940262D01*
X1312700Y1944657D01*
D02*
G37*
G36*
X1287300D02*
X1270897Y1940262D01*
X1253703Y1930335D01*
X1239665Y1916297D01*
X1229738Y1899103D01*
X1225343Y1882700D01*
X1287300D01*
Y1944657D01*
D02*
G37*
G36*
X11362700Y1914657D02*
Y1852700D01*
X11424657D01*
X11420262Y1869103D01*
X11410335Y1886296D01*
X11396296Y1900335D01*
X11379103Y1910262D01*
X11362700Y1914657D01*
D02*
G37*
G36*
X11337300D02*
X11320897Y1910262D01*
X11303703Y1900335D01*
X11289665Y1886296D01*
X11279738Y1869103D01*
X11275343Y1852700D01*
X11337300D01*
Y1914657D01*
D02*
G37*
G36*
X1174657Y1887300D02*
X1112700D01*
Y1825343D01*
X1129103Y1829738D01*
X1146297Y1839665D01*
X1160335Y1853703D01*
X1170262Y1870897D01*
X1174657Y1887300D01*
D02*
G37*
G36*
X1087300D02*
X1025343D01*
X1029738Y1870897D01*
X1039665Y1853703D01*
X1053704Y1839665D01*
X1070897Y1829738D01*
X1087300Y1825343D01*
Y1887300D01*
D02*
G37*
G36*
X994657Y1877300D02*
X932700D01*
Y1815343D01*
X949103Y1819738D01*
X966297Y1829665D01*
X980335Y1843703D01*
X990262Y1860897D01*
X994657Y1877300D01*
D02*
G37*
G36*
X907300D02*
X845343D01*
X849738Y1860897D01*
X859665Y1843703D01*
X873703Y1829665D01*
X890897Y1819738D01*
X907300Y1815343D01*
Y1877300D01*
D02*
G37*
G36*
X9662700Y1874657D02*
Y1812700D01*
X9724657D01*
X9720262Y1829103D01*
X9710335Y1846297D01*
X9696297Y1860335D01*
X9679103Y1870262D01*
X9662700Y1874657D01*
D02*
G37*
G36*
X9637300D02*
X9620897Y1870262D01*
X9603703Y1860335D01*
X9589665Y1846297D01*
X9579738Y1829103D01*
X9575343Y1812700D01*
X9637300D01*
Y1874657D01*
D02*
G37*
G36*
X8772700D02*
Y1812700D01*
X8834657D01*
X8830262Y1829103D01*
X8820335Y1846297D01*
X8806297Y1860335D01*
X8789103Y1870262D01*
X8772700Y1874657D01*
D02*
G37*
G36*
X8747300D02*
X8730897Y1870262D01*
X8713703Y1860335D01*
X8699665Y1846297D01*
X8689738Y1829103D01*
X8685343Y1812700D01*
X8747300D01*
Y1874657D01*
D02*
G37*
G36*
X7852700D02*
Y1812700D01*
X7914657D01*
X7910262Y1829103D01*
X7900335Y1846297D01*
X7886297Y1860335D01*
X7869103Y1870262D01*
X7852700Y1874657D01*
D02*
G37*
G36*
X7827300D02*
X7810897Y1870262D01*
X7793703Y1860335D01*
X7779665Y1846297D01*
X7769738Y1829103D01*
X7765343Y1812700D01*
X7827300D01*
Y1874657D01*
D02*
G37*
G36*
X1374657Y1857300D02*
X1312700D01*
Y1795343D01*
X1329103Y1799738D01*
X1346297Y1809665D01*
X1360335Y1823703D01*
X1370262Y1840897D01*
X1374657Y1857300D01*
D02*
G37*
G36*
X1287300D02*
X1225343D01*
X1229738Y1840897D01*
X1239665Y1823703D01*
X1253703Y1809665D01*
X1270897Y1799738D01*
X1287300Y1795343D01*
Y1857300D01*
D02*
G37*
G36*
X11424657Y1827300D02*
X11362700D01*
Y1765343D01*
X11379103Y1769738D01*
X11396296Y1779665D01*
X11410335Y1793703D01*
X11420262Y1810897D01*
X11424657Y1827300D01*
D02*
G37*
G36*
X11337300D02*
X11275343D01*
X11279738Y1810897D01*
X11289665Y1793703D01*
X11303703Y1779665D01*
X11320897Y1769738D01*
X11337300Y1765343D01*
Y1827300D01*
D02*
G37*
G36*
X9724657Y1787300D02*
X9662700D01*
Y1725343D01*
X9679103Y1729738D01*
X9696297Y1739665D01*
X9710335Y1753703D01*
X9720262Y1770897D01*
X9724657Y1787300D01*
D02*
G37*
G36*
X6436127Y2894800D02*
X6416273D01*
X6397097Y2889662D01*
X6379903Y2879735D01*
X6365865Y2865697D01*
X6355938Y2848503D01*
X6350800Y2829327D01*
Y2809473D01*
X6355938Y2790297D01*
X6365865Y2773103D01*
X6379903Y2759065D01*
X6397097Y2749138D01*
X6416273Y2744000D01*
X6419194D01*
X7144397Y2018797D01*
X7163301Y2006166D01*
X7185600Y2001730D01*
X10251753D01*
X10274052Y2006166D01*
X10292956Y2018797D01*
X10357660Y2083501D01*
X10367823Y2075703D01*
X10358859Y2060178D01*
X10350000Y2027115D01*
Y1992885D01*
X10358859Y1959822D01*
X10372879Y1935539D01*
X10362763Y1927237D01*
X10342144Y1902113D01*
X10326823Y1873448D01*
X10317388Y1842346D01*
X10314202Y1810000D01*
Y1768676D01*
X10208615Y1663089D01*
X10162775D01*
X10138895Y1659945D01*
X10118752Y1651602D01*
X9682957D01*
X9616012Y1718547D01*
X9617344Y1721599D01*
X9623470Y1729049D01*
X9637300Y1725343D01*
Y1787300D01*
X9575343D01*
X9579738Y1770897D01*
X9589307Y1754324D01*
X9589157Y1753864D01*
X9577456Y1745486D01*
X9567925Y1749434D01*
X9544431Y1752527D01*
X8834321D01*
X8826988Y1765227D01*
X8830262Y1770897D01*
X8834657Y1787300D01*
X8685343D01*
X8689738Y1770897D01*
X8693012Y1765227D01*
X8685679Y1752527D01*
X8623631D01*
X8622900Y1752431D01*
X8622167Y1752515D01*
X7904215Y1740935D01*
X7899261Y1752629D01*
X7900335Y1753703D01*
X7910262Y1770897D01*
X7914657Y1787300D01*
X7765343D01*
X7769738Y1770897D01*
X7779665Y1753703D01*
X7781708Y1751661D01*
X7776532Y1738875D01*
X7218529Y1729875D01*
X7054215Y1894189D01*
X7035415Y1908615D01*
X7013521Y1917683D01*
X6990026Y1920777D01*
X5659084D01*
X5655232Y1933477D01*
X5674211Y1946158D01*
X5698642Y1970589D01*
X5717837Y1999317D01*
X5731059Y2031238D01*
X5737800Y2065125D01*
Y2099675D01*
X5731059Y2133562D01*
X5717837Y2165483D01*
X5698642Y2194211D01*
X5674211Y2218642D01*
X5645483Y2237837D01*
X5613562Y2251059D01*
X5579675Y2257800D01*
X5545125D01*
X5511238Y2251059D01*
X5479317Y2237837D01*
X5450589Y2218642D01*
X5426158Y2194211D01*
X5406963Y2165483D01*
X5393741Y2133562D01*
X5387000Y2099675D01*
Y2065125D01*
X5393741Y2031238D01*
X5406963Y1999317D01*
X5426158Y1970589D01*
X5450589Y1946158D01*
X5469568Y1933477D01*
X5465715Y1920777D01*
X5320901D01*
X5317886Y1923091D01*
X5296138Y1932099D01*
X5272800Y1935171D01*
X5197600D01*
X5174262Y1932099D01*
X5152514Y1923091D01*
X5133839Y1908761D01*
X5119509Y1890086D01*
X5115476Y1880347D01*
X5114800Y1880482D01*
X5039600D01*
X5026022Y1877781D01*
X5014511Y1870089D01*
X5006819Y1858578D01*
X5004118Y1845000D01*
Y1839493D01*
X4971150D01*
X4928482Y1882162D01*
Y1939800D01*
X4925781Y1953378D01*
X4918089Y1964889D01*
X4906578Y1972581D01*
X4898941Y1974100D01*
X4897026Y1986934D01*
X4898124Y1988138D01*
X4906578Y1989819D01*
X4918089Y1997511D01*
X4925781Y2009022D01*
X4928482Y2022600D01*
Y2047500D01*
X4851400D01*
Y2060200D01*
X4838700D01*
Y2133282D01*
X4809800D01*
X4796222Y2130581D01*
X4784711Y2122889D01*
X4777019Y2111378D01*
X4774318Y2097800D01*
Y2077070D01*
X4762585Y2072210D01*
X4681274Y2153520D01*
Y2172030D01*
X4678527Y2185842D01*
X4670703Y2197552D01*
X4520333Y2347922D01*
X4508623Y2355746D01*
X4494811Y2358493D01*
X4295989D01*
X4282177Y2355746D01*
X4270467Y2347922D01*
X3962278Y2039733D01*
X3954454Y2028023D01*
X3951707Y2014211D01*
Y1992276D01*
X3941503Y1986385D01*
X3927465Y1972346D01*
X3917538Y1955153D01*
X3912400Y1935976D01*
Y1916123D01*
X3917538Y1896946D01*
X3927465Y1879753D01*
X3941503Y1865715D01*
X3958697Y1855788D01*
X3977873Y1850650D01*
X3997727D01*
X4016903Y1855788D01*
X4034097Y1865715D01*
X4048135Y1879753D01*
X4058062Y1896946D01*
X4063200Y1916123D01*
Y1935976D01*
X4058062Y1955153D01*
X4048135Y1972346D01*
X4034097Y1986385D01*
X4029657Y1988948D01*
X4028179Y2003546D01*
X4158104Y2133471D01*
X4169808Y2127215D01*
X4165400Y2105053D01*
Y2059747D01*
X4174239Y2015311D01*
X4191577Y1973454D01*
X4216747Y1935784D01*
X4248783Y1903747D01*
X4286454Y1878577D01*
X4291986Y1876285D01*
Y1451900D01*
X4266000D01*
Y630900D01*
X4562000D01*
Y1451900D01*
X4517414D01*
Y1887309D01*
X4542016Y1903747D01*
X4574053Y1935784D01*
X4599223Y1973454D01*
X4616561Y2015311D01*
X4625400Y2059747D01*
Y2089347D01*
X4638100Y2094607D01*
X4770029Y1962678D01*
X4775957Y1958717D01*
X4777019Y1953378D01*
X4774318Y1939800D01*
Y1864600D01*
X4777019Y1851022D01*
X4784711Y1839511D01*
X4796222Y1831819D01*
X4809800Y1829118D01*
X4879438D01*
X4930678Y1777878D01*
X4942388Y1770054D01*
X4956200Y1767307D01*
X5004118D01*
Y1761800D01*
X5006819Y1748222D01*
X5014511Y1736711D01*
X5026022Y1729019D01*
X5039600Y1726318D01*
X5114800D01*
X5115476Y1726453D01*
X5119509Y1716714D01*
X5133839Y1698039D01*
X5152514Y1683709D01*
X5174262Y1674701D01*
X5197600Y1671629D01*
X5272800D01*
X5296138Y1674701D01*
X5317886Y1683709D01*
X5336561Y1698039D01*
X5350891Y1716714D01*
X5359899Y1738462D01*
X5359999Y1739223D01*
X6952425D01*
X7117084Y1574564D01*
X7135886Y1560137D01*
X7148711Y1554825D01*
X7157779Y1551069D01*
X7181275Y1547976D01*
X7197844Y1547976D01*
X7198574Y1548072D01*
X7199307Y1547988D01*
X8527421Y1569409D01*
X8532375Y1557716D01*
X8430862Y1456203D01*
X8403742D01*
X8394705Y1459946D01*
X8370825Y1463090D01*
X8240775D01*
X8216895Y1459946D01*
X8194643Y1450728D01*
X8175534Y1436066D01*
X8160872Y1416957D01*
X8151654Y1394705D01*
X8150313Y1384514D01*
X8002200D01*
Y1477300D01*
X7706200D01*
Y737264D01*
X7483000D01*
Y1477300D01*
X7187000D01*
Y1359114D01*
X7089687D01*
X7088346Y1369305D01*
X7079128Y1391557D01*
X7064466Y1410666D01*
X7045357Y1425328D01*
X7023105Y1434546D01*
X6999225Y1437690D01*
X6936313D01*
X6810651Y1563351D01*
X6787307Y1581264D01*
X6760123Y1592524D01*
X6730950Y1596365D01*
X6730948Y1596364D01*
X5823714D01*
X5823712Y1596365D01*
X5794539Y1592524D01*
X5767354Y1581264D01*
X5744011Y1563351D01*
X5744010Y1563350D01*
X5635830Y1455171D01*
X5617918Y1431826D01*
X5606988Y1405440D01*
X5592766Y1391219D01*
X5578191Y1394604D01*
X5565866Y1410666D01*
X5546757Y1425328D01*
X5524505Y1434546D01*
X5500625Y1437690D01*
X5370575D01*
X5346695Y1434546D01*
X5324443Y1425328D01*
X5305334Y1410666D01*
X5290672Y1391557D01*
X5281454Y1369305D01*
X5280113Y1359114D01*
X5081200D01*
Y1451900D01*
X4785200D01*
Y630900D01*
X5081200D01*
Y1133686D01*
X5280113D01*
X5281454Y1123495D01*
X5290672Y1101243D01*
X5305334Y1082134D01*
X5324443Y1067472D01*
X5346695Y1058254D01*
X5370575Y1055111D01*
X5500625D01*
X5524505Y1058254D01*
X5546757Y1067472D01*
X5565866Y1082134D01*
X5580528Y1101243D01*
X5589746Y1123495D01*
X5591087Y1133686D01*
X5607348D01*
X5607350Y1133686D01*
X5636523Y1137526D01*
X5663707Y1148787D01*
X5687051Y1166699D01*
X5795231Y1274879D01*
X5795232Y1274880D01*
X5813145Y1298224D01*
X5824074Y1324610D01*
X5832867Y1333403D01*
X5844600Y1328543D01*
Y1054100D01*
X6031400D01*
Y1370936D01*
X6309200D01*
Y630900D01*
X6605200D01*
Y723686D01*
X6778713D01*
X6780054Y713495D01*
X6789272Y691243D01*
X6803934Y672134D01*
X6823043Y657472D01*
X6845295Y648254D01*
X6869175Y645110D01*
X6932087D01*
X7032348Y544850D01*
X7032349Y544849D01*
X7055693Y526936D01*
X7082877Y515676D01*
X7112050Y511835D01*
X7112052Y511836D01*
X8102548D01*
X8102550Y511835D01*
X8131723Y515676D01*
X8158907Y526936D01*
X8182251Y544849D01*
X8307913Y670510D01*
X8370825D01*
X8394705Y673654D01*
X8416957Y682872D01*
X8436066Y697534D01*
X8450728Y716643D01*
X8459946Y738895D01*
X8461287Y749086D01*
X8609400D01*
Y656300D01*
X8905400D01*
Y1427286D01*
X9128600D01*
Y656300D01*
X9424600D01*
Y749086D01*
X9572713D01*
X9574054Y738895D01*
X9583272Y716643D01*
X9597934Y697534D01*
X9617043Y682872D01*
X9639295Y673654D01*
X9663175Y670510D01*
X9793225D01*
X9817105Y673654D01*
X9839357Y682872D01*
X9858466Y697534D01*
X9873128Y716643D01*
X9882346Y738895D01*
X9883687Y749086D01*
X10069998D01*
X10070000Y749085D01*
X10099173Y752926D01*
X10126357Y764186D01*
X10149701Y782099D01*
X10238112Y870510D01*
X10292825D01*
X10316705Y873654D01*
X10338957Y882871D01*
X10358066Y897534D01*
X10372729Y916642D01*
X10381946Y938895D01*
X10385090Y962775D01*
Y1160824D01*
X10382729Y1178756D01*
X10394758Y1184687D01*
X10432752Y1146693D01*
Y780000D01*
X10435938Y747654D01*
X10440097Y733944D01*
X10415974Y709822D01*
X10398859Y680178D01*
X10390000Y647115D01*
Y612885D01*
X10398859Y579822D01*
X10415974Y550178D01*
X10440178Y525974D01*
X10469822Y508859D01*
X10502885Y500000D01*
X10537115D01*
X10570178Y508859D01*
X10599822Y525974D01*
X10624026Y550178D01*
X10641141Y579822D01*
X10650000Y612885D01*
Y623183D01*
X10661998Y626822D01*
X10690663Y642144D01*
X10715787Y662763D01*
X10736407Y687887D01*
X10751728Y716552D01*
X10761163Y747654D01*
X10764349Y780000D01*
Y1215369D01*
X10761163Y1247715D01*
X10751728Y1278817D01*
X10736407Y1307482D01*
X10715788Y1332606D01*
X10531434Y1516960D01*
X10597237Y1582763D01*
X10617856Y1607887D01*
X10633178Y1636552D01*
X10642613Y1667654D01*
X10645798Y1700000D01*
Y1810000D01*
X10642613Y1842346D01*
X10633178Y1873448D01*
X10617856Y1902113D01*
X10597237Y1927237D01*
X10587121Y1935539D01*
X10601141Y1959822D01*
X10610000Y1992885D01*
Y2027115D01*
X10601141Y2060178D01*
X10584026Y2089822D01*
X10559822Y2114026D01*
X10530178Y2131141D01*
X10512862Y2135781D01*
X10514534Y2148481D01*
X10947414D01*
X11083100Y2012795D01*
Y1938400D01*
X11512900D01*
Y2095200D01*
X11165506D01*
X11012753Y2247953D01*
X10993849Y2260584D01*
X10971550Y2265020D01*
X10398504D01*
X10376205Y2260585D01*
X10357301Y2247953D01*
X10227617Y2118270D01*
X7209736D01*
X6501600Y2826406D01*
Y2829327D01*
X6496462Y2848503D01*
X6486535Y2865697D01*
X6472497Y2879735D01*
X6455303Y2889662D01*
X6436127Y2894800D01*
D02*
G37*
G36*
X1112700Y1774657D02*
Y1712700D01*
X1174657D01*
X1170262Y1729103D01*
X1160335Y1746296D01*
X1146297Y1760335D01*
X1129103Y1770262D01*
X1112700Y1774657D01*
D02*
G37*
G36*
X1087300D02*
X1070897Y1770262D01*
X1053704Y1760335D01*
X1039665Y1746296D01*
X1029738Y1729103D01*
X1025343Y1712700D01*
X1087300D01*
Y1774657D01*
D02*
G37*
G36*
X1332700Y1764657D02*
Y1702700D01*
X1394657D01*
X1390262Y1719103D01*
X1380335Y1736297D01*
X1366296Y1750335D01*
X1349103Y1760262D01*
X1332700Y1764657D01*
D02*
G37*
G36*
X1307300D02*
X1290897Y1760262D01*
X1273703Y1750335D01*
X1259665Y1736297D01*
X1249738Y1719103D01*
X1245343Y1702700D01*
X1307300D01*
Y1764657D01*
D02*
G37*
G36*
X1174657Y1687300D02*
X1112700D01*
Y1625343D01*
X1129103Y1629738D01*
X1146297Y1639665D01*
X1160335Y1653703D01*
X1170262Y1670897D01*
X1174657Y1687300D01*
D02*
G37*
G36*
X1087300D02*
X1025343D01*
X1029738Y1670897D01*
X1039665Y1653703D01*
X1053704Y1639665D01*
X1070897Y1629738D01*
X1087300Y1625343D01*
Y1687300D01*
D02*
G37*
G36*
X1394657Y1677300D02*
X1332700D01*
Y1615343D01*
X1349103Y1619738D01*
X1366296Y1629665D01*
X1380335Y1643703D01*
X1390262Y1660897D01*
X1394657Y1677300D01*
D02*
G37*
G36*
X1307300D02*
X1245343D01*
X1249738Y1660897D01*
X1259665Y1643703D01*
X1273703Y1629665D01*
X1290897Y1619738D01*
X1307300Y1615343D01*
Y1677300D01*
D02*
G37*
G36*
X11362700Y1644657D02*
Y1582700D01*
X11424657D01*
X11420262Y1599103D01*
X11410335Y1616296D01*
X11396296Y1630335D01*
X11379103Y1640262D01*
X11362700Y1644657D01*
D02*
G37*
G36*
X11337300D02*
X11320897Y1640262D01*
X11303703Y1630335D01*
X11289665Y1616296D01*
X11279738Y1599103D01*
X11275343Y1582700D01*
X11337300D01*
Y1644657D01*
D02*
G37*
G36*
X11424657Y1557300D02*
X11362700D01*
Y1495343D01*
X11379103Y1499738D01*
X11396296Y1509665D01*
X11410335Y1523703D01*
X11420262Y1540897D01*
X11424657Y1557300D01*
D02*
G37*
G36*
X11337300D02*
X11275343D01*
X11279738Y1540897D01*
X11289665Y1523703D01*
X11303703Y1509665D01*
X11320897Y1499738D01*
X11337300Y1495343D01*
Y1557300D01*
D02*
G37*
G36*
X749900Y1450372D02*
X710100D01*
Y1384500D01*
X826800D01*
X825795Y1392136D01*
X817945Y1411086D01*
X805459Y1427359D01*
X789186Y1439845D01*
X770236Y1447695D01*
X749900Y1450372D01*
D02*
G37*
G36*
X684700D02*
X644900D01*
X624564Y1447695D01*
X605614Y1439845D01*
X589341Y1427359D01*
X576855Y1411086D01*
X569005Y1392136D01*
X568000Y1384500D01*
X684700D01*
Y1450372D01*
D02*
G37*
G36*
X329400Y1447851D02*
X292100D01*
Y1384500D01*
X403779D01*
X402859Y1391483D01*
X395262Y1409825D01*
X383176Y1425576D01*
X367425Y1437662D01*
X349084Y1445259D01*
X329400Y1447851D01*
D02*
G37*
G36*
X266700D02*
X229400D01*
X209716Y1445259D01*
X191375Y1437662D01*
X175624Y1425576D01*
X163538Y1409825D01*
X155941Y1391483D01*
X155021Y1384500D01*
X266700D01*
Y1447851D01*
D02*
G37*
G36*
X403779Y1359100D02*
X292100D01*
Y1295749D01*
X329400D01*
X349084Y1298341D01*
X367425Y1305938D01*
X383176Y1318024D01*
X395262Y1333775D01*
X402859Y1352116D01*
X403779Y1359100D01*
D02*
G37*
G36*
X266700D02*
X155021D01*
X155941Y1352116D01*
X163538Y1333775D01*
X175624Y1318024D01*
X191375Y1305938D01*
X209716Y1298341D01*
X229400Y1295749D01*
X266700D01*
Y1359100D01*
D02*
G37*
G36*
X826800D02*
X710100D01*
Y1293228D01*
X749900D01*
X770236Y1295905D01*
X789186Y1303755D01*
X805459Y1316241D01*
X817945Y1332514D01*
X825795Y1351464D01*
X826800Y1359100D01*
D02*
G37*
G36*
X152700Y1234657D02*
Y1172700D01*
X214657D01*
X210262Y1189103D01*
X200335Y1206297D01*
X186297Y1220335D01*
X169103Y1230262D01*
X152700Y1234657D01*
D02*
G37*
G36*
X127300D02*
X110897Y1230262D01*
X93703Y1220335D01*
X79665Y1206297D01*
X69738Y1189103D01*
X65343Y1172700D01*
X127300D01*
Y1234657D01*
D02*
G37*
G36*
X684700Y1359100D02*
X568000D01*
X569005Y1351464D01*
X576855Y1332514D01*
X589341Y1316241D01*
X605614Y1303755D01*
X624564Y1295905D01*
X624833Y1295869D01*
X626549Y1282834D01*
X614602Y1277885D01*
X598315Y1261598D01*
X589500Y1240317D01*
Y1217283D01*
X598315Y1196002D01*
X614602Y1179715D01*
X635883Y1170900D01*
X658917D01*
X680198Y1179715D01*
X696485Y1196002D01*
X705300Y1217283D01*
Y1240317D01*
X696485Y1261598D01*
X680198Y1277885D01*
X673818Y1280528D01*
X676344Y1293228D01*
X684700D01*
Y1359100D01*
D02*
G37*
G36*
X2651527Y1294600D02*
X2631673D01*
X2612497Y1289462D01*
X2595303Y1279535D01*
X2581265Y1265497D01*
X2571338Y1248303D01*
X2566200Y1229127D01*
Y1209273D01*
X2569249Y1197893D01*
X2207327Y835971D01*
X1031426D01*
X1025535Y846174D01*
X1011497Y860213D01*
X994303Y870139D01*
X975127Y875277D01*
X955273D01*
X936097Y870139D01*
X918903Y860213D01*
X904865Y846174D01*
X894938Y828981D01*
X889800Y809804D01*
Y789951D01*
X894938Y770774D01*
X904865Y753581D01*
X918903Y739542D01*
X936097Y729616D01*
X955273Y724478D01*
X975127D01*
X994303Y729616D01*
X1011497Y739542D01*
X1025535Y753581D01*
X1031426Y763784D01*
X2222277D01*
X2236090Y766532D01*
X2247799Y774356D01*
X2620293Y1146849D01*
X2631673Y1143800D01*
X2651527D01*
X2670703Y1148938D01*
X2687897Y1158865D01*
X2701935Y1172903D01*
X2711862Y1190097D01*
X2717000Y1209273D01*
Y1229127D01*
X2711862Y1248303D01*
X2701935Y1265497D01*
X2687897Y1279535D01*
X2670703Y1289462D01*
X2651527Y1294600D01*
D02*
G37*
G36*
X3347700Y1155400D02*
Y1092700D01*
X3415400D01*
Y1155400D01*
X3347700D01*
D02*
G37*
G36*
X214657Y1147300D02*
X152700D01*
Y1085343D01*
X169103Y1089738D01*
X186297Y1099665D01*
X200335Y1113703D01*
X210262Y1130897D01*
X214657Y1147300D01*
D02*
G37*
G36*
X127300D02*
X65343D01*
X69738Y1130897D01*
X79665Y1113703D01*
X93703Y1099665D01*
X110897Y1089738D01*
X127300Y1085343D01*
Y1147300D01*
D02*
G37*
G36*
X3415400Y1067300D02*
X3347700D01*
Y1004600D01*
X3415400D01*
Y1067300D01*
D02*
G37*
G36*
X2626174Y1547793D02*
X2273700D01*
X2259888Y1545046D01*
X2248178Y1537222D01*
X2129507Y1418551D01*
X2118127Y1421600D01*
X2098273D01*
X2079097Y1416462D01*
X2061903Y1406535D01*
X2047865Y1392497D01*
X2037938Y1375303D01*
X2032800Y1356127D01*
Y1336273D01*
X2037938Y1317097D01*
X2047865Y1299903D01*
X2061903Y1285865D01*
X2079097Y1275938D01*
X2098273Y1270800D01*
X2118127D01*
X2137303Y1275938D01*
X2154497Y1285865D01*
X2168535Y1299903D01*
X2178462Y1317097D01*
X2183600Y1336273D01*
Y1356127D01*
X2180551Y1367507D01*
X2288650Y1475607D01*
X2517538D01*
X2524870Y1462907D01*
X2520538Y1455403D01*
X2515400Y1436226D01*
Y1416373D01*
X2520538Y1397197D01*
X2530465Y1380003D01*
X2543032Y1367436D01*
X2545514Y1361704D01*
X2546648Y1353092D01*
X2169450Y975893D01*
X1613275D01*
X1598446Y990722D01*
X1586736Y998546D01*
X1572924Y1001293D01*
X1031426D01*
X1025535Y1011497D01*
X1011497Y1025535D01*
X995808Y1034593D01*
X994946Y1041400D01*
X995808Y1048207D01*
X1011497Y1057265D01*
X1025535Y1071303D01*
X1035462Y1088497D01*
X1040600Y1107673D01*
Y1127527D01*
X1035462Y1146703D01*
X1025535Y1163897D01*
X1011497Y1177935D01*
X1001293Y1183826D01*
Y1381574D01*
X1011497Y1387465D01*
X1025535Y1401503D01*
X1035462Y1418697D01*
X1040600Y1437873D01*
Y1457727D01*
X1035462Y1476903D01*
X1025535Y1494097D01*
X1011497Y1508135D01*
X994303Y1518062D01*
X975127Y1523200D01*
X955273D01*
X936097Y1518062D01*
X918903Y1508135D01*
X904865Y1494097D01*
X894938Y1476903D01*
X889800Y1457727D01*
Y1437873D01*
X894938Y1418697D01*
X904865Y1401503D01*
X918903Y1387465D01*
X929107Y1381574D01*
Y1183826D01*
X918903Y1177935D01*
X904865Y1163897D01*
X894938Y1146703D01*
X889800Y1127527D01*
Y1107673D01*
X894938Y1088497D01*
X904865Y1071303D01*
X918903Y1057265D01*
X934592Y1048207D01*
X935454Y1041400D01*
X934592Y1034593D01*
X918903Y1025535D01*
X904865Y1011497D01*
X894938Y994303D01*
X889800Y975127D01*
Y955273D01*
X894938Y936097D01*
X904865Y918903D01*
X918903Y904865D01*
X936097Y894938D01*
X955273Y889800D01*
X975127D01*
X994303Y894938D01*
X1011497Y904865D01*
X1025535Y918903D01*
X1031426Y929107D01*
X1557974D01*
X1572802Y914278D01*
X1584512Y906454D01*
X1598324Y903707D01*
X2184400D01*
X2198212Y906454D01*
X2209922Y914278D01*
X2606421Y1310777D01*
X2616322Y1320679D01*
X2624146Y1332388D01*
X2626893Y1346200D01*
Y1360074D01*
X2637097Y1365965D01*
X2651135Y1380003D01*
X2661062Y1397197D01*
X2663304Y1405565D01*
X2677469Y1409361D01*
X2910339Y1176491D01*
X2908250Y1160620D01*
X2908103Y1160535D01*
X2894065Y1146497D01*
X2884138Y1129303D01*
X2879000Y1110127D01*
Y1090273D01*
X2884138Y1071097D01*
X2894065Y1053903D01*
X2908103Y1039865D01*
X2925297Y1029938D01*
X2944473Y1024800D01*
X2964327D01*
X2983503Y1029938D01*
X3000697Y1039865D01*
X3014735Y1053903D01*
X3020626Y1064107D01*
X3084600D01*
Y1004600D01*
X3241900D01*
X3245400Y1004600D01*
X3254600D01*
X3258100Y1004600D01*
X3322300D01*
Y1080000D01*
Y1155400D01*
X3258100D01*
X3254600Y1155400D01*
X3245400D01*
X3241900Y1155400D01*
X3084600D01*
Y1136293D01*
X3020626D01*
X3014735Y1146497D01*
X3000697Y1160535D01*
X2990493Y1166426D01*
Y1183474D01*
X2987746Y1197286D01*
X2979922Y1208996D01*
X2651696Y1537222D01*
X2639986Y1545046D01*
X2626174Y1547793D01*
D02*
G37*
G36*
X5925300Y1028700D02*
X5844600D01*
Y894670D01*
X5538222D01*
Y935425D01*
X5535361Y949813D01*
X5527210Y962010D01*
X5515013Y970160D01*
X5500625Y973022D01*
X5448300D01*
Y836400D01*
Y699778D01*
X5500625D01*
X5515013Y702639D01*
X5527210Y710790D01*
X5535361Y722987D01*
X5538222Y737375D01*
Y778130D01*
X5844600D01*
Y685500D01*
X5925300D01*
Y1028700D01*
D02*
G37*
G36*
X5422900Y973022D02*
X5370575D01*
X5356187Y970160D01*
X5343990Y962010D01*
X5335839Y949813D01*
X5332978Y935425D01*
Y849100D01*
X5422900D01*
Y973022D01*
D02*
G37*
G36*
X270200Y990282D02*
X187000D01*
X173422Y987581D01*
X161911Y979889D01*
X154219Y968378D01*
X151518Y954800D01*
Y879600D01*
X154219Y866022D01*
X161911Y854511D01*
X173422Y846819D01*
X184205Y844674D01*
Y831726D01*
X173422Y829581D01*
X161911Y821889D01*
X154219Y810378D01*
X151518Y796800D01*
Y771900D01*
X228600D01*
X305682D01*
Y796800D01*
X302981Y810378D01*
X295289Y821889D01*
X283778Y829581D01*
X272995Y831726D01*
Y844674D01*
X283778Y846819D01*
X295289Y854511D01*
X302981Y866022D01*
X305424Y878307D01*
X365574D01*
X371465Y868103D01*
X385503Y854065D01*
X402697Y844138D01*
X421873Y839000D01*
X441727D01*
X453107Y842049D01*
X504078Y791078D01*
X515787Y783254D01*
X529600Y780507D01*
X541180D01*
X549265Y766503D01*
X563303Y752465D01*
X580497Y742538D01*
X599673Y737400D01*
X619527D01*
X638703Y742538D01*
X655897Y752465D01*
X669935Y766503D01*
X679862Y783697D01*
X685000Y802873D01*
Y822727D01*
X679862Y841903D01*
X669935Y859097D01*
X655897Y873135D01*
X638703Y883062D01*
X619527Y888200D01*
X599673D01*
X580497Y883062D01*
X563303Y873135D01*
X549265Y859097D01*
X535898Y861345D01*
X504151Y893093D01*
X507200Y904473D01*
Y924327D01*
X502062Y943503D01*
X492135Y960697D01*
X478097Y974735D01*
X460903Y984662D01*
X441727Y989800D01*
X421873D01*
X402697Y984662D01*
X385503Y974735D01*
X371465Y960697D01*
X365574Y950493D01*
X305682D01*
Y954800D01*
X302981Y968378D01*
X295289Y979889D01*
X283778Y987581D01*
X270200Y990282D01*
D02*
G37*
G36*
X5422900Y823700D02*
X5332978D01*
Y737375D01*
X5335839Y722987D01*
X5343990Y710790D01*
X5356187Y702639D01*
X5370575Y699778D01*
X5422900D01*
Y823700D01*
D02*
G37*
G36*
X305682Y746500D02*
X241300D01*
Y686118D01*
X270200D01*
X283778Y688819D01*
X295289Y696511D01*
X302981Y708022D01*
X305682Y721600D01*
Y746500D01*
D02*
G37*
G36*
X215900D02*
X151518D01*
Y721600D01*
X154219Y708022D01*
X161911Y696511D01*
X173422Y688819D01*
X187000Y686118D01*
X215900D01*
Y746500D01*
D02*
G37*
G36*
X6031400Y1028700D02*
X5950700D01*
Y685500D01*
X6031400D01*
Y1028700D01*
D02*
G37*
G36*
X749900Y586372D02*
X710100D01*
Y520500D01*
X826800D01*
X825795Y528136D01*
X817945Y547086D01*
X805459Y563359D01*
X789186Y575845D01*
X770236Y583695D01*
X749900Y586372D01*
D02*
G37*
G36*
X658917Y708700D02*
X635883D01*
X614602Y699885D01*
X598315Y683598D01*
X589500Y662317D01*
Y639283D01*
X598315Y618002D01*
X614602Y601715D01*
X626549Y596766D01*
X624833Y583731D01*
X624564Y583695D01*
X605614Y575845D01*
X589341Y563359D01*
X576855Y547086D01*
X569005Y528136D01*
X568000Y520500D01*
X684700D01*
Y586372D01*
X676344D01*
X673818Y599072D01*
X680198Y601715D01*
X696485Y618002D01*
X705300Y639283D01*
Y662317D01*
X696485Y683598D01*
X680198Y699885D01*
X658917Y708700D01*
D02*
G37*
G36*
X329400Y583851D02*
X292100D01*
Y520500D01*
X403779D01*
X402859Y527484D01*
X395262Y545825D01*
X383176Y561576D01*
X367425Y573662D01*
X349084Y581259D01*
X329400Y583851D01*
D02*
G37*
G36*
X266700D02*
X229400D01*
X209716Y581259D01*
X191375Y573662D01*
X175624Y561576D01*
X163538Y545825D01*
X155941Y527484D01*
X155021Y520500D01*
X266700D01*
Y583851D01*
D02*
G37*
G36*
X403779Y495100D02*
X292100D01*
Y431749D01*
X329400D01*
X349084Y434341D01*
X367425Y441938D01*
X383176Y454024D01*
X395262Y469775D01*
X402859Y488117D01*
X403779Y495100D01*
D02*
G37*
G36*
X266700D02*
X155021D01*
X155941Y488117D01*
X163538Y469775D01*
X175624Y454024D01*
X191375Y441938D01*
X209716Y434341D01*
X229400Y431749D01*
X266700D01*
Y495100D01*
D02*
G37*
G36*
X826800D02*
X710100D01*
Y429228D01*
X749900D01*
X770236Y431905D01*
X789186Y439755D01*
X805459Y452241D01*
X817945Y468514D01*
X825795Y487464D01*
X826800Y495100D01*
D02*
G37*
G36*
X684700D02*
X568000D01*
X569005Y487464D01*
X576855Y468514D01*
X589341Y452241D01*
X605614Y439755D01*
X624564Y431905D01*
X644900Y429228D01*
X684700D01*
Y495100D01*
D02*
G37*
G36*
X12082700Y484657D02*
Y422700D01*
X12144657D01*
X12140262Y439103D01*
X12130335Y456297D01*
X12116297Y470335D01*
X12099103Y480262D01*
X12082700Y484657D01*
D02*
G37*
G36*
X12057300D02*
X12040897Y480262D01*
X12023703Y470335D01*
X12009665Y456297D01*
X11999738Y439103D01*
X11995343Y422700D01*
X12057300D01*
Y484657D01*
D02*
G37*
G36*
X1670050Y603250D02*
X1479550D01*
Y412750D01*
X1670050D01*
Y603250D01*
D02*
G37*
G36*
X1333340D02*
X1308260D01*
X1284035Y596759D01*
X1262315Y584219D01*
X1244581Y566485D01*
X1232041Y544765D01*
X1225550Y520540D01*
Y495460D01*
X1232041Y471235D01*
X1244581Y449515D01*
X1262315Y431781D01*
X1284035Y419241D01*
X1308260Y412750D01*
X1333340D01*
X1357565Y419241D01*
X1379285Y431781D01*
X1397019Y449515D01*
X1409559Y471235D01*
X1416050Y495460D01*
Y520540D01*
X1409559Y544765D01*
X1397019Y566485D01*
X1379285Y584219D01*
X1357565Y596759D01*
X1333340Y603250D01*
D02*
G37*
G36*
X11782700Y474657D02*
Y412700D01*
X11844657D01*
X11840262Y429103D01*
X11830335Y446297D01*
X11816297Y460335D01*
X11799103Y470262D01*
X11782700Y474657D01*
D02*
G37*
G36*
X11757300D02*
X11740897Y470262D01*
X11723704Y460335D01*
X11709665Y446297D01*
X11699738Y429103D01*
X11695343Y412700D01*
X11757300D01*
Y474657D01*
D02*
G37*
G36*
X11402700D02*
Y412700D01*
X11464657D01*
X11460262Y429103D01*
X11450335Y446297D01*
X11436297Y460335D01*
X11419103Y470262D01*
X11402700Y474657D01*
D02*
G37*
G36*
X11377300D02*
X11360897Y470262D01*
X11343703Y460335D01*
X11329665Y446297D01*
X11319738Y429103D01*
X11315343Y412700D01*
X11377300D01*
Y474657D01*
D02*
G37*
G36*
X11062700Y464657D02*
Y402700D01*
X11124657D01*
X11120262Y419103D01*
X11110335Y436297D01*
X11096297Y450335D01*
X11079103Y460262D01*
X11062700Y464657D01*
D02*
G37*
G36*
X11037300D02*
X11020897Y460262D01*
X11003703Y450335D01*
X10989665Y436297D01*
X10979738Y419103D01*
X10975343Y402700D01*
X11037300D01*
Y464657D01*
D02*
G37*
G36*
X10762700D02*
Y402700D01*
X10824657D01*
X10820262Y419103D01*
X10810335Y436297D01*
X10796297Y450335D01*
X10779103Y460262D01*
X10762700Y464657D01*
D02*
G37*
G36*
X10737300D02*
X10720897Y460262D01*
X10703704Y450335D01*
X10689665Y436297D01*
X10679738Y419103D01*
X10675343Y402700D01*
X10737300D01*
Y464657D01*
D02*
G37*
G36*
X10452700D02*
Y402700D01*
X10514657D01*
X10510262Y419103D01*
X10500335Y436297D01*
X10486297Y450335D01*
X10469103Y460262D01*
X10452700Y464657D01*
D02*
G37*
G36*
X10427300D02*
X10410897Y460262D01*
X10393703Y450335D01*
X10379665Y436297D01*
X10369738Y419103D01*
X10365343Y402700D01*
X10427300D01*
Y464657D01*
D02*
G37*
G36*
X12144657Y397300D02*
X12082700D01*
Y335343D01*
X12099103Y339738D01*
X12116297Y349665D01*
X12130335Y363703D01*
X12140262Y380897D01*
X12144657Y397300D01*
D02*
G37*
G36*
X12057300D02*
X11995343D01*
X11999738Y380897D01*
X12009665Y363703D01*
X12023703Y349665D01*
X12040897Y339738D01*
X12057300Y335343D01*
Y397300D01*
D02*
G37*
G36*
X11844657Y387300D02*
X11782700D01*
Y325343D01*
X11799103Y329738D01*
X11816297Y339665D01*
X11830335Y353703D01*
X11840262Y370897D01*
X11844657Y387300D01*
D02*
G37*
G36*
X11757300D02*
X11695343D01*
X11699738Y370897D01*
X11709665Y353703D01*
X11723704Y339665D01*
X11740897Y329738D01*
X11757300Y325343D01*
Y387300D01*
D02*
G37*
G36*
X11464657D02*
X11402700D01*
Y325343D01*
X11419103Y329738D01*
X11436297Y339665D01*
X11450335Y353703D01*
X11460262Y370897D01*
X11464657Y387300D01*
D02*
G37*
G36*
X11377300D02*
X11315343D01*
X11319738Y370897D01*
X11329665Y353703D01*
X11343703Y339665D01*
X11360897Y329738D01*
X11377300Y325343D01*
Y387300D01*
D02*
G37*
G36*
X11124657Y377300D02*
X11062700D01*
Y315343D01*
X11079103Y319738D01*
X11096297Y329665D01*
X11110335Y343703D01*
X11120262Y360897D01*
X11124657Y377300D01*
D02*
G37*
G36*
X11037300D02*
X10975343D01*
X10979738Y360897D01*
X10989665Y343703D01*
X11003703Y329665D01*
X11020897Y319738D01*
X11037300Y315343D01*
Y377300D01*
D02*
G37*
G36*
X10824657D02*
X10762700D01*
Y315343D01*
X10779103Y319738D01*
X10796297Y329665D01*
X10810335Y343703D01*
X10820262Y360897D01*
X10824657Y377300D01*
D02*
G37*
G36*
X10737300D02*
X10675343D01*
X10679738Y360897D01*
X10689665Y343703D01*
X10703704Y329665D01*
X10720897Y319738D01*
X10737300Y315343D01*
Y377300D01*
D02*
G37*
G36*
X10514657D02*
X10452700D01*
Y315343D01*
X10469103Y319738D01*
X10486297Y329665D01*
X10500335Y343703D01*
X10510262Y360897D01*
X10514657Y377300D01*
D02*
G37*
G36*
X10427300D02*
X10365343D01*
X10369738Y360897D01*
X10379665Y343703D01*
X10393703Y329665D01*
X10410897Y319738D01*
X10427300Y315343D01*
Y377300D01*
D02*
G37*
G36*
X10112700Y374657D02*
Y312700D01*
X10174657D01*
X10170262Y329103D01*
X10160335Y346296D01*
X10146297Y360335D01*
X10129103Y370262D01*
X10112700Y374657D01*
D02*
G37*
G36*
X10087300D02*
X10070897Y370262D01*
X10053704Y360335D01*
X10039665Y346296D01*
X10029738Y329103D01*
X10025343Y312700D01*
X10087300D01*
Y374657D01*
D02*
G37*
G36*
X9812700Y364657D02*
Y302700D01*
X9874657D01*
X9870262Y319103D01*
X9860335Y336297D01*
X9846297Y350335D01*
X9829103Y360262D01*
X9812700Y364657D01*
D02*
G37*
G36*
X9787300D02*
X9770897Y360262D01*
X9753703Y350335D01*
X9739665Y336297D01*
X9729738Y319103D01*
X9725343Y302700D01*
X9787300D01*
Y364657D01*
D02*
G37*
G36*
X9452700D02*
Y302700D01*
X9514657D01*
X9510262Y319103D01*
X9500335Y336297D01*
X9486296Y350335D01*
X9469103Y360262D01*
X9452700Y364657D01*
D02*
G37*
G36*
X9427300D02*
X9410897Y360262D01*
X9393703Y350335D01*
X9379665Y336297D01*
X9369738Y319103D01*
X9365343Y302700D01*
X9427300D01*
Y364657D01*
D02*
G37*
G36*
X9092700Y354657D02*
Y292700D01*
X9154657D01*
X9150262Y309103D01*
X9140335Y326297D01*
X9126296Y340335D01*
X9109103Y350262D01*
X9092700Y354657D01*
D02*
G37*
G36*
X9067300D02*
X9050897Y350262D01*
X9033703Y340335D01*
X9019665Y326297D01*
X9009738Y309103D01*
X9005343Y292700D01*
X9067300D01*
Y354657D01*
D02*
G37*
G36*
X8742700D02*
Y292700D01*
X8804657D01*
X8800262Y309103D01*
X8790335Y326297D01*
X8776297Y340335D01*
X8759103Y350262D01*
X8742700Y354657D01*
D02*
G37*
G36*
X8717300D02*
X8700897Y350262D01*
X8683703Y340335D01*
X8669665Y326297D01*
X8659738Y309103D01*
X8655343Y292700D01*
X8717300D01*
Y354657D01*
D02*
G37*
G36*
X8412700Y344657D02*
Y282700D01*
X8474657D01*
X8470262Y299103D01*
X8460335Y316297D01*
X8446297Y330335D01*
X8429103Y340262D01*
X8412700Y344657D01*
D02*
G37*
G36*
X8387300D02*
X8370897Y340262D01*
X8353703Y330335D01*
X8339665Y316297D01*
X8329738Y299103D01*
X8325343Y282700D01*
X8387300D01*
Y344657D01*
D02*
G37*
G36*
X8112700D02*
Y282700D01*
X8174657D01*
X8170262Y299103D01*
X8160335Y316297D01*
X8146297Y330335D01*
X8129103Y340262D01*
X8112700Y344657D01*
D02*
G37*
G36*
X8087300D02*
X8070897Y340262D01*
X8053703Y330335D01*
X8039665Y316297D01*
X8029738Y299103D01*
X8025343Y282700D01*
X8087300D01*
Y344657D01*
D02*
G37*
G36*
X7802700Y334657D02*
Y272700D01*
X7864657D01*
X7860262Y289103D01*
X7850335Y306297D01*
X7836296Y320335D01*
X7819103Y330262D01*
X7802700Y334657D01*
D02*
G37*
G36*
X7777300D02*
X7760897Y330262D01*
X7743703Y320335D01*
X7729665Y306297D01*
X7719738Y289103D01*
X7715343Y272700D01*
X7777300D01*
Y334657D01*
D02*
G37*
G36*
X7522700D02*
Y272700D01*
X7584657D01*
X7580262Y289103D01*
X7570335Y306297D01*
X7556297Y320335D01*
X7539103Y330262D01*
X7522700Y334657D01*
D02*
G37*
G36*
X7497300D02*
X7480897Y330262D01*
X7463703Y320335D01*
X7449665Y306297D01*
X7439738Y289103D01*
X7435343Y272700D01*
X7497300D01*
Y334657D01*
D02*
G37*
G36*
X7232700D02*
Y272700D01*
X7294657D01*
X7290262Y289103D01*
X7280335Y306297D01*
X7266297Y320335D01*
X7249103Y330262D01*
X7232700Y334657D01*
D02*
G37*
G36*
X7207300D02*
X7190897Y330262D01*
X7173703Y320335D01*
X7159665Y306297D01*
X7149738Y289103D01*
X7145343Y272700D01*
X7207300D01*
Y334657D01*
D02*
G37*
G36*
X6922700D02*
Y272700D01*
X6984657D01*
X6980262Y289103D01*
X6970335Y306297D01*
X6956296Y320335D01*
X6939103Y330262D01*
X6922700Y334657D01*
D02*
G37*
G36*
X6897300D02*
X6880897Y330262D01*
X6863703Y320335D01*
X6849665Y306297D01*
X6839738Y289103D01*
X6835343Y272700D01*
X6897300D01*
Y334657D01*
D02*
G37*
G36*
X3268470Y329400D02*
X3267900D01*
Y241300D01*
X3356000D01*
Y241870D01*
X3349130Y267507D01*
X3335860Y290492D01*
X3317092Y309260D01*
X3294107Y322530D01*
X3268470Y329400D01*
D02*
G37*
G36*
X3242500D02*
X3241930D01*
X3216293Y322530D01*
X3193308Y309260D01*
X3174540Y290492D01*
X3161270Y267507D01*
X3154400Y241870D01*
Y241300D01*
X3242500D01*
Y329400D01*
D02*
G37*
G36*
X10174657Y287300D02*
X10112700D01*
Y225343D01*
X10129103Y229738D01*
X10146297Y239665D01*
X10160335Y253703D01*
X10170262Y270897D01*
X10174657Y287300D01*
D02*
G37*
G36*
X10087300D02*
X10025343D01*
X10029738Y270897D01*
X10039665Y253703D01*
X10053704Y239665D01*
X10070897Y229738D01*
X10087300Y225343D01*
Y287300D01*
D02*
G37*
G36*
X9874657Y277300D02*
X9812700D01*
Y215343D01*
X9829103Y219738D01*
X9846297Y229665D01*
X9860335Y243703D01*
X9870262Y260897D01*
X9874657Y277300D01*
D02*
G37*
G36*
X9787300D02*
X9725343D01*
X9729738Y260897D01*
X9739665Y243703D01*
X9753703Y229665D01*
X9770897Y219738D01*
X9787300Y215343D01*
Y277300D01*
D02*
G37*
G36*
X9514657D02*
X9452700D01*
Y215343D01*
X9469103Y219738D01*
X9486296Y229665D01*
X9500335Y243703D01*
X9510262Y260897D01*
X9514657Y277300D01*
D02*
G37*
G36*
X9427300D02*
X9365343D01*
X9369738Y260897D01*
X9379665Y243703D01*
X9393703Y229665D01*
X9410897Y219738D01*
X9427300Y215343D01*
Y277300D01*
D02*
G37*
G36*
X267275Y375400D02*
X262700D01*
Y212700D01*
X425400D01*
Y217275D01*
X418659Y251162D01*
X405437Y283083D01*
X386242Y311811D01*
X361811Y336242D01*
X333083Y355437D01*
X301162Y368659D01*
X267275Y375400D01*
D02*
G37*
G36*
X237300D02*
X232725D01*
X198838Y368659D01*
X166917Y355437D01*
X138189Y336242D01*
X113758Y311811D01*
X94563Y283083D01*
X81341Y251162D01*
X74600Y217275D01*
Y212700D01*
X237300D01*
Y375400D01*
D02*
G37*
G36*
X9154657Y267300D02*
X9092700D01*
Y205343D01*
X9109103Y209738D01*
X9126296Y219665D01*
X9140335Y233703D01*
X9150262Y250897D01*
X9154657Y267300D01*
D02*
G37*
G36*
X9067300D02*
X9005343D01*
X9009738Y250897D01*
X9019665Y233703D01*
X9033703Y219665D01*
X9050897Y209738D01*
X9067300Y205343D01*
Y267300D01*
D02*
G37*
G36*
X8804657D02*
X8742700D01*
Y205343D01*
X8759103Y209738D01*
X8776297Y219665D01*
X8790335Y233703D01*
X8800262Y250897D01*
X8804657Y267300D01*
D02*
G37*
G36*
X8717300D02*
X8655343D01*
X8659738Y250897D01*
X8669665Y233703D01*
X8683703Y219665D01*
X8700897Y209738D01*
X8717300Y205343D01*
Y267300D01*
D02*
G37*
G36*
X8474657Y257300D02*
X8412700D01*
Y195343D01*
X8429103Y199738D01*
X8446297Y209665D01*
X8460335Y223703D01*
X8470262Y240897D01*
X8474657Y257300D01*
D02*
G37*
G36*
X8387300D02*
X8325343D01*
X8329738Y240897D01*
X8339665Y223703D01*
X8353703Y209665D01*
X8370897Y199738D01*
X8387300Y195343D01*
Y257300D01*
D02*
G37*
G36*
X8174657D02*
X8112700D01*
Y195343D01*
X8129103Y199738D01*
X8146297Y209665D01*
X8160335Y223703D01*
X8170262Y240897D01*
X8174657Y257300D01*
D02*
G37*
G36*
X8087300D02*
X8025343D01*
X8029738Y240897D01*
X8039665Y223703D01*
X8053703Y209665D01*
X8070897Y199738D01*
X8087300Y195343D01*
Y257300D01*
D02*
G37*
G36*
X7864657Y247300D02*
X7802700D01*
Y185343D01*
X7819103Y189738D01*
X7836296Y199665D01*
X7850335Y213703D01*
X7860262Y230897D01*
X7864657Y247300D01*
D02*
G37*
G36*
X7777300D02*
X7715343D01*
X7719738Y230897D01*
X7729665Y213703D01*
X7743703Y199665D01*
X7760897Y189738D01*
X7777300Y185343D01*
Y247300D01*
D02*
G37*
G36*
X7584657D02*
X7522700D01*
Y185343D01*
X7539103Y189738D01*
X7556297Y199665D01*
X7570335Y213703D01*
X7580262Y230897D01*
X7584657Y247300D01*
D02*
G37*
G36*
X7497300D02*
X7435343D01*
X7439738Y230897D01*
X7449665Y213703D01*
X7463703Y199665D01*
X7480897Y189738D01*
X7497300Y185343D01*
Y247300D01*
D02*
G37*
G36*
X1492700Y244657D02*
Y182700D01*
X1554657D01*
X1550262Y199103D01*
X1540335Y216296D01*
X1526297Y230335D01*
X1509103Y240262D01*
X1492700Y244657D01*
D02*
G37*
G36*
X1467300D02*
X1450897Y240262D01*
X1433704Y230335D01*
X1419665Y216296D01*
X1409738Y199103D01*
X1405343Y182700D01*
X1467300D01*
Y244657D01*
D02*
G37*
G36*
X1082700D02*
Y182700D01*
X1144657D01*
X1140262Y199103D01*
X1130335Y216296D01*
X1116296Y230335D01*
X1099103Y240262D01*
X1082700Y244657D01*
D02*
G37*
G36*
X1057300D02*
X1040897Y240262D01*
X1023703Y230335D01*
X1009665Y216296D01*
X999738Y199103D01*
X995343Y182700D01*
X1057300D01*
Y244657D01*
D02*
G37*
G36*
X692700Y234657D02*
Y172700D01*
X754657D01*
X750262Y189103D01*
X740335Y206297D01*
X726296Y220335D01*
X709103Y230262D01*
X692700Y234657D01*
D02*
G37*
G36*
X667300D02*
X650897Y230262D01*
X633703Y220335D01*
X619665Y206297D01*
X609738Y189103D01*
X605343Y172700D01*
X667300D01*
Y234657D01*
D02*
G37*
G36*
X1992700Y214657D02*
Y152700D01*
X2054657D01*
X2050262Y169103D01*
X2040335Y186297D01*
X2026297Y200335D01*
X2009103Y210262D01*
X1992700Y214657D01*
D02*
G37*
G36*
X1967300D02*
X1950897Y210262D01*
X1933704Y200335D01*
X1919665Y186297D01*
X1909738Y169103D01*
X1905343Y152700D01*
X1967300D01*
Y214657D01*
D02*
G37*
G36*
X5972700Y204657D02*
Y142700D01*
X6034657D01*
X6030262Y159103D01*
X6020335Y176297D01*
X6006297Y190335D01*
X5989103Y200262D01*
X5972700Y204657D01*
D02*
G37*
G36*
X5947300D02*
X5930897Y200262D01*
X5913703Y190335D01*
X5899665Y176297D01*
X5889738Y159103D01*
X5885343Y142700D01*
X5947300D01*
Y204657D01*
D02*
G37*
G36*
X4302700D02*
Y142700D01*
X4364657D01*
X4360262Y159103D01*
X4350335Y176297D01*
X4336297Y190335D01*
X4319103Y200262D01*
X4302700Y204657D01*
D02*
G37*
G36*
X4277300D02*
X4260897Y200262D01*
X4243703Y190335D01*
X4229665Y176297D01*
X4219738Y159103D01*
X4215343Y142700D01*
X4277300D01*
Y204657D01*
D02*
G37*
G36*
X5522700Y194657D02*
Y132700D01*
X5584657D01*
X5580262Y149103D01*
X5570335Y166297D01*
X5556296Y180335D01*
X5539103Y190262D01*
X5522700Y194657D01*
D02*
G37*
G36*
X5497300D02*
X5480897Y190262D01*
X5463703Y180335D01*
X5449665Y166297D01*
X5439738Y149103D01*
X5435343Y132700D01*
X5497300D01*
Y194657D01*
D02*
G37*
G36*
X4672700D02*
Y132700D01*
X4734657D01*
X4730262Y149103D01*
X4720335Y166297D01*
X4706297Y180335D01*
X4689103Y190262D01*
X4672700Y194657D01*
D02*
G37*
G36*
X4647300D02*
X4630897Y190262D01*
X4613703Y180335D01*
X4599665Y166297D01*
X4589738Y149103D01*
X4585343Y132700D01*
X4647300D01*
Y194657D01*
D02*
G37*
G36*
X4018471Y329400D02*
X3991930D01*
X3966293Y322530D01*
X3943308Y309260D01*
X3924540Y290492D01*
X3911270Y267507D01*
X3904400Y241870D01*
Y215330D01*
X3911270Y189693D01*
X3924540Y166708D01*
X3943308Y147940D01*
X3966293Y134670D01*
X3991930Y127800D01*
X4018471D01*
X4044107Y134670D01*
X4067092Y147940D01*
X4085860Y166708D01*
X4099130Y189693D01*
X4106000Y215330D01*
Y241870D01*
X4099130Y267507D01*
X4085860Y290492D01*
X4067092Y309260D01*
X4044107Y322530D01*
X4018471Y329400D01*
D02*
G37*
G36*
X3565927Y1802600D02*
X3546073D01*
X3526897Y1797462D01*
X3509703Y1787535D01*
X3495665Y1773497D01*
X3485738Y1756303D01*
X3480600Y1737127D01*
Y1734206D01*
X3413197Y1666803D01*
X3400566Y1647899D01*
X3396130Y1625600D01*
Y1397000D01*
X3400566Y1374701D01*
X3413197Y1355797D01*
X3480600Y1288394D01*
Y1285473D01*
X3485738Y1266297D01*
X3495665Y1249103D01*
X3497730Y1247038D01*
Y990203D01*
X3388542Y881014D01*
X3374377Y884810D01*
X3372262Y892703D01*
X3362335Y909897D01*
X3348297Y923935D01*
X3331103Y933862D01*
X3311927Y939000D01*
X3292073D01*
X3272897Y933862D01*
X3255703Y923935D01*
X3241665Y909897D01*
X3235774Y899693D01*
X2540000D01*
X2526187Y896946D01*
X2514478Y889122D01*
X2209678Y584322D01*
X2201854Y572612D01*
X2199107Y558800D01*
Y498026D01*
X2188903Y492135D01*
X2174865Y478097D01*
X2164938Y460903D01*
X2159800Y441727D01*
Y421873D01*
X2164938Y402697D01*
X2174865Y385503D01*
X2188903Y371465D01*
X2206097Y361538D01*
X2225273Y356400D01*
X2245127D01*
X2264303Y361538D01*
X2281497Y371465D01*
X2295535Y385503D01*
X2305462Y402697D01*
X2310600Y421873D01*
Y441727D01*
X2305462Y460903D01*
X2295535Y478097D01*
X2281497Y492135D01*
X2271293Y498026D01*
Y543850D01*
X2554950Y827507D01*
X3235774D01*
X3241665Y817303D01*
X3255703Y803265D01*
X3272897Y793338D01*
X3280790Y791223D01*
X3284586Y777058D01*
X3226197Y718670D01*
X2740762D01*
X2738697Y720735D01*
X2721503Y730662D01*
X2702327Y735800D01*
X2682473D01*
X2663297Y730662D01*
X2646103Y720735D01*
X2632065Y706697D01*
X2622138Y689503D01*
X2617000Y670327D01*
Y650473D01*
X2622138Y631297D01*
X2632065Y614103D01*
X2646103Y600065D01*
X2663297Y590138D01*
X2682473Y585000D01*
X2702327D01*
X2721503Y590138D01*
X2738697Y600065D01*
X2740762Y602130D01*
X3250333D01*
X3272632Y606566D01*
X3291536Y619197D01*
X3597203Y924864D01*
X3609834Y943768D01*
X3614270Y966067D01*
Y1247038D01*
X3616335Y1249103D01*
X3626262Y1266297D01*
X3631400Y1285473D01*
Y1305327D01*
X3626262Y1324503D01*
X3616335Y1341697D01*
X3602297Y1355735D01*
X3585103Y1365662D01*
X3565927Y1370800D01*
X3563006D01*
X3512670Y1421136D01*
Y1505084D01*
X3525370Y1506756D01*
X3525623Y1505812D01*
X3535549Y1488619D01*
X3549588Y1474580D01*
X3566781Y1464654D01*
X3585958Y1459516D01*
X3605811D01*
X3617191Y1462565D01*
X3719107Y1360650D01*
Y323284D01*
X3716293Y322530D01*
X3693308Y309260D01*
X3674540Y290492D01*
X3661270Y267507D01*
X3654400Y241870D01*
Y215330D01*
X3661270Y189693D01*
X3674540Y166708D01*
X3693308Y147940D01*
X3716293Y134670D01*
X3741930Y127800D01*
X3768470D01*
X3794107Y134670D01*
X3817092Y147940D01*
X3835860Y166708D01*
X3849130Y189693D01*
X3856000Y215330D01*
Y241870D01*
X3849130Y267507D01*
X3835860Y290492D01*
X3817092Y309260D01*
X3794107Y322530D01*
X3791293Y323284D01*
Y1375600D01*
X3788546Y1389412D01*
X3780722Y1401122D01*
X3668235Y1513609D01*
X3671284Y1524989D01*
Y1544842D01*
X3666146Y1564019D01*
X3656220Y1581212D01*
X3642181Y1595251D01*
X3624988Y1605177D01*
X3605811Y1610316D01*
X3585958D01*
X3566781Y1605177D01*
X3549588Y1595251D01*
X3535549Y1581212D01*
X3525623Y1564019D01*
X3525370Y1563075D01*
X3512670Y1564747D01*
Y1601464D01*
X3563006Y1651800D01*
X3565927D01*
X3585103Y1656938D01*
X3602297Y1666865D01*
X3616335Y1680903D01*
X3626262Y1698097D01*
X3631400Y1717273D01*
Y1737127D01*
X3626262Y1756303D01*
X3616335Y1773497D01*
X3602297Y1787535D01*
X3585103Y1797462D01*
X3565927Y1802600D01*
D02*
G37*
G36*
X3518470Y329400D02*
X3491930D01*
X3466293Y322530D01*
X3443308Y309260D01*
X3424540Y290492D01*
X3411270Y267507D01*
X3404400Y241870D01*
Y215330D01*
X3411270Y189693D01*
X3424540Y166708D01*
X3443308Y147940D01*
X3466293Y134670D01*
X3491930Y127800D01*
X3518470D01*
X3544107Y134670D01*
X3567092Y147940D01*
X3585860Y166708D01*
X3599130Y189693D01*
X3606000Y215330D01*
Y241870D01*
X3599130Y267507D01*
X3585860Y290492D01*
X3567092Y309260D01*
X3544107Y322530D01*
X3518470Y329400D01*
D02*
G37*
G36*
X3356000Y215900D02*
X3267900D01*
Y127800D01*
X3268470D01*
X3294107Y134670D01*
X3317092Y147940D01*
X3335860Y166708D01*
X3349130Y189693D01*
X3356000Y215330D01*
Y215900D01*
D02*
G37*
G36*
X3242500D02*
X3154400D01*
Y215330D01*
X3161270Y189693D01*
X3174540Y166708D01*
X3193308Y147940D01*
X3216293Y134670D01*
X3241930Y127800D01*
X3242500D01*
Y215900D01*
D02*
G37*
G36*
X3018470Y329400D02*
X2991930D01*
X2966293Y322530D01*
X2943308Y309260D01*
X2924540Y290492D01*
X2911270Y267507D01*
X2904400Y241870D01*
Y215330D01*
X2911270Y189693D01*
X2924540Y166708D01*
X2943308Y147940D01*
X2966293Y134670D01*
X2991930Y127800D01*
X3018470D01*
X3044107Y134670D01*
X3067092Y147940D01*
X3085860Y166708D01*
X3099130Y189693D01*
X3106000Y215330D01*
Y241870D01*
X3099130Y267507D01*
X3085860Y290492D01*
X3067092Y309260D01*
X3044107Y322530D01*
X3018470Y329400D01*
D02*
G37*
G36*
X2856000D02*
X2654400D01*
Y127800D01*
X2856000D01*
Y329400D01*
D02*
G37*
G36*
X5092700Y184657D02*
Y122700D01*
X5154657D01*
X5150262Y139103D01*
X5140335Y156297D01*
X5126297Y170335D01*
X5109103Y180262D01*
X5092700Y184657D01*
D02*
G37*
G36*
X5067300D02*
X5050897Y180262D01*
X5033703Y170335D01*
X5019665Y156297D01*
X5009738Y139103D01*
X5005343Y122700D01*
X5067300D01*
Y184657D01*
D02*
G37*
G36*
X7294657Y247300D02*
X7145343D01*
X7149738Y230897D01*
X7159665Y213703D01*
X7173703Y199665D01*
X7190897Y189738D01*
X7198871Y187602D01*
X7199377Y182463D01*
X7197706Y174766D01*
X7180897Y170262D01*
X7163703Y160335D01*
X7149665Y146297D01*
X7139738Y129103D01*
X7135343Y112700D01*
X7284657D01*
X7280262Y129103D01*
X7270335Y146297D01*
X7256297Y160335D01*
X7239103Y170262D01*
X7231130Y172398D01*
X7230623Y177537D01*
X7232294Y185234D01*
X7249103Y189738D01*
X7266297Y199665D01*
X7280335Y213703D01*
X7290262Y230897D01*
X7294657Y247300D01*
D02*
G37*
G36*
X6984657D02*
X6835343D01*
X6839738Y230897D01*
X6849665Y213703D01*
X6863703Y199665D01*
X6880897Y189738D01*
X6892706Y186574D01*
Y173426D01*
X6880897Y170262D01*
X6863703Y160335D01*
X6849665Y146297D01*
X6839738Y129103D01*
X6835343Y112700D01*
X6984657D01*
X6980262Y129103D01*
X6970335Y146297D01*
X6956296Y160335D01*
X6939103Y170262D01*
X6927294Y173426D01*
Y186574D01*
X6939103Y189738D01*
X6956296Y199665D01*
X6970335Y213703D01*
X6980262Y230897D01*
X6984657Y247300D01*
D02*
G37*
G36*
X12112700Y164657D02*
Y102700D01*
X12174657D01*
X12170262Y119103D01*
X12160335Y136297D01*
X12146297Y150335D01*
X12129103Y160262D01*
X12112700Y164657D01*
D02*
G37*
G36*
X12087300D02*
X12070897Y160262D01*
X12053703Y150335D01*
X12039665Y136297D01*
X12029738Y119103D01*
X12025343Y102700D01*
X12087300D01*
Y164657D01*
D02*
G37*
G36*
X11762700D02*
Y102700D01*
X11824657D01*
X11820262Y119103D01*
X11810335Y136297D01*
X11796297Y150335D01*
X11779103Y160262D01*
X11762700Y164657D01*
D02*
G37*
G36*
X11737300D02*
X11720897Y160262D01*
X11703704Y150335D01*
X11689665Y136297D01*
X11679738Y119103D01*
X11675343Y102700D01*
X11737300D01*
Y164657D01*
D02*
G37*
G36*
X11432700D02*
Y102700D01*
X11494657D01*
X11490262Y119103D01*
X11480335Y136297D01*
X11466297Y150335D01*
X11449103Y160262D01*
X11432700Y164657D01*
D02*
G37*
G36*
X11407300D02*
X11390897Y160262D01*
X11373703Y150335D01*
X11359665Y136297D01*
X11349738Y119103D01*
X11345343Y102700D01*
X11407300D01*
Y164657D01*
D02*
G37*
G36*
X8722700D02*
Y102700D01*
X8784657D01*
X8780262Y119103D01*
X8770335Y136297D01*
X8756297Y150335D01*
X8739103Y160262D01*
X8722700Y164657D01*
D02*
G37*
G36*
X8697300D02*
X8680897Y160262D01*
X8663704Y150335D01*
X8649665Y136297D01*
X8639738Y119103D01*
X8635343Y102700D01*
X8697300D01*
Y164657D01*
D02*
G37*
G36*
X8412700D02*
Y102700D01*
X8474657D01*
X8470262Y119103D01*
X8460335Y136297D01*
X8446297Y150335D01*
X8429103Y160262D01*
X8412700Y164657D01*
D02*
G37*
G36*
X8387300D02*
X8370897Y160262D01*
X8353703Y150335D01*
X8339665Y136297D01*
X8329738Y119103D01*
X8325343Y102700D01*
X8387300D01*
Y164657D01*
D02*
G37*
G36*
X8112700D02*
Y102700D01*
X8174657D01*
X8170262Y119103D01*
X8160335Y136297D01*
X8146297Y150335D01*
X8129103Y160262D01*
X8112700Y164657D01*
D02*
G37*
G36*
X8087300D02*
X8070897Y160262D01*
X8053703Y150335D01*
X8039665Y136297D01*
X8029738Y119103D01*
X8025343Y102700D01*
X8087300D01*
Y164657D01*
D02*
G37*
G36*
X7832700D02*
Y102700D01*
X7894657D01*
X7890262Y119103D01*
X7880335Y136297D01*
X7866297Y150335D01*
X7849103Y160262D01*
X7832700Y164657D01*
D02*
G37*
G36*
X7807300D02*
X7790897Y160262D01*
X7773704Y150335D01*
X7759665Y136297D01*
X7749738Y119103D01*
X7745343Y102700D01*
X7807300D01*
Y164657D01*
D02*
G37*
G36*
X7522700D02*
Y102700D01*
X7584657D01*
X7580262Y119103D01*
X7570335Y136297D01*
X7556297Y150335D01*
X7539103Y160262D01*
X7522700Y164657D01*
D02*
G37*
G36*
X7497300D02*
X7480897Y160262D01*
X7463703Y150335D01*
X7449665Y136297D01*
X7439738Y119103D01*
X7435343Y102700D01*
X7497300D01*
Y164657D01*
D02*
G37*
G36*
X1554657Y157300D02*
X1492700D01*
Y95343D01*
X1509103Y99738D01*
X1526297Y109665D01*
X1540335Y123703D01*
X1550262Y140897D01*
X1554657Y157300D01*
D02*
G37*
G36*
X1467300D02*
X1405343D01*
X1409738Y140897D01*
X1419665Y123703D01*
X1433704Y109665D01*
X1450897Y99738D01*
X1467300Y95343D01*
Y157300D01*
D02*
G37*
G36*
X1144657D02*
X1082700D01*
Y95343D01*
X1099103Y99738D01*
X1116296Y109665D01*
X1130335Y123703D01*
X1140262Y140897D01*
X1144657Y157300D01*
D02*
G37*
G36*
X1057300D02*
X995343D01*
X999738Y140897D01*
X1009665Y123703D01*
X1023703Y109665D01*
X1040897Y99738D01*
X1057300Y95343D01*
Y157300D01*
D02*
G37*
G36*
X11122700Y154657D02*
Y92700D01*
X11184657D01*
X11180262Y109103D01*
X11170335Y126297D01*
X11156296Y140335D01*
X11139103Y150262D01*
X11122700Y154657D01*
D02*
G37*
G36*
X11097300D02*
X11080897Y150262D01*
X11063703Y140335D01*
X11049665Y126297D01*
X11039738Y109103D01*
X11035343Y92700D01*
X11097300D01*
Y154657D01*
D02*
G37*
G36*
X10762700D02*
Y92700D01*
X10824657D01*
X10820262Y109103D01*
X10810335Y126297D01*
X10796297Y140335D01*
X10779103Y150262D01*
X10762700Y154657D01*
D02*
G37*
G36*
X10737300D02*
X10720897Y150262D01*
X10703704Y140335D01*
X10689665Y126297D01*
X10679738Y109103D01*
X10675343Y92700D01*
X10737300D01*
Y154657D01*
D02*
G37*
G36*
X10452700D02*
Y92700D01*
X10514657D01*
X10510262Y109103D01*
X10500335Y126297D01*
X10486297Y140335D01*
X10469103Y150262D01*
X10452700Y154657D01*
D02*
G37*
G36*
X10427300D02*
X10410897Y150262D01*
X10393703Y140335D01*
X10379665Y126297D01*
X10369738Y109103D01*
X10365343Y92700D01*
X10427300D01*
Y154657D01*
D02*
G37*
G36*
X10132700D02*
Y92700D01*
X10194657D01*
X10190262Y109103D01*
X10180335Y126297D01*
X10166297Y140335D01*
X10149103Y150262D01*
X10132700Y154657D01*
D02*
G37*
G36*
X10107300D02*
X10090897Y150262D01*
X10073703Y140335D01*
X10059665Y126297D01*
X10049738Y109103D01*
X10045343Y92700D01*
X10107300D01*
Y154657D01*
D02*
G37*
G36*
X9112700D02*
Y92700D01*
X9174657D01*
X9170262Y109103D01*
X9160335Y126297D01*
X9146297Y140335D01*
X9129103Y150262D01*
X9112700Y154657D01*
D02*
G37*
G36*
X9087300D02*
X9070897Y150262D01*
X9053704Y140335D01*
X9039665Y126297D01*
X9029738Y109103D01*
X9025343Y92700D01*
X9087300D01*
Y154657D01*
D02*
G37*
G36*
X754657Y147300D02*
X692700D01*
Y85343D01*
X709103Y89738D01*
X726296Y99665D01*
X740335Y113703D01*
X750262Y130897D01*
X754657Y147300D01*
D02*
G37*
G36*
X667300D02*
X605343D01*
X609738Y130897D01*
X619665Y113703D01*
X633703Y99665D01*
X650897Y89738D01*
X667300Y85343D01*
Y147300D01*
D02*
G37*
G36*
X9832700Y144657D02*
Y82700D01*
X9894657D01*
X9890262Y99103D01*
X9880335Y116297D01*
X9866296Y130335D01*
X9849103Y140262D01*
X9832700Y144657D01*
D02*
G37*
G36*
X9807300D02*
X9790897Y140262D01*
X9773703Y130335D01*
X9759665Y116297D01*
X9749738Y99103D01*
X9745343Y82700D01*
X9807300D01*
Y144657D01*
D02*
G37*
G36*
X9442700D02*
Y82700D01*
X9504657D01*
X9500262Y99103D01*
X9490335Y116297D01*
X9476297Y130335D01*
X9459103Y140262D01*
X9442700Y144657D01*
D02*
G37*
G36*
X9417300D02*
X9400897Y140262D01*
X9383703Y130335D01*
X9369665Y116297D01*
X9359738Y99103D01*
X9355343Y82700D01*
X9417300D01*
Y144657D01*
D02*
G37*
G36*
X2054657Y127300D02*
X1992700D01*
Y65343D01*
X2009103Y69738D01*
X2026297Y79665D01*
X2040335Y93703D01*
X2050262Y110897D01*
X2054657Y127300D01*
D02*
G37*
G36*
X1967300D02*
X1905343D01*
X1909738Y110897D01*
X1919665Y93703D01*
X1933704Y79665D01*
X1950897Y69738D01*
X1967300Y65343D01*
Y127300D01*
D02*
G37*
G36*
X6034657Y117300D02*
X5972700D01*
Y55343D01*
X5989103Y59738D01*
X6006297Y69665D01*
X6020335Y83703D01*
X6030262Y100897D01*
X6034657Y117300D01*
D02*
G37*
G36*
X5947300D02*
X5885343D01*
X5889738Y100897D01*
X5899665Y83703D01*
X5913703Y69665D01*
X5930897Y59738D01*
X5947300Y55343D01*
Y117300D01*
D02*
G37*
G36*
X4364657D02*
X4302700D01*
Y55343D01*
X4319103Y59738D01*
X4336297Y69665D01*
X4350335Y83703D01*
X4360262Y100897D01*
X4364657Y117300D01*
D02*
G37*
G36*
X4277300D02*
X4215343D01*
X4219738Y100897D01*
X4229665Y83703D01*
X4243703Y69665D01*
X4260897Y59738D01*
X4277300Y55343D01*
Y117300D01*
D02*
G37*
G36*
X5584657Y107300D02*
X5522700D01*
Y45343D01*
X5539103Y49738D01*
X5556296Y59665D01*
X5570335Y73703D01*
X5580262Y90897D01*
X5584657Y107300D01*
D02*
G37*
G36*
X5497300D02*
X5435343D01*
X5439738Y90897D01*
X5449665Y73703D01*
X5463703Y59665D01*
X5480897Y49738D01*
X5497300Y45343D01*
Y107300D01*
D02*
G37*
G36*
X4734657D02*
X4672700D01*
Y45343D01*
X4689103Y49738D01*
X4706297Y59665D01*
X4720335Y73703D01*
X4730262Y90897D01*
X4734657Y107300D01*
D02*
G37*
G36*
X4647300D02*
X4585343D01*
X4589738Y90897D01*
X4599665Y73703D01*
X4613703Y59665D01*
X4630897Y49738D01*
X4647300Y45343D01*
Y107300D01*
D02*
G37*
G36*
X5154657Y97300D02*
X5092700D01*
Y35343D01*
X5109103Y39738D01*
X5126297Y49665D01*
X5140335Y63703D01*
X5150262Y80897D01*
X5154657Y97300D01*
D02*
G37*
G36*
X5067300D02*
X5005343D01*
X5009738Y80897D01*
X5019665Y63703D01*
X5033703Y49665D01*
X5050897Y39738D01*
X5067300Y35343D01*
Y97300D01*
D02*
G37*
G36*
X7284657Y87300D02*
X7222700D01*
Y25343D01*
X7239103Y29738D01*
X7256297Y39665D01*
X7270335Y53703D01*
X7280262Y70897D01*
X7284657Y87300D01*
D02*
G37*
G36*
X7197300D02*
X7135343D01*
X7139738Y70897D01*
X7149665Y53703D01*
X7163703Y39665D01*
X7180897Y29738D01*
X7197300Y25343D01*
Y87300D01*
D02*
G37*
G36*
X6984657D02*
X6922700D01*
Y25343D01*
X6939103Y29738D01*
X6956296Y39665D01*
X6970335Y53703D01*
X6980262Y70897D01*
X6984657Y87300D01*
D02*
G37*
G36*
X6897300D02*
X6835343D01*
X6839738Y70897D01*
X6849665Y53703D01*
X6863703Y39665D01*
X6880897Y29738D01*
X6897300Y25343D01*
Y87300D01*
D02*
G37*
G36*
X12567275Y375400D02*
X12532725D01*
X12498838Y368659D01*
X12466917Y355437D01*
X12438189Y336242D01*
X12413758Y311811D01*
X12394563Y283083D01*
X12381341Y251162D01*
X12374600Y217275D01*
Y182725D01*
X12381341Y148838D01*
X12394563Y116917D01*
X12413758Y88189D01*
X12438189Y63758D01*
X12466917Y44563D01*
X12498838Y31341D01*
X12532725Y24600D01*
X12567275D01*
X12601162Y31341D01*
X12633083Y44563D01*
X12661811Y63758D01*
X12686242Y88189D01*
X12705437Y116917D01*
X12718659Y148838D01*
X12725400Y182725D01*
Y217275D01*
X12718659Y251162D01*
X12705437Y283083D01*
X12686242Y311811D01*
X12661811Y336242D01*
X12633083Y355437D01*
X12601162Y368659D01*
X12567275Y375400D01*
D02*
G37*
G36*
X6417275D02*
X6382725D01*
X6348838Y368659D01*
X6316917Y355437D01*
X6288189Y336242D01*
X6263758Y311811D01*
X6244563Y283083D01*
X6231341Y251162D01*
X6224600Y217275D01*
Y182725D01*
X6231341Y148838D01*
X6244563Y116917D01*
X6263758Y88189D01*
X6288189Y63758D01*
X6316917Y44563D01*
X6348838Y31341D01*
X6382725Y24600D01*
X6417275D01*
X6451162Y31341D01*
X6483083Y44563D01*
X6511811Y63758D01*
X6536242Y88189D01*
X6555437Y116917D01*
X6568659Y148838D01*
X6575400Y182725D01*
Y217275D01*
X6568659Y251162D01*
X6555437Y283083D01*
X6536242Y311811D01*
X6511811Y336242D01*
X6483083Y355437D01*
X6451162Y368659D01*
X6417275Y375400D01*
D02*
G37*
G36*
X425400Y187300D02*
X262700D01*
Y24600D01*
X267275D01*
X301162Y31341D01*
X333083Y44563D01*
X361811Y63758D01*
X386242Y88189D01*
X405437Y116917D01*
X418659Y148838D01*
X425400Y182725D01*
Y187300D01*
D02*
G37*
G36*
X237300D02*
X74600D01*
Y182725D01*
X81341Y148838D01*
X94563Y116917D01*
X113758Y88189D01*
X138189Y63758D01*
X166917Y44563D01*
X198838Y31341D01*
X232725Y24600D01*
X237300D01*
Y187300D01*
D02*
G37*
G36*
X12174657Y77300D02*
X12112700D01*
Y15343D01*
X12129103Y19738D01*
X12146297Y29665D01*
X12160335Y43703D01*
X12170262Y60897D01*
X12174657Y77300D01*
D02*
G37*
G36*
X12087300D02*
X12025343D01*
X12029738Y60897D01*
X12039665Y43703D01*
X12053703Y29665D01*
X12070897Y19738D01*
X12087300Y15343D01*
Y77300D01*
D02*
G37*
G36*
X11824657D02*
X11762700D01*
Y15343D01*
X11779103Y19738D01*
X11796297Y29665D01*
X11810335Y43703D01*
X11820262Y60897D01*
X11824657Y77300D01*
D02*
G37*
G36*
X11737300D02*
X11675343D01*
X11679738Y60897D01*
X11689665Y43703D01*
X11703704Y29665D01*
X11720897Y19738D01*
X11737300Y15343D01*
Y77300D01*
D02*
G37*
G36*
X11494657D02*
X11432700D01*
Y15343D01*
X11449103Y19738D01*
X11466297Y29665D01*
X11480335Y43703D01*
X11490262Y60897D01*
X11494657Y77300D01*
D02*
G37*
G36*
X11407300D02*
X11345343D01*
X11349738Y60897D01*
X11359665Y43703D01*
X11373703Y29665D01*
X11390897Y19738D01*
X11407300Y15343D01*
Y77300D01*
D02*
G37*
G36*
X8784657D02*
X8722700D01*
Y15343D01*
X8739103Y19738D01*
X8756297Y29665D01*
X8770335Y43703D01*
X8780262Y60897D01*
X8784657Y77300D01*
D02*
G37*
G36*
X8697300D02*
X8635343D01*
X8639738Y60897D01*
X8649665Y43703D01*
X8663704Y29665D01*
X8680897Y19738D01*
X8697300Y15343D01*
Y77300D01*
D02*
G37*
G36*
X8474657D02*
X8412700D01*
Y15343D01*
X8429103Y19738D01*
X8446297Y29665D01*
X8460335Y43703D01*
X8470262Y60897D01*
X8474657Y77300D01*
D02*
G37*
G36*
X8387300D02*
X8325343D01*
X8329738Y60897D01*
X8339665Y43703D01*
X8353703Y29665D01*
X8370897Y19738D01*
X8387300Y15343D01*
Y77300D01*
D02*
G37*
G36*
X8174657D02*
X8112700D01*
Y15343D01*
X8129103Y19738D01*
X8146297Y29665D01*
X8160335Y43703D01*
X8170262Y60897D01*
X8174657Y77300D01*
D02*
G37*
G36*
X8087300D02*
X8025343D01*
X8029738Y60897D01*
X8039665Y43703D01*
X8053703Y29665D01*
X8070897Y19738D01*
X8087300Y15343D01*
Y77300D01*
D02*
G37*
G36*
X7894657D02*
X7832700D01*
Y15343D01*
X7849103Y19738D01*
X7866297Y29665D01*
X7880335Y43703D01*
X7890262Y60897D01*
X7894657Y77300D01*
D02*
G37*
G36*
X7807300D02*
X7745343D01*
X7749738Y60897D01*
X7759665Y43703D01*
X7773704Y29665D01*
X7790897Y19738D01*
X7807300Y15343D01*
Y77300D01*
D02*
G37*
G36*
X7584657D02*
X7522700D01*
Y15343D01*
X7539103Y19738D01*
X7556297Y29665D01*
X7570335Y43703D01*
X7580262Y60897D01*
X7584657Y77300D01*
D02*
G37*
G36*
X7497300D02*
X7435343D01*
X7439738Y60897D01*
X7449665Y43703D01*
X7463703Y29665D01*
X7480897Y19738D01*
X7497300Y15343D01*
Y77300D01*
D02*
G37*
%LPD*%
D12*
X3165000Y1080000D02*
D03*
X3335000D02*
D03*
D15*
X4851400Y1902200D02*
D03*
Y2060200D02*
D03*
X228600Y759200D02*
D03*
Y917200D02*
D03*
D16*
X5235200Y1803400D02*
D03*
X5077200D02*
D03*
D32*
X10227800Y1471800D02*
D03*
Y1061800D02*
D03*
X9728200Y1271800D02*
D03*
Y861800D02*
D03*
X8305800D02*
D03*
Y1271800D02*
D03*
X6934200Y1246400D02*
D03*
Y836400D02*
D03*
X5435600D02*
D03*
Y1246400D02*
D03*
D33*
X8737931Y1661750D02*
G03*
X8782069Y1661750I22069J138250D01*
G01*
X9544431D01*
X10227800Y1471800D02*
Y1494437D01*
X10161413Y1560825D02*
X10227800Y1494437D01*
X9645356Y1560825D02*
X10161413D01*
X9544431Y1661750D02*
X9645356Y1560825D01*
X3987800Y1926050D02*
Y2014211D01*
X4851400Y1903200D02*
X4856400D01*
X4851400D02*
Y1976484D01*
Y1902200D02*
Y1903200D01*
X4295989Y2322400D02*
X4494811D01*
X4645181Y2138570D02*
Y2172030D01*
X4494811Y2322400D02*
X4645181Y2172030D01*
Y2138570D02*
X4795551Y1988200D01*
X3987800Y2014211D02*
X4295989Y2322400D01*
X4795551Y1988200D02*
X4839684D01*
X4851400Y1976484D01*
X3657600Y2159000D02*
X3938600Y2440000D01*
X5883263D01*
X6062663Y2260600D01*
X7197843Y1638753D02*
X8623631Y1661750D01*
X8737931D01*
X6990026Y1830000D02*
X7181273Y1638752D01*
X7197843Y1638753D01*
X5235200Y1803400D02*
X5261800Y1830000D01*
X6990026D01*
X3144800Y1100200D02*
X3165000Y1080000D01*
X2954400Y1100200D02*
X3144800D01*
X6062663Y2260600D02*
X6070600D01*
X431800Y914400D02*
X529600Y816600D01*
X605800D01*
X609600Y812800D01*
X281200Y914400D02*
X431800D01*
X279400Y916200D02*
X281200Y914400D01*
X2108200Y1346200D02*
X2273700Y1511700D01*
X2626174D01*
X2954400Y1183474D01*
Y1100200D02*
Y1183474D01*
X2540000Y863600D02*
X3276600D01*
X965200Y965200D02*
X1572924D01*
X1598324Y939800D01*
X2184400D01*
X965200Y1117600D02*
Y1447800D01*
X2590800Y1346200D02*
Y1426300D01*
X2184400Y939800D02*
X2580899Y1336299D01*
X2590800Y1346200D01*
X2235200Y431800D02*
Y558800D01*
X2540000Y863600D01*
X4856400Y1903200D02*
X4956200Y1803400D01*
X5078200D01*
X3595884Y1534916D02*
X3755200Y1375600D01*
Y203200D02*
Y1375600D01*
X2222277Y799877D02*
X2641600Y1219200D01*
X965200Y799877D02*
X2222277D01*
X3440600Y2376000D02*
X3657600Y2159000D01*
X1258400Y2376000D02*
X3440600D01*
D34*
X10480000Y1700000D02*
Y1810000D01*
X10598550Y780000D02*
Y1215369D01*
X11710000Y2090000D02*
Y2270000D01*
X11720000Y680000D02*
Y2080000D01*
Y2280000D02*
Y2650000D01*
X11710000Y2090000D02*
X11720000Y2080000D01*
X11710000Y2270000D02*
X11720000Y2280000D01*
Y2650000D02*
Y3300000D01*
X11720000Y3300000D02*
X11720000Y3300000D01*
Y2650000D02*
X12090000D01*
X12386000Y2354000D01*
Y2270800D02*
Y2354000D01*
X10367620Y1446300D02*
X10598550Y1215369D01*
X10236300Y1446300D02*
X10367620D01*
X10277300Y1497300D02*
X10480000Y1700000D01*
D35*
X8729780Y1540000D02*
G03*
X8790219Y1540000I30220J260000D01*
G01*
X9728200Y1271800D02*
Y1305800D01*
X9494000Y1540000D02*
X9512599Y1521401D01*
X9728200Y1305800D01*
X8790219Y1540000D02*
X9494000D01*
X4395400Y2082400D02*
X4404700Y2073100D01*
Y1050700D02*
Y2073100D01*
Y1050700D02*
X4414000Y1041400D01*
X8477550Y1343488D02*
X8674062Y1540000D01*
X8729780D01*
X6426200Y2819400D02*
X7185600Y2060000D01*
X10251753D02*
X10398504Y2206750D01*
X7185600Y2060000D02*
X10251753D01*
X8305800Y1271800D02*
Y1298738D01*
X8350550Y1343488D01*
X8477550D01*
X10398504Y2206750D02*
X10971550D01*
X11161500Y2016800D01*
X11298000D01*
X8305800Y827800D02*
Y861800D01*
X8102550Y624550D02*
X8305800Y827800D01*
X7112050Y624550D02*
X8102550D01*
X6934200Y802400D02*
Y836400D01*
Y802400D02*
X7112050Y624550D01*
X6934200Y1246400D02*
X7298750D01*
X6934200D02*
Y1280400D01*
X5715531Y1354581D02*
Y1375469D01*
X5823712Y1483650D01*
X6730950D01*
X6934200Y1280400D01*
X5435600Y1246400D02*
X5607350D01*
X5715531Y1354581D01*
X9728200Y861800D02*
X10070000D01*
X9312850D02*
X9728200D01*
X10070000D02*
X10169250Y961050D01*
Y969249D02*
X10227800Y1027799D01*
Y1061800D01*
X10169250Y961050D02*
Y969249D01*
X8305800Y861800D02*
X8721150D01*
X8757400Y898050D01*
Y1066800D01*
X2692400Y660400D02*
X3250333D01*
X3556000Y966067D02*
Y1295400D01*
X3250333Y660400D02*
X3556000Y966067D01*
X6571616Y3486784D02*
X6578600Y3479800D01*
X6571616Y3486784D02*
Y3613784D01*
X6502400Y3683000D02*
X6571616Y3613784D01*
X4089400Y3683000D02*
X6502400D01*
X9276600Y898050D02*
Y1066800D01*
Y898050D02*
X9312850Y861800D01*
X7890450Y1271800D02*
X8305800D01*
X7854200Y1235550D02*
X7890450Y1271800D01*
X7854200Y1066800D02*
Y1235550D01*
X7298750Y1246400D02*
X7335000Y1210150D01*
Y1066800D02*
Y1210150D01*
X6493450Y836400D02*
X6934200D01*
X6457200Y872650D02*
X6493450Y836400D01*
X6457200Y872650D02*
Y1041400D01*
X5435600Y836400D02*
X5901750D01*
X5938000Y872650D01*
Y1041400D01*
X4969450Y1246400D02*
X5435600D01*
X4933200Y1210150D02*
X4969450Y1246400D01*
X4933200Y1041400D02*
Y1210150D01*
X3454400Y1397000D02*
Y1625600D01*
X3556000Y1727200D01*
X3454400Y1397000D02*
X3556000Y1295400D01*
X2463800Y3987800D02*
X5003800D01*
X2032000Y3556000D02*
X2463800Y3987800D01*
D36*
X4395400Y2082400D02*
D03*
Y3249400D02*
D03*
X5562400Y2082400D02*
D03*
Y3249400D02*
D03*
D37*
X4978400Y2766400D02*
D03*
Y2565400D02*
D03*
D38*
X6400000Y4300000D02*
D03*
Y200000D02*
D03*
X250000Y4300000D02*
D03*
X12550000Y200000D02*
D03*
X250000D02*
D03*
X12550000Y4300000D02*
D03*
D39*
X647400Y1228800D02*
D03*
Y650800D02*
D03*
Y3845000D02*
D03*
Y3267000D02*
D03*
D40*
X697400Y507800D02*
D03*
Y1371800D02*
D03*
Y3124000D02*
D03*
Y3988000D02*
D03*
D41*
X279400Y507800D02*
D03*
Y1371800D02*
D03*
Y3124000D02*
D03*
Y3988000D02*
D03*
D42*
X4005200Y228600D02*
D03*
X3755200D02*
D03*
X3505200D02*
D03*
X3255200D02*
D03*
X3005200D02*
D03*
D43*
X2755200D02*
D03*
D44*
X1320800Y508000D02*
D03*
D45*
X1574800D02*
D03*
D46*
X10600000Y780000D02*
D03*
X10480000Y1810000D02*
D03*
X9820000Y2320000D02*
D03*
X9480000Y2330000D02*
D03*
X9160000D02*
D03*
X8810000Y2320000D02*
D03*
X8500000D02*
D03*
X8230000D02*
D03*
X7940000D02*
D03*
X7660000D02*
D03*
X7380000D02*
D03*
X9750000Y3040000D02*
D03*
Y2850000D02*
D03*
X9570000Y3030000D02*
D03*
X9560000Y3220000D02*
D03*
X9750000D02*
D03*
X11350000Y1570000D02*
D03*
Y1840000D02*
D03*
X4770000Y2650000D02*
D03*
X4750000Y2830000D02*
D03*
Y3010000D02*
D03*
Y3220000D02*
D03*
X4740000Y3420000D02*
D03*
X4560000Y2640000D02*
D03*
X4210000Y2630000D02*
D03*
X4540000Y2810000D02*
D03*
X4210000Y2820000D02*
D03*
X3910000D02*
D03*
Y3050000D02*
D03*
Y3240000D02*
D03*
X3660000Y2820000D02*
D03*
X3380000Y2850000D02*
D03*
X3120000D02*
D03*
X2840000Y2830000D02*
D03*
X3630000Y3010000D02*
D03*
X3360000D02*
D03*
X3110000D02*
D03*
X2840000D02*
D03*
X3590000Y3260000D02*
D03*
X3310000Y3240000D02*
D03*
X1320000Y1690000D02*
D03*
X1100000Y1700000D02*
D03*
Y1900000D02*
D03*
Y2130000D02*
D03*
X1300000Y1870000D02*
D03*
X920000Y1890000D02*
D03*
X1300000Y2120000D02*
D03*
X900000D02*
D03*
X5810000Y4420000D02*
D03*
X5290000D02*
D03*
X4640000Y4400000D02*
D03*
X3840000Y4410000D02*
D03*
X3200000D02*
D03*
X5960000Y130000D02*
D03*
X5510000Y120000D02*
D03*
X5080000Y110000D02*
D03*
X4660000Y120000D02*
D03*
X4290000Y130000D02*
D03*
X140000Y1160000D02*
D03*
X130000Y3410000D02*
D03*
X120000Y3750000D02*
D03*
X1980000Y140000D02*
D03*
X1480000Y170000D02*
D03*
X1070000D02*
D03*
X680000Y160000D02*
D03*
X2400000Y4370000D02*
D03*
X1790000Y4350000D02*
D03*
X1230000Y4360000D02*
D03*
X730000Y4350000D02*
D03*
X5390000Y3840000D02*
D03*
X5210000Y3850000D02*
D03*
X5360000Y2870000D02*
D03*
X5160000D02*
D03*
Y3090000D02*
D03*
Y3290000D02*
D03*
X5150000Y3470000D02*
D03*
X9650000Y1800000D02*
D03*
X8760000D02*
D03*
X7840000D02*
D03*
X12030000Y4160000D02*
D03*
X12020000Y4430000D02*
D03*
X11690000Y4160000D02*
D03*
Y4420000D02*
D03*
X11300000Y4160000D02*
D03*
X11280000Y4420000D02*
D03*
X10870000Y4160000D02*
D03*
X10860000Y4410000D02*
D03*
X10440000Y4160000D02*
D03*
X10410000Y4410000D02*
D03*
X10010000Y4150000D02*
D03*
X9990000Y4420000D02*
D03*
X9560000Y4160000D02*
D03*
Y4420000D02*
D03*
X9130000Y4160000D02*
D03*
Y4420000D02*
D03*
X8720000Y4160000D02*
D03*
Y4410000D02*
D03*
X8320000Y4160000D02*
D03*
X8300000Y4410000D02*
D03*
X7990000Y4160000D02*
D03*
X7970000Y4410000D02*
D03*
X7640000Y4160000D02*
D03*
X7650000Y4410000D02*
D03*
X7330000Y4160000D02*
D03*
X7320000Y4410000D02*
D03*
X12100000Y90000D02*
D03*
X12070000Y410000D02*
D03*
X11750000Y90000D02*
D03*
X11770000Y400000D02*
D03*
X11420000Y90000D02*
D03*
X11390000Y400000D02*
D03*
X11110000Y80000D02*
D03*
X11050000Y390000D02*
D03*
X10750000Y80000D02*
D03*
Y390000D02*
D03*
X10440000Y80000D02*
D03*
Y390000D02*
D03*
X10120000Y80000D02*
D03*
X10100000Y300000D02*
D03*
X9820000Y70000D02*
D03*
X9800000Y290000D02*
D03*
X9430000Y70000D02*
D03*
X9440000Y290000D02*
D03*
X9100000Y80000D02*
D03*
X9080000Y280000D02*
D03*
X8710000Y90000D02*
D03*
X8730000Y280000D02*
D03*
X8400000Y90000D02*
D03*
Y270000D02*
D03*
X8100000Y90000D02*
D03*
Y270000D02*
D03*
X7820000Y90000D02*
D03*
X7790000Y260000D02*
D03*
X7510000Y90000D02*
D03*
Y260000D02*
D03*
X7210000Y100000D02*
D03*
X7220000Y260000D02*
D03*
X6910000D02*
D03*
Y100000D02*
D03*
X11240000Y2340000D02*
D03*
X11280000Y3050000D02*
D03*
X11260000Y3250000D02*
D03*
X11240000Y3470000D02*
D03*
X11250000Y3680000D02*
D03*
X10600000Y2870000D02*
D03*
X10400000Y2860000D02*
D03*
X10580000Y3080000D02*
D03*
X10400000Y3090000D02*
D03*
X10590000Y3290000D02*
D03*
X10410000Y3270000D02*
D03*
X10590000Y3490000D02*
D03*
X10370000Y3500000D02*
D03*
X10590000Y3690000D02*
D03*
X10370000Y3680000D02*
D03*
X9547300Y2832700D02*
D03*
X9740000Y3470000D02*
D03*
X9560000D02*
D03*
X9740000Y3670000D02*
D03*
X9540000Y3680000D02*
D03*
X8920000Y2850000D02*
D03*
X8710000Y2840000D02*
D03*
X8920000Y3050000D02*
D03*
X8710000Y3040000D02*
D03*
X8910000Y3240000D02*
D03*
X8680000Y3220000D02*
D03*
X8910000Y3450000D02*
D03*
X8660000D02*
D03*
X8910000Y3660000D02*
D03*
X8650000D02*
D03*
X7970000Y2850000D02*
D03*
X7740000D02*
D03*
X7960000Y3050000D02*
D03*
X7740000Y3040000D02*
D03*
X7960000Y3240000D02*
D03*
X7730000Y3230000D02*
D03*
X7950000Y3440000D02*
D03*
X7720000D02*
D03*
X7950000Y3650000D02*
D03*
X7710000D02*
D03*
X11710000Y2090000D02*
D03*
Y2280000D02*
D03*
X11720000Y3280000D02*
D03*
X11720000Y680000D02*
D03*
X10520000Y630000D02*
D03*
X10480000Y2010000D02*
D03*
X431800Y914400D02*
D03*
X6070600Y2260600D02*
D03*
X3302000Y863600D02*
D03*
X965200Y965200D02*
D03*
Y1117600D02*
D03*
X2590800Y1426300D02*
D03*
X2954400Y1100200D02*
D03*
X6578600Y3479800D02*
D03*
X6426200Y2819400D02*
D03*
X2235200Y431800D02*
D03*
X2108200Y1346200D02*
D03*
X3987800Y1926050D02*
D03*
X3595884Y1534916D02*
D03*
X3556000Y1295400D02*
D03*
Y1727200D02*
D03*
X2692400Y660400D02*
D03*
X2641600Y1219200D02*
D03*
X4089400Y3683000D02*
D03*
X5003800Y3987800D02*
D03*
X2032000Y3556000D02*
D03*
X3657600Y2159000D02*
D03*
X1258400Y2376000D02*
D03*
X609600Y812800D02*
D03*
X965200Y1447800D02*
D03*
Y799877D02*
D03*
D47*
X4933200Y1041400D02*
D03*
X4414000D02*
D03*
X6457200D02*
D03*
X5938000D02*
D03*
X7854200Y1066800D02*
D03*
X7335000D02*
D03*
X9276600D02*
D03*
X8757400D02*
D03*
D48*
X12386000Y2270800D02*
D03*
D49*
X11298000Y2524800D02*
D03*
Y2016800D02*
D03*
%TF.MD5,99cbf129812e5fa263d41c726d9e2d24*%
M02*
