%TF.GenerationSoftware,Altium Limited,Altium Designer,23.4.1 (23)*%
G04 Layer_Color=255*
%FSLAX45Y45*%
%MOMM*%
%TF.SameCoordinates,576A2805-CD40-4E5C-B7A3-750DB6231075*%
%TF.FilePolarity,Positive*%
%TF.FileFunction,Pads,Bot*%
%TF.Part,Single*%
G01*
G75*
%TA.AperFunction,SMDPad,CuDef*%
%ADD12R,1.10000X1.00000*%
G04:AMPARAMS|DCode=15|XSize=0.94mm|YSize=1.02mm|CornerRadius=0.094mm|HoleSize=0mm|Usage=FLASHONLY|Rotation=270.000|XOffset=0mm|YOffset=0mm|HoleType=Round|Shape=RoundedRectangle|*
%AMROUNDEDRECTD15*
21,1,0.94000,0.83200,0,0,270.0*
21,1,0.75200,1.02000,0,0,270.0*
1,1,0.18800,-0.41600,-0.37600*
1,1,0.18800,-0.41600,0.37600*
1,1,0.18800,0.41600,0.37600*
1,1,0.18800,0.41600,-0.37600*
%
%ADD15ROUNDEDRECTD15*%
G04:AMPARAMS|DCode=16|XSize=0.94mm|YSize=1.02mm|CornerRadius=0.094mm|HoleSize=0mm|Usage=FLASHONLY|Rotation=180.000|XOffset=0mm|YOffset=0mm|HoleType=Round|Shape=RoundedRectangle|*
%AMROUNDEDRECTD16*
21,1,0.94000,0.83200,0,0,180.0*
21,1,0.75200,1.02000,0,0,180.0*
1,1,0.18800,-0.37600,0.41600*
1,1,0.18800,0.37600,0.41600*
1,1,0.18800,0.37600,-0.41600*
1,1,0.18800,-0.37600,-0.41600*
%
%ADD16ROUNDEDRECTD16*%
G04:AMPARAMS|DCode=32|XSize=2.21mm|YSize=1.53mm|CornerRadius=0.11475mm|HoleSize=0mm|Usage=FLASHONLY|Rotation=270.000|XOffset=0mm|YOffset=0mm|HoleType=Round|Shape=RoundedRectangle|*
%AMROUNDEDRECTD32*
21,1,2.21000,1.30050,0,0,270.0*
21,1,1.98050,1.53000,0,0,270.0*
1,1,0.22950,-0.65025,-0.99025*
1,1,0.22950,-0.65025,0.99025*
1,1,0.22950,0.65025,0.99025*
1,1,0.22950,0.65025,-0.99025*
%
%ADD32ROUNDEDRECTD32*%
%TA.AperFunction,ComponentPad*%
%ADD36C,3.00000*%
%ADD37C,1.50000*%
%TA.AperFunction,ViaPad*%
%ADD38C,3.00000*%
%TA.AperFunction,ComponentPad*%
%ADD39C,0.65000*%
%ADD40O,2.10000X1.05000*%
%ADD41O,2.00000X1.00000*%
%ADD42C,1.50800*%
%ADD43R,1.50800X1.50800*%
%ADD44C,1.39700*%
%ADD45R,1.39700X1.39700*%
%TA.AperFunction,SMDPad,CuDef*%
%ADD47R,1.36000X6.61000*%
%ADD48R,7.62000X10.84000*%
%ADD49R,3.79000X1.06000*%
D12*
X3165000Y1080000D02*
D03*
X3335000D02*
D03*
D15*
X4851400Y1902200D02*
D03*
Y2060200D02*
D03*
X228600Y759200D02*
D03*
Y917200D02*
D03*
D16*
X5235200Y1803400D02*
D03*
X5077200D02*
D03*
D32*
X10227800Y1471800D02*
D03*
Y1061800D02*
D03*
X9728200Y1271800D02*
D03*
Y861800D02*
D03*
X8305800D02*
D03*
Y1271800D02*
D03*
X6934200Y1246400D02*
D03*
Y836400D02*
D03*
X5435600D02*
D03*
Y1246400D02*
D03*
D36*
X4395400Y2082400D02*
D03*
Y3249400D02*
D03*
X5562400Y2082400D02*
D03*
Y3249400D02*
D03*
D37*
X4978400Y2766400D02*
D03*
Y2565400D02*
D03*
D38*
X6400000Y4300000D02*
D03*
Y200000D02*
D03*
X250000Y4300000D02*
D03*
X12550000Y200000D02*
D03*
X250000D02*
D03*
X12550000Y4300000D02*
D03*
D39*
X647400Y1228800D02*
D03*
Y650800D02*
D03*
Y3845000D02*
D03*
Y3267000D02*
D03*
D40*
X697400Y507800D02*
D03*
Y1371800D02*
D03*
Y3124000D02*
D03*
Y3988000D02*
D03*
D41*
X279400Y507800D02*
D03*
Y1371800D02*
D03*
Y3124000D02*
D03*
Y3988000D02*
D03*
D42*
X4005200Y228600D02*
D03*
X3755200D02*
D03*
X3505200D02*
D03*
X3255200D02*
D03*
X3005200D02*
D03*
D43*
X2755200D02*
D03*
D44*
X1320800Y508000D02*
D03*
D45*
X1574800D02*
D03*
D47*
X4933200Y1041400D02*
D03*
X4414000D02*
D03*
X6457200D02*
D03*
X5938000D02*
D03*
X7854200Y1066800D02*
D03*
X7335000D02*
D03*
X9276600D02*
D03*
X8757400D02*
D03*
D48*
X12386000Y2270800D02*
D03*
D49*
X11298000Y2524800D02*
D03*
Y2016800D02*
D03*
%TF.MD5,3564df039b44ef5e14eff0f9bd9b81f7*%
M02*
