%TF.GenerationSoftware,Altium Limited,Altium Designer,23.4.1 (23)*%
G04 Layer_Color=32896*
%FSLAX45Y45*%
%MOMM*%
%TF.SameCoordinates,576A2805-CD40-4E5C-B7A3-750DB6231075*%
%TF.FilePolarity,Positive*%
%TF.FileFunction,Legend,Bot*%
%TF.Part,Single*%
G01*
G75*
%TA.AperFunction,NonConductor*%
%ADD50C,0.25400*%
%ADD51C,0.20000*%
%ADD53C,0.12700*%
D50*
X5041838Y2184425D02*
Y2336775D01*
X4965663D01*
X4940271Y2311383D01*
Y2260600D01*
X4965663Y2235208D01*
X5041838D01*
X4991055D02*
X4940271Y2184425D01*
X4889488D02*
X4838704D01*
X4864096D01*
Y2336775D01*
X4889488Y2311383D01*
X4762529D02*
X4737137Y2336775D01*
X4686353D01*
X4660961Y2311383D01*
Y2285992D01*
X4686353Y2260600D01*
X4711745D01*
X4686353D01*
X4660961Y2235208D01*
Y2209817D01*
X4686353Y2184425D01*
X4737137D01*
X4762529Y2209817D01*
X5346646Y1930425D02*
Y2082775D01*
X5270471D01*
X5245079Y2057383D01*
Y2006600D01*
X5270471Y1981208D01*
X5346646D01*
X5295863D02*
X5245079Y1930425D01*
X5194296D02*
X5143512D01*
X5168904D01*
Y2082775D01*
X5194296Y2057383D01*
X5067337Y1930425D02*
X5016553D01*
X5041945D01*
Y2082775D01*
X5067337Y2057383D01*
X330159Y1041425D02*
Y1193775D01*
X253983D01*
X228592Y1168383D01*
Y1117600D01*
X253983Y1092208D01*
X330159D01*
X279375D02*
X228592Y1041425D01*
X76241D02*
X177808D01*
X76241Y1142992D01*
Y1168383D01*
X101633Y1193775D01*
X152416D01*
X177808Y1168383D01*
X12039600Y2982017D02*
Y3083584D01*
X12064992Y3108976D01*
X12115775D01*
X12141167Y3083584D01*
Y2982017D01*
X12115775Y2956625D01*
X12064992D01*
X12090383Y3007409D02*
X12039600Y2956625D01*
X12064992D02*
X12039600Y2982017D01*
X11988816Y2956625D02*
X11938033D01*
X11963424D01*
Y3108976D01*
X11988816Y3083584D01*
X9951720Y1648411D02*
Y1496060D01*
X9875545D01*
X9850153Y1521452D01*
Y1623019D01*
X9875545Y1648411D01*
X9951720D01*
X9799369Y1496060D02*
X9748586D01*
X9773977D01*
Y1648411D01*
X9799369Y1623019D01*
X9672410D02*
X9647019Y1648411D01*
X9596235D01*
X9570843Y1623019D01*
Y1521452D01*
X9596235Y1496060D01*
X9647019D01*
X9672410Y1521452D01*
Y1623019D01*
X8402320Y1689051D02*
Y1536700D01*
X8326145D01*
X8300753Y1562092D01*
Y1663659D01*
X8326145Y1689051D01*
X8402320D01*
X8249969Y1562092D02*
X8224577Y1536700D01*
X8173794D01*
X8148402Y1562092D01*
Y1663659D01*
X8173794Y1689051D01*
X8224577D01*
X8249969Y1663659D01*
Y1638267D01*
X8224577Y1612875D01*
X8148402D01*
X7030720Y1623011D02*
Y1470660D01*
X6954545D01*
X6929153Y1496052D01*
Y1597619D01*
X6954545Y1623011D01*
X7030720D01*
X6878369Y1597619D02*
X6852977Y1623011D01*
X6802194D01*
X6776802Y1597619D01*
Y1572227D01*
X6802194Y1546835D01*
X6776802Y1521443D01*
Y1496052D01*
X6802194Y1470660D01*
X6852977D01*
X6878369Y1496052D01*
Y1521443D01*
X6852977Y1546835D01*
X6878369Y1572227D01*
Y1597619D01*
X6852977Y1546835D02*
X6802194D01*
X5532120Y1663651D02*
Y1511300D01*
X5455945D01*
X5430553Y1536692D01*
Y1638259D01*
X5455945Y1663651D01*
X5532120D01*
X5379769D02*
X5278202D01*
Y1638259D01*
X5379769Y1536692D01*
Y1511300D01*
X10324320Y1889050D02*
Y1736700D01*
X10248145D01*
X10222753Y1762091D01*
Y1863658D01*
X10248145Y1889050D01*
X10324320D01*
X10070402D02*
X10121186Y1863658D01*
X10171969Y1812875D01*
Y1762091D01*
X10146578Y1736700D01*
X10095794D01*
X10070402Y1762091D01*
Y1787483D01*
X10095794Y1812875D01*
X10171969D01*
X7708871Y1625583D02*
X7734263Y1650975D01*
X7785046D01*
X7810438Y1625583D01*
Y1524017D01*
X7785046Y1498625D01*
X7734263D01*
X7708871Y1524017D01*
X7658088Y1498625D02*
X7607304D01*
X7632696D01*
Y1650975D01*
X7658088Y1625583D01*
X7429561Y1650975D02*
X7480345Y1625583D01*
X7531129Y1574800D01*
Y1524017D01*
X7505737Y1498625D01*
X7454953D01*
X7429561Y1524017D01*
Y1549408D01*
X7454953Y1574800D01*
X7531129D01*
X4762471Y1600183D02*
X4787863Y1625575D01*
X4838646D01*
X4864038Y1600183D01*
Y1498617D01*
X4838646Y1473225D01*
X4787863D01*
X4762471Y1498617D01*
X4711688Y1473225D02*
X4660904D01*
X4686296D01*
Y1625575D01*
X4711688Y1600183D01*
X4483161Y1625575D02*
X4584729D01*
Y1549400D01*
X4533945Y1574792D01*
X4508553D01*
X4483161Y1549400D01*
Y1498617D01*
X4508553Y1473225D01*
X4559337D01*
X4584729Y1498617D01*
X9080471Y1625583D02*
X9105863Y1650975D01*
X9156646D01*
X9182038Y1625583D01*
Y1524017D01*
X9156646Y1498625D01*
X9105863D01*
X9080471Y1524017D01*
X9029688Y1498625D02*
X8978904D01*
X9004296D01*
Y1650975D01*
X9029688Y1625583D01*
X8826553Y1498625D02*
Y1650975D01*
X8902729Y1574800D01*
X8801161D01*
X6261071Y1600183D02*
X6286463Y1625575D01*
X6337246D01*
X6362638Y1600183D01*
Y1498617D01*
X6337246Y1473225D01*
X6286463D01*
X6261071Y1498617D01*
X6210288Y1473225D02*
X6159504D01*
X6184896D01*
Y1625575D01*
X6210288Y1600183D01*
X6083329D02*
X6057937Y1625575D01*
X6007153D01*
X5981761Y1600183D01*
Y1574792D01*
X6007153Y1549400D01*
X6032545D01*
X6007153D01*
X5981761Y1524008D01*
Y1498617D01*
X6007153Y1473225D01*
X6057937D01*
X6083329Y1498617D01*
X3326184Y1308608D02*
X3351576Y1283216D01*
Y1232433D01*
X3326184Y1207041D01*
X3224617D01*
X3199225Y1232433D01*
Y1283216D01*
X3224617Y1308608D01*
X3326184Y1359392D02*
X3351576Y1384784D01*
Y1435567D01*
X3326184Y1460959D01*
X3300792D01*
X3275400Y1435567D01*
Y1410175D01*
Y1435567D01*
X3250008Y1460959D01*
X3224617D01*
X3199225Y1435567D01*
Y1384784D01*
X3224617Y1359392D01*
D51*
X10237800Y1641400D02*
G03*
X10237800Y1641400I-10000J0D01*
G01*
X11069000Y2016800D02*
G03*
X11069000Y2016800I-10000J0D01*
G01*
X9738200Y692200D02*
G03*
X9738200Y692200I-10000J0D01*
G01*
X8315800Y1441400D02*
G03*
X8315800Y1441400I-10000J0D01*
G01*
X6944200Y666800D02*
G03*
X6944200Y666800I-10000J0D01*
G01*
X5445600Y1416000D02*
G03*
X5445600Y1416000I-10000J0D01*
G01*
D53*
X3235000Y1035000D02*
X3265000D01*
X3235000Y1125000D02*
X3265000D01*
X10082800Y1531800D02*
X10117800D01*
X10082800Y1001800D02*
Y1531800D01*
Y1001800D02*
X10117800D01*
X10337800Y1531800D02*
X10372800D01*
Y1001800D02*
Y1531800D01*
X10337800Y1001800D02*
X10372800D01*
X4920400Y1901200D02*
Y2061200D01*
X4782400Y1901200D02*
Y2061200D01*
X5076200Y1872400D02*
X5236200D01*
X5076200Y1734400D02*
X5236200D01*
X297600Y758200D02*
Y918200D01*
X159600Y758200D02*
Y918200D01*
X4514600Y1371400D02*
X4832600D01*
X4514600Y711400D02*
X4832600D01*
X6038600Y1371400D02*
X6356600D01*
X6038600Y711400D02*
X6356600D01*
X7435600Y1396800D02*
X7753600D01*
X7435600Y736800D02*
X7753600D01*
X8858000Y1396800D02*
X9176000D01*
X8858000Y736800D02*
X9176000D01*
X11646500Y2778800D02*
X11958000D01*
X11646500Y1762800D02*
X11958000D01*
X11646500D02*
Y2778800D01*
X9583200Y1331800D02*
X9618200D01*
X9583200Y801800D02*
Y1331800D01*
Y801800D02*
X9618200D01*
X9838200Y1331800D02*
X9873200D01*
Y801800D02*
Y1331800D01*
X9838200Y801800D02*
X9873200D01*
X8415800D02*
X8450800D01*
Y1331800D01*
X8415800D02*
X8450800D01*
X8160800Y801800D02*
X8195800D01*
X8160800D02*
Y1331800D01*
X8195800D01*
X6789200Y1306400D02*
X6824200D01*
X6789200Y776400D02*
Y1306400D01*
Y776400D02*
X6824200D01*
X7044200Y1306400D02*
X7079200D01*
Y776400D02*
Y1306400D01*
X7044200Y776400D02*
X7079200D01*
X5545600D02*
X5580600D01*
Y1306400D01*
X5545600D02*
X5580600D01*
X5290600Y776400D02*
X5325600D01*
X5290600D02*
Y1306400D01*
X5325600D01*
%TF.MD5,7690dfc6b8a1dd9892aff7b52c794736*%
M02*
