%TF.GenerationSoftware,Altium Limited,Altium Designer,23.4.1 (23)*%
G04 Layer_Color=128*
%FSLAX45Y45*%
%MOMM*%
%TF.SameCoordinates,576A2805-CD40-4E5C-B7A3-750DB6231075*%
%TF.FilePolarity,Positive*%
%TF.FileFunction,Paste,Bot*%
%TF.Part,Single*%
G01*
G75*
%TA.AperFunction,SMDPad,CuDef*%
%ADD12R,1.10000X1.00000*%
G04:AMPARAMS|DCode=15|XSize=0.94mm|YSize=1.02mm|CornerRadius=0.094mm|HoleSize=0mm|Usage=FLASHONLY|Rotation=270.000|XOffset=0mm|YOffset=0mm|HoleType=Round|Shape=RoundedRectangle|*
%AMROUNDEDRECTD15*
21,1,0.94000,0.83200,0,0,270.0*
21,1,0.75200,1.02000,0,0,270.0*
1,1,0.18800,-0.41600,-0.37600*
1,1,0.18800,-0.41600,0.37600*
1,1,0.18800,0.41600,0.37600*
1,1,0.18800,0.41600,-0.37600*
%
%ADD15ROUNDEDRECTD15*%
G04:AMPARAMS|DCode=16|XSize=0.94mm|YSize=1.02mm|CornerRadius=0.094mm|HoleSize=0mm|Usage=FLASHONLY|Rotation=180.000|XOffset=0mm|YOffset=0mm|HoleType=Round|Shape=RoundedRectangle|*
%AMROUNDEDRECTD16*
21,1,0.94000,0.83200,0,0,180.0*
21,1,0.75200,1.02000,0,0,180.0*
1,1,0.18800,-0.37600,0.41600*
1,1,0.18800,0.37600,0.41600*
1,1,0.18800,0.37600,-0.41600*
1,1,0.18800,-0.37600,-0.41600*
%
%ADD16ROUNDEDRECTD16*%
G04:AMPARAMS|DCode=32|XSize=2.21mm|YSize=1.53mm|CornerRadius=0.11475mm|HoleSize=0mm|Usage=FLASHONLY|Rotation=270.000|XOffset=0mm|YOffset=0mm|HoleType=Round|Shape=RoundedRectangle|*
%AMROUNDEDRECTD32*
21,1,2.21000,1.30050,0,0,270.0*
21,1,1.98050,1.53000,0,0,270.0*
1,1,0.22950,-0.65025,-0.99025*
1,1,0.22950,-0.65025,0.99025*
1,1,0.22950,0.65025,0.99025*
1,1,0.22950,0.65025,-0.99025*
%
%ADD32ROUNDEDRECTD32*%
%ADD47R,1.36000X6.61000*%
%ADD49R,3.79000X1.06000*%
G36*
X12712500Y2117800D02*
X12567500D01*
Y2243800D01*
X12712500D01*
Y2117800D01*
D02*
G37*
G36*
X12458500D02*
X12313500D01*
Y2243800D01*
X12458500D01*
Y2117800D01*
D02*
G37*
G36*
X12204500D02*
X12059500D01*
Y2243800D01*
X12204500D01*
Y2117800D01*
D02*
G37*
G36*
X12712500Y1937800D02*
X12567500D01*
Y2063800D01*
X12712500D01*
Y1937800D01*
D02*
G37*
G36*
X12458500D02*
X12313500D01*
Y2063800D01*
X12458500D01*
Y1937800D01*
D02*
G37*
G36*
X12204500D02*
X12059500D01*
Y2063800D01*
X12204500D01*
Y1937800D01*
D02*
G37*
G36*
X12712500Y1757800D02*
X12567500D01*
Y1883800D01*
X12712500D01*
Y1757800D01*
D02*
G37*
G36*
X12458500D02*
X12313500D01*
Y1883800D01*
X12458500D01*
Y1757800D01*
D02*
G37*
G36*
X12204500D02*
X12059500D01*
Y1883800D01*
X12204500D01*
Y1757800D01*
D02*
G37*
G36*
X12712500Y2657800D02*
X12567500D01*
Y2783800D01*
X12712500D01*
Y2657800D01*
D02*
G37*
G36*
X12458500D02*
X12313500D01*
Y2783800D01*
X12458500D01*
Y2657800D01*
D02*
G37*
G36*
X12204500D02*
X12059500D01*
Y2783800D01*
X12204500D01*
Y2657800D01*
D02*
G37*
G36*
X12712500Y2477800D02*
X12567500D01*
Y2603800D01*
X12712500D01*
Y2477800D01*
D02*
G37*
G36*
X12458500D02*
X12313500D01*
Y2603800D01*
X12458500D01*
Y2477800D01*
D02*
G37*
G36*
X12204500D02*
X12059500D01*
Y2603800D01*
X12204500D01*
Y2477800D01*
D02*
G37*
G36*
X12712500Y2297800D02*
X12567500D01*
Y2423800D01*
X12712500D01*
Y2297800D01*
D02*
G37*
G36*
X12458500D02*
X12313500D01*
Y2423800D01*
X12458500D01*
Y2297800D01*
D02*
G37*
G36*
X12204500D02*
X12059500D01*
Y2423800D01*
X12204500D01*
Y2297800D01*
D02*
G37*
D12*
X3165000Y1080000D02*
D03*
X3335000D02*
D03*
D15*
X4851400Y1902200D02*
D03*
Y2060200D02*
D03*
X228600Y759200D02*
D03*
Y917200D02*
D03*
D16*
X5235200Y1803400D02*
D03*
X5077200D02*
D03*
D32*
X10227800Y1471800D02*
D03*
Y1061800D02*
D03*
X9728200Y1271800D02*
D03*
Y861800D02*
D03*
X8305800D02*
D03*
Y1271800D02*
D03*
X6934200Y1246400D02*
D03*
Y836400D02*
D03*
X5435600D02*
D03*
Y1246400D02*
D03*
D47*
X4933200Y1041400D02*
D03*
X4414000D02*
D03*
X6457200D02*
D03*
X5938000D02*
D03*
X7854200Y1066800D02*
D03*
X7335000D02*
D03*
X9276600D02*
D03*
X8757400D02*
D03*
D49*
X11298000Y2524800D02*
D03*
Y2016800D02*
D03*
%TF.MD5,4f4ca458a3cf35d43a230be72c098c74*%
M02*
