%TF.GenerationSoftware,Altium Limited,Altium Designer,23.4.1 (23)*%
G04 Layer_Color=32768*
%FSLAX45Y45*%
%MOMM*%
%TF.SameCoordinates,6CFBE55C-8612-4E24-A10C-01F6C23EBCE3*%
%TF.FilePolarity,Positive*%
%TF.FileFunction,Other,Mechanical_15*%
%TF.Part,Single*%
G01*
G75*
%TA.AperFunction,NonConductor*%
%ADD37C,0.10000*%
%ADD38C,0.05000*%
%ADD39C,0.05080*%
D37*
X1150000Y4050000D02*
X1200000Y4000000D01*
X1150000D02*
X2150000D01*
Y5000000D01*
X1150000D02*
X2150000D01*
X1150000Y4000000D02*
Y5000000D01*
D38*
X609000Y2328500D02*
X2691000D01*
Y2861500D01*
X609000D02*
X2691000D01*
X609000Y2328500D02*
Y2861500D01*
X3312500Y3459000D02*
Y5541000D01*
X2779500D02*
X3312500D01*
X2779500Y3459000D02*
Y5541000D01*
Y3459000D02*
X3312500D01*
X609000Y6671500D02*
X2691000D01*
X609000Y6138500D02*
Y6671500D01*
Y6138500D02*
X2691000D01*
Y6671500D01*
X2971500Y362350D02*
Y907650D01*
X330500D02*
X2971500D01*
X330500Y362350D02*
Y907650D01*
Y362350D02*
X2971500D01*
X-12500Y5541000D02*
X520500D01*
Y3459000D02*
Y5541000D01*
X-12500Y3459000D02*
X520500D01*
X-12500D02*
Y5541000D01*
X870000Y1670400D02*
X2430000D01*
X870000D02*
Y2190400D01*
X2430000D01*
Y1670400D02*
Y2190400D01*
X2971500Y8092350D02*
Y8637650D01*
X330500D02*
X2971500D01*
X330500Y8092350D02*
Y8637650D01*
Y8092350D02*
X2971500D01*
D39*
X929200Y3579200D02*
Y3913800D01*
X772600Y3579200D02*
X929200D01*
X772600D02*
Y3913800D01*
X929200D01*
X2017200Y1178900D02*
X2173800D01*
Y1513500D01*
X2017200D02*
X2173800D01*
X2017200Y1178900D02*
Y1513500D01*
X1115500Y1175000D02*
X1272100D01*
Y1509600D01*
X1115500D02*
X1272100D01*
X1115500Y1175000D02*
Y1509600D01*
%TF.MD5,a9df315f000cf09b9398694ca148fefe*%
M02*
