%TF.GenerationSoftware,Altium Limited,Altium Designer,23.4.1 (23)*%
G04 Layer_Color=65535*
%FSLAX45Y45*%
%MOMM*%
%TF.SameCoordinates,6CFBE55C-8612-4E24-A10C-01F6C23EBCE3*%
%TF.FilePolarity,Positive*%
%TF.FileFunction,Legend,Top*%
%TF.Part,Single*%
G01*
G75*
%TA.AperFunction,NonConductor*%
%ADD22C,0.20000*%
%ADD23C,0.25000*%
%ADD24C,0.12700*%
%ADD25C,0.25400*%
G36*
X1655614Y6090189D02*
X1657847D01*
Y6087957D01*
Y6085724D01*
X1660079D01*
Y6083492D01*
Y6081260D01*
X1662311D01*
Y6079027D01*
X1664544D01*
Y6076795D01*
X1666776D01*
Y6074562D01*
Y6072330D01*
X1669008D01*
Y6070098D01*
X1671241D01*
Y6067865D01*
Y6065633D01*
X1673473D01*
Y6063401D01*
X1675706D01*
Y6061168D01*
Y6058936D01*
X1677938D01*
Y6056703D01*
Y6054471D01*
X1680170D01*
Y6052239D01*
X1682403D01*
Y6050006D01*
X1684635D01*
Y6047774D01*
Y6045541D01*
X1686867D01*
Y6043309D01*
X1689100D01*
Y6041077D01*
Y6038844D01*
X1691332D01*
Y6036612D01*
X1693565D01*
Y6034379D01*
Y6032147D01*
X1695797D01*
Y6029915D01*
X1698030D01*
Y6027682D01*
X1700262D01*
Y6025450D01*
Y6023218D01*
X1702494D01*
Y6020985D01*
Y6018753D01*
X1704726D01*
Y6016521D01*
X1706959D01*
Y6014288D01*
Y6012056D01*
X1709191D01*
Y6009823D01*
X1711424D01*
Y6007591D01*
Y6005359D01*
X1713656D01*
Y6003126D01*
X1715889D01*
Y6000894D01*
Y5998662D01*
X1718121D01*
Y5996429D01*
X1720353D01*
Y5994197D01*
Y5991964D01*
X1722586D01*
Y5989732D01*
X1724818D01*
Y5987500D01*
X1727050D01*
Y5985267D01*
Y5983035D01*
X1729283D01*
Y5980803D01*
X1731515D01*
Y5978570D01*
Y5976338D01*
X1733747D01*
Y5974105D01*
X1735980D01*
Y5971873D01*
Y5969641D01*
X1738212D01*
Y5967408D01*
X1740445D01*
Y5965176D01*
Y5962944D01*
X1742677D01*
Y5960711D01*
X1744909D01*
Y5958479D01*
Y5956246D01*
X1747142D01*
Y5954014D01*
X1749374D01*
Y5951782D01*
Y5949549D01*
X1751606D01*
Y5947317D01*
X1753839D01*
Y5945084D01*
Y5942852D01*
X1756071D01*
Y5940620D01*
X1758304D01*
Y5938387D01*
Y5936155D01*
X1760536D01*
Y5933923D01*
X1762768D01*
Y5931690D01*
Y5929458D01*
X1765001D01*
Y5927225D01*
X1767233D01*
Y5924993D01*
Y5922761D01*
X1769465D01*
Y5920528D01*
X1771698D01*
Y5918296D01*
X1773930D01*
Y5916064D01*
Y5913831D01*
X1776162D01*
Y5911599D01*
X1778395D01*
Y5909366D01*
Y5907134D01*
X1780627D01*
Y5904902D01*
X1657847D01*
Y5907134D01*
X1655614D01*
Y5909366D01*
X1653382D01*
Y5911599D01*
Y5913831D01*
X1651149D01*
Y5916064D01*
X1648917D01*
Y5918296D01*
X1646685D01*
Y5920528D01*
Y5922761D01*
X1644452D01*
Y5924993D01*
X1642220D01*
Y5927225D01*
Y5929458D01*
X1639988D01*
Y5931690D01*
X1637755D01*
Y5933923D01*
Y5936155D01*
X1635523D01*
Y5938387D01*
X1633291D01*
Y5940620D01*
Y5942852D01*
X1631058D01*
Y5945084D01*
X1628826D01*
Y5947317D01*
Y5949549D01*
X1626593D01*
Y5951782D01*
X1624361D01*
Y5954014D01*
Y5956246D01*
X1622129D01*
Y5958479D01*
X1619896D01*
Y5960711D01*
Y5962944D01*
X1617664D01*
Y5965176D01*
X1615432D01*
Y5967408D01*
Y5969641D01*
X1613199D01*
Y5971873D01*
X1610967D01*
Y5974105D01*
X1608734D01*
Y5976338D01*
Y5978570D01*
X1606502D01*
Y5980803D01*
X1604270D01*
Y5983035D01*
Y5985267D01*
X1602037D01*
Y5987500D01*
X1599805D01*
Y5989732D01*
Y5991964D01*
X1597573D01*
Y5994197D01*
X1595340D01*
Y5996429D01*
Y5998662D01*
X1593108D01*
Y6000894D01*
X1590875D01*
Y6003126D01*
Y6005359D01*
X1588643D01*
Y6007591D01*
X1586410D01*
Y6009823D01*
Y6012056D01*
X1584178D01*
Y6014288D01*
X1581946D01*
Y6016521D01*
Y6018753D01*
X1579714D01*
Y6020985D01*
X1577481D01*
Y6023218D01*
Y6025450D01*
X1575249D01*
Y6027682D01*
X1573016D01*
Y6029915D01*
Y6032147D01*
X1570784D01*
Y6034379D01*
X1568552D01*
Y6036612D01*
Y6038844D01*
X1566319D01*
Y6041077D01*
X1564087D01*
Y6043309D01*
Y6045541D01*
X1559622D01*
Y6043309D01*
X1557390D01*
Y6041077D01*
Y6038844D01*
X1555157D01*
Y6036612D01*
X1552925D01*
Y6034379D01*
Y6032147D01*
X1550693D01*
Y6029915D01*
X1548460D01*
Y6027682D01*
X1546228D01*
Y6025450D01*
Y6023218D01*
X1543995D01*
Y6020985D01*
X1541763D01*
Y6018753D01*
Y6016521D01*
X1539531D01*
Y6014288D01*
X1537298D01*
Y6012056D01*
X1535066D01*
Y6009823D01*
Y6007591D01*
X1532834D01*
Y6005359D01*
X1530601D01*
Y6003126D01*
Y6000894D01*
X1528369D01*
Y5998662D01*
X1526136D01*
Y5996429D01*
Y5994197D01*
X1523904D01*
Y5991964D01*
X1521672D01*
Y5989732D01*
X1519439D01*
Y5987500D01*
Y5985267D01*
X1517207D01*
Y5983035D01*
Y5980803D01*
X1514975D01*
Y5978570D01*
X1512742D01*
Y5976338D01*
X1510510D01*
Y5974105D01*
Y5971873D01*
X1508277D01*
Y5969641D01*
X1506045D01*
Y5967408D01*
Y5965176D01*
X1503813D01*
Y5962944D01*
X1501580D01*
Y5960711D01*
X1499348D01*
Y5958479D01*
Y5956246D01*
X1497116D01*
Y5954014D01*
X1494883D01*
Y5951782D01*
Y5949549D01*
X1492651D01*
Y5947317D01*
X1490418D01*
Y5945084D01*
Y5942852D01*
X1488186D01*
Y5940620D01*
X1485954D01*
Y5938387D01*
X1483721D01*
Y5936155D01*
Y5933923D01*
X1481489D01*
Y5931690D01*
X1479257D01*
Y5929458D01*
Y5927225D01*
X1477024D01*
Y5924993D01*
X1474792D01*
Y5922761D01*
X1472559D01*
Y5920528D01*
Y5918296D01*
X1470327D01*
Y5916064D01*
Y5913831D01*
X1523904D01*
Y5911599D01*
X1528369D01*
Y5913831D01*
X1530601D01*
Y5916064D01*
X1532834D01*
Y5918296D01*
X1535066D01*
Y5920528D01*
Y5922761D01*
X1537298D01*
Y5924993D01*
Y5927225D01*
X1539531D01*
Y5929458D01*
X1541763D01*
Y5931690D01*
X1543995D01*
Y5933923D01*
Y5936155D01*
X1546228D01*
Y5938387D01*
X1548460D01*
Y5940620D01*
Y5942852D01*
X1550693D01*
Y5945084D01*
X1552925D01*
Y5947317D01*
Y5949549D01*
X1555157D01*
Y5951782D01*
X1557390D01*
Y5954014D01*
X1559622D01*
Y5956246D01*
Y5958479D01*
X1561854D01*
Y5960711D01*
X1564087D01*
Y5962944D01*
Y5965176D01*
X1566319D01*
Y5967408D01*
X1568552D01*
Y5969641D01*
X1570784D01*
Y5971873D01*
Y5974105D01*
X1573016D01*
Y5976338D01*
X1575249D01*
Y5978570D01*
Y5980803D01*
X1577481D01*
Y5978570D01*
Y5976338D01*
X1579714D01*
Y5974105D01*
Y5971873D01*
X1581946D01*
Y5969641D01*
X1584178D01*
Y5967408D01*
X1586410D01*
Y5965176D01*
Y5962944D01*
X1588643D01*
Y5960711D01*
X1590875D01*
Y5958479D01*
Y5956246D01*
Y5954014D01*
X1588643D01*
Y5951782D01*
X1586410D01*
Y5949549D01*
X1584178D01*
Y5947317D01*
Y5945084D01*
X1581946D01*
Y5942852D01*
X1579714D01*
Y5940620D01*
Y5938387D01*
X1577481D01*
Y5936155D01*
X1575249D01*
Y5933923D01*
X1573016D01*
Y5931690D01*
Y5929458D01*
X1570784D01*
Y5927225D01*
X1568552D01*
Y5924993D01*
Y5922761D01*
X1566319D01*
Y5920528D01*
X1564087D01*
Y5918296D01*
Y5916064D01*
X1561854D01*
Y5913831D01*
X1559622D01*
Y5911599D01*
X1557390D01*
Y5909366D01*
Y5907134D01*
X1555157D01*
Y5904902D01*
X1552925D01*
Y5902669D01*
Y5900437D01*
X1550693D01*
Y5898205D01*
X1548460D01*
Y5895972D01*
X1546228D01*
Y5893740D01*
Y5891507D01*
X1543995D01*
Y5889275D01*
X1416750D01*
Y5891507D01*
X1418982D01*
Y5893740D01*
X1421215D01*
Y5895972D01*
X1423447D01*
Y5898205D01*
X1425680D01*
Y5900437D01*
Y5902669D01*
X1427912D01*
Y5904902D01*
X1430144D01*
Y5907134D01*
Y5909366D01*
X1432377D01*
Y5911599D01*
X1434609D01*
Y5913831D01*
Y5916064D01*
X1436841D01*
Y5918296D01*
X1439074D01*
Y5920528D01*
Y5922761D01*
X1441306D01*
Y5924993D01*
X1443539D01*
Y5927225D01*
X1445771D01*
Y5929458D01*
Y5931690D01*
X1448003D01*
Y5933923D01*
X1450236D01*
Y5936155D01*
Y5938387D01*
X1452468D01*
Y5940620D01*
X1454700D01*
Y5942852D01*
X1456933D01*
Y5945084D01*
Y5947317D01*
X1459165D01*
Y5949549D01*
X1461397D01*
Y5951782D01*
Y5954014D01*
X1463630D01*
Y5956246D01*
X1465862D01*
Y5958479D01*
Y5960711D01*
X1468095D01*
Y5962944D01*
X1470327D01*
Y5965176D01*
X1472559D01*
Y5967408D01*
Y5969641D01*
X1474792D01*
Y5971873D01*
X1477024D01*
Y5974105D01*
Y5976338D01*
X1479257D01*
Y5978570D01*
X1481489D01*
Y5980803D01*
X1483721D01*
Y5983035D01*
Y5985267D01*
X1485954D01*
Y5987500D01*
X1488186D01*
Y5989732D01*
Y5991964D01*
X1490418D01*
Y5994197D01*
X1492651D01*
Y5996429D01*
X1494883D01*
Y5998662D01*
Y6000894D01*
X1497116D01*
Y6003126D01*
X1499348D01*
Y6005359D01*
Y6007591D01*
X1501580D01*
Y6009823D01*
X1503813D01*
Y6012056D01*
Y6014288D01*
X1506045D01*
Y6016521D01*
X1508277D01*
Y6018753D01*
Y6020985D01*
X1510510D01*
Y6023218D01*
X1512742D01*
Y6025450D01*
Y6027682D01*
X1514975D01*
Y6029915D01*
X1517207D01*
Y6032147D01*
X1519439D01*
Y6034379D01*
Y6036612D01*
X1521672D01*
Y6038844D01*
X1523904D01*
Y6041077D01*
Y6043309D01*
X1526136D01*
Y6045541D01*
X1528369D01*
Y6047774D01*
Y6050006D01*
X1530601D01*
Y6052239D01*
X1532834D01*
Y6054471D01*
X1535066D01*
Y6056703D01*
Y6058936D01*
X1537298D01*
Y6061168D01*
X1539531D01*
Y6063401D01*
Y6065633D01*
X1541763D01*
Y6067865D01*
X1543995D01*
Y6070098D01*
X1546228D01*
Y6072330D01*
Y6074562D01*
X1548460D01*
Y6076795D01*
X1550693D01*
Y6079027D01*
Y6081260D01*
X1552925D01*
Y6083492D01*
X1555157D01*
Y6085724D01*
X1557390D01*
Y6087957D01*
Y6090189D01*
X1559622D01*
Y6092421D01*
X1561854D01*
Y6090189D01*
X1564087D01*
Y6087957D01*
Y6085724D01*
X1566319D01*
Y6083492D01*
X1568552D01*
Y6081260D01*
Y6079027D01*
X1570784D01*
Y6076795D01*
X1573016D01*
Y6074562D01*
Y6072330D01*
X1575249D01*
Y6070098D01*
X1577481D01*
Y6067865D01*
Y6065633D01*
X1579714D01*
Y6063401D01*
X1581946D01*
Y6061168D01*
X1584178D01*
Y6058936D01*
Y6056703D01*
X1586410D01*
Y6054471D01*
X1588643D01*
Y6052239D01*
Y6050006D01*
X1590875D01*
Y6047774D01*
X1593108D01*
Y6045541D01*
Y6043309D01*
X1595340D01*
Y6041077D01*
X1597573D01*
Y6038844D01*
Y6036612D01*
X1599805D01*
Y6034379D01*
Y6032147D01*
X1602037D01*
Y6029915D01*
X1604270D01*
Y6027682D01*
X1606502D01*
Y6025450D01*
Y6023218D01*
X1608734D01*
Y6020985D01*
X1610967D01*
Y6018753D01*
Y6016521D01*
X1613199D01*
Y6014288D01*
X1615432D01*
Y6012056D01*
Y6009823D01*
X1617664D01*
Y6007591D01*
X1619896D01*
Y6005359D01*
Y6003126D01*
X1622129D01*
Y6000894D01*
X1624361D01*
Y5998662D01*
Y5996429D01*
X1626593D01*
Y5994197D01*
X1628826D01*
Y5991964D01*
Y5989732D01*
X1631058D01*
Y5987500D01*
X1633291D01*
Y5985267D01*
X1635523D01*
Y5983035D01*
Y5980803D01*
X1637755D01*
Y5978570D01*
X1639988D01*
Y5976338D01*
Y5974105D01*
X1642220D01*
Y5971873D01*
Y5969641D01*
X1644452D01*
Y5967408D01*
X1646685D01*
Y5965176D01*
X1648917D01*
Y5962944D01*
Y5960711D01*
X1651149D01*
Y5958479D01*
Y5956246D01*
X1653382D01*
Y5954014D01*
X1655614D01*
Y5951782D01*
X1657847D01*
Y5949549D01*
Y5947317D01*
X1660079D01*
Y5945084D01*
X1662311D01*
Y5942852D01*
Y5940620D01*
X1664544D01*
Y5938387D01*
X1666776D01*
Y5936155D01*
Y5933923D01*
X1669008D01*
Y5931690D01*
X1671241D01*
Y5929458D01*
Y5927225D01*
X1731515D01*
Y5929458D01*
Y5931690D01*
X1729283D01*
Y5933923D01*
Y5936155D01*
X1727050D01*
Y5938387D01*
X1724818D01*
Y5940620D01*
Y5942852D01*
X1722586D01*
Y5945084D01*
X1720353D01*
Y5947317D01*
X1718121D01*
Y5949549D01*
Y5951782D01*
X1715889D01*
Y5954014D01*
Y5956246D01*
X1713656D01*
Y5958479D01*
X1711424D01*
Y5960711D01*
X1709191D01*
Y5962944D01*
Y5965176D01*
X1706959D01*
Y5967408D01*
X1704726D01*
Y5969641D01*
Y5971873D01*
X1702494D01*
Y5974105D01*
X1700262D01*
Y5976338D01*
Y5978570D01*
X1698030D01*
Y5980803D01*
X1695797D01*
Y5983035D01*
Y5985267D01*
X1693565D01*
Y5987500D01*
X1691332D01*
Y5989732D01*
X1689100D01*
Y5991964D01*
Y5994197D01*
X1686867D01*
Y5996429D01*
X1684635D01*
Y5998662D01*
Y6000894D01*
X1682403D01*
Y6003126D01*
X1680170D01*
Y6005359D01*
Y6007591D01*
X1677938D01*
Y6009823D01*
X1675706D01*
Y6012056D01*
Y6014288D01*
X1673473D01*
Y6016521D01*
X1671241D01*
Y6018753D01*
Y6020985D01*
X1669008D01*
Y6023218D01*
X1666776D01*
Y6025450D01*
Y6027682D01*
X1664544D01*
Y6029915D01*
X1662311D01*
Y6032147D01*
Y6034379D01*
X1660079D01*
Y6036612D01*
X1657847D01*
Y6038844D01*
X1655614D01*
Y6041077D01*
Y6043309D01*
X1648917D01*
Y6041077D01*
Y6038844D01*
X1646685D01*
Y6036612D01*
X1644452D01*
Y6034379D01*
Y6032147D01*
X1642220D01*
Y6029915D01*
X1639988D01*
Y6027682D01*
Y6025450D01*
X1637755D01*
Y6023218D01*
X1635523D01*
Y6025450D01*
Y6027682D01*
X1633291D01*
Y6029915D01*
Y6032147D01*
X1631058D01*
Y6034379D01*
X1628826D01*
Y6036612D01*
X1626593D01*
Y6038844D01*
Y6041077D01*
X1624361D01*
Y6043309D01*
X1622129D01*
Y6045541D01*
Y6047774D01*
X1624361D01*
Y6050006D01*
X1626593D01*
Y6052239D01*
Y6054471D01*
X1628826D01*
Y6056703D01*
X1631058D01*
Y6058936D01*
Y6061168D01*
X1633291D01*
Y6063401D01*
X1635523D01*
Y6065633D01*
Y6067865D01*
X1637755D01*
Y6070098D01*
X1639988D01*
Y6072330D01*
Y6074562D01*
X1642220D01*
Y6076795D01*
Y6079027D01*
X1644452D01*
Y6081260D01*
X1646685D01*
Y6083492D01*
Y6085724D01*
X1648917D01*
Y6087957D01*
X1651149D01*
Y6090189D01*
Y6092421D01*
X1655614D01*
Y6090189D01*
D02*
G37*
G36*
X1546228Y5851325D02*
Y5849092D01*
X1548460D01*
Y5846860D01*
Y5844628D01*
X1550693D01*
Y5842395D01*
X1552925D01*
Y5840163D01*
X1555157D01*
Y5837930D01*
X1557390D01*
Y5835698D01*
Y5833466D01*
X1559622D01*
Y5831233D01*
Y5829001D01*
X1561854D01*
Y5826769D01*
X1564087D01*
Y5824536D01*
X1566319D01*
Y5822304D01*
Y5820071D01*
X1568552D01*
Y5817839D01*
X1570784D01*
Y5815607D01*
Y5813374D01*
X1573016D01*
Y5811142D01*
X1575249D01*
Y5808910D01*
X1577481D01*
Y5806677D01*
Y5804445D01*
X1579714D01*
Y5802212D01*
X1581946D01*
Y5799980D01*
Y5797748D01*
X1584178D01*
Y5795515D01*
X1586410D01*
Y5793283D01*
Y5791051D01*
X1588643D01*
Y5788818D01*
X1590875D01*
Y5786586D01*
Y5784353D01*
X1588643D01*
Y5782121D01*
Y5779889D01*
X1586410D01*
Y5777656D01*
X1584178D01*
Y5775424D01*
X1581946D01*
Y5773191D01*
Y5770959D01*
X1579714D01*
Y5768727D01*
X1577481D01*
Y5766494D01*
Y5764262D01*
X1575249D01*
Y5766494D01*
X1573016D01*
Y5768727D01*
Y5770959D01*
X1570784D01*
Y5773191D01*
X1568552D01*
Y5775424D01*
Y5777656D01*
X1566319D01*
Y5779889D01*
X1564087D01*
Y5782121D01*
X1561854D01*
Y5784353D01*
Y5786586D01*
X1559622D01*
Y5788818D01*
X1557390D01*
Y5791051D01*
Y5793283D01*
X1555157D01*
Y5795515D01*
X1552925D01*
Y5797748D01*
Y5799980D01*
X1550693D01*
Y5802212D01*
X1548460D01*
Y5804445D01*
X1546228D01*
Y5806677D01*
Y5808910D01*
X1543995D01*
Y5811142D01*
X1541763D01*
Y5813374D01*
Y5815607D01*
X1539531D01*
Y5817839D01*
X1537298D01*
Y5820071D01*
Y5822304D01*
X1535066D01*
Y5824536D01*
X1532834D01*
Y5826769D01*
X1530601D01*
Y5829001D01*
Y5831233D01*
X1470327D01*
Y5829001D01*
Y5826769D01*
Y5824536D01*
X1472559D01*
Y5822304D01*
X1474792D01*
Y5820071D01*
X1477024D01*
Y5817839D01*
Y5815607D01*
X1479257D01*
Y5813374D01*
X1481489D01*
Y5811142D01*
Y5808910D01*
X1483721D01*
Y5806677D01*
X1485954D01*
Y5804445D01*
X1488186D01*
Y5802212D01*
Y5799980D01*
X1490418D01*
Y5797748D01*
X1492651D01*
Y5795515D01*
Y5793283D01*
X1494883D01*
Y5791051D01*
X1497116D01*
Y5788818D01*
Y5786586D01*
X1499348D01*
Y5784353D01*
X1501580D01*
Y5782121D01*
X1503813D01*
Y5779889D01*
Y5777656D01*
X1506045D01*
Y5775424D01*
X1508277D01*
Y5773191D01*
Y5770959D01*
X1510510D01*
Y5768727D01*
X1512742D01*
Y5766494D01*
Y5764262D01*
X1514975D01*
Y5762030D01*
X1517207D01*
Y5759797D01*
X1519439D01*
Y5757565D01*
Y5755332D01*
X1521672D01*
Y5753100D01*
X1523904D01*
Y5750868D01*
Y5748635D01*
X1526136D01*
Y5746403D01*
X1528369D01*
Y5744171D01*
Y5741938D01*
X1530601D01*
Y5739706D01*
X1532834D01*
Y5737473D01*
X1535066D01*
Y5735241D01*
Y5733009D01*
X1537298D01*
Y5730776D01*
X1539531D01*
Y5728544D01*
Y5726312D01*
X1541763D01*
Y5724079D01*
X1543995D01*
Y5721847D01*
X1546228D01*
Y5719614D01*
Y5717382D01*
X1548460D01*
Y5715150D01*
Y5712917D01*
X1550693D01*
Y5710685D01*
X1552925D01*
Y5708453D01*
X1555157D01*
Y5706220D01*
Y5703988D01*
X1557390D01*
Y5701755D01*
X1559622D01*
Y5699523D01*
X1564087D01*
Y5701755D01*
X1566319D01*
Y5703988D01*
Y5706220D01*
X1568552D01*
Y5708453D01*
Y5710685D01*
X1570784D01*
Y5712917D01*
X1573016D01*
Y5715150D01*
X1575249D01*
Y5717382D01*
Y5719614D01*
X1577481D01*
Y5721847D01*
Y5724079D01*
X1579714D01*
Y5726312D01*
X1581946D01*
Y5728544D01*
X1584178D01*
Y5730776D01*
Y5733009D01*
X1586410D01*
Y5735241D01*
X1588643D01*
Y5737473D01*
Y5739706D01*
X1590875D01*
Y5741938D01*
X1593108D01*
Y5744171D01*
Y5746403D01*
X1595340D01*
Y5748635D01*
X1597573D01*
Y5750868D01*
Y5753100D01*
X1599805D01*
Y5755332D01*
X1602037D01*
Y5757565D01*
Y5759797D01*
X1604270D01*
Y5762030D01*
X1606502D01*
Y5764262D01*
Y5766494D01*
X1608734D01*
Y5768727D01*
X1610967D01*
Y5770959D01*
Y5773191D01*
X1613199D01*
Y5775424D01*
X1615432D01*
Y5777656D01*
X1617664D01*
Y5779889D01*
Y5782121D01*
X1619896D01*
Y5784353D01*
Y5786586D01*
X1622129D01*
Y5788818D01*
X1624361D01*
Y5791051D01*
X1626593D01*
Y5793283D01*
Y5795515D01*
X1628826D01*
Y5797748D01*
X1631058D01*
Y5799980D01*
Y5802212D01*
X1633291D01*
Y5804445D01*
X1635523D01*
Y5806677D01*
Y5808910D01*
X1637755D01*
Y5811142D01*
Y5813374D01*
X1639988D01*
Y5815607D01*
X1642220D01*
Y5817839D01*
X1644452D01*
Y5820071D01*
Y5822304D01*
X1646685D01*
Y5824536D01*
X1648917D01*
Y5826769D01*
Y5829001D01*
X1651149D01*
Y5831233D01*
X1653382D01*
Y5833466D01*
Y5835698D01*
X1655614D01*
Y5837930D01*
X1657847D01*
Y5840163D01*
X1780627D01*
Y5837930D01*
X1778395D01*
Y5835698D01*
Y5833466D01*
X1776162D01*
Y5831233D01*
X1773930D01*
Y5829001D01*
Y5826769D01*
X1771698D01*
Y5824536D01*
X1769465D01*
Y5822304D01*
Y5820071D01*
X1767233D01*
Y5817839D01*
X1765001D01*
Y5815607D01*
Y5813374D01*
X1762768D01*
Y5811142D01*
X1760536D01*
Y5808910D01*
X1758304D01*
Y5806677D01*
Y5804445D01*
X1756071D01*
Y5802212D01*
Y5799980D01*
X1753839D01*
Y5797748D01*
X1751606D01*
Y5795515D01*
Y5793283D01*
X1749374D01*
Y5791051D01*
X1747142D01*
Y5788818D01*
Y5786586D01*
X1744909D01*
Y5784353D01*
X1742677D01*
Y5782121D01*
X1740445D01*
Y5779889D01*
Y5777656D01*
X1738212D01*
Y5775424D01*
Y5773191D01*
X1735980D01*
Y5770959D01*
X1733747D01*
Y5768727D01*
X1731515D01*
Y5766494D01*
Y5764262D01*
X1729283D01*
Y5762030D01*
Y5759797D01*
X1727050D01*
Y5757565D01*
X1724818D01*
Y5755332D01*
X1722586D01*
Y5753100D01*
Y5750868D01*
X1720353D01*
Y5748635D01*
X1718121D01*
Y5746403D01*
Y5744171D01*
X1715889D01*
Y5741938D01*
X1713656D01*
Y5739706D01*
Y5737473D01*
X1711424D01*
Y5735241D01*
X1709191D01*
Y5733009D01*
Y5730776D01*
X1706959D01*
Y5728544D01*
X1704726D01*
Y5726312D01*
Y5724079D01*
X1702494D01*
Y5721847D01*
X1700262D01*
Y5719614D01*
Y5717382D01*
X1698030D01*
Y5715150D01*
X1695797D01*
Y5712917D01*
Y5710685D01*
X1693565D01*
Y5708453D01*
X1691332D01*
Y5706220D01*
X1689100D01*
Y5703988D01*
Y5701755D01*
X1686867D01*
Y5699523D01*
Y5697291D01*
X1684635D01*
Y5695058D01*
X1682403D01*
Y5692826D01*
X1680170D01*
Y5690594D01*
Y5688361D01*
X1677938D01*
Y5686129D01*
Y5683896D01*
X1675706D01*
Y5681664D01*
X1673473D01*
Y5679432D01*
Y5677199D01*
X1671241D01*
Y5674967D01*
X1669008D01*
Y5672734D01*
Y5670502D01*
X1666776D01*
Y5668270D01*
X1664544D01*
Y5666037D01*
X1662311D01*
Y5663805D01*
Y5661573D01*
X1660079D01*
Y5659340D01*
X1657847D01*
Y5657108D01*
Y5654875D01*
X1655614D01*
Y5652643D01*
Y5650411D01*
X1653382D01*
Y5652643D01*
X1651149D01*
Y5654875D01*
Y5657108D01*
X1648917D01*
Y5659340D01*
X1646685D01*
Y5661573D01*
X1644452D01*
Y5663805D01*
Y5666037D01*
X1642220D01*
Y5668270D01*
Y5670502D01*
X1639988D01*
Y5672734D01*
X1637755D01*
Y5674967D01*
Y5677199D01*
X1635523D01*
Y5679432D01*
X1633291D01*
Y5681664D01*
Y5683896D01*
X1631058D01*
Y5686129D01*
X1628826D01*
Y5688361D01*
Y5690594D01*
X1626593D01*
Y5692826D01*
X1624361D01*
Y5695058D01*
Y5697291D01*
X1622129D01*
Y5699523D01*
X1624361D01*
Y5701755D01*
Y5703988D01*
X1626593D01*
Y5706220D01*
X1628826D01*
Y5708453D01*
X1631058D01*
Y5710685D01*
Y5712917D01*
X1633291D01*
Y5715150D01*
Y5717382D01*
X1635523D01*
Y5719614D01*
X1637755D01*
Y5717382D01*
X1639988D01*
Y5715150D01*
X1642220D01*
Y5712917D01*
Y5710685D01*
X1644452D01*
Y5708453D01*
X1646685D01*
Y5706220D01*
Y5703988D01*
X1648917D01*
Y5701755D01*
X1651149D01*
Y5699523D01*
X1655614D01*
Y5701755D01*
Y5703988D01*
X1657847D01*
Y5706220D01*
Y5708453D01*
X1660079D01*
Y5710685D01*
X1662311D01*
Y5712917D01*
X1664544D01*
Y5715150D01*
Y5717382D01*
X1666776D01*
Y5719614D01*
X1669008D01*
Y5721847D01*
Y5724079D01*
X1671241D01*
Y5726312D01*
X1673473D01*
Y5728544D01*
Y5730776D01*
X1675706D01*
Y5733009D01*
X1677938D01*
Y5735241D01*
Y5737473D01*
X1680170D01*
Y5739706D01*
X1682403D01*
Y5741938D01*
Y5744171D01*
X1684635D01*
Y5746403D01*
X1686867D01*
Y5748635D01*
Y5750868D01*
X1689100D01*
Y5753100D01*
X1691332D01*
Y5755332D01*
X1693565D01*
Y5757565D01*
Y5759797D01*
X1695797D01*
Y5762030D01*
Y5764262D01*
X1698030D01*
Y5766494D01*
X1700262D01*
Y5768727D01*
X1702494D01*
Y5770959D01*
Y5773191D01*
X1704726D01*
Y5775424D01*
Y5777656D01*
X1706959D01*
Y5779889D01*
X1709191D01*
Y5782121D01*
X1711424D01*
Y5784353D01*
Y5786586D01*
X1713656D01*
Y5788818D01*
X1715889D01*
Y5791051D01*
Y5793283D01*
X1718121D01*
Y5795515D01*
X1720353D01*
Y5797748D01*
X1722586D01*
Y5799980D01*
Y5802212D01*
X1724818D01*
Y5804445D01*
Y5806677D01*
X1727050D01*
Y5808910D01*
X1729283D01*
Y5811142D01*
X1731515D01*
Y5813374D01*
Y5815607D01*
Y5817839D01*
X1673473D01*
Y5815607D01*
X1671241D01*
Y5813374D01*
X1669008D01*
Y5811142D01*
Y5808910D01*
X1666776D01*
Y5806677D01*
X1664544D01*
Y5804445D01*
Y5802212D01*
X1662311D01*
Y5799980D01*
X1660079D01*
Y5797748D01*
X1657847D01*
Y5795515D01*
Y5793283D01*
X1655614D01*
Y5791051D01*
X1653382D01*
Y5788818D01*
Y5786586D01*
X1651149D01*
Y5784353D01*
X1648917D01*
Y5782121D01*
Y5779889D01*
X1646685D01*
Y5777656D01*
X1644452D01*
Y5775424D01*
Y5773191D01*
X1642220D01*
Y5770959D01*
X1639988D01*
Y5768727D01*
Y5766494D01*
X1637755D01*
Y5764262D01*
X1635523D01*
Y5762030D01*
Y5759797D01*
X1633291D01*
Y5757565D01*
X1631058D01*
Y5755332D01*
Y5753100D01*
X1628826D01*
Y5750868D01*
X1626593D01*
Y5748635D01*
Y5746403D01*
X1624361D01*
Y5744171D01*
X1622129D01*
Y5741938D01*
Y5739706D01*
X1619896D01*
Y5737473D01*
X1617664D01*
Y5735241D01*
X1615432D01*
Y5733009D01*
Y5730776D01*
X1613199D01*
Y5728544D01*
Y5726312D01*
X1610967D01*
Y5724079D01*
X1608734D01*
Y5721847D01*
Y5719614D01*
X1606502D01*
Y5717382D01*
X1604270D01*
Y5715150D01*
Y5712917D01*
X1602037D01*
Y5710685D01*
X1599805D01*
Y5708453D01*
X1597573D01*
Y5706220D01*
Y5703988D01*
X1595340D01*
Y5701755D01*
Y5699523D01*
X1593108D01*
Y5697291D01*
X1590875D01*
Y5695058D01*
X1588643D01*
Y5692826D01*
Y5690594D01*
X1586410D01*
Y5688361D01*
Y5686129D01*
X1584178D01*
Y5683896D01*
X1581946D01*
Y5681664D01*
X1579714D01*
Y5679432D01*
Y5677199D01*
X1577481D01*
Y5674967D01*
Y5672734D01*
X1575249D01*
Y5670502D01*
X1573016D01*
Y5668270D01*
X1570784D01*
Y5666037D01*
Y5663805D01*
X1568552D01*
Y5661573D01*
X1566319D01*
Y5659340D01*
Y5657108D01*
X1564087D01*
Y5654875D01*
X1561854D01*
Y5652643D01*
Y5650411D01*
X1559622D01*
Y5652643D01*
Y5654875D01*
X1557390D01*
Y5657108D01*
X1555157D01*
Y5659340D01*
X1552925D01*
Y5661573D01*
Y5663805D01*
X1550693D01*
Y5666037D01*
X1548460D01*
Y5668270D01*
Y5670502D01*
X1546228D01*
Y5672734D01*
X1543995D01*
Y5674967D01*
X1541763D01*
Y5677199D01*
Y5679432D01*
X1539531D01*
Y5681664D01*
X1537298D01*
Y5683896D01*
Y5686129D01*
X1535066D01*
Y5688361D01*
X1532834D01*
Y5690594D01*
Y5692826D01*
X1530601D01*
Y5695058D01*
X1528369D01*
Y5697291D01*
Y5699523D01*
X1526136D01*
Y5701755D01*
X1523904D01*
Y5703988D01*
X1521672D01*
Y5706220D01*
Y5708453D01*
X1519439D01*
Y5710685D01*
X1517207D01*
Y5712917D01*
Y5715150D01*
X1514975D01*
Y5717382D01*
X1512742D01*
Y5719614D01*
X1510510D01*
Y5721847D01*
Y5724079D01*
X1508277D01*
Y5726312D01*
X1506045D01*
Y5728544D01*
Y5730776D01*
X1503813D01*
Y5733009D01*
X1501580D01*
Y5735241D01*
Y5737473D01*
X1499348D01*
Y5739706D01*
X1497116D01*
Y5741938D01*
X1494883D01*
Y5744171D01*
Y5746403D01*
X1492651D01*
Y5748635D01*
X1490418D01*
Y5750868D01*
Y5753100D01*
X1488186D01*
Y5755332D01*
X1485954D01*
Y5757565D01*
Y5759797D01*
X1483721D01*
Y5762030D01*
X1481489D01*
Y5764262D01*
X1479257D01*
Y5766494D01*
Y5768727D01*
X1477024D01*
Y5770959D01*
Y5773191D01*
X1474792D01*
Y5775424D01*
X1472559D01*
Y5777656D01*
X1470327D01*
Y5779889D01*
X1468095D01*
Y5782121D01*
Y5784353D01*
X1465862D01*
Y5786586D01*
Y5788818D01*
X1463630D01*
Y5791051D01*
X1461397D01*
Y5793283D01*
X1459165D01*
Y5795515D01*
Y5797748D01*
X1456933D01*
Y5799980D01*
X1454700D01*
Y5802212D01*
Y5804445D01*
X1452468D01*
Y5806677D01*
X1450236D01*
Y5808910D01*
Y5811142D01*
X1448003D01*
Y5813374D01*
X1445771D01*
Y5815607D01*
X1443539D01*
Y5817839D01*
Y5820071D01*
X1441306D01*
Y5822304D01*
X1439074D01*
Y5824536D01*
Y5826769D01*
X1436841D01*
Y5829001D01*
X1434609D01*
Y5831233D01*
X1432377D01*
Y5833466D01*
Y5835698D01*
X1430144D01*
Y5837930D01*
X1427912D01*
Y5840163D01*
Y5842395D01*
X1425680D01*
Y5844628D01*
X1423447D01*
Y5846860D01*
X1421215D01*
Y5849092D01*
Y5851325D01*
X1418982D01*
Y5853557D01*
X1546228D01*
Y5851325D01*
D02*
G37*
G36*
X2265053Y5447264D02*
X2260588D01*
Y5445032D01*
X2258356D01*
Y5442800D01*
X2256124D01*
Y5440567D01*
X2251659D01*
Y5438335D01*
X2249426D01*
Y5436103D01*
X2247194D01*
Y5433870D01*
X2242729D01*
Y5431638D01*
X2240497D01*
Y5429405D01*
X2236032D01*
Y5427173D01*
X2233800D01*
Y5424941D01*
X2231567D01*
Y5422708D01*
X2229335D01*
Y5420476D01*
X2224870D01*
Y5418243D01*
X2222638D01*
Y5416011D01*
X2218173D01*
Y5413779D01*
X2215941D01*
Y5411546D01*
X2213708D01*
Y5409314D01*
X2211476D01*
Y5407082D01*
X2207011D01*
Y5404849D01*
X2204779D01*
Y5402617D01*
X2202547D01*
Y5400384D01*
X2198082D01*
Y5398152D01*
X2195849D01*
Y5395920D01*
X2193617D01*
Y5393687D01*
Y5391455D01*
X2195849D01*
Y5389223D01*
X2198082D01*
Y5386990D01*
X2202547D01*
Y5384758D01*
X2204779D01*
Y5382525D01*
X2209243D01*
Y5380293D01*
X2211476D01*
Y5378061D01*
X2213708D01*
Y5375828D01*
X2218173D01*
Y5373596D01*
X2220406D01*
Y5371364D01*
X2222638D01*
Y5369131D01*
X2227103D01*
Y5366899D01*
X2229335D01*
Y5364666D01*
X2233800D01*
Y5362434D01*
X2236032D01*
Y5360202D01*
X2238265D01*
Y5357969D01*
X2240497D01*
Y5355737D01*
X2244962D01*
Y5353505D01*
X2247194D01*
Y5351272D01*
X2251659D01*
Y5349040D01*
X2253891D01*
Y5346808D01*
X2256124D01*
Y5344575D01*
X2260588D01*
Y5342343D01*
X2262820D01*
Y5340110D01*
X2265053D01*
Y5337878D01*
X2218173D01*
Y5340110D01*
X2215941D01*
Y5342343D01*
X2211476D01*
Y5344575D01*
X2209243D01*
Y5346808D01*
X2204779D01*
Y5349040D01*
X2202547D01*
Y5351272D01*
X2198082D01*
Y5353505D01*
X2195849D01*
Y5355737D01*
X2191384D01*
Y5357969D01*
X2189152D01*
Y5360202D01*
X2186920D01*
Y5362434D01*
X2182455D01*
Y5364666D01*
X2180223D01*
Y5366899D01*
X2175758D01*
Y5369131D01*
X2173525D01*
Y5371364D01*
X2171293D01*
Y5373596D01*
X2164596D01*
Y5371364D01*
Y5369131D01*
Y5366899D01*
Y5364666D01*
Y5362434D01*
Y5360202D01*
Y5357969D01*
Y5355737D01*
Y5353505D01*
Y5351272D01*
Y5349040D01*
Y5346808D01*
Y5344575D01*
Y5342343D01*
Y5340110D01*
Y5337878D01*
X2131110D01*
Y5340110D01*
Y5342343D01*
Y5344575D01*
Y5346808D01*
Y5349040D01*
Y5351272D01*
Y5353505D01*
Y5355737D01*
Y5357969D01*
Y5360202D01*
Y5362434D01*
Y5364666D01*
Y5366899D01*
Y5369131D01*
Y5371364D01*
Y5373596D01*
Y5375828D01*
Y5378061D01*
Y5380293D01*
Y5382525D01*
Y5384758D01*
Y5386990D01*
Y5389223D01*
Y5391455D01*
Y5393687D01*
Y5395920D01*
Y5398152D01*
Y5400384D01*
Y5402617D01*
Y5404849D01*
Y5407082D01*
Y5409314D01*
Y5411546D01*
Y5413779D01*
Y5416011D01*
Y5418243D01*
Y5420476D01*
Y5422708D01*
Y5424941D01*
Y5427173D01*
Y5429405D01*
Y5431638D01*
Y5433870D01*
Y5436103D01*
Y5438335D01*
Y5440567D01*
Y5442800D01*
Y5445032D01*
Y5447264D01*
Y5449497D01*
X2164596D01*
Y5447264D01*
Y5445032D01*
Y5442800D01*
Y5440567D01*
Y5438335D01*
Y5436103D01*
Y5433870D01*
Y5431638D01*
Y5429405D01*
Y5427173D01*
Y5424941D01*
Y5422708D01*
Y5420476D01*
Y5418243D01*
Y5416011D01*
Y5413779D01*
Y5411546D01*
X2166828D01*
Y5413779D01*
X2171293D01*
Y5416011D01*
X2173525D01*
Y5418243D01*
X2175758D01*
Y5420476D01*
X2180223D01*
Y5422708D01*
X2182455D01*
Y5424941D01*
X2186920D01*
Y5427173D01*
X2189152D01*
Y5429405D01*
X2191384D01*
Y5431638D01*
X2195849D01*
Y5433870D01*
X2198082D01*
Y5436103D01*
X2200314D01*
Y5438335D01*
X2202547D01*
Y5440567D01*
X2207011D01*
Y5442800D01*
X2209243D01*
Y5445032D01*
X2213708D01*
Y5447264D01*
X2215941D01*
Y5449497D01*
X2265053D01*
Y5447264D01*
D02*
G37*
G36*
X1521672D02*
Y5445032D01*
Y5442800D01*
Y5440567D01*
Y5438335D01*
Y5436103D01*
Y5433870D01*
Y5431638D01*
Y5429405D01*
Y5427173D01*
Y5424941D01*
Y5422708D01*
Y5420476D01*
Y5418243D01*
Y5416011D01*
Y5413779D01*
Y5411546D01*
Y5409314D01*
Y5407082D01*
Y5404849D01*
Y5402617D01*
Y5400384D01*
Y5398152D01*
Y5395920D01*
Y5393687D01*
Y5391455D01*
Y5389223D01*
Y5386990D01*
Y5384758D01*
Y5382525D01*
Y5380293D01*
Y5378061D01*
Y5375828D01*
Y5373596D01*
Y5371364D01*
Y5369131D01*
Y5366899D01*
Y5364666D01*
Y5362434D01*
Y5360202D01*
Y5357969D01*
Y5355737D01*
Y5353505D01*
Y5351272D01*
Y5349040D01*
Y5346808D01*
Y5344575D01*
Y5342343D01*
Y5340110D01*
Y5337878D01*
X1488186D01*
Y5340110D01*
Y5342343D01*
Y5344575D01*
Y5346808D01*
Y5349040D01*
Y5351272D01*
Y5353505D01*
Y5355737D01*
Y5357969D01*
Y5360202D01*
Y5362434D01*
Y5364666D01*
Y5366899D01*
Y5369131D01*
Y5371364D01*
Y5373596D01*
Y5375828D01*
Y5378061D01*
Y5380293D01*
X1425680D01*
Y5378061D01*
X1423447D01*
Y5375828D01*
Y5373596D01*
Y5371364D01*
Y5369131D01*
Y5366899D01*
Y5364666D01*
Y5362434D01*
Y5360202D01*
Y5357969D01*
Y5355737D01*
Y5353505D01*
Y5351272D01*
Y5349040D01*
Y5346808D01*
Y5344575D01*
Y5342343D01*
Y5340110D01*
X1425680D01*
Y5337878D01*
X1389961D01*
Y5340110D01*
Y5342343D01*
Y5344575D01*
Y5346808D01*
Y5349040D01*
Y5351272D01*
Y5353505D01*
Y5355737D01*
Y5357969D01*
Y5360202D01*
Y5362434D01*
Y5364666D01*
Y5366899D01*
Y5369131D01*
Y5371364D01*
Y5373596D01*
Y5375828D01*
Y5378061D01*
Y5380293D01*
Y5382525D01*
Y5384758D01*
Y5386990D01*
Y5389223D01*
Y5391455D01*
Y5393687D01*
Y5395920D01*
Y5398152D01*
Y5400384D01*
Y5402617D01*
Y5404849D01*
Y5407082D01*
Y5409314D01*
Y5411546D01*
Y5413779D01*
Y5416011D01*
Y5418243D01*
Y5420476D01*
Y5422708D01*
Y5424941D01*
Y5427173D01*
Y5429405D01*
Y5431638D01*
Y5433870D01*
Y5436103D01*
Y5438335D01*
Y5440567D01*
Y5442800D01*
Y5445032D01*
Y5447264D01*
Y5449497D01*
X1425680D01*
Y5447264D01*
X1423447D01*
Y5445032D01*
Y5442800D01*
Y5440567D01*
Y5438335D01*
Y5436103D01*
Y5433870D01*
Y5431638D01*
Y5429405D01*
Y5427173D01*
Y5424941D01*
Y5422708D01*
Y5420476D01*
Y5418243D01*
Y5416011D01*
Y5413779D01*
Y5411546D01*
Y5409314D01*
X1488186D01*
Y5411546D01*
Y5413779D01*
Y5416011D01*
Y5418243D01*
Y5420476D01*
Y5422708D01*
Y5424941D01*
Y5427173D01*
Y5429405D01*
Y5431638D01*
Y5433870D01*
Y5436103D01*
Y5438335D01*
Y5440567D01*
Y5442800D01*
Y5445032D01*
Y5447264D01*
Y5449497D01*
X1521672D01*
Y5447264D01*
D02*
G37*
G36*
X1242625D02*
Y5445032D01*
X1240392D01*
Y5442800D01*
X1238160D01*
Y5440567D01*
X1235927D01*
Y5438335D01*
X1233695D01*
Y5436103D01*
X1231463D01*
Y5433870D01*
X1229230D01*
Y5431638D01*
Y5429405D01*
X1226998D01*
Y5427173D01*
X1224766D01*
Y5424941D01*
X1222533D01*
Y5422708D01*
X1220301D01*
Y5420476D01*
X1218068D01*
Y5418243D01*
X1215836D01*
Y5416011D01*
Y5413779D01*
X1213604D01*
Y5411546D01*
X1211371D01*
Y5409314D01*
X1209139D01*
Y5407082D01*
X1206907D01*
Y5404849D01*
X1204674D01*
Y5402617D01*
X1202442D01*
Y5400384D01*
Y5398152D01*
X1200209D01*
Y5395920D01*
X1197977D01*
Y5393687D01*
X1195745D01*
Y5391455D01*
X1193512D01*
Y5389223D01*
X1191280D01*
Y5386990D01*
X1189047D01*
Y5384758D01*
Y5382525D01*
X1186815D01*
Y5380293D01*
X1184583D01*
Y5378061D01*
X1182350D01*
Y5375828D01*
Y5373596D01*
Y5371364D01*
Y5369131D01*
Y5366899D01*
Y5364666D01*
Y5362434D01*
Y5360202D01*
Y5357969D01*
Y5355737D01*
Y5353505D01*
Y5351272D01*
Y5349040D01*
Y5346808D01*
Y5344575D01*
Y5342343D01*
Y5340110D01*
Y5337878D01*
X1146632D01*
Y5340110D01*
Y5342343D01*
Y5344575D01*
Y5346808D01*
Y5349040D01*
Y5351272D01*
Y5353505D01*
Y5355737D01*
Y5357969D01*
Y5360202D01*
Y5362434D01*
Y5364666D01*
Y5366899D01*
Y5369131D01*
Y5371364D01*
Y5373596D01*
Y5375828D01*
Y5378061D01*
X1144400D01*
Y5380293D01*
X1142168D01*
Y5382525D01*
X1139935D01*
Y5384758D01*
X1137703D01*
Y5386990D01*
X1135470D01*
Y5389223D01*
Y5391455D01*
X1133238D01*
Y5393687D01*
X1131006D01*
Y5395920D01*
X1128773D01*
Y5398152D01*
X1126541D01*
Y5400384D01*
X1124309D01*
Y5402617D01*
Y5404849D01*
X1119844D01*
Y5407082D01*
X1117611D01*
Y5409314D01*
Y5411546D01*
X1115379D01*
Y5413779D01*
X1113147D01*
Y5416011D01*
X1110914D01*
Y5418243D01*
X1108682D01*
Y5420476D01*
X1106450D01*
Y5422708D01*
Y5424941D01*
X1101985D01*
Y5427173D01*
X1099752D01*
Y5429405D01*
Y5431638D01*
X1097520D01*
Y5433870D01*
X1095288D01*
Y5436103D01*
X1093055D01*
Y5438335D01*
X1090823D01*
Y5440567D01*
X1088591D01*
Y5442800D01*
X1086358D01*
Y5445032D01*
X1084126D01*
Y5447264D01*
X1081893D01*
Y5449497D01*
X1126541D01*
Y5447264D01*
X1128773D01*
Y5445032D01*
X1131006D01*
Y5442800D01*
X1133238D01*
Y5440567D01*
X1135470D01*
Y5438335D01*
X1137703D01*
Y5436103D01*
X1139935D01*
Y5433870D01*
Y5431638D01*
X1142168D01*
Y5429405D01*
X1144400D01*
Y5427173D01*
X1146632D01*
Y5424941D01*
X1148865D01*
Y5422708D01*
X1151097D01*
Y5420476D01*
Y5418243D01*
X1155562D01*
Y5416011D01*
X1157794D01*
Y5413779D01*
Y5411546D01*
X1160027D01*
Y5409314D01*
X1162259D01*
Y5407082D01*
X1166724D01*
Y5409314D01*
X1168956D01*
Y5411546D01*
X1171189D01*
Y5413779D01*
X1173421D01*
Y5416011D01*
Y5418243D01*
X1175653D01*
Y5420476D01*
X1177886D01*
Y5422708D01*
X1180118D01*
Y5424941D01*
X1182350D01*
Y5427173D01*
X1184583D01*
Y5429405D01*
X1186815D01*
Y5431638D01*
Y5433870D01*
X1191280D01*
Y5436103D01*
Y5438335D01*
X1193512D01*
Y5440567D01*
X1195745D01*
Y5442800D01*
X1197977D01*
Y5445032D01*
X1200209D01*
Y5447264D01*
Y5449497D01*
X1242625D01*
Y5447264D01*
D02*
G37*
G36*
X1921267D02*
X1930197D01*
Y5445032D01*
X1936894D01*
Y5442800D01*
X1941358D01*
Y5440567D01*
X1943591D01*
Y5438335D01*
X1948056D01*
Y5436103D01*
X1950288D01*
Y5433870D01*
X1952520D01*
Y5431638D01*
X1954753D01*
Y5429405D01*
X1956985D01*
Y5427173D01*
Y5424941D01*
X1959217D01*
Y5422708D01*
Y5420476D01*
X1961450D01*
Y5418243D01*
X1963682D01*
Y5416011D01*
Y5413779D01*
Y5411546D01*
Y5409314D01*
X1965915D01*
Y5407082D01*
Y5404849D01*
Y5402617D01*
X1968147D01*
Y5400384D01*
Y5398152D01*
Y5395920D01*
Y5393687D01*
Y5391455D01*
Y5389223D01*
Y5386990D01*
Y5384758D01*
X1965915D01*
Y5382525D01*
Y5380293D01*
Y5378061D01*
Y5375828D01*
X1963682D01*
Y5373596D01*
Y5371364D01*
Y5369131D01*
X1961450D01*
Y5366899D01*
X1959217D01*
Y5364666D01*
Y5362434D01*
X1956985D01*
Y5360202D01*
Y5357969D01*
X1954753D01*
Y5355737D01*
X1952520D01*
Y5353505D01*
X1950288D01*
Y5351272D01*
X1948056D01*
Y5349040D01*
X1943591D01*
Y5346808D01*
X1941358D01*
Y5344575D01*
X1936894D01*
Y5342343D01*
X1930197D01*
Y5340110D01*
X1923499D01*
Y5337878D01*
X1845366D01*
Y5340110D01*
X1838669D01*
Y5342343D01*
X1831972D01*
Y5344575D01*
X1827507D01*
Y5346808D01*
X1823042D01*
Y5349040D01*
X1820810D01*
Y5351272D01*
X1818578D01*
Y5353505D01*
X1816345D01*
Y5355737D01*
X1814113D01*
Y5357969D01*
X1811881D01*
Y5360202D01*
X1809648D01*
Y5362434D01*
Y5364666D01*
X1807416D01*
Y5366899D01*
Y5369131D01*
X1805183D01*
Y5371364D01*
Y5373596D01*
Y5375828D01*
X1802951D01*
Y5378061D01*
Y5380293D01*
Y5382525D01*
Y5384758D01*
X1800719D01*
Y5386990D01*
X1802951D01*
Y5389223D01*
Y5391455D01*
X1800719D01*
Y5393687D01*
Y5395920D01*
X1802951D01*
Y5398152D01*
Y5400384D01*
X1800719D01*
Y5402617D01*
X1802951D01*
Y5404849D01*
Y5407082D01*
Y5409314D01*
Y5411546D01*
X1805183D01*
Y5413779D01*
Y5416011D01*
Y5418243D01*
X1807416D01*
Y5420476D01*
Y5422708D01*
X1809648D01*
Y5424941D01*
X1811881D01*
Y5427173D01*
Y5429405D01*
X1814113D01*
Y5431638D01*
X1816345D01*
Y5433870D01*
X1818578D01*
Y5436103D01*
X1820810D01*
Y5438335D01*
X1825275D01*
Y5440567D01*
X1827507D01*
Y5442800D01*
X1831972D01*
Y5445032D01*
X1838669D01*
Y5447264D01*
X1847599D01*
Y5449497D01*
X1921267D01*
Y5447264D01*
D02*
G37*
G36*
X1760536D02*
X1767233D01*
Y5445032D01*
X1771698D01*
Y5442800D01*
X1776162D01*
Y5440567D01*
X1778395D01*
Y5438335D01*
X1780627D01*
Y5436103D01*
X1782860D01*
Y5433870D01*
X1785092D01*
Y5431638D01*
Y5429405D01*
X1787324D01*
Y5427173D01*
X1789557D01*
Y5424941D01*
Y5422708D01*
Y5420476D01*
Y5418243D01*
X1791789D01*
Y5416011D01*
Y5413779D01*
Y5411546D01*
Y5409314D01*
Y5407082D01*
Y5404849D01*
Y5402617D01*
Y5400384D01*
Y5398152D01*
Y5395920D01*
X1789557D01*
Y5393687D01*
Y5391455D01*
Y5389223D01*
X1787324D01*
Y5386990D01*
Y5384758D01*
X1785092D01*
Y5382525D01*
X1782860D01*
Y5380293D01*
X1780627D01*
Y5378061D01*
X1778395D01*
Y5375828D01*
X1776162D01*
Y5373596D01*
X1773930D01*
Y5371364D01*
X1771698D01*
Y5369131D01*
X1773930D01*
Y5366899D01*
X1776162D01*
Y5364666D01*
X1778395D01*
Y5362434D01*
X1780627D01*
Y5360202D01*
X1782860D01*
Y5357969D01*
X1785092D01*
Y5355737D01*
X1787324D01*
Y5353505D01*
X1789557D01*
Y5351272D01*
X1791789D01*
Y5349040D01*
X1794021D01*
Y5346808D01*
X1796254D01*
Y5344575D01*
X1798486D01*
Y5342343D01*
Y5340110D01*
X1800719D01*
Y5337878D01*
X1751606D01*
Y5340110D01*
X1749374D01*
Y5342343D01*
X1747142D01*
Y5344575D01*
X1744909D01*
Y5346808D01*
Y5349040D01*
X1742677D01*
Y5351272D01*
X1740445D01*
Y5353505D01*
X1738212D01*
Y5355737D01*
X1735980D01*
Y5357969D01*
X1733747D01*
Y5360202D01*
X1731515D01*
Y5362434D01*
Y5364666D01*
X1729283D01*
Y5366899D01*
X1682403D01*
Y5364666D01*
Y5362434D01*
Y5360202D01*
Y5357969D01*
Y5355737D01*
Y5353505D01*
Y5351272D01*
Y5349040D01*
Y5346808D01*
Y5344575D01*
Y5342343D01*
Y5340110D01*
Y5337878D01*
X1648917D01*
Y5340110D01*
Y5342343D01*
Y5344575D01*
Y5346808D01*
Y5349040D01*
Y5351272D01*
Y5353505D01*
Y5355737D01*
Y5357969D01*
Y5360202D01*
Y5362434D01*
Y5364666D01*
Y5366899D01*
Y5369131D01*
Y5371364D01*
Y5373596D01*
Y5375828D01*
Y5378061D01*
Y5380293D01*
Y5382525D01*
Y5384758D01*
Y5386990D01*
Y5389223D01*
Y5391455D01*
Y5393687D01*
X1749374D01*
Y5395920D01*
X1751606D01*
Y5398152D01*
X1756071D01*
Y5400384D01*
Y5402617D01*
X1758304D01*
Y5404849D01*
Y5407082D01*
Y5409314D01*
Y5411546D01*
Y5413779D01*
X1756071D01*
Y5416011D01*
X1753839D01*
Y5418243D01*
X1751606D01*
Y5420476D01*
X1648917D01*
Y5422708D01*
X1651149D01*
Y5424941D01*
X1653382D01*
Y5427173D01*
Y5429405D01*
X1655614D01*
Y5431638D01*
X1657847D01*
Y5433870D01*
X1660079D01*
Y5436103D01*
Y5438335D01*
X1662311D01*
Y5440567D01*
X1664544D01*
Y5442800D01*
Y5445032D01*
X1666776D01*
Y5447264D01*
X1669008D01*
Y5449497D01*
X1760536D01*
Y5447264D01*
D02*
G37*
G36*
X1646685D02*
X1644452D01*
Y5445032D01*
Y5442800D01*
X1642220D01*
Y5440567D01*
X1639988D01*
Y5438335D01*
Y5436103D01*
X1637755D01*
Y5433870D01*
X1635523D01*
Y5431638D01*
Y5429405D01*
X1633291D01*
Y5427173D01*
X1631058D01*
Y5424941D01*
Y5422708D01*
X1570784D01*
Y5420476D01*
Y5418243D01*
Y5416011D01*
Y5413779D01*
Y5411546D01*
Y5409314D01*
Y5407082D01*
X1622129D01*
Y5404849D01*
X1619896D01*
Y5402617D01*
Y5400384D01*
X1617664D01*
Y5398152D01*
X1615432D01*
Y5395920D01*
Y5393687D01*
X1613199D01*
Y5391455D01*
X1610967D01*
Y5389223D01*
Y5386990D01*
X1608734D01*
Y5384758D01*
X1606502D01*
Y5382525D01*
Y5380293D01*
X1573016D01*
Y5378061D01*
X1570784D01*
Y5375828D01*
Y5373596D01*
Y5371364D01*
Y5369131D01*
Y5366899D01*
Y5364666D01*
X1635523D01*
Y5362434D01*
Y5360202D01*
Y5357969D01*
Y5355737D01*
Y5353505D01*
Y5351272D01*
Y5349040D01*
Y5346808D01*
Y5344575D01*
Y5342343D01*
Y5340110D01*
Y5337878D01*
X1537298D01*
Y5340110D01*
Y5342343D01*
Y5344575D01*
Y5346808D01*
Y5349040D01*
Y5351272D01*
Y5353505D01*
Y5355737D01*
Y5357969D01*
Y5360202D01*
Y5362434D01*
Y5364666D01*
Y5366899D01*
Y5369131D01*
Y5371364D01*
Y5373596D01*
Y5375828D01*
Y5378061D01*
Y5380293D01*
Y5382525D01*
Y5384758D01*
Y5386990D01*
Y5389223D01*
Y5391455D01*
Y5393687D01*
Y5395920D01*
Y5398152D01*
Y5400384D01*
Y5402617D01*
Y5404849D01*
Y5407082D01*
Y5409314D01*
Y5411546D01*
Y5413779D01*
Y5416011D01*
Y5418243D01*
Y5420476D01*
Y5422708D01*
Y5424941D01*
Y5427173D01*
Y5429405D01*
Y5431638D01*
Y5433870D01*
Y5436103D01*
Y5438335D01*
Y5440567D01*
Y5442800D01*
Y5445032D01*
Y5447264D01*
Y5449497D01*
X1646685D01*
Y5447264D01*
D02*
G37*
G36*
X1345314D02*
X1352011D01*
Y5445032D01*
X1356476D01*
Y5442800D01*
X1360941D01*
Y5440567D01*
X1363173D01*
Y5438335D01*
X1365405D01*
Y5436103D01*
X1367638D01*
Y5433870D01*
X1369870D01*
Y5431638D01*
X1372102D01*
Y5429405D01*
Y5427173D01*
Y5424941D01*
X1374335D01*
Y5422708D01*
Y5420476D01*
X1376567D01*
Y5418243D01*
Y5416011D01*
Y5413779D01*
Y5411546D01*
Y5409314D01*
Y5407082D01*
Y5404849D01*
Y5402617D01*
Y5400384D01*
Y5398152D01*
Y5395920D01*
X1374335D01*
Y5393687D01*
Y5391455D01*
Y5389223D01*
X1372102D01*
Y5386990D01*
Y5384758D01*
X1369870D01*
Y5382525D01*
X1367638D01*
Y5380293D01*
X1365405D01*
Y5378061D01*
X1363173D01*
Y5375828D01*
X1360941D01*
Y5373596D01*
X1358708D01*
Y5371364D01*
X1354243D01*
Y5369131D01*
X1347546D01*
Y5366899D01*
X1267181D01*
Y5364666D01*
Y5362434D01*
Y5360202D01*
Y5357969D01*
Y5355737D01*
Y5353505D01*
Y5351272D01*
Y5349040D01*
Y5346808D01*
Y5344575D01*
Y5342343D01*
Y5340110D01*
Y5337878D01*
X1233695D01*
Y5340110D01*
Y5342343D01*
Y5344575D01*
Y5346808D01*
Y5349040D01*
Y5351272D01*
Y5353505D01*
Y5355737D01*
Y5357969D01*
Y5360202D01*
Y5362434D01*
Y5364666D01*
Y5366899D01*
Y5369131D01*
Y5371364D01*
Y5373596D01*
Y5375828D01*
Y5378061D01*
Y5380293D01*
Y5382525D01*
Y5384758D01*
Y5386990D01*
Y5389223D01*
Y5391455D01*
Y5393687D01*
X1334152D01*
Y5395920D01*
X1336384D01*
Y5398152D01*
X1340849D01*
Y5400384D01*
Y5402617D01*
X1343082D01*
Y5404849D01*
Y5407082D01*
Y5409314D01*
Y5411546D01*
Y5413779D01*
X1340849D01*
Y5416011D01*
X1338617D01*
Y5418243D01*
X1336384D01*
Y5420476D01*
X1233695D01*
Y5422708D01*
X1235927D01*
Y5424941D01*
X1238160D01*
Y5427173D01*
X1240392D01*
Y5429405D01*
X1242625D01*
Y5431638D01*
Y5433870D01*
X1244857D01*
Y5436103D01*
X1247089D01*
Y5438335D01*
X1249322D01*
Y5440567D01*
X1251554D01*
Y5442800D01*
X1253786D01*
Y5445032D01*
Y5447264D01*
X1256019D01*
Y5449497D01*
X1345314D01*
Y5447264D01*
D02*
G37*
G36*
X2117716D02*
X2115484D01*
Y5445032D01*
X2113252D01*
Y5442800D01*
X2111019D01*
Y5440567D01*
Y5438335D01*
X2108786D01*
Y5436103D01*
Y5433870D01*
X2106554D01*
Y5431638D01*
X2104322D01*
Y5429405D01*
X2102090D01*
Y5427173D01*
Y5424941D01*
X2099857D01*
Y5422708D01*
X2097625D01*
Y5420476D01*
X2030654D01*
Y5418243D01*
X2023956D01*
Y5416011D01*
X2021724D01*
Y5413779D01*
X2017259D01*
Y5411546D01*
Y5409314D01*
X2015027D01*
Y5407082D01*
X2012795D01*
Y5404849D01*
Y5402617D01*
X2010562D01*
Y5400384D01*
Y5398152D01*
Y5395920D01*
Y5393687D01*
Y5391455D01*
Y5389223D01*
Y5386990D01*
Y5384758D01*
Y5382525D01*
X2012795D01*
Y5380293D01*
Y5378061D01*
X2015027D01*
Y5375828D01*
X2017259D01*
Y5373596D01*
X2019492D01*
Y5371364D01*
X2021724D01*
Y5369131D01*
X2026189D01*
Y5366899D01*
X2030654D01*
Y5364666D01*
X2115484D01*
Y5362434D01*
X2113252D01*
Y5360202D01*
Y5357969D01*
X2111019D01*
Y5355737D01*
X2108786D01*
Y5353505D01*
Y5351272D01*
X2106554D01*
Y5349040D01*
X2104322D01*
Y5346808D01*
X2102090D01*
Y5344575D01*
Y5342343D01*
X2099857D01*
Y5340110D01*
Y5337878D01*
X2097625D01*
Y5335646D01*
X2028421D01*
Y5337878D01*
X2019492D01*
Y5340110D01*
X2012795D01*
Y5342343D01*
X2006097D01*
Y5344575D01*
X2003865D01*
Y5346808D01*
X1999400D01*
Y5349040D01*
X1997168D01*
Y5351272D01*
X1994936D01*
Y5353505D01*
X1992703D01*
Y5355737D01*
X1990470D01*
Y5357969D01*
X1988238D01*
Y5360202D01*
Y5362434D01*
X1986006D01*
Y5364666D01*
X1983774D01*
Y5366899D01*
Y5369131D01*
X1981541D01*
Y5371364D01*
Y5373596D01*
Y5375828D01*
Y5378061D01*
X1979309D01*
Y5380293D01*
Y5382525D01*
Y5384758D01*
X1977076D01*
Y5386990D01*
Y5389223D01*
Y5391455D01*
Y5393687D01*
Y5395920D01*
Y5398152D01*
Y5400384D01*
X1979309D01*
Y5402617D01*
Y5404849D01*
Y5407082D01*
Y5409314D01*
X1981541D01*
Y5411546D01*
Y5413779D01*
Y5416011D01*
Y5418243D01*
X1983774D01*
Y5420476D01*
X1986006D01*
Y5422708D01*
Y5424941D01*
X1988238D01*
Y5427173D01*
X1990470D01*
Y5429405D01*
Y5431638D01*
X1992703D01*
Y5433870D01*
X1994936D01*
Y5436103D01*
X1999400D01*
Y5438335D01*
X2001633D01*
Y5440567D01*
X2003865D01*
Y5442800D01*
X2008330D01*
Y5445032D01*
X2015027D01*
Y5447264D01*
X2023956D01*
Y5449497D01*
X2117716D01*
Y5447264D01*
D02*
G37*
G36*
X1068499D02*
X1066267D01*
Y5445032D01*
X1064034D01*
Y5442800D01*
Y5440567D01*
X1061802D01*
Y5438335D01*
Y5436103D01*
X1059570D01*
Y5433870D01*
X1057337D01*
Y5431638D01*
X1055105D01*
Y5429405D01*
Y5427173D01*
X1052873D01*
Y5424941D01*
Y5422708D01*
X1050640D01*
Y5420476D01*
X981436D01*
Y5418243D01*
X976972D01*
Y5416011D01*
X972507D01*
Y5413779D01*
X970275D01*
Y5411546D01*
X968042D01*
Y5409314D01*
X965810D01*
Y5407082D01*
Y5404849D01*
X963578D01*
Y5402617D01*
Y5400384D01*
Y5398152D01*
Y5395920D01*
X961345D01*
Y5393687D01*
Y5391455D01*
Y5389223D01*
X963578D01*
Y5386990D01*
Y5384758D01*
Y5382525D01*
Y5380293D01*
X965810D01*
Y5378061D01*
Y5375828D01*
X968042D01*
Y5373596D01*
X970275D01*
Y5371364D01*
X974739D01*
Y5369131D01*
X976972D01*
Y5366899D01*
X983669D01*
Y5364666D01*
X1066267D01*
Y5362434D01*
Y5360202D01*
X1064034D01*
Y5357969D01*
X1061802D01*
Y5355737D01*
Y5353505D01*
X1059570D01*
Y5351272D01*
X1057337D01*
Y5349040D01*
Y5346808D01*
X1055105D01*
Y5344575D01*
X1052873D01*
Y5342343D01*
Y5340110D01*
X1050640D01*
Y5337878D01*
X1048408D01*
Y5335646D01*
X979204D01*
Y5337878D01*
X970275D01*
Y5340110D01*
X963578D01*
Y5342343D01*
X959113D01*
Y5344575D01*
X954648D01*
Y5346808D01*
X952416D01*
Y5349040D01*
X947951D01*
Y5351272D01*
X945718D01*
Y5353505D01*
X943486D01*
Y5355737D01*
X941254D01*
Y5357969D01*
Y5360202D01*
X939021D01*
Y5362434D01*
X936789D01*
Y5364666D01*
Y5366899D01*
X934556D01*
Y5369131D01*
Y5371364D01*
X932324D01*
Y5373596D01*
Y5375828D01*
Y5378061D01*
X930092D01*
Y5380293D01*
Y5382525D01*
Y5384758D01*
Y5386990D01*
Y5389223D01*
X927859D01*
Y5391455D01*
Y5393687D01*
Y5395920D01*
Y5398152D01*
X930092D01*
Y5400384D01*
Y5402617D01*
Y5404849D01*
Y5407082D01*
X932324D01*
Y5409314D01*
Y5411546D01*
Y5413779D01*
X934556D01*
Y5416011D01*
Y5418243D01*
Y5420476D01*
X936789D01*
Y5422708D01*
X939021D01*
Y5424941D01*
Y5427173D01*
X941254D01*
Y5429405D01*
X943486D01*
Y5431638D01*
X945718D01*
Y5433870D01*
X947951D01*
Y5436103D01*
X950183D01*
Y5438335D01*
X952416D01*
Y5440567D01*
X956880D01*
Y5442800D01*
X959113D01*
Y5445032D01*
X968042D01*
Y5447264D01*
X974739D01*
Y5449497D01*
X1068499D01*
Y5447264D01*
D02*
G37*
%LPC*%
G36*
X1912338Y5420476D02*
X1856528D01*
Y5418243D01*
X1852063D01*
Y5416011D01*
X1847599D01*
Y5413779D01*
X1845366D01*
Y5411546D01*
X1843134D01*
Y5409314D01*
X1840902D01*
Y5407082D01*
Y5404849D01*
X1838669D01*
Y5402617D01*
Y5400384D01*
X1836437D01*
Y5398152D01*
Y5395920D01*
Y5393687D01*
Y5391455D01*
Y5389223D01*
Y5386990D01*
Y5384758D01*
X1838669D01*
Y5382525D01*
Y5380293D01*
X1840902D01*
Y5378061D01*
X1843134D01*
Y5375828D01*
X1845366D01*
Y5373596D01*
X1847599D01*
Y5371364D01*
X1849831D01*
Y5369131D01*
X1854296D01*
Y5366899D01*
X1914570D01*
Y5369131D01*
X1919035D01*
Y5371364D01*
X1921267D01*
Y5373596D01*
X1925732D01*
Y5375828D01*
Y5378061D01*
X1927964D01*
Y5380293D01*
X1930197D01*
Y5382525D01*
Y5384758D01*
Y5386990D01*
X1932429D01*
Y5389223D01*
Y5391455D01*
Y5393687D01*
Y5395920D01*
Y5398152D01*
Y5400384D01*
X1930197D01*
Y5402617D01*
Y5404849D01*
Y5407082D01*
X1927964D01*
Y5409314D01*
X1925732D01*
Y5411546D01*
X1923499D01*
Y5413779D01*
X1921267D01*
Y5416011D01*
X1916802D01*
Y5418243D01*
X1912338D01*
Y5420476D01*
D02*
G37*
%LPD*%
D22*
X579000Y2468000D02*
G03*
X579000Y2468000I-10000J0D01*
G01*
X3183000Y3419000D02*
G03*
X3183000Y3419000I-10000J0D01*
G01*
X2741000Y6532000D02*
G03*
X2741000Y6532000I-10000J0D01*
G01*
X137000Y5581000D02*
G03*
X137000Y5581000I-10000J0D01*
G01*
X1185000Y4035000D02*
X2115000D01*
Y4965000D01*
X1185000D02*
X2115000D01*
X1185000Y4035000D02*
Y4965000D01*
D23*
X1212500Y3877500D02*
G03*
X1212500Y3877500I-12500J0D01*
G01*
D24*
X634000Y2353500D02*
X2666000D01*
X634000Y2836500D02*
X2666000D01*
Y2353500D02*
Y2836500D01*
X634000Y2353500D02*
Y2836500D01*
X895900Y3731500D02*
Y3761500D01*
X805900Y3731500D02*
Y3761500D01*
X3287500Y3484000D02*
Y5516000D01*
X2804500Y3484000D02*
Y5516000D01*
X3287500D01*
X2804500Y3484000D02*
X3287500D01*
X634000Y6646500D02*
X2666000D01*
X634000Y6163500D02*
X2666000D01*
X634000D02*
Y6646500D01*
X2666000Y6163500D02*
Y6646500D01*
X12500Y5516000D02*
X495500D01*
X12500Y3484000D02*
X495500D01*
Y5516000D01*
X12500Y3484000D02*
Y5516000D01*
X1080000Y2165400D02*
X2220000D01*
X1080000Y1695400D02*
X2220000D01*
X2140500Y1331200D02*
Y1361200D01*
X2050500Y1331200D02*
Y1361200D01*
X1238800Y1327300D02*
Y1357300D01*
X1148800Y1327300D02*
Y1357300D01*
D25*
X1536733Y3797275D02*
Y3670317D01*
X1562125Y3644925D01*
X1612908D01*
X1638300Y3670317D01*
Y3797275D01*
X1689084Y3644925D02*
X1739867D01*
X1714476D01*
Y3797275D01*
X1689084Y3771883D01*
X3009908Y5778475D02*
X2959125D01*
X2984517D01*
Y5651517D01*
X2959125Y5626125D01*
X2933733D01*
X2908341Y5651517D01*
X3162259Y5778475D02*
X3111475Y5753083D01*
X3060692Y5702300D01*
Y5651517D01*
X3086084Y5626125D01*
X3136867D01*
X3162259Y5651517D01*
Y5676908D01*
X3136867Y5702300D01*
X3060692D01*
X1574808Y3124175D02*
X1524025D01*
X1549417D01*
Y2997217D01*
X1524025Y2971825D01*
X1498633D01*
X1473241Y2997217D01*
X1701767Y2971825D02*
Y3124175D01*
X1625592Y3048000D01*
X1727159D01*
X304808Y6515075D02*
X254025D01*
X279417D01*
Y6388117D01*
X254025Y6362725D01*
X228633D01*
X203241Y6388117D01*
X457159Y6515075D02*
X355592D01*
Y6438900D01*
X406375Y6464292D01*
X431767D01*
X457159Y6438900D01*
Y6388117D01*
X431767Y6362725D01*
X380984D01*
X355592Y6388117D01*
X111727Y5829251D02*
X60943D01*
X86335D01*
Y5702292D01*
X60943Y5676900D01*
X35552D01*
X10160Y5702292D01*
X162511Y5803859D02*
X187903Y5829251D01*
X238686D01*
X264078Y5803859D01*
Y5778467D01*
X238686Y5753075D01*
X213294D01*
X238686D01*
X264078Y5727683D01*
Y5702292D01*
X238686Y5676900D01*
X187903D01*
X162511Y5702292D01*
X850900Y3441683D02*
X825508Y3467075D01*
X774725D01*
X749333Y3441683D01*
Y3340117D01*
X774725Y3314725D01*
X825508D01*
X850900Y3340117D01*
X901684Y3314725D02*
X952467D01*
X927076D01*
Y3467075D01*
X901684Y3441683D01*
X1485933Y1625575D02*
Y1600183D01*
X1536717Y1549400D01*
X1587500Y1600183D01*
Y1625575D01*
X1536717Y1549400D02*
Y1473225D01*
X1638284D02*
X1689067D01*
X1663676D01*
Y1625575D01*
X1638284Y1600183D01*
X2374908Y1409683D02*
X2349517Y1435075D01*
X2298733D01*
X2273341Y1409683D01*
Y1308117D01*
X2298733Y1282725D01*
X2349517D01*
X2374908Y1308117D01*
X2425692Y1409683D02*
X2451084Y1435075D01*
X2501867D01*
X2527259Y1409683D01*
Y1384292D01*
X2501867Y1358900D01*
X2476475D01*
X2501867D01*
X2527259Y1333508D01*
Y1308117D01*
X2501867Y1282725D01*
X2451084D01*
X2425692Y1308117D01*
X838208Y1409683D02*
X812817Y1435075D01*
X762033D01*
X736641Y1409683D01*
Y1308117D01*
X762033Y1282725D01*
X812817D01*
X838208Y1308117D01*
X990559Y1282725D02*
X888992D01*
X990559Y1384292D01*
Y1409683D01*
X965167Y1435075D01*
X914384D01*
X888992Y1409683D01*
%TF.MD5,af32d885f385565bc64ea1bcf184bb80*%
M02*
