%TF.GenerationSoftware,Altium Limited,Altium Designer,23.4.1 (23)*%
G04 Layer_Color=8388736*
%FSLAX45Y45*%
%MOMM*%
%TF.SameCoordinates,6CFBE55C-8612-4E24-A10C-01F6C23EBCE3*%
%TF.FilePolarity,Negative*%
%TF.FileFunction,Soldermask,Top*%
%TF.Part,Single*%
G01*
G75*
%TA.AperFunction,SMDPad,CuDef*%
%ADD26R,1.20320X1.30320*%
%ADD27R,1.67820X0.50320*%
%ADD28R,0.50320X1.67820*%
%ADD29R,5.80320X2.30320*%
%TA.AperFunction,ComponentPad*%
%ADD30C,1.85320*%
%ADD31R,1.85320X1.85320*%
%ADD32R,1.85320X1.85320*%
%TA.AperFunction,ViaPad*%
%ADD33R,2.20320X2.20320*%
%TA.AperFunction,ComponentPad*%
%ADD34R,1.59320X1.59320*%
%ADD35C,1.59320*%
D26*
X850900Y3831500D02*
D03*
Y3661500D02*
D03*
X2095500Y1431200D02*
D03*
Y1261200D02*
D03*
X1193800Y1427300D02*
D03*
Y1257300D02*
D03*
D27*
X1076200Y4125000D02*
D03*
Y4175000D02*
D03*
Y4225000D02*
D03*
Y4275000D02*
D03*
Y4325000D02*
D03*
Y4375000D02*
D03*
Y4425000D02*
D03*
Y4475000D02*
D03*
Y4525000D02*
D03*
Y4575000D02*
D03*
Y4625000D02*
D03*
Y4675000D02*
D03*
Y4725000D02*
D03*
Y4775000D02*
D03*
Y4825000D02*
D03*
Y4875000D02*
D03*
X2223800D02*
D03*
Y4825000D02*
D03*
Y4775000D02*
D03*
Y4725000D02*
D03*
Y4675000D02*
D03*
Y4625000D02*
D03*
Y4575000D02*
D03*
Y4525000D02*
D03*
Y4475000D02*
D03*
Y4425000D02*
D03*
Y4375000D02*
D03*
Y4325000D02*
D03*
Y4275000D02*
D03*
Y4225000D02*
D03*
Y4175000D02*
D03*
Y4125000D02*
D03*
D28*
X1275000Y5073800D02*
D03*
X1325000D02*
D03*
X1375000D02*
D03*
X1425000D02*
D03*
X1475000D02*
D03*
X1525000D02*
D03*
X1575000D02*
D03*
X1625000D02*
D03*
X1675000D02*
D03*
X1725000D02*
D03*
X1775000D02*
D03*
X1825000D02*
D03*
X1875000D02*
D03*
X1925000D02*
D03*
X1975000D02*
D03*
X2025000D02*
D03*
Y3926200D02*
D03*
X1975000D02*
D03*
X1925000D02*
D03*
X1875000D02*
D03*
X1825000D02*
D03*
X1775000D02*
D03*
X1725000D02*
D03*
X1675000D02*
D03*
X1625000D02*
D03*
X1575000D02*
D03*
X1525000D02*
D03*
X1475000D02*
D03*
X1425000D02*
D03*
X1375000D02*
D03*
X1325000D02*
D03*
X1275000D02*
D03*
D29*
X1175000Y1930400D02*
D03*
X2125000D02*
D03*
D30*
X2539000Y2722000D02*
D03*
Y2468000D02*
D03*
X2285000Y2722000D02*
D03*
Y2468000D02*
D03*
X2031000Y2722000D02*
D03*
Y2468000D02*
D03*
X1777000Y2722000D02*
D03*
Y2468000D02*
D03*
X1523000Y2722000D02*
D03*
Y2468000D02*
D03*
X1269000Y2722000D02*
D03*
Y2468000D02*
D03*
X1015000Y2722000D02*
D03*
Y2468000D02*
D03*
X761000Y2722000D02*
D03*
X2919000Y5389000D02*
D03*
X3173000D02*
D03*
X2919000Y5135000D02*
D03*
X3173000D02*
D03*
X2919000Y4881000D02*
D03*
X3173000D02*
D03*
X2919000Y4627000D02*
D03*
X3173000D02*
D03*
X2919000Y4373000D02*
D03*
X3173000D02*
D03*
X2919000Y4119000D02*
D03*
X3173000D02*
D03*
X2919000Y3865000D02*
D03*
X3173000D02*
D03*
X2919000Y3611000D02*
D03*
X761000Y6278000D02*
D03*
Y6532000D02*
D03*
X1015000Y6278000D02*
D03*
Y6532000D02*
D03*
X1269000Y6278000D02*
D03*
Y6532000D02*
D03*
X1523000Y6278000D02*
D03*
Y6532000D02*
D03*
X1777000Y6278000D02*
D03*
Y6532000D02*
D03*
X2031000Y6278000D02*
D03*
Y6532000D02*
D03*
X2285000Y6278000D02*
D03*
Y6532000D02*
D03*
X2539000Y6278000D02*
D03*
X381000Y5389000D02*
D03*
X127000Y5135000D02*
D03*
X381000D02*
D03*
X127000Y4881000D02*
D03*
X381000D02*
D03*
X127000Y4627000D02*
D03*
X381000D02*
D03*
X127000Y4373000D02*
D03*
X381000D02*
D03*
X127000Y4119000D02*
D03*
X381000D02*
D03*
X127000Y3865000D02*
D03*
X381000D02*
D03*
X127000Y3611000D02*
D03*
X381000D02*
D03*
D31*
X761000Y2468000D02*
D03*
X2539000Y6532000D02*
D03*
D32*
X3173000Y3611000D02*
D03*
X127000Y5389000D02*
D03*
D33*
X1028700Y7061200D02*
D03*
X1282700D02*
D03*
X266700Y7315200D02*
D03*
X1028700D02*
D03*
X520700D02*
D03*
X774700D02*
D03*
X520700Y7061200D02*
D03*
X774700D02*
D03*
X1282700Y7315200D02*
D03*
X2044700D02*
D03*
Y7061200D02*
D03*
X1790700D02*
D03*
Y7315200D02*
D03*
X1536700Y7061200D02*
D03*
Y7315200D02*
D03*
X266700Y7061200D02*
D03*
X3060700Y7315200D02*
D03*
X2806700Y7061200D02*
D03*
Y7315200D02*
D03*
X2298700D02*
D03*
Y7061200D02*
D03*
X2552700D02*
D03*
Y7315200D02*
D03*
X2298700Y7823200D02*
D03*
Y7569200D02*
D03*
X2552700D02*
D03*
Y7823200D02*
D03*
X3060700D02*
D03*
Y7569200D02*
D03*
X2806700D02*
D03*
Y7823200D02*
D03*
X1282700D02*
D03*
Y7569200D02*
D03*
X1536700D02*
D03*
Y7823200D02*
D03*
X2044700D02*
D03*
Y7569200D02*
D03*
X1790700D02*
D03*
Y7823200D02*
D03*
X774700D02*
D03*
Y7569200D02*
D03*
X1028700D02*
D03*
Y7823200D02*
D03*
X520700D02*
D03*
Y7569200D02*
D03*
X266700D02*
D03*
Y7823200D02*
D03*
X3060700Y7061200D02*
D03*
D34*
X508000Y508000D02*
D03*
Y8238000D02*
D03*
D35*
Y762000D02*
D03*
X762000Y508000D02*
D03*
Y762000D02*
D03*
X1016000Y508000D02*
D03*
Y762000D02*
D03*
X1270000Y508000D02*
D03*
Y762000D02*
D03*
X1524000Y508000D02*
D03*
Y762000D02*
D03*
X1778000Y508000D02*
D03*
Y762000D02*
D03*
X2032000Y508000D02*
D03*
Y762000D02*
D03*
X2286000Y508000D02*
D03*
Y762000D02*
D03*
X2540000Y508000D02*
D03*
Y762000D02*
D03*
X2794000Y508000D02*
D03*
Y762000D02*
D03*
X508000Y8492000D02*
D03*
X762000Y8238000D02*
D03*
Y8492000D02*
D03*
X1016000Y8238000D02*
D03*
Y8492000D02*
D03*
X1270000Y8238000D02*
D03*
Y8492000D02*
D03*
X1524000Y8238000D02*
D03*
Y8492000D02*
D03*
X1778000Y8238000D02*
D03*
Y8492000D02*
D03*
X2032000Y8238000D02*
D03*
Y8492000D02*
D03*
X2286000Y8238000D02*
D03*
Y8492000D02*
D03*
X2540000Y8238000D02*
D03*
Y8492000D02*
D03*
X2794000Y8238000D02*
D03*
Y8492000D02*
D03*
%TF.MD5,c9a496a68893501fd7f92c81afde5e96*%
M02*
