%TF.GenerationSoftware,Altium Limited,Altium Designer,23.4.1 (23)*%
G04 Layer_Color=8421504*
%FSLAX45Y45*%
%MOMM*%
%TF.SameCoordinates,2443AD3D-16DC-45C5-9BCC-0FA72C26467A*%
%TF.FilePolarity,Positive*%
%TF.FileFunction,Paste,Top*%
%TF.Part,Single*%
G01*
G75*
%TA.AperFunction,SMDPad,CuDef*%
%ADD10R,1.10000X1.00000*%
%ADD11R,1.00000X1.10000*%
%ADD12R,1.47500X0.30000*%
%ADD13R,0.30000X1.47500*%
%ADD14R,5.60000X2.10000*%
D10*
X2375625Y5175250D02*
D03*
X2545625D02*
D03*
D11*
X2698750Y1454875D02*
D03*
Y1624875D02*
D03*
X635000Y1454875D02*
D03*
Y1624875D02*
D03*
D12*
X1076200Y4875000D02*
D03*
Y4825000D02*
D03*
Y4775000D02*
D03*
Y4725000D02*
D03*
Y4675000D02*
D03*
Y4625000D02*
D03*
Y4575000D02*
D03*
Y4525000D02*
D03*
Y4475000D02*
D03*
Y4425000D02*
D03*
Y4375000D02*
D03*
Y4325000D02*
D03*
Y4275000D02*
D03*
Y4225000D02*
D03*
Y4175000D02*
D03*
Y4125000D02*
D03*
X2223800D02*
D03*
Y4175000D02*
D03*
Y4225000D02*
D03*
Y4275000D02*
D03*
Y4325000D02*
D03*
Y4375000D02*
D03*
Y4425000D02*
D03*
Y4475000D02*
D03*
Y4525000D02*
D03*
Y4575000D02*
D03*
Y4625000D02*
D03*
Y4675000D02*
D03*
Y4725000D02*
D03*
Y4775000D02*
D03*
Y4825000D02*
D03*
Y4875000D02*
D03*
D13*
X1275000Y3926200D02*
D03*
X1325000D02*
D03*
X1375000D02*
D03*
X1425000D02*
D03*
X1475000D02*
D03*
X1525000D02*
D03*
X1575000D02*
D03*
X1625000D02*
D03*
X1675000D02*
D03*
X1725000D02*
D03*
X1775000D02*
D03*
X1825000D02*
D03*
X1875000D02*
D03*
X1925000D02*
D03*
X1975000D02*
D03*
X2025000D02*
D03*
Y5073800D02*
D03*
X1975000D02*
D03*
X1925000D02*
D03*
X1875000D02*
D03*
X1825000D02*
D03*
X1775000D02*
D03*
X1725000D02*
D03*
X1675000D02*
D03*
X1625000D02*
D03*
X1575000D02*
D03*
X1525000D02*
D03*
X1475000D02*
D03*
X1425000D02*
D03*
X1375000D02*
D03*
X1325000D02*
D03*
X1275000D02*
D03*
D14*
X1175000Y1619250D02*
D03*
X2125000D02*
D03*
%TF.MD5,9423531b1546fffe6bfb8b81f3db4c79*%
M02*
