%TF.GenerationSoftware,Altium Limited,Altium Designer,23.4.1 (23)*%
G04 Layer_Physical_Order=2*
G04 Layer_Color=16711680*
%FSLAX45Y45*%
%MOMM*%
%TF.SameCoordinates,2443AD3D-16DC-45C5-9BCC-0FA72C26467A*%
%TF.FilePolarity,Positive*%
%TF.FileFunction,Copper,L2,Bot,Signal*%
%TF.Part,Single*%
G01*
G75*
%TA.AperFunction,Conductor*%
%ADD15C,0.20000*%
%TA.AperFunction,ComponentPad*%
%ADD17R,1.65000X1.65000*%
%ADD18C,1.65000*%
%TA.AperFunction,ViaPad*%
%ADD19R,2.00000X2.00000*%
%TA.AperFunction,ComponentPad*%
%ADD20R,1.65000X1.65000*%
%ADD21R,1.39000X1.39000*%
%ADD22C,1.39000*%
%TA.AperFunction,SMDPad,CuDef*%
G04:AMPARAMS|DCode=23|XSize=0.94mm|YSize=1.02mm|CornerRadius=0.094mm|HoleSize=0mm|Usage=FLASHONLY|Rotation=90.000|XOffset=0mm|YOffset=0mm|HoleType=Round|Shape=RoundedRectangle|*
%AMROUNDEDRECTD23*
21,1,0.94000,0.83200,0,0,90.0*
21,1,0.75200,1.02000,0,0,90.0*
1,1,0.18800,0.41600,0.37600*
1,1,0.18800,0.41600,-0.37600*
1,1,0.18800,-0.41600,-0.37600*
1,1,0.18800,-0.41600,0.37600*
%
%ADD23ROUNDEDRECTD23*%
G36*
X3314700Y0D02*
X12700D01*
Y3592475D01*
X25400Y3594147D01*
X31485Y3571436D01*
X44980Y3548064D01*
X64064Y3528979D01*
X87436Y3515485D01*
X113506Y3508500D01*
X140494D01*
X166564Y3515485D01*
X189936Y3528979D01*
X209020Y3548064D01*
X222515Y3571436D01*
X229500Y3597506D01*
Y3624494D01*
X222515Y3650563D01*
X209020Y3673936D01*
X189936Y3693020D01*
X166564Y3706515D01*
X140494Y3713500D01*
X113506D01*
X87436Y3706515D01*
X64064Y3693020D01*
X44980Y3673936D01*
X31485Y3650563D01*
X25400Y3627853D01*
X12700Y3629525D01*
Y3846475D01*
X25400Y3848147D01*
X31485Y3825436D01*
X44980Y3802064D01*
X64064Y3782979D01*
X87436Y3769485D01*
X113506Y3762500D01*
X140494D01*
X166564Y3769485D01*
X189936Y3782979D01*
X209020Y3802064D01*
X222515Y3825436D01*
X229500Y3851506D01*
Y3878494D01*
X222515Y3904563D01*
X209020Y3927936D01*
X189936Y3947020D01*
X166564Y3960515D01*
X140494Y3967500D01*
X113506D01*
X87436Y3960515D01*
X64064Y3947020D01*
X44980Y3927936D01*
X31485Y3904563D01*
X25400Y3881853D01*
X12700Y3883525D01*
Y4100475D01*
X25400Y4102147D01*
X31485Y4079436D01*
X44980Y4056064D01*
X64064Y4036979D01*
X87436Y4023485D01*
X113506Y4016500D01*
X140494D01*
X166564Y4023485D01*
X189936Y4036979D01*
X209020Y4056064D01*
X222515Y4079436D01*
X229500Y4105506D01*
Y4132494D01*
X222515Y4158563D01*
X209020Y4181936D01*
X189936Y4201020D01*
X166564Y4214515D01*
X140494Y4221500D01*
X113506D01*
X87436Y4214515D01*
X64064Y4201020D01*
X44980Y4181936D01*
X31485Y4158563D01*
X25400Y4135853D01*
X12700Y4137525D01*
Y4354475D01*
X25400Y4356147D01*
X31485Y4333436D01*
X44980Y4310064D01*
X64064Y4290979D01*
X87436Y4277485D01*
X113506Y4270500D01*
X140494D01*
X166564Y4277485D01*
X189936Y4290979D01*
X209020Y4310064D01*
X222515Y4333436D01*
X229500Y4359506D01*
Y4386494D01*
X222515Y4412563D01*
X209020Y4435936D01*
X189936Y4455020D01*
X166564Y4468515D01*
X140494Y4475500D01*
X113506D01*
X87436Y4468515D01*
X64064Y4455020D01*
X44980Y4435936D01*
X31485Y4412563D01*
X25400Y4389853D01*
X12700Y4391525D01*
Y4608475D01*
X25400Y4610147D01*
X31485Y4587436D01*
X44980Y4564064D01*
X64064Y4544979D01*
X87436Y4531485D01*
X113506Y4524500D01*
X140494D01*
X166564Y4531485D01*
X189936Y4544979D01*
X209020Y4564064D01*
X222515Y4587436D01*
X229500Y4613506D01*
Y4640494D01*
X222515Y4666563D01*
X209020Y4689936D01*
X189936Y4709020D01*
X166564Y4722515D01*
X140494Y4729500D01*
X113506D01*
X87436Y4722515D01*
X64064Y4709020D01*
X44980Y4689936D01*
X31485Y4666563D01*
X25400Y4643853D01*
X12700Y4645525D01*
Y4862475D01*
X25400Y4864147D01*
X31485Y4841436D01*
X44980Y4818064D01*
X64064Y4798979D01*
X87436Y4785485D01*
X113506Y4778500D01*
X140494D01*
X166564Y4785485D01*
X189936Y4798979D01*
X209020Y4818064D01*
X222515Y4841436D01*
X229500Y4867506D01*
Y4894494D01*
X222515Y4920563D01*
X209020Y4943936D01*
X189936Y4963020D01*
X166564Y4976515D01*
X140494Y4983500D01*
X113506D01*
X87436Y4976515D01*
X64064Y4963020D01*
X44980Y4943936D01*
X31485Y4920563D01*
X25400Y4897853D01*
X12700Y4899525D01*
Y5116475D01*
X25400Y5118147D01*
X31485Y5095436D01*
X44980Y5072064D01*
X64064Y5052979D01*
X87436Y5039485D01*
X113506Y5032500D01*
X140494D01*
X166564Y5039485D01*
X189936Y5052979D01*
X209020Y5072064D01*
X222515Y5095436D01*
X229500Y5121506D01*
Y5148494D01*
X222515Y5174563D01*
X209020Y5197936D01*
X189936Y5217020D01*
X166564Y5230515D01*
X140494Y5237500D01*
X113506D01*
X87436Y5230515D01*
X64064Y5217020D01*
X44980Y5197936D01*
X31485Y5174563D01*
X25400Y5151853D01*
X12700Y5153525D01*
Y5284327D01*
X24500Y5286500D01*
X25400Y5286500D01*
X229500D01*
Y5491500D01*
X25400D01*
X24500Y5491500D01*
X12700Y5493673D01*
Y8991600D01*
X3314700D01*
Y0D01*
D02*
G37*
%LPC*%
G36*
X2805783Y8581500D02*
X2782217D01*
X2759454Y8575401D01*
X2739046Y8563618D01*
X2722382Y8546954D01*
X2710599Y8526546D01*
X2704500Y8503783D01*
Y8480217D01*
X2710599Y8457454D01*
X2722382Y8437046D01*
X2739046Y8420382D01*
X2759454Y8408599D01*
X2782217Y8402500D01*
X2805783D01*
X2828546Y8408599D01*
X2848954Y8420382D01*
X2865618Y8437046D01*
X2877401Y8457454D01*
X2883500Y8480217D01*
Y8503783D01*
X2877401Y8526546D01*
X2865618Y8546954D01*
X2848954Y8563618D01*
X2828546Y8575401D01*
X2805783Y8581500D01*
D02*
G37*
G36*
X2551783D02*
X2528217D01*
X2505454Y8575401D01*
X2485046Y8563618D01*
X2468382Y8546954D01*
X2456599Y8526546D01*
X2450500Y8503783D01*
Y8480217D01*
X2456599Y8457454D01*
X2468382Y8437046D01*
X2485046Y8420382D01*
X2505454Y8408599D01*
X2528217Y8402500D01*
X2551783D01*
X2574546Y8408599D01*
X2594954Y8420382D01*
X2611618Y8437046D01*
X2623401Y8457454D01*
X2629500Y8480217D01*
Y8503783D01*
X2623401Y8526546D01*
X2611618Y8546954D01*
X2594954Y8563618D01*
X2574546Y8575401D01*
X2551783Y8581500D01*
D02*
G37*
G36*
X2297783D02*
X2274217D01*
X2251454Y8575401D01*
X2231046Y8563618D01*
X2214382Y8546954D01*
X2202599Y8526546D01*
X2196500Y8503783D01*
Y8480217D01*
X2202599Y8457454D01*
X2214382Y8437046D01*
X2231046Y8420382D01*
X2251454Y8408599D01*
X2274217Y8402500D01*
X2297783D01*
X2320546Y8408599D01*
X2340954Y8420382D01*
X2357618Y8437046D01*
X2369401Y8457454D01*
X2375500Y8480217D01*
Y8503783D01*
X2369401Y8526546D01*
X2357618Y8546954D01*
X2340954Y8563618D01*
X2320546Y8575401D01*
X2297783Y8581500D01*
D02*
G37*
G36*
X2043783D02*
X2020217D01*
X1997454Y8575401D01*
X1977046Y8563618D01*
X1960382Y8546954D01*
X1948599Y8526546D01*
X1942500Y8503783D01*
Y8480217D01*
X1948599Y8457454D01*
X1960382Y8437046D01*
X1977046Y8420382D01*
X1997454Y8408599D01*
X2020217Y8402500D01*
X2043783D01*
X2066546Y8408599D01*
X2086954Y8420382D01*
X2103618Y8437046D01*
X2115401Y8457454D01*
X2121500Y8480217D01*
Y8503783D01*
X2115401Y8526546D01*
X2103618Y8546954D01*
X2086954Y8563618D01*
X2066546Y8575401D01*
X2043783Y8581500D01*
D02*
G37*
G36*
X1789783D02*
X1766217D01*
X1743454Y8575401D01*
X1723046Y8563618D01*
X1706382Y8546954D01*
X1694599Y8526546D01*
X1688500Y8503783D01*
Y8480217D01*
X1694599Y8457454D01*
X1706382Y8437046D01*
X1723046Y8420382D01*
X1743454Y8408599D01*
X1766217Y8402500D01*
X1789783D01*
X1812546Y8408599D01*
X1832954Y8420382D01*
X1849618Y8437046D01*
X1861401Y8457454D01*
X1867500Y8480217D01*
Y8503783D01*
X1861401Y8526546D01*
X1849618Y8546954D01*
X1832954Y8563618D01*
X1812546Y8575401D01*
X1789783Y8581500D01*
D02*
G37*
G36*
X1535783D02*
X1512217D01*
X1489454Y8575401D01*
X1469046Y8563618D01*
X1452382Y8546954D01*
X1440599Y8526546D01*
X1434500Y8503783D01*
Y8480217D01*
X1440599Y8457454D01*
X1452382Y8437046D01*
X1469046Y8420382D01*
X1489454Y8408599D01*
X1512217Y8402500D01*
X1535783D01*
X1558546Y8408599D01*
X1578954Y8420382D01*
X1595618Y8437046D01*
X1607401Y8457454D01*
X1613500Y8480217D01*
Y8503783D01*
X1607401Y8526546D01*
X1595618Y8546954D01*
X1578954Y8563618D01*
X1558546Y8575401D01*
X1535783Y8581500D01*
D02*
G37*
G36*
X1281783D02*
X1258217D01*
X1235454Y8575401D01*
X1215046Y8563618D01*
X1198382Y8546954D01*
X1186599Y8526546D01*
X1180500Y8503783D01*
Y8480217D01*
X1186599Y8457454D01*
X1198382Y8437046D01*
X1215046Y8420382D01*
X1235454Y8408599D01*
X1258217Y8402500D01*
X1281783D01*
X1304546Y8408599D01*
X1324954Y8420382D01*
X1341618Y8437046D01*
X1353401Y8457454D01*
X1359500Y8480217D01*
Y8503783D01*
X1353401Y8526546D01*
X1341618Y8546954D01*
X1324954Y8563618D01*
X1304546Y8575401D01*
X1281783Y8581500D01*
D02*
G37*
G36*
X1027783D02*
X1004217D01*
X981454Y8575401D01*
X961046Y8563618D01*
X944382Y8546954D01*
X932599Y8526546D01*
X926500Y8503783D01*
Y8480217D01*
X932599Y8457454D01*
X944382Y8437046D01*
X961046Y8420382D01*
X981454Y8408599D01*
X1004217Y8402500D01*
X1027783D01*
X1050546Y8408599D01*
X1070954Y8420382D01*
X1087618Y8437046D01*
X1099401Y8457454D01*
X1105500Y8480217D01*
Y8503783D01*
X1099401Y8526546D01*
X1087618Y8546954D01*
X1070954Y8563618D01*
X1050546Y8575401D01*
X1027783Y8581500D01*
D02*
G37*
G36*
X773783D02*
X750217D01*
X727454Y8575401D01*
X707046Y8563618D01*
X690382Y8546954D01*
X678599Y8526546D01*
X672500Y8503783D01*
Y8480217D01*
X678599Y8457454D01*
X690382Y8437046D01*
X707046Y8420382D01*
X727454Y8408599D01*
X750217Y8402500D01*
X773783D01*
X796546Y8408599D01*
X816954Y8420382D01*
X833618Y8437046D01*
X845401Y8457454D01*
X851500Y8480217D01*
Y8503783D01*
X845401Y8526546D01*
X833618Y8546954D01*
X816954Y8563618D01*
X796546Y8575401D01*
X773783Y8581500D01*
D02*
G37*
G36*
X519783D02*
X496217D01*
X473454Y8575401D01*
X453046Y8563618D01*
X436382Y8546954D01*
X424599Y8526546D01*
X418500Y8503783D01*
Y8480217D01*
X424599Y8457454D01*
X436382Y8437046D01*
X453046Y8420382D01*
X473454Y8408599D01*
X496217Y8402500D01*
X519783D01*
X542546Y8408599D01*
X562954Y8420382D01*
X579618Y8437046D01*
X591401Y8457454D01*
X597500Y8480217D01*
Y8503783D01*
X591401Y8526546D01*
X579618Y8546954D01*
X562954Y8563618D01*
X542546Y8575401D01*
X519783Y8581500D01*
D02*
G37*
G36*
X2805783Y8327500D02*
X2782217D01*
X2759454Y8321401D01*
X2739046Y8309618D01*
X2722382Y8292954D01*
X2710599Y8272546D01*
X2704500Y8249783D01*
Y8226217D01*
X2710599Y8203454D01*
X2722382Y8183046D01*
X2739046Y8166382D01*
X2759454Y8154599D01*
X2782217Y8148500D01*
X2805783D01*
X2828546Y8154599D01*
X2848954Y8166382D01*
X2865618Y8183046D01*
X2877401Y8203454D01*
X2883500Y8226217D01*
Y8249783D01*
X2877401Y8272546D01*
X2865618Y8292954D01*
X2848954Y8309618D01*
X2828546Y8321401D01*
X2805783Y8327500D01*
D02*
G37*
G36*
X2551783D02*
X2528217D01*
X2505454Y8321401D01*
X2485046Y8309618D01*
X2468382Y8292954D01*
X2456599Y8272546D01*
X2450500Y8249783D01*
Y8226217D01*
X2456599Y8203454D01*
X2468382Y8183046D01*
X2485046Y8166382D01*
X2505454Y8154599D01*
X2528217Y8148500D01*
X2551783D01*
X2574546Y8154599D01*
X2594954Y8166382D01*
X2611618Y8183046D01*
X2623401Y8203454D01*
X2629500Y8226217D01*
Y8249783D01*
X2623401Y8272546D01*
X2611618Y8292954D01*
X2594954Y8309618D01*
X2574546Y8321401D01*
X2551783Y8327500D01*
D02*
G37*
G36*
X2297783D02*
X2274217D01*
X2251454Y8321401D01*
X2231046Y8309618D01*
X2214382Y8292954D01*
X2202599Y8272546D01*
X2196500Y8249783D01*
Y8226217D01*
X2202599Y8203454D01*
X2214382Y8183046D01*
X2231046Y8166382D01*
X2251454Y8154599D01*
X2274217Y8148500D01*
X2297783D01*
X2320546Y8154599D01*
X2340954Y8166382D01*
X2357618Y8183046D01*
X2369401Y8203454D01*
X2375500Y8226217D01*
Y8249783D01*
X2369401Y8272546D01*
X2357618Y8292954D01*
X2340954Y8309618D01*
X2320546Y8321401D01*
X2297783Y8327500D01*
D02*
G37*
G36*
X2043783D02*
X2020217D01*
X1997454Y8321401D01*
X1977046Y8309618D01*
X1960382Y8292954D01*
X1948599Y8272546D01*
X1942500Y8249783D01*
Y8226217D01*
X1948599Y8203454D01*
X1960382Y8183046D01*
X1977046Y8166382D01*
X1997454Y8154599D01*
X2020217Y8148500D01*
X2043783D01*
X2066546Y8154599D01*
X2086954Y8166382D01*
X2103618Y8183046D01*
X2115401Y8203454D01*
X2121500Y8226217D01*
Y8249783D01*
X2115401Y8272546D01*
X2103618Y8292954D01*
X2086954Y8309618D01*
X2066546Y8321401D01*
X2043783Y8327500D01*
D02*
G37*
G36*
X1789783D02*
X1766217D01*
X1743454Y8321401D01*
X1723046Y8309618D01*
X1706382Y8292954D01*
X1694599Y8272546D01*
X1688500Y8249783D01*
Y8226217D01*
X1694599Y8203454D01*
X1706382Y8183046D01*
X1723046Y8166382D01*
X1743454Y8154599D01*
X1766217Y8148500D01*
X1789783D01*
X1812546Y8154599D01*
X1832954Y8166382D01*
X1849618Y8183046D01*
X1861401Y8203454D01*
X1867500Y8226217D01*
Y8249783D01*
X1861401Y8272546D01*
X1849618Y8292954D01*
X1832954Y8309618D01*
X1812546Y8321401D01*
X1789783Y8327500D01*
D02*
G37*
G36*
X1535783D02*
X1512217D01*
X1489454Y8321401D01*
X1469046Y8309618D01*
X1452382Y8292954D01*
X1440599Y8272546D01*
X1434500Y8249783D01*
Y8226217D01*
X1440599Y8203454D01*
X1452382Y8183046D01*
X1469046Y8166382D01*
X1489454Y8154599D01*
X1512217Y8148500D01*
X1535783D01*
X1558546Y8154599D01*
X1578954Y8166382D01*
X1595618Y8183046D01*
X1607401Y8203454D01*
X1613500Y8226217D01*
Y8249783D01*
X1607401Y8272546D01*
X1595618Y8292954D01*
X1578954Y8309618D01*
X1558546Y8321401D01*
X1535783Y8327500D01*
D02*
G37*
G36*
X1281783D02*
X1258217D01*
X1235454Y8321401D01*
X1215046Y8309618D01*
X1198382Y8292954D01*
X1186599Y8272546D01*
X1180500Y8249783D01*
Y8226217D01*
X1186599Y8203454D01*
X1198382Y8183046D01*
X1215046Y8166382D01*
X1235454Y8154599D01*
X1258217Y8148500D01*
X1281783D01*
X1304546Y8154599D01*
X1324954Y8166382D01*
X1341618Y8183046D01*
X1353401Y8203454D01*
X1359500Y8226217D01*
Y8249783D01*
X1353401Y8272546D01*
X1341618Y8292954D01*
X1324954Y8309618D01*
X1304546Y8321401D01*
X1281783Y8327500D01*
D02*
G37*
G36*
X1027783D02*
X1004217D01*
X981454Y8321401D01*
X961046Y8309618D01*
X944382Y8292954D01*
X932599Y8272546D01*
X926500Y8249783D01*
Y8226217D01*
X932599Y8203454D01*
X944382Y8183046D01*
X961046Y8166382D01*
X981454Y8154599D01*
X1004217Y8148500D01*
X1027783D01*
X1050546Y8154599D01*
X1070954Y8166382D01*
X1087618Y8183046D01*
X1099401Y8203454D01*
X1105500Y8226217D01*
Y8249783D01*
X1099401Y8272546D01*
X1087618Y8292954D01*
X1070954Y8309618D01*
X1050546Y8321401D01*
X1027783Y8327500D01*
D02*
G37*
G36*
X773783D02*
X750217D01*
X727454Y8321401D01*
X707046Y8309618D01*
X690382Y8292954D01*
X678599Y8272546D01*
X672500Y8249783D01*
Y8226217D01*
X678599Y8203454D01*
X690382Y8183046D01*
X707046Y8166382D01*
X727454Y8154599D01*
X750217Y8148500D01*
X773783D01*
X796546Y8154599D01*
X816954Y8166382D01*
X833618Y8183046D01*
X845401Y8203454D01*
X851500Y8226217D01*
Y8249783D01*
X845401Y8272546D01*
X833618Y8292954D01*
X816954Y8309618D01*
X796546Y8321401D01*
X773783Y8327500D01*
D02*
G37*
G36*
X597500D02*
X418500D01*
Y8148500D01*
X597500D01*
Y8327500D01*
D02*
G37*
G36*
X3183875Y8057500D02*
X2943875D01*
Y7817500D01*
X3183875D01*
Y8057500D01*
D02*
G37*
G36*
X2929875D02*
X2689875D01*
Y7817500D01*
X2929875D01*
Y8057500D01*
D02*
G37*
G36*
X2675875D02*
X2435875D01*
Y7817500D01*
X2675875D01*
Y8057500D01*
D02*
G37*
G36*
X2421875D02*
X2181875D01*
Y7817500D01*
X2421875D01*
Y8057500D01*
D02*
G37*
G36*
X2167875D02*
X1927875D01*
Y7817500D01*
X2167875D01*
Y8057500D01*
D02*
G37*
G36*
X1913875D02*
X1673875D01*
Y7817500D01*
X1913875D01*
Y8057500D01*
D02*
G37*
G36*
X1659875D02*
X1419875D01*
Y7817500D01*
X1659875D01*
Y8057500D01*
D02*
G37*
G36*
X1405875D02*
X1165875D01*
Y7817500D01*
X1405875D01*
Y8057500D01*
D02*
G37*
G36*
X1151875D02*
X911875D01*
Y7817500D01*
X1151875D01*
Y8057500D01*
D02*
G37*
G36*
X897875D02*
X657875D01*
Y7817500D01*
X897875D01*
Y8057500D01*
D02*
G37*
G36*
X643875D02*
X403875D01*
Y7817500D01*
X643875D01*
Y8057500D01*
D02*
G37*
G36*
X389875D02*
X149875D01*
Y7817500D01*
X389875D01*
Y8057500D01*
D02*
G37*
G36*
X3183875Y7803500D02*
X2943875D01*
Y7563500D01*
X3183875D01*
Y7803500D01*
D02*
G37*
G36*
X2929875D02*
X2689875D01*
Y7563500D01*
X2929875D01*
Y7803500D01*
D02*
G37*
G36*
X2675875D02*
X2435875D01*
Y7563500D01*
X2675875D01*
Y7803500D01*
D02*
G37*
G36*
X2421875D02*
X2181875D01*
Y7563500D01*
X2421875D01*
Y7803500D01*
D02*
G37*
G36*
X2167875D02*
X1927875D01*
Y7563500D01*
X2167875D01*
Y7803500D01*
D02*
G37*
G36*
X1913875D02*
X1673875D01*
Y7563500D01*
X1913875D01*
Y7803500D01*
D02*
G37*
G36*
X1659875D02*
X1419875D01*
Y7563500D01*
X1659875D01*
Y7803500D01*
D02*
G37*
G36*
X1405875D02*
X1165875D01*
Y7563500D01*
X1405875D01*
Y7803500D01*
D02*
G37*
G36*
X1151875D02*
X911875D01*
Y7563500D01*
X1151875D01*
Y7803500D01*
D02*
G37*
G36*
X897875D02*
X657875D01*
Y7563500D01*
X897875D01*
Y7803500D01*
D02*
G37*
G36*
X643875D02*
X403875D01*
Y7563500D01*
X643875D01*
Y7803500D01*
D02*
G37*
G36*
X389875D02*
X149875D01*
Y7563500D01*
X389875D01*
Y7803500D01*
D02*
G37*
G36*
X3183875Y7549500D02*
X2943875D01*
Y7309500D01*
X3183875D01*
Y7549500D01*
D02*
G37*
G36*
X2929875D02*
X2689875D01*
Y7309500D01*
X2929875D01*
Y7549500D01*
D02*
G37*
G36*
X2675875D02*
X2435875D01*
Y7309500D01*
X2675875D01*
Y7549500D01*
D02*
G37*
G36*
X2421875D02*
X2181875D01*
Y7309500D01*
X2421875D01*
Y7549500D01*
D02*
G37*
G36*
X2167875D02*
X1927875D01*
Y7309500D01*
X2167875D01*
Y7549500D01*
D02*
G37*
G36*
X1913875D02*
X1673875D01*
Y7309500D01*
X1913875D01*
Y7549500D01*
D02*
G37*
G36*
X1659875D02*
X1419875D01*
Y7309500D01*
X1659875D01*
Y7549500D01*
D02*
G37*
G36*
X1405875D02*
X1165875D01*
Y7309500D01*
X1405875D01*
Y7549500D01*
D02*
G37*
G36*
X1151875D02*
X911875D01*
Y7309500D01*
X1151875D01*
Y7549500D01*
D02*
G37*
G36*
X897875D02*
X657875D01*
Y7309500D01*
X897875D01*
Y7549500D01*
D02*
G37*
G36*
X643875D02*
X403875D01*
Y7309500D01*
X643875D01*
Y7549500D01*
D02*
G37*
G36*
X389875D02*
X149875D01*
Y7309500D01*
X389875D01*
Y7549500D01*
D02*
G37*
G36*
X3183875Y7295500D02*
X2943875D01*
Y7055500D01*
X3183875D01*
Y7295500D01*
D02*
G37*
G36*
X2929875D02*
X2689875D01*
Y7055500D01*
X2929875D01*
Y7295500D01*
D02*
G37*
G36*
X2675875D02*
X2435875D01*
Y7055500D01*
X2675875D01*
Y7295500D01*
D02*
G37*
G36*
X2421875D02*
X2181875D01*
Y7055500D01*
X2421875D01*
Y7295500D01*
D02*
G37*
G36*
X2167875D02*
X1927875D01*
Y7055500D01*
X2167875D01*
Y7295500D01*
D02*
G37*
G36*
X1913875D02*
X1673875D01*
Y7055500D01*
X1913875D01*
Y7295500D01*
D02*
G37*
G36*
X1659875D02*
X1419875D01*
Y7055500D01*
X1659875D01*
Y7295500D01*
D02*
G37*
G36*
X1405875D02*
X1165875D01*
Y7055500D01*
X1405875D01*
Y7295500D01*
D02*
G37*
G36*
X1151875D02*
X911875D01*
Y7055500D01*
X1151875D01*
Y7295500D01*
D02*
G37*
G36*
X897875D02*
X657875D01*
Y7055500D01*
X897875D01*
Y7295500D01*
D02*
G37*
G36*
X643875D02*
X403875D01*
Y7055500D01*
X643875D01*
Y7295500D01*
D02*
G37*
G36*
X389875D02*
X149875D01*
Y7055500D01*
X389875D01*
Y7295500D01*
D02*
G37*
G36*
X3183875Y7041500D02*
X2943875D01*
Y6801500D01*
X3183875D01*
Y7041500D01*
D02*
G37*
G36*
X2929875D02*
X2689875D01*
Y6801500D01*
X2929875D01*
Y7041500D01*
D02*
G37*
G36*
X2675875D02*
X2435875D01*
Y6801500D01*
X2675875D01*
Y7041500D01*
D02*
G37*
G36*
X2421875D02*
X2181875D01*
Y6801500D01*
X2421875D01*
Y7041500D01*
D02*
G37*
G36*
X2167875D02*
X1927875D01*
Y6801500D01*
X2167875D01*
Y7041500D01*
D02*
G37*
G36*
X1913875D02*
X1673875D01*
Y6801500D01*
X1913875D01*
Y7041500D01*
D02*
G37*
G36*
X1659875D02*
X1419875D01*
Y6801500D01*
X1659875D01*
Y7041500D01*
D02*
G37*
G36*
X1405875D02*
X1165875D01*
Y6801500D01*
X1405875D01*
Y7041500D01*
D02*
G37*
G36*
X1151875D02*
X911875D01*
Y6801500D01*
X1151875D01*
Y7041500D01*
D02*
G37*
G36*
X897875D02*
X657875D01*
Y6801500D01*
X897875D01*
Y7041500D01*
D02*
G37*
G36*
X643875D02*
X403875D01*
Y6801500D01*
X643875D01*
Y7041500D01*
D02*
G37*
G36*
X389875D02*
X149875D01*
Y6801500D01*
X389875D01*
Y7041500D01*
D02*
G37*
G36*
X2641500Y6634500D02*
X2436500D01*
Y6429500D01*
X2641500D01*
Y6634500D01*
D02*
G37*
G36*
X2298494D02*
X2271506D01*
X2245436Y6627515D01*
X2222064Y6614020D01*
X2202980Y6594936D01*
X2189485Y6571563D01*
X2182500Y6545494D01*
Y6518506D01*
X2189485Y6492436D01*
X2202980Y6469064D01*
X2222064Y6449979D01*
X2245436Y6436485D01*
X2271506Y6429500D01*
X2298494D01*
X2324564Y6436485D01*
X2347936Y6449979D01*
X2367020Y6469064D01*
X2380515Y6492436D01*
X2387500Y6518506D01*
Y6545494D01*
X2380515Y6571563D01*
X2367020Y6594936D01*
X2347936Y6614020D01*
X2324564Y6627515D01*
X2298494Y6634500D01*
D02*
G37*
G36*
X2044494D02*
X2017506D01*
X1991436Y6627515D01*
X1968064Y6614020D01*
X1948980Y6594936D01*
X1935485Y6571563D01*
X1928500Y6545494D01*
Y6518506D01*
X1935485Y6492436D01*
X1948980Y6469064D01*
X1968064Y6449979D01*
X1991436Y6436485D01*
X2017506Y6429500D01*
X2044494D01*
X2070564Y6436485D01*
X2093936Y6449979D01*
X2113020Y6469064D01*
X2126515Y6492436D01*
X2133500Y6518506D01*
Y6545494D01*
X2126515Y6571563D01*
X2113020Y6594936D01*
X2093936Y6614020D01*
X2070564Y6627515D01*
X2044494Y6634500D01*
D02*
G37*
G36*
X1790494D02*
X1763506D01*
X1737436Y6627515D01*
X1714064Y6614020D01*
X1694980Y6594936D01*
X1681485Y6571563D01*
X1674500Y6545494D01*
Y6518506D01*
X1681485Y6492436D01*
X1694980Y6469064D01*
X1714064Y6449979D01*
X1737436Y6436485D01*
X1763506Y6429500D01*
X1790494D01*
X1816564Y6436485D01*
X1839936Y6449979D01*
X1859020Y6469064D01*
X1872515Y6492436D01*
X1879500Y6518506D01*
Y6545494D01*
X1872515Y6571563D01*
X1859020Y6594936D01*
X1839936Y6614020D01*
X1816564Y6627515D01*
X1790494Y6634500D01*
D02*
G37*
G36*
X1536494D02*
X1509506D01*
X1483436Y6627515D01*
X1460064Y6614020D01*
X1440980Y6594936D01*
X1427485Y6571563D01*
X1420500Y6545494D01*
Y6518506D01*
X1427485Y6492436D01*
X1440980Y6469064D01*
X1460064Y6449979D01*
X1483436Y6436485D01*
X1509506Y6429500D01*
X1536494D01*
X1562564Y6436485D01*
X1585936Y6449979D01*
X1605020Y6469064D01*
X1618515Y6492436D01*
X1625500Y6518506D01*
Y6545494D01*
X1618515Y6571563D01*
X1605020Y6594936D01*
X1585936Y6614020D01*
X1562564Y6627515D01*
X1536494Y6634500D01*
D02*
G37*
G36*
X1282494D02*
X1255506D01*
X1229436Y6627515D01*
X1206064Y6614020D01*
X1186980Y6594936D01*
X1173485Y6571563D01*
X1166500Y6545494D01*
Y6518506D01*
X1173485Y6492436D01*
X1186980Y6469064D01*
X1206064Y6449979D01*
X1229436Y6436485D01*
X1255506Y6429500D01*
X1282494D01*
X1308564Y6436485D01*
X1331936Y6449979D01*
X1351020Y6469064D01*
X1364515Y6492436D01*
X1371500Y6518506D01*
Y6545494D01*
X1364515Y6571563D01*
X1351020Y6594936D01*
X1331936Y6614020D01*
X1308564Y6627515D01*
X1282494Y6634500D01*
D02*
G37*
G36*
X1028494D02*
X1001506D01*
X975436Y6627515D01*
X952064Y6614020D01*
X932980Y6594936D01*
X919485Y6571563D01*
X912500Y6545494D01*
Y6518506D01*
X919485Y6492436D01*
X932980Y6469064D01*
X952064Y6449979D01*
X975436Y6436485D01*
X1001506Y6429500D01*
X1028494D01*
X1054564Y6436485D01*
X1077936Y6449979D01*
X1097020Y6469064D01*
X1110515Y6492436D01*
X1117500Y6518506D01*
Y6545494D01*
X1110515Y6571563D01*
X1097020Y6594936D01*
X1077936Y6614020D01*
X1054564Y6627515D01*
X1028494Y6634500D01*
D02*
G37*
G36*
X774494D02*
X747506D01*
X721436Y6627515D01*
X698064Y6614020D01*
X678980Y6594936D01*
X665485Y6571563D01*
X658500Y6545494D01*
Y6518506D01*
X665485Y6492436D01*
X678980Y6469064D01*
X698064Y6449979D01*
X721436Y6436485D01*
X747506Y6429500D01*
X774494D01*
X800564Y6436485D01*
X823936Y6449979D01*
X843020Y6469064D01*
X856515Y6492436D01*
X863500Y6518506D01*
Y6545494D01*
X856515Y6571563D01*
X843020Y6594936D01*
X823936Y6614020D01*
X800564Y6627515D01*
X774494Y6634500D01*
D02*
G37*
G36*
X1791205Y6385900D02*
X1789701D01*
Y6290700D01*
X1884900D01*
Y6292205D01*
X1877547Y6319648D01*
X1863341Y6344252D01*
X1843252Y6364341D01*
X1818648Y6378547D01*
X1791205Y6385900D01*
D02*
G37*
G36*
X1764301D02*
X1762795D01*
X1735352Y6378547D01*
X1710748Y6364341D01*
X1690659Y6344252D01*
X1676453Y6319648D01*
X1669100Y6292205D01*
Y6290700D01*
X1764301D01*
Y6385900D01*
D02*
G37*
G36*
X2552494Y6380500D02*
X2525506D01*
X2499436Y6373515D01*
X2476064Y6360020D01*
X2456980Y6340936D01*
X2443485Y6317563D01*
X2436500Y6291494D01*
Y6264506D01*
X2443485Y6238436D01*
X2456980Y6215064D01*
X2476064Y6195979D01*
X2499436Y6182485D01*
X2525506Y6175500D01*
X2552494D01*
X2578564Y6182485D01*
X2601936Y6195979D01*
X2621020Y6215064D01*
X2634515Y6238436D01*
X2641500Y6264506D01*
Y6291494D01*
X2634515Y6317563D01*
X2621020Y6340936D01*
X2601936Y6360020D01*
X2578564Y6373515D01*
X2552494Y6380500D01*
D02*
G37*
G36*
X2044494D02*
X2017506D01*
X1991436Y6373515D01*
X1968064Y6360020D01*
X1948980Y6340936D01*
X1935485Y6317563D01*
X1928500Y6291494D01*
Y6264506D01*
X1935485Y6238436D01*
X1948980Y6215064D01*
X1968064Y6195979D01*
X1991436Y6182485D01*
X2017506Y6175500D01*
X2044494D01*
X2070564Y6182485D01*
X2093936Y6195979D01*
X2113020Y6215064D01*
X2126515Y6238436D01*
X2133500Y6264506D01*
Y6291494D01*
X2126515Y6317563D01*
X2113020Y6340936D01*
X2093936Y6360020D01*
X2070564Y6373515D01*
X2044494Y6380500D01*
D02*
G37*
G36*
X1536494D02*
X1509506D01*
X1483436Y6373515D01*
X1460064Y6360020D01*
X1440980Y6340936D01*
X1427485Y6317563D01*
X1420500Y6291494D01*
Y6264506D01*
X1427485Y6238436D01*
X1440980Y6215064D01*
X1460064Y6195979D01*
X1483436Y6182485D01*
X1509506Y6175500D01*
X1536494D01*
X1562564Y6182485D01*
X1585936Y6195979D01*
X1605020Y6215064D01*
X1618515Y6238436D01*
X1625500Y6264506D01*
Y6291494D01*
X1618515Y6317563D01*
X1605020Y6340936D01*
X1585936Y6360020D01*
X1562564Y6373515D01*
X1536494Y6380500D01*
D02*
G37*
G36*
X1282494D02*
X1255506D01*
X1229436Y6373515D01*
X1206064Y6360020D01*
X1186980Y6340936D01*
X1173485Y6317563D01*
X1166500Y6291494D01*
Y6264506D01*
X1173485Y6238436D01*
X1186980Y6215064D01*
X1206064Y6195979D01*
X1229436Y6182485D01*
X1255506Y6175500D01*
X1282494D01*
X1308564Y6182485D01*
X1331936Y6195979D01*
X1351020Y6215064D01*
X1364515Y6238436D01*
X1371500Y6264506D01*
Y6291494D01*
X1364515Y6317563D01*
X1351020Y6340936D01*
X1331936Y6360020D01*
X1308564Y6373515D01*
X1282494Y6380500D01*
D02*
G37*
G36*
X1028494D02*
X1001506D01*
X975436Y6373515D01*
X952064Y6360020D01*
X932980Y6340936D01*
X919485Y6317563D01*
X912500Y6291494D01*
Y6264506D01*
X919485Y6238436D01*
X932980Y6215064D01*
X952064Y6195979D01*
X975436Y6182485D01*
X1001506Y6175500D01*
X1028494D01*
X1054564Y6182485D01*
X1077936Y6195979D01*
X1097020Y6215064D01*
X1110515Y6238436D01*
X1117500Y6264506D01*
Y6291494D01*
X1110515Y6317563D01*
X1097020Y6340936D01*
X1077936Y6360020D01*
X1054564Y6373515D01*
X1028494Y6380500D01*
D02*
G37*
G36*
X774494D02*
X747506D01*
X721436Y6373515D01*
X698064Y6360020D01*
X678980Y6340936D01*
X665485Y6317563D01*
X658500Y6291494D01*
Y6264506D01*
X665485Y6238436D01*
X678980Y6215064D01*
X698064Y6195979D01*
X721436Y6182485D01*
X747506Y6175500D01*
X774494D01*
X800564Y6182485D01*
X823936Y6195979D01*
X843020Y6215064D01*
X856515Y6238436D01*
X863500Y6264506D01*
Y6291494D01*
X856515Y6317563D01*
X843020Y6340936D01*
X823936Y6360020D01*
X800564Y6373515D01*
X774494Y6380500D01*
D02*
G37*
G36*
X1884900Y6265300D02*
X1789701D01*
Y6170100D01*
X1791205D01*
X1818648Y6177453D01*
X1843252Y6191658D01*
X1863341Y6211748D01*
X1877547Y6236352D01*
X1884900Y6263795D01*
Y6265300D01*
D02*
G37*
G36*
X1764301D02*
X1669100D01*
Y6263795D01*
X1676453Y6236352D01*
X1690659Y6211748D01*
X1710748Y6191658D01*
X1735352Y6177453D01*
X1762795Y6170100D01*
X1764301D01*
Y6265300D01*
D02*
G37*
G36*
X2933205Y5496900D02*
X2931700D01*
Y5401700D01*
X3026900D01*
Y5403205D01*
X3019547Y5430648D01*
X3005341Y5455252D01*
X2985252Y5475341D01*
X2960648Y5489547D01*
X2933205Y5496900D01*
D02*
G37*
G36*
X2906300D02*
X2904795D01*
X2877352Y5489547D01*
X2852748Y5475341D01*
X2832659Y5455252D01*
X2818453Y5430648D01*
X2811100Y5403205D01*
Y5401700D01*
X2906300D01*
Y5496900D01*
D02*
G37*
G36*
X3186494Y5491500D02*
X3159506D01*
X3133436Y5484515D01*
X3110064Y5471020D01*
X3090980Y5451936D01*
X3077485Y5428563D01*
X3070500Y5402494D01*
Y5375506D01*
X3077485Y5349436D01*
X3090980Y5326064D01*
X3110064Y5306979D01*
X3133436Y5293485D01*
X3159506Y5286500D01*
X3186494D01*
X3212564Y5293485D01*
X3235936Y5306979D01*
X3255020Y5326064D01*
X3268515Y5349436D01*
X3275500Y5375506D01*
Y5402494D01*
X3268515Y5428563D01*
X3255020Y5451936D01*
X3235936Y5471020D01*
X3212564Y5484515D01*
X3186494Y5491500D01*
D02*
G37*
G36*
X394494D02*
X367506D01*
X341436Y5484515D01*
X318064Y5471020D01*
X298980Y5451936D01*
X285485Y5428563D01*
X278500Y5402494D01*
Y5375506D01*
X285485Y5349436D01*
X298980Y5326064D01*
X318064Y5306979D01*
X341436Y5293485D01*
X367506Y5286500D01*
X394494D01*
X420564Y5293485D01*
X443936Y5306979D01*
X463020Y5326064D01*
X476515Y5349436D01*
X483500Y5375506D01*
Y5402494D01*
X476515Y5428563D01*
X463020Y5451936D01*
X443936Y5471020D01*
X420564Y5484515D01*
X394494Y5491500D01*
D02*
G37*
G36*
X3026900Y5376300D02*
X2931700D01*
Y5281100D01*
X2933205D01*
X2960648Y5288453D01*
X2985252Y5302658D01*
X3005341Y5322748D01*
X3019547Y5347352D01*
X3026900Y5374795D01*
Y5376300D01*
D02*
G37*
G36*
X2906300D02*
X2811100D01*
Y5374795D01*
X2818453Y5347352D01*
X2832659Y5322748D01*
X2852748Y5302658D01*
X2877352Y5288453D01*
X2904795Y5281100D01*
X2906300D01*
Y5376300D01*
D02*
G37*
G36*
X3186494Y5237500D02*
X3159506D01*
X3133436Y5230515D01*
X3110064Y5217020D01*
X3090980Y5197936D01*
X3077485Y5174563D01*
X3070500Y5148494D01*
Y5121506D01*
X3077485Y5095436D01*
X3090980Y5072064D01*
X3110064Y5052979D01*
X3133436Y5039485D01*
X3159506Y5032500D01*
X3186494D01*
X3212564Y5039485D01*
X3235936Y5052979D01*
X3255020Y5072064D01*
X3268515Y5095436D01*
X3275500Y5121506D01*
Y5148494D01*
X3268515Y5174563D01*
X3255020Y5197936D01*
X3235936Y5217020D01*
X3212564Y5230515D01*
X3186494Y5237500D01*
D02*
G37*
G36*
X2932494D02*
X2905506D01*
X2879436Y5230515D01*
X2856064Y5217020D01*
X2836980Y5197936D01*
X2823485Y5174563D01*
X2816500Y5148494D01*
Y5121506D01*
X2823485Y5095436D01*
X2836980Y5072064D01*
X2856064Y5052979D01*
X2879436Y5039485D01*
X2905506Y5032500D01*
X2932494D01*
X2958564Y5039485D01*
X2981936Y5052979D01*
X3001020Y5072064D01*
X3014515Y5095436D01*
X3021500Y5121506D01*
Y5148494D01*
X3014515Y5174563D01*
X3001020Y5197936D01*
X2981936Y5217020D01*
X2958564Y5230515D01*
X2932494Y5237500D01*
D02*
G37*
G36*
X394494D02*
X367506D01*
X341436Y5230515D01*
X318064Y5217020D01*
X298980Y5197936D01*
X285485Y5174563D01*
X278500Y5148494D01*
Y5121506D01*
X285485Y5095436D01*
X298980Y5072064D01*
X318064Y5052979D01*
X341436Y5039485D01*
X367506Y5032500D01*
X394494D01*
X420564Y5039485D01*
X443936Y5052979D01*
X463020Y5072064D01*
X476515Y5095436D01*
X483500Y5121506D01*
Y5148494D01*
X476515Y5174563D01*
X463020Y5197936D01*
X443936Y5217020D01*
X420564Y5230515D01*
X394494Y5237500D01*
D02*
G37*
G36*
X3186494Y4983500D02*
X3159506D01*
X3133436Y4976515D01*
X3110064Y4963020D01*
X3090980Y4943936D01*
X3077485Y4920563D01*
X3070500Y4894494D01*
Y4867506D01*
X3077485Y4841436D01*
X3090980Y4818064D01*
X3110064Y4798979D01*
X3133436Y4785485D01*
X3159506Y4778500D01*
X3186494D01*
X3212564Y4785485D01*
X3235936Y4798979D01*
X3255020Y4818064D01*
X3268515Y4841436D01*
X3275500Y4867506D01*
Y4894494D01*
X3268515Y4920563D01*
X3255020Y4943936D01*
X3235936Y4963020D01*
X3212564Y4976515D01*
X3186494Y4983500D01*
D02*
G37*
G36*
X2932494D02*
X2905506D01*
X2879436Y4976515D01*
X2856064Y4963020D01*
X2836980Y4943936D01*
X2823485Y4920563D01*
X2816500Y4894494D01*
Y4867506D01*
X2823485Y4841436D01*
X2836980Y4818064D01*
X2856064Y4798979D01*
X2879436Y4785485D01*
X2905506Y4778500D01*
X2932494D01*
X2958564Y4785485D01*
X2981936Y4798979D01*
X3001020Y4818064D01*
X3014515Y4841436D01*
X3021500Y4867506D01*
Y4894494D01*
X3014515Y4920563D01*
X3001020Y4943936D01*
X2981936Y4963020D01*
X2958564Y4976515D01*
X2932494Y4983500D01*
D02*
G37*
G36*
X394494D02*
X367506D01*
X341436Y4976515D01*
X318064Y4963020D01*
X298980Y4943936D01*
X285485Y4920563D01*
X278500Y4894494D01*
Y4867506D01*
X285485Y4841436D01*
X298980Y4818064D01*
X318064Y4798979D01*
X341436Y4785485D01*
X367506Y4778500D01*
X394494D01*
X420564Y4785485D01*
X443936Y4798979D01*
X463020Y4818064D01*
X476515Y4841436D01*
X483500Y4867506D01*
Y4894494D01*
X476515Y4920563D01*
X463020Y4943936D01*
X443936Y4963020D01*
X420564Y4976515D01*
X394494Y4983500D01*
D02*
G37*
G36*
X3186494Y4729500D02*
X3159506D01*
X3133436Y4722515D01*
X3110064Y4709020D01*
X3090980Y4689936D01*
X3077485Y4666563D01*
X3070500Y4640494D01*
Y4613506D01*
X3077485Y4587436D01*
X3090980Y4564064D01*
X3110064Y4544979D01*
X3133436Y4531485D01*
X3159506Y4524500D01*
X3186494D01*
X3212564Y4531485D01*
X3235936Y4544979D01*
X3255020Y4564064D01*
X3268515Y4587436D01*
X3275500Y4613506D01*
Y4640494D01*
X3268515Y4666563D01*
X3255020Y4689936D01*
X3235936Y4709020D01*
X3212564Y4722515D01*
X3186494Y4729500D01*
D02*
G37*
G36*
X2932494D02*
X2905506D01*
X2879436Y4722515D01*
X2856064Y4709020D01*
X2836980Y4689936D01*
X2823485Y4666563D01*
X2816500Y4640494D01*
Y4613506D01*
X2823485Y4587436D01*
X2836980Y4564064D01*
X2856064Y4544979D01*
X2879436Y4531485D01*
X2905506Y4524500D01*
X2932494D01*
X2958564Y4531485D01*
X2981936Y4544979D01*
X3001020Y4564064D01*
X3014515Y4587436D01*
X3021500Y4613506D01*
Y4640494D01*
X3014515Y4666563D01*
X3001020Y4689936D01*
X2981936Y4709020D01*
X2958564Y4722515D01*
X2932494Y4729500D01*
D02*
G37*
G36*
X394494D02*
X367506D01*
X341436Y4722515D01*
X318064Y4709020D01*
X298980Y4689936D01*
X285485Y4666563D01*
X278500Y4640494D01*
Y4613506D01*
X285485Y4587436D01*
X298980Y4564064D01*
X318064Y4544979D01*
X341436Y4531485D01*
X367506Y4524500D01*
X394494D01*
X420564Y4531485D01*
X443936Y4544979D01*
X463020Y4564064D01*
X476515Y4587436D01*
X483500Y4613506D01*
Y4640494D01*
X476515Y4666563D01*
X463020Y4689936D01*
X443936Y4709020D01*
X420564Y4722515D01*
X394494Y4729500D01*
D02*
G37*
G36*
X3186494Y4475500D02*
X3159506D01*
X3133436Y4468515D01*
X3110064Y4455020D01*
X3090980Y4435936D01*
X3077485Y4412563D01*
X3070500Y4386494D01*
Y4359506D01*
X3077485Y4333436D01*
X3090980Y4310064D01*
X3110064Y4290979D01*
X3133436Y4277485D01*
X3159506Y4270500D01*
X3186494D01*
X3212564Y4277485D01*
X3235936Y4290979D01*
X3255020Y4310064D01*
X3268515Y4333436D01*
X3275500Y4359506D01*
Y4386494D01*
X3268515Y4412563D01*
X3255020Y4435936D01*
X3235936Y4455020D01*
X3212564Y4468515D01*
X3186494Y4475500D01*
D02*
G37*
G36*
X2932494D02*
X2905506D01*
X2879436Y4468515D01*
X2856064Y4455020D01*
X2836980Y4435936D01*
X2823485Y4412563D01*
X2816500Y4386494D01*
Y4359506D01*
X2823485Y4333436D01*
X2836980Y4310064D01*
X2856064Y4290979D01*
X2879436Y4277485D01*
X2905506Y4270500D01*
X2932494D01*
X2958564Y4277485D01*
X2981936Y4290979D01*
X3001020Y4310064D01*
X3014515Y4333436D01*
X3021500Y4359506D01*
Y4386494D01*
X3014515Y4412563D01*
X3001020Y4435936D01*
X2981936Y4455020D01*
X2958564Y4468515D01*
X2932494Y4475500D01*
D02*
G37*
G36*
X394494D02*
X367506D01*
X341436Y4468515D01*
X318064Y4455020D01*
X298980Y4435936D01*
X285485Y4412563D01*
X278500Y4386494D01*
Y4359506D01*
X285485Y4333436D01*
X298980Y4310064D01*
X318064Y4290979D01*
X341436Y4277485D01*
X367506Y4270500D01*
X394494D01*
X420564Y4277485D01*
X443936Y4290979D01*
X463020Y4310064D01*
X476515Y4333436D01*
X483500Y4359506D01*
Y4386494D01*
X476515Y4412563D01*
X463020Y4435936D01*
X443936Y4455020D01*
X420564Y4468515D01*
X394494Y4475500D01*
D02*
G37*
G36*
X3186494Y4221500D02*
X3159506D01*
X3133436Y4214515D01*
X3110064Y4201020D01*
X3090980Y4181936D01*
X3077485Y4158563D01*
X3070500Y4132494D01*
Y4105506D01*
X3077485Y4079436D01*
X3090980Y4056064D01*
X3110064Y4036979D01*
X3133436Y4023485D01*
X3159506Y4016500D01*
X3186494D01*
X3212564Y4023485D01*
X3235936Y4036979D01*
X3255020Y4056064D01*
X3268515Y4079436D01*
X3275500Y4105506D01*
Y4132494D01*
X3268515Y4158563D01*
X3255020Y4181936D01*
X3235936Y4201020D01*
X3212564Y4214515D01*
X3186494Y4221500D01*
D02*
G37*
G36*
X2932494D02*
X2905506D01*
X2879436Y4214515D01*
X2856064Y4201020D01*
X2836980Y4181936D01*
X2823485Y4158563D01*
X2816500Y4132494D01*
Y4105506D01*
X2823485Y4079436D01*
X2836980Y4056064D01*
X2856064Y4036979D01*
X2879436Y4023485D01*
X2905506Y4016500D01*
X2932494D01*
X2958564Y4023485D01*
X2981936Y4036979D01*
X3001020Y4056064D01*
X3014515Y4079436D01*
X3021500Y4105506D01*
Y4132494D01*
X3014515Y4158563D01*
X3001020Y4181936D01*
X2981936Y4201020D01*
X2958564Y4214515D01*
X2932494Y4221500D01*
D02*
G37*
G36*
X394494D02*
X367506D01*
X341436Y4214515D01*
X318064Y4201020D01*
X298980Y4181936D01*
X285485Y4158563D01*
X278500Y4132494D01*
Y4105506D01*
X285485Y4079436D01*
X298980Y4056064D01*
X318064Y4036979D01*
X341436Y4023485D01*
X367506Y4016500D01*
X394494D01*
X420564Y4023485D01*
X443936Y4036979D01*
X463020Y4056064D01*
X476515Y4079436D01*
X483500Y4105506D01*
Y4132494D01*
X476515Y4158563D01*
X463020Y4181936D01*
X443936Y4201020D01*
X420564Y4214515D01*
X394494Y4221500D01*
D02*
G37*
G36*
X2298494Y6380500D02*
X2271506D01*
X2245436Y6373515D01*
X2222064Y6360020D01*
X2202980Y6340936D01*
X2189485Y6317563D01*
X2182500Y6291494D01*
Y6264506D01*
X2189485Y6238436D01*
X2202980Y6215064D01*
X2222064Y6195979D01*
X2245436Y6182485D01*
X2254412Y6180080D01*
Y4430906D01*
X386871Y2563364D01*
X380241Y2553441D01*
X377912Y2541736D01*
X377912Y2541734D01*
Y720787D01*
X377912Y720786D01*
X380241Y709081D01*
X386871Y699157D01*
X445157Y640872D01*
X445157Y640871D01*
X455080Y634241D01*
X466786Y631912D01*
X549213D01*
X549214Y631912D01*
X560919Y634241D01*
X570843Y640871D01*
X661384Y731412D01*
X677539D01*
X678599Y727454D01*
X690382Y707046D01*
X707046Y690382D01*
X727454Y678599D01*
X750217Y672500D01*
X753363D01*
X758223Y660767D01*
X742437Y644981D01*
X727679D01*
X715974Y642653D01*
X706050Y636022D01*
X610200Y540172D01*
X597500Y542412D01*
Y597500D01*
X418500D01*
Y418500D01*
X597500D01*
Y477412D01*
X621285D01*
X621286Y477412D01*
X632991Y479741D01*
X642915Y486371D01*
X660767Y504223D01*
X672500Y499363D01*
Y496217D01*
X678599Y473454D01*
X690382Y453046D01*
X707046Y436382D01*
X727454Y424599D01*
X750217Y418500D01*
X773783D01*
X796546Y424599D01*
X816954Y436382D01*
X833618Y453046D01*
X845401Y473454D01*
X851500Y496217D01*
Y519783D01*
X845401Y542546D01*
X833618Y562954D01*
X816954Y579618D01*
X796546Y591401D01*
X792114Y592588D01*
X788827Y604856D01*
X883128Y699157D01*
X883129Y699157D01*
X889759Y709081D01*
X892088Y720786D01*
Y1007913D01*
X903100D01*
X914571Y1010195D01*
X924296Y1016693D01*
X930794Y1026418D01*
X933076Y1037889D01*
Y1113089D01*
X930794Y1124561D01*
X924296Y1134286D01*
X914571Y1140784D01*
X903100Y1143065D01*
X819900D01*
X808429Y1140784D01*
X798704Y1134286D01*
X792206Y1124561D01*
X789924Y1113089D01*
Y1037889D01*
X792206Y1026418D01*
X798704Y1016693D01*
X808429Y1010195D01*
X819900Y1007913D01*
X830912D01*
Y836254D01*
X819179Y831393D01*
X816954Y833618D01*
X796546Y845401D01*
X773783Y851500D01*
X750217D01*
X727454Y845401D01*
X707046Y833618D01*
X690382Y816954D01*
X678599Y796546D01*
X677539Y792588D01*
X648715D01*
X648714Y792588D01*
X637009Y790259D01*
X627085Y783629D01*
X627085Y783628D01*
X609233Y765777D01*
X597500Y770637D01*
Y773783D01*
X591401Y796546D01*
X579618Y816954D01*
X562954Y833618D01*
X542546Y845401D01*
X538588Y846461D01*
Y1123424D01*
X549600D01*
X561071Y1125706D01*
X570796Y1132204D01*
X577294Y1141929D01*
X579576Y1153400D01*
Y1228600D01*
X577294Y1240071D01*
X570796Y1249796D01*
X561071Y1256294D01*
X549600Y1258576D01*
X466400D01*
X454929Y1256294D01*
X451788Y1254195D01*
X439088Y1260984D01*
Y1279016D01*
X451788Y1285805D01*
X454929Y1283706D01*
X466400Y1281424D01*
X549600D01*
X561071Y1283706D01*
X570796Y1290204D01*
X577294Y1299929D01*
X579576Y1311400D01*
Y1386600D01*
X577294Y1398071D01*
X570796Y1407796D01*
X561071Y1414294D01*
X549600Y1416576D01*
X538588D01*
Y2571997D01*
X606179Y2639589D01*
X617912Y2634728D01*
Y2076046D01*
X617912Y2076044D01*
X620241Y2064339D01*
X626871Y2054415D01*
X830912Y1850375D01*
Y1301065D01*
X819900D01*
X808429Y1298784D01*
X798704Y1292286D01*
X792206Y1282561D01*
X789924Y1271089D01*
Y1195890D01*
X792206Y1184418D01*
X798704Y1174693D01*
X808429Y1168195D01*
X819900Y1165914D01*
X903100D01*
X914571Y1168195D01*
X924296Y1174693D01*
X930794Y1184418D01*
X933076Y1195890D01*
Y1271089D01*
X930794Y1282561D01*
X924296Y1292286D01*
X914571Y1298784D01*
X903100Y1301065D01*
X892088D01*
Y1863043D01*
X892088Y1863045D01*
X889759Y1874750D01*
X883129Y1884673D01*
X679088Y2088714D01*
Y2265500D01*
X863500D01*
Y2470500D01*
X679088D01*
Y2542362D01*
X690821Y2547222D01*
X698064Y2539980D01*
X721436Y2526485D01*
X747506Y2519500D01*
X774494D01*
X800564Y2526485D01*
X823936Y2539980D01*
X843020Y2559064D01*
X856515Y2582437D01*
X863500Y2608506D01*
Y2635494D01*
X856515Y2661564D01*
X843020Y2684936D01*
X823936Y2704021D01*
X800564Y2717515D01*
X774494Y2724500D01*
X764252D01*
X759392Y2736233D01*
X1716071Y3692912D01*
X2831725D01*
X2836585Y3681179D01*
X2832659Y3677252D01*
X2818453Y3652648D01*
X2811100Y3625205D01*
Y3623700D01*
X2919000D01*
X3026900D01*
Y3625205D01*
X3019547Y3652648D01*
X3005341Y3677252D01*
X3001415Y3681179D01*
X3006275Y3692912D01*
X3031499D01*
X3031500Y3692912D01*
X3043205Y3695241D01*
X3053129Y3701871D01*
X3057800Y3706542D01*
X3070500Y3701282D01*
Y3508500D01*
X3275500D01*
Y3713500D01*
X3082718D01*
X3077458Y3726200D01*
X3125389Y3774131D01*
X3133436Y3769485D01*
X3159506Y3762500D01*
X3186494D01*
X3212564Y3769485D01*
X3235936Y3782979D01*
X3255020Y3802064D01*
X3268515Y3825436D01*
X3275500Y3851506D01*
Y3878494D01*
X3268515Y3904563D01*
X3255020Y3927936D01*
X3235936Y3947020D01*
X3212564Y3960515D01*
X3186494Y3967500D01*
X3159506D01*
X3133436Y3960515D01*
X3110064Y3947020D01*
X3090980Y3927936D01*
X3077485Y3904563D01*
X3070500Y3878494D01*
Y3851506D01*
X3077485Y3825436D01*
X3082132Y3817389D01*
X3018830Y3754087D01*
X2950168D01*
X2948496Y3766787D01*
X2958564Y3769485D01*
X2981936Y3782979D01*
X3001020Y3802064D01*
X3014515Y3825436D01*
X3021500Y3851506D01*
Y3878494D01*
X3014515Y3904563D01*
X3001020Y3927936D01*
X2981936Y3947020D01*
X2958564Y3960515D01*
X2932494Y3967500D01*
X2905506D01*
X2879436Y3960515D01*
X2856064Y3947020D01*
X2836980Y3927936D01*
X2823485Y3904563D01*
X2821080Y3895588D01*
X1822203D01*
X1817343Y3907321D01*
X2306629Y4396607D01*
X2313259Y4406530D01*
X2315588Y4418236D01*
X2315588Y4418237D01*
Y6180080D01*
X2324564Y6182485D01*
X2347936Y6195979D01*
X2367020Y6215064D01*
X2380515Y6238436D01*
X2387500Y6264506D01*
Y6291494D01*
X2380515Y6317563D01*
X2367020Y6340936D01*
X2347936Y6360020D01*
X2324564Y6373515D01*
X2298494Y6380500D01*
D02*
G37*
G36*
X394494Y3967500D02*
X367506D01*
X341436Y3960515D01*
X318064Y3947020D01*
X298980Y3927936D01*
X285485Y3904563D01*
X278500Y3878494D01*
Y3851506D01*
X285485Y3825436D01*
X298980Y3802064D01*
X318064Y3782979D01*
X341436Y3769485D01*
X367506Y3762500D01*
X394494D01*
X420564Y3769485D01*
X443936Y3782979D01*
X463020Y3802064D01*
X476515Y3825436D01*
X483500Y3851506D01*
Y3878494D01*
X476515Y3904563D01*
X463020Y3927936D01*
X443936Y3947020D01*
X420564Y3960515D01*
X394494Y3967500D01*
D02*
G37*
G36*
Y3713500D02*
X367506D01*
X341436Y3706515D01*
X318064Y3693020D01*
X298980Y3673936D01*
X285485Y3650563D01*
X278500Y3624494D01*
Y3597506D01*
X285485Y3571436D01*
X298980Y3548064D01*
X318064Y3528979D01*
X341436Y3515485D01*
X367506Y3508500D01*
X394494D01*
X420564Y3515485D01*
X443936Y3528979D01*
X463020Y3548064D01*
X476515Y3571436D01*
X483500Y3597506D01*
Y3624494D01*
X476515Y3650563D01*
X463020Y3673936D01*
X443936Y3693020D01*
X420564Y3706515D01*
X394494Y3713500D01*
D02*
G37*
G36*
X3026900Y3598300D02*
X2931700D01*
Y3503100D01*
X2933205D01*
X2960648Y3510453D01*
X2985252Y3524658D01*
X3005341Y3544748D01*
X3019547Y3569352D01*
X3026900Y3596795D01*
Y3598300D01*
D02*
G37*
G36*
X2906300D02*
X2811100D01*
Y3596795D01*
X2818453Y3569352D01*
X2832659Y3544748D01*
X2852748Y3524658D01*
X2877352Y3510453D01*
X2904795Y3503100D01*
X2906300D01*
Y3598300D01*
D02*
G37*
G36*
X2552494Y2724500D02*
X2525506D01*
X2499436Y2717515D01*
X2476064Y2704021D01*
X2456980Y2684936D01*
X2443485Y2661564D01*
X2436500Y2635494D01*
Y2608506D01*
X2443485Y2582437D01*
X2456980Y2559064D01*
X2476064Y2539980D01*
X2499436Y2526485D01*
X2525506Y2519500D01*
X2552494D01*
X2578564Y2526485D01*
X2601936Y2539980D01*
X2621020Y2559064D01*
X2634515Y2582437D01*
X2641500Y2608506D01*
Y2635494D01*
X2634515Y2661564D01*
X2621020Y2684936D01*
X2601936Y2704021D01*
X2578564Y2717515D01*
X2552494Y2724500D01*
D02*
G37*
G36*
X2298494D02*
X2271506D01*
X2245436Y2717515D01*
X2222064Y2704021D01*
X2202980Y2684936D01*
X2189485Y2661564D01*
X2182500Y2635494D01*
Y2608506D01*
X2189485Y2582437D01*
X2202980Y2559064D01*
X2222064Y2539980D01*
X2245436Y2526485D01*
X2271506Y2519500D01*
X2298494D01*
X2324564Y2526485D01*
X2347936Y2539980D01*
X2367020Y2559064D01*
X2380515Y2582437D01*
X2387500Y2608506D01*
Y2635494D01*
X2380515Y2661564D01*
X2367020Y2684936D01*
X2347936Y2704021D01*
X2324564Y2717515D01*
X2298494Y2724500D01*
D02*
G37*
G36*
X2044494D02*
X2017506D01*
X1991436Y2717515D01*
X1968064Y2704021D01*
X1948980Y2684936D01*
X1935485Y2661564D01*
X1928500Y2635494D01*
Y2608506D01*
X1935485Y2582437D01*
X1948980Y2559064D01*
X1968064Y2539980D01*
X1991436Y2526485D01*
X2017506Y2519500D01*
X2044494D01*
X2070564Y2526485D01*
X2093936Y2539980D01*
X2113020Y2559064D01*
X2126515Y2582437D01*
X2133500Y2608506D01*
Y2635494D01*
X2126515Y2661564D01*
X2113020Y2684936D01*
X2093936Y2704021D01*
X2070564Y2717515D01*
X2044494Y2724500D01*
D02*
G37*
G36*
X1790494D02*
X1763506D01*
X1737436Y2717515D01*
X1714064Y2704021D01*
X1694980Y2684936D01*
X1681485Y2661564D01*
X1674500Y2635494D01*
Y2608506D01*
X1681485Y2582437D01*
X1694980Y2559064D01*
X1714064Y2539980D01*
X1737436Y2526485D01*
X1763506Y2519500D01*
X1790494D01*
X1816564Y2526485D01*
X1839936Y2539980D01*
X1859020Y2559064D01*
X1872515Y2582437D01*
X1879500Y2608506D01*
Y2635494D01*
X1872515Y2661564D01*
X1859020Y2684936D01*
X1839936Y2704021D01*
X1816564Y2717515D01*
X1790494Y2724500D01*
D02*
G37*
G36*
X1536494D02*
X1509506D01*
X1483436Y2717515D01*
X1460064Y2704021D01*
X1440980Y2684936D01*
X1427485Y2661564D01*
X1420500Y2635494D01*
Y2608506D01*
X1427485Y2582437D01*
X1440980Y2559064D01*
X1460064Y2539980D01*
X1483436Y2526485D01*
X1509506Y2519500D01*
X1536494D01*
X1562564Y2526485D01*
X1585936Y2539980D01*
X1605020Y2559064D01*
X1618515Y2582437D01*
X1625500Y2608506D01*
Y2635494D01*
X1618515Y2661564D01*
X1605020Y2684936D01*
X1585936Y2704021D01*
X1562564Y2717515D01*
X1536494Y2724500D01*
D02*
G37*
G36*
X1282494D02*
X1255506D01*
X1229436Y2717515D01*
X1206064Y2704021D01*
X1186980Y2684936D01*
X1173485Y2661564D01*
X1166500Y2635494D01*
Y2608506D01*
X1173485Y2582437D01*
X1186980Y2559064D01*
X1206064Y2539980D01*
X1229436Y2526485D01*
X1255506Y2519500D01*
X1282494D01*
X1308564Y2526485D01*
X1331936Y2539980D01*
X1351020Y2559064D01*
X1364515Y2582437D01*
X1371500Y2608506D01*
Y2635494D01*
X1364515Y2661564D01*
X1351020Y2684936D01*
X1331936Y2704021D01*
X1308564Y2717515D01*
X1282494Y2724500D01*
D02*
G37*
G36*
X1028494D02*
X1001506D01*
X975436Y2717515D01*
X952064Y2704021D01*
X932980Y2684936D01*
X919485Y2661564D01*
X912500Y2635494D01*
Y2608506D01*
X919485Y2582437D01*
X932980Y2559064D01*
X952064Y2539980D01*
X975436Y2526485D01*
X1001506Y2519500D01*
X1028494D01*
X1054564Y2526485D01*
X1077936Y2539980D01*
X1097020Y2559064D01*
X1110515Y2582437D01*
X1117500Y2608506D01*
Y2635494D01*
X1110515Y2661564D01*
X1097020Y2684936D01*
X1077936Y2704021D01*
X1054564Y2717515D01*
X1028494Y2724500D01*
D02*
G37*
G36*
X1283205Y2475900D02*
X1281700D01*
Y2380700D01*
X1376900D01*
Y2382205D01*
X1369547Y2409648D01*
X1355341Y2434252D01*
X1335252Y2454342D01*
X1310648Y2468547D01*
X1283205Y2475900D01*
D02*
G37*
G36*
X1256300D02*
X1254795D01*
X1227352Y2468547D01*
X1202748Y2454342D01*
X1182659Y2434252D01*
X1168453Y2409648D01*
X1161100Y2382205D01*
Y2380700D01*
X1256300D01*
Y2475900D01*
D02*
G37*
G36*
X2552494Y2470500D02*
X2525506D01*
X2499436Y2463515D01*
X2476064Y2450020D01*
X2456980Y2430936D01*
X2443485Y2407564D01*
X2436500Y2381494D01*
Y2354506D01*
X2443485Y2328437D01*
X2456980Y2305064D01*
X2476064Y2285980D01*
X2499436Y2272485D01*
X2525506Y2265500D01*
X2552494D01*
X2578564Y2272485D01*
X2601936Y2285980D01*
X2621020Y2305064D01*
X2634515Y2328437D01*
X2641500Y2354506D01*
Y2381494D01*
X2634515Y2407564D01*
X2621020Y2430936D01*
X2601936Y2450020D01*
X2578564Y2463515D01*
X2552494Y2470500D01*
D02*
G37*
G36*
X2298494D02*
X2271506D01*
X2245436Y2463515D01*
X2222064Y2450020D01*
X2202980Y2430936D01*
X2189485Y2407564D01*
X2182500Y2381494D01*
Y2354506D01*
X2189485Y2328437D01*
X2202980Y2305064D01*
X2222064Y2285980D01*
X2245436Y2272485D01*
X2271506Y2265500D01*
X2298494D01*
X2324564Y2272485D01*
X2347936Y2285980D01*
X2367020Y2305064D01*
X2380515Y2328437D01*
X2387500Y2354506D01*
Y2381494D01*
X2380515Y2407564D01*
X2367020Y2430936D01*
X2347936Y2450020D01*
X2324564Y2463515D01*
X2298494Y2470500D01*
D02*
G37*
G36*
X2044494D02*
X2017506D01*
X1991436Y2463515D01*
X1968064Y2450020D01*
X1948980Y2430936D01*
X1935485Y2407564D01*
X1928500Y2381494D01*
Y2354506D01*
X1935485Y2328437D01*
X1948980Y2305064D01*
X1968064Y2285980D01*
X1991436Y2272485D01*
X2017506Y2265500D01*
X2044494D01*
X2070564Y2272485D01*
X2093936Y2285980D01*
X2113020Y2305064D01*
X2126515Y2328437D01*
X2133500Y2354506D01*
Y2381494D01*
X2126515Y2407564D01*
X2113020Y2430936D01*
X2093936Y2450020D01*
X2070564Y2463515D01*
X2044494Y2470500D01*
D02*
G37*
G36*
X1790494D02*
X1763506D01*
X1737436Y2463515D01*
X1714064Y2450020D01*
X1694980Y2430936D01*
X1681485Y2407564D01*
X1674500Y2381494D01*
Y2354506D01*
X1681485Y2328437D01*
X1694980Y2305064D01*
X1714064Y2285980D01*
X1737436Y2272485D01*
X1763506Y2265500D01*
X1790494D01*
X1816564Y2272485D01*
X1839936Y2285980D01*
X1859020Y2305064D01*
X1872515Y2328437D01*
X1879500Y2354506D01*
Y2381494D01*
X1872515Y2407564D01*
X1859020Y2430936D01*
X1839936Y2450020D01*
X1816564Y2463515D01*
X1790494Y2470500D01*
D02*
G37*
G36*
X1536494D02*
X1509506D01*
X1483436Y2463515D01*
X1460064Y2450020D01*
X1440980Y2430936D01*
X1427485Y2407564D01*
X1420500Y2381494D01*
Y2354506D01*
X1427485Y2328437D01*
X1440980Y2305064D01*
X1460064Y2285980D01*
X1483436Y2272485D01*
X1509506Y2265500D01*
X1536494D01*
X1562564Y2272485D01*
X1585936Y2285980D01*
X1605020Y2305064D01*
X1618515Y2328437D01*
X1625500Y2354506D01*
Y2381494D01*
X1618515Y2407564D01*
X1605020Y2430936D01*
X1585936Y2450020D01*
X1562564Y2463515D01*
X1536494Y2470500D01*
D02*
G37*
G36*
X1028494D02*
X1001506D01*
X975436Y2463515D01*
X952064Y2450020D01*
X932980Y2430936D01*
X919485Y2407564D01*
X912500Y2381494D01*
Y2354506D01*
X919485Y2328437D01*
X932980Y2305064D01*
X952064Y2285980D01*
X975436Y2272485D01*
X1001506Y2265500D01*
X1028494D01*
X1054564Y2272485D01*
X1077936Y2285980D01*
X1097020Y2305064D01*
X1110515Y2328437D01*
X1117500Y2354506D01*
Y2381494D01*
X1110515Y2407564D01*
X1097020Y2430936D01*
X1077936Y2450020D01*
X1054564Y2463515D01*
X1028494Y2470500D01*
D02*
G37*
G36*
X1376900Y2355300D02*
X1281700D01*
Y2260100D01*
X1283205D01*
X1310648Y2267453D01*
X1335252Y2281659D01*
X1355341Y2301748D01*
X1369547Y2326352D01*
X1376900Y2353795D01*
Y2355300D01*
D02*
G37*
G36*
X1256300D02*
X1161100D01*
Y2353795D01*
X1168453Y2326352D01*
X1182659Y2301748D01*
X1202748Y2281659D01*
X1227352Y2267453D01*
X1254795Y2260100D01*
X1256300D01*
Y2355300D01*
D02*
G37*
G36*
X2806700Y856845D02*
Y774700D01*
X2888845D01*
X2882433Y798630D01*
X2869939Y820270D01*
X2852270Y837939D01*
X2830630Y850433D01*
X2806700Y856845D01*
D02*
G37*
G36*
X2781300D02*
X2757370Y850433D01*
X2735730Y837939D01*
X2718061Y820270D01*
X2705567Y798630D01*
X2699155Y774700D01*
X2781300D01*
Y856845D01*
D02*
G37*
G36*
X2551783Y851500D02*
X2528217D01*
X2505454Y845401D01*
X2485046Y833618D01*
X2468382Y816954D01*
X2456599Y796546D01*
X2450500Y773783D01*
Y750217D01*
X2456599Y727454D01*
X2468382Y707046D01*
X2485046Y690382D01*
X2505454Y678599D01*
X2528217Y672500D01*
X2551783D01*
X2574546Y678599D01*
X2594954Y690382D01*
X2611618Y707046D01*
X2623401Y727454D01*
X2629500Y750217D01*
Y773783D01*
X2623401Y796546D01*
X2611618Y816954D01*
X2594954Y833618D01*
X2574546Y845401D01*
X2551783Y851500D01*
D02*
G37*
G36*
X2297783D02*
X2274217D01*
X2251454Y845401D01*
X2231046Y833618D01*
X2214382Y816954D01*
X2202599Y796546D01*
X2196500Y773783D01*
Y750217D01*
X2202599Y727454D01*
X2214382Y707046D01*
X2231046Y690382D01*
X2251454Y678599D01*
X2274217Y672500D01*
X2297783D01*
X2320546Y678599D01*
X2340954Y690382D01*
X2357618Y707046D01*
X2369401Y727454D01*
X2375500Y750217D01*
Y773783D01*
X2369401Y796546D01*
X2357618Y816954D01*
X2340954Y833618D01*
X2320546Y845401D01*
X2297783Y851500D01*
D02*
G37*
G36*
X2043783D02*
X2020217D01*
X1997454Y845401D01*
X1977046Y833618D01*
X1960382Y816954D01*
X1948599Y796546D01*
X1942500Y773783D01*
Y750217D01*
X1948599Y727454D01*
X1960382Y707046D01*
X1977046Y690382D01*
X1997454Y678599D01*
X2020217Y672500D01*
X2043783D01*
X2066546Y678599D01*
X2086954Y690382D01*
X2103618Y707046D01*
X2115401Y727454D01*
X2121500Y750217D01*
Y773783D01*
X2115401Y796546D01*
X2103618Y816954D01*
X2086954Y833618D01*
X2066546Y845401D01*
X2043783Y851500D01*
D02*
G37*
G36*
X1789783D02*
X1766217D01*
X1743454Y845401D01*
X1723046Y833618D01*
X1706382Y816954D01*
X1694599Y796546D01*
X1688500Y773783D01*
Y750217D01*
X1694599Y727454D01*
X1706382Y707046D01*
X1723046Y690382D01*
X1743454Y678599D01*
X1766217Y672500D01*
X1789783D01*
X1812546Y678599D01*
X1832954Y690382D01*
X1849618Y707046D01*
X1861401Y727454D01*
X1867500Y750217D01*
Y773783D01*
X1861401Y796546D01*
X1849618Y816954D01*
X1832954Y833618D01*
X1812546Y845401D01*
X1789783Y851500D01*
D02*
G37*
G36*
X1535783D02*
X1512217D01*
X1489454Y845401D01*
X1469046Y833618D01*
X1452382Y816954D01*
X1440599Y796546D01*
X1434500Y773783D01*
Y750217D01*
X1440599Y727454D01*
X1452382Y707046D01*
X1469046Y690382D01*
X1489454Y678599D01*
X1512217Y672500D01*
X1535783D01*
X1558546Y678599D01*
X1578954Y690382D01*
X1595618Y707046D01*
X1607401Y727454D01*
X1613500Y750217D01*
Y773783D01*
X1607401Y796546D01*
X1595618Y816954D01*
X1578954Y833618D01*
X1558546Y845401D01*
X1535783Y851500D01*
D02*
G37*
G36*
X1281783D02*
X1258217D01*
X1235454Y845401D01*
X1215046Y833618D01*
X1198382Y816954D01*
X1186599Y796546D01*
X1180500Y773783D01*
Y750217D01*
X1186599Y727454D01*
X1198382Y707046D01*
X1215046Y690382D01*
X1235454Y678599D01*
X1258217Y672500D01*
X1281783D01*
X1304546Y678599D01*
X1324954Y690382D01*
X1341618Y707046D01*
X1353401Y727454D01*
X1359500Y750217D01*
Y773783D01*
X1353401Y796546D01*
X1341618Y816954D01*
X1324954Y833618D01*
X1304546Y845401D01*
X1281783Y851500D01*
D02*
G37*
G36*
X1027783D02*
X1004217D01*
X981454Y845401D01*
X961046Y833618D01*
X944382Y816954D01*
X932599Y796546D01*
X926500Y773783D01*
Y750217D01*
X932599Y727454D01*
X944382Y707046D01*
X961046Y690382D01*
X981454Y678599D01*
X1004217Y672500D01*
X1027783D01*
X1050546Y678599D01*
X1070954Y690382D01*
X1087618Y707046D01*
X1099401Y727454D01*
X1105500Y750217D01*
Y773783D01*
X1099401Y796546D01*
X1087618Y816954D01*
X1070954Y833618D01*
X1050546Y845401D01*
X1027783Y851500D01*
D02*
G37*
G36*
X2888845Y749300D02*
X2806700D01*
Y667155D01*
X2830630Y673567D01*
X2852270Y686061D01*
X2869939Y703730D01*
X2882433Y725370D01*
X2888845Y749300D01*
D02*
G37*
G36*
X2781300D02*
X2699155D01*
X2705567Y725370D01*
X2718061Y703730D01*
X2735730Y686061D01*
X2757370Y673567D01*
X2781300Y667155D01*
Y749300D01*
D02*
G37*
G36*
X2805783Y597500D02*
X2782217D01*
X2759454Y591401D01*
X2739046Y579618D01*
X2722382Y562954D01*
X2710599Y542546D01*
X2704500Y519783D01*
Y496217D01*
X2710599Y473454D01*
X2722382Y453046D01*
X2739046Y436382D01*
X2759454Y424599D01*
X2782217Y418500D01*
X2805783D01*
X2828546Y424599D01*
X2848954Y436382D01*
X2865618Y453046D01*
X2877401Y473454D01*
X2883500Y496217D01*
Y519783D01*
X2877401Y542546D01*
X2865618Y562954D01*
X2848954Y579618D01*
X2828546Y591401D01*
X2805783Y597500D01*
D02*
G37*
G36*
X2551783D02*
X2528217D01*
X2505454Y591401D01*
X2485046Y579618D01*
X2468382Y562954D01*
X2456599Y542546D01*
X2450500Y519783D01*
Y496217D01*
X2456599Y473454D01*
X2468382Y453046D01*
X2485046Y436382D01*
X2505454Y424599D01*
X2528217Y418500D01*
X2551783D01*
X2574546Y424599D01*
X2594954Y436382D01*
X2611618Y453046D01*
X2623401Y473454D01*
X2629500Y496217D01*
Y519783D01*
X2623401Y542546D01*
X2611618Y562954D01*
X2594954Y579618D01*
X2574546Y591401D01*
X2551783Y597500D01*
D02*
G37*
G36*
X2297783D02*
X2274217D01*
X2251454Y591401D01*
X2231046Y579618D01*
X2214382Y562954D01*
X2202599Y542546D01*
X2196500Y519783D01*
Y496217D01*
X2202599Y473454D01*
X2214382Y453046D01*
X2231046Y436382D01*
X2251454Y424599D01*
X2274217Y418500D01*
X2297783D01*
X2320546Y424599D01*
X2340954Y436382D01*
X2357618Y453046D01*
X2369401Y473454D01*
X2375500Y496217D01*
Y519783D01*
X2369401Y542546D01*
X2357618Y562954D01*
X2340954Y579618D01*
X2320546Y591401D01*
X2297783Y597500D01*
D02*
G37*
G36*
X2043783D02*
X2020217D01*
X1997454Y591401D01*
X1977046Y579618D01*
X1960382Y562954D01*
X1948599Y542546D01*
X1942500Y519783D01*
Y496217D01*
X1948599Y473454D01*
X1960382Y453046D01*
X1977046Y436382D01*
X1997454Y424599D01*
X2020217Y418500D01*
X2043783D01*
X2066546Y424599D01*
X2086954Y436382D01*
X2103618Y453046D01*
X2115401Y473454D01*
X2121500Y496217D01*
Y519783D01*
X2115401Y542546D01*
X2103618Y562954D01*
X2086954Y579618D01*
X2066546Y591401D01*
X2043783Y597500D01*
D02*
G37*
G36*
X1789783D02*
X1766217D01*
X1743454Y591401D01*
X1723046Y579618D01*
X1706382Y562954D01*
X1694599Y542546D01*
X1688500Y519783D01*
Y496217D01*
X1694599Y473454D01*
X1706382Y453046D01*
X1723046Y436382D01*
X1743454Y424599D01*
X1766217Y418500D01*
X1789783D01*
X1812546Y424599D01*
X1832954Y436382D01*
X1849618Y453046D01*
X1861401Y473454D01*
X1867500Y496217D01*
Y519783D01*
X1861401Y542546D01*
X1849618Y562954D01*
X1832954Y579618D01*
X1812546Y591401D01*
X1789783Y597500D01*
D02*
G37*
G36*
X1535783D02*
X1512217D01*
X1489454Y591401D01*
X1469046Y579618D01*
X1452382Y562954D01*
X1440599Y542546D01*
X1434500Y519783D01*
Y496217D01*
X1440599Y473454D01*
X1452382Y453046D01*
X1469046Y436382D01*
X1489454Y424599D01*
X1512217Y418500D01*
X1535783D01*
X1558546Y424599D01*
X1578954Y436382D01*
X1595618Y453046D01*
X1607401Y473454D01*
X1613500Y496217D01*
Y519783D01*
X1607401Y542546D01*
X1595618Y562954D01*
X1578954Y579618D01*
X1558546Y591401D01*
X1535783Y597500D01*
D02*
G37*
G36*
X1281783D02*
X1258217D01*
X1235454Y591401D01*
X1215046Y579618D01*
X1198382Y562954D01*
X1186599Y542546D01*
X1180500Y519783D01*
Y496217D01*
X1186599Y473454D01*
X1198382Y453046D01*
X1215046Y436382D01*
X1235454Y424599D01*
X1258217Y418500D01*
X1281783D01*
X1304546Y424599D01*
X1324954Y436382D01*
X1341618Y453046D01*
X1353401Y473454D01*
X1359500Y496217D01*
Y519783D01*
X1353401Y542546D01*
X1341618Y562954D01*
X1324954Y579618D01*
X1304546Y591401D01*
X1281783Y597500D01*
D02*
G37*
G36*
X1027783D02*
X1004217D01*
X981454Y591401D01*
X961046Y579618D01*
X944382Y562954D01*
X932599Y542546D01*
X926500Y519783D01*
Y496217D01*
X932599Y473454D01*
X944382Y453046D01*
X961046Y436382D01*
X981454Y424599D01*
X1004217Y418500D01*
X1027783D01*
X1050546Y424599D01*
X1070954Y436382D01*
X1087618Y453046D01*
X1099401Y473454D01*
X1105500Y496217D01*
Y519783D01*
X1099401Y542546D01*
X1087618Y562954D01*
X1070954Y579618D01*
X1050546Y591401D01*
X1027783Y597500D01*
D02*
G37*
%LPD*%
D15*
X508000Y1349000D02*
Y2584667D01*
X1788333Y3865000D01*
X2919000D01*
X1703401Y3723500D02*
X3031500D01*
X648500Y2668599D02*
X1703401Y3723500D01*
X648500Y2076044D02*
Y2668599D01*
X408500Y720786D02*
Y2541736D01*
X2285000Y4418236D01*
Y6278000D01*
X408500Y720786D02*
X466786Y662500D01*
X648500Y2076044D02*
X861500Y1863045D01*
Y1233490D02*
Y1863045D01*
X3031500Y3723500D02*
X3173000Y3865000D01*
X861500Y720786D02*
Y1075489D01*
X727679Y614393D02*
X755107D01*
X861500Y720786D01*
X621286Y508000D02*
X727679Y614393D01*
X508000Y508000D02*
X621286D01*
X508000Y762000D02*
Y1191000D01*
X549214Y662500D02*
X648714Y762000D01*
X466786Y662500D02*
X549214D01*
X648714Y762000D02*
X762000D01*
D17*
X761000Y2368000D02*
D03*
X2539000Y6532000D02*
D03*
D18*
X761000Y2622000D02*
D03*
X1015000Y2368000D02*
D03*
Y2622000D02*
D03*
X1269000Y2368000D02*
D03*
Y2622000D02*
D03*
X1523000Y2368000D02*
D03*
Y2622000D02*
D03*
X1777000Y2368000D02*
D03*
Y2622000D02*
D03*
X2031000Y2368000D02*
D03*
Y2622000D02*
D03*
X2285000Y2368000D02*
D03*
Y2622000D02*
D03*
X2539000Y2368000D02*
D03*
Y2622000D02*
D03*
Y6278000D02*
D03*
X2285000Y6532000D02*
D03*
Y6278000D02*
D03*
X2031000Y6532000D02*
D03*
Y6278000D02*
D03*
X1777000Y6532000D02*
D03*
Y6278000D02*
D03*
X1523000Y6532000D02*
D03*
Y6278000D02*
D03*
X1269000Y6532000D02*
D03*
Y6278000D02*
D03*
X1015000Y6532000D02*
D03*
Y6278000D02*
D03*
X761000Y6532000D02*
D03*
Y6278000D02*
D03*
X381000Y5389000D02*
D03*
X127000Y5135000D02*
D03*
X381000D02*
D03*
X127000Y4881000D02*
D03*
X381000D02*
D03*
X127000Y4627000D02*
D03*
X381000D02*
D03*
X127000Y4373000D02*
D03*
X381000D02*
D03*
X127000Y4119000D02*
D03*
X381000D02*
D03*
X127000Y3865000D02*
D03*
X381000D02*
D03*
X127000Y3611000D02*
D03*
X381000D02*
D03*
X2919000D02*
D03*
X3173000Y3865000D02*
D03*
X2919000D02*
D03*
X3173000Y4119000D02*
D03*
X2919000D02*
D03*
X3173000Y4373000D02*
D03*
X2919000D02*
D03*
X3173000Y4627000D02*
D03*
X2919000D02*
D03*
X3173000Y4881000D02*
D03*
X2919000D02*
D03*
X3173000Y5135000D02*
D03*
X2919000D02*
D03*
X3173000Y5389000D02*
D03*
X2919000D02*
D03*
D19*
X2555875Y6921500D02*
D03*
X2301875D02*
D03*
X2809875D02*
D03*
X3063875D02*
D03*
X1539875D02*
D03*
X1793875D02*
D03*
X2047875D02*
D03*
X1285875D02*
D03*
X777875D02*
D03*
X523875D02*
D03*
X1031875D02*
D03*
X269875D02*
D03*
X2555875Y7175500D02*
D03*
X2301875D02*
D03*
X2809875D02*
D03*
X3063875D02*
D03*
X1539875D02*
D03*
X1793875D02*
D03*
X2047875D02*
D03*
X1285875D02*
D03*
X777875D02*
D03*
X523875D02*
D03*
X1031875D02*
D03*
X269875D02*
D03*
Y7429500D02*
D03*
X1031875D02*
D03*
X523875D02*
D03*
X777875D02*
D03*
X1285875D02*
D03*
X2047875D02*
D03*
X1793875D02*
D03*
X1539875D02*
D03*
X3063875D02*
D03*
X2809875D02*
D03*
X2301875D02*
D03*
X2555875D02*
D03*
X2301875Y7937500D02*
D03*
Y7683500D02*
D03*
X2555875D02*
D03*
Y7937500D02*
D03*
X3063875D02*
D03*
Y7683500D02*
D03*
X2809875D02*
D03*
Y7937500D02*
D03*
X1285875D02*
D03*
Y7683500D02*
D03*
X1539875D02*
D03*
Y7937500D02*
D03*
X2047875D02*
D03*
Y7683500D02*
D03*
X1793875D02*
D03*
Y7937500D02*
D03*
X777875D02*
D03*
Y7683500D02*
D03*
X1031875D02*
D03*
Y7937500D02*
D03*
X523875D02*
D03*
Y7683500D02*
D03*
X269875D02*
D03*
Y7937500D02*
D03*
D20*
X127000Y5389000D02*
D03*
X3173000Y3611000D02*
D03*
D21*
X508000Y8238000D02*
D03*
Y508000D02*
D03*
D22*
Y8492000D02*
D03*
X762000Y8238000D02*
D03*
Y8492000D02*
D03*
X1016000Y8238000D02*
D03*
Y8492000D02*
D03*
X1270000Y8238000D02*
D03*
Y8492000D02*
D03*
X1524000Y8238000D02*
D03*
Y8492000D02*
D03*
X1778000Y8238000D02*
D03*
Y8492000D02*
D03*
X2032000Y8238000D02*
D03*
Y8492000D02*
D03*
X2286000Y8238000D02*
D03*
Y8492000D02*
D03*
X2540000Y8238000D02*
D03*
Y8492000D02*
D03*
X2794000Y8238000D02*
D03*
Y8492000D02*
D03*
X508000Y762000D02*
D03*
X762000Y508000D02*
D03*
Y762000D02*
D03*
X1016000Y508000D02*
D03*
Y762000D02*
D03*
X1270000Y508000D02*
D03*
Y762000D02*
D03*
X1524000Y508000D02*
D03*
Y762000D02*
D03*
X1778000Y508000D02*
D03*
Y762000D02*
D03*
X2032000Y508000D02*
D03*
Y762000D02*
D03*
X2286000Y508000D02*
D03*
Y762000D02*
D03*
X2540000Y508000D02*
D03*
Y762000D02*
D03*
X2794000Y508000D02*
D03*
Y762000D02*
D03*
D23*
X508000Y1191000D02*
D03*
Y1349000D02*
D03*
X861500Y1233490D02*
D03*
Y1075489D02*
D03*
%TF.MD5,a273d24f1c9775f64a1c9eeb993a2662*%
M02*
