%TF.GenerationSoftware,Altium Limited,Altium Designer,23.4.1 (23)*%
G04 Layer_Color=32896*
%FSLAX45Y45*%
%MOMM*%
%TF.SameCoordinates,2443AD3D-16DC-45C5-9BCC-0FA72C26467A*%
%TF.FilePolarity,Positive*%
%TF.FileFunction,Legend,Bot*%
%TF.Part,Single*%
G01*
G75*
%TA.AperFunction,NonConductor*%
%ADD24C,0.20000*%
%ADD26C,0.12700*%
%ADD27C,0.25400*%
D24*
X300500Y8238000D02*
G03*
X300500Y8238000I-10000J0D01*
G01*
Y508000D02*
G03*
X300500Y508000I-10000J0D01*
G01*
X2946500Y8117350D02*
Y8612650D01*
X355500Y8117350D02*
Y8612650D01*
X2946500D01*
X355500Y8117350D02*
X2946500D01*
Y387350D02*
Y882650D01*
X355500Y387350D02*
Y882650D01*
X2946500D01*
X355500Y387350D02*
X2946500D01*
D26*
X577000Y1190000D02*
Y1350000D01*
X439000Y1190000D02*
Y1350000D01*
X792500Y1074489D02*
Y1234490D01*
X930500Y1074489D02*
Y1234490D01*
D27*
X333334Y1193825D02*
Y1346175D01*
X257158D01*
X231767Y1320783D01*
Y1270000D01*
X257158Y1244608D01*
X333334D01*
X282550D02*
X231767Y1193825D01*
X79416D02*
X180983D01*
X79416Y1295392D01*
Y1320783D01*
X104808Y1346175D01*
X155591D01*
X180983Y1320783D01*
X1228692Y1066825D02*
Y1219175D01*
X1152517D01*
X1127125Y1193783D01*
Y1143000D01*
X1152517Y1117608D01*
X1228692D01*
X1177908D02*
X1127125Y1066825D01*
X1076341D02*
X1025558D01*
X1050949D01*
Y1219175D01*
X1076341Y1193783D01*
X2847373Y1137871D02*
X2898157D01*
X2872765D01*
Y1010912D01*
X2898157Y985520D01*
X2923548D01*
X2948940Y1010912D01*
X2695022Y985520D02*
X2796589D01*
X2695022Y1087087D01*
Y1112479D01*
X2720414Y1137871D01*
X2771197D01*
X2796589Y1112479D01*
X396273Y8869631D02*
X447057D01*
X421665D01*
Y8742672D01*
X447057Y8717280D01*
X472448D01*
X497840Y8742672D01*
X345489Y8717280D02*
X294706D01*
X320097D01*
Y8869631D01*
X345489Y8844239D01*
%TF.MD5,040e5deb133d549c8e69f255be7b639d*%
M02*
