%TF.GenerationSoftware,Altium Limited,Altium Designer,23.4.1 (23)*%
G04 Layer_Color=16711935*
%FSLAX45Y45*%
%MOMM*%
%TF.SameCoordinates,2443AD3D-16DC-45C5-9BCC-0FA72C26467A*%
%TF.FilePolarity,Positive*%
%TF.FileFunction,Other,Mechanical_13*%
%TF.Part,Single*%
G01*
G75*
%TA.AperFunction,NonConductor*%
%ADD24C,0.20000*%
%ADD26C,0.12700*%
%ADD40C,0.10160*%
%ADD41C,0.10000*%
G36*
X2544486Y5127240D02*
X2494435D01*
Y5222263D01*
X2544486D01*
Y5127240D01*
D02*
G37*
G36*
X2427537D02*
X2377595D01*
Y5222337D01*
X2427537D01*
Y5127240D01*
D02*
G37*
G36*
X2745837Y1572963D02*
X2650740D01*
Y1622905D01*
X2745837D01*
Y1572963D01*
D02*
G37*
G36*
X682087D02*
X586990D01*
Y1622905D01*
X682087D01*
Y1572963D01*
D02*
G37*
G36*
X2745763Y1456014D02*
X2650740D01*
Y1506065D01*
X2745763D01*
Y1456014D01*
D02*
G37*
G36*
X682013D02*
X586990D01*
Y1506065D01*
X682013D01*
Y1456014D01*
D02*
G37*
D24*
X579000Y2368000D02*
G03*
X579000Y2368000I-10000J0D01*
G01*
X2741000Y6532000D02*
G03*
X2741000Y6532000I-10000J0D01*
G01*
X137000Y5581000D02*
G03*
X137000Y5581000I-10000J0D01*
G01*
X3183000Y3419000D02*
G03*
X3183000Y3419000I-10000J0D01*
G01*
X300500Y8238000D02*
G03*
X300500Y8238000I-10000J0D01*
G01*
Y508000D02*
G03*
X300500Y508000I-10000J0D01*
G01*
D26*
X558000Y1180000D02*
Y1360000D01*
X458000Y1180000D02*
Y1360000D01*
X558000D01*
X458000Y1180000D02*
X558000D01*
X811500Y1064489D02*
Y1244490D01*
X911500Y1064489D02*
Y1244490D01*
X811500Y1064489D02*
X911500D01*
X811500Y1244490D02*
X911500D01*
X634000Y2253500D02*
Y2736500D01*
X2666000D01*
Y2253500D02*
Y2736500D01*
X634000Y2253500D02*
X2666000D01*
X634000D02*
Y2736500D01*
X2666000D01*
Y2253500D02*
Y2736500D01*
Y6163500D02*
Y6646500D01*
X634000Y6163500D02*
X2666000D01*
X634000D02*
Y6646500D01*
X2666000D01*
Y6163500D02*
Y6646500D01*
X634000Y6163500D02*
X2666000D01*
X634000D02*
Y6646500D01*
X12500Y5516000D02*
X495500D01*
Y3484000D02*
Y5516000D01*
X12500Y3484000D02*
X495500D01*
X12500D02*
Y5516000D01*
X495500D01*
Y3484000D02*
Y5516000D01*
X12500Y3484000D02*
X495500D01*
X2804500D02*
X3287500D01*
X2804500D02*
Y5516000D01*
X3287500D01*
Y3484000D02*
Y5516000D01*
X2804500Y3484000D02*
X3287500D01*
X2804500D02*
Y5516000D01*
X3287500D01*
X1080000Y1854250D02*
X2220000D01*
X1080000Y1384250D02*
X2220000D01*
X1080000D02*
Y1854250D01*
X2220000Y1384250D02*
Y1854250D01*
D40*
X2425025Y5217150D02*
X2496225D01*
X2425025Y5132050D02*
X2496225D01*
X2655550Y1504275D02*
Y1575475D01*
X2740650Y1504275D02*
Y1575475D01*
X591800Y1504275D02*
Y1575475D01*
X676900Y1504275D02*
Y1575475D01*
D41*
X2946500Y8117350D02*
Y8612650D01*
X355500D02*
X2946500D01*
X355500Y8117350D02*
Y8612650D01*
Y8117350D02*
X2946500D01*
Y8612650D01*
X355500D02*
X2946500D01*
X355500Y8117350D02*
Y8612650D01*
X2946500Y387350D02*
Y882650D01*
X355500D02*
X2946500D01*
X355500Y387350D02*
Y882650D01*
Y387350D02*
X2946500D01*
Y882650D01*
X355500D02*
X2946500D01*
X355500Y387350D02*
Y882650D01*
%TF.MD5,a20464196918568f64606e4d78b3aee8*%
M02*
