%TF.GenerationSoftware,Altium Limited,Altium Designer,23.4.1 (23)*%
G04 Layer_Color=65535*
%FSLAX45Y45*%
%MOMM*%
%TF.SameCoordinates,2443AD3D-16DC-45C5-9BCC-0FA72C26467A*%
%TF.FilePolarity,Positive*%
%TF.FileFunction,Legend,Top*%
%TF.Part,Single*%
G01*
G75*
%TA.AperFunction,NonConductor*%
%ADD24C,0.20000*%
%ADD25C,0.25000*%
%ADD26C,0.12700*%
%ADD27C,0.25400*%
G36*
X1693764Y6081944D02*
X1695718D01*
Y6079989D01*
Y6078035D01*
X1697673D01*
Y6076080D01*
Y6074126D01*
X1699628D01*
Y6072171D01*
X1701583D01*
Y6070216D01*
X1703537D01*
Y6068262D01*
Y6066307D01*
X1705492D01*
Y6064352D01*
X1707446D01*
Y6062398D01*
Y6060443D01*
X1709401D01*
Y6058489D01*
X1711355D01*
Y6056534D01*
Y6054579D01*
X1713310D01*
Y6052624D01*
Y6050670D01*
X1715265D01*
Y6048715D01*
X1717220D01*
Y6046761D01*
X1719174D01*
Y6044806D01*
Y6042851D01*
X1721129D01*
Y6040897D01*
X1723083D01*
Y6038942D01*
Y6036987D01*
X1725038D01*
Y6035033D01*
X1726992D01*
Y6033078D01*
Y6031124D01*
X1728947D01*
Y6029169D01*
X1730902D01*
Y6027214D01*
X1732857D01*
Y6025259D01*
Y6023305D01*
X1734811D01*
Y6021350D01*
Y6019396D01*
X1736766D01*
Y6017441D01*
X1738720D01*
Y6015487D01*
Y6013532D01*
X1740675D01*
Y6011577D01*
X1742630D01*
Y6009622D01*
Y6007668D01*
X1744584D01*
Y6005713D01*
X1746539D01*
Y6003759D01*
Y6001804D01*
X1748494D01*
Y5999850D01*
X1750448D01*
Y5997895D01*
Y5995940D01*
X1752403D01*
Y5993985D01*
X1754357D01*
Y5992031D01*
X1756312D01*
Y5990076D01*
Y5988122D01*
X1758267D01*
Y5986167D01*
X1760222D01*
Y5984212D01*
Y5982258D01*
X1762176D01*
Y5980303D01*
X1764131D01*
Y5978348D01*
Y5976394D01*
X1766085D01*
Y5974439D01*
X1768040D01*
Y5972485D01*
Y5970530D01*
X1769994D01*
Y5968575D01*
X1771949D01*
Y5966621D01*
Y5964666D01*
X1773904D01*
Y5962711D01*
X1775859D01*
Y5960757D01*
Y5958802D01*
X1777813D01*
Y5956847D01*
X1779768D01*
Y5954893D01*
Y5952938D01*
X1781722D01*
Y5950984D01*
X1783677D01*
Y5949029D01*
Y5947074D01*
X1785632D01*
Y5945120D01*
X1787586D01*
Y5943165D01*
Y5941210D01*
X1789541D01*
Y5939256D01*
X1791496D01*
Y5937301D01*
Y5935347D01*
X1793450D01*
Y5933392D01*
X1795405D01*
Y5931437D01*
X1797360D01*
Y5929482D01*
Y5927528D01*
X1799314D01*
Y5925573D01*
X1801269D01*
Y5923619D01*
Y5921664D01*
X1803223D01*
Y5919710D01*
X1695718D01*
Y5921664D01*
X1693764D01*
Y5923619D01*
X1691809D01*
Y5925573D01*
Y5927528D01*
X1689855D01*
Y5929482D01*
X1687900D01*
Y5931437D01*
X1685945D01*
Y5933392D01*
Y5935347D01*
X1683991D01*
Y5937301D01*
X1682036D01*
Y5939256D01*
Y5941210D01*
X1680081D01*
Y5943165D01*
X1678127D01*
Y5945120D01*
Y5947074D01*
X1676172D01*
Y5949029D01*
X1674217D01*
Y5950984D01*
Y5952938D01*
X1672263D01*
Y5954893D01*
X1670308D01*
Y5956847D01*
Y5958802D01*
X1668354D01*
Y5960757D01*
X1666399D01*
Y5962711D01*
Y5964666D01*
X1664444D01*
Y5966621D01*
X1662490D01*
Y5968575D01*
Y5970530D01*
X1660535D01*
Y5972485D01*
X1658580D01*
Y5974439D01*
Y5976394D01*
X1656626D01*
Y5978348D01*
X1654671D01*
Y5980303D01*
X1652717D01*
Y5982258D01*
Y5984212D01*
X1650762D01*
Y5986167D01*
X1648807D01*
Y5988122D01*
Y5990076D01*
X1646853D01*
Y5992031D01*
X1644898D01*
Y5993985D01*
Y5995940D01*
X1642943D01*
Y5997895D01*
X1640989D01*
Y5999850D01*
Y6001804D01*
X1639034D01*
Y6003759D01*
X1637080D01*
Y6005713D01*
Y6007668D01*
X1635125D01*
Y6009622D01*
X1633170D01*
Y6011577D01*
Y6013532D01*
X1631215D01*
Y6015487D01*
X1629261D01*
Y6017441D01*
Y6019396D01*
X1627306D01*
Y6021350D01*
X1625352D01*
Y6023305D01*
Y6025259D01*
X1623397D01*
Y6027214D01*
X1621443D01*
Y6029169D01*
Y6031124D01*
X1619488D01*
Y6033078D01*
X1617533D01*
Y6035033D01*
Y6036987D01*
X1615578D01*
Y6038942D01*
X1613624D01*
Y6040897D01*
Y6042851D01*
X1609715D01*
Y6040897D01*
X1607760D01*
Y6038942D01*
Y6036987D01*
X1605805D01*
Y6035033D01*
X1603851D01*
Y6033078D01*
Y6031124D01*
X1601896D01*
Y6029169D01*
X1599941D01*
Y6027214D01*
X1597987D01*
Y6025259D01*
Y6023305D01*
X1596032D01*
Y6021350D01*
X1594078D01*
Y6019396D01*
Y6017441D01*
X1592123D01*
Y6015487D01*
X1590168D01*
Y6013532D01*
X1588214D01*
Y6011577D01*
Y6009622D01*
X1586259D01*
Y6007668D01*
X1584304D01*
Y6005713D01*
Y6003759D01*
X1582350D01*
Y6001804D01*
X1580395D01*
Y5999850D01*
Y5997895D01*
X1578440D01*
Y5995940D01*
X1576486D01*
Y5993985D01*
X1574531D01*
Y5992031D01*
Y5990076D01*
X1572576D01*
Y5988122D01*
Y5986167D01*
X1570622D01*
Y5984212D01*
X1568667D01*
Y5982258D01*
X1566713D01*
Y5980303D01*
Y5978348D01*
X1564758D01*
Y5976394D01*
X1562803D01*
Y5974439D01*
Y5972485D01*
X1560849D01*
Y5970530D01*
X1558894D01*
Y5968575D01*
X1556939D01*
Y5966621D01*
Y5964666D01*
X1554985D01*
Y5962711D01*
X1553030D01*
Y5960757D01*
Y5958802D01*
X1551076D01*
Y5956847D01*
X1549121D01*
Y5954893D01*
Y5952938D01*
X1547166D01*
Y5950984D01*
X1545212D01*
Y5949029D01*
X1543257D01*
Y5947074D01*
Y5945120D01*
X1541302D01*
Y5943165D01*
X1539348D01*
Y5941210D01*
Y5939256D01*
X1537393D01*
Y5937301D01*
X1535438D01*
Y5935347D01*
X1533484D01*
Y5933392D01*
Y5931437D01*
X1531529D01*
Y5929482D01*
Y5927528D01*
X1578440D01*
Y5925573D01*
X1582350D01*
Y5927528D01*
X1584304D01*
Y5929482D01*
X1586259D01*
Y5931437D01*
X1588214D01*
Y5933392D01*
Y5935347D01*
X1590168D01*
Y5937301D01*
Y5939256D01*
X1592123D01*
Y5941210D01*
X1594078D01*
Y5943165D01*
X1596032D01*
Y5945120D01*
Y5947074D01*
X1597987D01*
Y5949029D01*
X1599941D01*
Y5950984D01*
Y5952938D01*
X1601896D01*
Y5954893D01*
X1603851D01*
Y5956847D01*
Y5958802D01*
X1605805D01*
Y5960757D01*
X1607760D01*
Y5962711D01*
X1609715D01*
Y5964666D01*
Y5966621D01*
X1611669D01*
Y5968575D01*
X1613624D01*
Y5970530D01*
Y5972485D01*
X1615578D01*
Y5974439D01*
X1617533D01*
Y5976394D01*
X1619488D01*
Y5978348D01*
Y5980303D01*
X1621443D01*
Y5982258D01*
X1623397D01*
Y5984212D01*
Y5986167D01*
X1625352D01*
Y5984212D01*
Y5982258D01*
X1627306D01*
Y5980303D01*
Y5978348D01*
X1629261D01*
Y5976394D01*
X1631215D01*
Y5974439D01*
X1633170D01*
Y5972485D01*
Y5970530D01*
X1635125D01*
Y5968575D01*
X1637080D01*
Y5966621D01*
Y5964666D01*
Y5962711D01*
X1635125D01*
Y5960757D01*
X1633170D01*
Y5958802D01*
X1631215D01*
Y5956847D01*
Y5954893D01*
X1629261D01*
Y5952938D01*
X1627306D01*
Y5950984D01*
Y5949029D01*
X1625352D01*
Y5947074D01*
X1623397D01*
Y5945120D01*
X1621443D01*
Y5943165D01*
Y5941210D01*
X1619488D01*
Y5939256D01*
X1617533D01*
Y5937301D01*
Y5935347D01*
X1615578D01*
Y5933392D01*
X1613624D01*
Y5931437D01*
Y5929482D01*
X1611669D01*
Y5927528D01*
X1609715D01*
Y5925573D01*
X1607760D01*
Y5923619D01*
Y5921664D01*
X1605805D01*
Y5919710D01*
X1603851D01*
Y5917755D01*
Y5915800D01*
X1601896D01*
Y5913845D01*
X1599941D01*
Y5911891D01*
X1597987D01*
Y5909936D01*
Y5907982D01*
X1596032D01*
Y5906027D01*
X1484618D01*
Y5907982D01*
X1486573D01*
Y5909936D01*
X1488527D01*
Y5911891D01*
X1490482D01*
Y5913845D01*
X1492437D01*
Y5915800D01*
Y5917755D01*
X1494391D01*
Y5919710D01*
X1496346D01*
Y5921664D01*
Y5923619D01*
X1498300D01*
Y5925573D01*
X1500255D01*
Y5927528D01*
Y5929482D01*
X1502210D01*
Y5931437D01*
X1504164D01*
Y5933392D01*
Y5935347D01*
X1506119D01*
Y5937301D01*
X1508074D01*
Y5939256D01*
X1510028D01*
Y5941210D01*
Y5943165D01*
X1511983D01*
Y5945120D01*
X1513938D01*
Y5947074D01*
Y5949029D01*
X1515892D01*
Y5950984D01*
X1517847D01*
Y5952938D01*
X1519801D01*
Y5954893D01*
Y5956847D01*
X1521756D01*
Y5958802D01*
X1523711D01*
Y5960757D01*
Y5962711D01*
X1525665D01*
Y5964666D01*
X1527620D01*
Y5966621D01*
Y5968575D01*
X1529575D01*
Y5970530D01*
X1531529D01*
Y5972485D01*
X1533484D01*
Y5974439D01*
Y5976394D01*
X1535438D01*
Y5978348D01*
X1537393D01*
Y5980303D01*
Y5982258D01*
X1539348D01*
Y5984212D01*
X1541302D01*
Y5986167D01*
X1543257D01*
Y5988122D01*
Y5990076D01*
X1545212D01*
Y5992031D01*
X1547166D01*
Y5993985D01*
Y5995940D01*
X1549121D01*
Y5997895D01*
X1551076D01*
Y5999850D01*
X1553030D01*
Y6001804D01*
Y6003759D01*
X1554985D01*
Y6005713D01*
X1556939D01*
Y6007668D01*
Y6009622D01*
X1558894D01*
Y6011577D01*
X1560849D01*
Y6013532D01*
Y6015487D01*
X1562803D01*
Y6017441D01*
X1564758D01*
Y6019396D01*
Y6021350D01*
X1566713D01*
Y6023305D01*
X1568667D01*
Y6025259D01*
Y6027214D01*
X1570622D01*
Y6029169D01*
X1572576D01*
Y6031124D01*
X1574531D01*
Y6033078D01*
Y6035033D01*
X1576486D01*
Y6036987D01*
X1578440D01*
Y6038942D01*
Y6040897D01*
X1580395D01*
Y6042851D01*
X1582350D01*
Y6044806D01*
Y6046761D01*
X1584304D01*
Y6048715D01*
X1586259D01*
Y6050670D01*
X1588214D01*
Y6052624D01*
Y6054579D01*
X1590168D01*
Y6056534D01*
X1592123D01*
Y6058489D01*
Y6060443D01*
X1594078D01*
Y6062398D01*
X1596032D01*
Y6064352D01*
X1597987D01*
Y6066307D01*
Y6068262D01*
X1599941D01*
Y6070216D01*
X1601896D01*
Y6072171D01*
Y6074126D01*
X1603851D01*
Y6076080D01*
X1605805D01*
Y6078035D01*
X1607760D01*
Y6079989D01*
Y6081944D01*
X1609715D01*
Y6083899D01*
X1611669D01*
Y6081944D01*
X1613624D01*
Y6079989D01*
Y6078035D01*
X1615578D01*
Y6076080D01*
X1617533D01*
Y6074126D01*
Y6072171D01*
X1619488D01*
Y6070216D01*
X1621443D01*
Y6068262D01*
Y6066307D01*
X1623397D01*
Y6064352D01*
X1625352D01*
Y6062398D01*
Y6060443D01*
X1627306D01*
Y6058489D01*
X1629261D01*
Y6056534D01*
X1631215D01*
Y6054579D01*
Y6052624D01*
X1633170D01*
Y6050670D01*
X1635125D01*
Y6048715D01*
Y6046761D01*
X1637080D01*
Y6044806D01*
X1639034D01*
Y6042851D01*
Y6040897D01*
X1640989D01*
Y6038942D01*
X1642943D01*
Y6036987D01*
Y6035033D01*
X1644898D01*
Y6033078D01*
Y6031124D01*
X1646853D01*
Y6029169D01*
X1648807D01*
Y6027214D01*
X1650762D01*
Y6025259D01*
Y6023305D01*
X1652717D01*
Y6021350D01*
X1654671D01*
Y6019396D01*
Y6017441D01*
X1656626D01*
Y6015487D01*
X1658580D01*
Y6013532D01*
Y6011577D01*
X1660535D01*
Y6009622D01*
X1662490D01*
Y6007668D01*
Y6005713D01*
X1664444D01*
Y6003759D01*
X1666399D01*
Y6001804D01*
Y5999850D01*
X1668354D01*
Y5997895D01*
X1670308D01*
Y5995940D01*
Y5993985D01*
X1672263D01*
Y5992031D01*
X1674217D01*
Y5990076D01*
X1676172D01*
Y5988122D01*
Y5986167D01*
X1678127D01*
Y5984212D01*
X1680081D01*
Y5982258D01*
Y5980303D01*
X1682036D01*
Y5978348D01*
Y5976394D01*
X1683991D01*
Y5974439D01*
X1685945D01*
Y5972485D01*
X1687900D01*
Y5970530D01*
Y5968575D01*
X1689855D01*
Y5966621D01*
Y5964666D01*
X1691809D01*
Y5962711D01*
X1693764D01*
Y5960757D01*
X1695718D01*
Y5958802D01*
Y5956847D01*
X1697673D01*
Y5954893D01*
X1699628D01*
Y5952938D01*
Y5950984D01*
X1701583D01*
Y5949029D01*
X1703537D01*
Y5947074D01*
Y5945120D01*
X1705492D01*
Y5943165D01*
X1707446D01*
Y5941210D01*
Y5939256D01*
X1760222D01*
Y5941210D01*
Y5943165D01*
X1758267D01*
Y5945120D01*
Y5947074D01*
X1756312D01*
Y5949029D01*
X1754357D01*
Y5950984D01*
Y5952938D01*
X1752403D01*
Y5954893D01*
X1750448D01*
Y5956847D01*
X1748494D01*
Y5958802D01*
Y5960757D01*
X1746539D01*
Y5962711D01*
Y5964666D01*
X1744584D01*
Y5966621D01*
X1742630D01*
Y5968575D01*
X1740675D01*
Y5970530D01*
Y5972485D01*
X1738720D01*
Y5974439D01*
X1736766D01*
Y5976394D01*
Y5978348D01*
X1734811D01*
Y5980303D01*
X1732857D01*
Y5982258D01*
Y5984212D01*
X1730902D01*
Y5986167D01*
X1728947D01*
Y5988122D01*
Y5990076D01*
X1726992D01*
Y5992031D01*
X1725038D01*
Y5993985D01*
X1723083D01*
Y5995940D01*
Y5997895D01*
X1721129D01*
Y5999850D01*
X1719174D01*
Y6001804D01*
Y6003759D01*
X1717220D01*
Y6005713D01*
X1715265D01*
Y6007668D01*
Y6009622D01*
X1713310D01*
Y6011577D01*
X1711355D01*
Y6013532D01*
Y6015487D01*
X1709401D01*
Y6017441D01*
X1707446D01*
Y6019396D01*
Y6021350D01*
X1705492D01*
Y6023305D01*
X1703537D01*
Y6025259D01*
Y6027214D01*
X1701583D01*
Y6029169D01*
X1699628D01*
Y6031124D01*
Y6033078D01*
X1697673D01*
Y6035033D01*
X1695718D01*
Y6036987D01*
X1693764D01*
Y6038942D01*
Y6040897D01*
X1687900D01*
Y6038942D01*
Y6036987D01*
X1685945D01*
Y6035033D01*
X1683991D01*
Y6033078D01*
Y6031124D01*
X1682036D01*
Y6029169D01*
X1680081D01*
Y6027214D01*
Y6025259D01*
X1678127D01*
Y6023305D01*
X1676172D01*
Y6025259D01*
Y6027214D01*
X1674217D01*
Y6029169D01*
Y6031124D01*
X1672263D01*
Y6033078D01*
X1670308D01*
Y6035033D01*
X1668354D01*
Y6036987D01*
Y6038942D01*
X1666399D01*
Y6040897D01*
X1664444D01*
Y6042851D01*
Y6044806D01*
X1666399D01*
Y6046761D01*
X1668354D01*
Y6048715D01*
Y6050670D01*
X1670308D01*
Y6052624D01*
X1672263D01*
Y6054579D01*
Y6056534D01*
X1674217D01*
Y6058489D01*
X1676172D01*
Y6060443D01*
Y6062398D01*
X1678127D01*
Y6064352D01*
X1680081D01*
Y6066307D01*
Y6068262D01*
X1682036D01*
Y6070216D01*
Y6072171D01*
X1683991D01*
Y6074126D01*
X1685945D01*
Y6076080D01*
Y6078035D01*
X1687900D01*
Y6079989D01*
X1689855D01*
Y6081944D01*
Y6083899D01*
X1693764D01*
Y6081944D01*
D02*
G37*
G36*
X1597987Y5872798D02*
Y5870843D01*
X1599941D01*
Y5868889D01*
Y5866934D01*
X1601896D01*
Y5864980D01*
X1603851D01*
Y5863025D01*
X1605805D01*
Y5861070D01*
X1607760D01*
Y5859116D01*
Y5857161D01*
X1609715D01*
Y5855206D01*
Y5853252D01*
X1611669D01*
Y5851297D01*
X1613624D01*
Y5849342D01*
X1615578D01*
Y5847388D01*
Y5845433D01*
X1617533D01*
Y5843479D01*
X1619488D01*
Y5841524D01*
Y5839569D01*
X1621443D01*
Y5837615D01*
X1623397D01*
Y5835660D01*
X1625352D01*
Y5833705D01*
Y5831751D01*
X1627306D01*
Y5829796D01*
X1629261D01*
Y5827842D01*
Y5825887D01*
X1631215D01*
Y5823932D01*
X1633170D01*
Y5821978D01*
Y5820023D01*
X1635125D01*
Y5818068D01*
X1637080D01*
Y5816114D01*
Y5814159D01*
X1635125D01*
Y5812205D01*
Y5810250D01*
X1633170D01*
Y5808295D01*
X1631215D01*
Y5806341D01*
X1629261D01*
Y5804386D01*
Y5802431D01*
X1627306D01*
Y5800477D01*
X1625352D01*
Y5798522D01*
Y5796568D01*
X1623397D01*
Y5798522D01*
X1621443D01*
Y5800477D01*
Y5802431D01*
X1619488D01*
Y5804386D01*
X1617533D01*
Y5806341D01*
Y5808295D01*
X1615578D01*
Y5810250D01*
X1613624D01*
Y5812205D01*
X1611669D01*
Y5814159D01*
Y5816114D01*
X1609715D01*
Y5818068D01*
X1607760D01*
Y5820023D01*
Y5821978D01*
X1605805D01*
Y5823932D01*
X1603851D01*
Y5825887D01*
Y5827842D01*
X1601896D01*
Y5829796D01*
X1599941D01*
Y5831751D01*
X1597987D01*
Y5833705D01*
Y5835660D01*
X1596032D01*
Y5837615D01*
X1594078D01*
Y5839569D01*
Y5841524D01*
X1592123D01*
Y5843479D01*
X1590168D01*
Y5845433D01*
Y5847388D01*
X1588214D01*
Y5849342D01*
X1586259D01*
Y5851297D01*
X1584304D01*
Y5853252D01*
Y5855206D01*
X1531529D01*
Y5853252D01*
Y5851297D01*
Y5849342D01*
X1533484D01*
Y5847388D01*
X1535438D01*
Y5845433D01*
X1537393D01*
Y5843479D01*
Y5841524D01*
X1539348D01*
Y5839569D01*
X1541302D01*
Y5837615D01*
Y5835660D01*
X1543257D01*
Y5833705D01*
X1545212D01*
Y5831751D01*
X1547166D01*
Y5829796D01*
Y5827842D01*
X1549121D01*
Y5825887D01*
X1551076D01*
Y5823932D01*
Y5821978D01*
X1553030D01*
Y5820023D01*
X1554985D01*
Y5818068D01*
Y5816114D01*
X1556939D01*
Y5814159D01*
X1558894D01*
Y5812205D01*
X1560849D01*
Y5810250D01*
Y5808295D01*
X1562803D01*
Y5806341D01*
X1564758D01*
Y5804386D01*
Y5802431D01*
X1566713D01*
Y5800477D01*
X1568667D01*
Y5798522D01*
Y5796568D01*
X1570622D01*
Y5794613D01*
X1572576D01*
Y5792658D01*
X1574531D01*
Y5790704D01*
Y5788749D01*
X1576486D01*
Y5786794D01*
X1578440D01*
Y5784840D01*
Y5782885D01*
X1580395D01*
Y5780930D01*
X1582350D01*
Y5778976D01*
Y5777021D01*
X1584304D01*
Y5775066D01*
X1586259D01*
Y5773112D01*
X1588214D01*
Y5771157D01*
Y5769203D01*
X1590168D01*
Y5767248D01*
X1592123D01*
Y5765293D01*
Y5763339D01*
X1594078D01*
Y5761384D01*
X1596032D01*
Y5759429D01*
X1597987D01*
Y5757475D01*
Y5755520D01*
X1599941D01*
Y5753565D01*
Y5751611D01*
X1601896D01*
Y5749656D01*
X1603851D01*
Y5747702D01*
X1605805D01*
Y5745747D01*
Y5743792D01*
X1607760D01*
Y5741838D01*
X1609715D01*
Y5739883D01*
X1613624D01*
Y5741838D01*
X1615578D01*
Y5743792D01*
Y5745747D01*
X1617533D01*
Y5747702D01*
Y5749656D01*
X1619488D01*
Y5751611D01*
X1621443D01*
Y5753565D01*
X1623397D01*
Y5755520D01*
Y5757475D01*
X1625352D01*
Y5759429D01*
Y5761384D01*
X1627306D01*
Y5763339D01*
X1629261D01*
Y5765293D01*
X1631215D01*
Y5767248D01*
Y5769203D01*
X1633170D01*
Y5771157D01*
X1635125D01*
Y5773112D01*
Y5775066D01*
X1637080D01*
Y5777021D01*
X1639034D01*
Y5778976D01*
Y5780930D01*
X1640989D01*
Y5782885D01*
X1642943D01*
Y5784840D01*
Y5786794D01*
X1644898D01*
Y5788749D01*
X1646853D01*
Y5790704D01*
Y5792658D01*
X1648807D01*
Y5794613D01*
X1650762D01*
Y5796568D01*
Y5798522D01*
X1652717D01*
Y5800477D01*
X1654671D01*
Y5802431D01*
Y5804386D01*
X1656626D01*
Y5806341D01*
X1658580D01*
Y5808295D01*
X1660535D01*
Y5810250D01*
Y5812205D01*
X1662490D01*
Y5814159D01*
Y5816114D01*
X1664444D01*
Y5818068D01*
X1666399D01*
Y5820023D01*
X1668354D01*
Y5821978D01*
Y5823932D01*
X1670308D01*
Y5825887D01*
X1672263D01*
Y5827842D01*
Y5829796D01*
X1674217D01*
Y5831751D01*
X1676172D01*
Y5833705D01*
Y5835660D01*
X1678127D01*
Y5837615D01*
Y5839569D01*
X1680081D01*
Y5841524D01*
X1682036D01*
Y5843479D01*
X1683991D01*
Y5845433D01*
Y5847388D01*
X1685945D01*
Y5849342D01*
X1687900D01*
Y5851297D01*
Y5853252D01*
X1689855D01*
Y5855206D01*
X1691809D01*
Y5857161D01*
Y5859116D01*
X1693764D01*
Y5861070D01*
X1695718D01*
Y5863025D01*
X1803223D01*
Y5861070D01*
X1801269D01*
Y5859116D01*
Y5857161D01*
X1799314D01*
Y5855206D01*
X1797360D01*
Y5853252D01*
Y5851297D01*
X1795405D01*
Y5849342D01*
X1793450D01*
Y5847388D01*
Y5845433D01*
X1791496D01*
Y5843479D01*
X1789541D01*
Y5841524D01*
Y5839569D01*
X1787586D01*
Y5837615D01*
X1785632D01*
Y5835660D01*
X1783677D01*
Y5833705D01*
Y5831751D01*
X1781722D01*
Y5829796D01*
Y5827842D01*
X1779768D01*
Y5825887D01*
X1777813D01*
Y5823932D01*
Y5821978D01*
X1775859D01*
Y5820023D01*
X1773904D01*
Y5818068D01*
Y5816114D01*
X1771949D01*
Y5814159D01*
X1769994D01*
Y5812205D01*
X1768040D01*
Y5810250D01*
Y5808295D01*
X1766085D01*
Y5806341D01*
Y5804386D01*
X1764131D01*
Y5802431D01*
X1762176D01*
Y5800477D01*
X1760222D01*
Y5798522D01*
Y5796568D01*
X1758267D01*
Y5794613D01*
Y5792658D01*
X1756312D01*
Y5790704D01*
X1754357D01*
Y5788749D01*
X1752403D01*
Y5786794D01*
Y5784840D01*
X1750448D01*
Y5782885D01*
X1748494D01*
Y5780930D01*
Y5778976D01*
X1746539D01*
Y5777021D01*
X1744584D01*
Y5775066D01*
Y5773112D01*
X1742630D01*
Y5771157D01*
X1740675D01*
Y5769203D01*
Y5767248D01*
X1738720D01*
Y5765293D01*
X1736766D01*
Y5763339D01*
Y5761384D01*
X1734811D01*
Y5759429D01*
X1732857D01*
Y5757475D01*
Y5755520D01*
X1730902D01*
Y5753565D01*
X1728947D01*
Y5751611D01*
Y5749656D01*
X1726992D01*
Y5747702D01*
X1725038D01*
Y5745747D01*
X1723083D01*
Y5743792D01*
Y5741838D01*
X1721129D01*
Y5739883D01*
Y5737928D01*
X1719174D01*
Y5735974D01*
X1717220D01*
Y5734019D01*
X1715265D01*
Y5732064D01*
Y5730110D01*
X1713310D01*
Y5728155D01*
Y5726201D01*
X1711355D01*
Y5724246D01*
X1709401D01*
Y5722291D01*
Y5720337D01*
X1707446D01*
Y5718382D01*
X1705492D01*
Y5716427D01*
Y5714473D01*
X1703537D01*
Y5712518D01*
X1701583D01*
Y5710564D01*
X1699628D01*
Y5708609D01*
Y5706654D01*
X1697673D01*
Y5704700D01*
X1695718D01*
Y5702745D01*
Y5700790D01*
X1693764D01*
Y5698836D01*
Y5696881D01*
X1691809D01*
Y5698836D01*
X1689855D01*
Y5700790D01*
Y5702745D01*
X1687900D01*
Y5704700D01*
X1685945D01*
Y5706654D01*
X1683991D01*
Y5708609D01*
Y5710564D01*
X1682036D01*
Y5712518D01*
Y5714473D01*
X1680081D01*
Y5716427D01*
X1678127D01*
Y5718382D01*
Y5720337D01*
X1676172D01*
Y5722291D01*
X1674217D01*
Y5724246D01*
Y5726201D01*
X1672263D01*
Y5728155D01*
X1670308D01*
Y5730110D01*
Y5732064D01*
X1668354D01*
Y5734019D01*
X1666399D01*
Y5735974D01*
Y5737928D01*
X1664444D01*
Y5739883D01*
X1666399D01*
Y5741838D01*
Y5743792D01*
X1668354D01*
Y5745747D01*
X1670308D01*
Y5747702D01*
X1672263D01*
Y5749656D01*
Y5751611D01*
X1674217D01*
Y5753565D01*
Y5755520D01*
X1676172D01*
Y5757475D01*
X1678127D01*
Y5755520D01*
X1680081D01*
Y5753565D01*
X1682036D01*
Y5751611D01*
Y5749656D01*
X1683991D01*
Y5747702D01*
X1685945D01*
Y5745747D01*
Y5743792D01*
X1687900D01*
Y5741838D01*
X1689855D01*
Y5739883D01*
X1693764D01*
Y5741838D01*
Y5743792D01*
X1695718D01*
Y5745747D01*
Y5747702D01*
X1697673D01*
Y5749656D01*
X1699628D01*
Y5751611D01*
X1701583D01*
Y5753565D01*
Y5755520D01*
X1703537D01*
Y5757475D01*
X1705492D01*
Y5759429D01*
Y5761384D01*
X1707446D01*
Y5763339D01*
X1709401D01*
Y5765293D01*
Y5767248D01*
X1711355D01*
Y5769203D01*
X1713310D01*
Y5771157D01*
Y5773112D01*
X1715265D01*
Y5775066D01*
X1717220D01*
Y5777021D01*
Y5778976D01*
X1719174D01*
Y5780930D01*
X1721129D01*
Y5782885D01*
Y5784840D01*
X1723083D01*
Y5786794D01*
X1725038D01*
Y5788749D01*
X1726992D01*
Y5790704D01*
Y5792658D01*
X1728947D01*
Y5794613D01*
Y5796568D01*
X1730902D01*
Y5798522D01*
X1732857D01*
Y5800477D01*
X1734811D01*
Y5802431D01*
Y5804386D01*
X1736766D01*
Y5806341D01*
Y5808295D01*
X1738720D01*
Y5810250D01*
X1740675D01*
Y5812205D01*
X1742630D01*
Y5814159D01*
Y5816114D01*
X1744584D01*
Y5818068D01*
X1746539D01*
Y5820023D01*
Y5821978D01*
X1748494D01*
Y5823932D01*
X1750448D01*
Y5825887D01*
X1752403D01*
Y5827842D01*
Y5829796D01*
X1754357D01*
Y5831751D01*
Y5833705D01*
X1756312D01*
Y5835660D01*
X1758267D01*
Y5837615D01*
X1760222D01*
Y5839569D01*
Y5841524D01*
Y5843479D01*
X1709401D01*
Y5841524D01*
X1707446D01*
Y5839569D01*
X1705492D01*
Y5837615D01*
Y5835660D01*
X1703537D01*
Y5833705D01*
X1701583D01*
Y5831751D01*
Y5829796D01*
X1699628D01*
Y5827842D01*
X1697673D01*
Y5825887D01*
X1695718D01*
Y5823932D01*
Y5821978D01*
X1693764D01*
Y5820023D01*
X1691809D01*
Y5818068D01*
Y5816114D01*
X1689855D01*
Y5814159D01*
X1687900D01*
Y5812205D01*
Y5810250D01*
X1685945D01*
Y5808295D01*
X1683991D01*
Y5806341D01*
Y5804386D01*
X1682036D01*
Y5802431D01*
X1680081D01*
Y5800477D01*
Y5798522D01*
X1678127D01*
Y5796568D01*
X1676172D01*
Y5794613D01*
Y5792658D01*
X1674217D01*
Y5790704D01*
X1672263D01*
Y5788749D01*
Y5786794D01*
X1670308D01*
Y5784840D01*
X1668354D01*
Y5782885D01*
Y5780930D01*
X1666399D01*
Y5778976D01*
X1664444D01*
Y5777021D01*
Y5775066D01*
X1662490D01*
Y5773112D01*
X1660535D01*
Y5771157D01*
X1658580D01*
Y5769203D01*
Y5767248D01*
X1656626D01*
Y5765293D01*
Y5763339D01*
X1654671D01*
Y5761384D01*
X1652717D01*
Y5759429D01*
Y5757475D01*
X1650762D01*
Y5755520D01*
X1648807D01*
Y5753565D01*
Y5751611D01*
X1646853D01*
Y5749656D01*
X1644898D01*
Y5747702D01*
X1642943D01*
Y5745747D01*
Y5743792D01*
X1640989D01*
Y5741838D01*
Y5739883D01*
X1639034D01*
Y5737928D01*
X1637080D01*
Y5735974D01*
X1635125D01*
Y5734019D01*
Y5732064D01*
X1633170D01*
Y5730110D01*
Y5728155D01*
X1631215D01*
Y5726201D01*
X1629261D01*
Y5724246D01*
X1627306D01*
Y5722291D01*
Y5720337D01*
X1625352D01*
Y5718382D01*
Y5716427D01*
X1623397D01*
Y5714473D01*
X1621443D01*
Y5712518D01*
X1619488D01*
Y5710564D01*
Y5708609D01*
X1617533D01*
Y5706654D01*
X1615578D01*
Y5704700D01*
Y5702745D01*
X1613624D01*
Y5700790D01*
X1611669D01*
Y5698836D01*
Y5696881D01*
X1609715D01*
Y5698836D01*
Y5700790D01*
X1607760D01*
Y5702745D01*
X1605805D01*
Y5704700D01*
X1603851D01*
Y5706654D01*
Y5708609D01*
X1601896D01*
Y5710564D01*
X1599941D01*
Y5712518D01*
Y5714473D01*
X1597987D01*
Y5716427D01*
X1596032D01*
Y5718382D01*
X1594078D01*
Y5720337D01*
Y5722291D01*
X1592123D01*
Y5724246D01*
X1590168D01*
Y5726201D01*
Y5728155D01*
X1588214D01*
Y5730110D01*
X1586259D01*
Y5732064D01*
Y5734019D01*
X1584304D01*
Y5735974D01*
X1582350D01*
Y5737928D01*
Y5739883D01*
X1580395D01*
Y5741838D01*
X1578440D01*
Y5743792D01*
X1576486D01*
Y5745747D01*
Y5747702D01*
X1574531D01*
Y5749656D01*
X1572576D01*
Y5751611D01*
Y5753565D01*
X1570622D01*
Y5755520D01*
X1568667D01*
Y5757475D01*
X1566713D01*
Y5759429D01*
Y5761384D01*
X1564758D01*
Y5763339D01*
X1562803D01*
Y5765293D01*
Y5767248D01*
X1560849D01*
Y5769203D01*
X1558894D01*
Y5771157D01*
Y5773112D01*
X1556939D01*
Y5775066D01*
X1554985D01*
Y5777021D01*
X1553030D01*
Y5778976D01*
Y5780930D01*
X1551076D01*
Y5782885D01*
X1549121D01*
Y5784840D01*
Y5786794D01*
X1547166D01*
Y5788749D01*
X1545212D01*
Y5790704D01*
Y5792658D01*
X1543257D01*
Y5794613D01*
X1541302D01*
Y5796568D01*
X1539348D01*
Y5798522D01*
Y5800477D01*
X1537393D01*
Y5802431D01*
Y5804386D01*
X1535438D01*
Y5806341D01*
X1533484D01*
Y5808295D01*
X1531529D01*
Y5810250D01*
X1529575D01*
Y5812205D01*
Y5814159D01*
X1527620D01*
Y5816114D01*
Y5818068D01*
X1525665D01*
Y5820023D01*
X1523711D01*
Y5821978D01*
X1521756D01*
Y5823932D01*
Y5825887D01*
X1519801D01*
Y5827842D01*
X1517847D01*
Y5829796D01*
Y5831751D01*
X1515892D01*
Y5833705D01*
X1513938D01*
Y5835660D01*
Y5837615D01*
X1511983D01*
Y5839569D01*
X1510028D01*
Y5841524D01*
X1508074D01*
Y5843479D01*
Y5845433D01*
X1506119D01*
Y5847388D01*
X1504164D01*
Y5849342D01*
Y5851297D01*
X1502210D01*
Y5853252D01*
X1500255D01*
Y5855206D01*
X1498300D01*
Y5857161D01*
Y5859116D01*
X1496346D01*
Y5861070D01*
X1494391D01*
Y5863025D01*
Y5864980D01*
X1492437D01*
Y5866934D01*
X1490482D01*
Y5868889D01*
X1488527D01*
Y5870843D01*
Y5872798D01*
X1486573D01*
Y5874753D01*
X1597987D01*
Y5872798D01*
D02*
G37*
G36*
X2227379Y5519010D02*
X2223470D01*
Y5517055D01*
X2221515D01*
Y5515100D01*
X2219560D01*
Y5513145D01*
X2215651D01*
Y5511191D01*
X2213697D01*
Y5509236D01*
X2211742D01*
Y5507282D01*
X2207833D01*
Y5505327D01*
X2205878D01*
Y5503372D01*
X2201969D01*
Y5501418D01*
X2200014D01*
Y5499463D01*
X2198060D01*
Y5497508D01*
X2196105D01*
Y5495554D01*
X2192196D01*
Y5493599D01*
X2190241D01*
Y5491645D01*
X2186332D01*
Y5489690D01*
X2184377D01*
Y5487735D01*
X2182422D01*
Y5485780D01*
X2180468D01*
Y5483826D01*
X2176559D01*
Y5481871D01*
X2174604D01*
Y5479917D01*
X2172649D01*
Y5477962D01*
X2168740D01*
Y5476008D01*
X2166785D01*
Y5474053D01*
X2164831D01*
Y5472098D01*
Y5470143D01*
X2166785D01*
Y5468189D01*
X2168740D01*
Y5466234D01*
X2172649D01*
Y5464280D01*
X2174604D01*
Y5462325D01*
X2178513D01*
Y5460370D01*
X2180468D01*
Y5458416D01*
X2182422D01*
Y5456461D01*
X2186332D01*
Y5454506D01*
X2188286D01*
Y5452552D01*
X2190241D01*
Y5450597D01*
X2194150D01*
Y5448642D01*
X2196105D01*
Y5446688D01*
X2200014D01*
Y5444733D01*
X2201969D01*
Y5442779D01*
X2203923D01*
Y5440824D01*
X2205878D01*
Y5438869D01*
X2209787D01*
Y5436915D01*
X2211742D01*
Y5434960D01*
X2215651D01*
Y5433005D01*
X2217606D01*
Y5431051D01*
X2219560D01*
Y5429096D01*
X2223470D01*
Y5427142D01*
X2225424D01*
Y5425187D01*
X2227379D01*
Y5423232D01*
X2186332D01*
Y5425187D01*
X2184377D01*
Y5427142D01*
X2180468D01*
Y5429096D01*
X2178513D01*
Y5431051D01*
X2174604D01*
Y5433005D01*
X2172649D01*
Y5434960D01*
X2168740D01*
Y5436915D01*
X2166785D01*
Y5438869D01*
X2162876D01*
Y5440824D01*
X2160922D01*
Y5442779D01*
X2158967D01*
Y5444733D01*
X2155057D01*
Y5446688D01*
X2153103D01*
Y5448642D01*
X2149194D01*
Y5450597D01*
X2147239D01*
Y5452552D01*
X2145285D01*
Y5454506D01*
X2139420D01*
Y5452552D01*
Y5450597D01*
Y5448642D01*
Y5446688D01*
Y5444733D01*
Y5442779D01*
Y5440824D01*
Y5438869D01*
Y5436915D01*
Y5434960D01*
Y5433005D01*
Y5431051D01*
Y5429096D01*
Y5427142D01*
Y5425187D01*
Y5423232D01*
X2110101D01*
Y5425187D01*
Y5427142D01*
Y5429096D01*
Y5431051D01*
Y5433005D01*
Y5434960D01*
Y5436915D01*
Y5438869D01*
Y5440824D01*
Y5442779D01*
Y5444733D01*
Y5446688D01*
Y5448642D01*
Y5450597D01*
Y5452552D01*
Y5454506D01*
Y5456461D01*
Y5458416D01*
Y5460370D01*
Y5462325D01*
Y5464280D01*
Y5466234D01*
Y5468189D01*
Y5470143D01*
Y5472098D01*
Y5474053D01*
Y5476008D01*
Y5477962D01*
Y5479917D01*
Y5481871D01*
Y5483826D01*
Y5485780D01*
Y5487735D01*
Y5489690D01*
Y5491645D01*
Y5493599D01*
Y5495554D01*
Y5497508D01*
Y5499463D01*
Y5501418D01*
Y5503372D01*
Y5505327D01*
Y5507282D01*
Y5509236D01*
Y5511191D01*
Y5513145D01*
Y5515100D01*
Y5517055D01*
Y5519010D01*
Y5520964D01*
X2139420D01*
Y5519010D01*
Y5517055D01*
Y5515100D01*
Y5513145D01*
Y5511191D01*
Y5509236D01*
Y5507282D01*
Y5505327D01*
Y5503372D01*
Y5501418D01*
Y5499463D01*
Y5497508D01*
Y5495554D01*
Y5493599D01*
Y5491645D01*
Y5489690D01*
Y5487735D01*
X2141375D01*
Y5489690D01*
X2145285D01*
Y5491645D01*
X2147239D01*
Y5493599D01*
X2149194D01*
Y5495554D01*
X2153103D01*
Y5497508D01*
X2155057D01*
Y5499463D01*
X2158967D01*
Y5501418D01*
X2160922D01*
Y5503372D01*
X2162876D01*
Y5505327D01*
X2166785D01*
Y5507282D01*
X2168740D01*
Y5509236D01*
X2170694D01*
Y5511191D01*
X2172649D01*
Y5513145D01*
X2176559D01*
Y5515100D01*
X2178513D01*
Y5517055D01*
X2182422D01*
Y5519010D01*
X2184377D01*
Y5520964D01*
X2227379D01*
Y5519010D01*
D02*
G37*
G36*
X1576486D02*
Y5517055D01*
Y5515100D01*
Y5513145D01*
Y5511191D01*
Y5509236D01*
Y5507282D01*
Y5505327D01*
Y5503372D01*
Y5501418D01*
Y5499463D01*
Y5497508D01*
Y5495554D01*
Y5493599D01*
Y5491645D01*
Y5489690D01*
Y5487735D01*
Y5485780D01*
Y5483826D01*
Y5481871D01*
Y5479917D01*
Y5477962D01*
Y5476008D01*
Y5474053D01*
Y5472098D01*
Y5470143D01*
Y5468189D01*
Y5466234D01*
Y5464280D01*
Y5462325D01*
Y5460370D01*
Y5458416D01*
Y5456461D01*
Y5454506D01*
Y5452552D01*
Y5450597D01*
Y5448642D01*
Y5446688D01*
Y5444733D01*
Y5442779D01*
Y5440824D01*
Y5438869D01*
Y5436915D01*
Y5434960D01*
Y5433005D01*
Y5431051D01*
Y5429096D01*
Y5427142D01*
Y5425187D01*
Y5423232D01*
X1547166D01*
Y5425187D01*
Y5427142D01*
Y5429096D01*
Y5431051D01*
Y5433005D01*
Y5434960D01*
Y5436915D01*
Y5438869D01*
Y5440824D01*
Y5442779D01*
Y5444733D01*
Y5446688D01*
Y5448642D01*
Y5450597D01*
Y5452552D01*
Y5454506D01*
Y5456461D01*
Y5458416D01*
Y5460370D01*
X1492437D01*
Y5458416D01*
X1490482D01*
Y5456461D01*
Y5454506D01*
Y5452552D01*
Y5450597D01*
Y5448642D01*
Y5446688D01*
Y5444733D01*
Y5442779D01*
Y5440824D01*
Y5438869D01*
Y5436915D01*
Y5434960D01*
Y5433005D01*
Y5431051D01*
Y5429096D01*
Y5427142D01*
Y5425187D01*
X1492437D01*
Y5423232D01*
X1461162D01*
Y5425187D01*
Y5427142D01*
Y5429096D01*
Y5431051D01*
Y5433005D01*
Y5434960D01*
Y5436915D01*
Y5438869D01*
Y5440824D01*
Y5442779D01*
Y5444733D01*
Y5446688D01*
Y5448642D01*
Y5450597D01*
Y5452552D01*
Y5454506D01*
Y5456461D01*
Y5458416D01*
Y5460370D01*
Y5462325D01*
Y5464280D01*
Y5466234D01*
Y5468189D01*
Y5470143D01*
Y5472098D01*
Y5474053D01*
Y5476008D01*
Y5477962D01*
Y5479917D01*
Y5481871D01*
Y5483826D01*
Y5485780D01*
Y5487735D01*
Y5489690D01*
Y5491645D01*
Y5493599D01*
Y5495554D01*
Y5497508D01*
Y5499463D01*
Y5501418D01*
Y5503372D01*
Y5505327D01*
Y5507282D01*
Y5509236D01*
Y5511191D01*
Y5513145D01*
Y5515100D01*
Y5517055D01*
Y5519010D01*
Y5520964D01*
X1492437D01*
Y5519010D01*
X1490482D01*
Y5517055D01*
Y5515100D01*
Y5513145D01*
Y5511191D01*
Y5509236D01*
Y5507282D01*
Y5505327D01*
Y5503372D01*
Y5501418D01*
Y5499463D01*
Y5497508D01*
Y5495554D01*
Y5493599D01*
Y5491645D01*
Y5489690D01*
Y5487735D01*
Y5485780D01*
X1547166D01*
Y5487735D01*
Y5489690D01*
Y5491645D01*
Y5493599D01*
Y5495554D01*
Y5497508D01*
Y5499463D01*
Y5501418D01*
Y5503372D01*
Y5505327D01*
Y5507282D01*
Y5509236D01*
Y5511191D01*
Y5513145D01*
Y5515100D01*
Y5517055D01*
Y5519010D01*
Y5520964D01*
X1576486D01*
Y5519010D01*
D02*
G37*
G36*
X1332157D02*
Y5517055D01*
X1330202D01*
Y5515100D01*
X1328247D01*
Y5513145D01*
X1326292D01*
Y5511191D01*
X1324338D01*
Y5509236D01*
X1322383D01*
Y5507282D01*
X1320429D01*
Y5505327D01*
Y5503372D01*
X1318474D01*
Y5501418D01*
X1316520D01*
Y5499463D01*
X1314565D01*
Y5497508D01*
X1312610D01*
Y5495554D01*
X1310655D01*
Y5493599D01*
X1308701D01*
Y5491645D01*
Y5489690D01*
X1306746D01*
Y5487735D01*
X1304792D01*
Y5485780D01*
X1302837D01*
Y5483826D01*
X1300883D01*
Y5481871D01*
X1298928D01*
Y5479917D01*
X1296973D01*
Y5477962D01*
Y5476008D01*
X1295018D01*
Y5474053D01*
X1293064D01*
Y5472098D01*
X1291109D01*
Y5470143D01*
X1289155D01*
Y5468189D01*
X1287200D01*
Y5466234D01*
X1285245D01*
Y5464280D01*
Y5462325D01*
X1283291D01*
Y5460370D01*
X1281336D01*
Y5458416D01*
X1279381D01*
Y5456461D01*
Y5454506D01*
Y5452552D01*
Y5450597D01*
Y5448642D01*
Y5446688D01*
Y5444733D01*
Y5442779D01*
Y5440824D01*
Y5438869D01*
Y5436915D01*
Y5434960D01*
Y5433005D01*
Y5431051D01*
Y5429096D01*
Y5427142D01*
Y5425187D01*
Y5423232D01*
X1248107D01*
Y5425187D01*
Y5427142D01*
Y5429096D01*
Y5431051D01*
Y5433005D01*
Y5434960D01*
Y5436915D01*
Y5438869D01*
Y5440824D01*
Y5442779D01*
Y5444733D01*
Y5446688D01*
Y5448642D01*
Y5450597D01*
Y5452552D01*
Y5454506D01*
Y5456461D01*
Y5458416D01*
X1246152D01*
Y5460370D01*
X1244198D01*
Y5462325D01*
X1242243D01*
Y5464280D01*
X1240289D01*
Y5466234D01*
X1238334D01*
Y5468189D01*
Y5470143D01*
X1236380D01*
Y5472098D01*
X1234425D01*
Y5474053D01*
X1232470D01*
Y5476008D01*
X1230515D01*
Y5477962D01*
X1228561D01*
Y5479917D01*
Y5481871D01*
X1224652D01*
Y5483826D01*
X1222697D01*
Y5485780D01*
Y5487735D01*
X1220743D01*
Y5489690D01*
X1218788D01*
Y5491645D01*
X1216833D01*
Y5493599D01*
X1214878D01*
Y5495554D01*
X1212924D01*
Y5497508D01*
Y5499463D01*
X1209015D01*
Y5501418D01*
X1207060D01*
Y5503372D01*
Y5505327D01*
X1205105D01*
Y5507282D01*
X1203151D01*
Y5509236D01*
X1201196D01*
Y5511191D01*
X1199241D01*
Y5513145D01*
X1197287D01*
Y5515100D01*
X1195332D01*
Y5517055D01*
X1193378D01*
Y5519010D01*
X1191423D01*
Y5520964D01*
X1230515D01*
Y5519010D01*
X1232470D01*
Y5517055D01*
X1234425D01*
Y5515100D01*
X1236380D01*
Y5513145D01*
X1238334D01*
Y5511191D01*
X1240289D01*
Y5509236D01*
X1242243D01*
Y5507282D01*
Y5505327D01*
X1244198D01*
Y5503372D01*
X1246152D01*
Y5501418D01*
X1248107D01*
Y5499463D01*
X1250062D01*
Y5497508D01*
X1252017D01*
Y5495554D01*
Y5493599D01*
X1255926D01*
Y5491645D01*
X1257880D01*
Y5489690D01*
Y5487735D01*
X1259835D01*
Y5485780D01*
X1261790D01*
Y5483826D01*
X1265699D01*
Y5485780D01*
X1267654D01*
Y5487735D01*
X1269608D01*
Y5489690D01*
X1271563D01*
Y5491645D01*
Y5493599D01*
X1273517D01*
Y5495554D01*
X1275472D01*
Y5497508D01*
X1277427D01*
Y5499463D01*
X1279381D01*
Y5501418D01*
X1281336D01*
Y5503372D01*
X1283291D01*
Y5505327D01*
Y5507282D01*
X1287200D01*
Y5509236D01*
Y5511191D01*
X1289155D01*
Y5513145D01*
X1291109D01*
Y5515100D01*
X1293064D01*
Y5517055D01*
X1295018D01*
Y5519010D01*
Y5520964D01*
X1332157D01*
Y5519010D01*
D02*
G37*
G36*
X1926365D02*
X1934184D01*
Y5517055D01*
X1940048D01*
Y5515100D01*
X1943957D01*
Y5513145D01*
X1945912D01*
Y5511191D01*
X1949821D01*
Y5509236D01*
X1951776D01*
Y5507282D01*
X1953730D01*
Y5505327D01*
X1955685D01*
Y5503372D01*
X1957639D01*
Y5501418D01*
Y5499463D01*
X1959594D01*
Y5497508D01*
Y5495554D01*
X1961549D01*
Y5493599D01*
X1963503D01*
Y5491645D01*
Y5489690D01*
Y5487735D01*
Y5485780D01*
X1965458D01*
Y5483826D01*
Y5481871D01*
Y5479917D01*
X1967413D01*
Y5477962D01*
Y5476008D01*
Y5474053D01*
Y5472098D01*
Y5470143D01*
Y5468189D01*
Y5466234D01*
Y5464280D01*
X1965458D01*
Y5462325D01*
Y5460370D01*
Y5458416D01*
Y5456461D01*
X1963503D01*
Y5454506D01*
Y5452552D01*
Y5450597D01*
X1961549D01*
Y5448642D01*
X1959594D01*
Y5446688D01*
Y5444733D01*
X1957639D01*
Y5442779D01*
Y5440824D01*
X1955685D01*
Y5438869D01*
X1953730D01*
Y5436915D01*
X1951776D01*
Y5434960D01*
X1949821D01*
Y5433005D01*
X1945912D01*
Y5431051D01*
X1943957D01*
Y5429096D01*
X1940048D01*
Y5427142D01*
X1934184D01*
Y5425187D01*
X1928320D01*
Y5423232D01*
X1859908D01*
Y5425187D01*
X1854044D01*
Y5427142D01*
X1848180D01*
Y5429096D01*
X1844271D01*
Y5431051D01*
X1840361D01*
Y5433005D01*
X1838407D01*
Y5434960D01*
X1836452D01*
Y5436915D01*
X1834497D01*
Y5438869D01*
X1832543D01*
Y5440824D01*
X1830588D01*
Y5442779D01*
X1828634D01*
Y5444733D01*
Y5446688D01*
X1826679D01*
Y5448642D01*
Y5450597D01*
X1824724D01*
Y5452552D01*
Y5454506D01*
Y5456461D01*
X1822770D01*
Y5458416D01*
Y5460370D01*
Y5462325D01*
Y5464280D01*
X1820815D01*
Y5466234D01*
X1822770D01*
Y5468189D01*
Y5470143D01*
X1820815D01*
Y5472098D01*
Y5474053D01*
X1822770D01*
Y5476008D01*
Y5477962D01*
X1820815D01*
Y5479917D01*
X1822770D01*
Y5481871D01*
Y5483826D01*
Y5485780D01*
Y5487735D01*
X1824724D01*
Y5489690D01*
Y5491645D01*
Y5493599D01*
X1826679D01*
Y5495554D01*
Y5497508D01*
X1828634D01*
Y5499463D01*
X1830588D01*
Y5501418D01*
Y5503372D01*
X1832543D01*
Y5505327D01*
X1834497D01*
Y5507282D01*
X1836452D01*
Y5509236D01*
X1838407D01*
Y5511191D01*
X1842316D01*
Y5513145D01*
X1844271D01*
Y5515100D01*
X1848180D01*
Y5517055D01*
X1854044D01*
Y5519010D01*
X1861862D01*
Y5520964D01*
X1926365D01*
Y5519010D01*
D02*
G37*
G36*
X1785632D02*
X1791496D01*
Y5517055D01*
X1795405D01*
Y5515100D01*
X1799314D01*
Y5513145D01*
X1801269D01*
Y5511191D01*
X1803223D01*
Y5509236D01*
X1805178D01*
Y5507282D01*
X1807133D01*
Y5505327D01*
Y5503372D01*
X1809087D01*
Y5501418D01*
X1811042D01*
Y5499463D01*
Y5497508D01*
Y5495554D01*
Y5493599D01*
X1812997D01*
Y5491645D01*
Y5489690D01*
Y5487735D01*
Y5485780D01*
Y5483826D01*
Y5481871D01*
Y5479917D01*
Y5477962D01*
Y5476008D01*
Y5474053D01*
X1811042D01*
Y5472098D01*
Y5470143D01*
Y5468189D01*
X1809087D01*
Y5466234D01*
Y5464280D01*
X1807133D01*
Y5462325D01*
X1805178D01*
Y5460370D01*
X1803223D01*
Y5458416D01*
X1801269D01*
Y5456461D01*
X1799314D01*
Y5454506D01*
X1797360D01*
Y5452552D01*
X1795405D01*
Y5450597D01*
X1797360D01*
Y5448642D01*
X1799314D01*
Y5446688D01*
X1801269D01*
Y5444733D01*
X1803223D01*
Y5442779D01*
X1805178D01*
Y5440824D01*
X1807133D01*
Y5438869D01*
X1809087D01*
Y5436915D01*
X1811042D01*
Y5434960D01*
X1812997D01*
Y5433005D01*
X1814951D01*
Y5431051D01*
X1816906D01*
Y5429096D01*
X1818860D01*
Y5427142D01*
Y5425187D01*
X1820815D01*
Y5423232D01*
X1777813D01*
Y5425187D01*
X1775859D01*
Y5427142D01*
X1773904D01*
Y5429096D01*
X1771949D01*
Y5431051D01*
Y5433005D01*
X1769994D01*
Y5434960D01*
X1768040D01*
Y5436915D01*
X1766085D01*
Y5438869D01*
X1764131D01*
Y5440824D01*
X1762176D01*
Y5442779D01*
X1760222D01*
Y5444733D01*
Y5446688D01*
X1758267D01*
Y5448642D01*
X1717220D01*
Y5446688D01*
Y5444733D01*
Y5442779D01*
Y5440824D01*
Y5438869D01*
Y5436915D01*
Y5434960D01*
Y5433005D01*
Y5431051D01*
Y5429096D01*
Y5427142D01*
Y5425187D01*
Y5423232D01*
X1687900D01*
Y5425187D01*
Y5427142D01*
Y5429096D01*
Y5431051D01*
Y5433005D01*
Y5434960D01*
Y5436915D01*
Y5438869D01*
Y5440824D01*
Y5442779D01*
Y5444733D01*
Y5446688D01*
Y5448642D01*
Y5450597D01*
Y5452552D01*
Y5454506D01*
Y5456461D01*
Y5458416D01*
Y5460370D01*
Y5462325D01*
Y5464280D01*
Y5466234D01*
Y5468189D01*
Y5470143D01*
Y5472098D01*
X1775859D01*
Y5474053D01*
X1777813D01*
Y5476008D01*
X1781722D01*
Y5477962D01*
Y5479917D01*
X1783677D01*
Y5481871D01*
Y5483826D01*
Y5485780D01*
Y5487735D01*
Y5489690D01*
X1781722D01*
Y5491645D01*
X1779768D01*
Y5493599D01*
X1777813D01*
Y5495554D01*
X1687900D01*
Y5497508D01*
X1689855D01*
Y5499463D01*
X1691809D01*
Y5501418D01*
Y5503372D01*
X1693764D01*
Y5505327D01*
X1695718D01*
Y5507282D01*
X1697673D01*
Y5509236D01*
Y5511191D01*
X1699628D01*
Y5513145D01*
X1701583D01*
Y5515100D01*
Y5517055D01*
X1703537D01*
Y5519010D01*
X1705492D01*
Y5520964D01*
X1785632D01*
Y5519010D01*
D02*
G37*
G36*
X1685945D02*
X1683991D01*
Y5517055D01*
Y5515100D01*
X1682036D01*
Y5513145D01*
X1680081D01*
Y5511191D01*
Y5509236D01*
X1678127D01*
Y5507282D01*
X1676172D01*
Y5505327D01*
Y5503372D01*
X1674217D01*
Y5501418D01*
X1672263D01*
Y5499463D01*
Y5497508D01*
X1619488D01*
Y5495554D01*
Y5493599D01*
Y5491645D01*
Y5489690D01*
Y5487735D01*
Y5485780D01*
Y5483826D01*
X1664444D01*
Y5481871D01*
X1662490D01*
Y5479917D01*
Y5477962D01*
X1660535D01*
Y5476008D01*
X1658580D01*
Y5474053D01*
Y5472098D01*
X1656626D01*
Y5470143D01*
X1654671D01*
Y5468189D01*
Y5466234D01*
X1652717D01*
Y5464280D01*
X1650762D01*
Y5462325D01*
Y5460370D01*
X1621443D01*
Y5458416D01*
X1619488D01*
Y5456461D01*
Y5454506D01*
Y5452552D01*
Y5450597D01*
Y5448642D01*
Y5446688D01*
X1676172D01*
Y5444733D01*
Y5442779D01*
Y5440824D01*
Y5438869D01*
Y5436915D01*
Y5434960D01*
Y5433005D01*
Y5431051D01*
Y5429096D01*
Y5427142D01*
Y5425187D01*
Y5423232D01*
X1590168D01*
Y5425187D01*
Y5427142D01*
Y5429096D01*
Y5431051D01*
Y5433005D01*
Y5434960D01*
Y5436915D01*
Y5438869D01*
Y5440824D01*
Y5442779D01*
Y5444733D01*
Y5446688D01*
Y5448642D01*
Y5450597D01*
Y5452552D01*
Y5454506D01*
Y5456461D01*
Y5458416D01*
Y5460370D01*
Y5462325D01*
Y5464280D01*
Y5466234D01*
Y5468189D01*
Y5470143D01*
Y5472098D01*
Y5474053D01*
Y5476008D01*
Y5477962D01*
Y5479917D01*
Y5481871D01*
Y5483826D01*
Y5485780D01*
Y5487735D01*
Y5489690D01*
Y5491645D01*
Y5493599D01*
Y5495554D01*
Y5497508D01*
Y5499463D01*
Y5501418D01*
Y5503372D01*
Y5505327D01*
Y5507282D01*
Y5509236D01*
Y5511191D01*
Y5513145D01*
Y5515100D01*
Y5517055D01*
Y5519010D01*
Y5520964D01*
X1685945D01*
Y5519010D01*
D02*
G37*
G36*
X1422070D02*
X1427934D01*
Y5517055D01*
X1431843D01*
Y5515100D01*
X1435752D01*
Y5513145D01*
X1437707D01*
Y5511191D01*
X1439661D01*
Y5509236D01*
X1441616D01*
Y5507282D01*
X1443571D01*
Y5505327D01*
X1445525D01*
Y5503372D01*
Y5501418D01*
Y5499463D01*
X1447480D01*
Y5497508D01*
Y5495554D01*
X1449434D01*
Y5493599D01*
Y5491645D01*
Y5489690D01*
Y5487735D01*
Y5485780D01*
Y5483826D01*
Y5481871D01*
Y5479917D01*
Y5477962D01*
Y5476008D01*
Y5474053D01*
X1447480D01*
Y5472098D01*
Y5470143D01*
Y5468189D01*
X1445525D01*
Y5466234D01*
Y5464280D01*
X1443571D01*
Y5462325D01*
X1441616D01*
Y5460370D01*
X1439661D01*
Y5458416D01*
X1437707D01*
Y5456461D01*
X1435752D01*
Y5454506D01*
X1433797D01*
Y5452552D01*
X1429888D01*
Y5450597D01*
X1424024D01*
Y5448642D01*
X1353657D01*
Y5446688D01*
Y5444733D01*
Y5442779D01*
Y5440824D01*
Y5438869D01*
Y5436915D01*
Y5434960D01*
Y5433005D01*
Y5431051D01*
Y5429096D01*
Y5427142D01*
Y5425187D01*
Y5423232D01*
X1324338D01*
Y5425187D01*
Y5427142D01*
Y5429096D01*
Y5431051D01*
Y5433005D01*
Y5434960D01*
Y5436915D01*
Y5438869D01*
Y5440824D01*
Y5442779D01*
Y5444733D01*
Y5446688D01*
Y5448642D01*
Y5450597D01*
Y5452552D01*
Y5454506D01*
Y5456461D01*
Y5458416D01*
Y5460370D01*
Y5462325D01*
Y5464280D01*
Y5466234D01*
Y5468189D01*
Y5470143D01*
Y5472098D01*
X1412297D01*
Y5474053D01*
X1414251D01*
Y5476008D01*
X1418160D01*
Y5477962D01*
Y5479917D01*
X1420115D01*
Y5481871D01*
Y5483826D01*
Y5485780D01*
Y5487735D01*
Y5489690D01*
X1418160D01*
Y5491645D01*
X1416206D01*
Y5493599D01*
X1414251D01*
Y5495554D01*
X1324338D01*
Y5497508D01*
X1326292D01*
Y5499463D01*
X1328247D01*
Y5501418D01*
X1330202D01*
Y5503372D01*
X1332157D01*
Y5505327D01*
Y5507282D01*
X1334111D01*
Y5509236D01*
X1336066D01*
Y5511191D01*
X1338020D01*
Y5513145D01*
X1339975D01*
Y5515100D01*
X1341930D01*
Y5517055D01*
Y5519010D01*
X1343884D01*
Y5520964D01*
X1422070D01*
Y5519010D01*
D02*
G37*
G36*
X2098373D02*
X2096418D01*
Y5517055D01*
X2094464D01*
Y5515100D01*
X2092509D01*
Y5513145D01*
Y5511191D01*
X2090555D01*
Y5509236D01*
Y5507282D01*
X2088600D01*
Y5505327D01*
X2086645D01*
Y5503372D01*
X2084691D01*
Y5501418D01*
Y5499463D01*
X2082736D01*
Y5497508D01*
X2080781D01*
Y5495554D01*
X2022143D01*
Y5493599D01*
X2016278D01*
Y5491645D01*
X2014324D01*
Y5489690D01*
X2010415D01*
Y5487735D01*
Y5485780D01*
X2008460D01*
Y5483826D01*
X2006505D01*
Y5481871D01*
Y5479917D01*
X2004551D01*
Y5477962D01*
Y5476008D01*
Y5474053D01*
Y5472098D01*
Y5470143D01*
Y5468189D01*
Y5466234D01*
Y5464280D01*
Y5462325D01*
X2006505D01*
Y5460370D01*
Y5458416D01*
X2008460D01*
Y5456461D01*
X2010415D01*
Y5454506D01*
X2012369D01*
Y5452552D01*
X2014324D01*
Y5450597D01*
X2018233D01*
Y5448642D01*
X2022143D01*
Y5446688D01*
X2096418D01*
Y5444733D01*
X2094464D01*
Y5442779D01*
Y5440824D01*
X2092509D01*
Y5438869D01*
X2090555D01*
Y5436915D01*
Y5434960D01*
X2088600D01*
Y5433005D01*
X2086645D01*
Y5431051D01*
X2084691D01*
Y5429096D01*
Y5427142D01*
X2082736D01*
Y5425187D01*
Y5423232D01*
X2080781D01*
Y5421278D01*
X2020188D01*
Y5423232D01*
X2012369D01*
Y5425187D01*
X2006505D01*
Y5427142D01*
X2000641D01*
Y5429096D01*
X1998687D01*
Y5431051D01*
X1994778D01*
Y5433005D01*
X1992823D01*
Y5434960D01*
X1990868D01*
Y5436915D01*
X1988914D01*
Y5438869D01*
X1986959D01*
Y5440824D01*
X1985004D01*
Y5442779D01*
Y5444733D01*
X1983050D01*
Y5446688D01*
X1981095D01*
Y5448642D01*
Y5450597D01*
X1979140D01*
Y5452552D01*
Y5454506D01*
Y5456461D01*
Y5458416D01*
X1977186D01*
Y5460370D01*
Y5462325D01*
Y5464280D01*
X1975231D01*
Y5466234D01*
Y5468189D01*
Y5470143D01*
Y5472098D01*
Y5474053D01*
Y5476008D01*
Y5477962D01*
X1977186D01*
Y5479917D01*
Y5481871D01*
Y5483826D01*
Y5485780D01*
X1979140D01*
Y5487735D01*
Y5489690D01*
Y5491645D01*
Y5493599D01*
X1981095D01*
Y5495554D01*
X1983050D01*
Y5497508D01*
Y5499463D01*
X1985004D01*
Y5501418D01*
X1986959D01*
Y5503372D01*
Y5505327D01*
X1988914D01*
Y5507282D01*
X1990868D01*
Y5509236D01*
X1994778D01*
Y5511191D01*
X1996732D01*
Y5513145D01*
X1998687D01*
Y5515100D01*
X2002596D01*
Y5517055D01*
X2008460D01*
Y5519010D01*
X2016278D01*
Y5520964D01*
X2098373D01*
Y5519010D01*
D02*
G37*
G36*
X1179695D02*
X1177740D01*
Y5517055D01*
X1175786D01*
Y5515100D01*
Y5513145D01*
X1173831D01*
Y5511191D01*
Y5509236D01*
X1171876D01*
Y5507282D01*
X1169922D01*
Y5505327D01*
X1167967D01*
Y5503372D01*
Y5501418D01*
X1166013D01*
Y5499463D01*
Y5497508D01*
X1164058D01*
Y5495554D01*
X1103464D01*
Y5493599D01*
X1099555D01*
Y5491645D01*
X1095646D01*
Y5489690D01*
X1093691D01*
Y5487735D01*
X1091736D01*
Y5485780D01*
X1089782D01*
Y5483826D01*
Y5481871D01*
X1087827D01*
Y5479917D01*
Y5477962D01*
Y5476008D01*
Y5474053D01*
X1085873D01*
Y5472098D01*
Y5470143D01*
Y5468189D01*
X1087827D01*
Y5466234D01*
Y5464280D01*
Y5462325D01*
Y5460370D01*
X1089782D01*
Y5458416D01*
Y5456461D01*
X1091736D01*
Y5454506D01*
X1093691D01*
Y5452552D01*
X1097601D01*
Y5450597D01*
X1099555D01*
Y5448642D01*
X1105419D01*
Y5446688D01*
X1177740D01*
Y5444733D01*
Y5442779D01*
X1175786D01*
Y5440824D01*
X1173831D01*
Y5438869D01*
Y5436915D01*
X1171876D01*
Y5434960D01*
X1169922D01*
Y5433005D01*
Y5431051D01*
X1167967D01*
Y5429096D01*
X1166013D01*
Y5427142D01*
Y5425187D01*
X1164058D01*
Y5423232D01*
X1162103D01*
Y5421278D01*
X1101510D01*
Y5423232D01*
X1093691D01*
Y5425187D01*
X1087827D01*
Y5427142D01*
X1083918D01*
Y5429096D01*
X1080009D01*
Y5431051D01*
X1078054D01*
Y5433005D01*
X1074145D01*
Y5434960D01*
X1072190D01*
Y5436915D01*
X1070236D01*
Y5438869D01*
X1068281D01*
Y5440824D01*
Y5442779D01*
X1066326D01*
Y5444733D01*
X1064372D01*
Y5446688D01*
Y5448642D01*
X1062417D01*
Y5450597D01*
Y5452552D01*
X1060462D01*
Y5454506D01*
Y5456461D01*
Y5458416D01*
X1058508D01*
Y5460370D01*
Y5462325D01*
Y5464280D01*
Y5466234D01*
Y5468189D01*
X1056553D01*
Y5470143D01*
Y5472098D01*
Y5474053D01*
Y5476008D01*
X1058508D01*
Y5477962D01*
Y5479917D01*
Y5481871D01*
Y5483826D01*
X1060462D01*
Y5485780D01*
Y5487735D01*
Y5489690D01*
X1062417D01*
Y5491645D01*
Y5493599D01*
Y5495554D01*
X1064372D01*
Y5497508D01*
X1066326D01*
Y5499463D01*
Y5501418D01*
X1068281D01*
Y5503372D01*
X1070236D01*
Y5505327D01*
X1072190D01*
Y5507282D01*
X1074145D01*
Y5509236D01*
X1076099D01*
Y5511191D01*
X1078054D01*
Y5513145D01*
X1081963D01*
Y5515100D01*
X1083918D01*
Y5517055D01*
X1091736D01*
Y5519010D01*
X1097601D01*
Y5520964D01*
X1179695D01*
Y5519010D01*
D02*
G37*
%LPC*%
G36*
X1918547Y5495554D02*
X1869681D01*
Y5493599D01*
X1865772D01*
Y5491645D01*
X1861862D01*
Y5489690D01*
X1859908D01*
Y5487735D01*
X1857953D01*
Y5485780D01*
X1855999D01*
Y5483826D01*
Y5481871D01*
X1854044D01*
Y5479917D01*
Y5477962D01*
X1852089D01*
Y5476008D01*
Y5474053D01*
Y5472098D01*
Y5470143D01*
Y5468189D01*
Y5466234D01*
Y5464280D01*
X1854044D01*
Y5462325D01*
Y5460370D01*
X1855999D01*
Y5458416D01*
X1857953D01*
Y5456461D01*
X1859908D01*
Y5454506D01*
X1861862D01*
Y5452552D01*
X1863817D01*
Y5450597D01*
X1867726D01*
Y5448642D01*
X1920501D01*
Y5450597D01*
X1924411D01*
Y5452552D01*
X1926365D01*
Y5454506D01*
X1930275D01*
Y5456461D01*
Y5458416D01*
X1932229D01*
Y5460370D01*
X1934184D01*
Y5462325D01*
Y5464280D01*
Y5466234D01*
X1936138D01*
Y5468189D01*
Y5470143D01*
Y5472098D01*
Y5474053D01*
Y5476008D01*
Y5477962D01*
X1934184D01*
Y5479917D01*
Y5481871D01*
Y5483826D01*
X1932229D01*
Y5485780D01*
X1930275D01*
Y5487735D01*
X1928320D01*
Y5489690D01*
X1926365D01*
Y5491645D01*
X1922456D01*
Y5493599D01*
X1918547D01*
Y5495554D01*
D02*
G37*
%LPD*%
D24*
X579000Y2368000D02*
G03*
X579000Y2368000I-10000J0D01*
G01*
X2741000Y6532000D02*
G03*
X2741000Y6532000I-10000J0D01*
G01*
X137000Y5581000D02*
G03*
X137000Y5581000I-10000J0D01*
G01*
X3183000Y3419000D02*
G03*
X3183000Y3419000I-10000J0D01*
G01*
X1185000Y4965000D02*
X2115000D01*
Y4035000D02*
Y4965000D01*
X1185000Y4035000D02*
X2115000D01*
X1185000D02*
Y4965000D01*
D25*
X1040000Y4950000D02*
G03*
X1040000Y4950000I-12500J0D01*
G01*
D26*
X2445625Y5220250D02*
X2475625D01*
X2445625Y5130250D02*
X2475625D01*
X2653750Y1524875D02*
Y1554875D01*
X2743750Y1524875D02*
Y1554875D01*
X590000Y1524875D02*
Y1554875D01*
X680000Y1524875D02*
Y1554875D01*
X634000Y2253500D02*
Y2736500D01*
X2666000Y2253500D02*
Y2736500D01*
X634000D02*
X2666000D01*
X634000Y2253500D02*
X2666000D01*
Y6163500D02*
Y6646500D01*
X634000Y6163500D02*
Y6646500D01*
Y6163500D02*
X2666000D01*
X634000Y6646500D02*
X2666000D01*
X12500Y5516000D02*
X495500D01*
X12500Y3484000D02*
X495500D01*
Y5516000D01*
X12500Y3484000D02*
Y5516000D01*
X2804500Y3484000D02*
X3287500D01*
X2804500Y5516000D02*
X3287500D01*
X2804500Y3484000D02*
Y5516000D01*
X3287500Y3484000D02*
Y5516000D01*
X1080000Y1854250D02*
X2220000D01*
X1080000Y1384250D02*
X2220000D01*
D27*
X2460625Y4987908D02*
X2435233Y5013300D01*
X2384450D01*
X2359058Y4987908D01*
Y4886342D01*
X2384450Y4860950D01*
X2435233D01*
X2460625Y4886342D01*
X2511409Y4860950D02*
X2562192D01*
X2536801D01*
Y5013300D01*
X2511409Y4987908D01*
X625483Y1939908D02*
X600092Y1965300D01*
X549308D01*
X523916Y1939908D01*
Y1838342D01*
X549308Y1812950D01*
X600092D01*
X625483Y1838342D01*
X676267Y1939908D02*
X701659Y1965300D01*
X752442D01*
X777834Y1939908D01*
Y1914517D01*
X752442Y1889125D01*
X727050D01*
X752442D01*
X777834Y1863733D01*
Y1838342D01*
X752442Y1812950D01*
X701659D01*
X676267Y1838342D01*
X2720983Y1939908D02*
X2695592Y1965300D01*
X2644808D01*
X2619416Y1939908D01*
Y1838342D01*
X2644808Y1812950D01*
X2695592D01*
X2720983Y1838342D01*
X2873334Y1812950D02*
X2771767D01*
X2873334Y1914517D01*
Y1939908D01*
X2847942Y1965300D01*
X2797159D01*
X2771767Y1939908D01*
X1577983Y3013050D02*
X1527200D01*
X1552592D01*
Y2886092D01*
X1527200Y2860700D01*
X1501808D01*
X1476416Y2886092D01*
X1730334Y3013050D02*
X1679550Y2987658D01*
X1628767Y2936875D01*
Y2886092D01*
X1654159Y2860700D01*
X1704942D01*
X1730334Y2886092D01*
Y2911483D01*
X1704942Y2936875D01*
X1628767D01*
X2959108Y5775300D02*
X2908325D01*
X2933717D01*
Y5648342D01*
X2908325Y5622950D01*
X2882933D01*
X2857541Y5648342D01*
X3111459Y5775300D02*
X3009892D01*
Y5699125D01*
X3060675Y5724517D01*
X3086067D01*
X3111459Y5699125D01*
Y5648342D01*
X3086067Y5622950D01*
X3035284D01*
X3009892Y5648342D01*
X228608Y5870550D02*
X177825D01*
X203217D01*
Y5743592D01*
X177825Y5718200D01*
X152433D01*
X127041Y5743592D01*
X355567Y5718200D02*
Y5870550D01*
X279392Y5794375D01*
X380959D01*
X1597058Y1235050D02*
Y1209658D01*
X1647842Y1158875D01*
X1698625Y1209658D01*
Y1235050D01*
X1647842Y1158875D02*
Y1082700D01*
X1749409D02*
X1800192D01*
X1774801D01*
Y1235050D01*
X1749409Y1209658D01*
X323858Y6489675D02*
X273075D01*
X298467D01*
Y6362717D01*
X273075Y6337325D01*
X247683D01*
X222291Y6362717D01*
X374642Y6464283D02*
X400034Y6489675D01*
X450817D01*
X476209Y6464283D01*
Y6438892D01*
X450817Y6413500D01*
X425425D01*
X450817D01*
X476209Y6388108D01*
Y6362717D01*
X450817Y6337325D01*
X400034D01*
X374642Y6362717D01*
X1533558Y3743300D02*
Y3616342D01*
X1558950Y3590950D01*
X1609733D01*
X1635125Y3616342D01*
Y3743300D01*
X1685909Y3590950D02*
X1736692D01*
X1711301D01*
Y3743300D01*
X1685909Y3717908D01*
%TF.MD5,a661c338de59bcd7db04968c6475b4dc*%
M02*
