%TF.GenerationSoftware,Altium Limited,Altium Designer,23.4.1 (23)*%
G04 Layer_Color=0*
%FSLAX45Y45*%
%MOMM*%
%TF.SameCoordinates,2443AD3D-16DC-45C5-9BCC-0FA72C26467A*%
%TF.FilePolarity,Positive*%
%TF.FileFunction,Plated,1,2,PTH,Drill*%
%TF.Part,Single*%
G01*
G75*
%TA.AperFunction,ComponentDrill*%
%ADD45C,1.10000*%
%TA.AperFunction,OtherDrill,Pad Free-17 (25.559mm,69.215mm)*%
%ADD46C,0.76200*%
%TA.AperFunction,OtherDrill,Pad Free-17 (23.019mm,69.215mm)*%
%ADD47C,0.76200*%
%TA.AperFunction,OtherDrill,Pad Free-17 (28.099mm,69.215mm)*%
%ADD48C,0.76200*%
%TA.AperFunction,OtherDrill,Pad Free-17 (30.639mm,69.215mm)*%
%ADD49C,0.76200*%
%TA.AperFunction,OtherDrill,Pad Free-17 (15.399mm,69.215mm)*%
%ADD50C,0.76200*%
%TA.AperFunction,OtherDrill,Pad Free-17 (17.939mm,69.215mm)*%
%ADD51C,0.76200*%
%TA.AperFunction,OtherDrill,Pad Free-17 (20.479mm,69.215mm)*%
%ADD52C,0.76200*%
%TA.AperFunction,OtherDrill,Pad Free-17 (12.859mm,69.215mm)*%
%ADD53C,0.76200*%
%TA.AperFunction,OtherDrill,Pad Free-17 (7.779mm,69.215mm)*%
%ADD54C,0.76200*%
%TA.AperFunction,OtherDrill,Pad Free-17 (5.239mm,69.215mm)*%
%ADD55C,0.76200*%
%TA.AperFunction,OtherDrill,Pad Free-17 (10.319mm,69.215mm)*%
%ADD56C,0.76200*%
%TA.AperFunction,OtherDrill,Pad Free-17 (2.699mm,69.215mm)*%
%ADD57C,0.76200*%
%TA.AperFunction,OtherDrill,Pad Free-17 (25.559mm,71.755mm)*%
%ADD58C,0.76200*%
%TA.AperFunction,OtherDrill,Pad Free-17 (23.019mm,71.755mm)*%
%ADD59C,0.76200*%
%TA.AperFunction,OtherDrill,Pad Free-17 (28.099mm,71.755mm)*%
%ADD60C,0.76200*%
%TA.AperFunction,OtherDrill,Pad Free-17 (30.639mm,71.755mm)*%
%ADD61C,0.76200*%
%TA.AperFunction,OtherDrill,Pad Free-17 (15.399mm,71.755mm)*%
%ADD62C,0.76200*%
%TA.AperFunction,OtherDrill,Pad Free-17 (17.939mm,71.755mm)*%
%ADD63C,0.76200*%
%TA.AperFunction,OtherDrill,Pad Free-17 (20.479mm,71.755mm)*%
%ADD64C,0.76200*%
%TA.AperFunction,OtherDrill,Pad Free-17 (12.859mm,71.755mm)*%
%ADD65C,0.76200*%
%TA.AperFunction,OtherDrill,Pad Free-17 (7.779mm,71.755mm)*%
%ADD66C,0.76200*%
%TA.AperFunction,OtherDrill,Pad Free-17 (5.239mm,71.755mm)*%
%ADD67C,0.76200*%
%TA.AperFunction,OtherDrill,Pad Free-17 (10.319mm,71.755mm)*%
%ADD68C,0.76200*%
%TA.AperFunction,OtherDrill,Pad Free-17 (2.699mm,71.755mm)*%
%ADD69C,0.76200*%
%TA.AperFunction,ComponentDrill*%
%ADD70C,1.10000*%
%TA.AperFunction,OtherDrill,Pad Free-17 (2.699mm,74.295mm)*%
%ADD71C,0.76200*%
%TA.AperFunction,OtherDrill,Pad Free-17 (10.319mm,74.295mm)*%
%ADD72C,0.76200*%
%TA.AperFunction,OtherDrill,Pad Free-17 (5.239mm,74.295mm)*%
%ADD73C,0.76200*%
%TA.AperFunction,OtherDrill,Pad Free-17 (7.779mm,74.295mm)*%
%ADD74C,0.76200*%
%TA.AperFunction,OtherDrill,Pad Free-17 (12.859mm,74.295mm)*%
%ADD75C,0.76200*%
%TA.AperFunction,OtherDrill,Pad Free-17 (20.479mm,74.295mm)*%
%ADD76C,0.76200*%
%TA.AperFunction,OtherDrill,Pad Free-17 (17.939mm,74.295mm)*%
%ADD77C,0.76200*%
%TA.AperFunction,OtherDrill,Pad Free-17 (15.399mm,74.295mm)*%
%ADD78C,0.76200*%
%TA.AperFunction,OtherDrill,Pad Free-17 (30.639mm,74.295mm)*%
%ADD79C,0.76200*%
%TA.AperFunction,OtherDrill,Pad Free-17 (28.099mm,74.295mm)*%
%ADD80C,0.76200*%
%TA.AperFunction,OtherDrill,Pad Free-17 (23.019mm,74.295mm)*%
%ADD81C,0.76200*%
%TA.AperFunction,OtherDrill,Pad Free-17 (25.559mm,74.295mm)*%
%ADD82C,0.76200*%
%TA.AperFunction,OtherDrill,Pad Free-17 (23.019mm,79.375mm)*%
%ADD83C,0.76200*%
%TA.AperFunction,OtherDrill,Pad Free-17 (23.019mm,76.835mm)*%
%ADD84C,0.76200*%
%TA.AperFunction,OtherDrill,Pad Free-17 (25.559mm,76.835mm)*%
%ADD85C,0.76200*%
%TA.AperFunction,OtherDrill,Pad Free-17 (25.559mm,79.375mm)*%
%ADD86C,0.76200*%
%TA.AperFunction,OtherDrill,Pad Free-17 (30.639mm,79.375mm)*%
%ADD87C,0.76200*%
%TA.AperFunction,OtherDrill,Pad Free-17 (30.639mm,76.835mm)*%
%ADD88C,0.76200*%
%TA.AperFunction,OtherDrill,Pad Free-17 (28.099mm,76.835mm)*%
%ADD89C,0.76200*%
%TA.AperFunction,OtherDrill,Pad Free-17 (28.099mm,79.375mm)*%
%ADD90C,0.76200*%
%TA.AperFunction,OtherDrill,Pad Free-17 (12.859mm,79.375mm)*%
%ADD91C,0.76200*%
%TA.AperFunction,OtherDrill,Pad Free-17 (12.859mm,76.835mm)*%
%ADD92C,0.76200*%
%TA.AperFunction,OtherDrill,Pad Free-17 (15.399mm,76.835mm)*%
%ADD93C,0.76200*%
%TA.AperFunction,OtherDrill,Pad Free-17 (15.399mm,79.375mm)*%
%ADD94C,0.76200*%
%TA.AperFunction,OtherDrill,Pad Free-17 (20.479mm,79.375mm)*%
%ADD95C,0.76200*%
%TA.AperFunction,OtherDrill,Pad Free-17 (20.479mm,76.835mm)*%
%ADD96C,0.76200*%
%TA.AperFunction,OtherDrill,Pad Free-17 (17.939mm,76.835mm)*%
%ADD97C,0.76200*%
%TA.AperFunction,OtherDrill,Pad Free-17 (17.939mm,79.375mm)*%
%ADD98C,0.76200*%
%TA.AperFunction,OtherDrill,Pad Free-17 (7.779mm,79.375mm)*%
%ADD99C,0.76200*%
%TA.AperFunction,OtherDrill,Pad Free-17 (7.779mm,76.835mm)*%
%ADD100C,0.76200*%
%TA.AperFunction,OtherDrill,Pad Free-17 (10.319mm,76.835mm)*%
%ADD101C,0.76200*%
%TA.AperFunction,OtherDrill,Pad Free-17 (10.319mm,79.375mm)*%
%ADD102C,0.76200*%
%TA.AperFunction,OtherDrill,Pad Free-17 (5.239mm,79.375mm)*%
%ADD103C,0.76200*%
%TA.AperFunction,OtherDrill,Pad Free-17 (5.239mm,76.835mm)*%
%ADD104C,0.76200*%
%TA.AperFunction,OtherDrill,Pad Free-17 (2.699mm,76.835mm)*%
%ADD105C,0.76200*%
%TA.AperFunction,OtherDrill,Pad Free-17 (2.699mm,79.375mm)*%
%ADD106C,0.76200*%
%TA.AperFunction,ComponentDrill*%
%ADD107C,1.04000*%
D45*
X761000Y2368000D02*
D03*
Y2622000D02*
D03*
X1015000Y2368000D02*
D03*
Y2622000D02*
D03*
X1269000Y2368000D02*
D03*
Y2622000D02*
D03*
X1523000Y2368000D02*
D03*
Y2622000D02*
D03*
X1777000Y2368000D02*
D03*
Y2622000D02*
D03*
X2031000Y2368000D02*
D03*
Y2622000D02*
D03*
X2285000Y2368000D02*
D03*
Y2622000D02*
D03*
X2539000Y2368000D02*
D03*
Y2622000D02*
D03*
Y6532000D02*
D03*
Y6278000D02*
D03*
X2285000Y6532000D02*
D03*
Y6278000D02*
D03*
X2031000Y6532000D02*
D03*
Y6278000D02*
D03*
X1777000Y6532000D02*
D03*
Y6278000D02*
D03*
X1523000Y6532000D02*
D03*
Y6278000D02*
D03*
X1269000Y6532000D02*
D03*
Y6278000D02*
D03*
X1015000Y6532000D02*
D03*
Y6278000D02*
D03*
X761000Y6532000D02*
D03*
Y6278000D02*
D03*
D46*
X2555875Y6921500D02*
D03*
D47*
X2301875D02*
D03*
D48*
X2809875D02*
D03*
D49*
X3063875D02*
D03*
D50*
X1539875D02*
D03*
D51*
X1793875D02*
D03*
D52*
X2047875D02*
D03*
D53*
X1285875D02*
D03*
D54*
X777875D02*
D03*
D55*
X523875D02*
D03*
D56*
X1031875D02*
D03*
D57*
X269875D02*
D03*
D58*
X2555875Y7175500D02*
D03*
D59*
X2301875D02*
D03*
D60*
X2809875D02*
D03*
D61*
X3063875D02*
D03*
D62*
X1539875D02*
D03*
D63*
X1793875D02*
D03*
D64*
X2047875D02*
D03*
D65*
X1285875D02*
D03*
D66*
X777875D02*
D03*
D67*
X523875D02*
D03*
D68*
X1031875D02*
D03*
D69*
X269875D02*
D03*
D70*
X127000Y5389000D02*
D03*
X381000D02*
D03*
X127000Y5135000D02*
D03*
X381000D02*
D03*
X127000Y4881000D02*
D03*
X381000D02*
D03*
X127000Y4627000D02*
D03*
X381000D02*
D03*
X127000Y4373000D02*
D03*
X381000D02*
D03*
X127000Y4119000D02*
D03*
X381000D02*
D03*
X127000Y3865000D02*
D03*
X381000D02*
D03*
X127000Y3611000D02*
D03*
X381000D02*
D03*
X3173000D02*
D03*
X2919000D02*
D03*
X3173000Y3865000D02*
D03*
X2919000D02*
D03*
X3173000Y4119000D02*
D03*
X2919000D02*
D03*
X3173000Y4373000D02*
D03*
X2919000D02*
D03*
X3173000Y4627000D02*
D03*
X2919000D02*
D03*
X3173000Y4881000D02*
D03*
X2919000D02*
D03*
X3173000Y5135000D02*
D03*
X2919000D02*
D03*
X3173000Y5389000D02*
D03*
X2919000D02*
D03*
D71*
X269875Y7429500D02*
D03*
D72*
X1031875D02*
D03*
D73*
X523875D02*
D03*
D74*
X777875D02*
D03*
D75*
X1285875D02*
D03*
D76*
X2047875D02*
D03*
D77*
X1793875D02*
D03*
D78*
X1539875D02*
D03*
D79*
X3063875D02*
D03*
D80*
X2809875D02*
D03*
D81*
X2301875D02*
D03*
D82*
X2555875D02*
D03*
D83*
X2301875Y7937500D02*
D03*
D84*
Y7683500D02*
D03*
D85*
X2555875D02*
D03*
D86*
Y7937500D02*
D03*
D87*
X3063875D02*
D03*
D88*
Y7683500D02*
D03*
D89*
X2809875D02*
D03*
D90*
Y7937500D02*
D03*
D91*
X1285875D02*
D03*
D92*
Y7683500D02*
D03*
D93*
X1539875D02*
D03*
D94*
Y7937500D02*
D03*
D95*
X2047875D02*
D03*
D96*
Y7683500D02*
D03*
D97*
X1793875D02*
D03*
D98*
Y7937500D02*
D03*
D99*
X777875D02*
D03*
D100*
Y7683500D02*
D03*
D101*
X1031875D02*
D03*
D102*
Y7937500D02*
D03*
D103*
X523875D02*
D03*
D104*
Y7683500D02*
D03*
D105*
X269875D02*
D03*
D106*
Y7937500D02*
D03*
D107*
X508000Y8238000D02*
D03*
Y8492000D02*
D03*
X762000Y8238000D02*
D03*
Y8492000D02*
D03*
X1016000Y8238000D02*
D03*
Y8492000D02*
D03*
X1270000Y8238000D02*
D03*
Y8492000D02*
D03*
X1524000Y8238000D02*
D03*
Y8492000D02*
D03*
X1778000Y8238000D02*
D03*
Y8492000D02*
D03*
X2032000Y8238000D02*
D03*
Y8492000D02*
D03*
X2286000Y8238000D02*
D03*
Y8492000D02*
D03*
X2540000Y8238000D02*
D03*
Y8492000D02*
D03*
X2794000Y8238000D02*
D03*
Y8492000D02*
D03*
X508000Y508000D02*
D03*
Y762000D02*
D03*
X762000Y508000D02*
D03*
Y762000D02*
D03*
X1016000Y508000D02*
D03*
Y762000D02*
D03*
X1270000Y508000D02*
D03*
Y762000D02*
D03*
X1524000Y508000D02*
D03*
Y762000D02*
D03*
X1778000Y508000D02*
D03*
Y762000D02*
D03*
X2032000Y508000D02*
D03*
Y762000D02*
D03*
X2286000Y508000D02*
D03*
Y762000D02*
D03*
X2540000Y508000D02*
D03*
Y762000D02*
D03*
X2794000Y508000D02*
D03*
Y762000D02*
D03*
%TF.MD5,90ac85d495032d5e30aa26281b95e390*%
M02*
