%TF.GenerationSoftware,Altium Limited,Altium Designer,23.4.1 (23)*%
G04 Layer_Color=255*
%FSLAX45Y45*%
%MOMM*%
%TF.SameCoordinates,2443AD3D-16DC-45C5-9BCC-0FA72C26467A*%
%TF.FilePolarity,Positive*%
%TF.FileFunction,Pads,Top*%
%TF.Part,Single*%
G01*
G75*
%TA.AperFunction,SMDPad,CuDef*%
%ADD10R,1.10000X1.00000*%
%ADD11R,1.00000X1.10000*%
%ADD12R,1.47500X0.30000*%
%ADD13R,0.30000X1.47500*%
%ADD14R,5.60000X2.10000*%
%TA.AperFunction,ComponentPad*%
%ADD17R,1.65000X1.65000*%
%ADD18C,1.65000*%
%TA.AperFunction,ViaPad*%
%ADD19R,2.00000X2.00000*%
%TA.AperFunction,ComponentPad*%
%ADD20R,1.65000X1.65000*%
%ADD21R,1.39000X1.39000*%
%ADD22C,1.39000*%
D10*
X2375625Y5175250D02*
D03*
X2545625D02*
D03*
D11*
X2698750Y1454875D02*
D03*
Y1624875D02*
D03*
X635000Y1454875D02*
D03*
Y1624875D02*
D03*
D12*
X1076200Y4875000D02*
D03*
Y4825000D02*
D03*
Y4775000D02*
D03*
Y4725000D02*
D03*
Y4675000D02*
D03*
Y4625000D02*
D03*
Y4575000D02*
D03*
Y4525000D02*
D03*
Y4475000D02*
D03*
Y4425000D02*
D03*
Y4375000D02*
D03*
Y4325000D02*
D03*
Y4275000D02*
D03*
Y4225000D02*
D03*
Y4175000D02*
D03*
Y4125000D02*
D03*
X2223800D02*
D03*
Y4175000D02*
D03*
Y4225000D02*
D03*
Y4275000D02*
D03*
Y4325000D02*
D03*
Y4375000D02*
D03*
Y4425000D02*
D03*
Y4475000D02*
D03*
Y4525000D02*
D03*
Y4575000D02*
D03*
Y4625000D02*
D03*
Y4675000D02*
D03*
Y4725000D02*
D03*
Y4775000D02*
D03*
Y4825000D02*
D03*
Y4875000D02*
D03*
D13*
X1275000Y3926200D02*
D03*
X1325000D02*
D03*
X1375000D02*
D03*
X1425000D02*
D03*
X1475000D02*
D03*
X1525000D02*
D03*
X1575000D02*
D03*
X1625000D02*
D03*
X1675000D02*
D03*
X1725000D02*
D03*
X1775000D02*
D03*
X1825000D02*
D03*
X1875000D02*
D03*
X1925000D02*
D03*
X1975000D02*
D03*
X2025000D02*
D03*
Y5073800D02*
D03*
X1975000D02*
D03*
X1925000D02*
D03*
X1875000D02*
D03*
X1825000D02*
D03*
X1775000D02*
D03*
X1725000D02*
D03*
X1675000D02*
D03*
X1625000D02*
D03*
X1575000D02*
D03*
X1525000D02*
D03*
X1475000D02*
D03*
X1425000D02*
D03*
X1375000D02*
D03*
X1325000D02*
D03*
X1275000D02*
D03*
D14*
X1175000Y1619250D02*
D03*
X2125000D02*
D03*
D17*
X761000Y2368000D02*
D03*
X2539000Y6532000D02*
D03*
D18*
X761000Y2622000D02*
D03*
X1015000Y2368000D02*
D03*
Y2622000D02*
D03*
X1269000Y2368000D02*
D03*
Y2622000D02*
D03*
X1523000Y2368000D02*
D03*
Y2622000D02*
D03*
X1777000Y2368000D02*
D03*
Y2622000D02*
D03*
X2031000Y2368000D02*
D03*
Y2622000D02*
D03*
X2285000Y2368000D02*
D03*
Y2622000D02*
D03*
X2539000Y2368000D02*
D03*
Y2622000D02*
D03*
Y6278000D02*
D03*
X2285000Y6532000D02*
D03*
Y6278000D02*
D03*
X2031000Y6532000D02*
D03*
Y6278000D02*
D03*
X1777000Y6532000D02*
D03*
Y6278000D02*
D03*
X1523000Y6532000D02*
D03*
Y6278000D02*
D03*
X1269000Y6532000D02*
D03*
Y6278000D02*
D03*
X1015000Y6532000D02*
D03*
Y6278000D02*
D03*
X761000Y6532000D02*
D03*
Y6278000D02*
D03*
X381000Y5389000D02*
D03*
X127000Y5135000D02*
D03*
X381000D02*
D03*
X127000Y4881000D02*
D03*
X381000D02*
D03*
X127000Y4627000D02*
D03*
X381000D02*
D03*
X127000Y4373000D02*
D03*
X381000D02*
D03*
X127000Y4119000D02*
D03*
X381000D02*
D03*
X127000Y3865000D02*
D03*
X381000D02*
D03*
X127000Y3611000D02*
D03*
X381000D02*
D03*
X2919000D02*
D03*
X3173000Y3865000D02*
D03*
X2919000D02*
D03*
X3173000Y4119000D02*
D03*
X2919000D02*
D03*
X3173000Y4373000D02*
D03*
X2919000D02*
D03*
X3173000Y4627000D02*
D03*
X2919000D02*
D03*
X3173000Y4881000D02*
D03*
X2919000D02*
D03*
X3173000Y5135000D02*
D03*
X2919000D02*
D03*
X3173000Y5389000D02*
D03*
X2919000D02*
D03*
D19*
X2555875Y6921500D02*
D03*
X2301875D02*
D03*
X2809875D02*
D03*
X3063875D02*
D03*
X1539875D02*
D03*
X1793875D02*
D03*
X2047875D02*
D03*
X1285875D02*
D03*
X777875D02*
D03*
X523875D02*
D03*
X1031875D02*
D03*
X269875D02*
D03*
X2555875Y7175500D02*
D03*
X2301875D02*
D03*
X2809875D02*
D03*
X3063875D02*
D03*
X1539875D02*
D03*
X1793875D02*
D03*
X2047875D02*
D03*
X1285875D02*
D03*
X777875D02*
D03*
X523875D02*
D03*
X1031875D02*
D03*
X269875D02*
D03*
Y7429500D02*
D03*
X1031875D02*
D03*
X523875D02*
D03*
X777875D02*
D03*
X1285875D02*
D03*
X2047875D02*
D03*
X1793875D02*
D03*
X1539875D02*
D03*
X3063875D02*
D03*
X2809875D02*
D03*
X2301875D02*
D03*
X2555875D02*
D03*
X2301875Y7937500D02*
D03*
Y7683500D02*
D03*
X2555875D02*
D03*
Y7937500D02*
D03*
X3063875D02*
D03*
Y7683500D02*
D03*
X2809875D02*
D03*
Y7937500D02*
D03*
X1285875D02*
D03*
Y7683500D02*
D03*
X1539875D02*
D03*
Y7937500D02*
D03*
X2047875D02*
D03*
Y7683500D02*
D03*
X1793875D02*
D03*
Y7937500D02*
D03*
X777875D02*
D03*
Y7683500D02*
D03*
X1031875D02*
D03*
Y7937500D02*
D03*
X523875D02*
D03*
Y7683500D02*
D03*
X269875D02*
D03*
Y7937500D02*
D03*
D20*
X127000Y5389000D02*
D03*
X3173000Y3611000D02*
D03*
D21*
X508000Y8238000D02*
D03*
Y508000D02*
D03*
D22*
Y8492000D02*
D03*
X762000Y8238000D02*
D03*
Y8492000D02*
D03*
X1016000Y8238000D02*
D03*
Y8492000D02*
D03*
X1270000Y8238000D02*
D03*
Y8492000D02*
D03*
X1524000Y8238000D02*
D03*
Y8492000D02*
D03*
X1778000Y8238000D02*
D03*
Y8492000D02*
D03*
X2032000Y8238000D02*
D03*
Y8492000D02*
D03*
X2286000Y8238000D02*
D03*
Y8492000D02*
D03*
X2540000Y8238000D02*
D03*
Y8492000D02*
D03*
X2794000Y8238000D02*
D03*
Y8492000D02*
D03*
X508000Y762000D02*
D03*
X762000Y508000D02*
D03*
Y762000D02*
D03*
X1016000Y508000D02*
D03*
Y762000D02*
D03*
X1270000Y508000D02*
D03*
Y762000D02*
D03*
X1524000Y508000D02*
D03*
Y762000D02*
D03*
X1778000Y508000D02*
D03*
Y762000D02*
D03*
X2032000Y508000D02*
D03*
Y762000D02*
D03*
X2286000Y508000D02*
D03*
Y762000D02*
D03*
X2540000Y508000D02*
D03*
Y762000D02*
D03*
X2794000Y508000D02*
D03*
Y762000D02*
D03*
%TF.MD5,ed084508a29b62cbad9f8cc1b21856e2*%
M02*
