%TF.GenerationSoftware,Altium Limited,Altium Designer,23.4.1 (23)*%
G04 Layer_Color=32768*
%FSLAX45Y45*%
%MOMM*%
%TF.SameCoordinates,2443AD3D-16DC-45C5-9BCC-0FA72C26467A*%
%TF.FilePolarity,Positive*%
%TF.FileFunction,Other,Mechanical_15*%
%TF.Part,Single*%
G01*
G75*
%TA.AperFunction,NonConductor*%
%ADD41C,0.10000*%
%ADD42C,0.05000*%
%ADD43C,0.05080*%
D41*
X1150000Y5000000D02*
X2150000D01*
Y4000000D02*
Y5000000D01*
X1150000Y4000000D02*
X2150000D01*
X1150000D02*
Y5000000D01*
Y4950000D02*
X1200000Y5000000D01*
D42*
X584000Y1119000D02*
Y1421000D01*
X432000D02*
X584000D01*
X432000Y1119000D02*
Y1421000D01*
Y1119000D02*
X584000D01*
X785500Y1003489D02*
Y1305489D01*
Y1003489D02*
X937500D01*
Y1305489D01*
X785500D02*
X937500D01*
X609000Y2228500D02*
Y2761500D01*
X2691000D01*
Y2228500D02*
Y2761500D01*
X609000Y2228500D02*
X2691000D01*
Y6138500D02*
Y6671500D01*
X609000Y6138500D02*
X2691000D01*
X609000D02*
Y6671500D01*
X2691000D01*
X-12500Y5541000D02*
X520500D01*
Y3459000D02*
Y5541000D01*
X-12500Y3459000D02*
X520500D01*
X-12500D02*
Y5541000D01*
X2779500Y3459000D02*
X3312500D01*
X2779500D02*
Y5541000D01*
X3312500D01*
Y3459000D02*
Y5541000D01*
X870000Y1359250D02*
X2430000D01*
X870000D02*
Y1879250D01*
X2430000D01*
Y1359250D02*
Y1879250D01*
X2971500Y8092350D02*
Y8637650D01*
X330500D02*
X2971500D01*
X330500Y8092350D02*
Y8637650D01*
Y8092350D02*
X2971500D01*
Y362350D02*
Y907650D01*
X330500D02*
X2971500D01*
X330500Y362350D02*
Y907650D01*
Y362350D02*
X2971500D01*
D43*
X2627925Y5096950D02*
Y5253550D01*
X2293325D02*
X2627925D01*
X2293325Y5096950D02*
Y5253550D01*
Y5096950D02*
X2627925D01*
X2620450Y1372575D02*
Y1707175D01*
X2777050D01*
Y1372575D02*
Y1707175D01*
X2620450Y1372575D02*
X2777050D01*
X556700D02*
Y1707175D01*
X713300D01*
Y1372575D02*
Y1707175D01*
X556700Y1372575D02*
X713300D01*
%TF.MD5,1cf4414d41469217b6cebc6105fba4d3*%
M02*
